G04 #@! TF.GenerationSoftware,KiCad,Pcbnew,9.0.4-9.0.4-0~ubuntu24.04.1*
G04 #@! TF.CreationDate,2026-02-11T09:01:33+09:00*
G04 #@! TF.ProjectId,10k-Hour-Timer-RP2040,31306b2d-486f-4757-922d-54696d65722d,rev?*
G04 #@! TF.SameCoordinates,Original*
G04 #@! TF.FileFunction,Copper,L4,Bot*
G04 #@! TF.FilePolarity,Positive*
%FSLAX46Y46*%
G04 Gerber Fmt 4.6, Leading zero omitted, Abs format (unit mm)*
G04 Created by KiCad (PCBNEW 9.0.4-9.0.4-0~ubuntu24.04.1) date 2026-02-11 09:01:33*
%MOMM*%
%LPD*%
G01*
G04 APERTURE LIST*
G04 Aperture macros list*
%AMRoundRect*
0 Rectangle with rounded corners*
0 $1 Rounding radius*
0 $2 $3 $4 $5 $6 $7 $8 $9 X,Y pos of 4 corners*
0 Add a 4 corners polygon primitive as box body*
4,1,4,$2,$3,$4,$5,$6,$7,$8,$9,$2,$3,0*
0 Add four circle primitives for the rounded corners*
1,1,$1+$1,$2,$3*
1,1,$1+$1,$4,$5*
1,1,$1+$1,$6,$7*
1,1,$1+$1,$8,$9*
0 Add four rect primitives between the rounded corners*
20,1,$1+$1,$2,$3,$4,$5,0*
20,1,$1+$1,$4,$5,$6,$7,0*
20,1,$1+$1,$6,$7,$8,$9,0*
20,1,$1+$1,$8,$9,$2,$3,0*%
G04 Aperture macros list end*
%ADD10C,0.100000*%
%ADD11C,0.150000*%
%ADD12C,0.300000*%
%ADD13C,0.400000*%
G04 #@! TA.AperFunction,ComponentPad*
%ADD14R,1.500000X1.500000*%
G04 #@! TD*
G04 #@! TA.AperFunction,ComponentPad*
%ADD15C,1.500000*%
G04 #@! TD*
G04 #@! TA.AperFunction,ComponentPad*
%ADD16C,2.000000*%
G04 #@! TD*
G04 #@! TA.AperFunction,ComponentPad*
%ADD17C,2.300000*%
G04 #@! TD*
G04 #@! TA.AperFunction,ComponentPad*
%ADD18R,1.700000X1.700000*%
G04 #@! TD*
G04 #@! TA.AperFunction,ComponentPad*
%ADD19C,1.700000*%
G04 #@! TD*
G04 #@! TA.AperFunction,ComponentPad*
%ADD20C,1.800000*%
G04 #@! TD*
G04 #@! TA.AperFunction,ComponentPad*
%ADD21O,2.100000X1.000000*%
G04 #@! TD*
G04 #@! TA.AperFunction,ComponentPad*
%ADD22O,1.800000X1.000000*%
G04 #@! TD*
G04 #@! TA.AperFunction,ComponentPad*
%ADD23RoundRect,0.250000X-0.625000X0.350000X-0.625000X-0.350000X0.625000X-0.350000X0.625000X0.350000X0*%
G04 #@! TD*
G04 #@! TA.AperFunction,ComponentPad*
%ADD24O,1.750000X1.200000*%
G04 #@! TD*
G04 #@! TA.AperFunction,ComponentPad*
%ADD25RoundRect,0.250000X-0.350000X-0.625000X0.350000X-0.625000X0.350000X0.625000X-0.350000X0.625000X0*%
G04 #@! TD*
G04 #@! TA.AperFunction,ComponentPad*
%ADD26O,1.200000X1.750000*%
G04 #@! TD*
G04 #@! TA.AperFunction,ComponentPad*
%ADD27R,1.600000X1.600000*%
G04 #@! TD*
G04 #@! TA.AperFunction,ComponentPad*
%ADD28C,1.600000*%
G04 #@! TD*
G04 #@! TA.AperFunction,ViaPad*
%ADD29C,0.350000*%
G04 #@! TD*
G04 #@! TA.AperFunction,ViaPad*
%ADD30C,0.685800*%
G04 #@! TD*
G04 #@! TA.AperFunction,ViaPad*
%ADD31C,0.500000*%
G04 #@! TD*
G04 #@! TA.AperFunction,ViaPad*
%ADD32C,0.889000*%
G04 #@! TD*
G04 #@! TA.AperFunction,Conductor*
%ADD33C,0.127000*%
G04 #@! TD*
G04 #@! TA.AperFunction,Conductor*
%ADD34C,0.508000*%
G04 #@! TD*
G04 #@! TA.AperFunction,Conductor*
%ADD35C,0.254000*%
G04 #@! TD*
G04 #@! TA.AperFunction,Conductor*
%ADD36C,0.762000*%
G04 #@! TD*
G04 #@! TA.AperFunction,Conductor*
%ADD37C,0.200000*%
G04 #@! TD*
G04 APERTURE END LIST*
D10*
D11*
X177002200Y-166007200D02*
X285002200Y-166007200D01*
X285002200Y-198007200D01*
X177002200Y-198007200D01*
X177002200Y-166007200D01*
D10*
D11*
X10000000Y-10000000D02*
X287002200Y-10000000D01*
X287002200Y-200007200D01*
X10000000Y-200007200D01*
X10000000Y-10000000D01*
D10*
D11*
X12000000Y-12000000D02*
X285002200Y-12000000D01*
X285002200Y-198007200D01*
X12000000Y-198007200D01*
X12000000Y-12000000D01*
D10*
D11*
X60000000Y-12000000D02*
X60000000Y-10000000D01*
D10*
D11*
X110000000Y-12000000D02*
X110000000Y-10000000D01*
D10*
D11*
X160000000Y-12000000D02*
X160000000Y-10000000D01*
D10*
D11*
X210000000Y-12000000D02*
X210000000Y-10000000D01*
D10*
D11*
X260000000Y-12000000D02*
X260000000Y-10000000D01*
D10*
D11*
X36089160Y-11593604D02*
X35346303Y-11593604D01*
X35717731Y-11593604D02*
X35717731Y-10293604D01*
X35717731Y-10293604D02*
X35593922Y-10479319D01*
X35593922Y-10479319D02*
X35470112Y-10603128D01*
X35470112Y-10603128D02*
X35346303Y-10665033D01*
D10*
D11*
X85346303Y-10417414D02*
X85408207Y-10355509D01*
X85408207Y-10355509D02*
X85532017Y-10293604D01*
X85532017Y-10293604D02*
X85841541Y-10293604D01*
X85841541Y-10293604D02*
X85965350Y-10355509D01*
X85965350Y-10355509D02*
X86027255Y-10417414D01*
X86027255Y-10417414D02*
X86089160Y-10541223D01*
X86089160Y-10541223D02*
X86089160Y-10665033D01*
X86089160Y-10665033D02*
X86027255Y-10850747D01*
X86027255Y-10850747D02*
X85284398Y-11593604D01*
X85284398Y-11593604D02*
X86089160Y-11593604D01*
D10*
D11*
X135284398Y-10293604D02*
X136089160Y-10293604D01*
X136089160Y-10293604D02*
X135655826Y-10788842D01*
X135655826Y-10788842D02*
X135841541Y-10788842D01*
X135841541Y-10788842D02*
X135965350Y-10850747D01*
X135965350Y-10850747D02*
X136027255Y-10912652D01*
X136027255Y-10912652D02*
X136089160Y-11036461D01*
X136089160Y-11036461D02*
X136089160Y-11345985D01*
X136089160Y-11345985D02*
X136027255Y-11469795D01*
X136027255Y-11469795D02*
X135965350Y-11531700D01*
X135965350Y-11531700D02*
X135841541Y-11593604D01*
X135841541Y-11593604D02*
X135470112Y-11593604D01*
X135470112Y-11593604D02*
X135346303Y-11531700D01*
X135346303Y-11531700D02*
X135284398Y-11469795D01*
D10*
D11*
X185965350Y-10726938D02*
X185965350Y-11593604D01*
X185655826Y-10231700D02*
X185346303Y-11160271D01*
X185346303Y-11160271D02*
X186151064Y-11160271D01*
D10*
D11*
X236027255Y-10293604D02*
X235408207Y-10293604D01*
X235408207Y-10293604D02*
X235346303Y-10912652D01*
X235346303Y-10912652D02*
X235408207Y-10850747D01*
X235408207Y-10850747D02*
X235532017Y-10788842D01*
X235532017Y-10788842D02*
X235841541Y-10788842D01*
X235841541Y-10788842D02*
X235965350Y-10850747D01*
X235965350Y-10850747D02*
X236027255Y-10912652D01*
X236027255Y-10912652D02*
X236089160Y-11036461D01*
X236089160Y-11036461D02*
X236089160Y-11345985D01*
X236089160Y-11345985D02*
X236027255Y-11469795D01*
X236027255Y-11469795D02*
X235965350Y-11531700D01*
X235965350Y-11531700D02*
X235841541Y-11593604D01*
X235841541Y-11593604D02*
X235532017Y-11593604D01*
X235532017Y-11593604D02*
X235408207Y-11531700D01*
X235408207Y-11531700D02*
X235346303Y-11469795D01*
D10*
D11*
X285965350Y-10293604D02*
X285717731Y-10293604D01*
X285717731Y-10293604D02*
X285593922Y-10355509D01*
X285593922Y-10355509D02*
X285532017Y-10417414D01*
X285532017Y-10417414D02*
X285408207Y-10603128D01*
X285408207Y-10603128D02*
X285346303Y-10850747D01*
X285346303Y-10850747D02*
X285346303Y-11345985D01*
X285346303Y-11345985D02*
X285408207Y-11469795D01*
X285408207Y-11469795D02*
X285470112Y-11531700D01*
X285470112Y-11531700D02*
X285593922Y-11593604D01*
X285593922Y-11593604D02*
X285841541Y-11593604D01*
X285841541Y-11593604D02*
X285965350Y-11531700D01*
X285965350Y-11531700D02*
X286027255Y-11469795D01*
X286027255Y-11469795D02*
X286089160Y-11345985D01*
X286089160Y-11345985D02*
X286089160Y-11036461D01*
X286089160Y-11036461D02*
X286027255Y-10912652D01*
X286027255Y-10912652D02*
X285965350Y-10850747D01*
X285965350Y-10850747D02*
X285841541Y-10788842D01*
X285841541Y-10788842D02*
X285593922Y-10788842D01*
X285593922Y-10788842D02*
X285470112Y-10850747D01*
X285470112Y-10850747D02*
X285408207Y-10912652D01*
X285408207Y-10912652D02*
X285346303Y-11036461D01*
D10*
D11*
X60000000Y-198007200D02*
X60000000Y-200007200D01*
D10*
D11*
X110000000Y-198007200D02*
X110000000Y-200007200D01*
D10*
D11*
X160000000Y-198007200D02*
X160000000Y-200007200D01*
D10*
D11*
X210000000Y-198007200D02*
X210000000Y-200007200D01*
D10*
D11*
X260000000Y-198007200D02*
X260000000Y-200007200D01*
D10*
D11*
X36089160Y-199600804D02*
X35346303Y-199600804D01*
X35717731Y-199600804D02*
X35717731Y-198300804D01*
X35717731Y-198300804D02*
X35593922Y-198486519D01*
X35593922Y-198486519D02*
X35470112Y-198610328D01*
X35470112Y-198610328D02*
X35346303Y-198672233D01*
D10*
D11*
X85346303Y-198424614D02*
X85408207Y-198362709D01*
X85408207Y-198362709D02*
X85532017Y-198300804D01*
X85532017Y-198300804D02*
X85841541Y-198300804D01*
X85841541Y-198300804D02*
X85965350Y-198362709D01*
X85965350Y-198362709D02*
X86027255Y-198424614D01*
X86027255Y-198424614D02*
X86089160Y-198548423D01*
X86089160Y-198548423D02*
X86089160Y-198672233D01*
X86089160Y-198672233D02*
X86027255Y-198857947D01*
X86027255Y-198857947D02*
X85284398Y-199600804D01*
X85284398Y-199600804D02*
X86089160Y-199600804D01*
D10*
D11*
X135284398Y-198300804D02*
X136089160Y-198300804D01*
X136089160Y-198300804D02*
X135655826Y-198796042D01*
X135655826Y-198796042D02*
X135841541Y-198796042D01*
X135841541Y-198796042D02*
X135965350Y-198857947D01*
X135965350Y-198857947D02*
X136027255Y-198919852D01*
X136027255Y-198919852D02*
X136089160Y-199043661D01*
X136089160Y-199043661D02*
X136089160Y-199353185D01*
X136089160Y-199353185D02*
X136027255Y-199476995D01*
X136027255Y-199476995D02*
X135965350Y-199538900D01*
X135965350Y-199538900D02*
X135841541Y-199600804D01*
X135841541Y-199600804D02*
X135470112Y-199600804D01*
X135470112Y-199600804D02*
X135346303Y-199538900D01*
X135346303Y-199538900D02*
X135284398Y-199476995D01*
D10*
D11*
X185965350Y-198734138D02*
X185965350Y-199600804D01*
X185655826Y-198238900D02*
X185346303Y-199167471D01*
X185346303Y-199167471D02*
X186151064Y-199167471D01*
D10*
D11*
X236027255Y-198300804D02*
X235408207Y-198300804D01*
X235408207Y-198300804D02*
X235346303Y-198919852D01*
X235346303Y-198919852D02*
X235408207Y-198857947D01*
X235408207Y-198857947D02*
X235532017Y-198796042D01*
X235532017Y-198796042D02*
X235841541Y-198796042D01*
X235841541Y-198796042D02*
X235965350Y-198857947D01*
X235965350Y-198857947D02*
X236027255Y-198919852D01*
X236027255Y-198919852D02*
X236089160Y-199043661D01*
X236089160Y-199043661D02*
X236089160Y-199353185D01*
X236089160Y-199353185D02*
X236027255Y-199476995D01*
X236027255Y-199476995D02*
X235965350Y-199538900D01*
X235965350Y-199538900D02*
X235841541Y-199600804D01*
X235841541Y-199600804D02*
X235532017Y-199600804D01*
X235532017Y-199600804D02*
X235408207Y-199538900D01*
X235408207Y-199538900D02*
X235346303Y-199476995D01*
D10*
D11*
X285965350Y-198300804D02*
X285717731Y-198300804D01*
X285717731Y-198300804D02*
X285593922Y-198362709D01*
X285593922Y-198362709D02*
X285532017Y-198424614D01*
X285532017Y-198424614D02*
X285408207Y-198610328D01*
X285408207Y-198610328D02*
X285346303Y-198857947D01*
X285346303Y-198857947D02*
X285346303Y-199353185D01*
X285346303Y-199353185D02*
X285408207Y-199476995D01*
X285408207Y-199476995D02*
X285470112Y-199538900D01*
X285470112Y-199538900D02*
X285593922Y-199600804D01*
X285593922Y-199600804D02*
X285841541Y-199600804D01*
X285841541Y-199600804D02*
X285965350Y-199538900D01*
X285965350Y-199538900D02*
X286027255Y-199476995D01*
X286027255Y-199476995D02*
X286089160Y-199353185D01*
X286089160Y-199353185D02*
X286089160Y-199043661D01*
X286089160Y-199043661D02*
X286027255Y-198919852D01*
X286027255Y-198919852D02*
X285965350Y-198857947D01*
X285965350Y-198857947D02*
X285841541Y-198796042D01*
X285841541Y-198796042D02*
X285593922Y-198796042D01*
X285593922Y-198796042D02*
X285470112Y-198857947D01*
X285470112Y-198857947D02*
X285408207Y-198919852D01*
X285408207Y-198919852D02*
X285346303Y-199043661D01*
D10*
D11*
X10000000Y-60000000D02*
X12000000Y-60000000D01*
D10*
D11*
X10000000Y-110000000D02*
X12000000Y-110000000D01*
D10*
D11*
X10000000Y-160000000D02*
X12000000Y-160000000D01*
D10*
D11*
X10690476Y-35222176D02*
X11309523Y-35222176D01*
X10566666Y-35593604D02*
X10999999Y-34293604D01*
X10999999Y-34293604D02*
X11433333Y-35593604D01*
D10*
D11*
X11092857Y-84912652D02*
X11278571Y-84974557D01*
X11278571Y-84974557D02*
X11340476Y-85036461D01*
X11340476Y-85036461D02*
X11402380Y-85160271D01*
X11402380Y-85160271D02*
X11402380Y-85345985D01*
X11402380Y-85345985D02*
X11340476Y-85469795D01*
X11340476Y-85469795D02*
X11278571Y-85531700D01*
X11278571Y-85531700D02*
X11154761Y-85593604D01*
X11154761Y-85593604D02*
X10659523Y-85593604D01*
X10659523Y-85593604D02*
X10659523Y-84293604D01*
X10659523Y-84293604D02*
X11092857Y-84293604D01*
X11092857Y-84293604D02*
X11216666Y-84355509D01*
X11216666Y-84355509D02*
X11278571Y-84417414D01*
X11278571Y-84417414D02*
X11340476Y-84541223D01*
X11340476Y-84541223D02*
X11340476Y-84665033D01*
X11340476Y-84665033D02*
X11278571Y-84788842D01*
X11278571Y-84788842D02*
X11216666Y-84850747D01*
X11216666Y-84850747D02*
X11092857Y-84912652D01*
X11092857Y-84912652D02*
X10659523Y-84912652D01*
D10*
D11*
X11402380Y-135469795D02*
X11340476Y-135531700D01*
X11340476Y-135531700D02*
X11154761Y-135593604D01*
X11154761Y-135593604D02*
X11030952Y-135593604D01*
X11030952Y-135593604D02*
X10845238Y-135531700D01*
X10845238Y-135531700D02*
X10721428Y-135407890D01*
X10721428Y-135407890D02*
X10659523Y-135284080D01*
X10659523Y-135284080D02*
X10597619Y-135036461D01*
X10597619Y-135036461D02*
X10597619Y-134850747D01*
X10597619Y-134850747D02*
X10659523Y-134603128D01*
X10659523Y-134603128D02*
X10721428Y-134479319D01*
X10721428Y-134479319D02*
X10845238Y-134355509D01*
X10845238Y-134355509D02*
X11030952Y-134293604D01*
X11030952Y-134293604D02*
X11154761Y-134293604D01*
X11154761Y-134293604D02*
X11340476Y-134355509D01*
X11340476Y-134355509D02*
X11402380Y-134417414D01*
D10*
D11*
X10659523Y-185593604D02*
X10659523Y-184293604D01*
X10659523Y-184293604D02*
X10969047Y-184293604D01*
X10969047Y-184293604D02*
X11154761Y-184355509D01*
X11154761Y-184355509D02*
X11278571Y-184479319D01*
X11278571Y-184479319D02*
X11340476Y-184603128D01*
X11340476Y-184603128D02*
X11402380Y-184850747D01*
X11402380Y-184850747D02*
X11402380Y-185036461D01*
X11402380Y-185036461D02*
X11340476Y-185284080D01*
X11340476Y-185284080D02*
X11278571Y-185407890D01*
X11278571Y-185407890D02*
X11154761Y-185531700D01*
X11154761Y-185531700D02*
X10969047Y-185593604D01*
X10969047Y-185593604D02*
X10659523Y-185593604D01*
D10*
D11*
X287002200Y-60000000D02*
X285002200Y-60000000D01*
D10*
D11*
X287002200Y-110000000D02*
X285002200Y-110000000D01*
D10*
D11*
X287002200Y-160000000D02*
X285002200Y-160000000D01*
D10*
D11*
X285692676Y-35222176D02*
X286311723Y-35222176D01*
X285568866Y-35593604D02*
X286002199Y-34293604D01*
X286002199Y-34293604D02*
X286435533Y-35593604D01*
D10*
D11*
X286095057Y-84912652D02*
X286280771Y-84974557D01*
X286280771Y-84974557D02*
X286342676Y-85036461D01*
X286342676Y-85036461D02*
X286404580Y-85160271D01*
X286404580Y-85160271D02*
X286404580Y-85345985D01*
X286404580Y-85345985D02*
X286342676Y-85469795D01*
X286342676Y-85469795D02*
X286280771Y-85531700D01*
X286280771Y-85531700D02*
X286156961Y-85593604D01*
X286156961Y-85593604D02*
X285661723Y-85593604D01*
X285661723Y-85593604D02*
X285661723Y-84293604D01*
X285661723Y-84293604D02*
X286095057Y-84293604D01*
X286095057Y-84293604D02*
X286218866Y-84355509D01*
X286218866Y-84355509D02*
X286280771Y-84417414D01*
X286280771Y-84417414D02*
X286342676Y-84541223D01*
X286342676Y-84541223D02*
X286342676Y-84665033D01*
X286342676Y-84665033D02*
X286280771Y-84788842D01*
X286280771Y-84788842D02*
X286218866Y-84850747D01*
X286218866Y-84850747D02*
X286095057Y-84912652D01*
X286095057Y-84912652D02*
X285661723Y-84912652D01*
D10*
D11*
X286404580Y-135469795D02*
X286342676Y-135531700D01*
X286342676Y-135531700D02*
X286156961Y-135593604D01*
X286156961Y-135593604D02*
X286033152Y-135593604D01*
X286033152Y-135593604D02*
X285847438Y-135531700D01*
X285847438Y-135531700D02*
X285723628Y-135407890D01*
X285723628Y-135407890D02*
X285661723Y-135284080D01*
X285661723Y-135284080D02*
X285599819Y-135036461D01*
X285599819Y-135036461D02*
X285599819Y-134850747D01*
X285599819Y-134850747D02*
X285661723Y-134603128D01*
X285661723Y-134603128D02*
X285723628Y-134479319D01*
X285723628Y-134479319D02*
X285847438Y-134355509D01*
X285847438Y-134355509D02*
X286033152Y-134293604D01*
X286033152Y-134293604D02*
X286156961Y-134293604D01*
X286156961Y-134293604D02*
X286342676Y-134355509D01*
X286342676Y-134355509D02*
X286404580Y-134417414D01*
D10*
D11*
X285661723Y-185593604D02*
X285661723Y-184293604D01*
X285661723Y-184293604D02*
X285971247Y-184293604D01*
X285971247Y-184293604D02*
X286156961Y-184355509D01*
X286156961Y-184355509D02*
X286280771Y-184479319D01*
X286280771Y-184479319D02*
X286342676Y-184603128D01*
X286342676Y-184603128D02*
X286404580Y-184850747D01*
X286404580Y-184850747D02*
X286404580Y-185036461D01*
X286404580Y-185036461D02*
X286342676Y-185284080D01*
X286342676Y-185284080D02*
X286280771Y-185407890D01*
X286280771Y-185407890D02*
X286156961Y-185531700D01*
X286156961Y-185531700D02*
X285971247Y-185593604D01*
X285971247Y-185593604D02*
X285661723Y-185593604D01*
D10*
D11*
X200458026Y-193793328D02*
X200458026Y-192293328D01*
X200458026Y-192293328D02*
X200815169Y-192293328D01*
X200815169Y-192293328D02*
X201029455Y-192364757D01*
X201029455Y-192364757D02*
X201172312Y-192507614D01*
X201172312Y-192507614D02*
X201243741Y-192650471D01*
X201243741Y-192650471D02*
X201315169Y-192936185D01*
X201315169Y-192936185D02*
X201315169Y-193150471D01*
X201315169Y-193150471D02*
X201243741Y-193436185D01*
X201243741Y-193436185D02*
X201172312Y-193579042D01*
X201172312Y-193579042D02*
X201029455Y-193721900D01*
X201029455Y-193721900D02*
X200815169Y-193793328D01*
X200815169Y-193793328D02*
X200458026Y-193793328D01*
X202600884Y-193793328D02*
X202600884Y-193007614D01*
X202600884Y-193007614D02*
X202529455Y-192864757D01*
X202529455Y-192864757D02*
X202386598Y-192793328D01*
X202386598Y-192793328D02*
X202100884Y-192793328D01*
X202100884Y-192793328D02*
X201958026Y-192864757D01*
X202600884Y-193721900D02*
X202458026Y-193793328D01*
X202458026Y-193793328D02*
X202100884Y-193793328D01*
X202100884Y-193793328D02*
X201958026Y-193721900D01*
X201958026Y-193721900D02*
X201886598Y-193579042D01*
X201886598Y-193579042D02*
X201886598Y-193436185D01*
X201886598Y-193436185D02*
X201958026Y-193293328D01*
X201958026Y-193293328D02*
X202100884Y-193221900D01*
X202100884Y-193221900D02*
X202458026Y-193221900D01*
X202458026Y-193221900D02*
X202600884Y-193150471D01*
X203100884Y-192793328D02*
X203672312Y-192793328D01*
X203315169Y-192293328D02*
X203315169Y-193579042D01*
X203315169Y-193579042D02*
X203386598Y-193721900D01*
X203386598Y-193721900D02*
X203529455Y-193793328D01*
X203529455Y-193793328D02*
X203672312Y-193793328D01*
X204743741Y-193721900D02*
X204600884Y-193793328D01*
X204600884Y-193793328D02*
X204315170Y-193793328D01*
X204315170Y-193793328D02*
X204172312Y-193721900D01*
X204172312Y-193721900D02*
X204100884Y-193579042D01*
X204100884Y-193579042D02*
X204100884Y-193007614D01*
X204100884Y-193007614D02*
X204172312Y-192864757D01*
X204172312Y-192864757D02*
X204315170Y-192793328D01*
X204315170Y-192793328D02*
X204600884Y-192793328D01*
X204600884Y-192793328D02*
X204743741Y-192864757D01*
X204743741Y-192864757D02*
X204815170Y-193007614D01*
X204815170Y-193007614D02*
X204815170Y-193150471D01*
X204815170Y-193150471D02*
X204100884Y-193293328D01*
X205458026Y-193650471D02*
X205529455Y-193721900D01*
X205529455Y-193721900D02*
X205458026Y-193793328D01*
X205458026Y-193793328D02*
X205386598Y-193721900D01*
X205386598Y-193721900D02*
X205458026Y-193650471D01*
X205458026Y-193650471D02*
X205458026Y-193793328D01*
X205458026Y-192864757D02*
X205529455Y-192936185D01*
X205529455Y-192936185D02*
X205458026Y-193007614D01*
X205458026Y-193007614D02*
X205386598Y-192936185D01*
X205386598Y-192936185D02*
X205458026Y-192864757D01*
X205458026Y-192864757D02*
X205458026Y-193007614D01*
D10*
D11*
X177002200Y-194507200D02*
X285002200Y-194507200D01*
D10*
D11*
X178458026Y-196593328D02*
X178458026Y-195093328D01*
X179315169Y-196593328D02*
X178672312Y-195736185D01*
X179315169Y-195093328D02*
X178458026Y-195950471D01*
X179958026Y-196593328D02*
X179958026Y-195593328D01*
X179958026Y-195093328D02*
X179886598Y-195164757D01*
X179886598Y-195164757D02*
X179958026Y-195236185D01*
X179958026Y-195236185D02*
X180029455Y-195164757D01*
X180029455Y-195164757D02*
X179958026Y-195093328D01*
X179958026Y-195093328D02*
X179958026Y-195236185D01*
X181529455Y-196450471D02*
X181458027Y-196521900D01*
X181458027Y-196521900D02*
X181243741Y-196593328D01*
X181243741Y-196593328D02*
X181100884Y-196593328D01*
X181100884Y-196593328D02*
X180886598Y-196521900D01*
X180886598Y-196521900D02*
X180743741Y-196379042D01*
X180743741Y-196379042D02*
X180672312Y-196236185D01*
X180672312Y-196236185D02*
X180600884Y-195950471D01*
X180600884Y-195950471D02*
X180600884Y-195736185D01*
X180600884Y-195736185D02*
X180672312Y-195450471D01*
X180672312Y-195450471D02*
X180743741Y-195307614D01*
X180743741Y-195307614D02*
X180886598Y-195164757D01*
X180886598Y-195164757D02*
X181100884Y-195093328D01*
X181100884Y-195093328D02*
X181243741Y-195093328D01*
X181243741Y-195093328D02*
X181458027Y-195164757D01*
X181458027Y-195164757D02*
X181529455Y-195236185D01*
X182815170Y-196593328D02*
X182815170Y-195807614D01*
X182815170Y-195807614D02*
X182743741Y-195664757D01*
X182743741Y-195664757D02*
X182600884Y-195593328D01*
X182600884Y-195593328D02*
X182315170Y-195593328D01*
X182315170Y-195593328D02*
X182172312Y-195664757D01*
X182815170Y-196521900D02*
X182672312Y-196593328D01*
X182672312Y-196593328D02*
X182315170Y-196593328D01*
X182315170Y-196593328D02*
X182172312Y-196521900D01*
X182172312Y-196521900D02*
X182100884Y-196379042D01*
X182100884Y-196379042D02*
X182100884Y-196236185D01*
X182100884Y-196236185D02*
X182172312Y-196093328D01*
X182172312Y-196093328D02*
X182315170Y-196021900D01*
X182315170Y-196021900D02*
X182672312Y-196021900D01*
X182672312Y-196021900D02*
X182815170Y-195950471D01*
X184172313Y-196593328D02*
X184172313Y-195093328D01*
X184172313Y-196521900D02*
X184029455Y-196593328D01*
X184029455Y-196593328D02*
X183743741Y-196593328D01*
X183743741Y-196593328D02*
X183600884Y-196521900D01*
X183600884Y-196521900D02*
X183529455Y-196450471D01*
X183529455Y-196450471D02*
X183458027Y-196307614D01*
X183458027Y-196307614D02*
X183458027Y-195879042D01*
X183458027Y-195879042D02*
X183529455Y-195736185D01*
X183529455Y-195736185D02*
X183600884Y-195664757D01*
X183600884Y-195664757D02*
X183743741Y-195593328D01*
X183743741Y-195593328D02*
X184029455Y-195593328D01*
X184029455Y-195593328D02*
X184172313Y-195664757D01*
X186029455Y-195807614D02*
X186529455Y-195807614D01*
X186743741Y-196593328D02*
X186029455Y-196593328D01*
X186029455Y-196593328D02*
X186029455Y-195093328D01*
X186029455Y-195093328D02*
X186743741Y-195093328D01*
X187386598Y-196450471D02*
X187458027Y-196521900D01*
X187458027Y-196521900D02*
X187386598Y-196593328D01*
X187386598Y-196593328D02*
X187315170Y-196521900D01*
X187315170Y-196521900D02*
X187386598Y-196450471D01*
X187386598Y-196450471D02*
X187386598Y-196593328D01*
X188100884Y-196593328D02*
X188100884Y-195093328D01*
X188100884Y-195093328D02*
X188458027Y-195093328D01*
X188458027Y-195093328D02*
X188672313Y-195164757D01*
X188672313Y-195164757D02*
X188815170Y-195307614D01*
X188815170Y-195307614D02*
X188886599Y-195450471D01*
X188886599Y-195450471D02*
X188958027Y-195736185D01*
X188958027Y-195736185D02*
X188958027Y-195950471D01*
X188958027Y-195950471D02*
X188886599Y-196236185D01*
X188886599Y-196236185D02*
X188815170Y-196379042D01*
X188815170Y-196379042D02*
X188672313Y-196521900D01*
X188672313Y-196521900D02*
X188458027Y-196593328D01*
X188458027Y-196593328D02*
X188100884Y-196593328D01*
X189600884Y-196450471D02*
X189672313Y-196521900D01*
X189672313Y-196521900D02*
X189600884Y-196593328D01*
X189600884Y-196593328D02*
X189529456Y-196521900D01*
X189529456Y-196521900D02*
X189600884Y-196450471D01*
X189600884Y-196450471D02*
X189600884Y-196593328D01*
X190243742Y-196164757D02*
X190958028Y-196164757D01*
X190100885Y-196593328D02*
X190600885Y-195093328D01*
X190600885Y-195093328D02*
X191100885Y-196593328D01*
X191600884Y-196450471D02*
X191672313Y-196521900D01*
X191672313Y-196521900D02*
X191600884Y-196593328D01*
X191600884Y-196593328D02*
X191529456Y-196521900D01*
X191529456Y-196521900D02*
X191600884Y-196450471D01*
X191600884Y-196450471D02*
X191600884Y-196593328D01*
X193529456Y-196593328D02*
X193815170Y-196593328D01*
X193815170Y-196593328D02*
X193958027Y-196521900D01*
X193958027Y-196521900D02*
X194029456Y-196450471D01*
X194029456Y-196450471D02*
X194172313Y-196236185D01*
X194172313Y-196236185D02*
X194243742Y-195950471D01*
X194243742Y-195950471D02*
X194243742Y-195379042D01*
X194243742Y-195379042D02*
X194172313Y-195236185D01*
X194172313Y-195236185D02*
X194100885Y-195164757D01*
X194100885Y-195164757D02*
X193958027Y-195093328D01*
X193958027Y-195093328D02*
X193672313Y-195093328D01*
X193672313Y-195093328D02*
X193529456Y-195164757D01*
X193529456Y-195164757D02*
X193458027Y-195236185D01*
X193458027Y-195236185D02*
X193386599Y-195379042D01*
X193386599Y-195379042D02*
X193386599Y-195736185D01*
X193386599Y-195736185D02*
X193458027Y-195879042D01*
X193458027Y-195879042D02*
X193529456Y-195950471D01*
X193529456Y-195950471D02*
X193672313Y-196021900D01*
X193672313Y-196021900D02*
X193958027Y-196021900D01*
X193958027Y-196021900D02*
X194100885Y-195950471D01*
X194100885Y-195950471D02*
X194172313Y-195879042D01*
X194172313Y-195879042D02*
X194243742Y-195736185D01*
X194886598Y-196450471D02*
X194958027Y-196521900D01*
X194958027Y-196521900D02*
X194886598Y-196593328D01*
X194886598Y-196593328D02*
X194815170Y-196521900D01*
X194815170Y-196521900D02*
X194886598Y-196450471D01*
X194886598Y-196450471D02*
X194886598Y-196593328D01*
X195886599Y-195093328D02*
X196029456Y-195093328D01*
X196029456Y-195093328D02*
X196172313Y-195164757D01*
X196172313Y-195164757D02*
X196243742Y-195236185D01*
X196243742Y-195236185D02*
X196315170Y-195379042D01*
X196315170Y-195379042D02*
X196386599Y-195664757D01*
X196386599Y-195664757D02*
X196386599Y-196021900D01*
X196386599Y-196021900D02*
X196315170Y-196307614D01*
X196315170Y-196307614D02*
X196243742Y-196450471D01*
X196243742Y-196450471D02*
X196172313Y-196521900D01*
X196172313Y-196521900D02*
X196029456Y-196593328D01*
X196029456Y-196593328D02*
X195886599Y-196593328D01*
X195886599Y-196593328D02*
X195743742Y-196521900D01*
X195743742Y-196521900D02*
X195672313Y-196450471D01*
X195672313Y-196450471D02*
X195600884Y-196307614D01*
X195600884Y-196307614D02*
X195529456Y-196021900D01*
X195529456Y-196021900D02*
X195529456Y-195664757D01*
X195529456Y-195664757D02*
X195600884Y-195379042D01*
X195600884Y-195379042D02*
X195672313Y-195236185D01*
X195672313Y-195236185D02*
X195743742Y-195164757D01*
X195743742Y-195164757D02*
X195886599Y-195093328D01*
X197029455Y-196450471D02*
X197100884Y-196521900D01*
X197100884Y-196521900D02*
X197029455Y-196593328D01*
X197029455Y-196593328D02*
X196958027Y-196521900D01*
X196958027Y-196521900D02*
X197029455Y-196450471D01*
X197029455Y-196450471D02*
X197029455Y-196593328D01*
X198386599Y-195593328D02*
X198386599Y-196593328D01*
X198029456Y-195021900D02*
X197672313Y-196093328D01*
X197672313Y-196093328D02*
X198600884Y-196093328D01*
D10*
D11*
X177002200Y-191507200D02*
X285002200Y-191507200D01*
D10*
D12*
X264413853Y-193785528D02*
X263913853Y-193071242D01*
X263556710Y-193785528D02*
X263556710Y-192285528D01*
X263556710Y-192285528D02*
X264128139Y-192285528D01*
X264128139Y-192285528D02*
X264270996Y-192356957D01*
X264270996Y-192356957D02*
X264342425Y-192428385D01*
X264342425Y-192428385D02*
X264413853Y-192571242D01*
X264413853Y-192571242D02*
X264413853Y-192785528D01*
X264413853Y-192785528D02*
X264342425Y-192928385D01*
X264342425Y-192928385D02*
X264270996Y-192999814D01*
X264270996Y-192999814D02*
X264128139Y-193071242D01*
X264128139Y-193071242D02*
X263556710Y-193071242D01*
X265628139Y-193714100D02*
X265485282Y-193785528D01*
X265485282Y-193785528D02*
X265199568Y-193785528D01*
X265199568Y-193785528D02*
X265056710Y-193714100D01*
X265056710Y-193714100D02*
X264985282Y-193571242D01*
X264985282Y-193571242D02*
X264985282Y-192999814D01*
X264985282Y-192999814D02*
X265056710Y-192856957D01*
X265056710Y-192856957D02*
X265199568Y-192785528D01*
X265199568Y-192785528D02*
X265485282Y-192785528D01*
X265485282Y-192785528D02*
X265628139Y-192856957D01*
X265628139Y-192856957D02*
X265699568Y-192999814D01*
X265699568Y-192999814D02*
X265699568Y-193142671D01*
X265699568Y-193142671D02*
X264985282Y-193285528D01*
X266199567Y-192785528D02*
X266556710Y-193785528D01*
X266556710Y-193785528D02*
X266913853Y-192785528D01*
X267485281Y-193642671D02*
X267556710Y-193714100D01*
X267556710Y-193714100D02*
X267485281Y-193785528D01*
X267485281Y-193785528D02*
X267413853Y-193714100D01*
X267413853Y-193714100D02*
X267485281Y-193642671D01*
X267485281Y-193642671D02*
X267485281Y-193785528D01*
X267485281Y-192856957D02*
X267556710Y-192928385D01*
X267556710Y-192928385D02*
X267485281Y-192999814D01*
X267485281Y-192999814D02*
X267413853Y-192928385D01*
X267413853Y-192928385D02*
X267485281Y-192856957D01*
X267485281Y-192856957D02*
X267485281Y-192999814D01*
D10*
D11*
X178386598Y-193721900D02*
X178600884Y-193793328D01*
X178600884Y-193793328D02*
X178958026Y-193793328D01*
X178958026Y-193793328D02*
X179100884Y-193721900D01*
X179100884Y-193721900D02*
X179172312Y-193650471D01*
X179172312Y-193650471D02*
X179243741Y-193507614D01*
X179243741Y-193507614D02*
X179243741Y-193364757D01*
X179243741Y-193364757D02*
X179172312Y-193221900D01*
X179172312Y-193221900D02*
X179100884Y-193150471D01*
X179100884Y-193150471D02*
X178958026Y-193079042D01*
X178958026Y-193079042D02*
X178672312Y-193007614D01*
X178672312Y-193007614D02*
X178529455Y-192936185D01*
X178529455Y-192936185D02*
X178458026Y-192864757D01*
X178458026Y-192864757D02*
X178386598Y-192721900D01*
X178386598Y-192721900D02*
X178386598Y-192579042D01*
X178386598Y-192579042D02*
X178458026Y-192436185D01*
X178458026Y-192436185D02*
X178529455Y-192364757D01*
X178529455Y-192364757D02*
X178672312Y-192293328D01*
X178672312Y-192293328D02*
X179029455Y-192293328D01*
X179029455Y-192293328D02*
X179243741Y-192364757D01*
X179886597Y-193793328D02*
X179886597Y-192793328D01*
X179886597Y-192293328D02*
X179815169Y-192364757D01*
X179815169Y-192364757D02*
X179886597Y-192436185D01*
X179886597Y-192436185D02*
X179958026Y-192364757D01*
X179958026Y-192364757D02*
X179886597Y-192293328D01*
X179886597Y-192293328D02*
X179886597Y-192436185D01*
X180458026Y-192793328D02*
X181243741Y-192793328D01*
X181243741Y-192793328D02*
X180458026Y-193793328D01*
X180458026Y-193793328D02*
X181243741Y-193793328D01*
X182386598Y-193721900D02*
X182243741Y-193793328D01*
X182243741Y-193793328D02*
X181958027Y-193793328D01*
X181958027Y-193793328D02*
X181815169Y-193721900D01*
X181815169Y-193721900D02*
X181743741Y-193579042D01*
X181743741Y-193579042D02*
X181743741Y-193007614D01*
X181743741Y-193007614D02*
X181815169Y-192864757D01*
X181815169Y-192864757D02*
X181958027Y-192793328D01*
X181958027Y-192793328D02*
X182243741Y-192793328D01*
X182243741Y-192793328D02*
X182386598Y-192864757D01*
X182386598Y-192864757D02*
X182458027Y-193007614D01*
X182458027Y-193007614D02*
X182458027Y-193150471D01*
X182458027Y-193150471D02*
X181743741Y-193293328D01*
X183100883Y-193650471D02*
X183172312Y-193721900D01*
X183172312Y-193721900D02*
X183100883Y-193793328D01*
X183100883Y-193793328D02*
X183029455Y-193721900D01*
X183029455Y-193721900D02*
X183100883Y-193650471D01*
X183100883Y-193650471D02*
X183100883Y-193793328D01*
X183100883Y-192864757D02*
X183172312Y-192936185D01*
X183172312Y-192936185D02*
X183100883Y-193007614D01*
X183100883Y-193007614D02*
X183029455Y-192936185D01*
X183029455Y-192936185D02*
X183100883Y-192864757D01*
X183100883Y-192864757D02*
X183100883Y-193007614D01*
X184886598Y-193364757D02*
X185600884Y-193364757D01*
X184743741Y-193793328D02*
X185243741Y-192293328D01*
X185243741Y-192293328D02*
X185743741Y-193793328D01*
X186886598Y-192793328D02*
X186886598Y-193793328D01*
X186529455Y-192221900D02*
X186172312Y-193293328D01*
X186172312Y-193293328D02*
X187100883Y-193293328D01*
D10*
D11*
X263458026Y-196593328D02*
X263458026Y-195093328D01*
X264815170Y-196593328D02*
X264815170Y-195093328D01*
X264815170Y-196521900D02*
X264672312Y-196593328D01*
X264672312Y-196593328D02*
X264386598Y-196593328D01*
X264386598Y-196593328D02*
X264243741Y-196521900D01*
X264243741Y-196521900D02*
X264172312Y-196450471D01*
X264172312Y-196450471D02*
X264100884Y-196307614D01*
X264100884Y-196307614D02*
X264100884Y-195879042D01*
X264100884Y-195879042D02*
X264172312Y-195736185D01*
X264172312Y-195736185D02*
X264243741Y-195664757D01*
X264243741Y-195664757D02*
X264386598Y-195593328D01*
X264386598Y-195593328D02*
X264672312Y-195593328D01*
X264672312Y-195593328D02*
X264815170Y-195664757D01*
X265529455Y-196450471D02*
X265600884Y-196521900D01*
X265600884Y-196521900D02*
X265529455Y-196593328D01*
X265529455Y-196593328D02*
X265458027Y-196521900D01*
X265458027Y-196521900D02*
X265529455Y-196450471D01*
X265529455Y-196450471D02*
X265529455Y-196593328D01*
X265529455Y-195664757D02*
X265600884Y-195736185D01*
X265600884Y-195736185D02*
X265529455Y-195807614D01*
X265529455Y-195807614D02*
X265458027Y-195736185D01*
X265458027Y-195736185D02*
X265529455Y-195664757D01*
X265529455Y-195664757D02*
X265529455Y-195807614D01*
X268029456Y-195593328D02*
X268029456Y-196593328D01*
X267672313Y-195021900D02*
X267315170Y-196093328D01*
X267315170Y-196093328D02*
X268243741Y-196093328D01*
X269886598Y-195021900D02*
X268600884Y-196950471D01*
X271172313Y-196593328D02*
X270315170Y-196593328D01*
X270743741Y-196593328D02*
X270743741Y-195093328D01*
X270743741Y-195093328D02*
X270600884Y-195307614D01*
X270600884Y-195307614D02*
X270458027Y-195450471D01*
X270458027Y-195450471D02*
X270315170Y-195521900D01*
X272600884Y-196593328D02*
X271743741Y-196593328D01*
X272172312Y-196593328D02*
X272172312Y-195093328D01*
X272172312Y-195093328D02*
X272029455Y-195307614D01*
X272029455Y-195307614D02*
X271886598Y-195450471D01*
X271886598Y-195450471D02*
X271743741Y-195521900D01*
D10*
D11*
X177002200Y-187507200D02*
X285002200Y-187507200D01*
D10*
D13*
X178693928Y-188211638D02*
X179836785Y-188211638D01*
X179015357Y-190211638D02*
X179265357Y-188211638D01*
X180253452Y-190211638D02*
X180420119Y-188878304D01*
X180503452Y-188211638D02*
X180396309Y-188306876D01*
X180396309Y-188306876D02*
X180479643Y-188402114D01*
X180479643Y-188402114D02*
X180586786Y-188306876D01*
X180586786Y-188306876D02*
X180503452Y-188211638D01*
X180503452Y-188211638D02*
X180479643Y-188402114D01*
X181086786Y-188878304D02*
X181848690Y-188878304D01*
X181455833Y-188211638D02*
X181241548Y-189925923D01*
X181241548Y-189925923D02*
X181312976Y-190116400D01*
X181312976Y-190116400D02*
X181491548Y-190211638D01*
X181491548Y-190211638D02*
X181682024Y-190211638D01*
X182634405Y-190211638D02*
X182455833Y-190116400D01*
X182455833Y-190116400D02*
X182384405Y-189925923D01*
X182384405Y-189925923D02*
X182598690Y-188211638D01*
X184170119Y-190116400D02*
X183967738Y-190211638D01*
X183967738Y-190211638D02*
X183586785Y-190211638D01*
X183586785Y-190211638D02*
X183408214Y-190116400D01*
X183408214Y-190116400D02*
X183336785Y-189925923D01*
X183336785Y-189925923D02*
X183432024Y-189164019D01*
X183432024Y-189164019D02*
X183551071Y-188973542D01*
X183551071Y-188973542D02*
X183753452Y-188878304D01*
X183753452Y-188878304D02*
X184134404Y-188878304D01*
X184134404Y-188878304D02*
X184312976Y-188973542D01*
X184312976Y-188973542D02*
X184384404Y-189164019D01*
X184384404Y-189164019D02*
X184360595Y-189354495D01*
X184360595Y-189354495D02*
X183384404Y-189544971D01*
X185134405Y-190021161D02*
X185217738Y-190116400D01*
X185217738Y-190116400D02*
X185110595Y-190211638D01*
X185110595Y-190211638D02*
X185027262Y-190116400D01*
X185027262Y-190116400D02*
X185134405Y-190021161D01*
X185134405Y-190021161D02*
X185110595Y-190211638D01*
X185265357Y-188973542D02*
X185348690Y-189068780D01*
X185348690Y-189068780D02*
X185241548Y-189164019D01*
X185241548Y-189164019D02*
X185158214Y-189068780D01*
X185158214Y-189068780D02*
X185265357Y-188973542D01*
X185265357Y-188973542D02*
X185241548Y-189164019D01*
D10*
D11*
X178958026Y-185607614D02*
X178458026Y-185607614D01*
X178458026Y-186393328D02*
X178458026Y-184893328D01*
X178458026Y-184893328D02*
X179172312Y-184893328D01*
X179743740Y-186393328D02*
X179743740Y-185393328D01*
X179743740Y-184893328D02*
X179672312Y-184964757D01*
X179672312Y-184964757D02*
X179743740Y-185036185D01*
X179743740Y-185036185D02*
X179815169Y-184964757D01*
X179815169Y-184964757D02*
X179743740Y-184893328D01*
X179743740Y-184893328D02*
X179743740Y-185036185D01*
X180672312Y-186393328D02*
X180529455Y-186321900D01*
X180529455Y-186321900D02*
X180458026Y-186179042D01*
X180458026Y-186179042D02*
X180458026Y-184893328D01*
X181815169Y-186321900D02*
X181672312Y-186393328D01*
X181672312Y-186393328D02*
X181386598Y-186393328D01*
X181386598Y-186393328D02*
X181243740Y-186321900D01*
X181243740Y-186321900D02*
X181172312Y-186179042D01*
X181172312Y-186179042D02*
X181172312Y-185607614D01*
X181172312Y-185607614D02*
X181243740Y-185464757D01*
X181243740Y-185464757D02*
X181386598Y-185393328D01*
X181386598Y-185393328D02*
X181672312Y-185393328D01*
X181672312Y-185393328D02*
X181815169Y-185464757D01*
X181815169Y-185464757D02*
X181886598Y-185607614D01*
X181886598Y-185607614D02*
X181886598Y-185750471D01*
X181886598Y-185750471D02*
X181172312Y-185893328D01*
X182529454Y-186250471D02*
X182600883Y-186321900D01*
X182600883Y-186321900D02*
X182529454Y-186393328D01*
X182529454Y-186393328D02*
X182458026Y-186321900D01*
X182458026Y-186321900D02*
X182529454Y-186250471D01*
X182529454Y-186250471D02*
X182529454Y-186393328D01*
X182529454Y-185464757D02*
X182600883Y-185536185D01*
X182600883Y-185536185D02*
X182529454Y-185607614D01*
X182529454Y-185607614D02*
X182458026Y-185536185D01*
X182458026Y-185536185D02*
X182529454Y-185464757D01*
X182529454Y-185464757D02*
X182529454Y-185607614D01*
X185172312Y-186393328D02*
X184315169Y-186393328D01*
X184743740Y-186393328D02*
X184743740Y-184893328D01*
X184743740Y-184893328D02*
X184600883Y-185107614D01*
X184600883Y-185107614D02*
X184458026Y-185250471D01*
X184458026Y-185250471D02*
X184315169Y-185321900D01*
X186100883Y-184893328D02*
X186243740Y-184893328D01*
X186243740Y-184893328D02*
X186386597Y-184964757D01*
X186386597Y-184964757D02*
X186458026Y-185036185D01*
X186458026Y-185036185D02*
X186529454Y-185179042D01*
X186529454Y-185179042D02*
X186600883Y-185464757D01*
X186600883Y-185464757D02*
X186600883Y-185821900D01*
X186600883Y-185821900D02*
X186529454Y-186107614D01*
X186529454Y-186107614D02*
X186458026Y-186250471D01*
X186458026Y-186250471D02*
X186386597Y-186321900D01*
X186386597Y-186321900D02*
X186243740Y-186393328D01*
X186243740Y-186393328D02*
X186100883Y-186393328D01*
X186100883Y-186393328D02*
X185958026Y-186321900D01*
X185958026Y-186321900D02*
X185886597Y-186250471D01*
X185886597Y-186250471D02*
X185815168Y-186107614D01*
X185815168Y-186107614D02*
X185743740Y-185821900D01*
X185743740Y-185821900D02*
X185743740Y-185464757D01*
X185743740Y-185464757D02*
X185815168Y-185179042D01*
X185815168Y-185179042D02*
X185886597Y-185036185D01*
X185886597Y-185036185D02*
X185958026Y-184964757D01*
X185958026Y-184964757D02*
X186100883Y-184893328D01*
X187243739Y-186393328D02*
X187243739Y-184893328D01*
X187386597Y-185821900D02*
X187815168Y-186393328D01*
X187815168Y-185393328D02*
X187243739Y-185964757D01*
X188458025Y-185821900D02*
X189600883Y-185821900D01*
X190315168Y-186393328D02*
X190315168Y-184893328D01*
X190315168Y-185607614D02*
X191172311Y-185607614D01*
X191172311Y-186393328D02*
X191172311Y-184893328D01*
X192100883Y-186393328D02*
X191958026Y-186321900D01*
X191958026Y-186321900D02*
X191886597Y-186250471D01*
X191886597Y-186250471D02*
X191815169Y-186107614D01*
X191815169Y-186107614D02*
X191815169Y-185679042D01*
X191815169Y-185679042D02*
X191886597Y-185536185D01*
X191886597Y-185536185D02*
X191958026Y-185464757D01*
X191958026Y-185464757D02*
X192100883Y-185393328D01*
X192100883Y-185393328D02*
X192315169Y-185393328D01*
X192315169Y-185393328D02*
X192458026Y-185464757D01*
X192458026Y-185464757D02*
X192529455Y-185536185D01*
X192529455Y-185536185D02*
X192600883Y-185679042D01*
X192600883Y-185679042D02*
X192600883Y-186107614D01*
X192600883Y-186107614D02*
X192529455Y-186250471D01*
X192529455Y-186250471D02*
X192458026Y-186321900D01*
X192458026Y-186321900D02*
X192315169Y-186393328D01*
X192315169Y-186393328D02*
X192100883Y-186393328D01*
X193886598Y-185393328D02*
X193886598Y-186393328D01*
X193243740Y-185393328D02*
X193243740Y-186179042D01*
X193243740Y-186179042D02*
X193315169Y-186321900D01*
X193315169Y-186321900D02*
X193458026Y-186393328D01*
X193458026Y-186393328D02*
X193672312Y-186393328D01*
X193672312Y-186393328D02*
X193815169Y-186321900D01*
X193815169Y-186321900D02*
X193886598Y-186250471D01*
X194600883Y-186393328D02*
X194600883Y-185393328D01*
X194600883Y-185679042D02*
X194672312Y-185536185D01*
X194672312Y-185536185D02*
X194743741Y-185464757D01*
X194743741Y-185464757D02*
X194886598Y-185393328D01*
X194886598Y-185393328D02*
X195029455Y-185393328D01*
X195529454Y-185821900D02*
X196672312Y-185821900D01*
X197172312Y-184893328D02*
X198029455Y-184893328D01*
X197600883Y-186393328D02*
X197600883Y-184893328D01*
X198529454Y-186393328D02*
X198529454Y-185393328D01*
X198529454Y-184893328D02*
X198458026Y-184964757D01*
X198458026Y-184964757D02*
X198529454Y-185036185D01*
X198529454Y-185036185D02*
X198600883Y-184964757D01*
X198600883Y-184964757D02*
X198529454Y-184893328D01*
X198529454Y-184893328D02*
X198529454Y-185036185D01*
X199243740Y-186393328D02*
X199243740Y-185393328D01*
X199243740Y-185536185D02*
X199315169Y-185464757D01*
X199315169Y-185464757D02*
X199458026Y-185393328D01*
X199458026Y-185393328D02*
X199672312Y-185393328D01*
X199672312Y-185393328D02*
X199815169Y-185464757D01*
X199815169Y-185464757D02*
X199886598Y-185607614D01*
X199886598Y-185607614D02*
X199886598Y-186393328D01*
X199886598Y-185607614D02*
X199958026Y-185464757D01*
X199958026Y-185464757D02*
X200100883Y-185393328D01*
X200100883Y-185393328D02*
X200315169Y-185393328D01*
X200315169Y-185393328D02*
X200458026Y-185464757D01*
X200458026Y-185464757D02*
X200529455Y-185607614D01*
X200529455Y-185607614D02*
X200529455Y-186393328D01*
X201815169Y-186321900D02*
X201672312Y-186393328D01*
X201672312Y-186393328D02*
X201386598Y-186393328D01*
X201386598Y-186393328D02*
X201243740Y-186321900D01*
X201243740Y-186321900D02*
X201172312Y-186179042D01*
X201172312Y-186179042D02*
X201172312Y-185607614D01*
X201172312Y-185607614D02*
X201243740Y-185464757D01*
X201243740Y-185464757D02*
X201386598Y-185393328D01*
X201386598Y-185393328D02*
X201672312Y-185393328D01*
X201672312Y-185393328D02*
X201815169Y-185464757D01*
X201815169Y-185464757D02*
X201886598Y-185607614D01*
X201886598Y-185607614D02*
X201886598Y-185750471D01*
X201886598Y-185750471D02*
X201172312Y-185893328D01*
X202529454Y-186393328D02*
X202529454Y-185393328D01*
X202529454Y-185679042D02*
X202600883Y-185536185D01*
X202600883Y-185536185D02*
X202672312Y-185464757D01*
X202672312Y-185464757D02*
X202815169Y-185393328D01*
X202815169Y-185393328D02*
X202958026Y-185393328D01*
X203458025Y-185821900D02*
X204600883Y-185821900D01*
X206172311Y-186393328D02*
X205672311Y-185679042D01*
X205315168Y-186393328D02*
X205315168Y-184893328D01*
X205315168Y-184893328D02*
X205886597Y-184893328D01*
X205886597Y-184893328D02*
X206029454Y-184964757D01*
X206029454Y-184964757D02*
X206100883Y-185036185D01*
X206100883Y-185036185D02*
X206172311Y-185179042D01*
X206172311Y-185179042D02*
X206172311Y-185393328D01*
X206172311Y-185393328D02*
X206100883Y-185536185D01*
X206100883Y-185536185D02*
X206029454Y-185607614D01*
X206029454Y-185607614D02*
X205886597Y-185679042D01*
X205886597Y-185679042D02*
X205315168Y-185679042D01*
X206815168Y-186393328D02*
X206815168Y-184893328D01*
X206815168Y-184893328D02*
X207386597Y-184893328D01*
X207386597Y-184893328D02*
X207529454Y-184964757D01*
X207529454Y-184964757D02*
X207600883Y-185036185D01*
X207600883Y-185036185D02*
X207672311Y-185179042D01*
X207672311Y-185179042D02*
X207672311Y-185393328D01*
X207672311Y-185393328D02*
X207600883Y-185536185D01*
X207600883Y-185536185D02*
X207529454Y-185607614D01*
X207529454Y-185607614D02*
X207386597Y-185679042D01*
X207386597Y-185679042D02*
X206815168Y-185679042D01*
X208243740Y-185036185D02*
X208315168Y-184964757D01*
X208315168Y-184964757D02*
X208458026Y-184893328D01*
X208458026Y-184893328D02*
X208815168Y-184893328D01*
X208815168Y-184893328D02*
X208958026Y-184964757D01*
X208958026Y-184964757D02*
X209029454Y-185036185D01*
X209029454Y-185036185D02*
X209100883Y-185179042D01*
X209100883Y-185179042D02*
X209100883Y-185321900D01*
X209100883Y-185321900D02*
X209029454Y-185536185D01*
X209029454Y-185536185D02*
X208172311Y-186393328D01*
X208172311Y-186393328D02*
X209100883Y-186393328D01*
X210029454Y-184893328D02*
X210172311Y-184893328D01*
X210172311Y-184893328D02*
X210315168Y-184964757D01*
X210315168Y-184964757D02*
X210386597Y-185036185D01*
X210386597Y-185036185D02*
X210458025Y-185179042D01*
X210458025Y-185179042D02*
X210529454Y-185464757D01*
X210529454Y-185464757D02*
X210529454Y-185821900D01*
X210529454Y-185821900D02*
X210458025Y-186107614D01*
X210458025Y-186107614D02*
X210386597Y-186250471D01*
X210386597Y-186250471D02*
X210315168Y-186321900D01*
X210315168Y-186321900D02*
X210172311Y-186393328D01*
X210172311Y-186393328D02*
X210029454Y-186393328D01*
X210029454Y-186393328D02*
X209886597Y-186321900D01*
X209886597Y-186321900D02*
X209815168Y-186250471D01*
X209815168Y-186250471D02*
X209743739Y-186107614D01*
X209743739Y-186107614D02*
X209672311Y-185821900D01*
X209672311Y-185821900D02*
X209672311Y-185464757D01*
X209672311Y-185464757D02*
X209743739Y-185179042D01*
X209743739Y-185179042D02*
X209815168Y-185036185D01*
X209815168Y-185036185D02*
X209886597Y-184964757D01*
X209886597Y-184964757D02*
X210029454Y-184893328D01*
X211815168Y-185393328D02*
X211815168Y-186393328D01*
X211458025Y-184821900D02*
X211100882Y-185893328D01*
X211100882Y-185893328D02*
X212029453Y-185893328D01*
X212886596Y-184893328D02*
X213029453Y-184893328D01*
X213029453Y-184893328D02*
X213172310Y-184964757D01*
X213172310Y-184964757D02*
X213243739Y-185036185D01*
X213243739Y-185036185D02*
X213315167Y-185179042D01*
X213315167Y-185179042D02*
X213386596Y-185464757D01*
X213386596Y-185464757D02*
X213386596Y-185821900D01*
X213386596Y-185821900D02*
X213315167Y-186107614D01*
X213315167Y-186107614D02*
X213243739Y-186250471D01*
X213243739Y-186250471D02*
X213172310Y-186321900D01*
X213172310Y-186321900D02*
X213029453Y-186393328D01*
X213029453Y-186393328D02*
X212886596Y-186393328D01*
X212886596Y-186393328D02*
X212743739Y-186321900D01*
X212743739Y-186321900D02*
X212672310Y-186250471D01*
X212672310Y-186250471D02*
X212600881Y-186107614D01*
X212600881Y-186107614D02*
X212529453Y-185821900D01*
X212529453Y-185821900D02*
X212529453Y-185464757D01*
X212529453Y-185464757D02*
X212600881Y-185179042D01*
X212600881Y-185179042D02*
X212672310Y-185036185D01*
X212672310Y-185036185D02*
X212743739Y-184964757D01*
X212743739Y-184964757D02*
X212886596Y-184893328D01*
X214029452Y-186250471D02*
X214100881Y-186321900D01*
X214100881Y-186321900D02*
X214029452Y-186393328D01*
X214029452Y-186393328D02*
X213958024Y-186321900D01*
X213958024Y-186321900D02*
X214029452Y-186250471D01*
X214029452Y-186250471D02*
X214029452Y-186393328D01*
X214743738Y-186393328D02*
X214743738Y-184893328D01*
X214886596Y-185821900D02*
X215315167Y-186393328D01*
X215315167Y-185393328D02*
X214743738Y-185964757D01*
X215958024Y-186393328D02*
X215958024Y-185393328D01*
X215958024Y-184893328D02*
X215886596Y-184964757D01*
X215886596Y-184964757D02*
X215958024Y-185036185D01*
X215958024Y-185036185D02*
X216029453Y-184964757D01*
X216029453Y-184964757D02*
X215958024Y-184893328D01*
X215958024Y-184893328D02*
X215958024Y-185036185D01*
X217315168Y-186321900D02*
X217172310Y-186393328D01*
X217172310Y-186393328D02*
X216886596Y-186393328D01*
X216886596Y-186393328D02*
X216743739Y-186321900D01*
X216743739Y-186321900D02*
X216672310Y-186250471D01*
X216672310Y-186250471D02*
X216600882Y-186107614D01*
X216600882Y-186107614D02*
X216600882Y-185679042D01*
X216600882Y-185679042D02*
X216672310Y-185536185D01*
X216672310Y-185536185D02*
X216743739Y-185464757D01*
X216743739Y-185464757D02*
X216886596Y-185393328D01*
X216886596Y-185393328D02*
X217172310Y-185393328D01*
X217172310Y-185393328D02*
X217315168Y-185464757D01*
X218600882Y-186393328D02*
X218600882Y-185607614D01*
X218600882Y-185607614D02*
X218529453Y-185464757D01*
X218529453Y-185464757D02*
X218386596Y-185393328D01*
X218386596Y-185393328D02*
X218100882Y-185393328D01*
X218100882Y-185393328D02*
X217958024Y-185464757D01*
X218600882Y-186321900D02*
X218458024Y-186393328D01*
X218458024Y-186393328D02*
X218100882Y-186393328D01*
X218100882Y-186393328D02*
X217958024Y-186321900D01*
X217958024Y-186321900D02*
X217886596Y-186179042D01*
X217886596Y-186179042D02*
X217886596Y-186036185D01*
X217886596Y-186036185D02*
X217958024Y-185893328D01*
X217958024Y-185893328D02*
X218100882Y-185821900D01*
X218100882Y-185821900D02*
X218458024Y-185821900D01*
X218458024Y-185821900D02*
X218600882Y-185750471D01*
X219958025Y-186393328D02*
X219958025Y-184893328D01*
X219958025Y-186321900D02*
X219815167Y-186393328D01*
X219815167Y-186393328D02*
X219529453Y-186393328D01*
X219529453Y-186393328D02*
X219386596Y-186321900D01*
X219386596Y-186321900D02*
X219315167Y-186250471D01*
X219315167Y-186250471D02*
X219243739Y-186107614D01*
X219243739Y-186107614D02*
X219243739Y-185679042D01*
X219243739Y-185679042D02*
X219315167Y-185536185D01*
X219315167Y-185536185D02*
X219386596Y-185464757D01*
X219386596Y-185464757D02*
X219529453Y-185393328D01*
X219529453Y-185393328D02*
X219815167Y-185393328D01*
X219815167Y-185393328D02*
X219958025Y-185464757D01*
X220315168Y-186536185D02*
X221458025Y-186536185D01*
X221815167Y-185393328D02*
X221815167Y-186893328D01*
X221815167Y-185464757D02*
X221958025Y-185393328D01*
X221958025Y-185393328D02*
X222243739Y-185393328D01*
X222243739Y-185393328D02*
X222386596Y-185464757D01*
X222386596Y-185464757D02*
X222458025Y-185536185D01*
X222458025Y-185536185D02*
X222529453Y-185679042D01*
X222529453Y-185679042D02*
X222529453Y-186107614D01*
X222529453Y-186107614D02*
X222458025Y-186250471D01*
X222458025Y-186250471D02*
X222386596Y-186321900D01*
X222386596Y-186321900D02*
X222243739Y-186393328D01*
X222243739Y-186393328D02*
X221958025Y-186393328D01*
X221958025Y-186393328D02*
X221815167Y-186321900D01*
X223815168Y-186321900D02*
X223672310Y-186393328D01*
X223672310Y-186393328D02*
X223386596Y-186393328D01*
X223386596Y-186393328D02*
X223243739Y-186321900D01*
X223243739Y-186321900D02*
X223172310Y-186250471D01*
X223172310Y-186250471D02*
X223100882Y-186107614D01*
X223100882Y-186107614D02*
X223100882Y-185679042D01*
X223100882Y-185679042D02*
X223172310Y-185536185D01*
X223172310Y-185536185D02*
X223243739Y-185464757D01*
X223243739Y-185464757D02*
X223386596Y-185393328D01*
X223386596Y-185393328D02*
X223672310Y-185393328D01*
X223672310Y-185393328D02*
X223815168Y-185464757D01*
X224458024Y-186393328D02*
X224458024Y-184893328D01*
X224458024Y-185464757D02*
X224600882Y-185393328D01*
X224600882Y-185393328D02*
X224886596Y-185393328D01*
X224886596Y-185393328D02*
X225029453Y-185464757D01*
X225029453Y-185464757D02*
X225100882Y-185536185D01*
X225100882Y-185536185D02*
X225172310Y-185679042D01*
X225172310Y-185679042D02*
X225172310Y-186107614D01*
X225172310Y-186107614D02*
X225100882Y-186250471D01*
X225100882Y-186250471D02*
X225029453Y-186321900D01*
X225029453Y-186321900D02*
X224886596Y-186393328D01*
X224886596Y-186393328D02*
X224600882Y-186393328D01*
X224600882Y-186393328D02*
X224458024Y-186321900D01*
D10*
D11*
X177002200Y-181507200D02*
X285002200Y-181507200D01*
D10*
D11*
X178386598Y-183621900D02*
X178600884Y-183693328D01*
X178600884Y-183693328D02*
X178958026Y-183693328D01*
X178958026Y-183693328D02*
X179100884Y-183621900D01*
X179100884Y-183621900D02*
X179172312Y-183550471D01*
X179172312Y-183550471D02*
X179243741Y-183407614D01*
X179243741Y-183407614D02*
X179243741Y-183264757D01*
X179243741Y-183264757D02*
X179172312Y-183121900D01*
X179172312Y-183121900D02*
X179100884Y-183050471D01*
X179100884Y-183050471D02*
X178958026Y-182979042D01*
X178958026Y-182979042D02*
X178672312Y-182907614D01*
X178672312Y-182907614D02*
X178529455Y-182836185D01*
X178529455Y-182836185D02*
X178458026Y-182764757D01*
X178458026Y-182764757D02*
X178386598Y-182621900D01*
X178386598Y-182621900D02*
X178386598Y-182479042D01*
X178386598Y-182479042D02*
X178458026Y-182336185D01*
X178458026Y-182336185D02*
X178529455Y-182264757D01*
X178529455Y-182264757D02*
X178672312Y-182193328D01*
X178672312Y-182193328D02*
X179029455Y-182193328D01*
X179029455Y-182193328D02*
X179243741Y-182264757D01*
X179886597Y-183693328D02*
X179886597Y-182193328D01*
X180529455Y-183693328D02*
X180529455Y-182907614D01*
X180529455Y-182907614D02*
X180458026Y-182764757D01*
X180458026Y-182764757D02*
X180315169Y-182693328D01*
X180315169Y-182693328D02*
X180100883Y-182693328D01*
X180100883Y-182693328D02*
X179958026Y-182764757D01*
X179958026Y-182764757D02*
X179886597Y-182836185D01*
X181815169Y-183621900D02*
X181672312Y-183693328D01*
X181672312Y-183693328D02*
X181386598Y-183693328D01*
X181386598Y-183693328D02*
X181243740Y-183621900D01*
X181243740Y-183621900D02*
X181172312Y-183479042D01*
X181172312Y-183479042D02*
X181172312Y-182907614D01*
X181172312Y-182907614D02*
X181243740Y-182764757D01*
X181243740Y-182764757D02*
X181386598Y-182693328D01*
X181386598Y-182693328D02*
X181672312Y-182693328D01*
X181672312Y-182693328D02*
X181815169Y-182764757D01*
X181815169Y-182764757D02*
X181886598Y-182907614D01*
X181886598Y-182907614D02*
X181886598Y-183050471D01*
X181886598Y-183050471D02*
X181172312Y-183193328D01*
X183100883Y-183621900D02*
X182958026Y-183693328D01*
X182958026Y-183693328D02*
X182672312Y-183693328D01*
X182672312Y-183693328D02*
X182529454Y-183621900D01*
X182529454Y-183621900D02*
X182458026Y-183479042D01*
X182458026Y-183479042D02*
X182458026Y-182907614D01*
X182458026Y-182907614D02*
X182529454Y-182764757D01*
X182529454Y-182764757D02*
X182672312Y-182693328D01*
X182672312Y-182693328D02*
X182958026Y-182693328D01*
X182958026Y-182693328D02*
X183100883Y-182764757D01*
X183100883Y-182764757D02*
X183172312Y-182907614D01*
X183172312Y-182907614D02*
X183172312Y-183050471D01*
X183172312Y-183050471D02*
X182458026Y-183193328D01*
X183600883Y-182693328D02*
X184172311Y-182693328D01*
X183815168Y-182193328D02*
X183815168Y-183479042D01*
X183815168Y-183479042D02*
X183886597Y-183621900D01*
X183886597Y-183621900D02*
X184029454Y-183693328D01*
X184029454Y-183693328D02*
X184172311Y-183693328D01*
X184672311Y-183550471D02*
X184743740Y-183621900D01*
X184743740Y-183621900D02*
X184672311Y-183693328D01*
X184672311Y-183693328D02*
X184600883Y-183621900D01*
X184600883Y-183621900D02*
X184672311Y-183550471D01*
X184672311Y-183550471D02*
X184672311Y-183693328D01*
X184672311Y-182764757D02*
X184743740Y-182836185D01*
X184743740Y-182836185D02*
X184672311Y-182907614D01*
X184672311Y-182907614D02*
X184600883Y-182836185D01*
X184600883Y-182836185D02*
X184672311Y-182764757D01*
X184672311Y-182764757D02*
X184672311Y-182907614D01*
D10*
D11*
X197002200Y-191507200D02*
X197002200Y-194507200D01*
D10*
D11*
X261002200Y-191507200D02*
X261002200Y-198007200D01*
D14*
G04 #@! TO.P,U8,1,DIG1*
G04 #@! TO.N,/TM1638_Display/Dig_1*
X168880000Y-64137000D03*
D15*
G04 #@! TO.P,U8,2,d*
G04 #@! TO.N,/TM1638_Display/SEG_D*
X171420000Y-64137000D03*
G04 #@! TO.P,U8,3,DPX*
G04 #@! TO.N,/TM1638_Display/SEG_DPX*
X173960000Y-64137000D03*
G04 #@! TO.P,U8,4,e*
G04 #@! TO.N,/TM1638_Display/SEG_E*
X176500000Y-64137000D03*
G04 #@! TO.P,U8,5,DIG3*
G04 #@! TO.N,/TM1638_Display/Dig_3*
X179040000Y-64137000D03*
G04 #@! TO.P,U8,6,c*
G04 #@! TO.N,/TM1638_Display/SEG_C*
X181580000Y-64137000D03*
G04 #@! TO.P,U8,7,NA*
G04 #@! TO.N,/TM1638_Display/SEG_D*
X184120000Y-64137000D03*
G04 #@! TO.P,U8,8,b*
G04 #@! TO.N,/TM1638_Display/SEG_B*
X184120000Y-56517000D03*
G04 #@! TO.P,U8,9,DIG4*
G04 #@! TO.N,/TM1638_Display/Dig_4*
X181580000Y-56517000D03*
G04 #@! TO.P,U8,10,g*
G04 #@! TO.N,/TM1638_Display/SEG_G*
X179040000Y-56517000D03*
G04 #@! TO.P,U8,11,DX*
G04 #@! TO.N,/TM1638_Display/SEG_DX*
X176500000Y-56517000D03*
G04 #@! TO.P,U8,12,DIG2*
G04 #@! TO.N,/TM1638_Display/Dig_2*
X173960000Y-56517000D03*
G04 #@! TO.P,U8,13,f*
G04 #@! TO.N,/TM1638_Display/SEG_F*
X171420000Y-56517000D03*
G04 #@! TO.P,U8,14,a*
G04 #@! TO.N,/TM1638_Display/SEG_A*
X168880000Y-56517000D03*
G04 #@! TD*
D16*
G04 #@! TO.P,TP16,1,1*
G04 #@! TO.N,/Power-DCDC-Charger-Battery/DC_EN_CTL*
X111397000Y-107236000D03*
G04 #@! TD*
D17*
G04 #@! TO.P,BT1,1,+*
G04 #@! TO.N,Net-(BT1-+)*
X116850000Y-61200000D03*
G04 #@! TO.P,BT1,2,-*
G04 #@! TO.N,/Power-DCDC-Charger-Battery/Batt-*
X154350000Y-61200000D03*
G04 #@! TD*
D16*
G04 #@! TO.P,TP14,1,1*
G04 #@! TO.N,Net-(Q2-D)*
X142210000Y-77350000D03*
G04 #@! TD*
G04 #@! TO.P,TP8,1,1*
G04 #@! TO.N,/Power-DCDC-Charger-Battery/Batt+*
X111197000Y-94836000D03*
G04 #@! TD*
G04 #@! TO.P,TP12,1,1*
G04 #@! TO.N,/Power-DCDC-Charger-Battery/COUT*
X139035000Y-77350000D03*
G04 #@! TD*
G04 #@! TO.P,SW3,1,1*
G04 #@! TO.N,GND*
X175155000Y-140505000D03*
X181655000Y-140505000D03*
G04 #@! TO.P,SW3,2,2*
G04 #@! TO.N,/MCU-IO/~{Reset}*
X175155000Y-145005000D03*
X181655000Y-145005000D03*
G04 #@! TD*
G04 #@! TO.P,TP6,1,1*
G04 #@! TO.N,/MCU-IO/ADC1_VSW_In*
X111984000Y-138945000D03*
G04 #@! TD*
G04 #@! TO.P,TP21,1,1*
G04 #@! TO.N,/MCU-IO/BTN_B_Sense*
X155545000Y-145295000D03*
G04 #@! TD*
G04 #@! TO.P,TP4,1,1*
G04 #@! TO.N,/Power-DCDC-Charger-Battery/VBAT*
X111984000Y-135770000D03*
G04 #@! TD*
D18*
G04 #@! TO.P,J9,1,Pin_1*
G04 #@! TO.N,/RTC/INT_CLKOUT*
X163400000Y-110640000D03*
D19*
G04 #@! TO.P,J9,2,Pin_2*
G04 #@! TO.N,GND*
X163400000Y-108100000D03*
G04 #@! TD*
D16*
G04 #@! TO.P,TP15,1,1*
G04 #@! TO.N,/Power-DCDC-Charger-Battery/Batt-*
X129510000Y-77350000D03*
G04 #@! TD*
D14*
G04 #@! TO.P,U9,1,DIG1*
G04 #@! TO.N,/TM1638_Display/Dig_5*
X168880000Y-75661000D03*
D15*
G04 #@! TO.P,U9,2,d*
G04 #@! TO.N,/TM1638_Display/SEG_D*
X171420000Y-75661000D03*
G04 #@! TO.P,U9,3,DPX*
G04 #@! TO.N,/TM1638_Display/SEG_DPX*
X173960000Y-75661000D03*
G04 #@! TO.P,U9,4,e*
G04 #@! TO.N,/TM1638_Display/SEG_E*
X176500000Y-75661000D03*
G04 #@! TO.P,U9,5,DIG3*
G04 #@! TO.N,/TM1638_Display/Dig_7*
X179040000Y-75661000D03*
G04 #@! TO.P,U9,6,c*
G04 #@! TO.N,/TM1638_Display/SEG_C*
X181580000Y-75661000D03*
G04 #@! TO.P,U9,7,NA*
G04 #@! TO.N,/TM1638_Display/SEG_D*
X184120000Y-75661000D03*
G04 #@! TO.P,U9,8,b*
G04 #@! TO.N,/TM1638_Display/SEG_B*
X184120000Y-68041000D03*
G04 #@! TO.P,U9,9,DIG4*
G04 #@! TO.N,/TM1638_Display/Dig_8*
X181580000Y-68041000D03*
G04 #@! TO.P,U9,10,g*
G04 #@! TO.N,/TM1638_Display/SEG_G*
X179040000Y-68041000D03*
G04 #@! TO.P,U9,11,DX*
G04 #@! TO.N,/TM1638_Display/SEG_DX*
X176500000Y-68041000D03*
G04 #@! TO.P,U9,12,DIG2*
G04 #@! TO.N,/TM1638_Display/Dig_6*
X173960000Y-68041000D03*
G04 #@! TO.P,U9,13,f*
G04 #@! TO.N,/TM1638_Display/SEG_F*
X171420000Y-68041000D03*
G04 #@! TO.P,U9,14,a*
G04 #@! TO.N,/TM1638_Display/SEG_A*
X168880000Y-68041000D03*
G04 #@! TD*
D16*
G04 #@! TO.P,TP5,1,1*
G04 #@! TO.N,/MCU-IO/ADC0_VUSB_In*
X145385000Y-77350000D03*
G04 #@! TD*
G04 #@! TO.P,TP20,1,1*
G04 #@! TO.N,/MCU-IO/ADC1*
X145801000Y-102345600D03*
G04 #@! TD*
G04 #@! TO.P,TP13,1,1*
G04 #@! TO.N,GND*
X135860000Y-77350000D03*
G04 #@! TD*
D18*
G04 #@! TO.P,J1,1,Pin_1*
G04 #@! TO.N,/SWCLK*
X200630000Y-76080000D03*
D19*
G04 #@! TO.P,J1,2,Pin_2*
G04 #@! TO.N,GND*
X200630000Y-78620000D03*
G04 #@! TO.P,J1,3,Pin_3*
G04 #@! TO.N,/SWDIO*
X200630000Y-81160000D03*
G04 #@! TD*
D18*
G04 #@! TO.P,J11,1,Pin_1*
G04 #@! TO.N,/Power-DCDC-Charger-Battery/V_OUT*
X189835000Y-138310000D03*
D19*
G04 #@! TO.P,J11,2,Pin_2*
G04 #@! TO.N,GND*
X192375000Y-138310000D03*
G04 #@! TD*
D16*
G04 #@! TO.P,SW2,1,1*
G04 #@! TO.N,Net-(R23-Pad1)*
X164435000Y-140505000D03*
X170935000Y-140505000D03*
G04 #@! TO.P,SW2,2,2*
G04 #@! TO.N,GND*
X164435000Y-145005000D03*
X170935000Y-145005000D03*
G04 #@! TD*
D18*
G04 #@! TO.P,J6,1,Pin_1*
G04 #@! TO.N,3V3*
X198125000Y-115960000D03*
D19*
G04 #@! TO.P,J6,2,Pin_2*
X200665000Y-115960000D03*
G04 #@! TO.P,J6,3,Pin_3*
X198125000Y-118500000D03*
G04 #@! TO.P,J6,4,Pin_4*
G04 #@! TO.N,/MCU-IO/IO14*
X200665000Y-118500000D03*
G04 #@! TO.P,J6,5,Pin_5*
G04 #@! TO.N,/MCU-IO/IO2_LD-*
X198125000Y-121040000D03*
G04 #@! TO.P,J6,6,Pin_6*
G04 #@! TO.N,/MCU-IO/IO9*
X200665000Y-121040000D03*
G04 #@! TO.P,J6,7,Pin_7*
G04 #@! TO.N,/MCU-IO/IO3_LD-*
X198125000Y-123580000D03*
G04 #@! TO.P,J6,8,Pin_8*
G04 #@! TO.N,/MCU-IO/IO15*
X200665000Y-123580000D03*
G04 #@! TO.P,J6,9,Pin_9*
G04 #@! TO.N,/MCU-IO/IO5*
X198125000Y-126120000D03*
G04 #@! TO.P,J6,10,Pin_10*
G04 #@! TO.N,/MCU-IO/IO16*
X200665000Y-126120000D03*
G04 #@! TO.P,J6,11,Pin_11*
G04 #@! TO.N,/MCU-IO/IO6*
X198125000Y-128660000D03*
G04 #@! TO.P,J6,12,Pin_12*
G04 #@! TO.N,/MCU-IO/IO21*
X200665000Y-128660000D03*
G04 #@! TO.P,J6,13,Pin_13*
G04 #@! TO.N,/MCU-IO/IO4*
X198125000Y-131200000D03*
G04 #@! TO.P,J6,14,Pin_14*
G04 #@! TO.N,/MCU-IO/IO22*
X200665000Y-131200000D03*
G04 #@! TO.P,J6,15,Pin_15*
G04 #@! TO.N,GND*
X198125000Y-133740000D03*
G04 #@! TO.P,J6,16,Pin_16*
X200665000Y-133740000D03*
G04 #@! TD*
D16*
G04 #@! TO.P,SW4,1,1*
G04 #@! TO.N,/MCU-IO/BTN_A_Sense*
X124950000Y-140350000D03*
X131450000Y-140350000D03*
G04 #@! TO.P,SW4,2,2*
G04 #@! TO.N,GND*
X124950000Y-144850000D03*
X131450000Y-144850000D03*
G04 #@! TD*
D20*
G04 #@! TO.P,BZ1,1,+*
G04 #@! TO.N,/MCU-IO/BZ1*
X173325000Y-126960000D03*
G04 #@! TO.P,BZ1,2,-*
G04 #@! TO.N,GND*
X173325000Y-131960000D03*
G04 #@! TD*
D21*
G04 #@! TO.P,J3,S1,SHIELD*
G04 #@! TO.N,/SHIELD*
X110727000Y-113246000D03*
D22*
X106547000Y-113246000D03*
D21*
X110727000Y-121886000D03*
D22*
X106547000Y-121886000D03*
G04 #@! TD*
D23*
G04 #@! TO.P,J4,1,1*
G04 #@! TO.N,Net-(BT1-+)*
X109653000Y-87864000D03*
D24*
G04 #@! TO.P,J4,2,2*
G04 #@! TO.N,/Power-DCDC-Charger-Battery/Batt-*
X109653000Y-89864000D03*
G04 #@! TD*
D16*
G04 #@! TO.P,TP2,1,1*
G04 #@! TO.N,/VBUS_IN*
X111984000Y-129420000D03*
G04 #@! TD*
G04 #@! TO.P,TP24,1,1*
G04 #@! TO.N,/RTC/INT_G*
X158720000Y-86240000D03*
G04 #@! TD*
G04 #@! TO.P,TP10,1,1*
G04 #@! TO.N,Net-(U3-V-)*
X126335000Y-77350000D03*
G04 #@! TD*
D18*
G04 #@! TO.P,J5,1,Pin_1*
G04 #@! TO.N,/TM1638_Display/VDD_SEL*
X195550000Y-60840000D03*
D19*
G04 #@! TO.P,J5,2,Pin_2*
X198090000Y-60840000D03*
G04 #@! TO.P,J5,3,Pin_3*
G04 #@! TO.N,GND*
X195550000Y-63380000D03*
G04 #@! TO.P,J5,4,Pin_4*
X198090000Y-63380000D03*
G04 #@! TO.P,J5,5,Pin_5*
G04 #@! TO.N,/TM1638_Display/STB_Out*
X195550000Y-65920000D03*
G04 #@! TO.P,J5,6,Pin_6*
X198090000Y-65920000D03*
G04 #@! TO.P,J5,7,Pin_7*
G04 #@! TO.N,/TM1638_Display/CLK_Out*
X195550000Y-68460000D03*
G04 #@! TO.P,J5,8,Pin_8*
X198090000Y-68460000D03*
G04 #@! TO.P,J5,9,Pin_9*
G04 #@! TO.N,/TM1638_Display/DIO_Out*
X195550000Y-71000000D03*
G04 #@! TO.P,J5,10,Pin_10*
X198090000Y-71000000D03*
G04 #@! TD*
D16*
G04 #@! TO.P,TP9,1,1*
G04 #@! TO.N,/Power-DCDC-Charger-Battery/Batt-*
X111476000Y-97976000D03*
G04 #@! TD*
G04 #@! TO.P,TP26,1,1*
G04 #@! TO.N,/Power-DCDC-Charger-Battery/V_OUT*
X185831400Y-135873600D03*
G04 #@! TD*
G04 #@! TO.P,TP1,1,1*
G04 #@! TO.N,GND*
X107285000Y-124975000D03*
G04 #@! TD*
D25*
G04 #@! TO.P,J10,1,1*
G04 #@! TO.N,/Power-DCDC-Charger-Battery/V_OUT*
X190470000Y-143390000D03*
D26*
G04 #@! TO.P,J10,2,2*
G04 #@! TO.N,GND*
X192470000Y-143390000D03*
G04 #@! TD*
D16*
G04 #@! TO.P,TP7,1,1*
G04 #@! TO.N,/Power-DCDC-Charger-Battery/STAT*
X145385000Y-74175000D03*
G04 #@! TD*
G04 #@! TO.P,TP18,1,1*
G04 #@! TO.N,/MCU-IO/IO_Gate*
X152370000Y-145295000D03*
G04 #@! TD*
G04 #@! TO.P,TP22,1,1*
G04 #@! TO.N,Net-(R38-Pad1)*
X158720000Y-145295000D03*
G04 #@! TD*
G04 #@! TO.P,TP25,1,1*
G04 #@! TO.N,Net-(JP23-A)*
X154275000Y-86240000D03*
G04 #@! TD*
G04 #@! TO.P,TP11,1,1*
G04 #@! TO.N,/Power-DCDC-Charger-Battery/DOUT*
X132685000Y-77350000D03*
G04 #@! TD*
G04 #@! TO.P,TP3,1,1*
G04 #@! TO.N,/MCU-IO/ADC0_VUSB_In*
X111984000Y-132595000D03*
G04 #@! TD*
G04 #@! TO.P,TP23,1,1*
G04 #@! TO.N,/MCU-IO/ADC0*
X145953400Y-107120800D03*
G04 #@! TD*
G04 #@! TO.P,TP17,1,1*
G04 #@! TO.N,Net-(U4-SW)*
X111476000Y-101076000D03*
G04 #@! TD*
G04 #@! TO.P,TP27,1,1*
G04 #@! TO.N,/Power-DCDC-Charger-Battery/DC_FB*
X111447000Y-104136000D03*
G04 #@! TD*
D18*
G04 #@! TO.P,J7,1,Pin_1*
G04 #@! TO.N,/MCU-IO/UART0_Tx*
X200630000Y-99276000D03*
D19*
G04 #@! TO.P,J7,2,Pin_2*
G04 #@! TO.N,GND*
X200630000Y-96736000D03*
G04 #@! TO.P,J7,3,Pin_3*
G04 #@! TO.N,/MCU-IO/UART0_Rx*
X200630000Y-94196000D03*
G04 #@! TD*
D18*
G04 #@! TO.P,J8,1,Pin_1*
G04 #@! TO.N,/MCU-IO/ADC2*
X200817400Y-109610000D03*
D19*
G04 #@! TO.P,J8,2,Pin_2*
G04 #@! TO.N,GND*
X200817400Y-107070000D03*
G04 #@! TO.P,J8,3,Pin_3*
G04 #@! TO.N,/MCU-IO/ADC3*
X200817400Y-104530000D03*
G04 #@! TD*
D16*
G04 #@! TO.P,TP19,1,1*
G04 #@! TO.N,/MCU-IO/DCDC_EN*
X149195000Y-145295000D03*
G04 #@! TD*
D27*
G04 #@! TO.P,SW6,1,A*
G04 #@! TO.N,/Power-DCDC-Charger-Battery/Batt+*
X109100000Y-63207500D03*
D28*
G04 #@! TO.P,SW6,2,B*
G04 #@! TO.N,Net-(BT1-+)*
X109100000Y-60707500D03*
G04 #@! TO.P,SW6,3,C*
G04 #@! TO.N,unconnected-(SW6-C-Pad3)*
X109100000Y-58207500D03*
G04 #@! TO.P,SW6,4*
G04 #@! TO.N,N/C*
X112300000Y-63207500D03*
G04 #@! TO.P,SW6,5*
X112300000Y-60707500D03*
G04 #@! TO.P,SW6,6*
X112300000Y-58207500D03*
G04 #@! TD*
D16*
G04 #@! TO.P,SW5,1,1*
G04 #@! TO.N,/MCU-IO/VBAT_VBUS*
X135350000Y-140350000D03*
X141850000Y-140350000D03*
G04 #@! TO.P,SW5,2,2*
G04 #@! TO.N,Net-(R38-Pad1)*
X135350000Y-144850000D03*
X141850000Y-144850000D03*
G04 #@! TD*
D29*
G04 #@! TO.N,/MCU-IO/BZ1*
X147997000Y-127636000D03*
G04 #@! TO.N,GND*
X164347000Y-75786000D03*
X129267000Y-128546000D03*
X161847000Y-99236000D03*
X119347000Y-75486000D03*
X120547000Y-105436000D03*
X166347000Y-115386000D03*
X162668164Y-61266212D03*
X126397000Y-146736000D03*
X105297000Y-117136000D03*
X141647000Y-100336000D03*
X119797000Y-120286000D03*
X163897000Y-137586000D03*
X154097000Y-72486000D03*
X153897000Y-142286000D03*
X127847000Y-79136000D03*
X149447000Y-143036000D03*
X153097000Y-143286000D03*
X190597000Y-83586000D03*
X126347000Y-110786000D03*
X179347000Y-94836000D03*
X189447000Y-127336000D03*
X131347000Y-71686000D03*
X195297000Y-134236000D03*
X195797000Y-95436000D03*
X191997000Y-104486000D03*
X168247000Y-135086000D03*
X193147000Y-131036000D03*
X133297000Y-120756000D03*
X121097000Y-146636000D03*
X130447000Y-131686000D03*
X164997000Y-69886000D03*
X200647000Y-91486000D03*
X116297000Y-81936000D03*
X120047000Y-122486000D03*
X192047000Y-111836000D03*
X161397000Y-145386000D03*
X178405000Y-142755000D03*
X159597000Y-141736000D03*
X145697000Y-87536000D03*
X185197000Y-114936000D03*
X167897000Y-131286000D03*
X166197000Y-112286000D03*
X193797000Y-107736000D03*
X154147000Y-138986000D03*
D30*
X115997000Y-120886000D03*
D29*
X200447000Y-137936000D03*
X172597000Y-122086000D03*
X192097000Y-116386000D03*
X171347000Y-73236000D03*
X167647000Y-98786000D03*
X126947000Y-134186000D03*
X177947000Y-134586000D03*
X166397000Y-67636000D03*
X121947000Y-128586000D03*
X124497000Y-116836000D03*
X150247000Y-138836000D03*
X140697000Y-93986000D03*
X106947000Y-99736000D03*
X120347000Y-140386000D03*
X113497000Y-144186000D03*
X136216500Y-98786000D03*
X160797000Y-109786000D03*
X109397000Y-137436000D03*
X111147000Y-71236000D03*
X129597000Y-136186000D03*
X153697000Y-119986000D03*
X180347000Y-112786000D03*
X108147000Y-72386000D03*
X175935298Y-94272179D03*
X140147000Y-135486000D03*
X180297000Y-106036000D03*
X157647000Y-142936000D03*
X146047000Y-97036000D03*
X188047000Y-108186000D03*
X154047000Y-146795000D03*
X146397000Y-123336000D03*
X119497000Y-95836000D03*
X161747000Y-141436000D03*
X130747000Y-102586000D03*
X168547000Y-94286000D03*
X128200000Y-142600000D03*
X158437000Y-98786000D03*
X194297000Y-114036000D03*
X106197000Y-140086000D03*
X187697000Y-112136000D03*
X133947000Y-101136000D03*
X133327000Y-118936000D03*
X120197000Y-126036000D03*
X164331217Y-63363105D03*
D30*
X117597000Y-114236000D03*
D29*
X154947000Y-137086000D03*
X148947000Y-123136000D03*
X151097000Y-140686000D03*
X185947000Y-56986000D03*
X122497000Y-141986000D03*
X125197000Y-132636000D03*
X117047000Y-97536000D03*
X110297000Y-83686000D03*
X167697000Y-102986000D03*
X167897000Y-125386000D03*
X149297000Y-94886000D03*
X113847000Y-72286000D03*
X168547000Y-73286000D03*
X156329874Y-83400324D03*
X106047000Y-127536000D03*
X167685000Y-142755000D03*
X115197000Y-131736000D03*
X197697000Y-141686000D03*
X133347000Y-119866000D03*
X139497000Y-102536000D03*
X179047000Y-69736000D03*
X179697000Y-131336000D03*
X197997000Y-102436000D03*
X122747000Y-111786000D03*
X196897000Y-82536000D03*
X185297000Y-83886000D03*
X122747000Y-113486000D03*
X137897000Y-85836000D03*
X180147000Y-124936000D03*
X123847000Y-115486000D03*
X129497000Y-146686000D03*
X159347000Y-135136000D03*
X138847000Y-71836000D03*
X131247000Y-119686000D03*
X132097000Y-134086000D03*
X169297000Y-119886000D03*
X131247000Y-121236000D03*
X170147000Y-117386000D03*
X150747000Y-76186000D03*
X192147000Y-80786000D03*
X144347000Y-96486000D03*
X110197000Y-126986000D03*
X166997000Y-106036000D03*
X147333861Y-140782113D03*
X149947000Y-135986000D03*
X174197000Y-119236000D03*
X176647000Y-62436000D03*
X173197000Y-137236000D03*
X186147000Y-146986000D03*
X162297000Y-56936000D03*
X122947000Y-123836000D03*
X112197000Y-141886000D03*
X137647000Y-101186000D03*
X133697000Y-85436000D03*
X162198171Y-71859134D03*
X173744410Y-98468112D03*
X105797000Y-108586000D03*
X139547000Y-107786000D03*
X125797000Y-136886000D03*
X121097000Y-94586000D03*
X145697000Y-147586000D03*
X165097000Y-122036000D03*
X138747000Y-105186000D03*
X141797000Y-91836000D03*
X173747000Y-62186000D03*
X186097000Y-121936000D03*
X166197000Y-57186000D03*
X191247000Y-78636000D03*
X158897000Y-80936000D03*
X132547000Y-90536000D03*
X178697000Y-137386000D03*
X117497000Y-103586000D03*
X191447000Y-75886000D03*
X195026392Y-78551400D03*
X111997000Y-109636000D03*
X190747000Y-86986000D03*
X109397000Y-130986000D03*
X187897000Y-70736000D03*
X131247000Y-118936000D03*
X115697000Y-105936000D03*
X170497000Y-58286000D03*
X148597000Y-139586000D03*
X128397000Y-85336000D03*
X180597000Y-117336000D03*
X122297000Y-121836000D03*
X193747000Y-126936000D03*
X176500000Y-58286000D03*
X151447000Y-89686000D03*
X107097000Y-103086000D03*
X131247000Y-120486000D03*
X130450000Y-108586000D03*
X143297000Y-147486000D03*
X132277000Y-119866000D03*
X117047000Y-85036000D03*
X180547000Y-119036000D03*
D30*
X119347000Y-91736000D03*
D29*
X180947000Y-126886000D03*
X167947000Y-61136000D03*
X126747000Y-127136000D03*
X170497000Y-96186000D03*
X194597000Y-85536000D03*
X148497000Y-137186000D03*
X145647000Y-115536000D03*
X123347000Y-76436000D03*
X153597000Y-100186000D03*
X141497000Y-138236000D03*
X109097000Y-140736000D03*
X149597000Y-121036000D03*
X190947000Y-122036000D03*
X105297000Y-114786000D03*
X182597000Y-94386000D03*
X113997000Y-83486000D03*
X105997000Y-130986000D03*
X132997000Y-79986000D03*
X152397000Y-136036000D03*
X171897000Y-105736000D03*
X185247000Y-86436000D03*
X111747000Y-111236000D03*
X142797000Y-134936000D03*
X131847000Y-98336000D03*
X121147000Y-81536000D03*
X161247000Y-147036000D03*
X186347000Y-64586000D03*
X141947000Y-80986000D03*
X113847000Y-103286000D03*
X186147000Y-119236000D03*
X138600000Y-142600000D03*
X179947000Y-61136000D03*
X137047000Y-80686000D03*
X187947000Y-79636000D03*
X156037438Y-141639917D03*
X152597000Y-92686000D03*
X185297000Y-106336000D03*
X166283496Y-72979887D03*
X174047000Y-73236000D03*
X187197000Y-130886000D03*
X196097000Y-100436000D03*
X197197000Y-92786000D03*
X132287000Y-121096000D03*
X114147000Y-100136000D03*
X139047000Y-146786000D03*
X158397000Y-72636000D03*
X179877144Y-58301640D03*
X125397000Y-87136000D03*
X177147000Y-122236000D03*
X156547000Y-119086000D03*
X170847000Y-115536000D03*
X173797000Y-58286000D03*
X170547000Y-107786000D03*
X124347000Y-112636000D03*
X105197000Y-119636000D03*
X121797000Y-79786000D03*
X154647000Y-78736000D03*
X122297000Y-98186000D03*
X187247000Y-73836000D03*
X123497000Y-100436000D03*
X133447000Y-146786000D03*
X136452066Y-121002000D03*
X200947000Y-87510000D03*
X140097000Y-90336000D03*
X106047000Y-133986000D03*
X145997000Y-116836000D03*
X171497000Y-70036000D03*
X173215430Y-94146647D03*
X161147000Y-143636000D03*
X181837574Y-135699606D03*
X147397000Y-138086000D03*
X146147000Y-139386000D03*
X135147000Y-114366000D03*
X181297000Y-147436000D03*
X164097000Y-97186000D03*
X181997000Y-70136000D03*
X132277000Y-118986000D03*
X143347000Y-105386000D03*
X159197000Y-147486000D03*
X142947000Y-102386000D03*
X136147000Y-136886000D03*
X168997000Y-70436000D03*
X170547000Y-62236000D03*
X107197000Y-105736000D03*
X176500000Y-71851000D03*
X120647000Y-96886000D03*
X167597000Y-108986000D03*
X106047000Y-137236000D03*
X107097000Y-96636000D03*
X113897000Y-75236000D03*
X161397000Y-118686000D03*
X178997000Y-73636000D03*
X106147000Y-72286000D03*
X147647000Y-72036000D03*
X191497000Y-135086000D03*
X117647000Y-121936000D03*
X146447000Y-117936000D03*
X116897000Y-131836000D03*
X114097000Y-145836000D03*
X123397000Y-137486000D03*
X118647000Y-100036000D03*
X182147000Y-73586000D03*
X112547000Y-81886000D03*
X197297000Y-74086000D03*
X123450000Y-146350000D03*
X117247000Y-141736000D03*
X174047000Y-70136000D03*
X134897000Y-95386000D03*
X123397000Y-131536000D03*
X145397000Y-100436000D03*
X186947000Y-142736000D03*
X138397000Y-116501500D03*
X137747000Y-88586000D03*
X184897000Y-77736000D03*
X185697000Y-60636000D03*
X118197000Y-137686000D03*
X182647000Y-113386000D03*
X162197000Y-68386000D03*
X147447000Y-143586000D03*
X186347000Y-68086000D03*
X182130080Y-108781373D03*
X123047000Y-126936000D03*
X109247000Y-133936000D03*
X195097000Y-89886000D03*
X129547000Y-129986000D03*
X129497000Y-100586000D03*
X126047000Y-114486000D03*
X195747000Y-118086000D03*
D30*
G04 #@! TO.N,3V3*
X130276377Y-117469411D03*
X133355000Y-122310000D03*
D31*
X122052000Y-89290000D03*
D30*
X180141800Y-109305200D03*
D31*
X134982371Y-119748971D03*
X123449000Y-89290000D03*
D30*
X128071800Y-101431200D03*
X130481450Y-126041550D03*
D31*
X124338000Y-89544000D03*
D30*
X176230200Y-109051200D03*
D32*
X116112000Y-88372000D03*
D30*
X133136723Y-117462726D03*
D32*
X113543000Y-88655000D03*
D30*
X131729400Y-111896000D03*
D32*
X114813000Y-87512000D03*
D30*
X128732200Y-124037200D03*
X129590051Y-115356149D03*
G04 #@! TO.N,/MCU-IO/VBAT_VBUS*
X154853400Y-106720842D03*
X168762600Y-114080400D03*
D31*
G04 #@! TO.N,/SWCLK*
X195547000Y-87986000D03*
X138947000Y-112786000D03*
D29*
G04 #@! TO.N,/SWDIO*
X171697000Y-109286000D03*
D30*
X199447000Y-86786000D03*
D31*
G04 #@! TO.N,/Power-DCDC-Charger-Battery/DC_EN_CTL*
X123297000Y-97936000D03*
G04 #@! TO.N,/Power-DCDC-Charger-Battery/DC_FB*
X120797000Y-95836000D03*
G04 #@! TO.N,Net-(Q2-D)*
X125347000Y-83576000D03*
D30*
G04 #@! TO.N,/Power-DCDC-Charger-Battery/COUT*
X118419800Y-71916400D03*
X121874200Y-76691600D03*
D31*
X127267000Y-82496000D03*
G04 #@! TO.N,/MCU-IO/BTN_A_Sense*
X137997000Y-126776500D03*
X138060500Y-134486000D03*
D30*
G04 #@! TO.N,/MCU-IO/ADC0*
X140897000Y-108786000D03*
X133533273Y-113222273D03*
D31*
G04 #@! TO.N,/RTC/INT_G*
X158797000Y-110036000D03*
X155897000Y-102636000D03*
X157497000Y-107236000D03*
X163397000Y-94636000D03*
G04 #@! TO.N,Net-(D10-A)*
X156783001Y-112299999D03*
X155497000Y-109636000D03*
D30*
G04 #@! TO.N,/Power-DCDC-Charger-Battery/Batt+*
X108259800Y-67039600D03*
D29*
G04 #@! TO.N,/MCU-IO/UART0_Rx*
X134022083Y-124925549D03*
G04 #@! TO.N,/MCU-IO/UART0_Tx*
X133981223Y-125670500D03*
D31*
G04 #@! TO.N,1V1*
X125857000Y-120606000D03*
X136747000Y-119400000D03*
X127887000Y-118186000D03*
D30*
G04 #@! TO.N,/MCU-IO/ADC2*
X130434000Y-114690000D03*
D31*
X159397000Y-116700600D03*
X136522000Y-115711000D03*
D30*
G04 #@! TO.N,/MCU-IO/ADC3*
X129490781Y-114432581D03*
D31*
X136722000Y-114611000D03*
X160497000Y-116636000D03*
G04 #@! TO.N,/MCU-IO/IO21*
X134000574Y-115726019D03*
D29*
G04 #@! TO.N,/MCU-IO/IO4*
X135447000Y-128786000D03*
X131147000Y-122636000D03*
X149191763Y-129449870D03*
D31*
G04 #@! TO.N,/MCU-IO/IO22*
X133511201Y-115320129D03*
D29*
G04 #@! TO.N,/MCU-IO/IO2*
X149726540Y-130286374D03*
X130803200Y-124541454D03*
D31*
X187197000Y-120286000D03*
D29*
X167197000Y-130286374D03*
D31*
X177197374Y-120286000D03*
D29*
X137097000Y-130186000D03*
G04 #@! TO.N,/MCU-IO/IO14*
X149697000Y-124786000D03*
X195247000Y-123036000D03*
X193447000Y-124036000D03*
G04 #@! TO.N,/MCU-IO/IO9*
X149627387Y-126705613D03*
X196697000Y-125936000D03*
G04 #@! TO.N,/MCU-IO/IO3*
X131437457Y-124815937D03*
X134797000Y-128686000D03*
D31*
X184747000Y-129936000D03*
D29*
X149408802Y-129900310D03*
G04 #@! TO.N,/MCU-IO/IO5*
X131847000Y-122486000D03*
X149247000Y-128486000D03*
X136197000Y-128336000D03*
D31*
G04 #@! TO.N,/Power-DCDC-Charger-Battery/STAT*
X144107000Y-83136000D03*
X150587000Y-81186000D03*
D32*
G04 #@! TO.N,/TM1638_Display/VDD_SEL*
X169762000Y-81136000D03*
X186797000Y-80986000D03*
D31*
G04 #@! TO.N,/MCU-IO/DISP_STB*
X162938163Y-88877163D03*
X137597000Y-121749500D03*
D30*
G04 #@! TO.N,/TM1638_Display/CLK_Out*
X167147000Y-82836000D03*
D31*
G04 #@! TO.N,/MCU-IO/DISP_CLK*
X165797000Y-88636000D03*
X138047000Y-122236000D03*
D30*
G04 #@! TO.N,/TM1638_Display/DIO_Out*
X170397000Y-84786000D03*
D31*
G04 #@! TO.N,/MCU-IO/DISP_DIO*
X136247000Y-124536000D03*
X168497000Y-88436000D03*
D30*
G04 #@! TO.N,/TM1638_Display/STB_Out*
X163947000Y-84188000D03*
D31*
G04 #@! TO.N,/RTC/INT_CLKOUT*
X160497000Y-104436000D03*
D29*
G04 #@! TO.N,/MCU-IO/BZ2_P*
X152097000Y-128036000D03*
X145597000Y-128686000D03*
G04 #@! TO.N,/MCU-IO/BZ2_N*
X152646711Y-126257000D03*
X149647000Y-127247500D03*
D30*
G04 #@! TO.N,/MCU-IO/ADC1*
X131577000Y-113445400D03*
X139806600Y-100872400D03*
G04 #@! TO.N,/MCU-IO/IO_Gate*
X144933635Y-114769400D03*
D31*
X148497000Y-98186000D03*
D30*
X147397000Y-110036000D03*
X143297000Y-139186000D03*
X147797000Y-101936000D03*
X145897000Y-141486000D03*
D31*
G04 #@! TO.N,/MCU-IO/BTN_B_Sense*
X132377000Y-115686000D03*
X132977000Y-96556000D03*
D29*
G04 #@! TO.N,Net-(R23-Pad1)*
X151347000Y-139686000D03*
D30*
X144997000Y-134836000D03*
D29*
G04 #@! TO.N,/MCU-IO/SWDA_IN*
X134856000Y-118616000D03*
D30*
X142259829Y-114998829D03*
D29*
G04 #@! TO.N,/MCU-IO/QSPI_SS*
X130311857Y-122568857D03*
D30*
X132643800Y-130793600D03*
D29*
X128402000Y-132597000D03*
D31*
G04 #@! TO.N,/MCU-IO/~{Reset}*
X136797000Y-123040500D03*
X136794609Y-118209000D03*
X142597000Y-126936000D03*
X152447000Y-132636000D03*
D30*
G04 #@! TO.N,/MCU-IO/ADC1_VSW_In*
X119181800Y-116163200D03*
D31*
G04 #@! TO.N,/MCU-IO/IO25_LED*
X125667000Y-118546000D03*
X131197000Y-117586000D03*
D30*
G04 #@! TO.N,/MCU-IO/ADC0_VUSB_In*
X137215800Y-104631600D03*
X145902600Y-95538400D03*
X122229800Y-105698400D03*
X138943000Y-104123600D03*
X117607000Y-118195200D03*
X131424600Y-104009300D03*
X117759400Y-116518800D03*
D31*
G04 #@! TO.N,/MCU-IO/DCDC_EN*
X132817000Y-105776000D03*
X131947000Y-117636000D03*
X131707000Y-96786000D03*
D29*
G04 #@! TO.N,/MCU-IO/QSPI_SD1*
X128148000Y-122310000D03*
X125608000Y-131200000D03*
G04 #@! TO.N,/MCU-IO/QSPI_CLK*
X129754000Y-120614000D03*
X121544000Y-127009000D03*
G04 #@! TO.N,/MCU-IO/QSPI_SD0*
X119766000Y-127898000D03*
X129926000Y-121167000D03*
G04 #@! TO.N,/MCU-IO/QSPI_SD3*
X128148000Y-121040000D03*
X121036000Y-131200000D03*
D30*
G04 #@! TO.N,/Power-DCDC-Charger-Battery/DOUT*
X116743400Y-72068800D03*
D31*
X118817000Y-80516000D03*
D30*
X116692600Y-79384000D03*
D31*
G04 #@! TO.N,Net-(JP11-A)*
X121163000Y-90052000D03*
X124592000Y-95894000D03*
D29*
G04 #@! TO.N,/MCU-IO/QSPI_SD2*
X128402000Y-130057000D03*
X129799000Y-121929000D03*
D31*
G04 #@! TO.N,/MCU-IO/RTC_INT_GPIN0*
X165697000Y-95136000D03*
X165797000Y-105236000D03*
D30*
G04 #@! TO.N,/Power-DCDC-Charger-Battery/VBAT*
X109936200Y-71459200D03*
X120553400Y-112353200D03*
X154894900Y-94166800D03*
X121823400Y-110930800D03*
X140924200Y-97367200D03*
D31*
G04 #@! TO.N,/MCU-IO/IO16*
X136653719Y-117589371D03*
X142147000Y-117386000D03*
X152547000Y-117736000D03*
X149247000Y-117386000D03*
X139597000Y-117236000D03*
D29*
G04 #@! TO.N,/MCU-IO/IO15*
X196052029Y-125031548D03*
X149672289Y-124261289D03*
D31*
G04 #@! TO.N,/MCU-IO/I2C_SCL*
X154297000Y-108436000D03*
X156797000Y-103436000D03*
X143095795Y-116922500D03*
G04 #@! TO.N,/MCU-IO/I2C_SDA*
X155097000Y-102136000D03*
X148897000Y-108536000D03*
X147897000Y-111936000D03*
G04 #@! TO.N,/TM1638_Display/SEG_C*
X178147000Y-88636000D03*
D29*
X181747000Y-73136000D03*
D31*
X180997000Y-98486000D03*
X178147000Y-78186000D03*
D29*
X181997000Y-66286000D03*
D31*
G04 #@! TO.N,/TM1638_Display/SEG_G*
X179643000Y-86986000D03*
X184547000Y-95036000D03*
G04 #@! TO.N,/TM1638_Display/SEG_F*
X174397000Y-86236000D03*
X183047000Y-103186000D03*
G04 #@! TO.N,/TM1638_Display/SEG_D*
X192747000Y-90186000D03*
D29*
X183697000Y-62636000D03*
D31*
X182297000Y-98486000D03*
D29*
X185547000Y-67486000D03*
D31*
X186097000Y-76386000D03*
G04 #@! TO.N,/TM1638_Display/SEG_DX*
X187347000Y-99286000D03*
X177688500Y-86836000D03*
G04 #@! TO.N,/TM1638_Display/SEG_DPX*
X175097000Y-86036000D03*
X185997000Y-96286000D03*
G04 #@! TO.N,/TM1638_Display/SEG_E*
X177247000Y-88436000D03*
X182397000Y-99486000D03*
D30*
G04 #@! TO.N,/TM1638_Display/Dig_6*
X184076448Y-77265448D03*
G04 #@! TO.N,/TM1638_Display/Dig_8*
X181747000Y-89786000D03*
X183547000Y-93386000D03*
G04 #@! TO.N,/TM1638_Display/Dig_7*
X185397000Y-81986000D03*
X179197000Y-82036000D03*
D29*
G04 #@! TO.N,/MCU-IO/IO6*
X149447000Y-128936000D03*
X136197000Y-128936000D03*
X132197000Y-124536000D03*
G04 #@! TD*
D33*
G04 #@! TO.N,/MCU-IO/BZ1*
X152547000Y-127636000D02*
X153223000Y-126960000D01*
X147997000Y-127636000D02*
X152547000Y-127636000D01*
X153223000Y-126960000D02*
X173325000Y-126960000D01*
D34*
G04 #@! TO.N,3V3*
X180141800Y-109305200D02*
X176484200Y-109305200D01*
X176484200Y-109305200D02*
X176230200Y-109051200D01*
G04 #@! TO.N,/MCU-IO/VBAT_VBUS*
X161650600Y-114080400D02*
X154853400Y-107283200D01*
X154853400Y-107283200D02*
X154853400Y-106720842D01*
X168762600Y-114080400D02*
X161650600Y-114080400D01*
D33*
G04 #@! TO.N,/SWCLK*
X138947000Y-112786000D02*
X138947000Y-111886000D01*
X138947000Y-111886000D02*
X165247000Y-85586000D01*
X165247000Y-85586000D02*
X193147000Y-85586000D01*
X193147000Y-85586000D02*
X195547000Y-87986000D01*
G04 #@! TO.N,/SWDIO*
X171697000Y-109286000D02*
X173147000Y-107836000D01*
X186397000Y-107836000D02*
X193997000Y-100236000D01*
X193997000Y-100236000D02*
X193997000Y-94386000D01*
X199447000Y-88936000D02*
X199447000Y-86786000D01*
X173147000Y-107836000D02*
X186397000Y-107836000D01*
X193997000Y-94386000D02*
X199447000Y-88936000D01*
G04 #@! TO.N,/Power-DCDC-Charger-Battery/DC_EN_CTL*
X117047000Y-102086000D02*
X111897000Y-107236000D01*
X111897000Y-107236000D02*
X111397000Y-107236000D01*
X119147000Y-102086000D02*
X117047000Y-102086000D01*
X123297000Y-97936000D02*
X119147000Y-102086000D01*
G04 #@! TO.N,/Power-DCDC-Charger-Battery/DC_FB*
X120797000Y-95836000D02*
X120797000Y-96186000D01*
X120797000Y-96186000D02*
X116097000Y-100886000D01*
X116097000Y-100886000D02*
X114697000Y-100886000D01*
X114697000Y-100886000D02*
X111447000Y-104136000D01*
D35*
G04 #@! TO.N,Net-(Q2-D)*
X142210000Y-77350000D02*
X135984000Y-83576000D01*
X135984000Y-83576000D02*
X125347000Y-83576000D01*
G04 #@! TO.N,/Power-DCDC-Charger-Battery/COUT*
X118419800Y-71916400D02*
X118419800Y-73237200D01*
X118419800Y-73237200D02*
X121874200Y-76691600D01*
X133889000Y-82496000D02*
X139035000Y-77350000D01*
X127267000Y-82496000D02*
X133889000Y-82496000D01*
D36*
G04 #@! TO.N,Net-(BT1-+)*
X107345400Y-62462100D02*
X109100000Y-60707500D01*
X107345400Y-86195400D02*
X107345400Y-62462100D01*
X109150000Y-88000000D02*
X107345400Y-86195400D01*
D33*
G04 #@! TO.N,/MCU-IO/BTN_A_Sense*
X137997000Y-134422500D02*
X138060500Y-134486000D01*
X137997000Y-126776500D02*
X137997000Y-134422500D01*
D35*
G04 #@! TO.N,/MCU-IO/ADC0*
X133533273Y-113222273D02*
X137969546Y-108786000D01*
X137969546Y-108786000D02*
X140897000Y-108786000D01*
G04 #@! TO.N,/RTC/INT_G*
X155897000Y-102636000D02*
X163397000Y-95136000D01*
X157497000Y-107236000D02*
X158147000Y-107236000D01*
X158147000Y-107236000D02*
X158797000Y-107886000D01*
X158797000Y-107886000D02*
X158797000Y-110036000D01*
X163397000Y-95136000D02*
X163397000Y-94636000D01*
G04 #@! TO.N,Net-(D10-A)*
X155497000Y-111286000D02*
X156510999Y-112299999D01*
X155497000Y-109636000D02*
X155497000Y-111286000D01*
X156510999Y-112299999D02*
X156783001Y-112299999D01*
D37*
G04 #@! TO.N,/Power-DCDC-Charger-Battery/Batt+*
X111197000Y-94836000D02*
X111476000Y-94557000D01*
X108666200Y-73999200D02*
X108666200Y-67446000D01*
X111476000Y-94557000D02*
X111476000Y-76809000D01*
X108666200Y-67446000D02*
X108259800Y-67039600D01*
X111476000Y-76809000D02*
X108666200Y-73999200D01*
D33*
G04 #@! TO.N,/MCU-IO/UART0_Rx*
X134232534Y-125136000D02*
X134022083Y-124925549D01*
X142617402Y-125136000D02*
X134232534Y-125136000D01*
X152913000Y-114840402D02*
X142617402Y-125136000D01*
X200630000Y-94196000D02*
X179985598Y-114840402D01*
X179985598Y-114840402D02*
X152913000Y-114840402D01*
G04 #@! TO.N,/MCU-IO/UART0_Tx*
X200630000Y-99276000D02*
X198857000Y-99276000D01*
X182097000Y-116036000D02*
X152947000Y-116036000D01*
X134115723Y-125536000D02*
X133981223Y-125670500D01*
X152947000Y-116036000D02*
X143447000Y-125536000D01*
X143447000Y-125536000D02*
X134115723Y-125536000D01*
X198857000Y-99276000D02*
X182097000Y-116036000D01*
D35*
G04 #@! TO.N,1V1*
X125857000Y-120216000D02*
X125857000Y-120606000D01*
X127887000Y-118186000D02*
X125857000Y-120216000D01*
D33*
G04 #@! TO.N,/MCU-IO/ADC2*
X194066000Y-117936000D02*
X200817400Y-111184600D01*
X136522000Y-115711000D02*
X135607000Y-114796000D01*
X159397000Y-116700600D02*
X160178400Y-117482000D01*
X130540000Y-114796000D02*
X130434000Y-114690000D01*
X200817400Y-111184600D02*
X200817400Y-109610000D01*
X136522000Y-115711000D02*
X136422000Y-115711000D01*
X135607000Y-114796000D02*
X130540000Y-114796000D01*
X162652210Y-117482000D02*
X163106210Y-117936000D01*
X163106210Y-117936000D02*
X194066000Y-117936000D01*
X160178400Y-117482000D02*
X162652210Y-117482000D01*
G04 #@! TO.N,/MCU-IO/ADC3*
X135472000Y-113886000D02*
X136197000Y-114611000D01*
X188711400Y-116636000D02*
X200817400Y-104530000D01*
X129951400Y-113978800D02*
X132700844Y-113978800D01*
X136722000Y-114633962D02*
X136722000Y-114611000D01*
X132793644Y-113886000D02*
X135472000Y-113886000D01*
X160497000Y-116636000D02*
X188711400Y-116636000D01*
X129490781Y-114432581D02*
X129497619Y-114432581D01*
X129497619Y-114432581D02*
X129951400Y-113978800D01*
X136197000Y-114611000D02*
X136722000Y-114611000D01*
X132700844Y-113978800D02*
X132793644Y-113886000D01*
G04 #@! TO.N,/MCU-IO/IO21*
X134000574Y-123382426D02*
X133397500Y-123985500D01*
X134484736Y-126075619D02*
X139236619Y-126075619D01*
X133397500Y-125112552D02*
X133267416Y-125242636D01*
X202319000Y-131018904D02*
X202319000Y-130314000D01*
X202319000Y-130314000D02*
X200665000Y-128660000D01*
X200639404Y-132698500D02*
X202319000Y-131018904D01*
X133267416Y-125242636D02*
X133267416Y-125978786D01*
X146697000Y-133536000D02*
X194597000Y-133536000D01*
X195434500Y-132698500D02*
X200639404Y-132698500D01*
X139236619Y-126075619D02*
X146697000Y-133536000D01*
X133397500Y-123985500D02*
X133397500Y-125112552D01*
X134000574Y-115726019D02*
X134000574Y-123382426D01*
X194597000Y-133536000D02*
X195434500Y-132698500D01*
X133267416Y-125978786D02*
X133601630Y-126313000D01*
X133601630Y-126313000D02*
X134247355Y-126313000D01*
X134247355Y-126313000D02*
X134484736Y-126075619D01*
G04 #@! TO.N,/MCU-IO/IO4*
X131147000Y-122636000D02*
X131822666Y-123311666D01*
X132930962Y-127832000D02*
X134493000Y-127832000D01*
X131822666Y-123311666D02*
X131822666Y-126452456D01*
X195110870Y-129449870D02*
X195247000Y-129586000D01*
X131901000Y-126802038D02*
X132930962Y-127832000D01*
X131901000Y-126530790D02*
X131901000Y-126802038D01*
X134493000Y-127832000D02*
X135447000Y-128786000D01*
X195247000Y-129586000D02*
X196511000Y-129586000D01*
X131822666Y-126452456D02*
X131901000Y-126530790D01*
X149191763Y-129449870D02*
X195110870Y-129449870D01*
X196511000Y-129586000D02*
X198125000Y-131200000D01*
G04 #@! TO.N,/MCU-IO/IO22*
X133568811Y-115262519D02*
X134192562Y-115262519D01*
X133820301Y-126059000D02*
X134142145Y-126059000D01*
X133615666Y-125854365D02*
X133820301Y-126059000D01*
X147998876Y-132698500D02*
X148191376Y-132891000D01*
X133615666Y-125253596D02*
X133615666Y-125854365D01*
X152629876Y-133077500D02*
X152888500Y-132818876D01*
X139782619Y-125821619D02*
X146659500Y-132698500D01*
X134142145Y-126059000D02*
X134380526Y-125820619D01*
X139343243Y-125821619D02*
X139782619Y-125821619D01*
X152264124Y-133077500D02*
X152629876Y-133077500D01*
X148191376Y-132891000D02*
X152077624Y-132891000D01*
X152888500Y-132818876D02*
X152888500Y-132698500D01*
X152888500Y-132698500D02*
X172519885Y-132698500D01*
X133651500Y-124090710D02*
X133651500Y-125217762D01*
X134380526Y-125820619D02*
X139342243Y-125820619D01*
X146659500Y-132698500D02*
X147998876Y-132698500D01*
X133511201Y-115320129D02*
X133568811Y-115262519D01*
X172872885Y-133051500D02*
X173777115Y-133051500D01*
X152077624Y-132891000D02*
X152264124Y-133077500D01*
X133651500Y-125217762D02*
X133615666Y-125253596D01*
X172519885Y-132698500D02*
X172872885Y-133051500D01*
X134447000Y-115516957D02*
X134447000Y-123295210D01*
X134192562Y-115262519D02*
X134447000Y-115516957D01*
X173777115Y-133051500D02*
X174442615Y-132386000D01*
X134447000Y-123295210D02*
X133651500Y-124090710D01*
X139342243Y-125820619D02*
X139343243Y-125821619D01*
X174442615Y-132386000D02*
X199479000Y-132386000D01*
X199479000Y-132386000D02*
X200665000Y-131200000D01*
G04 #@! TO.N,/MCU-IO/IO2*
X132190981Y-128642019D02*
X133753019Y-128642019D01*
X131181457Y-127578000D02*
X131181457Y-127632495D01*
X131181457Y-127632495D02*
X132190981Y-128642019D01*
X131047000Y-124785254D02*
X131047000Y-127439543D01*
X130803200Y-124541454D02*
X131047000Y-124785254D01*
X131047000Y-127439543D02*
X131183457Y-127576000D01*
D37*
X187197000Y-120286000D02*
X177197374Y-120286000D01*
D33*
X131183457Y-127576000D02*
X131181457Y-127578000D01*
X149726540Y-130286374D02*
X167197000Y-130286374D01*
X133753019Y-128642019D02*
X135297000Y-130186000D01*
X135297000Y-130186000D02*
X137097000Y-130186000D01*
G04 #@! TO.N,/MCU-IO/IO14*
X149697000Y-124786000D02*
X150447000Y-124036000D01*
X195247000Y-121886000D02*
X195247000Y-123036000D01*
X200665000Y-118500000D02*
X199166500Y-119998500D01*
X193347000Y-124036000D02*
X193447000Y-124036000D01*
X197134500Y-119998500D02*
X195247000Y-121886000D01*
X150447000Y-124036000D02*
X193347000Y-124036000D01*
X199166500Y-119998500D02*
X197134500Y-119998500D01*
G04 #@! TO.N,/MCU-IO/IO9*
X196697000Y-125936000D02*
X196497000Y-126136000D01*
X184279500Y-125868500D02*
X150464500Y-125868500D01*
X195240961Y-128230000D02*
X186641000Y-128230000D01*
X196497000Y-126973961D02*
X195240961Y-128230000D01*
X150464500Y-125868500D02*
X149627387Y-126705613D01*
X196497000Y-126136000D02*
X196497000Y-126973961D01*
X186641000Y-128230000D02*
X184279500Y-125868500D01*
G04 #@! TO.N,/MCU-IO/IO3*
X180361310Y-129900310D02*
X180497000Y-130036000D01*
X131437457Y-127526457D02*
X131997000Y-128086000D01*
X149408802Y-129900310D02*
X180361310Y-129900310D01*
X131997000Y-128086000D02*
X133947000Y-128086000D01*
X134797000Y-128536000D02*
X134797000Y-128686000D01*
X131437457Y-124815937D02*
X131437457Y-127526457D01*
X134347000Y-128086000D02*
X134797000Y-128536000D01*
X133947000Y-128086000D02*
X134347000Y-128086000D01*
X184647000Y-130036000D02*
X184747000Y-129936000D01*
X180497000Y-130036000D02*
X184647000Y-130036000D01*
X134797000Y-128686000D02*
X134747000Y-128686000D01*
G04 #@! TO.N,/MCU-IO/IO5*
X133393000Y-127182000D02*
X134752210Y-127182000D01*
X197713000Y-126120000D02*
X198125000Y-126120000D01*
X134752210Y-127182000D02*
X134756210Y-127186000D01*
X195347000Y-128486000D02*
X197713000Y-126120000D01*
X131847000Y-122486000D02*
X132505416Y-123144416D01*
X132505416Y-124927006D02*
X132505416Y-126294416D01*
X132505416Y-123144416D02*
X132505416Y-124294994D01*
X132635500Y-124425078D02*
X132635500Y-124796922D01*
X132505416Y-124294994D02*
X132635500Y-124425078D01*
X135047000Y-127186000D02*
X136197000Y-128336000D01*
X132635500Y-124796922D02*
X132505416Y-124927006D01*
X134756210Y-127186000D02*
X135047000Y-127186000D01*
X149247000Y-128486000D02*
X195347000Y-128486000D01*
X132505416Y-126294416D02*
X133393000Y-127182000D01*
D35*
G04 #@! TO.N,/Power-DCDC-Charger-Battery/STAT*
X150587000Y-79377000D02*
X150587000Y-81186000D01*
X144107000Y-83136000D02*
X146057000Y-81186000D01*
X145385000Y-74175000D02*
X150587000Y-79377000D01*
X146057000Y-81186000D02*
X150587000Y-81186000D01*
D34*
G04 #@! TO.N,/TM1638_Display/VDD_SEL*
X186647000Y-81136000D02*
X171197000Y-81136000D01*
X171197000Y-81136000D02*
X169762000Y-81136000D01*
X186797000Y-80986000D02*
X186647000Y-81136000D01*
D33*
G04 #@! TO.N,/MCU-IO/DISP_STB*
X137597000Y-120416000D02*
X137597000Y-121749500D01*
X162938163Y-88877163D02*
X162874744Y-88940582D01*
X146342000Y-109230376D02*
X146342000Y-111671000D01*
X146342000Y-111671000D02*
X137597000Y-120416000D01*
X162874744Y-88940582D02*
X162874744Y-89558256D01*
X162874744Y-89558256D02*
X147144900Y-105288100D01*
X147144900Y-108427476D02*
X146342000Y-109230376D01*
X147144900Y-105288100D02*
X147144900Y-108427476D01*
D35*
G04 #@! TO.N,/TM1638_Display/CLK_Out*
X184847000Y-79986000D02*
X195550000Y-69283000D01*
X195550000Y-69283000D02*
X195550000Y-68460000D01*
D37*
X198090000Y-68460000D02*
X195550000Y-68460000D01*
D35*
X167147000Y-82836000D02*
X167147000Y-79986000D01*
X167147000Y-79986000D02*
X184847000Y-79986000D01*
D33*
G04 #@! TO.N,/MCU-IO/DISP_CLK*
X143252000Y-115481000D02*
X142991375Y-115481001D01*
X165797000Y-88636000D02*
X165797000Y-90136000D01*
X138047000Y-120686000D02*
X138047000Y-122236000D01*
X138292000Y-120180376D02*
X138292000Y-120441000D01*
X146597000Y-112136000D02*
X143252000Y-115481000D01*
X142991375Y-115481001D02*
X138292000Y-120180376D01*
X138292000Y-120441000D02*
X138047000Y-120686000D01*
X146597000Y-109336000D02*
X146597000Y-112136000D01*
X165797000Y-90136000D02*
X146597000Y-109336000D01*
D35*
G04 #@! TO.N,/TM1638_Display/DIO_Out*
X195550000Y-75883000D02*
X195550000Y-71000000D01*
D37*
X198090000Y-71000000D02*
X195550000Y-71000000D01*
D35*
X170397000Y-84786000D02*
X170447000Y-84836000D01*
X186597000Y-84836000D02*
X195550000Y-75883000D01*
X170447000Y-84836000D02*
X186597000Y-84836000D01*
D33*
G04 #@! TO.N,/MCU-IO/DISP_DIO*
X144721376Y-115736000D02*
X143097000Y-115736000D01*
X168497000Y-90836000D02*
X149152000Y-110181000D01*
X138547000Y-120286000D02*
X138547000Y-122786000D01*
X143097000Y-115736000D02*
X138547000Y-120286000D01*
X149152000Y-110181000D02*
X149152000Y-111305376D01*
X149152000Y-111305376D02*
X144721376Y-115736000D01*
X138547000Y-122786000D02*
X136797000Y-124536000D01*
X168497000Y-88436000D02*
X168497000Y-90836000D01*
X136797000Y-124536000D02*
X136247000Y-124536000D01*
D35*
G04 #@! TO.N,/TM1638_Display/STB_Out*
X195550000Y-65923000D02*
X195550000Y-65920000D01*
D37*
X198090000Y-65920000D02*
X195550000Y-65920000D01*
D35*
X163947000Y-80736000D02*
X165597000Y-79086000D01*
X184257000Y-79086000D02*
X194117000Y-69226000D01*
X163947000Y-84188000D02*
X163947000Y-80736000D01*
X165597000Y-79086000D02*
X184257000Y-79086000D01*
X194117000Y-69226000D02*
X194117000Y-67356000D01*
X194117000Y-67356000D02*
X195550000Y-65923000D01*
D33*
G04 #@! TO.N,/RTC/INT_CLKOUT*
X160497000Y-107737000D02*
X160497000Y-104436000D01*
X163400000Y-110640000D02*
X160497000Y-107737000D01*
D37*
G04 #@! TO.N,/MCU-IO/BZ2_P*
X152097000Y-128036000D02*
X149097000Y-128036000D01*
X148597000Y-128536000D02*
X148447000Y-128686000D01*
X148447000Y-128686000D02*
X145597000Y-128686000D01*
X149097000Y-128036000D02*
X148597000Y-128536000D01*
D33*
G04 #@! TO.N,/MCU-IO/BZ2_N*
X149685500Y-127247500D02*
X149647000Y-127247500D01*
D35*
X152526000Y-126257000D02*
X152646711Y-126257000D01*
X149685500Y-127247500D02*
X151535500Y-127247500D01*
X151535500Y-127247500D02*
X152526000Y-126257000D01*
G04 #@! TO.N,/MCU-IO/ADC1*
X131708900Y-113313500D02*
X132597900Y-113313500D01*
X131577000Y-113445400D02*
X131708900Y-113313500D01*
X139806600Y-102040800D02*
X139806600Y-100872400D01*
X140009800Y-105901600D02*
X140009800Y-102244000D01*
X144327800Y-100872400D02*
X145801000Y-102345600D01*
X139806600Y-100872400D02*
X144327800Y-100872400D01*
X132597900Y-113313500D02*
X140009800Y-105901600D01*
X140009800Y-102244000D02*
X139806600Y-102040800D01*
D33*
G04 #@! TO.N,/MCU-IO/IO_Gate*
X148497000Y-98186000D02*
X147997000Y-98686000D01*
X144933635Y-114399365D02*
X147397000Y-111936000D01*
X144597000Y-140486000D02*
X144897000Y-140486000D01*
X147997000Y-102036000D02*
X147897000Y-102036000D01*
X144933635Y-114769400D02*
X144933635Y-114399365D01*
X147397000Y-111936000D02*
X147397000Y-110036000D01*
X143297000Y-139186000D02*
X144597000Y-140486000D01*
X147897000Y-102036000D02*
X147797000Y-101936000D01*
X144897000Y-140486000D02*
X145897000Y-141486000D01*
X147997000Y-98686000D02*
X147997000Y-102036000D01*
G04 #@! TO.N,/MCU-IO/BTN_B_Sense*
X133013416Y-122933996D02*
X133013416Y-123984574D01*
X134335808Y-126583757D02*
X134583565Y-126336000D01*
X132377000Y-115686000D02*
X132172451Y-115890549D01*
X126027393Y-115890549D02*
X121289000Y-111152156D01*
X132757000Y-117838759D02*
X132757000Y-122677580D01*
X132697000Y-116006000D02*
X132697000Y-117146693D01*
X133143500Y-124114658D02*
X133143500Y-125007342D01*
X132747000Y-96566000D02*
X132967000Y-96566000D01*
X132967000Y-96566000D02*
X132977000Y-96556000D01*
X133013416Y-125137426D02*
X133013416Y-126083996D01*
X133013416Y-123984574D02*
X133143500Y-124114658D01*
X121289000Y-111152156D02*
X121289000Y-105883444D01*
X132497000Y-96316000D02*
X132747000Y-96566000D01*
X155545000Y-142984000D02*
X155545000Y-145295000D01*
X132697000Y-117146693D02*
X132602323Y-117241370D01*
X132602323Y-117684082D02*
X132757000Y-117838759D01*
X134583565Y-126336000D02*
X138897000Y-126336000D01*
X130856444Y-96316000D02*
X132497000Y-96316000D01*
X132757000Y-122677580D02*
X133013416Y-122933996D01*
X133013416Y-126083996D02*
X133513177Y-126583757D01*
X133513177Y-126583757D02*
X134335808Y-126583757D01*
X132602323Y-117241370D02*
X132602323Y-117684082D01*
X132172451Y-115890549D02*
X126027393Y-115890549D01*
X121289000Y-105883444D02*
X130856444Y-96316000D01*
X138897000Y-126336000D02*
X155545000Y-142984000D01*
X132377000Y-115686000D02*
X132697000Y-116006000D01*
X133143500Y-125007342D02*
X133013416Y-125137426D01*
G04 #@! TO.N,Net-(R23-Pad1)*
X144997000Y-134836000D02*
X149847000Y-139686000D01*
X164435000Y-140505000D02*
X170935000Y-140505000D01*
X149847000Y-139686000D02*
X151347000Y-139686000D01*
G04 #@! TO.N,/MCU-IO/SWDA_IN*
X134931291Y-118271709D02*
X138204171Y-114998829D01*
X134931291Y-118540709D02*
X134931291Y-118271709D01*
X134856000Y-118616000D02*
X134931291Y-118540709D01*
X138204171Y-114998829D02*
X142259829Y-114998829D01*
D37*
G04 #@! TO.N,/MCU-IO/QSPI_SS*
X130238039Y-125425271D02*
X129768689Y-125894621D01*
X130238039Y-122642675D02*
X130238039Y-125425271D01*
X129768689Y-125894621D02*
X129768689Y-126385797D01*
X130311857Y-122568857D02*
X130238039Y-122642675D01*
X130307000Y-130819000D02*
X132618400Y-130819000D01*
X129768689Y-126385797D02*
X130307000Y-126924108D01*
X130307000Y-130819000D02*
X128783000Y-132343000D01*
X128529000Y-132597000D02*
X128402000Y-132597000D01*
X130307000Y-126924108D02*
X130307000Y-130819000D01*
X128783000Y-132343000D02*
X128529000Y-132597000D01*
X132618400Y-130819000D02*
X132643800Y-130793600D01*
D33*
G04 #@! TO.N,/MCU-IO/~{Reset}*
X137097000Y-119094512D02*
X137097000Y-118511391D01*
X137097000Y-118511391D02*
X136794609Y-118209000D01*
X148297000Y-132636000D02*
X152447000Y-132636000D01*
X137210500Y-119208012D02*
X137097000Y-119094512D01*
X137097000Y-119705488D02*
X137210500Y-119591988D01*
X137097000Y-122740500D02*
X137097000Y-119705488D01*
X142597000Y-126936000D02*
X148297000Y-132636000D01*
X175155000Y-145005000D02*
X181655000Y-145005000D01*
X137210500Y-119591988D02*
X137210500Y-119208012D01*
X136797000Y-123040500D02*
X137097000Y-122740500D01*
D35*
G04 #@! TO.N,/MCU-IO/ADC1_VSW_In*
X119181800Y-131747200D02*
X111984000Y-138945000D01*
X119181800Y-116163200D02*
X119181800Y-131747200D01*
D33*
G04 #@! TO.N,/MCU-IO/IO25_LED*
X130546011Y-116935011D02*
X131197000Y-117586000D01*
X127277989Y-116935011D02*
X130546011Y-116935011D01*
X125667000Y-118546000D02*
X127277989Y-116935011D01*
D35*
G04 #@! TO.N,/MCU-IO/ADC0_VUSB_In*
X140517800Y-98891200D02*
X145089800Y-98891200D01*
X138943000Y-100466000D02*
X139298600Y-100110400D01*
X138943000Y-104123600D02*
X138943000Y-100466000D01*
X138435000Y-104631600D02*
X138943000Y-104123600D01*
X137215800Y-104631600D02*
X138435000Y-104631600D01*
X131424600Y-104009300D02*
X131411900Y-104022000D01*
X131411900Y-104022000D02*
X123906200Y-104022000D01*
X117759400Y-118042800D02*
X117607000Y-118195200D01*
X117759400Y-116518800D02*
X117759400Y-118042800D01*
X139298600Y-100110400D02*
X140517800Y-98891200D01*
X123906200Y-104022000D02*
X122229800Y-105698400D01*
X145089800Y-98891200D02*
X145089800Y-96351200D01*
X145089800Y-96351200D02*
X145902600Y-95538400D01*
D33*
G04 #@! TO.N,/MCU-IO/DCDC_EN*
X132759416Y-125032216D02*
X132759416Y-126189206D01*
X132889500Y-124219868D02*
X132889500Y-124902132D01*
X131847000Y-117736000D02*
X131847000Y-121836000D01*
X131847000Y-121836000D02*
X132235500Y-122224500D01*
X132889500Y-124902132D02*
X132759416Y-125032216D01*
X132235500Y-122515290D02*
X132759416Y-123039206D01*
X142000213Y-136686000D02*
X149195000Y-143880787D01*
X131267000Y-97226000D02*
X131707000Y-96786000D01*
X133407967Y-126837757D02*
X135448757Y-126837757D01*
X132759416Y-123039206D02*
X132759416Y-124089784D01*
X132235500Y-122224500D02*
X132235500Y-122515290D01*
X138022624Y-136686000D02*
X142000213Y-136686000D01*
X137597000Y-136260376D02*
X138022624Y-136686000D01*
X137597000Y-128986000D02*
X137597000Y-136260376D01*
X135448757Y-126837757D02*
X137597000Y-128986000D01*
X132759416Y-126189206D02*
X133407967Y-126837757D01*
X132817000Y-103906000D02*
X131267000Y-102356000D01*
X132759416Y-124089784D02*
X132889500Y-124219868D01*
X132817000Y-105776000D02*
X132817000Y-103906000D01*
X131267000Y-102356000D02*
X131267000Y-97226000D01*
X131947000Y-117636000D02*
X131847000Y-117736000D01*
X149195000Y-143880787D02*
X149195000Y-145295000D01*
D37*
G04 #@! TO.N,/MCU-IO/QSPI_SD1*
X128148000Y-122310000D02*
X125481000Y-124977000D01*
X125608000Y-130946000D02*
X125481000Y-130819000D01*
X125608000Y-131200000D02*
X125608000Y-130946000D01*
X125481000Y-124977000D02*
X125481000Y-130819000D01*
G04 #@! TO.N,/MCU-IO/QSPI_CLK*
X127939000Y-120614000D02*
X121544000Y-127009000D01*
X129754000Y-120614000D02*
X127939000Y-120614000D01*
G04 #@! TO.N,/MCU-IO/QSPI_SD0*
X119766000Y-127644000D02*
X119766000Y-127898000D01*
X130180000Y-120913000D02*
X130180000Y-120437545D01*
X127386000Y-120024000D02*
X119766000Y-127644000D01*
X129926000Y-121167000D02*
X130180000Y-120913000D01*
X129766455Y-120024000D02*
X127386000Y-120024000D01*
X130180000Y-120437545D02*
X129766455Y-120024000D01*
G04 #@! TO.N,/MCU-IO/QSPI_SD3*
X124084000Y-129295000D02*
X122179000Y-131200000D01*
X128148000Y-121548000D02*
X124084000Y-125612000D01*
X124084000Y-125612000D02*
X124084000Y-129295000D01*
X122179000Y-131200000D02*
X121036000Y-131200000D01*
X128148000Y-121040000D02*
X128148000Y-121548000D01*
D35*
G04 #@! TO.N,/Power-DCDC-Charger-Battery/DOUT*
X116743400Y-79333200D02*
X116692600Y-79384000D01*
X116743400Y-72068800D02*
X116743400Y-79333200D01*
X118927000Y-80406000D02*
X118817000Y-80516000D01*
X119077000Y-80406000D02*
X118927000Y-80406000D01*
X132685000Y-77350000D02*
X129629000Y-80406000D01*
X129629000Y-80406000D02*
X119077000Y-80406000D01*
G04 #@! TO.N,Net-(JP11-A)*
X124592000Y-93481000D02*
X124592000Y-95894000D01*
X121163000Y-90052000D02*
X124592000Y-93481000D01*
D37*
G04 #@! TO.N,/MCU-IO/QSPI_SD2*
X129799000Y-121929000D02*
X127977000Y-123751000D01*
X127977000Y-123751000D02*
X127977000Y-126576000D01*
X128407000Y-130052000D02*
X128402000Y-130057000D01*
X128407000Y-127006000D02*
X128407000Y-130052000D01*
X127977000Y-126576000D02*
X128407000Y-127006000D01*
D33*
G04 #@! TO.N,/MCU-IO/RTC_INT_GPIN0*
X165797000Y-95236000D02*
X165697000Y-95136000D01*
X165797000Y-105236000D02*
X165797000Y-95236000D01*
D34*
G04 #@! TO.N,/Power-DCDC-Charger-Battery/VBAT*
X129307800Y-106596000D02*
X134187000Y-106596000D01*
X124973000Y-110930800D02*
X129307800Y-106596000D01*
X140619400Y-97672000D02*
X140924200Y-97367200D01*
D35*
X118357300Y-129396700D02*
X111984000Y-135770000D01*
D34*
X138434000Y-100255165D02*
X140306966Y-98382200D01*
X145547000Y-94166800D02*
X154894900Y-94166800D01*
X121823400Y-110930800D02*
X124973000Y-110930800D01*
X142346600Y-97367200D02*
X145547000Y-94166800D01*
D36*
X109936200Y-74215200D02*
X109936200Y-71459200D01*
X135285400Y-97367200D02*
X125836600Y-87918400D01*
D34*
X140306966Y-98376034D02*
X140619400Y-98063600D01*
D35*
X118357300Y-114549300D02*
X118357300Y-129396700D01*
X120553400Y-112353200D02*
X118357300Y-114549300D01*
D34*
X138434000Y-102349000D02*
X138434000Y-100255165D01*
D36*
X125836600Y-87918400D02*
X123639400Y-87918400D01*
D34*
X140306966Y-98382200D02*
X140306966Y-98376034D01*
D36*
X123639400Y-87918400D02*
X109936200Y-74215200D01*
X140924200Y-97367200D02*
X135285400Y-97367200D01*
D34*
X134187000Y-106596000D02*
X138434000Y-102349000D01*
X140924200Y-97367200D02*
X142346600Y-97367200D01*
X140619400Y-98063600D02*
X140619400Y-97672000D01*
D33*
G04 #@! TO.N,/MCU-IO/IO16*
X168193000Y-123382000D02*
X194802210Y-123382000D01*
X152547000Y-117736000D02*
X162547000Y-117736000D01*
X196063258Y-124643048D02*
X199188048Y-124643048D01*
X199188048Y-124643048D02*
X200665000Y-126120000D01*
X137007090Y-117236000D02*
X136653719Y-117589371D01*
X139597000Y-117236000D02*
X137007090Y-117236000D01*
X162547000Y-117736000D02*
X168193000Y-123382000D01*
X149247000Y-117386000D02*
X142147000Y-117386000D01*
X194802210Y-123382000D02*
X196063258Y-124643048D01*
G04 #@! TO.N,/MCU-IO/IO15*
X195892548Y-125031548D02*
X196052029Y-125031548D01*
X150347000Y-123636000D02*
X194497000Y-123636000D01*
X149672289Y-124261289D02*
X149721711Y-124261289D01*
X149721711Y-124261289D02*
X150347000Y-123636000D01*
X194497000Y-123636000D02*
X195892548Y-125031548D01*
G04 #@! TO.N,/MCU-IO/I2C_SCL*
X154297000Y-105836000D02*
X156697000Y-103436000D01*
X144097000Y-116136000D02*
X143310500Y-116922500D01*
X148397000Y-116136000D02*
X144097000Y-116136000D01*
X154297000Y-108436000D02*
X154297000Y-105836000D01*
X151897000Y-112636000D02*
X148397000Y-116136000D01*
X143310500Y-116922500D02*
X143095795Y-116922500D01*
X152697000Y-112636000D02*
X151897000Y-112636000D01*
X154297000Y-108436000D02*
X154597000Y-108736000D01*
X154597000Y-108736000D02*
X154597000Y-110736000D01*
X154597000Y-110736000D02*
X152697000Y-112636000D01*
X156697000Y-103436000D02*
X156797000Y-103436000D01*
G04 #@! TO.N,/MCU-IO/I2C_SDA*
X155097000Y-102336000D02*
X155097000Y-102136000D01*
X148897000Y-108536000D02*
X155097000Y-102336000D01*
X147897000Y-111936000D02*
X148897000Y-110936000D01*
X148897000Y-110936000D02*
X148897000Y-108536000D01*
D37*
G04 #@! TO.N,/TM1638_Display/SEG_C*
X181997000Y-66286000D02*
X182558000Y-66847000D01*
D33*
X178497000Y-77836000D02*
X179405000Y-77836000D01*
X180997000Y-98486000D02*
X180997000Y-91486000D01*
X178147000Y-78186000D02*
X178497000Y-77836000D01*
D37*
X182558000Y-72325000D02*
X181747000Y-73136000D01*
D33*
X179405000Y-77836000D02*
X181580000Y-75661000D01*
D37*
X182558000Y-66847000D02*
X182558000Y-72325000D01*
D33*
X180997000Y-91486000D02*
X178147000Y-88636000D01*
G04 #@! TO.N,/TM1638_Display/SEG_G*
X180247000Y-86986000D02*
X184547000Y-91286000D01*
X184547000Y-91286000D02*
X184547000Y-95036000D01*
X179643000Y-86986000D02*
X180247000Y-86986000D01*
G04 #@! TO.N,/TM1638_Display/SEG_F*
X174397000Y-94536000D02*
X183047000Y-103186000D01*
X174397000Y-86236000D02*
X174397000Y-94536000D01*
D37*
G04 #@! TO.N,/TM1638_Display/SEG_D*
X183447000Y-62886000D02*
X172671000Y-62886000D01*
D33*
X184447000Y-98486000D02*
X192747000Y-90186000D01*
X186097000Y-76386000D02*
X184845000Y-76386000D01*
D37*
X185547000Y-67486000D02*
X185547000Y-74234000D01*
X185547000Y-74234000D02*
X184120000Y-75661000D01*
X183697000Y-62636000D02*
X183447000Y-62886000D01*
X172671000Y-62886000D02*
X171420000Y-64137000D01*
D33*
X184845000Y-76386000D02*
X184120000Y-75661000D01*
X182297000Y-98486000D02*
X184447000Y-98486000D01*
G04 #@! TO.N,/TM1638_Display/SEG_DX*
X177688500Y-86836000D02*
X177697000Y-86836000D01*
X186988500Y-98927500D02*
X187347000Y-99286000D01*
X182114124Y-98927500D02*
X186988500Y-98927500D01*
X177697000Y-86836000D02*
X181855500Y-90994500D01*
X181855500Y-90994500D02*
X181855500Y-98668876D01*
X181855500Y-98668876D02*
X182114124Y-98927500D01*
D37*
G04 #@! TO.N,/TM1638_Display/SEG_DPX*
X185997000Y-91886000D02*
X180297000Y-86186000D01*
X175247000Y-86186000D02*
X175097000Y-86036000D01*
X180297000Y-86186000D02*
X175247000Y-86186000D01*
X185997000Y-96286000D02*
X185997000Y-91886000D01*
D33*
G04 #@! TO.N,/TM1638_Display/SEG_E*
X177247000Y-95436000D02*
X181297000Y-99486000D01*
X177247000Y-88436000D02*
X177247000Y-95436000D01*
X181297000Y-99486000D02*
X182397000Y-99486000D01*
D35*
G04 #@! TO.N,/TM1638_Display/Dig_6*
X174901500Y-68990500D02*
X174901500Y-68982500D01*
X177697000Y-70186000D02*
X176097000Y-70186000D01*
X182947000Y-76136000D02*
X182947000Y-75436000D01*
X184076448Y-77265448D02*
X182947000Y-76136000D01*
X176097000Y-70186000D02*
X174901500Y-68990500D01*
X182947000Y-75436000D02*
X177697000Y-70186000D01*
X174901500Y-68982500D02*
X173960000Y-68041000D01*
G04 #@! TO.N,/TM1638_Display/Dig_8*
X182397000Y-90436000D02*
X181747000Y-89786000D01*
X182397000Y-92236000D02*
X182397000Y-90436000D01*
X183547000Y-93386000D02*
X182397000Y-92236000D01*
G04 #@! TO.N,/TM1638_Display/Dig_7*
X179247000Y-81986000D02*
X179197000Y-82036000D01*
X185397000Y-81986000D02*
X179247000Y-81986000D01*
D33*
G04 #@! TO.N,/MCU-IO/IO6*
X149447000Y-128936000D02*
X195247000Y-128936000D01*
X133247000Y-127436000D02*
X134647000Y-127436000D01*
X134647000Y-127436000D02*
X136147000Y-128936000D01*
X132197000Y-124536000D02*
X132197000Y-126386000D01*
X195397000Y-129086000D02*
X197699000Y-129086000D01*
X132197000Y-126386000D02*
X133247000Y-127436000D01*
X197699000Y-129086000D02*
X198125000Y-128660000D01*
X195247000Y-128936000D02*
X195397000Y-129086000D01*
X136147000Y-128936000D02*
X136197000Y-128936000D01*
G04 #@! TD*
M02*
