G04 #@! TF.GenerationSoftware,KiCad,Pcbnew,9.0.4-9.0.4-0~ubuntu24.04.1*
G04 #@! TF.CreationDate,2026-02-11T09:01:33+09:00*
G04 #@! TF.ProjectId,10k-Hour-Timer-RP2040,31306b2d-486f-4757-922d-54696d65722d,rev?*
G04 #@! TF.SameCoordinates,Original*
G04 #@! TF.FileFunction,Soldermask,Bot*
G04 #@! TF.FilePolarity,Negative*
%FSLAX46Y46*%
G04 Gerber Fmt 4.6, Leading zero omitted, Abs format (unit mm)*
G04 Created by KiCad (PCBNEW 9.0.4-9.0.4-0~ubuntu24.04.1) date 2026-02-11 09:01:33*
%MOMM*%
%LPD*%
G01*
G04 APERTURE LIST*
%ADD10C,0.100000*%
%ADD11C,0.150000*%
%ADD12C,0.300000*%
%ADD13C,0.400000*%
G04 APERTURE END LIST*
D10*
D11*
X177002200Y-166007200D02*
X285002200Y-166007200D01*
X285002200Y-198007200D01*
X177002200Y-198007200D01*
X177002200Y-166007200D01*
D10*
D11*
X10000000Y-10000000D02*
X287002200Y-10000000D01*
X287002200Y-200007200D01*
X10000000Y-200007200D01*
X10000000Y-10000000D01*
D10*
D11*
X12000000Y-12000000D02*
X285002200Y-12000000D01*
X285002200Y-198007200D01*
X12000000Y-198007200D01*
X12000000Y-12000000D01*
D10*
D11*
X60000000Y-12000000D02*
X60000000Y-10000000D01*
D10*
D11*
X110000000Y-12000000D02*
X110000000Y-10000000D01*
D10*
D11*
X160000000Y-12000000D02*
X160000000Y-10000000D01*
D10*
D11*
X210000000Y-12000000D02*
X210000000Y-10000000D01*
D10*
D11*
X260000000Y-12000000D02*
X260000000Y-10000000D01*
D10*
D11*
X36089160Y-11593604D02*
X35346303Y-11593604D01*
X35717731Y-11593604D02*
X35717731Y-10293604D01*
X35717731Y-10293604D02*
X35593922Y-10479319D01*
X35593922Y-10479319D02*
X35470112Y-10603128D01*
X35470112Y-10603128D02*
X35346303Y-10665033D01*
D10*
D11*
X85346303Y-10417414D02*
X85408207Y-10355509D01*
X85408207Y-10355509D02*
X85532017Y-10293604D01*
X85532017Y-10293604D02*
X85841541Y-10293604D01*
X85841541Y-10293604D02*
X85965350Y-10355509D01*
X85965350Y-10355509D02*
X86027255Y-10417414D01*
X86027255Y-10417414D02*
X86089160Y-10541223D01*
X86089160Y-10541223D02*
X86089160Y-10665033D01*
X86089160Y-10665033D02*
X86027255Y-10850747D01*
X86027255Y-10850747D02*
X85284398Y-11593604D01*
X85284398Y-11593604D02*
X86089160Y-11593604D01*
D10*
D11*
X135284398Y-10293604D02*
X136089160Y-10293604D01*
X136089160Y-10293604D02*
X135655826Y-10788842D01*
X135655826Y-10788842D02*
X135841541Y-10788842D01*
X135841541Y-10788842D02*
X135965350Y-10850747D01*
X135965350Y-10850747D02*
X136027255Y-10912652D01*
X136027255Y-10912652D02*
X136089160Y-11036461D01*
X136089160Y-11036461D02*
X136089160Y-11345985D01*
X136089160Y-11345985D02*
X136027255Y-11469795D01*
X136027255Y-11469795D02*
X135965350Y-11531700D01*
X135965350Y-11531700D02*
X135841541Y-11593604D01*
X135841541Y-11593604D02*
X135470112Y-11593604D01*
X135470112Y-11593604D02*
X135346303Y-11531700D01*
X135346303Y-11531700D02*
X135284398Y-11469795D01*
D10*
D11*
X185965350Y-10726938D02*
X185965350Y-11593604D01*
X185655826Y-10231700D02*
X185346303Y-11160271D01*
X185346303Y-11160271D02*
X186151064Y-11160271D01*
D10*
D11*
X236027255Y-10293604D02*
X235408207Y-10293604D01*
X235408207Y-10293604D02*
X235346303Y-10912652D01*
X235346303Y-10912652D02*
X235408207Y-10850747D01*
X235408207Y-10850747D02*
X235532017Y-10788842D01*
X235532017Y-10788842D02*
X235841541Y-10788842D01*
X235841541Y-10788842D02*
X235965350Y-10850747D01*
X235965350Y-10850747D02*
X236027255Y-10912652D01*
X236027255Y-10912652D02*
X236089160Y-11036461D01*
X236089160Y-11036461D02*
X236089160Y-11345985D01*
X236089160Y-11345985D02*
X236027255Y-11469795D01*
X236027255Y-11469795D02*
X235965350Y-11531700D01*
X235965350Y-11531700D02*
X235841541Y-11593604D01*
X235841541Y-11593604D02*
X235532017Y-11593604D01*
X235532017Y-11593604D02*
X235408207Y-11531700D01*
X235408207Y-11531700D02*
X235346303Y-11469795D01*
D10*
D11*
X285965350Y-10293604D02*
X285717731Y-10293604D01*
X285717731Y-10293604D02*
X285593922Y-10355509D01*
X285593922Y-10355509D02*
X285532017Y-10417414D01*
X285532017Y-10417414D02*
X285408207Y-10603128D01*
X285408207Y-10603128D02*
X285346303Y-10850747D01*
X285346303Y-10850747D02*
X285346303Y-11345985D01*
X285346303Y-11345985D02*
X285408207Y-11469795D01*
X285408207Y-11469795D02*
X285470112Y-11531700D01*
X285470112Y-11531700D02*
X285593922Y-11593604D01*
X285593922Y-11593604D02*
X285841541Y-11593604D01*
X285841541Y-11593604D02*
X285965350Y-11531700D01*
X285965350Y-11531700D02*
X286027255Y-11469795D01*
X286027255Y-11469795D02*
X286089160Y-11345985D01*
X286089160Y-11345985D02*
X286089160Y-11036461D01*
X286089160Y-11036461D02*
X286027255Y-10912652D01*
X286027255Y-10912652D02*
X285965350Y-10850747D01*
X285965350Y-10850747D02*
X285841541Y-10788842D01*
X285841541Y-10788842D02*
X285593922Y-10788842D01*
X285593922Y-10788842D02*
X285470112Y-10850747D01*
X285470112Y-10850747D02*
X285408207Y-10912652D01*
X285408207Y-10912652D02*
X285346303Y-11036461D01*
D10*
D11*
X60000000Y-198007200D02*
X60000000Y-200007200D01*
D10*
D11*
X110000000Y-198007200D02*
X110000000Y-200007200D01*
D10*
D11*
X160000000Y-198007200D02*
X160000000Y-200007200D01*
D10*
D11*
X210000000Y-198007200D02*
X210000000Y-200007200D01*
D10*
D11*
X260000000Y-198007200D02*
X260000000Y-200007200D01*
D10*
D11*
X36089160Y-199600804D02*
X35346303Y-199600804D01*
X35717731Y-199600804D02*
X35717731Y-198300804D01*
X35717731Y-198300804D02*
X35593922Y-198486519D01*
X35593922Y-198486519D02*
X35470112Y-198610328D01*
X35470112Y-198610328D02*
X35346303Y-198672233D01*
D10*
D11*
X85346303Y-198424614D02*
X85408207Y-198362709D01*
X85408207Y-198362709D02*
X85532017Y-198300804D01*
X85532017Y-198300804D02*
X85841541Y-198300804D01*
X85841541Y-198300804D02*
X85965350Y-198362709D01*
X85965350Y-198362709D02*
X86027255Y-198424614D01*
X86027255Y-198424614D02*
X86089160Y-198548423D01*
X86089160Y-198548423D02*
X86089160Y-198672233D01*
X86089160Y-198672233D02*
X86027255Y-198857947D01*
X86027255Y-198857947D02*
X85284398Y-199600804D01*
X85284398Y-199600804D02*
X86089160Y-199600804D01*
D10*
D11*
X135284398Y-198300804D02*
X136089160Y-198300804D01*
X136089160Y-198300804D02*
X135655826Y-198796042D01*
X135655826Y-198796042D02*
X135841541Y-198796042D01*
X135841541Y-198796042D02*
X135965350Y-198857947D01*
X135965350Y-198857947D02*
X136027255Y-198919852D01*
X136027255Y-198919852D02*
X136089160Y-199043661D01*
X136089160Y-199043661D02*
X136089160Y-199353185D01*
X136089160Y-199353185D02*
X136027255Y-199476995D01*
X136027255Y-199476995D02*
X135965350Y-199538900D01*
X135965350Y-199538900D02*
X135841541Y-199600804D01*
X135841541Y-199600804D02*
X135470112Y-199600804D01*
X135470112Y-199600804D02*
X135346303Y-199538900D01*
X135346303Y-199538900D02*
X135284398Y-199476995D01*
D10*
D11*
X185965350Y-198734138D02*
X185965350Y-199600804D01*
X185655826Y-198238900D02*
X185346303Y-199167471D01*
X185346303Y-199167471D02*
X186151064Y-199167471D01*
D10*
D11*
X236027255Y-198300804D02*
X235408207Y-198300804D01*
X235408207Y-198300804D02*
X235346303Y-198919852D01*
X235346303Y-198919852D02*
X235408207Y-198857947D01*
X235408207Y-198857947D02*
X235532017Y-198796042D01*
X235532017Y-198796042D02*
X235841541Y-198796042D01*
X235841541Y-198796042D02*
X235965350Y-198857947D01*
X235965350Y-198857947D02*
X236027255Y-198919852D01*
X236027255Y-198919852D02*
X236089160Y-199043661D01*
X236089160Y-199043661D02*
X236089160Y-199353185D01*
X236089160Y-199353185D02*
X236027255Y-199476995D01*
X236027255Y-199476995D02*
X235965350Y-199538900D01*
X235965350Y-199538900D02*
X235841541Y-199600804D01*
X235841541Y-199600804D02*
X235532017Y-199600804D01*
X235532017Y-199600804D02*
X235408207Y-199538900D01*
X235408207Y-199538900D02*
X235346303Y-199476995D01*
D10*
D11*
X285965350Y-198300804D02*
X285717731Y-198300804D01*
X285717731Y-198300804D02*
X285593922Y-198362709D01*
X285593922Y-198362709D02*
X285532017Y-198424614D01*
X285532017Y-198424614D02*
X285408207Y-198610328D01*
X285408207Y-198610328D02*
X285346303Y-198857947D01*
X285346303Y-198857947D02*
X285346303Y-199353185D01*
X285346303Y-199353185D02*
X285408207Y-199476995D01*
X285408207Y-199476995D02*
X285470112Y-199538900D01*
X285470112Y-199538900D02*
X285593922Y-199600804D01*
X285593922Y-199600804D02*
X285841541Y-199600804D01*
X285841541Y-199600804D02*
X285965350Y-199538900D01*
X285965350Y-199538900D02*
X286027255Y-199476995D01*
X286027255Y-199476995D02*
X286089160Y-199353185D01*
X286089160Y-199353185D02*
X286089160Y-199043661D01*
X286089160Y-199043661D02*
X286027255Y-198919852D01*
X286027255Y-198919852D02*
X285965350Y-198857947D01*
X285965350Y-198857947D02*
X285841541Y-198796042D01*
X285841541Y-198796042D02*
X285593922Y-198796042D01*
X285593922Y-198796042D02*
X285470112Y-198857947D01*
X285470112Y-198857947D02*
X285408207Y-198919852D01*
X285408207Y-198919852D02*
X285346303Y-199043661D01*
D10*
D11*
X10000000Y-60000000D02*
X12000000Y-60000000D01*
D10*
D11*
X10000000Y-110000000D02*
X12000000Y-110000000D01*
D10*
D11*
X10000000Y-160000000D02*
X12000000Y-160000000D01*
D10*
D11*
X10690476Y-35222176D02*
X11309523Y-35222176D01*
X10566666Y-35593604D02*
X10999999Y-34293604D01*
X10999999Y-34293604D02*
X11433333Y-35593604D01*
D10*
D11*
X11092857Y-84912652D02*
X11278571Y-84974557D01*
X11278571Y-84974557D02*
X11340476Y-85036461D01*
X11340476Y-85036461D02*
X11402380Y-85160271D01*
X11402380Y-85160271D02*
X11402380Y-85345985D01*
X11402380Y-85345985D02*
X11340476Y-85469795D01*
X11340476Y-85469795D02*
X11278571Y-85531700D01*
X11278571Y-85531700D02*
X11154761Y-85593604D01*
X11154761Y-85593604D02*
X10659523Y-85593604D01*
X10659523Y-85593604D02*
X10659523Y-84293604D01*
X10659523Y-84293604D02*
X11092857Y-84293604D01*
X11092857Y-84293604D02*
X11216666Y-84355509D01*
X11216666Y-84355509D02*
X11278571Y-84417414D01*
X11278571Y-84417414D02*
X11340476Y-84541223D01*
X11340476Y-84541223D02*
X11340476Y-84665033D01*
X11340476Y-84665033D02*
X11278571Y-84788842D01*
X11278571Y-84788842D02*
X11216666Y-84850747D01*
X11216666Y-84850747D02*
X11092857Y-84912652D01*
X11092857Y-84912652D02*
X10659523Y-84912652D01*
D10*
D11*
X11402380Y-135469795D02*
X11340476Y-135531700D01*
X11340476Y-135531700D02*
X11154761Y-135593604D01*
X11154761Y-135593604D02*
X11030952Y-135593604D01*
X11030952Y-135593604D02*
X10845238Y-135531700D01*
X10845238Y-135531700D02*
X10721428Y-135407890D01*
X10721428Y-135407890D02*
X10659523Y-135284080D01*
X10659523Y-135284080D02*
X10597619Y-135036461D01*
X10597619Y-135036461D02*
X10597619Y-134850747D01*
X10597619Y-134850747D02*
X10659523Y-134603128D01*
X10659523Y-134603128D02*
X10721428Y-134479319D01*
X10721428Y-134479319D02*
X10845238Y-134355509D01*
X10845238Y-134355509D02*
X11030952Y-134293604D01*
X11030952Y-134293604D02*
X11154761Y-134293604D01*
X11154761Y-134293604D02*
X11340476Y-134355509D01*
X11340476Y-134355509D02*
X11402380Y-134417414D01*
D10*
D11*
X10659523Y-185593604D02*
X10659523Y-184293604D01*
X10659523Y-184293604D02*
X10969047Y-184293604D01*
X10969047Y-184293604D02*
X11154761Y-184355509D01*
X11154761Y-184355509D02*
X11278571Y-184479319D01*
X11278571Y-184479319D02*
X11340476Y-184603128D01*
X11340476Y-184603128D02*
X11402380Y-184850747D01*
X11402380Y-184850747D02*
X11402380Y-185036461D01*
X11402380Y-185036461D02*
X11340476Y-185284080D01*
X11340476Y-185284080D02*
X11278571Y-185407890D01*
X11278571Y-185407890D02*
X11154761Y-185531700D01*
X11154761Y-185531700D02*
X10969047Y-185593604D01*
X10969047Y-185593604D02*
X10659523Y-185593604D01*
D10*
D11*
X287002200Y-60000000D02*
X285002200Y-60000000D01*
D10*
D11*
X287002200Y-110000000D02*
X285002200Y-110000000D01*
D10*
D11*
X287002200Y-160000000D02*
X285002200Y-160000000D01*
D10*
D11*
X285692676Y-35222176D02*
X286311723Y-35222176D01*
X285568866Y-35593604D02*
X286002199Y-34293604D01*
X286002199Y-34293604D02*
X286435533Y-35593604D01*
D10*
D11*
X286095057Y-84912652D02*
X286280771Y-84974557D01*
X286280771Y-84974557D02*
X286342676Y-85036461D01*
X286342676Y-85036461D02*
X286404580Y-85160271D01*
X286404580Y-85160271D02*
X286404580Y-85345985D01*
X286404580Y-85345985D02*
X286342676Y-85469795D01*
X286342676Y-85469795D02*
X286280771Y-85531700D01*
X286280771Y-85531700D02*
X286156961Y-85593604D01*
X286156961Y-85593604D02*
X285661723Y-85593604D01*
X285661723Y-85593604D02*
X285661723Y-84293604D01*
X285661723Y-84293604D02*
X286095057Y-84293604D01*
X286095057Y-84293604D02*
X286218866Y-84355509D01*
X286218866Y-84355509D02*
X286280771Y-84417414D01*
X286280771Y-84417414D02*
X286342676Y-84541223D01*
X286342676Y-84541223D02*
X286342676Y-84665033D01*
X286342676Y-84665033D02*
X286280771Y-84788842D01*
X286280771Y-84788842D02*
X286218866Y-84850747D01*
X286218866Y-84850747D02*
X286095057Y-84912652D01*
X286095057Y-84912652D02*
X285661723Y-84912652D01*
D10*
D11*
X286404580Y-135469795D02*
X286342676Y-135531700D01*
X286342676Y-135531700D02*
X286156961Y-135593604D01*
X286156961Y-135593604D02*
X286033152Y-135593604D01*
X286033152Y-135593604D02*
X285847438Y-135531700D01*
X285847438Y-135531700D02*
X285723628Y-135407890D01*
X285723628Y-135407890D02*
X285661723Y-135284080D01*
X285661723Y-135284080D02*
X285599819Y-135036461D01*
X285599819Y-135036461D02*
X285599819Y-134850747D01*
X285599819Y-134850747D02*
X285661723Y-134603128D01*
X285661723Y-134603128D02*
X285723628Y-134479319D01*
X285723628Y-134479319D02*
X285847438Y-134355509D01*
X285847438Y-134355509D02*
X286033152Y-134293604D01*
X286033152Y-134293604D02*
X286156961Y-134293604D01*
X286156961Y-134293604D02*
X286342676Y-134355509D01*
X286342676Y-134355509D02*
X286404580Y-134417414D01*
D10*
D11*
X285661723Y-185593604D02*
X285661723Y-184293604D01*
X285661723Y-184293604D02*
X285971247Y-184293604D01*
X285971247Y-184293604D02*
X286156961Y-184355509D01*
X286156961Y-184355509D02*
X286280771Y-184479319D01*
X286280771Y-184479319D02*
X286342676Y-184603128D01*
X286342676Y-184603128D02*
X286404580Y-184850747D01*
X286404580Y-184850747D02*
X286404580Y-185036461D01*
X286404580Y-185036461D02*
X286342676Y-185284080D01*
X286342676Y-185284080D02*
X286280771Y-185407890D01*
X286280771Y-185407890D02*
X286156961Y-185531700D01*
X286156961Y-185531700D02*
X285971247Y-185593604D01*
X285971247Y-185593604D02*
X285661723Y-185593604D01*
D10*
D11*
X200458026Y-193793328D02*
X200458026Y-192293328D01*
X200458026Y-192293328D02*
X200815169Y-192293328D01*
X200815169Y-192293328D02*
X201029455Y-192364757D01*
X201029455Y-192364757D02*
X201172312Y-192507614D01*
X201172312Y-192507614D02*
X201243741Y-192650471D01*
X201243741Y-192650471D02*
X201315169Y-192936185D01*
X201315169Y-192936185D02*
X201315169Y-193150471D01*
X201315169Y-193150471D02*
X201243741Y-193436185D01*
X201243741Y-193436185D02*
X201172312Y-193579042D01*
X201172312Y-193579042D02*
X201029455Y-193721900D01*
X201029455Y-193721900D02*
X200815169Y-193793328D01*
X200815169Y-193793328D02*
X200458026Y-193793328D01*
X202600884Y-193793328D02*
X202600884Y-193007614D01*
X202600884Y-193007614D02*
X202529455Y-192864757D01*
X202529455Y-192864757D02*
X202386598Y-192793328D01*
X202386598Y-192793328D02*
X202100884Y-192793328D01*
X202100884Y-192793328D02*
X201958026Y-192864757D01*
X202600884Y-193721900D02*
X202458026Y-193793328D01*
X202458026Y-193793328D02*
X202100884Y-193793328D01*
X202100884Y-193793328D02*
X201958026Y-193721900D01*
X201958026Y-193721900D02*
X201886598Y-193579042D01*
X201886598Y-193579042D02*
X201886598Y-193436185D01*
X201886598Y-193436185D02*
X201958026Y-193293328D01*
X201958026Y-193293328D02*
X202100884Y-193221900D01*
X202100884Y-193221900D02*
X202458026Y-193221900D01*
X202458026Y-193221900D02*
X202600884Y-193150471D01*
X203100884Y-192793328D02*
X203672312Y-192793328D01*
X203315169Y-192293328D02*
X203315169Y-193579042D01*
X203315169Y-193579042D02*
X203386598Y-193721900D01*
X203386598Y-193721900D02*
X203529455Y-193793328D01*
X203529455Y-193793328D02*
X203672312Y-193793328D01*
X204743741Y-193721900D02*
X204600884Y-193793328D01*
X204600884Y-193793328D02*
X204315170Y-193793328D01*
X204315170Y-193793328D02*
X204172312Y-193721900D01*
X204172312Y-193721900D02*
X204100884Y-193579042D01*
X204100884Y-193579042D02*
X204100884Y-193007614D01*
X204100884Y-193007614D02*
X204172312Y-192864757D01*
X204172312Y-192864757D02*
X204315170Y-192793328D01*
X204315170Y-192793328D02*
X204600884Y-192793328D01*
X204600884Y-192793328D02*
X204743741Y-192864757D01*
X204743741Y-192864757D02*
X204815170Y-193007614D01*
X204815170Y-193007614D02*
X204815170Y-193150471D01*
X204815170Y-193150471D02*
X204100884Y-193293328D01*
X205458026Y-193650471D02*
X205529455Y-193721900D01*
X205529455Y-193721900D02*
X205458026Y-193793328D01*
X205458026Y-193793328D02*
X205386598Y-193721900D01*
X205386598Y-193721900D02*
X205458026Y-193650471D01*
X205458026Y-193650471D02*
X205458026Y-193793328D01*
X205458026Y-192864757D02*
X205529455Y-192936185D01*
X205529455Y-192936185D02*
X205458026Y-193007614D01*
X205458026Y-193007614D02*
X205386598Y-192936185D01*
X205386598Y-192936185D02*
X205458026Y-192864757D01*
X205458026Y-192864757D02*
X205458026Y-193007614D01*
D10*
D11*
X177002200Y-194507200D02*
X285002200Y-194507200D01*
D10*
D11*
X178458026Y-196593328D02*
X178458026Y-195093328D01*
X179315169Y-196593328D02*
X178672312Y-195736185D01*
X179315169Y-195093328D02*
X178458026Y-195950471D01*
X179958026Y-196593328D02*
X179958026Y-195593328D01*
X179958026Y-195093328D02*
X179886598Y-195164757D01*
X179886598Y-195164757D02*
X179958026Y-195236185D01*
X179958026Y-195236185D02*
X180029455Y-195164757D01*
X180029455Y-195164757D02*
X179958026Y-195093328D01*
X179958026Y-195093328D02*
X179958026Y-195236185D01*
X181529455Y-196450471D02*
X181458027Y-196521900D01*
X181458027Y-196521900D02*
X181243741Y-196593328D01*
X181243741Y-196593328D02*
X181100884Y-196593328D01*
X181100884Y-196593328D02*
X180886598Y-196521900D01*
X180886598Y-196521900D02*
X180743741Y-196379042D01*
X180743741Y-196379042D02*
X180672312Y-196236185D01*
X180672312Y-196236185D02*
X180600884Y-195950471D01*
X180600884Y-195950471D02*
X180600884Y-195736185D01*
X180600884Y-195736185D02*
X180672312Y-195450471D01*
X180672312Y-195450471D02*
X180743741Y-195307614D01*
X180743741Y-195307614D02*
X180886598Y-195164757D01*
X180886598Y-195164757D02*
X181100884Y-195093328D01*
X181100884Y-195093328D02*
X181243741Y-195093328D01*
X181243741Y-195093328D02*
X181458027Y-195164757D01*
X181458027Y-195164757D02*
X181529455Y-195236185D01*
X182815170Y-196593328D02*
X182815170Y-195807614D01*
X182815170Y-195807614D02*
X182743741Y-195664757D01*
X182743741Y-195664757D02*
X182600884Y-195593328D01*
X182600884Y-195593328D02*
X182315170Y-195593328D01*
X182315170Y-195593328D02*
X182172312Y-195664757D01*
X182815170Y-196521900D02*
X182672312Y-196593328D01*
X182672312Y-196593328D02*
X182315170Y-196593328D01*
X182315170Y-196593328D02*
X182172312Y-196521900D01*
X182172312Y-196521900D02*
X182100884Y-196379042D01*
X182100884Y-196379042D02*
X182100884Y-196236185D01*
X182100884Y-196236185D02*
X182172312Y-196093328D01*
X182172312Y-196093328D02*
X182315170Y-196021900D01*
X182315170Y-196021900D02*
X182672312Y-196021900D01*
X182672312Y-196021900D02*
X182815170Y-195950471D01*
X184172313Y-196593328D02*
X184172313Y-195093328D01*
X184172313Y-196521900D02*
X184029455Y-196593328D01*
X184029455Y-196593328D02*
X183743741Y-196593328D01*
X183743741Y-196593328D02*
X183600884Y-196521900D01*
X183600884Y-196521900D02*
X183529455Y-196450471D01*
X183529455Y-196450471D02*
X183458027Y-196307614D01*
X183458027Y-196307614D02*
X183458027Y-195879042D01*
X183458027Y-195879042D02*
X183529455Y-195736185D01*
X183529455Y-195736185D02*
X183600884Y-195664757D01*
X183600884Y-195664757D02*
X183743741Y-195593328D01*
X183743741Y-195593328D02*
X184029455Y-195593328D01*
X184029455Y-195593328D02*
X184172313Y-195664757D01*
X186029455Y-195807614D02*
X186529455Y-195807614D01*
X186743741Y-196593328D02*
X186029455Y-196593328D01*
X186029455Y-196593328D02*
X186029455Y-195093328D01*
X186029455Y-195093328D02*
X186743741Y-195093328D01*
X187386598Y-196450471D02*
X187458027Y-196521900D01*
X187458027Y-196521900D02*
X187386598Y-196593328D01*
X187386598Y-196593328D02*
X187315170Y-196521900D01*
X187315170Y-196521900D02*
X187386598Y-196450471D01*
X187386598Y-196450471D02*
X187386598Y-196593328D01*
X188100884Y-196593328D02*
X188100884Y-195093328D01*
X188100884Y-195093328D02*
X188458027Y-195093328D01*
X188458027Y-195093328D02*
X188672313Y-195164757D01*
X188672313Y-195164757D02*
X188815170Y-195307614D01*
X188815170Y-195307614D02*
X188886599Y-195450471D01*
X188886599Y-195450471D02*
X188958027Y-195736185D01*
X188958027Y-195736185D02*
X188958027Y-195950471D01*
X188958027Y-195950471D02*
X188886599Y-196236185D01*
X188886599Y-196236185D02*
X188815170Y-196379042D01*
X188815170Y-196379042D02*
X188672313Y-196521900D01*
X188672313Y-196521900D02*
X188458027Y-196593328D01*
X188458027Y-196593328D02*
X188100884Y-196593328D01*
X189600884Y-196450471D02*
X189672313Y-196521900D01*
X189672313Y-196521900D02*
X189600884Y-196593328D01*
X189600884Y-196593328D02*
X189529456Y-196521900D01*
X189529456Y-196521900D02*
X189600884Y-196450471D01*
X189600884Y-196450471D02*
X189600884Y-196593328D01*
X190243742Y-196164757D02*
X190958028Y-196164757D01*
X190100885Y-196593328D02*
X190600885Y-195093328D01*
X190600885Y-195093328D02*
X191100885Y-196593328D01*
X191600884Y-196450471D02*
X191672313Y-196521900D01*
X191672313Y-196521900D02*
X191600884Y-196593328D01*
X191600884Y-196593328D02*
X191529456Y-196521900D01*
X191529456Y-196521900D02*
X191600884Y-196450471D01*
X191600884Y-196450471D02*
X191600884Y-196593328D01*
X193529456Y-196593328D02*
X193815170Y-196593328D01*
X193815170Y-196593328D02*
X193958027Y-196521900D01*
X193958027Y-196521900D02*
X194029456Y-196450471D01*
X194029456Y-196450471D02*
X194172313Y-196236185D01*
X194172313Y-196236185D02*
X194243742Y-195950471D01*
X194243742Y-195950471D02*
X194243742Y-195379042D01*
X194243742Y-195379042D02*
X194172313Y-195236185D01*
X194172313Y-195236185D02*
X194100885Y-195164757D01*
X194100885Y-195164757D02*
X193958027Y-195093328D01*
X193958027Y-195093328D02*
X193672313Y-195093328D01*
X193672313Y-195093328D02*
X193529456Y-195164757D01*
X193529456Y-195164757D02*
X193458027Y-195236185D01*
X193458027Y-195236185D02*
X193386599Y-195379042D01*
X193386599Y-195379042D02*
X193386599Y-195736185D01*
X193386599Y-195736185D02*
X193458027Y-195879042D01*
X193458027Y-195879042D02*
X193529456Y-195950471D01*
X193529456Y-195950471D02*
X193672313Y-196021900D01*
X193672313Y-196021900D02*
X193958027Y-196021900D01*
X193958027Y-196021900D02*
X194100885Y-195950471D01*
X194100885Y-195950471D02*
X194172313Y-195879042D01*
X194172313Y-195879042D02*
X194243742Y-195736185D01*
X194886598Y-196450471D02*
X194958027Y-196521900D01*
X194958027Y-196521900D02*
X194886598Y-196593328D01*
X194886598Y-196593328D02*
X194815170Y-196521900D01*
X194815170Y-196521900D02*
X194886598Y-196450471D01*
X194886598Y-196450471D02*
X194886598Y-196593328D01*
X195886599Y-195093328D02*
X196029456Y-195093328D01*
X196029456Y-195093328D02*
X196172313Y-195164757D01*
X196172313Y-195164757D02*
X196243742Y-195236185D01*
X196243742Y-195236185D02*
X196315170Y-195379042D01*
X196315170Y-195379042D02*
X196386599Y-195664757D01*
X196386599Y-195664757D02*
X196386599Y-196021900D01*
X196386599Y-196021900D02*
X196315170Y-196307614D01*
X196315170Y-196307614D02*
X196243742Y-196450471D01*
X196243742Y-196450471D02*
X196172313Y-196521900D01*
X196172313Y-196521900D02*
X196029456Y-196593328D01*
X196029456Y-196593328D02*
X195886599Y-196593328D01*
X195886599Y-196593328D02*
X195743742Y-196521900D01*
X195743742Y-196521900D02*
X195672313Y-196450471D01*
X195672313Y-196450471D02*
X195600884Y-196307614D01*
X195600884Y-196307614D02*
X195529456Y-196021900D01*
X195529456Y-196021900D02*
X195529456Y-195664757D01*
X195529456Y-195664757D02*
X195600884Y-195379042D01*
X195600884Y-195379042D02*
X195672313Y-195236185D01*
X195672313Y-195236185D02*
X195743742Y-195164757D01*
X195743742Y-195164757D02*
X195886599Y-195093328D01*
X197029455Y-196450471D02*
X197100884Y-196521900D01*
X197100884Y-196521900D02*
X197029455Y-196593328D01*
X197029455Y-196593328D02*
X196958027Y-196521900D01*
X196958027Y-196521900D02*
X197029455Y-196450471D01*
X197029455Y-196450471D02*
X197029455Y-196593328D01*
X198386599Y-195593328D02*
X198386599Y-196593328D01*
X198029456Y-195021900D02*
X197672313Y-196093328D01*
X197672313Y-196093328D02*
X198600884Y-196093328D01*
D10*
D11*
X177002200Y-191507200D02*
X285002200Y-191507200D01*
D10*
D12*
X264413853Y-193785528D02*
X263913853Y-193071242D01*
X263556710Y-193785528D02*
X263556710Y-192285528D01*
X263556710Y-192285528D02*
X264128139Y-192285528D01*
X264128139Y-192285528D02*
X264270996Y-192356957D01*
X264270996Y-192356957D02*
X264342425Y-192428385D01*
X264342425Y-192428385D02*
X264413853Y-192571242D01*
X264413853Y-192571242D02*
X264413853Y-192785528D01*
X264413853Y-192785528D02*
X264342425Y-192928385D01*
X264342425Y-192928385D02*
X264270996Y-192999814D01*
X264270996Y-192999814D02*
X264128139Y-193071242D01*
X264128139Y-193071242D02*
X263556710Y-193071242D01*
X265628139Y-193714100D02*
X265485282Y-193785528D01*
X265485282Y-193785528D02*
X265199568Y-193785528D01*
X265199568Y-193785528D02*
X265056710Y-193714100D01*
X265056710Y-193714100D02*
X264985282Y-193571242D01*
X264985282Y-193571242D02*
X264985282Y-192999814D01*
X264985282Y-192999814D02*
X265056710Y-192856957D01*
X265056710Y-192856957D02*
X265199568Y-192785528D01*
X265199568Y-192785528D02*
X265485282Y-192785528D01*
X265485282Y-192785528D02*
X265628139Y-192856957D01*
X265628139Y-192856957D02*
X265699568Y-192999814D01*
X265699568Y-192999814D02*
X265699568Y-193142671D01*
X265699568Y-193142671D02*
X264985282Y-193285528D01*
X266199567Y-192785528D02*
X266556710Y-193785528D01*
X266556710Y-193785528D02*
X266913853Y-192785528D01*
X267485281Y-193642671D02*
X267556710Y-193714100D01*
X267556710Y-193714100D02*
X267485281Y-193785528D01*
X267485281Y-193785528D02*
X267413853Y-193714100D01*
X267413853Y-193714100D02*
X267485281Y-193642671D01*
X267485281Y-193642671D02*
X267485281Y-193785528D01*
X267485281Y-192856957D02*
X267556710Y-192928385D01*
X267556710Y-192928385D02*
X267485281Y-192999814D01*
X267485281Y-192999814D02*
X267413853Y-192928385D01*
X267413853Y-192928385D02*
X267485281Y-192856957D01*
X267485281Y-192856957D02*
X267485281Y-192999814D01*
D10*
D11*
X178386598Y-193721900D02*
X178600884Y-193793328D01*
X178600884Y-193793328D02*
X178958026Y-193793328D01*
X178958026Y-193793328D02*
X179100884Y-193721900D01*
X179100884Y-193721900D02*
X179172312Y-193650471D01*
X179172312Y-193650471D02*
X179243741Y-193507614D01*
X179243741Y-193507614D02*
X179243741Y-193364757D01*
X179243741Y-193364757D02*
X179172312Y-193221900D01*
X179172312Y-193221900D02*
X179100884Y-193150471D01*
X179100884Y-193150471D02*
X178958026Y-193079042D01*
X178958026Y-193079042D02*
X178672312Y-193007614D01*
X178672312Y-193007614D02*
X178529455Y-192936185D01*
X178529455Y-192936185D02*
X178458026Y-192864757D01*
X178458026Y-192864757D02*
X178386598Y-192721900D01*
X178386598Y-192721900D02*
X178386598Y-192579042D01*
X178386598Y-192579042D02*
X178458026Y-192436185D01*
X178458026Y-192436185D02*
X178529455Y-192364757D01*
X178529455Y-192364757D02*
X178672312Y-192293328D01*
X178672312Y-192293328D02*
X179029455Y-192293328D01*
X179029455Y-192293328D02*
X179243741Y-192364757D01*
X179886597Y-193793328D02*
X179886597Y-192793328D01*
X179886597Y-192293328D02*
X179815169Y-192364757D01*
X179815169Y-192364757D02*
X179886597Y-192436185D01*
X179886597Y-192436185D02*
X179958026Y-192364757D01*
X179958026Y-192364757D02*
X179886597Y-192293328D01*
X179886597Y-192293328D02*
X179886597Y-192436185D01*
X180458026Y-192793328D02*
X181243741Y-192793328D01*
X181243741Y-192793328D02*
X180458026Y-193793328D01*
X180458026Y-193793328D02*
X181243741Y-193793328D01*
X182386598Y-193721900D02*
X182243741Y-193793328D01*
X182243741Y-193793328D02*
X181958027Y-193793328D01*
X181958027Y-193793328D02*
X181815169Y-193721900D01*
X181815169Y-193721900D02*
X181743741Y-193579042D01*
X181743741Y-193579042D02*
X181743741Y-193007614D01*
X181743741Y-193007614D02*
X181815169Y-192864757D01*
X181815169Y-192864757D02*
X181958027Y-192793328D01*
X181958027Y-192793328D02*
X182243741Y-192793328D01*
X182243741Y-192793328D02*
X182386598Y-192864757D01*
X182386598Y-192864757D02*
X182458027Y-193007614D01*
X182458027Y-193007614D02*
X182458027Y-193150471D01*
X182458027Y-193150471D02*
X181743741Y-193293328D01*
X183100883Y-193650471D02*
X183172312Y-193721900D01*
X183172312Y-193721900D02*
X183100883Y-193793328D01*
X183100883Y-193793328D02*
X183029455Y-193721900D01*
X183029455Y-193721900D02*
X183100883Y-193650471D01*
X183100883Y-193650471D02*
X183100883Y-193793328D01*
X183100883Y-192864757D02*
X183172312Y-192936185D01*
X183172312Y-192936185D02*
X183100883Y-193007614D01*
X183100883Y-193007614D02*
X183029455Y-192936185D01*
X183029455Y-192936185D02*
X183100883Y-192864757D01*
X183100883Y-192864757D02*
X183100883Y-193007614D01*
X184886598Y-193364757D02*
X185600884Y-193364757D01*
X184743741Y-193793328D02*
X185243741Y-192293328D01*
X185243741Y-192293328D02*
X185743741Y-193793328D01*
X186886598Y-192793328D02*
X186886598Y-193793328D01*
X186529455Y-192221900D02*
X186172312Y-193293328D01*
X186172312Y-193293328D02*
X187100883Y-193293328D01*
D10*
D11*
X263458026Y-196593328D02*
X263458026Y-195093328D01*
X264815170Y-196593328D02*
X264815170Y-195093328D01*
X264815170Y-196521900D02*
X264672312Y-196593328D01*
X264672312Y-196593328D02*
X264386598Y-196593328D01*
X264386598Y-196593328D02*
X264243741Y-196521900D01*
X264243741Y-196521900D02*
X264172312Y-196450471D01*
X264172312Y-196450471D02*
X264100884Y-196307614D01*
X264100884Y-196307614D02*
X264100884Y-195879042D01*
X264100884Y-195879042D02*
X264172312Y-195736185D01*
X264172312Y-195736185D02*
X264243741Y-195664757D01*
X264243741Y-195664757D02*
X264386598Y-195593328D01*
X264386598Y-195593328D02*
X264672312Y-195593328D01*
X264672312Y-195593328D02*
X264815170Y-195664757D01*
X265529455Y-196450471D02*
X265600884Y-196521900D01*
X265600884Y-196521900D02*
X265529455Y-196593328D01*
X265529455Y-196593328D02*
X265458027Y-196521900D01*
X265458027Y-196521900D02*
X265529455Y-196450471D01*
X265529455Y-196450471D02*
X265529455Y-196593328D01*
X265529455Y-195664757D02*
X265600884Y-195736185D01*
X265600884Y-195736185D02*
X265529455Y-195807614D01*
X265529455Y-195807614D02*
X265458027Y-195736185D01*
X265458027Y-195736185D02*
X265529455Y-195664757D01*
X265529455Y-195664757D02*
X265529455Y-195807614D01*
X268172313Y-196593328D02*
X267315170Y-196593328D01*
X267743741Y-196593328D02*
X267743741Y-195093328D01*
X267743741Y-195093328D02*
X267600884Y-195307614D01*
X267600884Y-195307614D02*
X267458027Y-195450471D01*
X267458027Y-195450471D02*
X267315170Y-195521900D01*
X269100884Y-195093328D02*
X269243741Y-195093328D01*
X269243741Y-195093328D02*
X269386598Y-195164757D01*
X269386598Y-195164757D02*
X269458027Y-195236185D01*
X269458027Y-195236185D02*
X269529455Y-195379042D01*
X269529455Y-195379042D02*
X269600884Y-195664757D01*
X269600884Y-195664757D02*
X269600884Y-196021900D01*
X269600884Y-196021900D02*
X269529455Y-196307614D01*
X269529455Y-196307614D02*
X269458027Y-196450471D01*
X269458027Y-196450471D02*
X269386598Y-196521900D01*
X269386598Y-196521900D02*
X269243741Y-196593328D01*
X269243741Y-196593328D02*
X269100884Y-196593328D01*
X269100884Y-196593328D02*
X268958027Y-196521900D01*
X268958027Y-196521900D02*
X268886598Y-196450471D01*
X268886598Y-196450471D02*
X268815169Y-196307614D01*
X268815169Y-196307614D02*
X268743741Y-196021900D01*
X268743741Y-196021900D02*
X268743741Y-195664757D01*
X268743741Y-195664757D02*
X268815169Y-195379042D01*
X268815169Y-195379042D02*
X268886598Y-195236185D01*
X268886598Y-195236185D02*
X268958027Y-195164757D01*
X268958027Y-195164757D02*
X269100884Y-195093328D01*
X271315169Y-195021900D02*
X270029455Y-196950471D01*
X272600884Y-196593328D02*
X271743741Y-196593328D01*
X272172312Y-196593328D02*
X272172312Y-195093328D01*
X272172312Y-195093328D02*
X272029455Y-195307614D01*
X272029455Y-195307614D02*
X271886598Y-195450471D01*
X271886598Y-195450471D02*
X271743741Y-195521900D01*
X274029455Y-196593328D02*
X273172312Y-196593328D01*
X273600883Y-196593328D02*
X273600883Y-195093328D01*
X273600883Y-195093328D02*
X273458026Y-195307614D01*
X273458026Y-195307614D02*
X273315169Y-195450471D01*
X273315169Y-195450471D02*
X273172312Y-195521900D01*
D10*
D11*
X177002200Y-187507200D02*
X285002200Y-187507200D01*
D10*
D13*
X178693928Y-188211638D02*
X179836785Y-188211638D01*
X179015357Y-190211638D02*
X179265357Y-188211638D01*
X180253452Y-190211638D02*
X180420119Y-188878304D01*
X180503452Y-188211638D02*
X180396309Y-188306876D01*
X180396309Y-188306876D02*
X180479643Y-188402114D01*
X180479643Y-188402114D02*
X180586786Y-188306876D01*
X180586786Y-188306876D02*
X180503452Y-188211638D01*
X180503452Y-188211638D02*
X180479643Y-188402114D01*
X181086786Y-188878304D02*
X181848690Y-188878304D01*
X181455833Y-188211638D02*
X181241548Y-189925923D01*
X181241548Y-189925923D02*
X181312976Y-190116400D01*
X181312976Y-190116400D02*
X181491548Y-190211638D01*
X181491548Y-190211638D02*
X181682024Y-190211638D01*
X182634405Y-190211638D02*
X182455833Y-190116400D01*
X182455833Y-190116400D02*
X182384405Y-189925923D01*
X182384405Y-189925923D02*
X182598690Y-188211638D01*
X184170119Y-190116400D02*
X183967738Y-190211638D01*
X183967738Y-190211638D02*
X183586785Y-190211638D01*
X183586785Y-190211638D02*
X183408214Y-190116400D01*
X183408214Y-190116400D02*
X183336785Y-189925923D01*
X183336785Y-189925923D02*
X183432024Y-189164019D01*
X183432024Y-189164019D02*
X183551071Y-188973542D01*
X183551071Y-188973542D02*
X183753452Y-188878304D01*
X183753452Y-188878304D02*
X184134404Y-188878304D01*
X184134404Y-188878304D02*
X184312976Y-188973542D01*
X184312976Y-188973542D02*
X184384404Y-189164019D01*
X184384404Y-189164019D02*
X184360595Y-189354495D01*
X184360595Y-189354495D02*
X183384404Y-189544971D01*
X185134405Y-190021161D02*
X185217738Y-190116400D01*
X185217738Y-190116400D02*
X185110595Y-190211638D01*
X185110595Y-190211638D02*
X185027262Y-190116400D01*
X185027262Y-190116400D02*
X185134405Y-190021161D01*
X185134405Y-190021161D02*
X185110595Y-190211638D01*
X185265357Y-188973542D02*
X185348690Y-189068780D01*
X185348690Y-189068780D02*
X185241548Y-189164019D01*
X185241548Y-189164019D02*
X185158214Y-189068780D01*
X185158214Y-189068780D02*
X185265357Y-188973542D01*
X185265357Y-188973542D02*
X185241548Y-189164019D01*
D10*
D11*
X178958026Y-185607614D02*
X178458026Y-185607614D01*
X178458026Y-186393328D02*
X178458026Y-184893328D01*
X178458026Y-184893328D02*
X179172312Y-184893328D01*
X179743740Y-186393328D02*
X179743740Y-185393328D01*
X179743740Y-184893328D02*
X179672312Y-184964757D01*
X179672312Y-184964757D02*
X179743740Y-185036185D01*
X179743740Y-185036185D02*
X179815169Y-184964757D01*
X179815169Y-184964757D02*
X179743740Y-184893328D01*
X179743740Y-184893328D02*
X179743740Y-185036185D01*
X180672312Y-186393328D02*
X180529455Y-186321900D01*
X180529455Y-186321900D02*
X180458026Y-186179042D01*
X180458026Y-186179042D02*
X180458026Y-184893328D01*
X181815169Y-186321900D02*
X181672312Y-186393328D01*
X181672312Y-186393328D02*
X181386598Y-186393328D01*
X181386598Y-186393328D02*
X181243740Y-186321900D01*
X181243740Y-186321900D02*
X181172312Y-186179042D01*
X181172312Y-186179042D02*
X181172312Y-185607614D01*
X181172312Y-185607614D02*
X181243740Y-185464757D01*
X181243740Y-185464757D02*
X181386598Y-185393328D01*
X181386598Y-185393328D02*
X181672312Y-185393328D01*
X181672312Y-185393328D02*
X181815169Y-185464757D01*
X181815169Y-185464757D02*
X181886598Y-185607614D01*
X181886598Y-185607614D02*
X181886598Y-185750471D01*
X181886598Y-185750471D02*
X181172312Y-185893328D01*
X182529454Y-186250471D02*
X182600883Y-186321900D01*
X182600883Y-186321900D02*
X182529454Y-186393328D01*
X182529454Y-186393328D02*
X182458026Y-186321900D01*
X182458026Y-186321900D02*
X182529454Y-186250471D01*
X182529454Y-186250471D02*
X182529454Y-186393328D01*
X182529454Y-185464757D02*
X182600883Y-185536185D01*
X182600883Y-185536185D02*
X182529454Y-185607614D01*
X182529454Y-185607614D02*
X182458026Y-185536185D01*
X182458026Y-185536185D02*
X182529454Y-185464757D01*
X182529454Y-185464757D02*
X182529454Y-185607614D01*
X185172312Y-186393328D02*
X184315169Y-186393328D01*
X184743740Y-186393328D02*
X184743740Y-184893328D01*
X184743740Y-184893328D02*
X184600883Y-185107614D01*
X184600883Y-185107614D02*
X184458026Y-185250471D01*
X184458026Y-185250471D02*
X184315169Y-185321900D01*
X186100883Y-184893328D02*
X186243740Y-184893328D01*
X186243740Y-184893328D02*
X186386597Y-184964757D01*
X186386597Y-184964757D02*
X186458026Y-185036185D01*
X186458026Y-185036185D02*
X186529454Y-185179042D01*
X186529454Y-185179042D02*
X186600883Y-185464757D01*
X186600883Y-185464757D02*
X186600883Y-185821900D01*
X186600883Y-185821900D02*
X186529454Y-186107614D01*
X186529454Y-186107614D02*
X186458026Y-186250471D01*
X186458026Y-186250471D02*
X186386597Y-186321900D01*
X186386597Y-186321900D02*
X186243740Y-186393328D01*
X186243740Y-186393328D02*
X186100883Y-186393328D01*
X186100883Y-186393328D02*
X185958026Y-186321900D01*
X185958026Y-186321900D02*
X185886597Y-186250471D01*
X185886597Y-186250471D02*
X185815168Y-186107614D01*
X185815168Y-186107614D02*
X185743740Y-185821900D01*
X185743740Y-185821900D02*
X185743740Y-185464757D01*
X185743740Y-185464757D02*
X185815168Y-185179042D01*
X185815168Y-185179042D02*
X185886597Y-185036185D01*
X185886597Y-185036185D02*
X185958026Y-184964757D01*
X185958026Y-184964757D02*
X186100883Y-184893328D01*
X187243739Y-186393328D02*
X187243739Y-184893328D01*
X187386597Y-185821900D02*
X187815168Y-186393328D01*
X187815168Y-185393328D02*
X187243739Y-185964757D01*
X188458025Y-185821900D02*
X189600883Y-185821900D01*
X190315168Y-186393328D02*
X190315168Y-184893328D01*
X190315168Y-185607614D02*
X191172311Y-185607614D01*
X191172311Y-186393328D02*
X191172311Y-184893328D01*
X192100883Y-186393328D02*
X191958026Y-186321900D01*
X191958026Y-186321900D02*
X191886597Y-186250471D01*
X191886597Y-186250471D02*
X191815169Y-186107614D01*
X191815169Y-186107614D02*
X191815169Y-185679042D01*
X191815169Y-185679042D02*
X191886597Y-185536185D01*
X191886597Y-185536185D02*
X191958026Y-185464757D01*
X191958026Y-185464757D02*
X192100883Y-185393328D01*
X192100883Y-185393328D02*
X192315169Y-185393328D01*
X192315169Y-185393328D02*
X192458026Y-185464757D01*
X192458026Y-185464757D02*
X192529455Y-185536185D01*
X192529455Y-185536185D02*
X192600883Y-185679042D01*
X192600883Y-185679042D02*
X192600883Y-186107614D01*
X192600883Y-186107614D02*
X192529455Y-186250471D01*
X192529455Y-186250471D02*
X192458026Y-186321900D01*
X192458026Y-186321900D02*
X192315169Y-186393328D01*
X192315169Y-186393328D02*
X192100883Y-186393328D01*
X193886598Y-185393328D02*
X193886598Y-186393328D01*
X193243740Y-185393328D02*
X193243740Y-186179042D01*
X193243740Y-186179042D02*
X193315169Y-186321900D01*
X193315169Y-186321900D02*
X193458026Y-186393328D01*
X193458026Y-186393328D02*
X193672312Y-186393328D01*
X193672312Y-186393328D02*
X193815169Y-186321900D01*
X193815169Y-186321900D02*
X193886598Y-186250471D01*
X194600883Y-186393328D02*
X194600883Y-185393328D01*
X194600883Y-185679042D02*
X194672312Y-185536185D01*
X194672312Y-185536185D02*
X194743741Y-185464757D01*
X194743741Y-185464757D02*
X194886598Y-185393328D01*
X194886598Y-185393328D02*
X195029455Y-185393328D01*
X195529454Y-185821900D02*
X196672312Y-185821900D01*
X197172312Y-184893328D02*
X198029455Y-184893328D01*
X197600883Y-186393328D02*
X197600883Y-184893328D01*
X198529454Y-186393328D02*
X198529454Y-185393328D01*
X198529454Y-184893328D02*
X198458026Y-184964757D01*
X198458026Y-184964757D02*
X198529454Y-185036185D01*
X198529454Y-185036185D02*
X198600883Y-184964757D01*
X198600883Y-184964757D02*
X198529454Y-184893328D01*
X198529454Y-184893328D02*
X198529454Y-185036185D01*
X199243740Y-186393328D02*
X199243740Y-185393328D01*
X199243740Y-185536185D02*
X199315169Y-185464757D01*
X199315169Y-185464757D02*
X199458026Y-185393328D01*
X199458026Y-185393328D02*
X199672312Y-185393328D01*
X199672312Y-185393328D02*
X199815169Y-185464757D01*
X199815169Y-185464757D02*
X199886598Y-185607614D01*
X199886598Y-185607614D02*
X199886598Y-186393328D01*
X199886598Y-185607614D02*
X199958026Y-185464757D01*
X199958026Y-185464757D02*
X200100883Y-185393328D01*
X200100883Y-185393328D02*
X200315169Y-185393328D01*
X200315169Y-185393328D02*
X200458026Y-185464757D01*
X200458026Y-185464757D02*
X200529455Y-185607614D01*
X200529455Y-185607614D02*
X200529455Y-186393328D01*
X201815169Y-186321900D02*
X201672312Y-186393328D01*
X201672312Y-186393328D02*
X201386598Y-186393328D01*
X201386598Y-186393328D02*
X201243740Y-186321900D01*
X201243740Y-186321900D02*
X201172312Y-186179042D01*
X201172312Y-186179042D02*
X201172312Y-185607614D01*
X201172312Y-185607614D02*
X201243740Y-185464757D01*
X201243740Y-185464757D02*
X201386598Y-185393328D01*
X201386598Y-185393328D02*
X201672312Y-185393328D01*
X201672312Y-185393328D02*
X201815169Y-185464757D01*
X201815169Y-185464757D02*
X201886598Y-185607614D01*
X201886598Y-185607614D02*
X201886598Y-185750471D01*
X201886598Y-185750471D02*
X201172312Y-185893328D01*
X202529454Y-186393328D02*
X202529454Y-185393328D01*
X202529454Y-185679042D02*
X202600883Y-185536185D01*
X202600883Y-185536185D02*
X202672312Y-185464757D01*
X202672312Y-185464757D02*
X202815169Y-185393328D01*
X202815169Y-185393328D02*
X202958026Y-185393328D01*
X203458025Y-185821900D02*
X204600883Y-185821900D01*
X206172311Y-186393328D02*
X205672311Y-185679042D01*
X205315168Y-186393328D02*
X205315168Y-184893328D01*
X205315168Y-184893328D02*
X205886597Y-184893328D01*
X205886597Y-184893328D02*
X206029454Y-184964757D01*
X206029454Y-184964757D02*
X206100883Y-185036185D01*
X206100883Y-185036185D02*
X206172311Y-185179042D01*
X206172311Y-185179042D02*
X206172311Y-185393328D01*
X206172311Y-185393328D02*
X206100883Y-185536185D01*
X206100883Y-185536185D02*
X206029454Y-185607614D01*
X206029454Y-185607614D02*
X205886597Y-185679042D01*
X205886597Y-185679042D02*
X205315168Y-185679042D01*
X206815168Y-186393328D02*
X206815168Y-184893328D01*
X206815168Y-184893328D02*
X207386597Y-184893328D01*
X207386597Y-184893328D02*
X207529454Y-184964757D01*
X207529454Y-184964757D02*
X207600883Y-185036185D01*
X207600883Y-185036185D02*
X207672311Y-185179042D01*
X207672311Y-185179042D02*
X207672311Y-185393328D01*
X207672311Y-185393328D02*
X207600883Y-185536185D01*
X207600883Y-185536185D02*
X207529454Y-185607614D01*
X207529454Y-185607614D02*
X207386597Y-185679042D01*
X207386597Y-185679042D02*
X206815168Y-185679042D01*
X208243740Y-185036185D02*
X208315168Y-184964757D01*
X208315168Y-184964757D02*
X208458026Y-184893328D01*
X208458026Y-184893328D02*
X208815168Y-184893328D01*
X208815168Y-184893328D02*
X208958026Y-184964757D01*
X208958026Y-184964757D02*
X209029454Y-185036185D01*
X209029454Y-185036185D02*
X209100883Y-185179042D01*
X209100883Y-185179042D02*
X209100883Y-185321900D01*
X209100883Y-185321900D02*
X209029454Y-185536185D01*
X209029454Y-185536185D02*
X208172311Y-186393328D01*
X208172311Y-186393328D02*
X209100883Y-186393328D01*
X210029454Y-184893328D02*
X210172311Y-184893328D01*
X210172311Y-184893328D02*
X210315168Y-184964757D01*
X210315168Y-184964757D02*
X210386597Y-185036185D01*
X210386597Y-185036185D02*
X210458025Y-185179042D01*
X210458025Y-185179042D02*
X210529454Y-185464757D01*
X210529454Y-185464757D02*
X210529454Y-185821900D01*
X210529454Y-185821900D02*
X210458025Y-186107614D01*
X210458025Y-186107614D02*
X210386597Y-186250471D01*
X210386597Y-186250471D02*
X210315168Y-186321900D01*
X210315168Y-186321900D02*
X210172311Y-186393328D01*
X210172311Y-186393328D02*
X210029454Y-186393328D01*
X210029454Y-186393328D02*
X209886597Y-186321900D01*
X209886597Y-186321900D02*
X209815168Y-186250471D01*
X209815168Y-186250471D02*
X209743739Y-186107614D01*
X209743739Y-186107614D02*
X209672311Y-185821900D01*
X209672311Y-185821900D02*
X209672311Y-185464757D01*
X209672311Y-185464757D02*
X209743739Y-185179042D01*
X209743739Y-185179042D02*
X209815168Y-185036185D01*
X209815168Y-185036185D02*
X209886597Y-184964757D01*
X209886597Y-184964757D02*
X210029454Y-184893328D01*
X211815168Y-185393328D02*
X211815168Y-186393328D01*
X211458025Y-184821900D02*
X211100882Y-185893328D01*
X211100882Y-185893328D02*
X212029453Y-185893328D01*
X212886596Y-184893328D02*
X213029453Y-184893328D01*
X213029453Y-184893328D02*
X213172310Y-184964757D01*
X213172310Y-184964757D02*
X213243739Y-185036185D01*
X213243739Y-185036185D02*
X213315167Y-185179042D01*
X213315167Y-185179042D02*
X213386596Y-185464757D01*
X213386596Y-185464757D02*
X213386596Y-185821900D01*
X213386596Y-185821900D02*
X213315167Y-186107614D01*
X213315167Y-186107614D02*
X213243739Y-186250471D01*
X213243739Y-186250471D02*
X213172310Y-186321900D01*
X213172310Y-186321900D02*
X213029453Y-186393328D01*
X213029453Y-186393328D02*
X212886596Y-186393328D01*
X212886596Y-186393328D02*
X212743739Y-186321900D01*
X212743739Y-186321900D02*
X212672310Y-186250471D01*
X212672310Y-186250471D02*
X212600881Y-186107614D01*
X212600881Y-186107614D02*
X212529453Y-185821900D01*
X212529453Y-185821900D02*
X212529453Y-185464757D01*
X212529453Y-185464757D02*
X212600881Y-185179042D01*
X212600881Y-185179042D02*
X212672310Y-185036185D01*
X212672310Y-185036185D02*
X212743739Y-184964757D01*
X212743739Y-184964757D02*
X212886596Y-184893328D01*
X214029452Y-186250471D02*
X214100881Y-186321900D01*
X214100881Y-186321900D02*
X214029452Y-186393328D01*
X214029452Y-186393328D02*
X213958024Y-186321900D01*
X213958024Y-186321900D02*
X214029452Y-186250471D01*
X214029452Y-186250471D02*
X214029452Y-186393328D01*
X214743738Y-186393328D02*
X214743738Y-184893328D01*
X214886596Y-185821900D02*
X215315167Y-186393328D01*
X215315167Y-185393328D02*
X214743738Y-185964757D01*
X215958024Y-186393328D02*
X215958024Y-185393328D01*
X215958024Y-184893328D02*
X215886596Y-184964757D01*
X215886596Y-184964757D02*
X215958024Y-185036185D01*
X215958024Y-185036185D02*
X216029453Y-184964757D01*
X216029453Y-184964757D02*
X215958024Y-184893328D01*
X215958024Y-184893328D02*
X215958024Y-185036185D01*
X217315168Y-186321900D02*
X217172310Y-186393328D01*
X217172310Y-186393328D02*
X216886596Y-186393328D01*
X216886596Y-186393328D02*
X216743739Y-186321900D01*
X216743739Y-186321900D02*
X216672310Y-186250471D01*
X216672310Y-186250471D02*
X216600882Y-186107614D01*
X216600882Y-186107614D02*
X216600882Y-185679042D01*
X216600882Y-185679042D02*
X216672310Y-185536185D01*
X216672310Y-185536185D02*
X216743739Y-185464757D01*
X216743739Y-185464757D02*
X216886596Y-185393328D01*
X216886596Y-185393328D02*
X217172310Y-185393328D01*
X217172310Y-185393328D02*
X217315168Y-185464757D01*
X218600882Y-186393328D02*
X218600882Y-185607614D01*
X218600882Y-185607614D02*
X218529453Y-185464757D01*
X218529453Y-185464757D02*
X218386596Y-185393328D01*
X218386596Y-185393328D02*
X218100882Y-185393328D01*
X218100882Y-185393328D02*
X217958024Y-185464757D01*
X218600882Y-186321900D02*
X218458024Y-186393328D01*
X218458024Y-186393328D02*
X218100882Y-186393328D01*
X218100882Y-186393328D02*
X217958024Y-186321900D01*
X217958024Y-186321900D02*
X217886596Y-186179042D01*
X217886596Y-186179042D02*
X217886596Y-186036185D01*
X217886596Y-186036185D02*
X217958024Y-185893328D01*
X217958024Y-185893328D02*
X218100882Y-185821900D01*
X218100882Y-185821900D02*
X218458024Y-185821900D01*
X218458024Y-185821900D02*
X218600882Y-185750471D01*
X219958025Y-186393328D02*
X219958025Y-184893328D01*
X219958025Y-186321900D02*
X219815167Y-186393328D01*
X219815167Y-186393328D02*
X219529453Y-186393328D01*
X219529453Y-186393328D02*
X219386596Y-186321900D01*
X219386596Y-186321900D02*
X219315167Y-186250471D01*
X219315167Y-186250471D02*
X219243739Y-186107614D01*
X219243739Y-186107614D02*
X219243739Y-185679042D01*
X219243739Y-185679042D02*
X219315167Y-185536185D01*
X219315167Y-185536185D02*
X219386596Y-185464757D01*
X219386596Y-185464757D02*
X219529453Y-185393328D01*
X219529453Y-185393328D02*
X219815167Y-185393328D01*
X219815167Y-185393328D02*
X219958025Y-185464757D01*
X220315168Y-186536185D02*
X221458025Y-186536185D01*
X221815167Y-185393328D02*
X221815167Y-186893328D01*
X221815167Y-185464757D02*
X221958025Y-185393328D01*
X221958025Y-185393328D02*
X222243739Y-185393328D01*
X222243739Y-185393328D02*
X222386596Y-185464757D01*
X222386596Y-185464757D02*
X222458025Y-185536185D01*
X222458025Y-185536185D02*
X222529453Y-185679042D01*
X222529453Y-185679042D02*
X222529453Y-186107614D01*
X222529453Y-186107614D02*
X222458025Y-186250471D01*
X222458025Y-186250471D02*
X222386596Y-186321900D01*
X222386596Y-186321900D02*
X222243739Y-186393328D01*
X222243739Y-186393328D02*
X221958025Y-186393328D01*
X221958025Y-186393328D02*
X221815167Y-186321900D01*
X223815168Y-186321900D02*
X223672310Y-186393328D01*
X223672310Y-186393328D02*
X223386596Y-186393328D01*
X223386596Y-186393328D02*
X223243739Y-186321900D01*
X223243739Y-186321900D02*
X223172310Y-186250471D01*
X223172310Y-186250471D02*
X223100882Y-186107614D01*
X223100882Y-186107614D02*
X223100882Y-185679042D01*
X223100882Y-185679042D02*
X223172310Y-185536185D01*
X223172310Y-185536185D02*
X223243739Y-185464757D01*
X223243739Y-185464757D02*
X223386596Y-185393328D01*
X223386596Y-185393328D02*
X223672310Y-185393328D01*
X223672310Y-185393328D02*
X223815168Y-185464757D01*
X224458024Y-186393328D02*
X224458024Y-184893328D01*
X224458024Y-185464757D02*
X224600882Y-185393328D01*
X224600882Y-185393328D02*
X224886596Y-185393328D01*
X224886596Y-185393328D02*
X225029453Y-185464757D01*
X225029453Y-185464757D02*
X225100882Y-185536185D01*
X225100882Y-185536185D02*
X225172310Y-185679042D01*
X225172310Y-185679042D02*
X225172310Y-186107614D01*
X225172310Y-186107614D02*
X225100882Y-186250471D01*
X225100882Y-186250471D02*
X225029453Y-186321900D01*
X225029453Y-186321900D02*
X224886596Y-186393328D01*
X224886596Y-186393328D02*
X224600882Y-186393328D01*
X224600882Y-186393328D02*
X224458024Y-186321900D01*
D10*
D11*
X177002200Y-181507200D02*
X285002200Y-181507200D01*
D10*
D11*
X178386598Y-183621900D02*
X178600884Y-183693328D01*
X178600884Y-183693328D02*
X178958026Y-183693328D01*
X178958026Y-183693328D02*
X179100884Y-183621900D01*
X179100884Y-183621900D02*
X179172312Y-183550471D01*
X179172312Y-183550471D02*
X179243741Y-183407614D01*
X179243741Y-183407614D02*
X179243741Y-183264757D01*
X179243741Y-183264757D02*
X179172312Y-183121900D01*
X179172312Y-183121900D02*
X179100884Y-183050471D01*
X179100884Y-183050471D02*
X178958026Y-182979042D01*
X178958026Y-182979042D02*
X178672312Y-182907614D01*
X178672312Y-182907614D02*
X178529455Y-182836185D01*
X178529455Y-182836185D02*
X178458026Y-182764757D01*
X178458026Y-182764757D02*
X178386598Y-182621900D01*
X178386598Y-182621900D02*
X178386598Y-182479042D01*
X178386598Y-182479042D02*
X178458026Y-182336185D01*
X178458026Y-182336185D02*
X178529455Y-182264757D01*
X178529455Y-182264757D02*
X178672312Y-182193328D01*
X178672312Y-182193328D02*
X179029455Y-182193328D01*
X179029455Y-182193328D02*
X179243741Y-182264757D01*
X179886597Y-183693328D02*
X179886597Y-182193328D01*
X180529455Y-183693328D02*
X180529455Y-182907614D01*
X180529455Y-182907614D02*
X180458026Y-182764757D01*
X180458026Y-182764757D02*
X180315169Y-182693328D01*
X180315169Y-182693328D02*
X180100883Y-182693328D01*
X180100883Y-182693328D02*
X179958026Y-182764757D01*
X179958026Y-182764757D02*
X179886597Y-182836185D01*
X181815169Y-183621900D02*
X181672312Y-183693328D01*
X181672312Y-183693328D02*
X181386598Y-183693328D01*
X181386598Y-183693328D02*
X181243740Y-183621900D01*
X181243740Y-183621900D02*
X181172312Y-183479042D01*
X181172312Y-183479042D02*
X181172312Y-182907614D01*
X181172312Y-182907614D02*
X181243740Y-182764757D01*
X181243740Y-182764757D02*
X181386598Y-182693328D01*
X181386598Y-182693328D02*
X181672312Y-182693328D01*
X181672312Y-182693328D02*
X181815169Y-182764757D01*
X181815169Y-182764757D02*
X181886598Y-182907614D01*
X181886598Y-182907614D02*
X181886598Y-183050471D01*
X181886598Y-183050471D02*
X181172312Y-183193328D01*
X183100883Y-183621900D02*
X182958026Y-183693328D01*
X182958026Y-183693328D02*
X182672312Y-183693328D01*
X182672312Y-183693328D02*
X182529454Y-183621900D01*
X182529454Y-183621900D02*
X182458026Y-183479042D01*
X182458026Y-183479042D02*
X182458026Y-182907614D01*
X182458026Y-182907614D02*
X182529454Y-182764757D01*
X182529454Y-182764757D02*
X182672312Y-182693328D01*
X182672312Y-182693328D02*
X182958026Y-182693328D01*
X182958026Y-182693328D02*
X183100883Y-182764757D01*
X183100883Y-182764757D02*
X183172312Y-182907614D01*
X183172312Y-182907614D02*
X183172312Y-183050471D01*
X183172312Y-183050471D02*
X182458026Y-183193328D01*
X183600883Y-182693328D02*
X184172311Y-182693328D01*
X183815168Y-182193328D02*
X183815168Y-183479042D01*
X183815168Y-183479042D02*
X183886597Y-183621900D01*
X183886597Y-183621900D02*
X184029454Y-183693328D01*
X184029454Y-183693328D02*
X184172311Y-183693328D01*
X184672311Y-183550471D02*
X184743740Y-183621900D01*
X184743740Y-183621900D02*
X184672311Y-183693328D01*
X184672311Y-183693328D02*
X184600883Y-183621900D01*
X184600883Y-183621900D02*
X184672311Y-183550471D01*
X184672311Y-183550471D02*
X184672311Y-183693328D01*
X184672311Y-182764757D02*
X184743740Y-182836185D01*
X184743740Y-182836185D02*
X184672311Y-182907614D01*
X184672311Y-182907614D02*
X184600883Y-182836185D01*
X184600883Y-182836185D02*
X184672311Y-182764757D01*
X184672311Y-182764757D02*
X184672311Y-182907614D01*
D10*
D11*
X197002200Y-191507200D02*
X197002200Y-194507200D01*
D10*
D11*
X261002200Y-191507200D02*
X261002200Y-198007200D01*
G36*
X107542896Y-143255032D02*
G01*
X107553697Y-143255032D01*
X107617815Y-143263473D01*
X107793633Y-143283283D01*
X107828180Y-143291168D01*
X107858462Y-143295155D01*
X107932137Y-143314896D01*
X108050540Y-143341921D01*
X108107890Y-143361988D01*
X108155383Y-143374714D01*
X108215917Y-143399788D01*
X108299275Y-143428956D01*
X108378855Y-143467279D01*
X108439378Y-143492349D01*
X108481940Y-143516922D01*
X108536696Y-143543291D01*
X108639533Y-143607908D01*
X108705590Y-143646046D01*
X108729828Y-143664644D01*
X108759833Y-143683498D01*
X108898136Y-143793791D01*
X108949463Y-143833176D01*
X108957104Y-143840817D01*
X108965864Y-143847803D01*
X109152196Y-144034135D01*
X109159181Y-144042894D01*
X109166824Y-144050537D01*
X109206213Y-144101870D01*
X109316501Y-144240166D01*
X109335353Y-144270168D01*
X109353954Y-144294410D01*
X109392095Y-144360474D01*
X109456708Y-144463303D01*
X109483074Y-144518054D01*
X109507651Y-144560622D01*
X109532723Y-144621151D01*
X109571043Y-144700724D01*
X109600207Y-144784071D01*
X109625286Y-144844617D01*
X109638013Y-144892117D01*
X109658078Y-144949459D01*
X109685098Y-145067843D01*
X109704845Y-145141538D01*
X109708832Y-145171827D01*
X109716716Y-145206366D01*
X109736525Y-145382172D01*
X109744968Y-145446303D01*
X109744968Y-145457103D01*
X109746223Y-145468242D01*
X109746223Y-145731757D01*
X109744968Y-145742895D01*
X109744968Y-145753697D01*
X109736524Y-145817833D01*
X109716716Y-145993633D01*
X109708832Y-146028170D01*
X109704845Y-146058462D01*
X109685097Y-146132162D01*
X109658078Y-146250540D01*
X109638014Y-146307878D01*
X109625286Y-146355383D01*
X109600205Y-146415933D01*
X109571043Y-146499275D01*
X109532726Y-146578841D01*
X109507651Y-146639378D01*
X109483071Y-146681950D01*
X109456708Y-146736696D01*
X109392103Y-146839513D01*
X109353954Y-146905590D01*
X109335349Y-146929835D01*
X109316501Y-146959833D01*
X109206233Y-147098103D01*
X109166824Y-147149463D01*
X109159177Y-147157109D01*
X109152196Y-147165864D01*
X108965864Y-147352196D01*
X108957109Y-147359177D01*
X108949463Y-147366824D01*
X108898103Y-147406233D01*
X108759833Y-147516501D01*
X108729835Y-147535349D01*
X108705590Y-147553954D01*
X108639513Y-147592103D01*
X108536696Y-147656708D01*
X108481950Y-147683071D01*
X108439378Y-147707651D01*
X108378841Y-147732726D01*
X108299275Y-147771043D01*
X108215933Y-147800205D01*
X108155383Y-147825286D01*
X108107878Y-147838014D01*
X108050540Y-147858078D01*
X107932162Y-147885097D01*
X107858462Y-147904845D01*
X107828170Y-147908832D01*
X107793633Y-147916716D01*
X107617833Y-147936524D01*
X107553697Y-147944968D01*
X107542895Y-147944968D01*
X107531757Y-147946223D01*
X107268243Y-147946223D01*
X107257105Y-147944968D01*
X107246303Y-147944968D01*
X107182168Y-147936524D01*
X107006366Y-147916716D01*
X106971827Y-147908832D01*
X106941538Y-147904845D01*
X106867843Y-147885098D01*
X106749459Y-147858078D01*
X106692117Y-147838013D01*
X106644617Y-147825286D01*
X106584071Y-147800207D01*
X106500724Y-147771043D01*
X106421151Y-147732723D01*
X106360622Y-147707651D01*
X106318054Y-147683074D01*
X106263303Y-147656708D01*
X106160474Y-147592095D01*
X106094410Y-147553954D01*
X106070168Y-147535353D01*
X106040166Y-147516501D01*
X105901870Y-147406213D01*
X105850537Y-147366824D01*
X105842894Y-147359181D01*
X105834135Y-147352196D01*
X105647803Y-147165864D01*
X105640817Y-147157104D01*
X105633176Y-147149463D01*
X105593791Y-147098136D01*
X105483498Y-146959833D01*
X105464644Y-146929828D01*
X105446046Y-146905590D01*
X105407908Y-146839533D01*
X105343291Y-146736696D01*
X105316922Y-146681940D01*
X105292349Y-146639378D01*
X105267279Y-146578855D01*
X105228956Y-146499275D01*
X105199788Y-146415917D01*
X105174714Y-146355383D01*
X105161988Y-146307890D01*
X105141921Y-146250540D01*
X105114896Y-146132137D01*
X105095155Y-146058462D01*
X105091168Y-146028180D01*
X105083283Y-145993633D01*
X105063473Y-145817815D01*
X105055032Y-145753697D01*
X105055032Y-145742895D01*
X105053777Y-145731757D01*
X105053777Y-145468242D01*
X105055032Y-145457103D01*
X105055032Y-145446303D01*
X105063472Y-145382190D01*
X105083283Y-145206366D01*
X105091168Y-145171816D01*
X105095155Y-145141538D01*
X105114894Y-145067868D01*
X105141921Y-144949459D01*
X105161989Y-144892105D01*
X105174714Y-144844617D01*
X105199786Y-144784087D01*
X105228956Y-144700724D01*
X105267282Y-144621136D01*
X105292349Y-144560622D01*
X105316919Y-144518064D01*
X105343291Y-144463303D01*
X105407915Y-144360454D01*
X105446046Y-144294410D01*
X105464641Y-144270175D01*
X105483498Y-144240166D01*
X105593811Y-144101837D01*
X105633176Y-144050537D01*
X105640813Y-144042899D01*
X105647803Y-144034135D01*
X105834135Y-143847803D01*
X105842899Y-143840813D01*
X105850537Y-143833176D01*
X105901837Y-143793811D01*
X106040166Y-143683498D01*
X106070175Y-143664641D01*
X106094410Y-143646046D01*
X106160454Y-143607915D01*
X106263303Y-143543291D01*
X106318064Y-143516919D01*
X106360622Y-143492349D01*
X106421136Y-143467282D01*
X106500724Y-143428956D01*
X106584087Y-143399786D01*
X106644617Y-143374714D01*
X106692105Y-143361989D01*
X106749459Y-143341921D01*
X106867868Y-143314894D01*
X106941538Y-143295155D01*
X106971816Y-143291168D01*
X107006366Y-143283283D01*
X107182186Y-143263473D01*
X107246303Y-143255032D01*
X107257104Y-143255032D01*
X107268243Y-143253777D01*
X107531757Y-143253777D01*
X107542896Y-143255032D01*
G37*
G36*
X200742896Y-143255032D02*
G01*
X200753697Y-143255032D01*
X200817815Y-143263473D01*
X200993633Y-143283283D01*
X201028180Y-143291168D01*
X201058462Y-143295155D01*
X201132137Y-143314896D01*
X201250540Y-143341921D01*
X201307890Y-143361988D01*
X201355383Y-143374714D01*
X201415917Y-143399788D01*
X201499275Y-143428956D01*
X201578855Y-143467279D01*
X201639378Y-143492349D01*
X201681940Y-143516922D01*
X201736696Y-143543291D01*
X201839533Y-143607908D01*
X201905590Y-143646046D01*
X201929828Y-143664644D01*
X201959833Y-143683498D01*
X202098136Y-143793791D01*
X202149463Y-143833176D01*
X202157104Y-143840817D01*
X202165864Y-143847803D01*
X202352196Y-144034135D01*
X202359181Y-144042894D01*
X202366824Y-144050537D01*
X202406213Y-144101870D01*
X202516501Y-144240166D01*
X202535353Y-144270168D01*
X202553954Y-144294410D01*
X202592095Y-144360474D01*
X202656708Y-144463303D01*
X202683074Y-144518054D01*
X202707651Y-144560622D01*
X202732723Y-144621151D01*
X202771043Y-144700724D01*
X202800207Y-144784071D01*
X202825286Y-144844617D01*
X202838013Y-144892117D01*
X202858078Y-144949459D01*
X202885098Y-145067843D01*
X202904845Y-145141538D01*
X202908832Y-145171827D01*
X202916716Y-145206366D01*
X202936525Y-145382172D01*
X202944968Y-145446303D01*
X202944968Y-145457103D01*
X202946223Y-145468242D01*
X202946223Y-145731757D01*
X202944968Y-145742895D01*
X202944968Y-145753697D01*
X202936524Y-145817833D01*
X202916716Y-145993633D01*
X202908832Y-146028170D01*
X202904845Y-146058462D01*
X202885097Y-146132162D01*
X202858078Y-146250540D01*
X202838014Y-146307878D01*
X202825286Y-146355383D01*
X202800205Y-146415933D01*
X202771043Y-146499275D01*
X202732726Y-146578841D01*
X202707651Y-146639378D01*
X202683071Y-146681950D01*
X202656708Y-146736696D01*
X202592103Y-146839513D01*
X202553954Y-146905590D01*
X202535349Y-146929835D01*
X202516501Y-146959833D01*
X202406233Y-147098103D01*
X202366824Y-147149463D01*
X202359177Y-147157109D01*
X202352196Y-147165864D01*
X202165864Y-147352196D01*
X202157109Y-147359177D01*
X202149463Y-147366824D01*
X202098103Y-147406233D01*
X201959833Y-147516501D01*
X201929835Y-147535349D01*
X201905590Y-147553954D01*
X201839513Y-147592103D01*
X201736696Y-147656708D01*
X201681950Y-147683071D01*
X201639378Y-147707651D01*
X201578841Y-147732726D01*
X201499275Y-147771043D01*
X201415933Y-147800205D01*
X201355383Y-147825286D01*
X201307878Y-147838014D01*
X201250540Y-147858078D01*
X201132162Y-147885097D01*
X201058462Y-147904845D01*
X201028170Y-147908832D01*
X200993633Y-147916716D01*
X200817833Y-147936524D01*
X200753697Y-147944968D01*
X200742895Y-147944968D01*
X200731757Y-147946223D01*
X200468243Y-147946223D01*
X200457105Y-147944968D01*
X200446303Y-147944968D01*
X200382168Y-147936524D01*
X200206366Y-147916716D01*
X200171827Y-147908832D01*
X200141538Y-147904845D01*
X200067843Y-147885098D01*
X199949459Y-147858078D01*
X199892117Y-147838013D01*
X199844617Y-147825286D01*
X199784071Y-147800207D01*
X199700724Y-147771043D01*
X199621151Y-147732723D01*
X199560622Y-147707651D01*
X199518054Y-147683074D01*
X199463303Y-147656708D01*
X199360474Y-147592095D01*
X199294410Y-147553954D01*
X199270168Y-147535353D01*
X199240166Y-147516501D01*
X199101870Y-147406213D01*
X199050537Y-147366824D01*
X199042894Y-147359181D01*
X199034135Y-147352196D01*
X198847803Y-147165864D01*
X198840817Y-147157104D01*
X198833176Y-147149463D01*
X198793791Y-147098136D01*
X198683498Y-146959833D01*
X198664644Y-146929828D01*
X198646046Y-146905590D01*
X198607908Y-146839533D01*
X198543291Y-146736696D01*
X198516922Y-146681940D01*
X198492349Y-146639378D01*
X198467279Y-146578855D01*
X198428956Y-146499275D01*
X198399788Y-146415917D01*
X198374714Y-146355383D01*
X198361988Y-146307890D01*
X198341921Y-146250540D01*
X198314896Y-146132137D01*
X198295155Y-146058462D01*
X198291168Y-146028180D01*
X198283283Y-145993633D01*
X198263473Y-145817815D01*
X198255032Y-145753697D01*
X198255032Y-145742895D01*
X198253777Y-145731757D01*
X198253777Y-145468242D01*
X198255032Y-145457103D01*
X198255032Y-145446303D01*
X198263472Y-145382190D01*
X198283283Y-145206366D01*
X198291168Y-145171816D01*
X198295155Y-145141538D01*
X198314894Y-145067868D01*
X198341921Y-144949459D01*
X198361989Y-144892105D01*
X198374714Y-144844617D01*
X198399786Y-144784087D01*
X198428956Y-144700724D01*
X198467282Y-144621136D01*
X198492349Y-144560622D01*
X198516919Y-144518064D01*
X198543291Y-144463303D01*
X198607915Y-144360454D01*
X198646046Y-144294410D01*
X198664641Y-144270175D01*
X198683498Y-144240166D01*
X198793811Y-144101837D01*
X198833176Y-144050537D01*
X198840813Y-144042899D01*
X198847803Y-144034135D01*
X199034135Y-143847803D01*
X199042899Y-143840813D01*
X199050537Y-143833176D01*
X199101837Y-143793811D01*
X199240166Y-143683498D01*
X199270175Y-143664641D01*
X199294410Y-143646046D01*
X199360454Y-143607915D01*
X199463303Y-143543291D01*
X199518064Y-143516919D01*
X199560622Y-143492349D01*
X199621136Y-143467282D01*
X199700724Y-143428956D01*
X199784087Y-143399786D01*
X199844617Y-143374714D01*
X199892105Y-143361989D01*
X199949459Y-143341921D01*
X200067868Y-143314894D01*
X200141538Y-143295155D01*
X200171816Y-143291168D01*
X200206366Y-143283283D01*
X200382186Y-143263473D01*
X200446303Y-143255032D01*
X200457104Y-143255032D01*
X200468243Y-143253777D01*
X200731757Y-143253777D01*
X200742896Y-143255032D01*
G37*
G36*
X149485285Y-144338060D02*
G01*
X149666397Y-144413079D01*
X149829393Y-144521990D01*
X149968010Y-144660607D01*
X150076921Y-144823603D01*
X150151940Y-145004715D01*
X150190185Y-145196983D01*
X150190185Y-145393017D01*
X150151940Y-145585285D01*
X150076921Y-145766397D01*
X149968010Y-145929393D01*
X149829393Y-146068010D01*
X149666397Y-146176921D01*
X149485285Y-146251940D01*
X149293017Y-146290185D01*
X149096983Y-146290185D01*
X148904715Y-146251940D01*
X148723603Y-146176921D01*
X148560607Y-146068010D01*
X148421990Y-145929393D01*
X148313079Y-145766397D01*
X148238060Y-145585285D01*
X148199815Y-145393017D01*
X148199815Y-145196983D01*
X148238060Y-145004715D01*
X148313079Y-144823603D01*
X148421990Y-144660607D01*
X148560607Y-144521990D01*
X148723603Y-144413079D01*
X148904715Y-144338060D01*
X149096983Y-144299815D01*
X149293017Y-144299815D01*
X149485285Y-144338060D01*
G37*
G36*
X152660285Y-144338060D02*
G01*
X152841397Y-144413079D01*
X153004393Y-144521990D01*
X153143010Y-144660607D01*
X153251921Y-144823603D01*
X153326940Y-145004715D01*
X153365185Y-145196983D01*
X153365185Y-145393017D01*
X153326940Y-145585285D01*
X153251921Y-145766397D01*
X153143010Y-145929393D01*
X153004393Y-146068010D01*
X152841397Y-146176921D01*
X152660285Y-146251940D01*
X152468017Y-146290185D01*
X152271983Y-146290185D01*
X152079715Y-146251940D01*
X151898603Y-146176921D01*
X151735607Y-146068010D01*
X151596990Y-145929393D01*
X151488079Y-145766397D01*
X151413060Y-145585285D01*
X151374815Y-145393017D01*
X151374815Y-145196983D01*
X151413060Y-145004715D01*
X151488079Y-144823603D01*
X151596990Y-144660607D01*
X151735607Y-144521990D01*
X151898603Y-144413079D01*
X152079715Y-144338060D01*
X152271983Y-144299815D01*
X152468017Y-144299815D01*
X152660285Y-144338060D01*
G37*
G36*
X155835285Y-144338060D02*
G01*
X156016397Y-144413079D01*
X156179393Y-144521990D01*
X156318010Y-144660607D01*
X156426921Y-144823603D01*
X156501940Y-145004715D01*
X156540185Y-145196983D01*
X156540185Y-145393017D01*
X156501940Y-145585285D01*
X156426921Y-145766397D01*
X156318010Y-145929393D01*
X156179393Y-146068010D01*
X156016397Y-146176921D01*
X155835285Y-146251940D01*
X155643017Y-146290185D01*
X155446983Y-146290185D01*
X155254715Y-146251940D01*
X155073603Y-146176921D01*
X154910607Y-146068010D01*
X154771990Y-145929393D01*
X154663079Y-145766397D01*
X154588060Y-145585285D01*
X154549815Y-145393017D01*
X154549815Y-145196983D01*
X154588060Y-145004715D01*
X154663079Y-144823603D01*
X154771990Y-144660607D01*
X154910607Y-144521990D01*
X155073603Y-144413079D01*
X155254715Y-144338060D01*
X155446983Y-144299815D01*
X155643017Y-144299815D01*
X155835285Y-144338060D01*
G37*
G36*
X159010285Y-144338060D02*
G01*
X159191397Y-144413079D01*
X159354393Y-144521990D01*
X159493010Y-144660607D01*
X159601921Y-144823603D01*
X159676940Y-145004715D01*
X159715185Y-145196983D01*
X159715185Y-145393017D01*
X159676940Y-145585285D01*
X159601921Y-145766397D01*
X159493010Y-145929393D01*
X159354393Y-146068010D01*
X159191397Y-146176921D01*
X159010285Y-146251940D01*
X158818017Y-146290185D01*
X158621983Y-146290185D01*
X158429715Y-146251940D01*
X158248603Y-146176921D01*
X158085607Y-146068010D01*
X157946990Y-145929393D01*
X157838079Y-145766397D01*
X157763060Y-145585285D01*
X157724815Y-145393017D01*
X157724815Y-145196983D01*
X157763060Y-145004715D01*
X157838079Y-144823603D01*
X157946990Y-144660607D01*
X158085607Y-144521990D01*
X158248603Y-144413079D01*
X158429715Y-144338060D01*
X158621983Y-144299815D01*
X158818017Y-144299815D01*
X159010285Y-144338060D01*
G37*
G36*
X164725285Y-144048060D02*
G01*
X164906397Y-144123079D01*
X165069393Y-144231990D01*
X165208010Y-144370607D01*
X165316921Y-144533603D01*
X165391940Y-144714715D01*
X165430185Y-144906983D01*
X165430185Y-145103017D01*
X165391940Y-145295285D01*
X165316921Y-145476397D01*
X165208010Y-145639393D01*
X165069393Y-145778010D01*
X164906397Y-145886921D01*
X164725285Y-145961940D01*
X164533017Y-146000185D01*
X164336983Y-146000185D01*
X164144715Y-145961940D01*
X163963603Y-145886921D01*
X163800607Y-145778010D01*
X163661990Y-145639393D01*
X163553079Y-145476397D01*
X163478060Y-145295285D01*
X163439815Y-145103017D01*
X163439815Y-144906983D01*
X163478060Y-144714715D01*
X163553079Y-144533603D01*
X163661990Y-144370607D01*
X163800607Y-144231990D01*
X163963603Y-144123079D01*
X164144715Y-144048060D01*
X164336983Y-144009815D01*
X164533017Y-144009815D01*
X164725285Y-144048060D01*
G37*
G36*
X171225285Y-144048060D02*
G01*
X171406397Y-144123079D01*
X171569393Y-144231990D01*
X171708010Y-144370607D01*
X171816921Y-144533603D01*
X171891940Y-144714715D01*
X171930185Y-144906983D01*
X171930185Y-145103017D01*
X171891940Y-145295285D01*
X171816921Y-145476397D01*
X171708010Y-145639393D01*
X171569393Y-145778010D01*
X171406397Y-145886921D01*
X171225285Y-145961940D01*
X171033017Y-146000185D01*
X170836983Y-146000185D01*
X170644715Y-145961940D01*
X170463603Y-145886921D01*
X170300607Y-145778010D01*
X170161990Y-145639393D01*
X170053079Y-145476397D01*
X169978060Y-145295285D01*
X169939815Y-145103017D01*
X169939815Y-144906983D01*
X169978060Y-144714715D01*
X170053079Y-144533603D01*
X170161990Y-144370607D01*
X170300607Y-144231990D01*
X170463603Y-144123079D01*
X170644715Y-144048060D01*
X170836983Y-144009815D01*
X171033017Y-144009815D01*
X171225285Y-144048060D01*
G37*
G36*
X175445285Y-144048060D02*
G01*
X175626397Y-144123079D01*
X175789393Y-144231990D01*
X175928010Y-144370607D01*
X176036921Y-144533603D01*
X176111940Y-144714715D01*
X176150185Y-144906983D01*
X176150185Y-145103017D01*
X176111940Y-145295285D01*
X176036921Y-145476397D01*
X175928010Y-145639393D01*
X175789393Y-145778010D01*
X175626397Y-145886921D01*
X175445285Y-145961940D01*
X175253017Y-146000185D01*
X175056983Y-146000185D01*
X174864715Y-145961940D01*
X174683603Y-145886921D01*
X174520607Y-145778010D01*
X174381990Y-145639393D01*
X174273079Y-145476397D01*
X174198060Y-145295285D01*
X174159815Y-145103017D01*
X174159815Y-144906983D01*
X174198060Y-144714715D01*
X174273079Y-144533603D01*
X174381990Y-144370607D01*
X174520607Y-144231990D01*
X174683603Y-144123079D01*
X174864715Y-144048060D01*
X175056983Y-144009815D01*
X175253017Y-144009815D01*
X175445285Y-144048060D01*
G37*
G36*
X181945285Y-144048060D02*
G01*
X182126397Y-144123079D01*
X182289393Y-144231990D01*
X182428010Y-144370607D01*
X182536921Y-144533603D01*
X182611940Y-144714715D01*
X182650185Y-144906983D01*
X182650185Y-145103017D01*
X182611940Y-145295285D01*
X182536921Y-145476397D01*
X182428010Y-145639393D01*
X182289393Y-145778010D01*
X182126397Y-145886921D01*
X181945285Y-145961940D01*
X181753017Y-146000185D01*
X181556983Y-146000185D01*
X181364715Y-145961940D01*
X181183603Y-145886921D01*
X181020607Y-145778010D01*
X180881990Y-145639393D01*
X180773079Y-145476397D01*
X180698060Y-145295285D01*
X180659815Y-145103017D01*
X180659815Y-144906983D01*
X180698060Y-144714715D01*
X180773079Y-144533603D01*
X180881990Y-144370607D01*
X181020607Y-144231990D01*
X181183603Y-144123079D01*
X181364715Y-144048060D01*
X181556983Y-144009815D01*
X181753017Y-144009815D01*
X181945285Y-144048060D01*
G37*
G36*
X125240285Y-143893060D02*
G01*
X125421397Y-143968079D01*
X125584393Y-144076990D01*
X125723010Y-144215607D01*
X125831921Y-144378603D01*
X125906940Y-144559715D01*
X125945185Y-144751983D01*
X125945185Y-144948017D01*
X125906940Y-145140285D01*
X125831921Y-145321397D01*
X125723010Y-145484393D01*
X125584393Y-145623010D01*
X125421397Y-145731921D01*
X125240285Y-145806940D01*
X125048017Y-145845185D01*
X124851983Y-145845185D01*
X124659715Y-145806940D01*
X124478603Y-145731921D01*
X124315607Y-145623010D01*
X124176990Y-145484393D01*
X124068079Y-145321397D01*
X123993060Y-145140285D01*
X123954815Y-144948017D01*
X123954815Y-144751983D01*
X123993060Y-144559715D01*
X124068079Y-144378603D01*
X124176990Y-144215607D01*
X124315607Y-144076990D01*
X124478603Y-143968079D01*
X124659715Y-143893060D01*
X124851983Y-143854815D01*
X125048017Y-143854815D01*
X125240285Y-143893060D01*
G37*
G36*
X131740285Y-143893060D02*
G01*
X131921397Y-143968079D01*
X132084393Y-144076990D01*
X132223010Y-144215607D01*
X132331921Y-144378603D01*
X132406940Y-144559715D01*
X132445185Y-144751983D01*
X132445185Y-144948017D01*
X132406940Y-145140285D01*
X132331921Y-145321397D01*
X132223010Y-145484393D01*
X132084393Y-145623010D01*
X131921397Y-145731921D01*
X131740285Y-145806940D01*
X131548017Y-145845185D01*
X131351983Y-145845185D01*
X131159715Y-145806940D01*
X130978603Y-145731921D01*
X130815607Y-145623010D01*
X130676990Y-145484393D01*
X130568079Y-145321397D01*
X130493060Y-145140285D01*
X130454815Y-144948017D01*
X130454815Y-144751983D01*
X130493060Y-144559715D01*
X130568079Y-144378603D01*
X130676990Y-144215607D01*
X130815607Y-144076990D01*
X130978603Y-143968079D01*
X131159715Y-143893060D01*
X131351983Y-143854815D01*
X131548017Y-143854815D01*
X131740285Y-143893060D01*
G37*
G36*
X135640285Y-143893060D02*
G01*
X135821397Y-143968079D01*
X135984393Y-144076990D01*
X136123010Y-144215607D01*
X136231921Y-144378603D01*
X136306940Y-144559715D01*
X136345185Y-144751983D01*
X136345185Y-144948017D01*
X136306940Y-145140285D01*
X136231921Y-145321397D01*
X136123010Y-145484393D01*
X135984393Y-145623010D01*
X135821397Y-145731921D01*
X135640285Y-145806940D01*
X135448017Y-145845185D01*
X135251983Y-145845185D01*
X135059715Y-145806940D01*
X134878603Y-145731921D01*
X134715607Y-145623010D01*
X134576990Y-145484393D01*
X134468079Y-145321397D01*
X134393060Y-145140285D01*
X134354815Y-144948017D01*
X134354815Y-144751983D01*
X134393060Y-144559715D01*
X134468079Y-144378603D01*
X134576990Y-144215607D01*
X134715607Y-144076990D01*
X134878603Y-143968079D01*
X135059715Y-143893060D01*
X135251983Y-143854815D01*
X135448017Y-143854815D01*
X135640285Y-143893060D01*
G37*
G36*
X142140285Y-143893060D02*
G01*
X142321397Y-143968079D01*
X142484393Y-144076990D01*
X142623010Y-144215607D01*
X142731921Y-144378603D01*
X142806940Y-144559715D01*
X142845185Y-144751983D01*
X142845185Y-144948017D01*
X142806940Y-145140285D01*
X142731921Y-145321397D01*
X142623010Y-145484393D01*
X142484393Y-145623010D01*
X142321397Y-145731921D01*
X142140285Y-145806940D01*
X141948017Y-145845185D01*
X141751983Y-145845185D01*
X141559715Y-145806940D01*
X141378603Y-145731921D01*
X141215607Y-145623010D01*
X141076990Y-145484393D01*
X140968079Y-145321397D01*
X140893060Y-145140285D01*
X140854815Y-144948017D01*
X140854815Y-144751983D01*
X140893060Y-144559715D01*
X140968079Y-144378603D01*
X141076990Y-144215607D01*
X141215607Y-144076990D01*
X141378603Y-143968079D01*
X141559715Y-143893060D01*
X141751983Y-143854815D01*
X141948017Y-143854815D01*
X142140285Y-143893060D01*
G37*
G36*
X190824116Y-142515818D02*
G01*
X190875379Y-142521766D01*
X190892892Y-142529499D01*
X190915671Y-142534030D01*
X190940057Y-142550324D01*
X190960788Y-142559478D01*
X190974946Y-142573636D01*
X190996777Y-142588223D01*
X191011363Y-142610053D01*
X191025521Y-142624211D01*
X191034673Y-142644939D01*
X191050970Y-142669329D01*
X191055501Y-142692109D01*
X191063233Y-142709620D01*
X191069178Y-142760872D01*
X191070000Y-142765000D01*
X191070000Y-144015000D01*
X191069178Y-144019128D01*
X191063233Y-144070379D01*
X191055501Y-144087888D01*
X191050970Y-144110671D01*
X191034672Y-144135062D01*
X191025521Y-144155788D01*
X191011365Y-144169943D01*
X190996777Y-144191777D01*
X190974943Y-144206365D01*
X190960788Y-144220521D01*
X190940062Y-144229672D01*
X190915671Y-144245970D01*
X190892888Y-144250501D01*
X190875379Y-144258233D01*
X190824129Y-144264178D01*
X190820000Y-144265000D01*
X190120000Y-144265000D01*
X190115873Y-144264179D01*
X190064620Y-144258233D01*
X190047109Y-144250501D01*
X190024329Y-144245970D01*
X189999939Y-144229673D01*
X189979211Y-144220521D01*
X189965053Y-144206363D01*
X189943223Y-144191777D01*
X189928636Y-144169946D01*
X189914478Y-144155788D01*
X189905324Y-144135057D01*
X189889030Y-144110671D01*
X189884499Y-144087892D01*
X189876766Y-144070379D01*
X189870818Y-144019117D01*
X189870000Y-144015000D01*
X189870000Y-142765000D01*
X189870818Y-142760885D01*
X189876766Y-142709620D01*
X189884499Y-142692105D01*
X189889030Y-142669329D01*
X189905323Y-142644944D01*
X189914478Y-142624211D01*
X189928638Y-142610050D01*
X189943223Y-142588223D01*
X189965050Y-142573638D01*
X189979211Y-142559478D01*
X189999944Y-142550323D01*
X190024329Y-142534030D01*
X190047105Y-142529499D01*
X190064620Y-142521766D01*
X190115884Y-142515818D01*
X190120000Y-142515000D01*
X190820000Y-142515000D01*
X190824116Y-142515818D01*
G37*
G36*
X192538836Y-142520133D02*
G01*
X192548316Y-142520133D01*
X192575623Y-142527449D01*
X192644100Y-142541070D01*
X192676423Y-142554459D01*
X192699610Y-142560672D01*
X192720401Y-142572676D01*
X192752722Y-142586064D01*
X192810770Y-142624850D01*
X192835257Y-142638988D01*
X192841959Y-142645690D01*
X192850482Y-142651385D01*
X192933614Y-142734517D01*
X192939308Y-142743039D01*
X192946012Y-142749743D01*
X192960151Y-142774233D01*
X192998935Y-142832277D01*
X193012321Y-142864594D01*
X193024328Y-142885390D01*
X193030541Y-142908580D01*
X193043929Y-142940899D01*
X193057547Y-143009366D01*
X193064867Y-143036684D01*
X193065794Y-143050827D01*
X193067110Y-143057444D01*
X193069754Y-143111250D01*
X193070000Y-143115000D01*
X193070000Y-143665000D01*
X193069754Y-143668752D01*
X193067110Y-143722555D01*
X193065794Y-143729170D01*
X193064867Y-143743316D01*
X193057546Y-143770636D01*
X193043929Y-143839100D01*
X193030542Y-143871416D01*
X193024328Y-143894610D01*
X193012320Y-143915407D01*
X192998935Y-143947722D01*
X192960155Y-144005759D01*
X192946012Y-144030257D01*
X192939306Y-144036962D01*
X192933614Y-144045482D01*
X192850482Y-144128614D01*
X192841962Y-144134306D01*
X192835257Y-144141012D01*
X192810759Y-144155155D01*
X192752722Y-144193935D01*
X192720407Y-144207320D01*
X192699610Y-144219328D01*
X192676416Y-144225542D01*
X192644100Y-144238929D01*
X192575629Y-144252548D01*
X192548316Y-144259867D01*
X192538836Y-144259867D01*
X192528786Y-144261866D01*
X192411214Y-144261866D01*
X192401164Y-144259867D01*
X192391684Y-144259867D01*
X192364371Y-144252548D01*
X192295899Y-144238929D01*
X192263580Y-144225541D01*
X192240390Y-144219328D01*
X192219594Y-144207321D01*
X192187277Y-144193935D01*
X192129233Y-144155151D01*
X192104743Y-144141012D01*
X192098039Y-144134308D01*
X192089517Y-144128614D01*
X192006385Y-144045482D01*
X192000690Y-144036959D01*
X191993988Y-144030257D01*
X191979850Y-144005770D01*
X191941064Y-143947722D01*
X191927676Y-143915401D01*
X191915672Y-143894610D01*
X191909459Y-143871423D01*
X191896070Y-143839100D01*
X191882449Y-143770622D01*
X191875133Y-143743316D01*
X191874206Y-143729178D01*
X191872889Y-143722555D01*
X191870245Y-143668746D01*
X191870000Y-143665000D01*
X191870000Y-143115000D01*
X191870245Y-143111256D01*
X191872889Y-143057444D01*
X191874206Y-143050820D01*
X191875133Y-143036684D01*
X191882448Y-143009380D01*
X191896070Y-142940899D01*
X191909459Y-142908573D01*
X191915672Y-142885390D01*
X191927674Y-142864600D01*
X191941064Y-142832277D01*
X191979854Y-142774222D01*
X191993988Y-142749743D01*
X192000688Y-142743042D01*
X192006385Y-142734517D01*
X192089517Y-142651385D01*
X192098042Y-142645688D01*
X192104743Y-142638988D01*
X192129222Y-142624854D01*
X192187277Y-142586064D01*
X192219600Y-142572674D01*
X192240390Y-142560672D01*
X192263573Y-142554459D01*
X192295899Y-142541070D01*
X192364377Y-142527449D01*
X192391684Y-142520133D01*
X192401164Y-142520133D01*
X192411214Y-142518134D01*
X192528786Y-142518134D01*
X192538836Y-142520133D01*
G37*
G36*
X164725285Y-139548060D02*
G01*
X164906397Y-139623079D01*
X165069393Y-139731990D01*
X165208010Y-139870607D01*
X165316921Y-140033603D01*
X165391940Y-140214715D01*
X165430185Y-140406983D01*
X165430185Y-140603017D01*
X165391940Y-140795285D01*
X165316921Y-140976397D01*
X165208010Y-141139393D01*
X165069393Y-141278010D01*
X164906397Y-141386921D01*
X164725285Y-141461940D01*
X164533017Y-141500185D01*
X164336983Y-141500185D01*
X164144715Y-141461940D01*
X163963603Y-141386921D01*
X163800607Y-141278010D01*
X163661990Y-141139393D01*
X163553079Y-140976397D01*
X163478060Y-140795285D01*
X163439815Y-140603017D01*
X163439815Y-140406983D01*
X163478060Y-140214715D01*
X163553079Y-140033603D01*
X163661990Y-139870607D01*
X163800607Y-139731990D01*
X163963603Y-139623079D01*
X164144715Y-139548060D01*
X164336983Y-139509815D01*
X164533017Y-139509815D01*
X164725285Y-139548060D01*
G37*
G36*
X171225285Y-139548060D02*
G01*
X171406397Y-139623079D01*
X171569393Y-139731990D01*
X171708010Y-139870607D01*
X171816921Y-140033603D01*
X171891940Y-140214715D01*
X171930185Y-140406983D01*
X171930185Y-140603017D01*
X171891940Y-140795285D01*
X171816921Y-140976397D01*
X171708010Y-141139393D01*
X171569393Y-141278010D01*
X171406397Y-141386921D01*
X171225285Y-141461940D01*
X171033017Y-141500185D01*
X170836983Y-141500185D01*
X170644715Y-141461940D01*
X170463603Y-141386921D01*
X170300607Y-141278010D01*
X170161990Y-141139393D01*
X170053079Y-140976397D01*
X169978060Y-140795285D01*
X169939815Y-140603017D01*
X169939815Y-140406983D01*
X169978060Y-140214715D01*
X170053079Y-140033603D01*
X170161990Y-139870607D01*
X170300607Y-139731990D01*
X170463603Y-139623079D01*
X170644715Y-139548060D01*
X170836983Y-139509815D01*
X171033017Y-139509815D01*
X171225285Y-139548060D01*
G37*
G36*
X175445285Y-139548060D02*
G01*
X175626397Y-139623079D01*
X175789393Y-139731990D01*
X175928010Y-139870607D01*
X176036921Y-140033603D01*
X176111940Y-140214715D01*
X176150185Y-140406983D01*
X176150185Y-140603017D01*
X176111940Y-140795285D01*
X176036921Y-140976397D01*
X175928010Y-141139393D01*
X175789393Y-141278010D01*
X175626397Y-141386921D01*
X175445285Y-141461940D01*
X175253017Y-141500185D01*
X175056983Y-141500185D01*
X174864715Y-141461940D01*
X174683603Y-141386921D01*
X174520607Y-141278010D01*
X174381990Y-141139393D01*
X174273079Y-140976397D01*
X174198060Y-140795285D01*
X174159815Y-140603017D01*
X174159815Y-140406983D01*
X174198060Y-140214715D01*
X174273079Y-140033603D01*
X174381990Y-139870607D01*
X174520607Y-139731990D01*
X174683603Y-139623079D01*
X174864715Y-139548060D01*
X175056983Y-139509815D01*
X175253017Y-139509815D01*
X175445285Y-139548060D01*
G37*
G36*
X181945285Y-139548060D02*
G01*
X182126397Y-139623079D01*
X182289393Y-139731990D01*
X182428010Y-139870607D01*
X182536921Y-140033603D01*
X182611940Y-140214715D01*
X182650185Y-140406983D01*
X182650185Y-140603017D01*
X182611940Y-140795285D01*
X182536921Y-140976397D01*
X182428010Y-141139393D01*
X182289393Y-141278010D01*
X182126397Y-141386921D01*
X181945285Y-141461940D01*
X181753017Y-141500185D01*
X181556983Y-141500185D01*
X181364715Y-141461940D01*
X181183603Y-141386921D01*
X181020607Y-141278010D01*
X180881990Y-141139393D01*
X180773079Y-140976397D01*
X180698060Y-140795285D01*
X180659815Y-140603017D01*
X180659815Y-140406983D01*
X180698060Y-140214715D01*
X180773079Y-140033603D01*
X180881990Y-139870607D01*
X181020607Y-139731990D01*
X181183603Y-139623079D01*
X181364715Y-139548060D01*
X181556983Y-139509815D01*
X181753017Y-139509815D01*
X181945285Y-139548060D01*
G37*
G36*
X125240285Y-139393060D02*
G01*
X125421397Y-139468079D01*
X125584393Y-139576990D01*
X125723010Y-139715607D01*
X125831921Y-139878603D01*
X125906940Y-140059715D01*
X125945185Y-140251983D01*
X125945185Y-140448017D01*
X125906940Y-140640285D01*
X125831921Y-140821397D01*
X125723010Y-140984393D01*
X125584393Y-141123010D01*
X125421397Y-141231921D01*
X125240285Y-141306940D01*
X125048017Y-141345185D01*
X124851983Y-141345185D01*
X124659715Y-141306940D01*
X124478603Y-141231921D01*
X124315607Y-141123010D01*
X124176990Y-140984393D01*
X124068079Y-140821397D01*
X123993060Y-140640285D01*
X123954815Y-140448017D01*
X123954815Y-140251983D01*
X123993060Y-140059715D01*
X124068079Y-139878603D01*
X124176990Y-139715607D01*
X124315607Y-139576990D01*
X124478603Y-139468079D01*
X124659715Y-139393060D01*
X124851983Y-139354815D01*
X125048017Y-139354815D01*
X125240285Y-139393060D01*
G37*
G36*
X131740285Y-139393060D02*
G01*
X131921397Y-139468079D01*
X132084393Y-139576990D01*
X132223010Y-139715607D01*
X132331921Y-139878603D01*
X132406940Y-140059715D01*
X132445185Y-140251983D01*
X132445185Y-140448017D01*
X132406940Y-140640285D01*
X132331921Y-140821397D01*
X132223010Y-140984393D01*
X132084393Y-141123010D01*
X131921397Y-141231921D01*
X131740285Y-141306940D01*
X131548017Y-141345185D01*
X131351983Y-141345185D01*
X131159715Y-141306940D01*
X130978603Y-141231921D01*
X130815607Y-141123010D01*
X130676990Y-140984393D01*
X130568079Y-140821397D01*
X130493060Y-140640285D01*
X130454815Y-140448017D01*
X130454815Y-140251983D01*
X130493060Y-140059715D01*
X130568079Y-139878603D01*
X130676990Y-139715607D01*
X130815607Y-139576990D01*
X130978603Y-139468079D01*
X131159715Y-139393060D01*
X131351983Y-139354815D01*
X131548017Y-139354815D01*
X131740285Y-139393060D01*
G37*
G36*
X135640285Y-139393060D02*
G01*
X135821397Y-139468079D01*
X135984393Y-139576990D01*
X136123010Y-139715607D01*
X136231921Y-139878603D01*
X136306940Y-140059715D01*
X136345185Y-140251983D01*
X136345185Y-140448017D01*
X136306940Y-140640285D01*
X136231921Y-140821397D01*
X136123010Y-140984393D01*
X135984393Y-141123010D01*
X135821397Y-141231921D01*
X135640285Y-141306940D01*
X135448017Y-141345185D01*
X135251983Y-141345185D01*
X135059715Y-141306940D01*
X134878603Y-141231921D01*
X134715607Y-141123010D01*
X134576990Y-140984393D01*
X134468079Y-140821397D01*
X134393060Y-140640285D01*
X134354815Y-140448017D01*
X134354815Y-140251983D01*
X134393060Y-140059715D01*
X134468079Y-139878603D01*
X134576990Y-139715607D01*
X134715607Y-139576990D01*
X134878603Y-139468079D01*
X135059715Y-139393060D01*
X135251983Y-139354815D01*
X135448017Y-139354815D01*
X135640285Y-139393060D01*
G37*
G36*
X142140285Y-139393060D02*
G01*
X142321397Y-139468079D01*
X142484393Y-139576990D01*
X142623010Y-139715607D01*
X142731921Y-139878603D01*
X142806940Y-140059715D01*
X142845185Y-140251983D01*
X142845185Y-140448017D01*
X142806940Y-140640285D01*
X142731921Y-140821397D01*
X142623010Y-140984393D01*
X142484393Y-141123010D01*
X142321397Y-141231921D01*
X142140285Y-141306940D01*
X141948017Y-141345185D01*
X141751983Y-141345185D01*
X141559715Y-141306940D01*
X141378603Y-141231921D01*
X141215607Y-141123010D01*
X141076990Y-140984393D01*
X140968079Y-140821397D01*
X140893060Y-140640285D01*
X140854815Y-140448017D01*
X140854815Y-140251983D01*
X140893060Y-140059715D01*
X140968079Y-139878603D01*
X141076990Y-139715607D01*
X141215607Y-139576990D01*
X141378603Y-139468079D01*
X141559715Y-139393060D01*
X141751983Y-139354815D01*
X141948017Y-139354815D01*
X142140285Y-139393060D01*
G37*
G36*
X112274285Y-137988060D02*
G01*
X112455397Y-138063079D01*
X112618393Y-138171990D01*
X112757010Y-138310607D01*
X112865921Y-138473603D01*
X112940940Y-138654715D01*
X112979185Y-138846983D01*
X112979185Y-139043017D01*
X112940940Y-139235285D01*
X112865921Y-139416397D01*
X112757010Y-139579393D01*
X112618393Y-139718010D01*
X112455397Y-139826921D01*
X112274285Y-139901940D01*
X112082017Y-139940185D01*
X111885983Y-139940185D01*
X111693715Y-139901940D01*
X111512603Y-139826921D01*
X111349607Y-139718010D01*
X111210990Y-139579393D01*
X111102079Y-139416397D01*
X111027060Y-139235285D01*
X110988815Y-139043017D01*
X110988815Y-138846983D01*
X111027060Y-138654715D01*
X111102079Y-138473603D01*
X111210990Y-138310607D01*
X111349607Y-138171990D01*
X111512603Y-138063079D01*
X111693715Y-137988060D01*
X111885983Y-137949815D01*
X112082017Y-137949815D01*
X112274285Y-137988060D01*
G37*
G36*
X190685000Y-139160000D02*
G01*
X188985000Y-139160000D01*
X188985000Y-137460000D01*
X190685000Y-137460000D01*
X190685000Y-139160000D01*
G37*
G36*
X192621742Y-137496601D02*
G01*
X192775687Y-137560367D01*
X192914234Y-137652941D01*
X193032059Y-137770766D01*
X193124633Y-137909313D01*
X193188399Y-138063258D01*
X193220907Y-138226685D01*
X193220907Y-138393315D01*
X193188399Y-138556742D01*
X193124633Y-138710687D01*
X193032059Y-138849234D01*
X192914234Y-138967059D01*
X192775687Y-139059633D01*
X192621742Y-139123399D01*
X192458315Y-139155907D01*
X192291685Y-139155907D01*
X192128258Y-139123399D01*
X191974313Y-139059633D01*
X191835766Y-138967059D01*
X191717941Y-138849234D01*
X191625367Y-138710687D01*
X191561601Y-138556742D01*
X191529093Y-138393315D01*
X191529093Y-138226685D01*
X191561601Y-138063258D01*
X191625367Y-137909313D01*
X191717941Y-137770766D01*
X191835766Y-137652941D01*
X191974313Y-137560367D01*
X192128258Y-137496601D01*
X192291685Y-137464093D01*
X192458315Y-137464093D01*
X192621742Y-137496601D01*
G37*
G36*
X186121685Y-134916660D02*
G01*
X186302797Y-134991679D01*
X186465793Y-135100590D01*
X186604410Y-135239207D01*
X186713321Y-135402203D01*
X186788340Y-135583315D01*
X186826585Y-135775583D01*
X186826585Y-135971617D01*
X186788340Y-136163885D01*
X186713321Y-136344997D01*
X186604410Y-136507993D01*
X186465793Y-136646610D01*
X186302797Y-136755521D01*
X186121685Y-136830540D01*
X185929417Y-136868785D01*
X185733383Y-136868785D01*
X185541115Y-136830540D01*
X185360003Y-136755521D01*
X185197007Y-136646610D01*
X185058390Y-136507993D01*
X184949479Y-136344997D01*
X184874460Y-136163885D01*
X184836215Y-135971617D01*
X184836215Y-135775583D01*
X184874460Y-135583315D01*
X184949479Y-135402203D01*
X185058390Y-135239207D01*
X185197007Y-135100590D01*
X185360003Y-134991679D01*
X185541115Y-134916660D01*
X185733383Y-134878415D01*
X185929417Y-134878415D01*
X186121685Y-134916660D01*
G37*
G36*
X112274285Y-134813060D02*
G01*
X112455397Y-134888079D01*
X112618393Y-134996990D01*
X112757010Y-135135607D01*
X112865921Y-135298603D01*
X112940940Y-135479715D01*
X112979185Y-135671983D01*
X112979185Y-135868017D01*
X112940940Y-136060285D01*
X112865921Y-136241397D01*
X112757010Y-136404393D01*
X112618393Y-136543010D01*
X112455397Y-136651921D01*
X112274285Y-136726940D01*
X112082017Y-136765185D01*
X111885983Y-136765185D01*
X111693715Y-136726940D01*
X111512603Y-136651921D01*
X111349607Y-136543010D01*
X111210990Y-136404393D01*
X111102079Y-136241397D01*
X111027060Y-136060285D01*
X110988815Y-135868017D01*
X110988815Y-135671983D01*
X111027060Y-135479715D01*
X111102079Y-135298603D01*
X111210990Y-135135607D01*
X111349607Y-134996990D01*
X111512603Y-134888079D01*
X111693715Y-134813060D01*
X111885983Y-134774815D01*
X112082017Y-134774815D01*
X112274285Y-134813060D01*
G37*
G36*
X198371742Y-132926601D02*
G01*
X198525687Y-132990367D01*
X198664234Y-133082941D01*
X198782059Y-133200766D01*
X198874633Y-133339313D01*
X198938399Y-133493258D01*
X198970907Y-133656685D01*
X198970907Y-133823315D01*
X198938399Y-133986742D01*
X198874633Y-134140687D01*
X198782059Y-134279234D01*
X198664234Y-134397059D01*
X198525687Y-134489633D01*
X198371742Y-134553399D01*
X198208315Y-134585907D01*
X198041685Y-134585907D01*
X197878258Y-134553399D01*
X197724313Y-134489633D01*
X197585766Y-134397059D01*
X197467941Y-134279234D01*
X197375367Y-134140687D01*
X197311601Y-133986742D01*
X197279093Y-133823315D01*
X197279093Y-133656685D01*
X197311601Y-133493258D01*
X197375367Y-133339313D01*
X197467941Y-133200766D01*
X197585766Y-133082941D01*
X197724313Y-132990367D01*
X197878258Y-132926601D01*
X198041685Y-132894093D01*
X198208315Y-132894093D01*
X198371742Y-132926601D01*
G37*
G36*
X200911742Y-132926601D02*
G01*
X201065687Y-132990367D01*
X201204234Y-133082941D01*
X201322059Y-133200766D01*
X201414633Y-133339313D01*
X201478399Y-133493258D01*
X201510907Y-133656685D01*
X201510907Y-133823315D01*
X201478399Y-133986742D01*
X201414633Y-134140687D01*
X201322059Y-134279234D01*
X201204234Y-134397059D01*
X201065687Y-134489633D01*
X200911742Y-134553399D01*
X200748315Y-134585907D01*
X200581685Y-134585907D01*
X200418258Y-134553399D01*
X200264313Y-134489633D01*
X200125766Y-134397059D01*
X200007941Y-134279234D01*
X199915367Y-134140687D01*
X199851601Y-133986742D01*
X199819093Y-133823315D01*
X199819093Y-133656685D01*
X199851601Y-133493258D01*
X199915367Y-133339313D01*
X200007941Y-133200766D01*
X200125766Y-133082941D01*
X200264313Y-132990367D01*
X200418258Y-132926601D01*
X200581685Y-132894093D01*
X200748315Y-132894093D01*
X200911742Y-132926601D01*
G37*
G36*
X112274285Y-131638060D02*
G01*
X112455397Y-131713079D01*
X112618393Y-131821990D01*
X112757010Y-131960607D01*
X112865921Y-132123603D01*
X112940940Y-132304715D01*
X112979185Y-132496983D01*
X112979185Y-132693017D01*
X112940940Y-132885285D01*
X112865921Y-133066397D01*
X112757010Y-133229393D01*
X112618393Y-133368010D01*
X112455397Y-133476921D01*
X112274285Y-133551940D01*
X112082017Y-133590185D01*
X111885983Y-133590185D01*
X111693715Y-133551940D01*
X111512603Y-133476921D01*
X111349607Y-133368010D01*
X111210990Y-133229393D01*
X111102079Y-133066397D01*
X111027060Y-132885285D01*
X110988815Y-132693017D01*
X110988815Y-132496983D01*
X111027060Y-132304715D01*
X111102079Y-132123603D01*
X111210990Y-131960607D01*
X111349607Y-131821990D01*
X111512603Y-131713079D01*
X111693715Y-131638060D01*
X111885983Y-131599815D01*
X112082017Y-131599815D01*
X112274285Y-131638060D01*
G37*
G36*
X173586256Y-131098754D02*
G01*
X173749257Y-131166271D01*
X173895954Y-131264291D01*
X174020709Y-131389046D01*
X174118729Y-131535743D01*
X174186246Y-131698744D01*
X174220666Y-131871785D01*
X174220666Y-132048215D01*
X174186246Y-132221256D01*
X174118729Y-132384257D01*
X174020709Y-132530954D01*
X173895954Y-132655709D01*
X173749257Y-132753729D01*
X173586256Y-132821246D01*
X173413215Y-132855666D01*
X173236785Y-132855666D01*
X173063744Y-132821246D01*
X172900743Y-132753729D01*
X172754046Y-132655709D01*
X172629291Y-132530954D01*
X172531271Y-132384257D01*
X172463754Y-132221256D01*
X172429334Y-132048215D01*
X172429334Y-131871785D01*
X172463754Y-131698744D01*
X172531271Y-131535743D01*
X172629291Y-131389046D01*
X172754046Y-131264291D01*
X172900743Y-131166271D01*
X173063744Y-131098754D01*
X173236785Y-131064334D01*
X173413215Y-131064334D01*
X173586256Y-131098754D01*
G37*
G36*
X198371742Y-130386601D02*
G01*
X198525687Y-130450367D01*
X198664234Y-130542941D01*
X198782059Y-130660766D01*
X198874633Y-130799313D01*
X198938399Y-130953258D01*
X198970907Y-131116685D01*
X198970907Y-131283315D01*
X198938399Y-131446742D01*
X198874633Y-131600687D01*
X198782059Y-131739234D01*
X198664234Y-131857059D01*
X198525687Y-131949633D01*
X198371742Y-132013399D01*
X198208315Y-132045907D01*
X198041685Y-132045907D01*
X197878258Y-132013399D01*
X197724313Y-131949633D01*
X197585766Y-131857059D01*
X197467941Y-131739234D01*
X197375367Y-131600687D01*
X197311601Y-131446742D01*
X197279093Y-131283315D01*
X197279093Y-131116685D01*
X197311601Y-130953258D01*
X197375367Y-130799313D01*
X197467941Y-130660766D01*
X197585766Y-130542941D01*
X197724313Y-130450367D01*
X197878258Y-130386601D01*
X198041685Y-130354093D01*
X198208315Y-130354093D01*
X198371742Y-130386601D01*
G37*
G36*
X200911742Y-130386601D02*
G01*
X201065687Y-130450367D01*
X201204234Y-130542941D01*
X201322059Y-130660766D01*
X201414633Y-130799313D01*
X201478399Y-130953258D01*
X201510907Y-131116685D01*
X201510907Y-131283315D01*
X201478399Y-131446742D01*
X201414633Y-131600687D01*
X201322059Y-131739234D01*
X201204234Y-131857059D01*
X201065687Y-131949633D01*
X200911742Y-132013399D01*
X200748315Y-132045907D01*
X200581685Y-132045907D01*
X200418258Y-132013399D01*
X200264313Y-131949633D01*
X200125766Y-131857059D01*
X200007941Y-131739234D01*
X199915367Y-131600687D01*
X199851601Y-131446742D01*
X199819093Y-131283315D01*
X199819093Y-131116685D01*
X199851601Y-130953258D01*
X199915367Y-130799313D01*
X200007941Y-130660766D01*
X200125766Y-130542941D01*
X200264313Y-130450367D01*
X200418258Y-130386601D01*
X200581685Y-130354093D01*
X200748315Y-130354093D01*
X200911742Y-130386601D01*
G37*
G36*
X112274285Y-128463060D02*
G01*
X112455397Y-128538079D01*
X112618393Y-128646990D01*
X112757010Y-128785607D01*
X112865921Y-128948603D01*
X112940940Y-129129715D01*
X112979185Y-129321983D01*
X112979185Y-129518017D01*
X112940940Y-129710285D01*
X112865921Y-129891397D01*
X112757010Y-130054393D01*
X112618393Y-130193010D01*
X112455397Y-130301921D01*
X112274285Y-130376940D01*
X112082017Y-130415185D01*
X111885983Y-130415185D01*
X111693715Y-130376940D01*
X111512603Y-130301921D01*
X111349607Y-130193010D01*
X111210990Y-130054393D01*
X111102079Y-129891397D01*
X111027060Y-129710285D01*
X110988815Y-129518017D01*
X110988815Y-129321983D01*
X111027060Y-129129715D01*
X111102079Y-128948603D01*
X111210990Y-128785607D01*
X111349607Y-128646990D01*
X111512603Y-128538079D01*
X111693715Y-128463060D01*
X111885983Y-128424815D01*
X112082017Y-128424815D01*
X112274285Y-128463060D01*
G37*
G36*
X198371742Y-127846601D02*
G01*
X198525687Y-127910367D01*
X198664234Y-128002941D01*
X198782059Y-128120766D01*
X198874633Y-128259313D01*
X198938399Y-128413258D01*
X198970907Y-128576685D01*
X198970907Y-128743315D01*
X198938399Y-128906742D01*
X198874633Y-129060687D01*
X198782059Y-129199234D01*
X198664234Y-129317059D01*
X198525687Y-129409633D01*
X198371742Y-129473399D01*
X198208315Y-129505907D01*
X198041685Y-129505907D01*
X197878258Y-129473399D01*
X197724313Y-129409633D01*
X197585766Y-129317059D01*
X197467941Y-129199234D01*
X197375367Y-129060687D01*
X197311601Y-128906742D01*
X197279093Y-128743315D01*
X197279093Y-128576685D01*
X197311601Y-128413258D01*
X197375367Y-128259313D01*
X197467941Y-128120766D01*
X197585766Y-128002941D01*
X197724313Y-127910367D01*
X197878258Y-127846601D01*
X198041685Y-127814093D01*
X198208315Y-127814093D01*
X198371742Y-127846601D01*
G37*
G36*
X200911742Y-127846601D02*
G01*
X201065687Y-127910367D01*
X201204234Y-128002941D01*
X201322059Y-128120766D01*
X201414633Y-128259313D01*
X201478399Y-128413258D01*
X201510907Y-128576685D01*
X201510907Y-128743315D01*
X201478399Y-128906742D01*
X201414633Y-129060687D01*
X201322059Y-129199234D01*
X201204234Y-129317059D01*
X201065687Y-129409633D01*
X200911742Y-129473399D01*
X200748315Y-129505907D01*
X200581685Y-129505907D01*
X200418258Y-129473399D01*
X200264313Y-129409633D01*
X200125766Y-129317059D01*
X200007941Y-129199234D01*
X199915367Y-129060687D01*
X199851601Y-128906742D01*
X199819093Y-128743315D01*
X199819093Y-128576685D01*
X199851601Y-128413258D01*
X199915367Y-128259313D01*
X200007941Y-128120766D01*
X200125766Y-128002941D01*
X200264313Y-127910367D01*
X200418258Y-127846601D01*
X200581685Y-127814093D01*
X200748315Y-127814093D01*
X200911742Y-127846601D01*
G37*
G36*
X173586256Y-126098754D02*
G01*
X173749257Y-126166271D01*
X173895954Y-126264291D01*
X174020709Y-126389046D01*
X174118729Y-126535743D01*
X174186246Y-126698744D01*
X174220666Y-126871785D01*
X174220666Y-127048215D01*
X174186246Y-127221256D01*
X174118729Y-127384257D01*
X174020709Y-127530954D01*
X173895954Y-127655709D01*
X173749257Y-127753729D01*
X173586256Y-127821246D01*
X173413215Y-127855666D01*
X173236785Y-127855666D01*
X173063744Y-127821246D01*
X172900743Y-127753729D01*
X172754046Y-127655709D01*
X172629291Y-127530954D01*
X172531271Y-127384257D01*
X172463754Y-127221256D01*
X172429334Y-127048215D01*
X172429334Y-126871785D01*
X172463754Y-126698744D01*
X172531271Y-126535743D01*
X172629291Y-126389046D01*
X172754046Y-126264291D01*
X172900743Y-126166271D01*
X173063744Y-126098754D01*
X173236785Y-126064334D01*
X173413215Y-126064334D01*
X173586256Y-126098754D01*
G37*
G36*
X198371742Y-125306601D02*
G01*
X198525687Y-125370367D01*
X198664234Y-125462941D01*
X198782059Y-125580766D01*
X198874633Y-125719313D01*
X198938399Y-125873258D01*
X198970907Y-126036685D01*
X198970907Y-126203315D01*
X198938399Y-126366742D01*
X198874633Y-126520687D01*
X198782059Y-126659234D01*
X198664234Y-126777059D01*
X198525687Y-126869633D01*
X198371742Y-126933399D01*
X198208315Y-126965907D01*
X198041685Y-126965907D01*
X197878258Y-126933399D01*
X197724313Y-126869633D01*
X197585766Y-126777059D01*
X197467941Y-126659234D01*
X197375367Y-126520687D01*
X197311601Y-126366742D01*
X197279093Y-126203315D01*
X197279093Y-126036685D01*
X197311601Y-125873258D01*
X197375367Y-125719313D01*
X197467941Y-125580766D01*
X197585766Y-125462941D01*
X197724313Y-125370367D01*
X197878258Y-125306601D01*
X198041685Y-125274093D01*
X198208315Y-125274093D01*
X198371742Y-125306601D01*
G37*
G36*
X200911742Y-125306601D02*
G01*
X201065687Y-125370367D01*
X201204234Y-125462941D01*
X201322059Y-125580766D01*
X201414633Y-125719313D01*
X201478399Y-125873258D01*
X201510907Y-126036685D01*
X201510907Y-126203315D01*
X201478399Y-126366742D01*
X201414633Y-126520687D01*
X201322059Y-126659234D01*
X201204234Y-126777059D01*
X201065687Y-126869633D01*
X200911742Y-126933399D01*
X200748315Y-126965907D01*
X200581685Y-126965907D01*
X200418258Y-126933399D01*
X200264313Y-126869633D01*
X200125766Y-126777059D01*
X200007941Y-126659234D01*
X199915367Y-126520687D01*
X199851601Y-126366742D01*
X199819093Y-126203315D01*
X199819093Y-126036685D01*
X199851601Y-125873258D01*
X199915367Y-125719313D01*
X200007941Y-125580766D01*
X200125766Y-125462941D01*
X200264313Y-125370367D01*
X200418258Y-125306601D01*
X200581685Y-125274093D01*
X200748315Y-125274093D01*
X200911742Y-125306601D01*
G37*
G36*
X107575285Y-124018060D02*
G01*
X107756397Y-124093079D01*
X107919393Y-124201990D01*
X108058010Y-124340607D01*
X108166921Y-124503603D01*
X108241940Y-124684715D01*
X108280185Y-124876983D01*
X108280185Y-125073017D01*
X108241940Y-125265285D01*
X108166921Y-125446397D01*
X108058010Y-125609393D01*
X107919393Y-125748010D01*
X107756397Y-125856921D01*
X107575285Y-125931940D01*
X107383017Y-125970185D01*
X107186983Y-125970185D01*
X106994715Y-125931940D01*
X106813603Y-125856921D01*
X106650607Y-125748010D01*
X106511990Y-125609393D01*
X106403079Y-125446397D01*
X106328060Y-125265285D01*
X106289815Y-125073017D01*
X106289815Y-124876983D01*
X106328060Y-124684715D01*
X106403079Y-124503603D01*
X106511990Y-124340607D01*
X106650607Y-124201990D01*
X106813603Y-124093079D01*
X106994715Y-124018060D01*
X107186983Y-123979815D01*
X107383017Y-123979815D01*
X107575285Y-124018060D01*
G37*
G36*
X198371742Y-122766601D02*
G01*
X198525687Y-122830367D01*
X198664234Y-122922941D01*
X198782059Y-123040766D01*
X198874633Y-123179313D01*
X198938399Y-123333258D01*
X198970907Y-123496685D01*
X198970907Y-123663315D01*
X198938399Y-123826742D01*
X198874633Y-123980687D01*
X198782059Y-124119234D01*
X198664234Y-124237059D01*
X198525687Y-124329633D01*
X198371742Y-124393399D01*
X198208315Y-124425907D01*
X198041685Y-124425907D01*
X197878258Y-124393399D01*
X197724313Y-124329633D01*
X197585766Y-124237059D01*
X197467941Y-124119234D01*
X197375367Y-123980687D01*
X197311601Y-123826742D01*
X197279093Y-123663315D01*
X197279093Y-123496685D01*
X197311601Y-123333258D01*
X197375367Y-123179313D01*
X197467941Y-123040766D01*
X197585766Y-122922941D01*
X197724313Y-122830367D01*
X197878258Y-122766601D01*
X198041685Y-122734093D01*
X198208315Y-122734093D01*
X198371742Y-122766601D01*
G37*
G36*
X200911742Y-122766601D02*
G01*
X201065687Y-122830367D01*
X201204234Y-122922941D01*
X201322059Y-123040766D01*
X201414633Y-123179313D01*
X201478399Y-123333258D01*
X201510907Y-123496685D01*
X201510907Y-123663315D01*
X201478399Y-123826742D01*
X201414633Y-123980687D01*
X201322059Y-124119234D01*
X201204234Y-124237059D01*
X201065687Y-124329633D01*
X200911742Y-124393399D01*
X200748315Y-124425907D01*
X200581685Y-124425907D01*
X200418258Y-124393399D01*
X200264313Y-124329633D01*
X200125766Y-124237059D01*
X200007941Y-124119234D01*
X199915367Y-123980687D01*
X199851601Y-123826742D01*
X199819093Y-123663315D01*
X199819093Y-123496685D01*
X199851601Y-123333258D01*
X199915367Y-123179313D01*
X200007941Y-123040766D01*
X200125766Y-122922941D01*
X200264313Y-122830367D01*
X200418258Y-122766601D01*
X200581685Y-122734093D01*
X200748315Y-122734093D01*
X200911742Y-122766601D01*
G37*
G36*
X106950738Y-121284245D02*
G01*
X107004750Y-121286898D01*
X107011400Y-121288220D01*
X107025577Y-121289150D01*
X107052957Y-121296486D01*
X107121680Y-121310156D01*
X107154121Y-121323594D01*
X107177375Y-121329825D01*
X107198226Y-121341863D01*
X107230664Y-121355300D01*
X107288913Y-121394221D01*
X107313474Y-121408401D01*
X107320197Y-121415124D01*
X107328750Y-121420839D01*
X107412160Y-121504249D01*
X107417874Y-121512801D01*
X107424599Y-121519526D01*
X107438780Y-121544089D01*
X107477699Y-121602335D01*
X107491134Y-121634769D01*
X107503175Y-121655625D01*
X107509406Y-121678882D01*
X107522843Y-121711319D01*
X107536512Y-121780038D01*
X107543850Y-121807423D01*
X107543850Y-121816928D01*
X107545857Y-121827018D01*
X107545857Y-121944981D01*
X107543850Y-121955070D01*
X107543850Y-121964577D01*
X107536511Y-121991964D01*
X107522843Y-122060680D01*
X107509407Y-122093114D01*
X107503175Y-122116375D01*
X107491132Y-122137232D01*
X107477699Y-122169664D01*
X107438784Y-122227902D01*
X107424599Y-122252474D01*
X107417872Y-122259200D01*
X107412160Y-122267750D01*
X107328750Y-122351160D01*
X107320200Y-122356872D01*
X107313474Y-122363599D01*
X107288902Y-122377784D01*
X107230664Y-122416699D01*
X107198232Y-122430132D01*
X107177375Y-122442175D01*
X107154114Y-122448407D01*
X107121680Y-122461843D01*
X107052971Y-122475509D01*
X107025577Y-122482850D01*
X107011393Y-122483779D01*
X107004750Y-122485101D01*
X106950743Y-122487754D01*
X106947000Y-122488000D01*
X106945750Y-122488000D01*
X106148250Y-122488000D01*
X106147000Y-122488000D01*
X106143256Y-122487754D01*
X106089249Y-122485101D01*
X106082605Y-122483779D01*
X106068423Y-122482850D01*
X106041031Y-122475510D01*
X105972319Y-122461843D01*
X105939882Y-122448406D01*
X105916625Y-122442175D01*
X105895769Y-122430134D01*
X105863335Y-122416699D01*
X105805089Y-122377780D01*
X105780526Y-122363599D01*
X105773801Y-122356874D01*
X105765249Y-122351160D01*
X105681839Y-122267750D01*
X105676124Y-122259197D01*
X105669401Y-122252474D01*
X105655221Y-122227913D01*
X105616300Y-122169664D01*
X105602863Y-122137226D01*
X105590825Y-122116375D01*
X105584594Y-122093121D01*
X105571156Y-122060680D01*
X105557487Y-121991958D01*
X105550150Y-121964577D01*
X105550150Y-121955071D01*
X105548143Y-121944981D01*
X105548143Y-121827018D01*
X105550150Y-121816927D01*
X105550150Y-121807423D01*
X105557486Y-121780044D01*
X105571156Y-121711319D01*
X105584594Y-121678875D01*
X105590825Y-121655625D01*
X105602862Y-121634775D01*
X105616300Y-121602335D01*
X105655225Y-121544078D01*
X105669401Y-121519526D01*
X105676122Y-121512804D01*
X105681839Y-121504249D01*
X105765249Y-121420839D01*
X105773804Y-121415122D01*
X105780526Y-121408401D01*
X105805078Y-121394225D01*
X105863335Y-121355300D01*
X105895775Y-121341862D01*
X105916625Y-121329825D01*
X105939875Y-121323594D01*
X105972319Y-121310156D01*
X106041045Y-121296485D01*
X106068423Y-121289150D01*
X106082597Y-121288220D01*
X106089249Y-121286898D01*
X106143261Y-121284245D01*
X106147000Y-121284000D01*
X106947000Y-121284000D01*
X106950738Y-121284245D01*
G37*
G36*
X111280738Y-121284245D02*
G01*
X111334750Y-121286898D01*
X111341400Y-121288220D01*
X111355577Y-121289150D01*
X111382957Y-121296486D01*
X111451680Y-121310156D01*
X111484121Y-121323594D01*
X111507375Y-121329825D01*
X111528226Y-121341863D01*
X111560664Y-121355300D01*
X111618913Y-121394221D01*
X111643474Y-121408401D01*
X111650197Y-121415124D01*
X111658750Y-121420839D01*
X111742160Y-121504249D01*
X111747874Y-121512801D01*
X111754599Y-121519526D01*
X111768780Y-121544089D01*
X111807699Y-121602335D01*
X111821134Y-121634769D01*
X111833175Y-121655625D01*
X111839406Y-121678882D01*
X111852843Y-121711319D01*
X111866512Y-121780038D01*
X111873850Y-121807423D01*
X111873850Y-121816928D01*
X111875857Y-121827018D01*
X111875857Y-121944981D01*
X111873850Y-121955070D01*
X111873850Y-121964577D01*
X111866511Y-121991964D01*
X111852843Y-122060680D01*
X111839407Y-122093114D01*
X111833175Y-122116375D01*
X111821132Y-122137232D01*
X111807699Y-122169664D01*
X111768784Y-122227902D01*
X111754599Y-122252474D01*
X111747872Y-122259200D01*
X111742160Y-122267750D01*
X111658750Y-122351160D01*
X111650200Y-122356872D01*
X111643474Y-122363599D01*
X111618902Y-122377784D01*
X111560664Y-122416699D01*
X111528232Y-122430132D01*
X111507375Y-122442175D01*
X111484114Y-122448407D01*
X111451680Y-122461843D01*
X111382971Y-122475509D01*
X111355577Y-122482850D01*
X111341393Y-122483779D01*
X111334750Y-122485101D01*
X111280743Y-122487754D01*
X111277000Y-122488000D01*
X111275750Y-122488000D01*
X110178250Y-122488000D01*
X110177000Y-122488000D01*
X110173256Y-122487754D01*
X110119249Y-122485101D01*
X110112605Y-122483779D01*
X110098423Y-122482850D01*
X110071031Y-122475510D01*
X110002319Y-122461843D01*
X109969882Y-122448406D01*
X109946625Y-122442175D01*
X109925769Y-122430134D01*
X109893335Y-122416699D01*
X109835089Y-122377780D01*
X109810526Y-122363599D01*
X109803801Y-122356874D01*
X109795249Y-122351160D01*
X109711839Y-122267750D01*
X109706124Y-122259197D01*
X109699401Y-122252474D01*
X109685221Y-122227913D01*
X109646300Y-122169664D01*
X109632863Y-122137226D01*
X109620825Y-122116375D01*
X109614594Y-122093121D01*
X109601156Y-122060680D01*
X109587487Y-121991958D01*
X109580150Y-121964577D01*
X109580150Y-121955071D01*
X109578143Y-121944981D01*
X109578143Y-121827018D01*
X109580150Y-121816927D01*
X109580150Y-121807423D01*
X109587486Y-121780044D01*
X109601156Y-121711319D01*
X109614594Y-121678875D01*
X109620825Y-121655625D01*
X109632862Y-121634775D01*
X109646300Y-121602335D01*
X109685225Y-121544078D01*
X109699401Y-121519526D01*
X109706122Y-121512804D01*
X109711839Y-121504249D01*
X109795249Y-121420839D01*
X109803804Y-121415122D01*
X109810526Y-121408401D01*
X109835078Y-121394225D01*
X109893335Y-121355300D01*
X109925775Y-121341862D01*
X109946625Y-121329825D01*
X109969875Y-121323594D01*
X110002319Y-121310156D01*
X110071045Y-121296485D01*
X110098423Y-121289150D01*
X110112597Y-121288220D01*
X110119249Y-121286898D01*
X110173261Y-121284245D01*
X110177000Y-121284000D01*
X111277000Y-121284000D01*
X111280738Y-121284245D01*
G37*
G36*
X198371742Y-120226601D02*
G01*
X198525687Y-120290367D01*
X198664234Y-120382941D01*
X198782059Y-120500766D01*
X198874633Y-120639313D01*
X198938399Y-120793258D01*
X198970907Y-120956685D01*
X198970907Y-121123315D01*
X198938399Y-121286742D01*
X198874633Y-121440687D01*
X198782059Y-121579234D01*
X198664234Y-121697059D01*
X198525687Y-121789633D01*
X198371742Y-121853399D01*
X198208315Y-121885907D01*
X198041685Y-121885907D01*
X197878258Y-121853399D01*
X197724313Y-121789633D01*
X197585766Y-121697059D01*
X197467941Y-121579234D01*
X197375367Y-121440687D01*
X197311601Y-121286742D01*
X197279093Y-121123315D01*
X197279093Y-120956685D01*
X197311601Y-120793258D01*
X197375367Y-120639313D01*
X197467941Y-120500766D01*
X197585766Y-120382941D01*
X197724313Y-120290367D01*
X197878258Y-120226601D01*
X198041685Y-120194093D01*
X198208315Y-120194093D01*
X198371742Y-120226601D01*
G37*
G36*
X200911742Y-120226601D02*
G01*
X201065687Y-120290367D01*
X201204234Y-120382941D01*
X201322059Y-120500766D01*
X201414633Y-120639313D01*
X201478399Y-120793258D01*
X201510907Y-120956685D01*
X201510907Y-121123315D01*
X201478399Y-121286742D01*
X201414633Y-121440687D01*
X201322059Y-121579234D01*
X201204234Y-121697059D01*
X201065687Y-121789633D01*
X200911742Y-121853399D01*
X200748315Y-121885907D01*
X200581685Y-121885907D01*
X200418258Y-121853399D01*
X200264313Y-121789633D01*
X200125766Y-121697059D01*
X200007941Y-121579234D01*
X199915367Y-121440687D01*
X199851601Y-121286742D01*
X199819093Y-121123315D01*
X199819093Y-120956685D01*
X199851601Y-120793258D01*
X199915367Y-120639313D01*
X200007941Y-120500766D01*
X200125766Y-120382941D01*
X200264313Y-120290367D01*
X200418258Y-120226601D01*
X200581685Y-120194093D01*
X200748315Y-120194093D01*
X200911742Y-120226601D01*
G37*
G36*
X110351372Y-120155739D02*
G01*
X110424847Y-120198160D01*
X110484840Y-120258153D01*
X110527261Y-120331628D01*
X110549220Y-120413579D01*
X110549220Y-120498421D01*
X110527261Y-120580372D01*
X110484840Y-120653847D01*
X110424847Y-120713840D01*
X110351372Y-120756261D01*
X110269421Y-120778220D01*
X110184579Y-120778220D01*
X110102628Y-120756261D01*
X110029153Y-120713840D01*
X109969160Y-120653847D01*
X109926739Y-120580372D01*
X109904780Y-120498421D01*
X109904780Y-120413579D01*
X109926739Y-120331628D01*
X109969160Y-120258153D01*
X110029153Y-120198160D01*
X110102628Y-120155739D01*
X110184579Y-120133780D01*
X110269421Y-120133780D01*
X110351372Y-120155739D01*
G37*
G36*
X198371742Y-117686601D02*
G01*
X198525687Y-117750367D01*
X198664234Y-117842941D01*
X198782059Y-117960766D01*
X198874633Y-118099313D01*
X198938399Y-118253258D01*
X198970907Y-118416685D01*
X198970907Y-118583315D01*
X198938399Y-118746742D01*
X198874633Y-118900687D01*
X198782059Y-119039234D01*
X198664234Y-119157059D01*
X198525687Y-119249633D01*
X198371742Y-119313399D01*
X198208315Y-119345907D01*
X198041685Y-119345907D01*
X197878258Y-119313399D01*
X197724313Y-119249633D01*
X197585766Y-119157059D01*
X197467941Y-119039234D01*
X197375367Y-118900687D01*
X197311601Y-118746742D01*
X197279093Y-118583315D01*
X197279093Y-118416685D01*
X197311601Y-118253258D01*
X197375367Y-118099313D01*
X197467941Y-117960766D01*
X197585766Y-117842941D01*
X197724313Y-117750367D01*
X197878258Y-117686601D01*
X198041685Y-117654093D01*
X198208315Y-117654093D01*
X198371742Y-117686601D01*
G37*
G36*
X200911742Y-117686601D02*
G01*
X201065687Y-117750367D01*
X201204234Y-117842941D01*
X201322059Y-117960766D01*
X201414633Y-118099313D01*
X201478399Y-118253258D01*
X201510907Y-118416685D01*
X201510907Y-118583315D01*
X201478399Y-118746742D01*
X201414633Y-118900687D01*
X201322059Y-119039234D01*
X201204234Y-119157059D01*
X201065687Y-119249633D01*
X200911742Y-119313399D01*
X200748315Y-119345907D01*
X200581685Y-119345907D01*
X200418258Y-119313399D01*
X200264313Y-119249633D01*
X200125766Y-119157059D01*
X200007941Y-119039234D01*
X199915367Y-118900687D01*
X199851601Y-118746742D01*
X199819093Y-118583315D01*
X199819093Y-118416685D01*
X199851601Y-118253258D01*
X199915367Y-118099313D01*
X200007941Y-117960766D01*
X200125766Y-117842941D01*
X200264313Y-117750367D01*
X200418258Y-117686601D01*
X200581685Y-117654093D01*
X200748315Y-117654093D01*
X200911742Y-117686601D01*
G37*
G36*
X198975000Y-116810000D02*
G01*
X197275000Y-116810000D01*
X197275000Y-115110000D01*
X198975000Y-115110000D01*
X198975000Y-116810000D01*
G37*
G36*
X200911742Y-115146601D02*
G01*
X201065687Y-115210367D01*
X201204234Y-115302941D01*
X201322059Y-115420766D01*
X201414633Y-115559313D01*
X201478399Y-115713258D01*
X201510907Y-115876685D01*
X201510907Y-116043315D01*
X201478399Y-116206742D01*
X201414633Y-116360687D01*
X201322059Y-116499234D01*
X201204234Y-116617059D01*
X201065687Y-116709633D01*
X200911742Y-116773399D01*
X200748315Y-116805907D01*
X200581685Y-116805907D01*
X200418258Y-116773399D01*
X200264313Y-116709633D01*
X200125766Y-116617059D01*
X200007941Y-116499234D01*
X199915367Y-116360687D01*
X199851601Y-116206742D01*
X199819093Y-116043315D01*
X199819093Y-115876685D01*
X199851601Y-115713258D01*
X199915367Y-115559313D01*
X200007941Y-115420766D01*
X200125766Y-115302941D01*
X200264313Y-115210367D01*
X200418258Y-115146601D01*
X200581685Y-115114093D01*
X200748315Y-115114093D01*
X200911742Y-115146601D01*
G37*
G36*
X110351372Y-114375739D02*
G01*
X110424847Y-114418160D01*
X110484840Y-114478153D01*
X110527261Y-114551628D01*
X110549220Y-114633579D01*
X110549220Y-114718421D01*
X110527261Y-114800372D01*
X110484840Y-114873847D01*
X110424847Y-114933840D01*
X110351372Y-114976261D01*
X110269421Y-114998220D01*
X110184579Y-114998220D01*
X110102628Y-114976261D01*
X110029153Y-114933840D01*
X109969160Y-114873847D01*
X109926739Y-114800372D01*
X109904780Y-114718421D01*
X109904780Y-114633579D01*
X109926739Y-114551628D01*
X109969160Y-114478153D01*
X110029153Y-114418160D01*
X110102628Y-114375739D01*
X110184579Y-114353780D01*
X110269421Y-114353780D01*
X110351372Y-114375739D01*
G37*
G36*
X106950738Y-112644245D02*
G01*
X107004750Y-112646898D01*
X107011400Y-112648220D01*
X107025577Y-112649150D01*
X107052957Y-112656486D01*
X107121680Y-112670156D01*
X107154121Y-112683594D01*
X107177375Y-112689825D01*
X107198226Y-112701863D01*
X107230664Y-112715300D01*
X107288913Y-112754221D01*
X107313474Y-112768401D01*
X107320197Y-112775124D01*
X107328750Y-112780839D01*
X107412160Y-112864249D01*
X107417874Y-112872801D01*
X107424599Y-112879526D01*
X107438780Y-112904089D01*
X107477699Y-112962335D01*
X107491134Y-112994769D01*
X107503175Y-113015625D01*
X107509406Y-113038882D01*
X107522843Y-113071319D01*
X107536512Y-113140038D01*
X107543850Y-113167423D01*
X107543850Y-113176928D01*
X107545857Y-113187018D01*
X107545857Y-113304981D01*
X107543850Y-113315070D01*
X107543850Y-113324577D01*
X107536511Y-113351964D01*
X107522843Y-113420680D01*
X107509407Y-113453114D01*
X107503175Y-113476375D01*
X107491132Y-113497232D01*
X107477699Y-113529664D01*
X107438784Y-113587902D01*
X107424599Y-113612474D01*
X107417872Y-113619200D01*
X107412160Y-113627750D01*
X107328750Y-113711160D01*
X107320200Y-113716872D01*
X107313474Y-113723599D01*
X107288902Y-113737784D01*
X107230664Y-113776699D01*
X107198232Y-113790132D01*
X107177375Y-113802175D01*
X107154114Y-113808407D01*
X107121680Y-113821843D01*
X107052971Y-113835509D01*
X107025577Y-113842850D01*
X107011393Y-113843779D01*
X107004750Y-113845101D01*
X106950743Y-113847754D01*
X106947000Y-113848000D01*
X106945750Y-113848000D01*
X106148250Y-113848000D01*
X106147000Y-113848000D01*
X106143256Y-113847754D01*
X106089249Y-113845101D01*
X106082605Y-113843779D01*
X106068423Y-113842850D01*
X106041031Y-113835510D01*
X105972319Y-113821843D01*
X105939882Y-113808406D01*
X105916625Y-113802175D01*
X105895769Y-113790134D01*
X105863335Y-113776699D01*
X105805089Y-113737780D01*
X105780526Y-113723599D01*
X105773801Y-113716874D01*
X105765249Y-113711160D01*
X105681839Y-113627750D01*
X105676124Y-113619197D01*
X105669401Y-113612474D01*
X105655221Y-113587913D01*
X105616300Y-113529664D01*
X105602863Y-113497226D01*
X105590825Y-113476375D01*
X105584594Y-113453121D01*
X105571156Y-113420680D01*
X105557487Y-113351958D01*
X105550150Y-113324577D01*
X105550150Y-113315071D01*
X105548143Y-113304981D01*
X105548143Y-113187018D01*
X105550150Y-113176927D01*
X105550150Y-113167423D01*
X105557486Y-113140044D01*
X105571156Y-113071319D01*
X105584594Y-113038875D01*
X105590825Y-113015625D01*
X105602862Y-112994775D01*
X105616300Y-112962335D01*
X105655225Y-112904078D01*
X105669401Y-112879526D01*
X105676122Y-112872804D01*
X105681839Y-112864249D01*
X105765249Y-112780839D01*
X105773804Y-112775122D01*
X105780526Y-112768401D01*
X105805078Y-112754225D01*
X105863335Y-112715300D01*
X105895775Y-112701862D01*
X105916625Y-112689825D01*
X105939875Y-112683594D01*
X105972319Y-112670156D01*
X106041045Y-112656485D01*
X106068423Y-112649150D01*
X106082597Y-112648220D01*
X106089249Y-112646898D01*
X106143261Y-112644245D01*
X106147000Y-112644000D01*
X106947000Y-112644000D01*
X106950738Y-112644245D01*
G37*
G36*
X111280738Y-112644245D02*
G01*
X111334750Y-112646898D01*
X111341400Y-112648220D01*
X111355577Y-112649150D01*
X111382957Y-112656486D01*
X111451680Y-112670156D01*
X111484121Y-112683594D01*
X111507375Y-112689825D01*
X111528226Y-112701863D01*
X111560664Y-112715300D01*
X111618913Y-112754221D01*
X111643474Y-112768401D01*
X111650197Y-112775124D01*
X111658750Y-112780839D01*
X111742160Y-112864249D01*
X111747874Y-112872801D01*
X111754599Y-112879526D01*
X111768780Y-112904089D01*
X111807699Y-112962335D01*
X111821134Y-112994769D01*
X111833175Y-113015625D01*
X111839406Y-113038882D01*
X111852843Y-113071319D01*
X111866512Y-113140038D01*
X111873850Y-113167423D01*
X111873850Y-113176928D01*
X111875857Y-113187018D01*
X111875857Y-113304981D01*
X111873850Y-113315070D01*
X111873850Y-113324577D01*
X111866511Y-113351964D01*
X111852843Y-113420680D01*
X111839407Y-113453114D01*
X111833175Y-113476375D01*
X111821132Y-113497232D01*
X111807699Y-113529664D01*
X111768784Y-113587902D01*
X111754599Y-113612474D01*
X111747872Y-113619200D01*
X111742160Y-113627750D01*
X111658750Y-113711160D01*
X111650200Y-113716872D01*
X111643474Y-113723599D01*
X111618902Y-113737784D01*
X111560664Y-113776699D01*
X111528232Y-113790132D01*
X111507375Y-113802175D01*
X111484114Y-113808407D01*
X111451680Y-113821843D01*
X111382971Y-113835509D01*
X111355577Y-113842850D01*
X111341393Y-113843779D01*
X111334750Y-113845101D01*
X111280743Y-113847754D01*
X111277000Y-113848000D01*
X111275750Y-113848000D01*
X110178250Y-113848000D01*
X110177000Y-113848000D01*
X110173256Y-113847754D01*
X110119249Y-113845101D01*
X110112605Y-113843779D01*
X110098423Y-113842850D01*
X110071031Y-113835510D01*
X110002319Y-113821843D01*
X109969882Y-113808406D01*
X109946625Y-113802175D01*
X109925769Y-113790134D01*
X109893335Y-113776699D01*
X109835089Y-113737780D01*
X109810526Y-113723599D01*
X109803801Y-113716874D01*
X109795249Y-113711160D01*
X109711839Y-113627750D01*
X109706124Y-113619197D01*
X109699401Y-113612474D01*
X109685221Y-113587913D01*
X109646300Y-113529664D01*
X109632863Y-113497226D01*
X109620825Y-113476375D01*
X109614594Y-113453121D01*
X109601156Y-113420680D01*
X109587487Y-113351958D01*
X109580150Y-113324577D01*
X109580150Y-113315071D01*
X109578143Y-113304981D01*
X109578143Y-113187018D01*
X109580150Y-113176927D01*
X109580150Y-113167423D01*
X109587486Y-113140044D01*
X109601156Y-113071319D01*
X109614594Y-113038875D01*
X109620825Y-113015625D01*
X109632862Y-112994775D01*
X109646300Y-112962335D01*
X109685225Y-112904078D01*
X109699401Y-112879526D01*
X109706122Y-112872804D01*
X109711839Y-112864249D01*
X109795249Y-112780839D01*
X109803804Y-112775122D01*
X109810526Y-112768401D01*
X109835078Y-112754225D01*
X109893335Y-112715300D01*
X109925775Y-112701862D01*
X109946625Y-112689825D01*
X109969875Y-112683594D01*
X110002319Y-112670156D01*
X110071045Y-112656485D01*
X110098423Y-112649150D01*
X110112597Y-112648220D01*
X110119249Y-112646898D01*
X110173261Y-112644245D01*
X110177000Y-112644000D01*
X111277000Y-112644000D01*
X111280738Y-112644245D01*
G37*
G36*
X164250000Y-111490000D02*
G01*
X162550000Y-111490000D01*
X162550000Y-109790000D01*
X164250000Y-109790000D01*
X164250000Y-111490000D01*
G37*
G36*
X201667400Y-110460000D02*
G01*
X199967400Y-110460000D01*
X199967400Y-108760000D01*
X201667400Y-108760000D01*
X201667400Y-110460000D01*
G37*
G36*
X163646742Y-107286601D02*
G01*
X163800687Y-107350367D01*
X163939234Y-107442941D01*
X164057059Y-107560766D01*
X164149633Y-107699313D01*
X164213399Y-107853258D01*
X164245907Y-108016685D01*
X164245907Y-108183315D01*
X164213399Y-108346742D01*
X164149633Y-108500687D01*
X164057059Y-108639234D01*
X163939234Y-108757059D01*
X163800687Y-108849633D01*
X163646742Y-108913399D01*
X163483315Y-108945907D01*
X163316685Y-108945907D01*
X163153258Y-108913399D01*
X162999313Y-108849633D01*
X162860766Y-108757059D01*
X162742941Y-108639234D01*
X162650367Y-108500687D01*
X162586601Y-108346742D01*
X162554093Y-108183315D01*
X162554093Y-108016685D01*
X162586601Y-107853258D01*
X162650367Y-107699313D01*
X162742941Y-107560766D01*
X162860766Y-107442941D01*
X162999313Y-107350367D01*
X163153258Y-107286601D01*
X163316685Y-107254093D01*
X163483315Y-107254093D01*
X163646742Y-107286601D01*
G37*
G36*
X111687285Y-106279060D02*
G01*
X111868397Y-106354079D01*
X112031393Y-106462990D01*
X112170010Y-106601607D01*
X112278921Y-106764603D01*
X112353940Y-106945715D01*
X112392185Y-107137983D01*
X112392185Y-107334017D01*
X112353940Y-107526285D01*
X112278921Y-107707397D01*
X112170010Y-107870393D01*
X112031393Y-108009010D01*
X111868397Y-108117921D01*
X111687285Y-108192940D01*
X111495017Y-108231185D01*
X111298983Y-108231185D01*
X111106715Y-108192940D01*
X110925603Y-108117921D01*
X110762607Y-108009010D01*
X110623990Y-107870393D01*
X110515079Y-107707397D01*
X110440060Y-107526285D01*
X110401815Y-107334017D01*
X110401815Y-107137983D01*
X110440060Y-106945715D01*
X110515079Y-106764603D01*
X110623990Y-106601607D01*
X110762607Y-106462990D01*
X110925603Y-106354079D01*
X111106715Y-106279060D01*
X111298983Y-106240815D01*
X111495017Y-106240815D01*
X111687285Y-106279060D01*
G37*
G36*
X146243685Y-106163860D02*
G01*
X146424797Y-106238879D01*
X146587793Y-106347790D01*
X146726410Y-106486407D01*
X146835321Y-106649403D01*
X146910340Y-106830515D01*
X146948585Y-107022783D01*
X146948585Y-107218817D01*
X146910340Y-107411085D01*
X146835321Y-107592197D01*
X146726410Y-107755193D01*
X146587793Y-107893810D01*
X146424797Y-108002721D01*
X146243685Y-108077740D01*
X146051417Y-108115985D01*
X145855383Y-108115985D01*
X145663115Y-108077740D01*
X145482003Y-108002721D01*
X145319007Y-107893810D01*
X145180390Y-107755193D01*
X145071479Y-107592197D01*
X144996460Y-107411085D01*
X144958215Y-107218817D01*
X144958215Y-107022783D01*
X144996460Y-106830515D01*
X145071479Y-106649403D01*
X145180390Y-106486407D01*
X145319007Y-106347790D01*
X145482003Y-106238879D01*
X145663115Y-106163860D01*
X145855383Y-106125615D01*
X146051417Y-106125615D01*
X146243685Y-106163860D01*
G37*
G36*
X201064142Y-106256601D02*
G01*
X201218087Y-106320367D01*
X201356634Y-106412941D01*
X201474459Y-106530766D01*
X201567033Y-106669313D01*
X201630799Y-106823258D01*
X201663307Y-106986685D01*
X201663307Y-107153315D01*
X201630799Y-107316742D01*
X201567033Y-107470687D01*
X201474459Y-107609234D01*
X201356634Y-107727059D01*
X201218087Y-107819633D01*
X201064142Y-107883399D01*
X200900715Y-107915907D01*
X200734085Y-107915907D01*
X200570658Y-107883399D01*
X200416713Y-107819633D01*
X200278166Y-107727059D01*
X200160341Y-107609234D01*
X200067767Y-107470687D01*
X200004001Y-107316742D01*
X199971493Y-107153315D01*
X199971493Y-106986685D01*
X200004001Y-106823258D01*
X200067767Y-106669313D01*
X200160341Y-106530766D01*
X200278166Y-106412941D01*
X200416713Y-106320367D01*
X200570658Y-106256601D01*
X200734085Y-106224093D01*
X200900715Y-106224093D01*
X201064142Y-106256601D01*
G37*
G36*
X201064142Y-103716601D02*
G01*
X201218087Y-103780367D01*
X201356634Y-103872941D01*
X201474459Y-103990766D01*
X201567033Y-104129313D01*
X201630799Y-104283258D01*
X201663307Y-104446685D01*
X201663307Y-104613315D01*
X201630799Y-104776742D01*
X201567033Y-104930687D01*
X201474459Y-105069234D01*
X201356634Y-105187059D01*
X201218087Y-105279633D01*
X201064142Y-105343399D01*
X200900715Y-105375907D01*
X200734085Y-105375907D01*
X200570658Y-105343399D01*
X200416713Y-105279633D01*
X200278166Y-105187059D01*
X200160341Y-105069234D01*
X200067767Y-104930687D01*
X200004001Y-104776742D01*
X199971493Y-104613315D01*
X199971493Y-104446685D01*
X200004001Y-104283258D01*
X200067767Y-104129313D01*
X200160341Y-103990766D01*
X200278166Y-103872941D01*
X200416713Y-103780367D01*
X200570658Y-103716601D01*
X200734085Y-103684093D01*
X200900715Y-103684093D01*
X201064142Y-103716601D01*
G37*
G36*
X111737285Y-103179060D02*
G01*
X111918397Y-103254079D01*
X112081393Y-103362990D01*
X112220010Y-103501607D01*
X112328921Y-103664603D01*
X112403940Y-103845715D01*
X112442185Y-104037983D01*
X112442185Y-104234017D01*
X112403940Y-104426285D01*
X112328921Y-104607397D01*
X112220010Y-104770393D01*
X112081393Y-104909010D01*
X111918397Y-105017921D01*
X111737285Y-105092940D01*
X111545017Y-105131185D01*
X111348983Y-105131185D01*
X111156715Y-105092940D01*
X110975603Y-105017921D01*
X110812607Y-104909010D01*
X110673990Y-104770393D01*
X110565079Y-104607397D01*
X110490060Y-104426285D01*
X110451815Y-104234017D01*
X110451815Y-104037983D01*
X110490060Y-103845715D01*
X110565079Y-103664603D01*
X110673990Y-103501607D01*
X110812607Y-103362990D01*
X110975603Y-103254079D01*
X111156715Y-103179060D01*
X111348983Y-103140815D01*
X111545017Y-103140815D01*
X111737285Y-103179060D01*
G37*
G36*
X146091285Y-101388660D02*
G01*
X146272397Y-101463679D01*
X146435393Y-101572590D01*
X146574010Y-101711207D01*
X146682921Y-101874203D01*
X146757940Y-102055315D01*
X146796185Y-102247583D01*
X146796185Y-102443617D01*
X146757940Y-102635885D01*
X146682921Y-102816997D01*
X146574010Y-102979993D01*
X146435393Y-103118610D01*
X146272397Y-103227521D01*
X146091285Y-103302540D01*
X145899017Y-103340785D01*
X145702983Y-103340785D01*
X145510715Y-103302540D01*
X145329603Y-103227521D01*
X145166607Y-103118610D01*
X145027990Y-102979993D01*
X144919079Y-102816997D01*
X144844060Y-102635885D01*
X144805815Y-102443617D01*
X144805815Y-102247583D01*
X144844060Y-102055315D01*
X144919079Y-101874203D01*
X145027990Y-101711207D01*
X145166607Y-101572590D01*
X145329603Y-101463679D01*
X145510715Y-101388660D01*
X145702983Y-101350415D01*
X145899017Y-101350415D01*
X146091285Y-101388660D01*
G37*
G36*
X111766285Y-100119060D02*
G01*
X111947397Y-100194079D01*
X112110393Y-100302990D01*
X112249010Y-100441607D01*
X112357921Y-100604603D01*
X112432940Y-100785715D01*
X112471185Y-100977983D01*
X112471185Y-101174017D01*
X112432940Y-101366285D01*
X112357921Y-101547397D01*
X112249010Y-101710393D01*
X112110393Y-101849010D01*
X111947397Y-101957921D01*
X111766285Y-102032940D01*
X111574017Y-102071185D01*
X111377983Y-102071185D01*
X111185715Y-102032940D01*
X111004603Y-101957921D01*
X110841607Y-101849010D01*
X110702990Y-101710393D01*
X110594079Y-101547397D01*
X110519060Y-101366285D01*
X110480815Y-101174017D01*
X110480815Y-100977983D01*
X110519060Y-100785715D01*
X110594079Y-100604603D01*
X110702990Y-100441607D01*
X110841607Y-100302990D01*
X111004603Y-100194079D01*
X111185715Y-100119060D01*
X111377983Y-100080815D01*
X111574017Y-100080815D01*
X111766285Y-100119060D01*
G37*
G36*
X201480000Y-100126000D02*
G01*
X199780000Y-100126000D01*
X199780000Y-98426000D01*
X201480000Y-98426000D01*
X201480000Y-100126000D01*
G37*
G36*
X111766285Y-97019060D02*
G01*
X111947397Y-97094079D01*
X112110393Y-97202990D01*
X112249010Y-97341607D01*
X112357921Y-97504603D01*
X112432940Y-97685715D01*
X112471185Y-97877983D01*
X112471185Y-98074017D01*
X112432940Y-98266285D01*
X112357921Y-98447397D01*
X112249010Y-98610393D01*
X112110393Y-98749010D01*
X111947397Y-98857921D01*
X111766285Y-98932940D01*
X111574017Y-98971185D01*
X111377983Y-98971185D01*
X111185715Y-98932940D01*
X111004603Y-98857921D01*
X110841607Y-98749010D01*
X110702990Y-98610393D01*
X110594079Y-98447397D01*
X110519060Y-98266285D01*
X110480815Y-98074017D01*
X110480815Y-97877983D01*
X110519060Y-97685715D01*
X110594079Y-97504603D01*
X110702990Y-97341607D01*
X110841607Y-97202990D01*
X111004603Y-97094079D01*
X111185715Y-97019060D01*
X111377983Y-96980815D01*
X111574017Y-96980815D01*
X111766285Y-97019060D01*
G37*
G36*
X200876742Y-95922601D02*
G01*
X201030687Y-95986367D01*
X201169234Y-96078941D01*
X201287059Y-96196766D01*
X201379633Y-96335313D01*
X201443399Y-96489258D01*
X201475907Y-96652685D01*
X201475907Y-96819315D01*
X201443399Y-96982742D01*
X201379633Y-97136687D01*
X201287059Y-97275234D01*
X201169234Y-97393059D01*
X201030687Y-97485633D01*
X200876742Y-97549399D01*
X200713315Y-97581907D01*
X200546685Y-97581907D01*
X200383258Y-97549399D01*
X200229313Y-97485633D01*
X200090766Y-97393059D01*
X199972941Y-97275234D01*
X199880367Y-97136687D01*
X199816601Y-96982742D01*
X199784093Y-96819315D01*
X199784093Y-96652685D01*
X199816601Y-96489258D01*
X199880367Y-96335313D01*
X199972941Y-96196766D01*
X200090766Y-96078941D01*
X200229313Y-95986367D01*
X200383258Y-95922601D01*
X200546685Y-95890093D01*
X200713315Y-95890093D01*
X200876742Y-95922601D01*
G37*
G36*
X111487285Y-93879060D02*
G01*
X111668397Y-93954079D01*
X111831393Y-94062990D01*
X111970010Y-94201607D01*
X112078921Y-94364603D01*
X112153940Y-94545715D01*
X112192185Y-94737983D01*
X112192185Y-94934017D01*
X112153940Y-95126285D01*
X112078921Y-95307397D01*
X111970010Y-95470393D01*
X111831393Y-95609010D01*
X111668397Y-95717921D01*
X111487285Y-95792940D01*
X111295017Y-95831185D01*
X111098983Y-95831185D01*
X110906715Y-95792940D01*
X110725603Y-95717921D01*
X110562607Y-95609010D01*
X110423990Y-95470393D01*
X110315079Y-95307397D01*
X110240060Y-95126285D01*
X110201815Y-94934017D01*
X110201815Y-94737983D01*
X110240060Y-94545715D01*
X110315079Y-94364603D01*
X110423990Y-94201607D01*
X110562607Y-94062990D01*
X110725603Y-93954079D01*
X110906715Y-93879060D01*
X111098983Y-93840815D01*
X111295017Y-93840815D01*
X111487285Y-93879060D01*
G37*
G36*
X200876742Y-93382601D02*
G01*
X201030687Y-93446367D01*
X201169234Y-93538941D01*
X201287059Y-93656766D01*
X201379633Y-93795313D01*
X201443399Y-93949258D01*
X201475907Y-94112685D01*
X201475907Y-94279315D01*
X201443399Y-94442742D01*
X201379633Y-94596687D01*
X201287059Y-94735234D01*
X201169234Y-94853059D01*
X201030687Y-94945633D01*
X200876742Y-95009399D01*
X200713315Y-95041907D01*
X200546685Y-95041907D01*
X200383258Y-95009399D01*
X200229313Y-94945633D01*
X200090766Y-94853059D01*
X199972941Y-94735234D01*
X199880367Y-94596687D01*
X199816601Y-94442742D01*
X199784093Y-94279315D01*
X199784093Y-94112685D01*
X199816601Y-93949258D01*
X199880367Y-93795313D01*
X199972941Y-93656766D01*
X200090766Y-93538941D01*
X200229313Y-93446367D01*
X200383258Y-93382601D01*
X200546685Y-93350093D01*
X200713315Y-93350093D01*
X200876742Y-93382601D01*
G37*
G36*
X109931744Y-89264245D02*
G01*
X109985555Y-89266889D01*
X109992178Y-89268206D01*
X110006316Y-89269133D01*
X110033622Y-89276449D01*
X110102100Y-89290070D01*
X110134423Y-89303459D01*
X110157610Y-89309672D01*
X110178401Y-89321676D01*
X110210722Y-89335064D01*
X110268770Y-89373850D01*
X110293257Y-89387988D01*
X110299959Y-89394690D01*
X110308482Y-89400385D01*
X110391614Y-89483517D01*
X110397308Y-89492039D01*
X110404012Y-89498743D01*
X110418151Y-89523233D01*
X110456935Y-89581277D01*
X110470321Y-89613594D01*
X110482328Y-89634390D01*
X110488541Y-89657580D01*
X110501929Y-89689899D01*
X110515548Y-89758371D01*
X110522867Y-89785684D01*
X110522867Y-89795164D01*
X110524866Y-89805214D01*
X110524866Y-89922785D01*
X110522867Y-89932834D01*
X110522867Y-89942316D01*
X110515547Y-89969631D01*
X110501929Y-90038100D01*
X110488542Y-90070416D01*
X110482328Y-90093610D01*
X110470320Y-90114407D01*
X110456935Y-90146722D01*
X110418155Y-90204759D01*
X110404012Y-90229257D01*
X110397306Y-90235962D01*
X110391614Y-90244482D01*
X110308482Y-90327614D01*
X110299962Y-90333306D01*
X110293257Y-90340012D01*
X110268759Y-90354155D01*
X110210722Y-90392935D01*
X110178407Y-90406320D01*
X110157610Y-90418328D01*
X110134416Y-90424542D01*
X110102100Y-90437929D01*
X110033636Y-90451546D01*
X110006316Y-90458867D01*
X109992170Y-90459794D01*
X109985555Y-90461110D01*
X109931749Y-90463754D01*
X109928000Y-90464000D01*
X109926749Y-90464000D01*
X109379251Y-90464000D01*
X109378000Y-90464000D01*
X109374250Y-90463754D01*
X109320444Y-90461110D01*
X109313827Y-90459794D01*
X109299684Y-90458867D01*
X109272366Y-90451547D01*
X109203899Y-90437929D01*
X109171580Y-90424541D01*
X109148390Y-90418328D01*
X109127594Y-90406321D01*
X109095277Y-90392935D01*
X109037233Y-90354151D01*
X109012743Y-90340012D01*
X109006039Y-90333308D01*
X108997517Y-90327614D01*
X108914385Y-90244482D01*
X108908690Y-90235959D01*
X108901988Y-90229257D01*
X108887850Y-90204770D01*
X108849064Y-90146722D01*
X108835676Y-90114401D01*
X108823672Y-90093610D01*
X108817459Y-90070423D01*
X108804070Y-90038100D01*
X108790450Y-89969625D01*
X108783133Y-89942316D01*
X108783133Y-89932835D01*
X108781134Y-89922785D01*
X108781134Y-89805214D01*
X108783133Y-89795163D01*
X108783133Y-89785684D01*
X108790449Y-89758377D01*
X108804070Y-89689899D01*
X108817459Y-89657573D01*
X108823672Y-89634390D01*
X108835674Y-89613600D01*
X108849064Y-89581277D01*
X108887854Y-89523222D01*
X108901988Y-89498743D01*
X108908688Y-89492042D01*
X108914385Y-89483517D01*
X108997517Y-89400385D01*
X109006042Y-89394688D01*
X109012743Y-89387988D01*
X109037222Y-89373854D01*
X109095277Y-89335064D01*
X109127600Y-89321674D01*
X109148390Y-89309672D01*
X109171573Y-89303459D01*
X109203899Y-89290070D01*
X109272380Y-89276448D01*
X109299684Y-89269133D01*
X109313820Y-89268206D01*
X109320444Y-89266889D01*
X109374256Y-89264245D01*
X109378000Y-89264000D01*
X109928000Y-89264000D01*
X109931744Y-89264245D01*
G37*
G36*
X110282116Y-87264818D02*
G01*
X110333379Y-87270766D01*
X110350892Y-87278499D01*
X110373671Y-87283030D01*
X110398057Y-87299324D01*
X110418788Y-87308478D01*
X110432946Y-87322636D01*
X110454777Y-87337223D01*
X110469363Y-87359053D01*
X110483521Y-87373211D01*
X110492673Y-87393939D01*
X110508970Y-87418329D01*
X110513501Y-87441109D01*
X110521233Y-87458620D01*
X110527178Y-87509872D01*
X110528000Y-87514000D01*
X110528000Y-88214000D01*
X110527178Y-88218128D01*
X110521233Y-88269379D01*
X110513501Y-88286888D01*
X110508970Y-88309671D01*
X110492672Y-88334062D01*
X110483521Y-88354788D01*
X110469365Y-88368943D01*
X110454777Y-88390777D01*
X110432943Y-88405365D01*
X110418788Y-88419521D01*
X110398062Y-88428672D01*
X110373671Y-88444970D01*
X110350888Y-88449501D01*
X110333379Y-88457233D01*
X110282129Y-88463178D01*
X110278000Y-88464000D01*
X109028000Y-88464000D01*
X109023873Y-88463179D01*
X108972620Y-88457233D01*
X108955109Y-88449501D01*
X108932329Y-88444970D01*
X108907939Y-88428673D01*
X108887211Y-88419521D01*
X108873053Y-88405363D01*
X108851223Y-88390777D01*
X108836636Y-88368946D01*
X108822478Y-88354788D01*
X108813324Y-88334057D01*
X108797030Y-88309671D01*
X108792499Y-88286892D01*
X108784766Y-88269379D01*
X108778818Y-88218117D01*
X108778000Y-88214000D01*
X108778000Y-87514000D01*
X108778818Y-87509885D01*
X108784766Y-87458620D01*
X108792499Y-87441105D01*
X108797030Y-87418329D01*
X108813323Y-87393944D01*
X108822478Y-87373211D01*
X108836638Y-87359050D01*
X108851223Y-87337223D01*
X108873050Y-87322638D01*
X108887211Y-87308478D01*
X108907944Y-87299323D01*
X108932329Y-87283030D01*
X108955105Y-87278499D01*
X108972620Y-87270766D01*
X109023884Y-87264818D01*
X109028000Y-87264000D01*
X110278000Y-87264000D01*
X110282116Y-87264818D01*
G37*
G36*
X154565285Y-85283060D02*
G01*
X154746397Y-85358079D01*
X154909393Y-85466990D01*
X155048010Y-85605607D01*
X155156921Y-85768603D01*
X155231940Y-85949715D01*
X155270185Y-86141983D01*
X155270185Y-86338017D01*
X155231940Y-86530285D01*
X155156921Y-86711397D01*
X155048010Y-86874393D01*
X154909393Y-87013010D01*
X154746397Y-87121921D01*
X154565285Y-87196940D01*
X154373017Y-87235185D01*
X154176983Y-87235185D01*
X153984715Y-87196940D01*
X153803603Y-87121921D01*
X153640607Y-87013010D01*
X153501990Y-86874393D01*
X153393079Y-86711397D01*
X153318060Y-86530285D01*
X153279815Y-86338017D01*
X153279815Y-86141983D01*
X153318060Y-85949715D01*
X153393079Y-85768603D01*
X153501990Y-85605607D01*
X153640607Y-85466990D01*
X153803603Y-85358079D01*
X153984715Y-85283060D01*
X154176983Y-85244815D01*
X154373017Y-85244815D01*
X154565285Y-85283060D01*
G37*
G36*
X159010285Y-85283060D02*
G01*
X159191397Y-85358079D01*
X159354393Y-85466990D01*
X159493010Y-85605607D01*
X159601921Y-85768603D01*
X159676940Y-85949715D01*
X159715185Y-86141983D01*
X159715185Y-86338017D01*
X159676940Y-86530285D01*
X159601921Y-86711397D01*
X159493010Y-86874393D01*
X159354393Y-87013010D01*
X159191397Y-87121921D01*
X159010285Y-87196940D01*
X158818017Y-87235185D01*
X158621983Y-87235185D01*
X158429715Y-87196940D01*
X158248603Y-87121921D01*
X158085607Y-87013010D01*
X157946990Y-86874393D01*
X157838079Y-86711397D01*
X157763060Y-86530285D01*
X157724815Y-86338017D01*
X157724815Y-86141983D01*
X157763060Y-85949715D01*
X157838079Y-85768603D01*
X157946990Y-85605607D01*
X158085607Y-85466990D01*
X158248603Y-85358079D01*
X158429715Y-85283060D01*
X158621983Y-85244815D01*
X158818017Y-85244815D01*
X159010285Y-85283060D01*
G37*
G36*
X200876742Y-80346601D02*
G01*
X201030687Y-80410367D01*
X201169234Y-80502941D01*
X201287059Y-80620766D01*
X201379633Y-80759313D01*
X201443399Y-80913258D01*
X201475907Y-81076685D01*
X201475907Y-81243315D01*
X201443399Y-81406742D01*
X201379633Y-81560687D01*
X201287059Y-81699234D01*
X201169234Y-81817059D01*
X201030687Y-81909633D01*
X200876742Y-81973399D01*
X200713315Y-82005907D01*
X200546685Y-82005907D01*
X200383258Y-81973399D01*
X200229313Y-81909633D01*
X200090766Y-81817059D01*
X199972941Y-81699234D01*
X199880367Y-81560687D01*
X199816601Y-81406742D01*
X199784093Y-81243315D01*
X199784093Y-81076685D01*
X199816601Y-80913258D01*
X199880367Y-80759313D01*
X199972941Y-80620766D01*
X200090766Y-80502941D01*
X200229313Y-80410367D01*
X200383258Y-80346601D01*
X200546685Y-80314093D01*
X200713315Y-80314093D01*
X200876742Y-80346601D01*
G37*
G36*
X200876742Y-77806601D02*
G01*
X201030687Y-77870367D01*
X201169234Y-77962941D01*
X201287059Y-78080766D01*
X201379633Y-78219313D01*
X201443399Y-78373258D01*
X201475907Y-78536685D01*
X201475907Y-78703315D01*
X201443399Y-78866742D01*
X201379633Y-79020687D01*
X201287059Y-79159234D01*
X201169234Y-79277059D01*
X201030687Y-79369633D01*
X200876742Y-79433399D01*
X200713315Y-79465907D01*
X200546685Y-79465907D01*
X200383258Y-79433399D01*
X200229313Y-79369633D01*
X200090766Y-79277059D01*
X199972941Y-79159234D01*
X199880367Y-79020687D01*
X199816601Y-78866742D01*
X199784093Y-78703315D01*
X199784093Y-78536685D01*
X199816601Y-78373258D01*
X199880367Y-78219313D01*
X199972941Y-78080766D01*
X200090766Y-77962941D01*
X200229313Y-77870367D01*
X200383258Y-77806601D01*
X200546685Y-77774093D01*
X200713315Y-77774093D01*
X200876742Y-77806601D01*
G37*
G36*
X126625285Y-76393060D02*
G01*
X126806397Y-76468079D01*
X126969393Y-76576990D01*
X127108010Y-76715607D01*
X127216921Y-76878603D01*
X127291940Y-77059715D01*
X127330185Y-77251983D01*
X127330185Y-77448017D01*
X127291940Y-77640285D01*
X127216921Y-77821397D01*
X127108010Y-77984393D01*
X126969393Y-78123010D01*
X126806397Y-78231921D01*
X126625285Y-78306940D01*
X126433017Y-78345185D01*
X126236983Y-78345185D01*
X126044715Y-78306940D01*
X125863603Y-78231921D01*
X125700607Y-78123010D01*
X125561990Y-77984393D01*
X125453079Y-77821397D01*
X125378060Y-77640285D01*
X125339815Y-77448017D01*
X125339815Y-77251983D01*
X125378060Y-77059715D01*
X125453079Y-76878603D01*
X125561990Y-76715607D01*
X125700607Y-76576990D01*
X125863603Y-76468079D01*
X126044715Y-76393060D01*
X126236983Y-76354815D01*
X126433017Y-76354815D01*
X126625285Y-76393060D01*
G37*
G36*
X129800285Y-76393060D02*
G01*
X129981397Y-76468079D01*
X130144393Y-76576990D01*
X130283010Y-76715607D01*
X130391921Y-76878603D01*
X130466940Y-77059715D01*
X130505185Y-77251983D01*
X130505185Y-77448017D01*
X130466940Y-77640285D01*
X130391921Y-77821397D01*
X130283010Y-77984393D01*
X130144393Y-78123010D01*
X129981397Y-78231921D01*
X129800285Y-78306940D01*
X129608017Y-78345185D01*
X129411983Y-78345185D01*
X129219715Y-78306940D01*
X129038603Y-78231921D01*
X128875607Y-78123010D01*
X128736990Y-77984393D01*
X128628079Y-77821397D01*
X128553060Y-77640285D01*
X128514815Y-77448017D01*
X128514815Y-77251983D01*
X128553060Y-77059715D01*
X128628079Y-76878603D01*
X128736990Y-76715607D01*
X128875607Y-76576990D01*
X129038603Y-76468079D01*
X129219715Y-76393060D01*
X129411983Y-76354815D01*
X129608017Y-76354815D01*
X129800285Y-76393060D01*
G37*
G36*
X132975285Y-76393060D02*
G01*
X133156397Y-76468079D01*
X133319393Y-76576990D01*
X133458010Y-76715607D01*
X133566921Y-76878603D01*
X133641940Y-77059715D01*
X133680185Y-77251983D01*
X133680185Y-77448017D01*
X133641940Y-77640285D01*
X133566921Y-77821397D01*
X133458010Y-77984393D01*
X133319393Y-78123010D01*
X133156397Y-78231921D01*
X132975285Y-78306940D01*
X132783017Y-78345185D01*
X132586983Y-78345185D01*
X132394715Y-78306940D01*
X132213603Y-78231921D01*
X132050607Y-78123010D01*
X131911990Y-77984393D01*
X131803079Y-77821397D01*
X131728060Y-77640285D01*
X131689815Y-77448017D01*
X131689815Y-77251983D01*
X131728060Y-77059715D01*
X131803079Y-76878603D01*
X131911990Y-76715607D01*
X132050607Y-76576990D01*
X132213603Y-76468079D01*
X132394715Y-76393060D01*
X132586983Y-76354815D01*
X132783017Y-76354815D01*
X132975285Y-76393060D01*
G37*
G36*
X136150285Y-76393060D02*
G01*
X136331397Y-76468079D01*
X136494393Y-76576990D01*
X136633010Y-76715607D01*
X136741921Y-76878603D01*
X136816940Y-77059715D01*
X136855185Y-77251983D01*
X136855185Y-77448017D01*
X136816940Y-77640285D01*
X136741921Y-77821397D01*
X136633010Y-77984393D01*
X136494393Y-78123010D01*
X136331397Y-78231921D01*
X136150285Y-78306940D01*
X135958017Y-78345185D01*
X135761983Y-78345185D01*
X135569715Y-78306940D01*
X135388603Y-78231921D01*
X135225607Y-78123010D01*
X135086990Y-77984393D01*
X134978079Y-77821397D01*
X134903060Y-77640285D01*
X134864815Y-77448017D01*
X134864815Y-77251983D01*
X134903060Y-77059715D01*
X134978079Y-76878603D01*
X135086990Y-76715607D01*
X135225607Y-76576990D01*
X135388603Y-76468079D01*
X135569715Y-76393060D01*
X135761983Y-76354815D01*
X135958017Y-76354815D01*
X136150285Y-76393060D01*
G37*
G36*
X139325285Y-76393060D02*
G01*
X139506397Y-76468079D01*
X139669393Y-76576990D01*
X139808010Y-76715607D01*
X139916921Y-76878603D01*
X139991940Y-77059715D01*
X140030185Y-77251983D01*
X140030185Y-77448017D01*
X139991940Y-77640285D01*
X139916921Y-77821397D01*
X139808010Y-77984393D01*
X139669393Y-78123010D01*
X139506397Y-78231921D01*
X139325285Y-78306940D01*
X139133017Y-78345185D01*
X138936983Y-78345185D01*
X138744715Y-78306940D01*
X138563603Y-78231921D01*
X138400607Y-78123010D01*
X138261990Y-77984393D01*
X138153079Y-77821397D01*
X138078060Y-77640285D01*
X138039815Y-77448017D01*
X138039815Y-77251983D01*
X138078060Y-77059715D01*
X138153079Y-76878603D01*
X138261990Y-76715607D01*
X138400607Y-76576990D01*
X138563603Y-76468079D01*
X138744715Y-76393060D01*
X138936983Y-76354815D01*
X139133017Y-76354815D01*
X139325285Y-76393060D01*
G37*
G36*
X142500285Y-76393060D02*
G01*
X142681397Y-76468079D01*
X142844393Y-76576990D01*
X142983010Y-76715607D01*
X143091921Y-76878603D01*
X143166940Y-77059715D01*
X143205185Y-77251983D01*
X143205185Y-77448017D01*
X143166940Y-77640285D01*
X143091921Y-77821397D01*
X142983010Y-77984393D01*
X142844393Y-78123010D01*
X142681397Y-78231921D01*
X142500285Y-78306940D01*
X142308017Y-78345185D01*
X142111983Y-78345185D01*
X141919715Y-78306940D01*
X141738603Y-78231921D01*
X141575607Y-78123010D01*
X141436990Y-77984393D01*
X141328079Y-77821397D01*
X141253060Y-77640285D01*
X141214815Y-77448017D01*
X141214815Y-77251983D01*
X141253060Y-77059715D01*
X141328079Y-76878603D01*
X141436990Y-76715607D01*
X141575607Y-76576990D01*
X141738603Y-76468079D01*
X141919715Y-76393060D01*
X142111983Y-76354815D01*
X142308017Y-76354815D01*
X142500285Y-76393060D01*
G37*
G36*
X145675285Y-76393060D02*
G01*
X145856397Y-76468079D01*
X146019393Y-76576990D01*
X146158010Y-76715607D01*
X146266921Y-76878603D01*
X146341940Y-77059715D01*
X146380185Y-77251983D01*
X146380185Y-77448017D01*
X146341940Y-77640285D01*
X146266921Y-77821397D01*
X146158010Y-77984393D01*
X146019393Y-78123010D01*
X145856397Y-78231921D01*
X145675285Y-78306940D01*
X145483017Y-78345185D01*
X145286983Y-78345185D01*
X145094715Y-78306940D01*
X144913603Y-78231921D01*
X144750607Y-78123010D01*
X144611990Y-77984393D01*
X144503079Y-77821397D01*
X144428060Y-77640285D01*
X144389815Y-77448017D01*
X144389815Y-77251983D01*
X144428060Y-77059715D01*
X144503079Y-76878603D01*
X144611990Y-76715607D01*
X144750607Y-76576990D01*
X144913603Y-76468079D01*
X145094715Y-76393060D01*
X145286983Y-76354815D01*
X145483017Y-76354815D01*
X145675285Y-76393060D01*
G37*
G36*
X201480000Y-76930000D02*
G01*
X199780000Y-76930000D01*
X199780000Y-75230000D01*
X201480000Y-75230000D01*
X201480000Y-76930000D01*
G37*
G36*
X169630000Y-76411000D02*
G01*
X168130000Y-76411000D01*
X168130000Y-74911000D01*
X169630000Y-74911000D01*
X169630000Y-76411000D01*
G37*
G36*
X171637714Y-74943295D02*
G01*
X171773548Y-74999559D01*
X171895795Y-75081242D01*
X171999758Y-75185205D01*
X172081441Y-75307452D01*
X172137705Y-75443286D01*
X172166389Y-75587487D01*
X172166389Y-75734513D01*
X172137705Y-75878714D01*
X172081441Y-76014548D01*
X171999758Y-76136795D01*
X171895795Y-76240758D01*
X171773548Y-76322441D01*
X171637714Y-76378705D01*
X171493513Y-76407389D01*
X171346487Y-76407389D01*
X171202286Y-76378705D01*
X171066452Y-76322441D01*
X170944205Y-76240758D01*
X170840242Y-76136795D01*
X170758559Y-76014548D01*
X170702295Y-75878714D01*
X170673611Y-75734513D01*
X170673611Y-75587487D01*
X170702295Y-75443286D01*
X170758559Y-75307452D01*
X170840242Y-75185205D01*
X170944205Y-75081242D01*
X171066452Y-74999559D01*
X171202286Y-74943295D01*
X171346487Y-74914611D01*
X171493513Y-74914611D01*
X171637714Y-74943295D01*
G37*
G36*
X174177714Y-74943295D02*
G01*
X174313548Y-74999559D01*
X174435795Y-75081242D01*
X174539758Y-75185205D01*
X174621441Y-75307452D01*
X174677705Y-75443286D01*
X174706389Y-75587487D01*
X174706389Y-75734513D01*
X174677705Y-75878714D01*
X174621441Y-76014548D01*
X174539758Y-76136795D01*
X174435795Y-76240758D01*
X174313548Y-76322441D01*
X174177714Y-76378705D01*
X174033513Y-76407389D01*
X173886487Y-76407389D01*
X173742286Y-76378705D01*
X173606452Y-76322441D01*
X173484205Y-76240758D01*
X173380242Y-76136795D01*
X173298559Y-76014548D01*
X173242295Y-75878714D01*
X173213611Y-75734513D01*
X173213611Y-75587487D01*
X173242295Y-75443286D01*
X173298559Y-75307452D01*
X173380242Y-75185205D01*
X173484205Y-75081242D01*
X173606452Y-74999559D01*
X173742286Y-74943295D01*
X173886487Y-74914611D01*
X174033513Y-74914611D01*
X174177714Y-74943295D01*
G37*
G36*
X176717714Y-74943295D02*
G01*
X176853548Y-74999559D01*
X176975795Y-75081242D01*
X177079758Y-75185205D01*
X177161441Y-75307452D01*
X177217705Y-75443286D01*
X177246389Y-75587487D01*
X177246389Y-75734513D01*
X177217705Y-75878714D01*
X177161441Y-76014548D01*
X177079758Y-76136795D01*
X176975795Y-76240758D01*
X176853548Y-76322441D01*
X176717714Y-76378705D01*
X176573513Y-76407389D01*
X176426487Y-76407389D01*
X176282286Y-76378705D01*
X176146452Y-76322441D01*
X176024205Y-76240758D01*
X175920242Y-76136795D01*
X175838559Y-76014548D01*
X175782295Y-75878714D01*
X175753611Y-75734513D01*
X175753611Y-75587487D01*
X175782295Y-75443286D01*
X175838559Y-75307452D01*
X175920242Y-75185205D01*
X176024205Y-75081242D01*
X176146452Y-74999559D01*
X176282286Y-74943295D01*
X176426487Y-74914611D01*
X176573513Y-74914611D01*
X176717714Y-74943295D01*
G37*
G36*
X179257714Y-74943295D02*
G01*
X179393548Y-74999559D01*
X179515795Y-75081242D01*
X179619758Y-75185205D01*
X179701441Y-75307452D01*
X179757705Y-75443286D01*
X179786389Y-75587487D01*
X179786389Y-75734513D01*
X179757705Y-75878714D01*
X179701441Y-76014548D01*
X179619758Y-76136795D01*
X179515795Y-76240758D01*
X179393548Y-76322441D01*
X179257714Y-76378705D01*
X179113513Y-76407389D01*
X178966487Y-76407389D01*
X178822286Y-76378705D01*
X178686452Y-76322441D01*
X178564205Y-76240758D01*
X178460242Y-76136795D01*
X178378559Y-76014548D01*
X178322295Y-75878714D01*
X178293611Y-75734513D01*
X178293611Y-75587487D01*
X178322295Y-75443286D01*
X178378559Y-75307452D01*
X178460242Y-75185205D01*
X178564205Y-75081242D01*
X178686452Y-74999559D01*
X178822286Y-74943295D01*
X178966487Y-74914611D01*
X179113513Y-74914611D01*
X179257714Y-74943295D01*
G37*
G36*
X181797714Y-74943295D02*
G01*
X181933548Y-74999559D01*
X182055795Y-75081242D01*
X182159758Y-75185205D01*
X182241441Y-75307452D01*
X182297705Y-75443286D01*
X182326389Y-75587487D01*
X182326389Y-75734513D01*
X182297705Y-75878714D01*
X182241441Y-76014548D01*
X182159758Y-76136795D01*
X182055795Y-76240758D01*
X181933548Y-76322441D01*
X181797714Y-76378705D01*
X181653513Y-76407389D01*
X181506487Y-76407389D01*
X181362286Y-76378705D01*
X181226452Y-76322441D01*
X181104205Y-76240758D01*
X181000242Y-76136795D01*
X180918559Y-76014548D01*
X180862295Y-75878714D01*
X180833611Y-75734513D01*
X180833611Y-75587487D01*
X180862295Y-75443286D01*
X180918559Y-75307452D01*
X181000242Y-75185205D01*
X181104205Y-75081242D01*
X181226452Y-74999559D01*
X181362286Y-74943295D01*
X181506487Y-74914611D01*
X181653513Y-74914611D01*
X181797714Y-74943295D01*
G37*
G36*
X184337714Y-74943295D02*
G01*
X184473548Y-74999559D01*
X184595795Y-75081242D01*
X184699758Y-75185205D01*
X184781441Y-75307452D01*
X184837705Y-75443286D01*
X184866389Y-75587487D01*
X184866389Y-75734513D01*
X184837705Y-75878714D01*
X184781441Y-76014548D01*
X184699758Y-76136795D01*
X184595795Y-76240758D01*
X184473548Y-76322441D01*
X184337714Y-76378705D01*
X184193513Y-76407389D01*
X184046487Y-76407389D01*
X183902286Y-76378705D01*
X183766452Y-76322441D01*
X183644205Y-76240758D01*
X183540242Y-76136795D01*
X183458559Y-76014548D01*
X183402295Y-75878714D01*
X183373611Y-75734513D01*
X183373611Y-75587487D01*
X183402295Y-75443286D01*
X183458559Y-75307452D01*
X183540242Y-75185205D01*
X183644205Y-75081242D01*
X183766452Y-74999559D01*
X183902286Y-74943295D01*
X184046487Y-74914611D01*
X184193513Y-74914611D01*
X184337714Y-74943295D01*
G37*
G36*
X145675285Y-73218060D02*
G01*
X145856397Y-73293079D01*
X146019393Y-73401990D01*
X146158010Y-73540607D01*
X146266921Y-73703603D01*
X146341940Y-73884715D01*
X146380185Y-74076983D01*
X146380185Y-74273017D01*
X146341940Y-74465285D01*
X146266921Y-74646397D01*
X146158010Y-74809393D01*
X146019393Y-74948010D01*
X145856397Y-75056921D01*
X145675285Y-75131940D01*
X145483017Y-75170185D01*
X145286983Y-75170185D01*
X145094715Y-75131940D01*
X144913603Y-75056921D01*
X144750607Y-74948010D01*
X144611990Y-74809393D01*
X144503079Y-74646397D01*
X144428060Y-74465285D01*
X144389815Y-74273017D01*
X144389815Y-74076983D01*
X144428060Y-73884715D01*
X144503079Y-73703603D01*
X144611990Y-73540607D01*
X144750607Y-73401990D01*
X144913603Y-73293079D01*
X145094715Y-73218060D01*
X145286983Y-73179815D01*
X145483017Y-73179815D01*
X145675285Y-73218060D01*
G37*
G36*
X195796742Y-70186601D02*
G01*
X195950687Y-70250367D01*
X196089234Y-70342941D01*
X196207059Y-70460766D01*
X196299633Y-70599313D01*
X196363399Y-70753258D01*
X196395907Y-70916685D01*
X196395907Y-71083315D01*
X196363399Y-71246742D01*
X196299633Y-71400687D01*
X196207059Y-71539234D01*
X196089234Y-71657059D01*
X195950687Y-71749633D01*
X195796742Y-71813399D01*
X195633315Y-71845907D01*
X195466685Y-71845907D01*
X195303258Y-71813399D01*
X195149313Y-71749633D01*
X195010766Y-71657059D01*
X194892941Y-71539234D01*
X194800367Y-71400687D01*
X194736601Y-71246742D01*
X194704093Y-71083315D01*
X194704093Y-70916685D01*
X194736601Y-70753258D01*
X194800367Y-70599313D01*
X194892941Y-70460766D01*
X195010766Y-70342941D01*
X195149313Y-70250367D01*
X195303258Y-70186601D01*
X195466685Y-70154093D01*
X195633315Y-70154093D01*
X195796742Y-70186601D01*
G37*
G36*
X198336742Y-70186601D02*
G01*
X198490687Y-70250367D01*
X198629234Y-70342941D01*
X198747059Y-70460766D01*
X198839633Y-70599313D01*
X198903399Y-70753258D01*
X198935907Y-70916685D01*
X198935907Y-71083315D01*
X198903399Y-71246742D01*
X198839633Y-71400687D01*
X198747059Y-71539234D01*
X198629234Y-71657059D01*
X198490687Y-71749633D01*
X198336742Y-71813399D01*
X198173315Y-71845907D01*
X198006685Y-71845907D01*
X197843258Y-71813399D01*
X197689313Y-71749633D01*
X197550766Y-71657059D01*
X197432941Y-71539234D01*
X197340367Y-71400687D01*
X197276601Y-71246742D01*
X197244093Y-71083315D01*
X197244093Y-70916685D01*
X197276601Y-70753258D01*
X197340367Y-70599313D01*
X197432941Y-70460766D01*
X197550766Y-70342941D01*
X197689313Y-70250367D01*
X197843258Y-70186601D01*
X198006685Y-70154093D01*
X198173315Y-70154093D01*
X198336742Y-70186601D01*
G37*
G36*
X195796742Y-67646601D02*
G01*
X195950687Y-67710367D01*
X196089234Y-67802941D01*
X196207059Y-67920766D01*
X196299633Y-68059313D01*
X196363399Y-68213258D01*
X196395907Y-68376685D01*
X196395907Y-68543315D01*
X196363399Y-68706742D01*
X196299633Y-68860687D01*
X196207059Y-68999234D01*
X196089234Y-69117059D01*
X195950687Y-69209633D01*
X195796742Y-69273399D01*
X195633315Y-69305907D01*
X195466685Y-69305907D01*
X195303258Y-69273399D01*
X195149313Y-69209633D01*
X195010766Y-69117059D01*
X194892941Y-68999234D01*
X194800367Y-68860687D01*
X194736601Y-68706742D01*
X194704093Y-68543315D01*
X194704093Y-68376685D01*
X194736601Y-68213258D01*
X194800367Y-68059313D01*
X194892941Y-67920766D01*
X195010766Y-67802941D01*
X195149313Y-67710367D01*
X195303258Y-67646601D01*
X195466685Y-67614093D01*
X195633315Y-67614093D01*
X195796742Y-67646601D01*
G37*
G36*
X198336742Y-67646601D02*
G01*
X198490687Y-67710367D01*
X198629234Y-67802941D01*
X198747059Y-67920766D01*
X198839633Y-68059313D01*
X198903399Y-68213258D01*
X198935907Y-68376685D01*
X198935907Y-68543315D01*
X198903399Y-68706742D01*
X198839633Y-68860687D01*
X198747059Y-68999234D01*
X198629234Y-69117059D01*
X198490687Y-69209633D01*
X198336742Y-69273399D01*
X198173315Y-69305907D01*
X198006685Y-69305907D01*
X197843258Y-69273399D01*
X197689313Y-69209633D01*
X197550766Y-69117059D01*
X197432941Y-68999234D01*
X197340367Y-68860687D01*
X197276601Y-68706742D01*
X197244093Y-68543315D01*
X197244093Y-68376685D01*
X197276601Y-68213258D01*
X197340367Y-68059313D01*
X197432941Y-67920766D01*
X197550766Y-67802941D01*
X197689313Y-67710367D01*
X197843258Y-67646601D01*
X198006685Y-67614093D01*
X198173315Y-67614093D01*
X198336742Y-67646601D01*
G37*
G36*
X169097714Y-67323295D02*
G01*
X169233548Y-67379559D01*
X169355795Y-67461242D01*
X169459758Y-67565205D01*
X169541441Y-67687452D01*
X169597705Y-67823286D01*
X169626389Y-67967487D01*
X169626389Y-68114513D01*
X169597705Y-68258714D01*
X169541441Y-68394548D01*
X169459758Y-68516795D01*
X169355795Y-68620758D01*
X169233548Y-68702441D01*
X169097714Y-68758705D01*
X168953513Y-68787389D01*
X168806487Y-68787389D01*
X168662286Y-68758705D01*
X168526452Y-68702441D01*
X168404205Y-68620758D01*
X168300242Y-68516795D01*
X168218559Y-68394548D01*
X168162295Y-68258714D01*
X168133611Y-68114513D01*
X168133611Y-67967487D01*
X168162295Y-67823286D01*
X168218559Y-67687452D01*
X168300242Y-67565205D01*
X168404205Y-67461242D01*
X168526452Y-67379559D01*
X168662286Y-67323295D01*
X168806487Y-67294611D01*
X168953513Y-67294611D01*
X169097714Y-67323295D01*
G37*
G36*
X171637714Y-67323295D02*
G01*
X171773548Y-67379559D01*
X171895795Y-67461242D01*
X171999758Y-67565205D01*
X172081441Y-67687452D01*
X172137705Y-67823286D01*
X172166389Y-67967487D01*
X172166389Y-68114513D01*
X172137705Y-68258714D01*
X172081441Y-68394548D01*
X171999758Y-68516795D01*
X171895795Y-68620758D01*
X171773548Y-68702441D01*
X171637714Y-68758705D01*
X171493513Y-68787389D01*
X171346487Y-68787389D01*
X171202286Y-68758705D01*
X171066452Y-68702441D01*
X170944205Y-68620758D01*
X170840242Y-68516795D01*
X170758559Y-68394548D01*
X170702295Y-68258714D01*
X170673611Y-68114513D01*
X170673611Y-67967487D01*
X170702295Y-67823286D01*
X170758559Y-67687452D01*
X170840242Y-67565205D01*
X170944205Y-67461242D01*
X171066452Y-67379559D01*
X171202286Y-67323295D01*
X171346487Y-67294611D01*
X171493513Y-67294611D01*
X171637714Y-67323295D01*
G37*
G36*
X174177714Y-67323295D02*
G01*
X174313548Y-67379559D01*
X174435795Y-67461242D01*
X174539758Y-67565205D01*
X174621441Y-67687452D01*
X174677705Y-67823286D01*
X174706389Y-67967487D01*
X174706389Y-68114513D01*
X174677705Y-68258714D01*
X174621441Y-68394548D01*
X174539758Y-68516795D01*
X174435795Y-68620758D01*
X174313548Y-68702441D01*
X174177714Y-68758705D01*
X174033513Y-68787389D01*
X173886487Y-68787389D01*
X173742286Y-68758705D01*
X173606452Y-68702441D01*
X173484205Y-68620758D01*
X173380242Y-68516795D01*
X173298559Y-68394548D01*
X173242295Y-68258714D01*
X173213611Y-68114513D01*
X173213611Y-67967487D01*
X173242295Y-67823286D01*
X173298559Y-67687452D01*
X173380242Y-67565205D01*
X173484205Y-67461242D01*
X173606452Y-67379559D01*
X173742286Y-67323295D01*
X173886487Y-67294611D01*
X174033513Y-67294611D01*
X174177714Y-67323295D01*
G37*
G36*
X176717714Y-67323295D02*
G01*
X176853548Y-67379559D01*
X176975795Y-67461242D01*
X177079758Y-67565205D01*
X177161441Y-67687452D01*
X177217705Y-67823286D01*
X177246389Y-67967487D01*
X177246389Y-68114513D01*
X177217705Y-68258714D01*
X177161441Y-68394548D01*
X177079758Y-68516795D01*
X176975795Y-68620758D01*
X176853548Y-68702441D01*
X176717714Y-68758705D01*
X176573513Y-68787389D01*
X176426487Y-68787389D01*
X176282286Y-68758705D01*
X176146452Y-68702441D01*
X176024205Y-68620758D01*
X175920242Y-68516795D01*
X175838559Y-68394548D01*
X175782295Y-68258714D01*
X175753611Y-68114513D01*
X175753611Y-67967487D01*
X175782295Y-67823286D01*
X175838559Y-67687452D01*
X175920242Y-67565205D01*
X176024205Y-67461242D01*
X176146452Y-67379559D01*
X176282286Y-67323295D01*
X176426487Y-67294611D01*
X176573513Y-67294611D01*
X176717714Y-67323295D01*
G37*
G36*
X179257714Y-67323295D02*
G01*
X179393548Y-67379559D01*
X179515795Y-67461242D01*
X179619758Y-67565205D01*
X179701441Y-67687452D01*
X179757705Y-67823286D01*
X179786389Y-67967487D01*
X179786389Y-68114513D01*
X179757705Y-68258714D01*
X179701441Y-68394548D01*
X179619758Y-68516795D01*
X179515795Y-68620758D01*
X179393548Y-68702441D01*
X179257714Y-68758705D01*
X179113513Y-68787389D01*
X178966487Y-68787389D01*
X178822286Y-68758705D01*
X178686452Y-68702441D01*
X178564205Y-68620758D01*
X178460242Y-68516795D01*
X178378559Y-68394548D01*
X178322295Y-68258714D01*
X178293611Y-68114513D01*
X178293611Y-67967487D01*
X178322295Y-67823286D01*
X178378559Y-67687452D01*
X178460242Y-67565205D01*
X178564205Y-67461242D01*
X178686452Y-67379559D01*
X178822286Y-67323295D01*
X178966487Y-67294611D01*
X179113513Y-67294611D01*
X179257714Y-67323295D01*
G37*
G36*
X181797714Y-67323295D02*
G01*
X181933548Y-67379559D01*
X182055795Y-67461242D01*
X182159758Y-67565205D01*
X182241441Y-67687452D01*
X182297705Y-67823286D01*
X182326389Y-67967487D01*
X182326389Y-68114513D01*
X182297705Y-68258714D01*
X182241441Y-68394548D01*
X182159758Y-68516795D01*
X182055795Y-68620758D01*
X181933548Y-68702441D01*
X181797714Y-68758705D01*
X181653513Y-68787389D01*
X181506487Y-68787389D01*
X181362286Y-68758705D01*
X181226452Y-68702441D01*
X181104205Y-68620758D01*
X181000242Y-68516795D01*
X180918559Y-68394548D01*
X180862295Y-68258714D01*
X180833611Y-68114513D01*
X180833611Y-67967487D01*
X180862295Y-67823286D01*
X180918559Y-67687452D01*
X181000242Y-67565205D01*
X181104205Y-67461242D01*
X181226452Y-67379559D01*
X181362286Y-67323295D01*
X181506487Y-67294611D01*
X181653513Y-67294611D01*
X181797714Y-67323295D01*
G37*
G36*
X184337714Y-67323295D02*
G01*
X184473548Y-67379559D01*
X184595795Y-67461242D01*
X184699758Y-67565205D01*
X184781441Y-67687452D01*
X184837705Y-67823286D01*
X184866389Y-67967487D01*
X184866389Y-68114513D01*
X184837705Y-68258714D01*
X184781441Y-68394548D01*
X184699758Y-68516795D01*
X184595795Y-68620758D01*
X184473548Y-68702441D01*
X184337714Y-68758705D01*
X184193513Y-68787389D01*
X184046487Y-68787389D01*
X183902286Y-68758705D01*
X183766452Y-68702441D01*
X183644205Y-68620758D01*
X183540242Y-68516795D01*
X183458559Y-68394548D01*
X183402295Y-68258714D01*
X183373611Y-68114513D01*
X183373611Y-67967487D01*
X183402295Y-67823286D01*
X183458559Y-67687452D01*
X183540242Y-67565205D01*
X183644205Y-67461242D01*
X183766452Y-67379559D01*
X183902286Y-67323295D01*
X184046487Y-67294611D01*
X184193513Y-67294611D01*
X184337714Y-67323295D01*
G37*
G36*
X195796742Y-65106601D02*
G01*
X195950687Y-65170367D01*
X196089234Y-65262941D01*
X196207059Y-65380766D01*
X196299633Y-65519313D01*
X196363399Y-65673258D01*
X196395907Y-65836685D01*
X196395907Y-66003315D01*
X196363399Y-66166742D01*
X196299633Y-66320687D01*
X196207059Y-66459234D01*
X196089234Y-66577059D01*
X195950687Y-66669633D01*
X195796742Y-66733399D01*
X195633315Y-66765907D01*
X195466685Y-66765907D01*
X195303258Y-66733399D01*
X195149313Y-66669633D01*
X195010766Y-66577059D01*
X194892941Y-66459234D01*
X194800367Y-66320687D01*
X194736601Y-66166742D01*
X194704093Y-66003315D01*
X194704093Y-65836685D01*
X194736601Y-65673258D01*
X194800367Y-65519313D01*
X194892941Y-65380766D01*
X195010766Y-65262941D01*
X195149313Y-65170367D01*
X195303258Y-65106601D01*
X195466685Y-65074093D01*
X195633315Y-65074093D01*
X195796742Y-65106601D01*
G37*
G36*
X198336742Y-65106601D02*
G01*
X198490687Y-65170367D01*
X198629234Y-65262941D01*
X198747059Y-65380766D01*
X198839633Y-65519313D01*
X198903399Y-65673258D01*
X198935907Y-65836685D01*
X198935907Y-66003315D01*
X198903399Y-66166742D01*
X198839633Y-66320687D01*
X198747059Y-66459234D01*
X198629234Y-66577059D01*
X198490687Y-66669633D01*
X198336742Y-66733399D01*
X198173315Y-66765907D01*
X198006685Y-66765907D01*
X197843258Y-66733399D01*
X197689313Y-66669633D01*
X197550766Y-66577059D01*
X197432941Y-66459234D01*
X197340367Y-66320687D01*
X197276601Y-66166742D01*
X197244093Y-66003315D01*
X197244093Y-65836685D01*
X197276601Y-65673258D01*
X197340367Y-65519313D01*
X197432941Y-65380766D01*
X197550766Y-65262941D01*
X197689313Y-65170367D01*
X197843258Y-65106601D01*
X198006685Y-65074093D01*
X198173315Y-65074093D01*
X198336742Y-65106601D01*
G37*
G36*
X169630000Y-64887000D02*
G01*
X168130000Y-64887000D01*
X168130000Y-63387000D01*
X169630000Y-63387000D01*
X169630000Y-64887000D01*
G37*
G36*
X171637714Y-63419295D02*
G01*
X171773548Y-63475559D01*
X171895795Y-63557242D01*
X171999758Y-63661205D01*
X172081441Y-63783452D01*
X172137705Y-63919286D01*
X172166389Y-64063487D01*
X172166389Y-64210513D01*
X172137705Y-64354714D01*
X172081441Y-64490548D01*
X171999758Y-64612795D01*
X171895795Y-64716758D01*
X171773548Y-64798441D01*
X171637714Y-64854705D01*
X171493513Y-64883389D01*
X171346487Y-64883389D01*
X171202286Y-64854705D01*
X171066452Y-64798441D01*
X170944205Y-64716758D01*
X170840242Y-64612795D01*
X170758559Y-64490548D01*
X170702295Y-64354714D01*
X170673611Y-64210513D01*
X170673611Y-64063487D01*
X170702295Y-63919286D01*
X170758559Y-63783452D01*
X170840242Y-63661205D01*
X170944205Y-63557242D01*
X171066452Y-63475559D01*
X171202286Y-63419295D01*
X171346487Y-63390611D01*
X171493513Y-63390611D01*
X171637714Y-63419295D01*
G37*
G36*
X174177714Y-63419295D02*
G01*
X174313548Y-63475559D01*
X174435795Y-63557242D01*
X174539758Y-63661205D01*
X174621441Y-63783452D01*
X174677705Y-63919286D01*
X174706389Y-64063487D01*
X174706389Y-64210513D01*
X174677705Y-64354714D01*
X174621441Y-64490548D01*
X174539758Y-64612795D01*
X174435795Y-64716758D01*
X174313548Y-64798441D01*
X174177714Y-64854705D01*
X174033513Y-64883389D01*
X173886487Y-64883389D01*
X173742286Y-64854705D01*
X173606452Y-64798441D01*
X173484205Y-64716758D01*
X173380242Y-64612795D01*
X173298559Y-64490548D01*
X173242295Y-64354714D01*
X173213611Y-64210513D01*
X173213611Y-64063487D01*
X173242295Y-63919286D01*
X173298559Y-63783452D01*
X173380242Y-63661205D01*
X173484205Y-63557242D01*
X173606452Y-63475559D01*
X173742286Y-63419295D01*
X173886487Y-63390611D01*
X174033513Y-63390611D01*
X174177714Y-63419295D01*
G37*
G36*
X176717714Y-63419295D02*
G01*
X176853548Y-63475559D01*
X176975795Y-63557242D01*
X177079758Y-63661205D01*
X177161441Y-63783452D01*
X177217705Y-63919286D01*
X177246389Y-64063487D01*
X177246389Y-64210513D01*
X177217705Y-64354714D01*
X177161441Y-64490548D01*
X177079758Y-64612795D01*
X176975795Y-64716758D01*
X176853548Y-64798441D01*
X176717714Y-64854705D01*
X176573513Y-64883389D01*
X176426487Y-64883389D01*
X176282286Y-64854705D01*
X176146452Y-64798441D01*
X176024205Y-64716758D01*
X175920242Y-64612795D01*
X175838559Y-64490548D01*
X175782295Y-64354714D01*
X175753611Y-64210513D01*
X175753611Y-64063487D01*
X175782295Y-63919286D01*
X175838559Y-63783452D01*
X175920242Y-63661205D01*
X176024205Y-63557242D01*
X176146452Y-63475559D01*
X176282286Y-63419295D01*
X176426487Y-63390611D01*
X176573513Y-63390611D01*
X176717714Y-63419295D01*
G37*
G36*
X179257714Y-63419295D02*
G01*
X179393548Y-63475559D01*
X179515795Y-63557242D01*
X179619758Y-63661205D01*
X179701441Y-63783452D01*
X179757705Y-63919286D01*
X179786389Y-64063487D01*
X179786389Y-64210513D01*
X179757705Y-64354714D01*
X179701441Y-64490548D01*
X179619758Y-64612795D01*
X179515795Y-64716758D01*
X179393548Y-64798441D01*
X179257714Y-64854705D01*
X179113513Y-64883389D01*
X178966487Y-64883389D01*
X178822286Y-64854705D01*
X178686452Y-64798441D01*
X178564205Y-64716758D01*
X178460242Y-64612795D01*
X178378559Y-64490548D01*
X178322295Y-64354714D01*
X178293611Y-64210513D01*
X178293611Y-64063487D01*
X178322295Y-63919286D01*
X178378559Y-63783452D01*
X178460242Y-63661205D01*
X178564205Y-63557242D01*
X178686452Y-63475559D01*
X178822286Y-63419295D01*
X178966487Y-63390611D01*
X179113513Y-63390611D01*
X179257714Y-63419295D01*
G37*
G36*
X181797714Y-63419295D02*
G01*
X181933548Y-63475559D01*
X182055795Y-63557242D01*
X182159758Y-63661205D01*
X182241441Y-63783452D01*
X182297705Y-63919286D01*
X182326389Y-64063487D01*
X182326389Y-64210513D01*
X182297705Y-64354714D01*
X182241441Y-64490548D01*
X182159758Y-64612795D01*
X182055795Y-64716758D01*
X181933548Y-64798441D01*
X181797714Y-64854705D01*
X181653513Y-64883389D01*
X181506487Y-64883389D01*
X181362286Y-64854705D01*
X181226452Y-64798441D01*
X181104205Y-64716758D01*
X181000242Y-64612795D01*
X180918559Y-64490548D01*
X180862295Y-64354714D01*
X180833611Y-64210513D01*
X180833611Y-64063487D01*
X180862295Y-63919286D01*
X180918559Y-63783452D01*
X181000242Y-63661205D01*
X181104205Y-63557242D01*
X181226452Y-63475559D01*
X181362286Y-63419295D01*
X181506487Y-63390611D01*
X181653513Y-63390611D01*
X181797714Y-63419295D01*
G37*
G36*
X184337714Y-63419295D02*
G01*
X184473548Y-63475559D01*
X184595795Y-63557242D01*
X184699758Y-63661205D01*
X184781441Y-63783452D01*
X184837705Y-63919286D01*
X184866389Y-64063487D01*
X184866389Y-64210513D01*
X184837705Y-64354714D01*
X184781441Y-64490548D01*
X184699758Y-64612795D01*
X184595795Y-64716758D01*
X184473548Y-64798441D01*
X184337714Y-64854705D01*
X184193513Y-64883389D01*
X184046487Y-64883389D01*
X183902286Y-64854705D01*
X183766452Y-64798441D01*
X183644205Y-64716758D01*
X183540242Y-64612795D01*
X183458559Y-64490548D01*
X183402295Y-64354714D01*
X183373611Y-64210513D01*
X183373611Y-64063487D01*
X183402295Y-63919286D01*
X183458559Y-63783452D01*
X183540242Y-63661205D01*
X183644205Y-63557242D01*
X183766452Y-63475559D01*
X183902286Y-63419295D01*
X184046487Y-63390611D01*
X184193513Y-63390611D01*
X184337714Y-63419295D01*
G37*
G36*
X195796742Y-62566601D02*
G01*
X195950687Y-62630367D01*
X196089234Y-62722941D01*
X196207059Y-62840766D01*
X196299633Y-62979313D01*
X196363399Y-63133258D01*
X196395907Y-63296685D01*
X196395907Y-63463315D01*
X196363399Y-63626742D01*
X196299633Y-63780687D01*
X196207059Y-63919234D01*
X196089234Y-64037059D01*
X195950687Y-64129633D01*
X195796742Y-64193399D01*
X195633315Y-64225907D01*
X195466685Y-64225907D01*
X195303258Y-64193399D01*
X195149313Y-64129633D01*
X195010766Y-64037059D01*
X194892941Y-63919234D01*
X194800367Y-63780687D01*
X194736601Y-63626742D01*
X194704093Y-63463315D01*
X194704093Y-63296685D01*
X194736601Y-63133258D01*
X194800367Y-62979313D01*
X194892941Y-62840766D01*
X195010766Y-62722941D01*
X195149313Y-62630367D01*
X195303258Y-62566601D01*
X195466685Y-62534093D01*
X195633315Y-62534093D01*
X195796742Y-62566601D01*
G37*
G36*
X198336742Y-62566601D02*
G01*
X198490687Y-62630367D01*
X198629234Y-62722941D01*
X198747059Y-62840766D01*
X198839633Y-62979313D01*
X198903399Y-63133258D01*
X198935907Y-63296685D01*
X198935907Y-63463315D01*
X198903399Y-63626742D01*
X198839633Y-63780687D01*
X198747059Y-63919234D01*
X198629234Y-64037059D01*
X198490687Y-64129633D01*
X198336742Y-64193399D01*
X198173315Y-64225907D01*
X198006685Y-64225907D01*
X197843258Y-64193399D01*
X197689313Y-64129633D01*
X197550766Y-64037059D01*
X197432941Y-63919234D01*
X197340367Y-63780687D01*
X197276601Y-63626742D01*
X197244093Y-63463315D01*
X197244093Y-63296685D01*
X197276601Y-63133258D01*
X197340367Y-62979313D01*
X197432941Y-62840766D01*
X197550766Y-62722941D01*
X197689313Y-62630367D01*
X197843258Y-62566601D01*
X198006685Y-62534093D01*
X198173315Y-62534093D01*
X198336742Y-62566601D01*
G37*
G36*
X109900000Y-64007500D02*
G01*
X108300000Y-64007500D01*
X108300000Y-62407500D01*
X109900000Y-62407500D01*
X109900000Y-64007500D01*
G37*
G36*
X112532228Y-62441948D02*
G01*
X112677117Y-62501963D01*
X112807515Y-62589092D01*
X112918408Y-62699985D01*
X113005537Y-62830383D01*
X113065552Y-62975272D01*
X113096148Y-63129086D01*
X113096148Y-63285914D01*
X113065552Y-63439728D01*
X113005537Y-63584617D01*
X112918408Y-63715015D01*
X112807515Y-63825908D01*
X112677117Y-63913037D01*
X112532228Y-63973052D01*
X112378414Y-64003648D01*
X112221586Y-64003648D01*
X112067772Y-63973052D01*
X111922883Y-63913037D01*
X111792485Y-63825908D01*
X111681592Y-63715015D01*
X111594463Y-63584617D01*
X111534448Y-63439728D01*
X111503852Y-63285914D01*
X111503852Y-63129086D01*
X111534448Y-62975272D01*
X111594463Y-62830383D01*
X111681592Y-62699985D01*
X111792485Y-62589092D01*
X111922883Y-62501963D01*
X112067772Y-62441948D01*
X112221586Y-62411352D01*
X112378414Y-62411352D01*
X112532228Y-62441948D01*
G37*
G36*
X117118462Y-60081775D02*
G01*
X117290086Y-60137539D01*
X117450873Y-60219464D01*
X117596865Y-60325533D01*
X117724467Y-60453135D01*
X117830536Y-60599127D01*
X117912461Y-60759914D01*
X117968225Y-60931538D01*
X117996455Y-61109772D01*
X117996455Y-61290228D01*
X117968225Y-61468462D01*
X117912461Y-61640086D01*
X117830536Y-61800873D01*
X117724467Y-61946865D01*
X117596865Y-62074467D01*
X117450873Y-62180536D01*
X117290086Y-62262461D01*
X117118462Y-62318225D01*
X116940228Y-62346455D01*
X116759772Y-62346455D01*
X116581538Y-62318225D01*
X116409914Y-62262461D01*
X116249127Y-62180536D01*
X116103135Y-62074467D01*
X115975533Y-61946865D01*
X115869464Y-61800873D01*
X115787539Y-61640086D01*
X115731775Y-61468462D01*
X115703545Y-61290228D01*
X115703545Y-61109772D01*
X115731775Y-60931538D01*
X115787539Y-60759914D01*
X115869464Y-60599127D01*
X115975533Y-60453135D01*
X116103135Y-60325533D01*
X116249127Y-60219464D01*
X116409914Y-60137539D01*
X116581538Y-60081775D01*
X116759772Y-60053545D01*
X116940228Y-60053545D01*
X117118462Y-60081775D01*
G37*
G36*
X154618462Y-60081775D02*
G01*
X154790086Y-60137539D01*
X154950873Y-60219464D01*
X155096865Y-60325533D01*
X155224467Y-60453135D01*
X155330536Y-60599127D01*
X155412461Y-60759914D01*
X155468225Y-60931538D01*
X155496455Y-61109772D01*
X155496455Y-61290228D01*
X155468225Y-61468462D01*
X155412461Y-61640086D01*
X155330536Y-61800873D01*
X155224467Y-61946865D01*
X155096865Y-62074467D01*
X154950873Y-62180536D01*
X154790086Y-62262461D01*
X154618462Y-62318225D01*
X154440228Y-62346455D01*
X154259772Y-62346455D01*
X154081538Y-62318225D01*
X153909914Y-62262461D01*
X153749127Y-62180536D01*
X153603135Y-62074467D01*
X153475533Y-61946865D01*
X153369464Y-61800873D01*
X153287539Y-61640086D01*
X153231775Y-61468462D01*
X153203545Y-61290228D01*
X153203545Y-61109772D01*
X153231775Y-60931538D01*
X153287539Y-60759914D01*
X153369464Y-60599127D01*
X153475533Y-60453135D01*
X153603135Y-60325533D01*
X153749127Y-60219464D01*
X153909914Y-60137539D01*
X154081538Y-60081775D01*
X154259772Y-60053545D01*
X154440228Y-60053545D01*
X154618462Y-60081775D01*
G37*
G36*
X196400000Y-61690000D02*
G01*
X194700000Y-61690000D01*
X194700000Y-59990000D01*
X196400000Y-59990000D01*
X196400000Y-61690000D01*
G37*
G36*
X198336742Y-60026601D02*
G01*
X198490687Y-60090367D01*
X198629234Y-60182941D01*
X198747059Y-60300766D01*
X198839633Y-60439313D01*
X198903399Y-60593258D01*
X198935907Y-60756685D01*
X198935907Y-60923315D01*
X198903399Y-61086742D01*
X198839633Y-61240687D01*
X198747059Y-61379234D01*
X198629234Y-61497059D01*
X198490687Y-61589633D01*
X198336742Y-61653399D01*
X198173315Y-61685907D01*
X198006685Y-61685907D01*
X197843258Y-61653399D01*
X197689313Y-61589633D01*
X197550766Y-61497059D01*
X197432941Y-61379234D01*
X197340367Y-61240687D01*
X197276601Y-61086742D01*
X197244093Y-60923315D01*
X197244093Y-60756685D01*
X197276601Y-60593258D01*
X197340367Y-60439313D01*
X197432941Y-60300766D01*
X197550766Y-60182941D01*
X197689313Y-60090367D01*
X197843258Y-60026601D01*
X198006685Y-59994093D01*
X198173315Y-59994093D01*
X198336742Y-60026601D01*
G37*
G36*
X109332228Y-59941948D02*
G01*
X109477117Y-60001963D01*
X109607515Y-60089092D01*
X109718408Y-60199985D01*
X109805537Y-60330383D01*
X109865552Y-60475272D01*
X109896148Y-60629086D01*
X109896148Y-60785914D01*
X109865552Y-60939728D01*
X109805537Y-61084617D01*
X109718408Y-61215015D01*
X109607515Y-61325908D01*
X109477117Y-61413037D01*
X109332228Y-61473052D01*
X109178414Y-61503648D01*
X109021586Y-61503648D01*
X108867772Y-61473052D01*
X108722883Y-61413037D01*
X108592485Y-61325908D01*
X108481592Y-61215015D01*
X108394463Y-61084617D01*
X108334448Y-60939728D01*
X108303852Y-60785914D01*
X108303852Y-60629086D01*
X108334448Y-60475272D01*
X108394463Y-60330383D01*
X108481592Y-60199985D01*
X108592485Y-60089092D01*
X108722883Y-60001963D01*
X108867772Y-59941948D01*
X109021586Y-59911352D01*
X109178414Y-59911352D01*
X109332228Y-59941948D01*
G37*
G36*
X112532228Y-59941948D02*
G01*
X112677117Y-60001963D01*
X112807515Y-60089092D01*
X112918408Y-60199985D01*
X113005537Y-60330383D01*
X113065552Y-60475272D01*
X113096148Y-60629086D01*
X113096148Y-60785914D01*
X113065552Y-60939728D01*
X113005537Y-61084617D01*
X112918408Y-61215015D01*
X112807515Y-61325908D01*
X112677117Y-61413037D01*
X112532228Y-61473052D01*
X112378414Y-61503648D01*
X112221586Y-61503648D01*
X112067772Y-61473052D01*
X111922883Y-61413037D01*
X111792485Y-61325908D01*
X111681592Y-61215015D01*
X111594463Y-61084617D01*
X111534448Y-60939728D01*
X111503852Y-60785914D01*
X111503852Y-60629086D01*
X111534448Y-60475272D01*
X111594463Y-60330383D01*
X111681592Y-60199985D01*
X111792485Y-60089092D01*
X111922883Y-60001963D01*
X112067772Y-59941948D01*
X112221586Y-59911352D01*
X112378414Y-59911352D01*
X112532228Y-59941948D01*
G37*
G36*
X109332228Y-57441948D02*
G01*
X109477117Y-57501963D01*
X109607515Y-57589092D01*
X109718408Y-57699985D01*
X109805537Y-57830383D01*
X109865552Y-57975272D01*
X109896148Y-58129086D01*
X109896148Y-58285914D01*
X109865552Y-58439728D01*
X109805537Y-58584617D01*
X109718408Y-58715015D01*
X109607515Y-58825908D01*
X109477117Y-58913037D01*
X109332228Y-58973052D01*
X109178414Y-59003648D01*
X109021586Y-59003648D01*
X108867772Y-58973052D01*
X108722883Y-58913037D01*
X108592485Y-58825908D01*
X108481592Y-58715015D01*
X108394463Y-58584617D01*
X108334448Y-58439728D01*
X108303852Y-58285914D01*
X108303852Y-58129086D01*
X108334448Y-57975272D01*
X108394463Y-57830383D01*
X108481592Y-57699985D01*
X108592485Y-57589092D01*
X108722883Y-57501963D01*
X108867772Y-57441948D01*
X109021586Y-57411352D01*
X109178414Y-57411352D01*
X109332228Y-57441948D01*
G37*
G36*
X112532228Y-57441948D02*
G01*
X112677117Y-57501963D01*
X112807515Y-57589092D01*
X112918408Y-57699985D01*
X113005537Y-57830383D01*
X113065552Y-57975272D01*
X113096148Y-58129086D01*
X113096148Y-58285914D01*
X113065552Y-58439728D01*
X113005537Y-58584617D01*
X112918408Y-58715015D01*
X112807515Y-58825908D01*
X112677117Y-58913037D01*
X112532228Y-58973052D01*
X112378414Y-59003648D01*
X112221586Y-59003648D01*
X112067772Y-58973052D01*
X111922883Y-58913037D01*
X111792485Y-58825908D01*
X111681592Y-58715015D01*
X111594463Y-58584617D01*
X111534448Y-58439728D01*
X111503852Y-58285914D01*
X111503852Y-58129086D01*
X111534448Y-57975272D01*
X111594463Y-57830383D01*
X111681592Y-57699985D01*
X111792485Y-57589092D01*
X111922883Y-57501963D01*
X112067772Y-57441948D01*
X112221586Y-57411352D01*
X112378414Y-57411352D01*
X112532228Y-57441948D01*
G37*
G36*
X169097714Y-55799295D02*
G01*
X169233548Y-55855559D01*
X169355795Y-55937242D01*
X169459758Y-56041205D01*
X169541441Y-56163452D01*
X169597705Y-56299286D01*
X169626389Y-56443487D01*
X169626389Y-56590513D01*
X169597705Y-56734714D01*
X169541441Y-56870548D01*
X169459758Y-56992795D01*
X169355795Y-57096758D01*
X169233548Y-57178441D01*
X169097714Y-57234705D01*
X168953513Y-57263389D01*
X168806487Y-57263389D01*
X168662286Y-57234705D01*
X168526452Y-57178441D01*
X168404205Y-57096758D01*
X168300242Y-56992795D01*
X168218559Y-56870548D01*
X168162295Y-56734714D01*
X168133611Y-56590513D01*
X168133611Y-56443487D01*
X168162295Y-56299286D01*
X168218559Y-56163452D01*
X168300242Y-56041205D01*
X168404205Y-55937242D01*
X168526452Y-55855559D01*
X168662286Y-55799295D01*
X168806487Y-55770611D01*
X168953513Y-55770611D01*
X169097714Y-55799295D01*
G37*
G36*
X171637714Y-55799295D02*
G01*
X171773548Y-55855559D01*
X171895795Y-55937242D01*
X171999758Y-56041205D01*
X172081441Y-56163452D01*
X172137705Y-56299286D01*
X172166389Y-56443487D01*
X172166389Y-56590513D01*
X172137705Y-56734714D01*
X172081441Y-56870548D01*
X171999758Y-56992795D01*
X171895795Y-57096758D01*
X171773548Y-57178441D01*
X171637714Y-57234705D01*
X171493513Y-57263389D01*
X171346487Y-57263389D01*
X171202286Y-57234705D01*
X171066452Y-57178441D01*
X170944205Y-57096758D01*
X170840242Y-56992795D01*
X170758559Y-56870548D01*
X170702295Y-56734714D01*
X170673611Y-56590513D01*
X170673611Y-56443487D01*
X170702295Y-56299286D01*
X170758559Y-56163452D01*
X170840242Y-56041205D01*
X170944205Y-55937242D01*
X171066452Y-55855559D01*
X171202286Y-55799295D01*
X171346487Y-55770611D01*
X171493513Y-55770611D01*
X171637714Y-55799295D01*
G37*
G36*
X174177714Y-55799295D02*
G01*
X174313548Y-55855559D01*
X174435795Y-55937242D01*
X174539758Y-56041205D01*
X174621441Y-56163452D01*
X174677705Y-56299286D01*
X174706389Y-56443487D01*
X174706389Y-56590513D01*
X174677705Y-56734714D01*
X174621441Y-56870548D01*
X174539758Y-56992795D01*
X174435795Y-57096758D01*
X174313548Y-57178441D01*
X174177714Y-57234705D01*
X174033513Y-57263389D01*
X173886487Y-57263389D01*
X173742286Y-57234705D01*
X173606452Y-57178441D01*
X173484205Y-57096758D01*
X173380242Y-56992795D01*
X173298559Y-56870548D01*
X173242295Y-56734714D01*
X173213611Y-56590513D01*
X173213611Y-56443487D01*
X173242295Y-56299286D01*
X173298559Y-56163452D01*
X173380242Y-56041205D01*
X173484205Y-55937242D01*
X173606452Y-55855559D01*
X173742286Y-55799295D01*
X173886487Y-55770611D01*
X174033513Y-55770611D01*
X174177714Y-55799295D01*
G37*
G36*
X176717714Y-55799295D02*
G01*
X176853548Y-55855559D01*
X176975795Y-55937242D01*
X177079758Y-56041205D01*
X177161441Y-56163452D01*
X177217705Y-56299286D01*
X177246389Y-56443487D01*
X177246389Y-56590513D01*
X177217705Y-56734714D01*
X177161441Y-56870548D01*
X177079758Y-56992795D01*
X176975795Y-57096758D01*
X176853548Y-57178441D01*
X176717714Y-57234705D01*
X176573513Y-57263389D01*
X176426487Y-57263389D01*
X176282286Y-57234705D01*
X176146452Y-57178441D01*
X176024205Y-57096758D01*
X175920242Y-56992795D01*
X175838559Y-56870548D01*
X175782295Y-56734714D01*
X175753611Y-56590513D01*
X175753611Y-56443487D01*
X175782295Y-56299286D01*
X175838559Y-56163452D01*
X175920242Y-56041205D01*
X176024205Y-55937242D01*
X176146452Y-55855559D01*
X176282286Y-55799295D01*
X176426487Y-55770611D01*
X176573513Y-55770611D01*
X176717714Y-55799295D01*
G37*
G36*
X179257714Y-55799295D02*
G01*
X179393548Y-55855559D01*
X179515795Y-55937242D01*
X179619758Y-56041205D01*
X179701441Y-56163452D01*
X179757705Y-56299286D01*
X179786389Y-56443487D01*
X179786389Y-56590513D01*
X179757705Y-56734714D01*
X179701441Y-56870548D01*
X179619758Y-56992795D01*
X179515795Y-57096758D01*
X179393548Y-57178441D01*
X179257714Y-57234705D01*
X179113513Y-57263389D01*
X178966487Y-57263389D01*
X178822286Y-57234705D01*
X178686452Y-57178441D01*
X178564205Y-57096758D01*
X178460242Y-56992795D01*
X178378559Y-56870548D01*
X178322295Y-56734714D01*
X178293611Y-56590513D01*
X178293611Y-56443487D01*
X178322295Y-56299286D01*
X178378559Y-56163452D01*
X178460242Y-56041205D01*
X178564205Y-55937242D01*
X178686452Y-55855559D01*
X178822286Y-55799295D01*
X178966487Y-55770611D01*
X179113513Y-55770611D01*
X179257714Y-55799295D01*
G37*
G36*
X181797714Y-55799295D02*
G01*
X181933548Y-55855559D01*
X182055795Y-55937242D01*
X182159758Y-56041205D01*
X182241441Y-56163452D01*
X182297705Y-56299286D01*
X182326389Y-56443487D01*
X182326389Y-56590513D01*
X182297705Y-56734714D01*
X182241441Y-56870548D01*
X182159758Y-56992795D01*
X182055795Y-57096758D01*
X181933548Y-57178441D01*
X181797714Y-57234705D01*
X181653513Y-57263389D01*
X181506487Y-57263389D01*
X181362286Y-57234705D01*
X181226452Y-57178441D01*
X181104205Y-57096758D01*
X181000242Y-56992795D01*
X180918559Y-56870548D01*
X180862295Y-56734714D01*
X180833611Y-56590513D01*
X180833611Y-56443487D01*
X180862295Y-56299286D01*
X180918559Y-56163452D01*
X181000242Y-56041205D01*
X181104205Y-55937242D01*
X181226452Y-55855559D01*
X181362286Y-55799295D01*
X181506487Y-55770611D01*
X181653513Y-55770611D01*
X181797714Y-55799295D01*
G37*
G36*
X184337714Y-55799295D02*
G01*
X184473548Y-55855559D01*
X184595795Y-55937242D01*
X184699758Y-56041205D01*
X184781441Y-56163452D01*
X184837705Y-56299286D01*
X184866389Y-56443487D01*
X184866389Y-56590513D01*
X184837705Y-56734714D01*
X184781441Y-56870548D01*
X184699758Y-56992795D01*
X184595795Y-57096758D01*
X184473548Y-57178441D01*
X184337714Y-57234705D01*
X184193513Y-57263389D01*
X184046487Y-57263389D01*
X183902286Y-57234705D01*
X183766452Y-57178441D01*
X183644205Y-57096758D01*
X183540242Y-56992795D01*
X183458559Y-56870548D01*
X183402295Y-56734714D01*
X183373611Y-56590513D01*
X183373611Y-56443487D01*
X183402295Y-56299286D01*
X183458559Y-56163452D01*
X183540242Y-56041205D01*
X183644205Y-55937242D01*
X183766452Y-55855559D01*
X183902286Y-55799295D01*
X184046487Y-55770611D01*
X184193513Y-55770611D01*
X184337714Y-55799295D01*
G37*
G36*
X107542896Y-50055032D02*
G01*
X107553697Y-50055032D01*
X107617815Y-50063473D01*
X107793633Y-50083283D01*
X107828180Y-50091168D01*
X107858462Y-50095155D01*
X107932137Y-50114896D01*
X108050540Y-50141921D01*
X108107890Y-50161988D01*
X108155383Y-50174714D01*
X108215917Y-50199788D01*
X108299275Y-50228956D01*
X108378855Y-50267279D01*
X108439378Y-50292349D01*
X108481940Y-50316922D01*
X108536696Y-50343291D01*
X108639533Y-50407908D01*
X108705590Y-50446046D01*
X108729828Y-50464644D01*
X108759833Y-50483498D01*
X108898136Y-50593791D01*
X108949463Y-50633176D01*
X108957104Y-50640817D01*
X108965864Y-50647803D01*
X109152196Y-50834135D01*
X109159181Y-50842894D01*
X109166824Y-50850537D01*
X109206213Y-50901870D01*
X109316501Y-51040166D01*
X109335353Y-51070168D01*
X109353954Y-51094410D01*
X109392095Y-51160474D01*
X109456708Y-51263303D01*
X109483074Y-51318054D01*
X109507651Y-51360622D01*
X109532723Y-51421151D01*
X109571043Y-51500724D01*
X109600207Y-51584071D01*
X109625286Y-51644617D01*
X109638013Y-51692117D01*
X109658078Y-51749459D01*
X109685098Y-51867843D01*
X109704845Y-51941538D01*
X109708832Y-51971827D01*
X109716716Y-52006366D01*
X109736525Y-52182172D01*
X109744968Y-52246303D01*
X109744968Y-52257103D01*
X109746223Y-52268242D01*
X109746223Y-52531757D01*
X109744968Y-52542895D01*
X109744968Y-52553697D01*
X109736524Y-52617833D01*
X109716716Y-52793633D01*
X109708832Y-52828170D01*
X109704845Y-52858462D01*
X109685097Y-52932162D01*
X109658078Y-53050540D01*
X109638014Y-53107878D01*
X109625286Y-53155383D01*
X109600205Y-53215933D01*
X109571043Y-53299275D01*
X109532726Y-53378841D01*
X109507651Y-53439378D01*
X109483071Y-53481950D01*
X109456708Y-53536696D01*
X109392103Y-53639513D01*
X109353954Y-53705590D01*
X109335349Y-53729835D01*
X109316501Y-53759833D01*
X109206233Y-53898103D01*
X109166824Y-53949463D01*
X109159177Y-53957109D01*
X109152196Y-53965864D01*
X108965864Y-54152196D01*
X108957109Y-54159177D01*
X108949463Y-54166824D01*
X108898103Y-54206233D01*
X108759833Y-54316501D01*
X108729835Y-54335349D01*
X108705590Y-54353954D01*
X108639513Y-54392103D01*
X108536696Y-54456708D01*
X108481950Y-54483071D01*
X108439378Y-54507651D01*
X108378841Y-54532726D01*
X108299275Y-54571043D01*
X108215933Y-54600205D01*
X108155383Y-54625286D01*
X108107878Y-54638014D01*
X108050540Y-54658078D01*
X107932162Y-54685097D01*
X107858462Y-54704845D01*
X107828170Y-54708832D01*
X107793633Y-54716716D01*
X107617833Y-54736524D01*
X107553697Y-54744968D01*
X107542895Y-54744968D01*
X107531757Y-54746223D01*
X107268243Y-54746223D01*
X107257105Y-54744968D01*
X107246303Y-54744968D01*
X107182168Y-54736524D01*
X107006366Y-54716716D01*
X106971827Y-54708832D01*
X106941538Y-54704845D01*
X106867843Y-54685098D01*
X106749459Y-54658078D01*
X106692117Y-54638013D01*
X106644617Y-54625286D01*
X106584071Y-54600207D01*
X106500724Y-54571043D01*
X106421151Y-54532723D01*
X106360622Y-54507651D01*
X106318054Y-54483074D01*
X106263303Y-54456708D01*
X106160474Y-54392095D01*
X106094410Y-54353954D01*
X106070168Y-54335353D01*
X106040166Y-54316501D01*
X105901870Y-54206213D01*
X105850537Y-54166824D01*
X105842894Y-54159181D01*
X105834135Y-54152196D01*
X105647803Y-53965864D01*
X105640817Y-53957104D01*
X105633176Y-53949463D01*
X105593791Y-53898136D01*
X105483498Y-53759833D01*
X105464644Y-53729828D01*
X105446046Y-53705590D01*
X105407908Y-53639533D01*
X105343291Y-53536696D01*
X105316922Y-53481940D01*
X105292349Y-53439378D01*
X105267279Y-53378855D01*
X105228956Y-53299275D01*
X105199788Y-53215917D01*
X105174714Y-53155383D01*
X105161988Y-53107890D01*
X105141921Y-53050540D01*
X105114896Y-52932137D01*
X105095155Y-52858462D01*
X105091168Y-52828180D01*
X105083283Y-52793633D01*
X105063473Y-52617815D01*
X105055032Y-52553697D01*
X105055032Y-52542895D01*
X105053777Y-52531757D01*
X105053777Y-52268242D01*
X105055032Y-52257103D01*
X105055032Y-52246303D01*
X105063472Y-52182190D01*
X105083283Y-52006366D01*
X105091168Y-51971816D01*
X105095155Y-51941538D01*
X105114894Y-51867868D01*
X105141921Y-51749459D01*
X105161989Y-51692105D01*
X105174714Y-51644617D01*
X105199786Y-51584087D01*
X105228956Y-51500724D01*
X105267282Y-51421136D01*
X105292349Y-51360622D01*
X105316919Y-51318064D01*
X105343291Y-51263303D01*
X105407915Y-51160454D01*
X105446046Y-51094410D01*
X105464641Y-51070175D01*
X105483498Y-51040166D01*
X105593811Y-50901837D01*
X105633176Y-50850537D01*
X105640813Y-50842899D01*
X105647803Y-50834135D01*
X105834135Y-50647803D01*
X105842899Y-50640813D01*
X105850537Y-50633176D01*
X105901837Y-50593811D01*
X106040166Y-50483498D01*
X106070175Y-50464641D01*
X106094410Y-50446046D01*
X106160454Y-50407915D01*
X106263303Y-50343291D01*
X106318064Y-50316919D01*
X106360622Y-50292349D01*
X106421136Y-50267282D01*
X106500724Y-50228956D01*
X106584087Y-50199786D01*
X106644617Y-50174714D01*
X106692105Y-50161989D01*
X106749459Y-50141921D01*
X106867868Y-50114894D01*
X106941538Y-50095155D01*
X106971816Y-50091168D01*
X107006366Y-50083283D01*
X107182186Y-50063473D01*
X107246303Y-50055032D01*
X107257104Y-50055032D01*
X107268243Y-50053777D01*
X107531757Y-50053777D01*
X107542896Y-50055032D01*
G37*
G36*
X200742896Y-50055032D02*
G01*
X200753697Y-50055032D01*
X200817815Y-50063473D01*
X200993633Y-50083283D01*
X201028180Y-50091168D01*
X201058462Y-50095155D01*
X201132137Y-50114896D01*
X201250540Y-50141921D01*
X201307890Y-50161988D01*
X201355383Y-50174714D01*
X201415917Y-50199788D01*
X201499275Y-50228956D01*
X201578855Y-50267279D01*
X201639378Y-50292349D01*
X201681940Y-50316922D01*
X201736696Y-50343291D01*
X201839533Y-50407908D01*
X201905590Y-50446046D01*
X201929828Y-50464644D01*
X201959833Y-50483498D01*
X202098136Y-50593791D01*
X202149463Y-50633176D01*
X202157104Y-50640817D01*
X202165864Y-50647803D01*
X202352196Y-50834135D01*
X202359181Y-50842894D01*
X202366824Y-50850537D01*
X202406213Y-50901870D01*
X202516501Y-51040166D01*
X202535353Y-51070168D01*
X202553954Y-51094410D01*
X202592095Y-51160474D01*
X202656708Y-51263303D01*
X202683074Y-51318054D01*
X202707651Y-51360622D01*
X202732723Y-51421151D01*
X202771043Y-51500724D01*
X202800207Y-51584071D01*
X202825286Y-51644617D01*
X202838013Y-51692117D01*
X202858078Y-51749459D01*
X202885098Y-51867843D01*
X202904845Y-51941538D01*
X202908832Y-51971827D01*
X202916716Y-52006366D01*
X202936525Y-52182172D01*
X202944968Y-52246303D01*
X202944968Y-52257103D01*
X202946223Y-52268242D01*
X202946223Y-52531757D01*
X202944968Y-52542895D01*
X202944968Y-52553697D01*
X202936524Y-52617833D01*
X202916716Y-52793633D01*
X202908832Y-52828170D01*
X202904845Y-52858462D01*
X202885097Y-52932162D01*
X202858078Y-53050540D01*
X202838014Y-53107878D01*
X202825286Y-53155383D01*
X202800205Y-53215933D01*
X202771043Y-53299275D01*
X202732726Y-53378841D01*
X202707651Y-53439378D01*
X202683071Y-53481950D01*
X202656708Y-53536696D01*
X202592103Y-53639513D01*
X202553954Y-53705590D01*
X202535349Y-53729835D01*
X202516501Y-53759833D01*
X202406233Y-53898103D01*
X202366824Y-53949463D01*
X202359177Y-53957109D01*
X202352196Y-53965864D01*
X202165864Y-54152196D01*
X202157109Y-54159177D01*
X202149463Y-54166824D01*
X202098103Y-54206233D01*
X201959833Y-54316501D01*
X201929835Y-54335349D01*
X201905590Y-54353954D01*
X201839513Y-54392103D01*
X201736696Y-54456708D01*
X201681950Y-54483071D01*
X201639378Y-54507651D01*
X201578841Y-54532726D01*
X201499275Y-54571043D01*
X201415933Y-54600205D01*
X201355383Y-54625286D01*
X201307878Y-54638014D01*
X201250540Y-54658078D01*
X201132162Y-54685097D01*
X201058462Y-54704845D01*
X201028170Y-54708832D01*
X200993633Y-54716716D01*
X200817833Y-54736524D01*
X200753697Y-54744968D01*
X200742895Y-54744968D01*
X200731757Y-54746223D01*
X200468243Y-54746223D01*
X200457105Y-54744968D01*
X200446303Y-54744968D01*
X200382168Y-54736524D01*
X200206366Y-54716716D01*
X200171827Y-54708832D01*
X200141538Y-54704845D01*
X200067843Y-54685098D01*
X199949459Y-54658078D01*
X199892117Y-54638013D01*
X199844617Y-54625286D01*
X199784071Y-54600207D01*
X199700724Y-54571043D01*
X199621151Y-54532723D01*
X199560622Y-54507651D01*
X199518054Y-54483074D01*
X199463303Y-54456708D01*
X199360474Y-54392095D01*
X199294410Y-54353954D01*
X199270168Y-54335353D01*
X199240166Y-54316501D01*
X199101870Y-54206213D01*
X199050537Y-54166824D01*
X199042894Y-54159181D01*
X199034135Y-54152196D01*
X198847803Y-53965864D01*
X198840817Y-53957104D01*
X198833176Y-53949463D01*
X198793791Y-53898136D01*
X198683498Y-53759833D01*
X198664644Y-53729828D01*
X198646046Y-53705590D01*
X198607908Y-53639533D01*
X198543291Y-53536696D01*
X198516922Y-53481940D01*
X198492349Y-53439378D01*
X198467279Y-53378855D01*
X198428956Y-53299275D01*
X198399788Y-53215917D01*
X198374714Y-53155383D01*
X198361988Y-53107890D01*
X198341921Y-53050540D01*
X198314896Y-52932137D01*
X198295155Y-52858462D01*
X198291168Y-52828180D01*
X198283283Y-52793633D01*
X198263473Y-52617815D01*
X198255032Y-52553697D01*
X198255032Y-52542895D01*
X198253777Y-52531757D01*
X198253777Y-52268242D01*
X198255032Y-52257103D01*
X198255032Y-52246303D01*
X198263472Y-52182190D01*
X198283283Y-52006366D01*
X198291168Y-51971816D01*
X198295155Y-51941538D01*
X198314894Y-51867868D01*
X198341921Y-51749459D01*
X198361989Y-51692105D01*
X198374714Y-51644617D01*
X198399786Y-51584087D01*
X198428956Y-51500724D01*
X198467282Y-51421136D01*
X198492349Y-51360622D01*
X198516919Y-51318064D01*
X198543291Y-51263303D01*
X198607915Y-51160454D01*
X198646046Y-51094410D01*
X198664641Y-51070175D01*
X198683498Y-51040166D01*
X198793811Y-50901837D01*
X198833176Y-50850537D01*
X198840813Y-50842899D01*
X198847803Y-50834135D01*
X199034135Y-50647803D01*
X199042899Y-50640813D01*
X199050537Y-50633176D01*
X199101837Y-50593811D01*
X199240166Y-50483498D01*
X199270175Y-50464641D01*
X199294410Y-50446046D01*
X199360454Y-50407915D01*
X199463303Y-50343291D01*
X199518064Y-50316919D01*
X199560622Y-50292349D01*
X199621136Y-50267282D01*
X199700724Y-50228956D01*
X199784087Y-50199786D01*
X199844617Y-50174714D01*
X199892105Y-50161989D01*
X199949459Y-50141921D01*
X200067868Y-50114894D01*
X200141538Y-50095155D01*
X200171816Y-50091168D01*
X200206366Y-50083283D01*
X200382186Y-50063473D01*
X200446303Y-50055032D01*
X200457104Y-50055032D01*
X200468243Y-50053777D01*
X200731757Y-50053777D01*
X200742896Y-50055032D01*
G37*
G36*
X116940285Y-51843060D02*
G01*
X117121397Y-51918079D01*
X117284393Y-52026990D01*
X117423010Y-52165607D01*
X117531921Y-52328603D01*
X117606940Y-52509715D01*
X117645185Y-52701983D01*
X117645185Y-52898017D01*
X117606940Y-53090285D01*
X117531921Y-53271397D01*
X117423010Y-53434393D01*
X117284393Y-53573010D01*
X117121397Y-53681921D01*
X116940285Y-53756940D01*
X116748017Y-53795185D01*
X116551983Y-53795185D01*
X116359715Y-53756940D01*
X116178603Y-53681921D01*
X116015607Y-53573010D01*
X115876990Y-53434393D01*
X115768079Y-53271397D01*
X115693060Y-53090285D01*
X115654815Y-52898017D01*
X115654815Y-52701983D01*
X115693060Y-52509715D01*
X115768079Y-52328603D01*
X115876990Y-52165607D01*
X116015607Y-52026990D01*
X116178603Y-51918079D01*
X116359715Y-51843060D01*
X116551983Y-51804815D01*
X116748017Y-51804815D01*
X116940285Y-51843060D01*
G37*
M02*
