G04 #@! TF.GenerationSoftware,KiCad,Pcbnew,9.0.4-9.0.4-0~ubuntu24.04.1*
G04 #@! TF.CreationDate,2026-02-11T09:01:33+09:00*
G04 #@! TF.ProjectId,10k-Hour-Timer-RP2040,31306b2d-486f-4757-922d-54696d65722d,rev?*
G04 #@! TF.SameCoordinates,Original*
G04 #@! TF.FileFunction,Paste,Top*
G04 #@! TF.FilePolarity,Positive*
%FSLAX46Y46*%
G04 Gerber Fmt 4.6, Leading zero omitted, Abs format (unit mm)*
G04 Created by KiCad (PCBNEW 9.0.4-9.0.4-0~ubuntu24.04.1) date 2026-02-11 09:01:33*
%MOMM*%
%LPD*%
G01*
G04 APERTURE LIST*
G04 Aperture macros list*
%AMRoundRect*
0 Rectangle with rounded corners*
0 $1 Rounding radius*
0 $2 $3 $4 $5 $6 $7 $8 $9 X,Y pos of 4 corners*
0 Add a 4 corners polygon primitive as box body*
4,1,4,$2,$3,$4,$5,$6,$7,$8,$9,$2,$3,0*
0 Add four circle primitives for the rounded corners*
1,1,$1+$1,$2,$3*
1,1,$1+$1,$4,$5*
1,1,$1+$1,$6,$7*
1,1,$1+$1,$8,$9*
0 Add four rect primitives between the rounded corners*
20,1,$1+$1,$2,$3,$4,$5,0*
20,1,$1+$1,$4,$5,$6,$7,0*
20,1,$1+$1,$6,$7,$8,$9,0*
20,1,$1+$1,$8,$9,$2,$3,0*%
G04 Aperture macros list end*
%ADD10C,0.100000*%
%ADD11C,0.150000*%
%ADD12C,0.300000*%
%ADD13C,0.400000*%
%ADD14RoundRect,0.250000X-0.350000X-0.450000X0.350000X-0.450000X0.350000X0.450000X-0.350000X0.450000X0*%
%ADD15RoundRect,0.250000X0.350000X0.450000X-0.350000X0.450000X-0.350000X-0.450000X0.350000X-0.450000X0*%
%ADD16R,0.970000X1.000000*%
%ADD17RoundRect,0.237500X-0.237500X0.300000X-0.237500X-0.300000X0.237500X-0.300000X0.237500X0.300000X0*%
%ADD18RoundRect,0.250000X0.325000X0.650000X-0.325000X0.650000X-0.325000X-0.650000X0.325000X-0.650000X0*%
%ADD19RoundRect,0.250000X-0.450000X0.350000X-0.450000X-0.350000X0.450000X-0.350000X0.450000X0.350000X0*%
%ADD20RoundRect,0.150000X-0.512500X-0.150000X0.512500X-0.150000X0.512500X0.150000X-0.512500X0.150000X0*%
%ADD21RoundRect,0.243750X-0.243750X-0.456250X0.243750X-0.456250X0.243750X0.456250X-0.243750X0.456250X0*%
%ADD22RoundRect,0.243750X0.243750X0.456250X-0.243750X0.456250X-0.243750X-0.456250X0.243750X-0.456250X0*%
%ADD23RoundRect,0.162500X0.650000X0.162500X-0.650000X0.162500X-0.650000X-0.162500X0.650000X-0.162500X0*%
%ADD24RoundRect,0.237500X-0.300000X-0.237500X0.300000X-0.237500X0.300000X0.237500X-0.300000X0.237500X0*%
%ADD25RoundRect,0.150000X0.587500X0.150000X-0.587500X0.150000X-0.587500X-0.150000X0.587500X-0.150000X0*%
%ADD26RoundRect,0.150000X-0.150000X0.512500X-0.150000X-0.512500X0.150000X-0.512500X0.150000X0.512500X0*%
%ADD27RoundRect,0.237500X0.237500X-0.300000X0.237500X0.300000X-0.237500X0.300000X-0.237500X-0.300000X0*%
%ADD28RoundRect,0.237500X0.300000X0.237500X-0.300000X0.237500X-0.300000X-0.237500X0.300000X-0.237500X0*%
%ADD29RoundRect,0.250000X0.450000X-0.350000X0.450000X0.350000X-0.450000X0.350000X-0.450000X-0.350000X0*%
%ADD30RoundRect,0.150000X-0.150000X0.587500X-0.150000X-0.587500X0.150000X-0.587500X0.150000X0.587500X0*%
%ADD31RoundRect,0.070000X0.070000X0.355000X-0.070000X0.355000X-0.070000X-0.355000X0.070000X-0.355000X0*%
%ADD32RoundRect,0.070000X0.070000X0.305000X-0.070000X0.305000X-0.070000X-0.305000X0.070000X-0.305000X0*%
%ADD33RoundRect,0.249999X0.395001X-0.395001X0.395001X0.395001X-0.395001X0.395001X-0.395001X-0.395001X0*%
%ADD34RoundRect,0.050000X0.050000X-0.387500X0.050000X0.387500X-0.050000X0.387500X-0.050000X-0.387500X0*%
%ADD35RoundRect,0.050000X0.387500X-0.050000X0.387500X0.050000X-0.387500X0.050000X-0.387500X-0.050000X0*%
%ADD36R,1.150000X0.600000*%
%ADD37R,1.150000X0.300000*%
%ADD38R,3.600000X1.150000*%
%ADD39RoundRect,0.150000X-0.587500X-0.150000X0.587500X-0.150000X0.587500X0.150000X-0.587500X0.150000X0*%
%ADD40RoundRect,0.150000X-0.150000X0.825000X-0.150000X-0.825000X0.150000X-0.825000X0.150000X0.825000X0*%
%ADD41RoundRect,0.150000X0.625000X-0.150000X0.625000X0.150000X-0.625000X0.150000X-0.625000X-0.150000X0*%
%ADD42RoundRect,0.250000X0.650000X-0.350000X0.650000X0.350000X-0.650000X0.350000X-0.650000X-0.350000X0*%
%ADD43RoundRect,0.243750X-0.456250X0.243750X-0.456250X-0.243750X0.456250X-0.243750X0.456250X0.243750X0*%
%ADD44R,0.601900X1.968500*%
%ADD45RoundRect,0.250000X1.000000X0.650000X-1.000000X0.650000X-1.000000X-0.650000X1.000000X-0.650000X0*%
%ADD46R,1.050000X1.300000*%
%ADD47R,1.300000X3.400000*%
%ADD48R,1.000000X1.800000*%
%ADD49RoundRect,0.250000X0.250000X0.250000X-0.250000X0.250000X-0.250000X-0.250000X0.250000X-0.250000X0*%
G04 APERTURE END LIST*
D10*
D11*
X177002200Y-166007200D02*
X285002200Y-166007200D01*
X285002200Y-198007200D01*
X177002200Y-198007200D01*
X177002200Y-166007200D01*
D10*
D11*
X10000000Y-10000000D02*
X287002200Y-10000000D01*
X287002200Y-200007200D01*
X10000000Y-200007200D01*
X10000000Y-10000000D01*
D10*
D11*
X12000000Y-12000000D02*
X285002200Y-12000000D01*
X285002200Y-198007200D01*
X12000000Y-198007200D01*
X12000000Y-12000000D01*
D10*
D11*
X60000000Y-12000000D02*
X60000000Y-10000000D01*
D10*
D11*
X110000000Y-12000000D02*
X110000000Y-10000000D01*
D10*
D11*
X160000000Y-12000000D02*
X160000000Y-10000000D01*
D10*
D11*
X210000000Y-12000000D02*
X210000000Y-10000000D01*
D10*
D11*
X260000000Y-12000000D02*
X260000000Y-10000000D01*
D10*
D11*
X36089160Y-11593604D02*
X35346303Y-11593604D01*
X35717731Y-11593604D02*
X35717731Y-10293604D01*
X35717731Y-10293604D02*
X35593922Y-10479319D01*
X35593922Y-10479319D02*
X35470112Y-10603128D01*
X35470112Y-10603128D02*
X35346303Y-10665033D01*
D10*
D11*
X85346303Y-10417414D02*
X85408207Y-10355509D01*
X85408207Y-10355509D02*
X85532017Y-10293604D01*
X85532017Y-10293604D02*
X85841541Y-10293604D01*
X85841541Y-10293604D02*
X85965350Y-10355509D01*
X85965350Y-10355509D02*
X86027255Y-10417414D01*
X86027255Y-10417414D02*
X86089160Y-10541223D01*
X86089160Y-10541223D02*
X86089160Y-10665033D01*
X86089160Y-10665033D02*
X86027255Y-10850747D01*
X86027255Y-10850747D02*
X85284398Y-11593604D01*
X85284398Y-11593604D02*
X86089160Y-11593604D01*
D10*
D11*
X135284398Y-10293604D02*
X136089160Y-10293604D01*
X136089160Y-10293604D02*
X135655826Y-10788842D01*
X135655826Y-10788842D02*
X135841541Y-10788842D01*
X135841541Y-10788842D02*
X135965350Y-10850747D01*
X135965350Y-10850747D02*
X136027255Y-10912652D01*
X136027255Y-10912652D02*
X136089160Y-11036461D01*
X136089160Y-11036461D02*
X136089160Y-11345985D01*
X136089160Y-11345985D02*
X136027255Y-11469795D01*
X136027255Y-11469795D02*
X135965350Y-11531700D01*
X135965350Y-11531700D02*
X135841541Y-11593604D01*
X135841541Y-11593604D02*
X135470112Y-11593604D01*
X135470112Y-11593604D02*
X135346303Y-11531700D01*
X135346303Y-11531700D02*
X135284398Y-11469795D01*
D10*
D11*
X185965350Y-10726938D02*
X185965350Y-11593604D01*
X185655826Y-10231700D02*
X185346303Y-11160271D01*
X185346303Y-11160271D02*
X186151064Y-11160271D01*
D10*
D11*
X236027255Y-10293604D02*
X235408207Y-10293604D01*
X235408207Y-10293604D02*
X235346303Y-10912652D01*
X235346303Y-10912652D02*
X235408207Y-10850747D01*
X235408207Y-10850747D02*
X235532017Y-10788842D01*
X235532017Y-10788842D02*
X235841541Y-10788842D01*
X235841541Y-10788842D02*
X235965350Y-10850747D01*
X235965350Y-10850747D02*
X236027255Y-10912652D01*
X236027255Y-10912652D02*
X236089160Y-11036461D01*
X236089160Y-11036461D02*
X236089160Y-11345985D01*
X236089160Y-11345985D02*
X236027255Y-11469795D01*
X236027255Y-11469795D02*
X235965350Y-11531700D01*
X235965350Y-11531700D02*
X235841541Y-11593604D01*
X235841541Y-11593604D02*
X235532017Y-11593604D01*
X235532017Y-11593604D02*
X235408207Y-11531700D01*
X235408207Y-11531700D02*
X235346303Y-11469795D01*
D10*
D11*
X285965350Y-10293604D02*
X285717731Y-10293604D01*
X285717731Y-10293604D02*
X285593922Y-10355509D01*
X285593922Y-10355509D02*
X285532017Y-10417414D01*
X285532017Y-10417414D02*
X285408207Y-10603128D01*
X285408207Y-10603128D02*
X285346303Y-10850747D01*
X285346303Y-10850747D02*
X285346303Y-11345985D01*
X285346303Y-11345985D02*
X285408207Y-11469795D01*
X285408207Y-11469795D02*
X285470112Y-11531700D01*
X285470112Y-11531700D02*
X285593922Y-11593604D01*
X285593922Y-11593604D02*
X285841541Y-11593604D01*
X285841541Y-11593604D02*
X285965350Y-11531700D01*
X285965350Y-11531700D02*
X286027255Y-11469795D01*
X286027255Y-11469795D02*
X286089160Y-11345985D01*
X286089160Y-11345985D02*
X286089160Y-11036461D01*
X286089160Y-11036461D02*
X286027255Y-10912652D01*
X286027255Y-10912652D02*
X285965350Y-10850747D01*
X285965350Y-10850747D02*
X285841541Y-10788842D01*
X285841541Y-10788842D02*
X285593922Y-10788842D01*
X285593922Y-10788842D02*
X285470112Y-10850747D01*
X285470112Y-10850747D02*
X285408207Y-10912652D01*
X285408207Y-10912652D02*
X285346303Y-11036461D01*
D10*
D11*
X60000000Y-198007200D02*
X60000000Y-200007200D01*
D10*
D11*
X110000000Y-198007200D02*
X110000000Y-200007200D01*
D10*
D11*
X160000000Y-198007200D02*
X160000000Y-200007200D01*
D10*
D11*
X210000000Y-198007200D02*
X210000000Y-200007200D01*
D10*
D11*
X260000000Y-198007200D02*
X260000000Y-200007200D01*
D10*
D11*
X36089160Y-199600804D02*
X35346303Y-199600804D01*
X35717731Y-199600804D02*
X35717731Y-198300804D01*
X35717731Y-198300804D02*
X35593922Y-198486519D01*
X35593922Y-198486519D02*
X35470112Y-198610328D01*
X35470112Y-198610328D02*
X35346303Y-198672233D01*
D10*
D11*
X85346303Y-198424614D02*
X85408207Y-198362709D01*
X85408207Y-198362709D02*
X85532017Y-198300804D01*
X85532017Y-198300804D02*
X85841541Y-198300804D01*
X85841541Y-198300804D02*
X85965350Y-198362709D01*
X85965350Y-198362709D02*
X86027255Y-198424614D01*
X86027255Y-198424614D02*
X86089160Y-198548423D01*
X86089160Y-198548423D02*
X86089160Y-198672233D01*
X86089160Y-198672233D02*
X86027255Y-198857947D01*
X86027255Y-198857947D02*
X85284398Y-199600804D01*
X85284398Y-199600804D02*
X86089160Y-199600804D01*
D10*
D11*
X135284398Y-198300804D02*
X136089160Y-198300804D01*
X136089160Y-198300804D02*
X135655826Y-198796042D01*
X135655826Y-198796042D02*
X135841541Y-198796042D01*
X135841541Y-198796042D02*
X135965350Y-198857947D01*
X135965350Y-198857947D02*
X136027255Y-198919852D01*
X136027255Y-198919852D02*
X136089160Y-199043661D01*
X136089160Y-199043661D02*
X136089160Y-199353185D01*
X136089160Y-199353185D02*
X136027255Y-199476995D01*
X136027255Y-199476995D02*
X135965350Y-199538900D01*
X135965350Y-199538900D02*
X135841541Y-199600804D01*
X135841541Y-199600804D02*
X135470112Y-199600804D01*
X135470112Y-199600804D02*
X135346303Y-199538900D01*
X135346303Y-199538900D02*
X135284398Y-199476995D01*
D10*
D11*
X185965350Y-198734138D02*
X185965350Y-199600804D01*
X185655826Y-198238900D02*
X185346303Y-199167471D01*
X185346303Y-199167471D02*
X186151064Y-199167471D01*
D10*
D11*
X236027255Y-198300804D02*
X235408207Y-198300804D01*
X235408207Y-198300804D02*
X235346303Y-198919852D01*
X235346303Y-198919852D02*
X235408207Y-198857947D01*
X235408207Y-198857947D02*
X235532017Y-198796042D01*
X235532017Y-198796042D02*
X235841541Y-198796042D01*
X235841541Y-198796042D02*
X235965350Y-198857947D01*
X235965350Y-198857947D02*
X236027255Y-198919852D01*
X236027255Y-198919852D02*
X236089160Y-199043661D01*
X236089160Y-199043661D02*
X236089160Y-199353185D01*
X236089160Y-199353185D02*
X236027255Y-199476995D01*
X236027255Y-199476995D02*
X235965350Y-199538900D01*
X235965350Y-199538900D02*
X235841541Y-199600804D01*
X235841541Y-199600804D02*
X235532017Y-199600804D01*
X235532017Y-199600804D02*
X235408207Y-199538900D01*
X235408207Y-199538900D02*
X235346303Y-199476995D01*
D10*
D11*
X285965350Y-198300804D02*
X285717731Y-198300804D01*
X285717731Y-198300804D02*
X285593922Y-198362709D01*
X285593922Y-198362709D02*
X285532017Y-198424614D01*
X285532017Y-198424614D02*
X285408207Y-198610328D01*
X285408207Y-198610328D02*
X285346303Y-198857947D01*
X285346303Y-198857947D02*
X285346303Y-199353185D01*
X285346303Y-199353185D02*
X285408207Y-199476995D01*
X285408207Y-199476995D02*
X285470112Y-199538900D01*
X285470112Y-199538900D02*
X285593922Y-199600804D01*
X285593922Y-199600804D02*
X285841541Y-199600804D01*
X285841541Y-199600804D02*
X285965350Y-199538900D01*
X285965350Y-199538900D02*
X286027255Y-199476995D01*
X286027255Y-199476995D02*
X286089160Y-199353185D01*
X286089160Y-199353185D02*
X286089160Y-199043661D01*
X286089160Y-199043661D02*
X286027255Y-198919852D01*
X286027255Y-198919852D02*
X285965350Y-198857947D01*
X285965350Y-198857947D02*
X285841541Y-198796042D01*
X285841541Y-198796042D02*
X285593922Y-198796042D01*
X285593922Y-198796042D02*
X285470112Y-198857947D01*
X285470112Y-198857947D02*
X285408207Y-198919852D01*
X285408207Y-198919852D02*
X285346303Y-199043661D01*
D10*
D11*
X10000000Y-60000000D02*
X12000000Y-60000000D01*
D10*
D11*
X10000000Y-110000000D02*
X12000000Y-110000000D01*
D10*
D11*
X10000000Y-160000000D02*
X12000000Y-160000000D01*
D10*
D11*
X10690476Y-35222176D02*
X11309523Y-35222176D01*
X10566666Y-35593604D02*
X10999999Y-34293604D01*
X10999999Y-34293604D02*
X11433333Y-35593604D01*
D10*
D11*
X11092857Y-84912652D02*
X11278571Y-84974557D01*
X11278571Y-84974557D02*
X11340476Y-85036461D01*
X11340476Y-85036461D02*
X11402380Y-85160271D01*
X11402380Y-85160271D02*
X11402380Y-85345985D01*
X11402380Y-85345985D02*
X11340476Y-85469795D01*
X11340476Y-85469795D02*
X11278571Y-85531700D01*
X11278571Y-85531700D02*
X11154761Y-85593604D01*
X11154761Y-85593604D02*
X10659523Y-85593604D01*
X10659523Y-85593604D02*
X10659523Y-84293604D01*
X10659523Y-84293604D02*
X11092857Y-84293604D01*
X11092857Y-84293604D02*
X11216666Y-84355509D01*
X11216666Y-84355509D02*
X11278571Y-84417414D01*
X11278571Y-84417414D02*
X11340476Y-84541223D01*
X11340476Y-84541223D02*
X11340476Y-84665033D01*
X11340476Y-84665033D02*
X11278571Y-84788842D01*
X11278571Y-84788842D02*
X11216666Y-84850747D01*
X11216666Y-84850747D02*
X11092857Y-84912652D01*
X11092857Y-84912652D02*
X10659523Y-84912652D01*
D10*
D11*
X11402380Y-135469795D02*
X11340476Y-135531700D01*
X11340476Y-135531700D02*
X11154761Y-135593604D01*
X11154761Y-135593604D02*
X11030952Y-135593604D01*
X11030952Y-135593604D02*
X10845238Y-135531700D01*
X10845238Y-135531700D02*
X10721428Y-135407890D01*
X10721428Y-135407890D02*
X10659523Y-135284080D01*
X10659523Y-135284080D02*
X10597619Y-135036461D01*
X10597619Y-135036461D02*
X10597619Y-134850747D01*
X10597619Y-134850747D02*
X10659523Y-134603128D01*
X10659523Y-134603128D02*
X10721428Y-134479319D01*
X10721428Y-134479319D02*
X10845238Y-134355509D01*
X10845238Y-134355509D02*
X11030952Y-134293604D01*
X11030952Y-134293604D02*
X11154761Y-134293604D01*
X11154761Y-134293604D02*
X11340476Y-134355509D01*
X11340476Y-134355509D02*
X11402380Y-134417414D01*
D10*
D11*
X10659523Y-185593604D02*
X10659523Y-184293604D01*
X10659523Y-184293604D02*
X10969047Y-184293604D01*
X10969047Y-184293604D02*
X11154761Y-184355509D01*
X11154761Y-184355509D02*
X11278571Y-184479319D01*
X11278571Y-184479319D02*
X11340476Y-184603128D01*
X11340476Y-184603128D02*
X11402380Y-184850747D01*
X11402380Y-184850747D02*
X11402380Y-185036461D01*
X11402380Y-185036461D02*
X11340476Y-185284080D01*
X11340476Y-185284080D02*
X11278571Y-185407890D01*
X11278571Y-185407890D02*
X11154761Y-185531700D01*
X11154761Y-185531700D02*
X10969047Y-185593604D01*
X10969047Y-185593604D02*
X10659523Y-185593604D01*
D10*
D11*
X287002200Y-60000000D02*
X285002200Y-60000000D01*
D10*
D11*
X287002200Y-110000000D02*
X285002200Y-110000000D01*
D10*
D11*
X287002200Y-160000000D02*
X285002200Y-160000000D01*
D10*
D11*
X285692676Y-35222176D02*
X286311723Y-35222176D01*
X285568866Y-35593604D02*
X286002199Y-34293604D01*
X286002199Y-34293604D02*
X286435533Y-35593604D01*
D10*
D11*
X286095057Y-84912652D02*
X286280771Y-84974557D01*
X286280771Y-84974557D02*
X286342676Y-85036461D01*
X286342676Y-85036461D02*
X286404580Y-85160271D01*
X286404580Y-85160271D02*
X286404580Y-85345985D01*
X286404580Y-85345985D02*
X286342676Y-85469795D01*
X286342676Y-85469795D02*
X286280771Y-85531700D01*
X286280771Y-85531700D02*
X286156961Y-85593604D01*
X286156961Y-85593604D02*
X285661723Y-85593604D01*
X285661723Y-85593604D02*
X285661723Y-84293604D01*
X285661723Y-84293604D02*
X286095057Y-84293604D01*
X286095057Y-84293604D02*
X286218866Y-84355509D01*
X286218866Y-84355509D02*
X286280771Y-84417414D01*
X286280771Y-84417414D02*
X286342676Y-84541223D01*
X286342676Y-84541223D02*
X286342676Y-84665033D01*
X286342676Y-84665033D02*
X286280771Y-84788842D01*
X286280771Y-84788842D02*
X286218866Y-84850747D01*
X286218866Y-84850747D02*
X286095057Y-84912652D01*
X286095057Y-84912652D02*
X285661723Y-84912652D01*
D10*
D11*
X286404580Y-135469795D02*
X286342676Y-135531700D01*
X286342676Y-135531700D02*
X286156961Y-135593604D01*
X286156961Y-135593604D02*
X286033152Y-135593604D01*
X286033152Y-135593604D02*
X285847438Y-135531700D01*
X285847438Y-135531700D02*
X285723628Y-135407890D01*
X285723628Y-135407890D02*
X285661723Y-135284080D01*
X285661723Y-135284080D02*
X285599819Y-135036461D01*
X285599819Y-135036461D02*
X285599819Y-134850747D01*
X285599819Y-134850747D02*
X285661723Y-134603128D01*
X285661723Y-134603128D02*
X285723628Y-134479319D01*
X285723628Y-134479319D02*
X285847438Y-134355509D01*
X285847438Y-134355509D02*
X286033152Y-134293604D01*
X286033152Y-134293604D02*
X286156961Y-134293604D01*
X286156961Y-134293604D02*
X286342676Y-134355509D01*
X286342676Y-134355509D02*
X286404580Y-134417414D01*
D10*
D11*
X285661723Y-185593604D02*
X285661723Y-184293604D01*
X285661723Y-184293604D02*
X285971247Y-184293604D01*
X285971247Y-184293604D02*
X286156961Y-184355509D01*
X286156961Y-184355509D02*
X286280771Y-184479319D01*
X286280771Y-184479319D02*
X286342676Y-184603128D01*
X286342676Y-184603128D02*
X286404580Y-184850747D01*
X286404580Y-184850747D02*
X286404580Y-185036461D01*
X286404580Y-185036461D02*
X286342676Y-185284080D01*
X286342676Y-185284080D02*
X286280771Y-185407890D01*
X286280771Y-185407890D02*
X286156961Y-185531700D01*
X286156961Y-185531700D02*
X285971247Y-185593604D01*
X285971247Y-185593604D02*
X285661723Y-185593604D01*
D10*
D11*
X200458026Y-193793328D02*
X200458026Y-192293328D01*
X200458026Y-192293328D02*
X200815169Y-192293328D01*
X200815169Y-192293328D02*
X201029455Y-192364757D01*
X201029455Y-192364757D02*
X201172312Y-192507614D01*
X201172312Y-192507614D02*
X201243741Y-192650471D01*
X201243741Y-192650471D02*
X201315169Y-192936185D01*
X201315169Y-192936185D02*
X201315169Y-193150471D01*
X201315169Y-193150471D02*
X201243741Y-193436185D01*
X201243741Y-193436185D02*
X201172312Y-193579042D01*
X201172312Y-193579042D02*
X201029455Y-193721900D01*
X201029455Y-193721900D02*
X200815169Y-193793328D01*
X200815169Y-193793328D02*
X200458026Y-193793328D01*
X202600884Y-193793328D02*
X202600884Y-193007614D01*
X202600884Y-193007614D02*
X202529455Y-192864757D01*
X202529455Y-192864757D02*
X202386598Y-192793328D01*
X202386598Y-192793328D02*
X202100884Y-192793328D01*
X202100884Y-192793328D02*
X201958026Y-192864757D01*
X202600884Y-193721900D02*
X202458026Y-193793328D01*
X202458026Y-193793328D02*
X202100884Y-193793328D01*
X202100884Y-193793328D02*
X201958026Y-193721900D01*
X201958026Y-193721900D02*
X201886598Y-193579042D01*
X201886598Y-193579042D02*
X201886598Y-193436185D01*
X201886598Y-193436185D02*
X201958026Y-193293328D01*
X201958026Y-193293328D02*
X202100884Y-193221900D01*
X202100884Y-193221900D02*
X202458026Y-193221900D01*
X202458026Y-193221900D02*
X202600884Y-193150471D01*
X203100884Y-192793328D02*
X203672312Y-192793328D01*
X203315169Y-192293328D02*
X203315169Y-193579042D01*
X203315169Y-193579042D02*
X203386598Y-193721900D01*
X203386598Y-193721900D02*
X203529455Y-193793328D01*
X203529455Y-193793328D02*
X203672312Y-193793328D01*
X204743741Y-193721900D02*
X204600884Y-193793328D01*
X204600884Y-193793328D02*
X204315170Y-193793328D01*
X204315170Y-193793328D02*
X204172312Y-193721900D01*
X204172312Y-193721900D02*
X204100884Y-193579042D01*
X204100884Y-193579042D02*
X204100884Y-193007614D01*
X204100884Y-193007614D02*
X204172312Y-192864757D01*
X204172312Y-192864757D02*
X204315170Y-192793328D01*
X204315170Y-192793328D02*
X204600884Y-192793328D01*
X204600884Y-192793328D02*
X204743741Y-192864757D01*
X204743741Y-192864757D02*
X204815170Y-193007614D01*
X204815170Y-193007614D02*
X204815170Y-193150471D01*
X204815170Y-193150471D02*
X204100884Y-193293328D01*
X205458026Y-193650471D02*
X205529455Y-193721900D01*
X205529455Y-193721900D02*
X205458026Y-193793328D01*
X205458026Y-193793328D02*
X205386598Y-193721900D01*
X205386598Y-193721900D02*
X205458026Y-193650471D01*
X205458026Y-193650471D02*
X205458026Y-193793328D01*
X205458026Y-192864757D02*
X205529455Y-192936185D01*
X205529455Y-192936185D02*
X205458026Y-193007614D01*
X205458026Y-193007614D02*
X205386598Y-192936185D01*
X205386598Y-192936185D02*
X205458026Y-192864757D01*
X205458026Y-192864757D02*
X205458026Y-193007614D01*
D10*
D11*
X177002200Y-194507200D02*
X285002200Y-194507200D01*
D10*
D11*
X178458026Y-196593328D02*
X178458026Y-195093328D01*
X179315169Y-196593328D02*
X178672312Y-195736185D01*
X179315169Y-195093328D02*
X178458026Y-195950471D01*
X179958026Y-196593328D02*
X179958026Y-195593328D01*
X179958026Y-195093328D02*
X179886598Y-195164757D01*
X179886598Y-195164757D02*
X179958026Y-195236185D01*
X179958026Y-195236185D02*
X180029455Y-195164757D01*
X180029455Y-195164757D02*
X179958026Y-195093328D01*
X179958026Y-195093328D02*
X179958026Y-195236185D01*
X181529455Y-196450471D02*
X181458027Y-196521900D01*
X181458027Y-196521900D02*
X181243741Y-196593328D01*
X181243741Y-196593328D02*
X181100884Y-196593328D01*
X181100884Y-196593328D02*
X180886598Y-196521900D01*
X180886598Y-196521900D02*
X180743741Y-196379042D01*
X180743741Y-196379042D02*
X180672312Y-196236185D01*
X180672312Y-196236185D02*
X180600884Y-195950471D01*
X180600884Y-195950471D02*
X180600884Y-195736185D01*
X180600884Y-195736185D02*
X180672312Y-195450471D01*
X180672312Y-195450471D02*
X180743741Y-195307614D01*
X180743741Y-195307614D02*
X180886598Y-195164757D01*
X180886598Y-195164757D02*
X181100884Y-195093328D01*
X181100884Y-195093328D02*
X181243741Y-195093328D01*
X181243741Y-195093328D02*
X181458027Y-195164757D01*
X181458027Y-195164757D02*
X181529455Y-195236185D01*
X182815170Y-196593328D02*
X182815170Y-195807614D01*
X182815170Y-195807614D02*
X182743741Y-195664757D01*
X182743741Y-195664757D02*
X182600884Y-195593328D01*
X182600884Y-195593328D02*
X182315170Y-195593328D01*
X182315170Y-195593328D02*
X182172312Y-195664757D01*
X182815170Y-196521900D02*
X182672312Y-196593328D01*
X182672312Y-196593328D02*
X182315170Y-196593328D01*
X182315170Y-196593328D02*
X182172312Y-196521900D01*
X182172312Y-196521900D02*
X182100884Y-196379042D01*
X182100884Y-196379042D02*
X182100884Y-196236185D01*
X182100884Y-196236185D02*
X182172312Y-196093328D01*
X182172312Y-196093328D02*
X182315170Y-196021900D01*
X182315170Y-196021900D02*
X182672312Y-196021900D01*
X182672312Y-196021900D02*
X182815170Y-195950471D01*
X184172313Y-196593328D02*
X184172313Y-195093328D01*
X184172313Y-196521900D02*
X184029455Y-196593328D01*
X184029455Y-196593328D02*
X183743741Y-196593328D01*
X183743741Y-196593328D02*
X183600884Y-196521900D01*
X183600884Y-196521900D02*
X183529455Y-196450471D01*
X183529455Y-196450471D02*
X183458027Y-196307614D01*
X183458027Y-196307614D02*
X183458027Y-195879042D01*
X183458027Y-195879042D02*
X183529455Y-195736185D01*
X183529455Y-195736185D02*
X183600884Y-195664757D01*
X183600884Y-195664757D02*
X183743741Y-195593328D01*
X183743741Y-195593328D02*
X184029455Y-195593328D01*
X184029455Y-195593328D02*
X184172313Y-195664757D01*
X186029455Y-195807614D02*
X186529455Y-195807614D01*
X186743741Y-196593328D02*
X186029455Y-196593328D01*
X186029455Y-196593328D02*
X186029455Y-195093328D01*
X186029455Y-195093328D02*
X186743741Y-195093328D01*
X187386598Y-196450471D02*
X187458027Y-196521900D01*
X187458027Y-196521900D02*
X187386598Y-196593328D01*
X187386598Y-196593328D02*
X187315170Y-196521900D01*
X187315170Y-196521900D02*
X187386598Y-196450471D01*
X187386598Y-196450471D02*
X187386598Y-196593328D01*
X188100884Y-196593328D02*
X188100884Y-195093328D01*
X188100884Y-195093328D02*
X188458027Y-195093328D01*
X188458027Y-195093328D02*
X188672313Y-195164757D01*
X188672313Y-195164757D02*
X188815170Y-195307614D01*
X188815170Y-195307614D02*
X188886599Y-195450471D01*
X188886599Y-195450471D02*
X188958027Y-195736185D01*
X188958027Y-195736185D02*
X188958027Y-195950471D01*
X188958027Y-195950471D02*
X188886599Y-196236185D01*
X188886599Y-196236185D02*
X188815170Y-196379042D01*
X188815170Y-196379042D02*
X188672313Y-196521900D01*
X188672313Y-196521900D02*
X188458027Y-196593328D01*
X188458027Y-196593328D02*
X188100884Y-196593328D01*
X189600884Y-196450471D02*
X189672313Y-196521900D01*
X189672313Y-196521900D02*
X189600884Y-196593328D01*
X189600884Y-196593328D02*
X189529456Y-196521900D01*
X189529456Y-196521900D02*
X189600884Y-196450471D01*
X189600884Y-196450471D02*
X189600884Y-196593328D01*
X190243742Y-196164757D02*
X190958028Y-196164757D01*
X190100885Y-196593328D02*
X190600885Y-195093328D01*
X190600885Y-195093328D02*
X191100885Y-196593328D01*
X191600884Y-196450471D02*
X191672313Y-196521900D01*
X191672313Y-196521900D02*
X191600884Y-196593328D01*
X191600884Y-196593328D02*
X191529456Y-196521900D01*
X191529456Y-196521900D02*
X191600884Y-196450471D01*
X191600884Y-196450471D02*
X191600884Y-196593328D01*
X193529456Y-196593328D02*
X193815170Y-196593328D01*
X193815170Y-196593328D02*
X193958027Y-196521900D01*
X193958027Y-196521900D02*
X194029456Y-196450471D01*
X194029456Y-196450471D02*
X194172313Y-196236185D01*
X194172313Y-196236185D02*
X194243742Y-195950471D01*
X194243742Y-195950471D02*
X194243742Y-195379042D01*
X194243742Y-195379042D02*
X194172313Y-195236185D01*
X194172313Y-195236185D02*
X194100885Y-195164757D01*
X194100885Y-195164757D02*
X193958027Y-195093328D01*
X193958027Y-195093328D02*
X193672313Y-195093328D01*
X193672313Y-195093328D02*
X193529456Y-195164757D01*
X193529456Y-195164757D02*
X193458027Y-195236185D01*
X193458027Y-195236185D02*
X193386599Y-195379042D01*
X193386599Y-195379042D02*
X193386599Y-195736185D01*
X193386599Y-195736185D02*
X193458027Y-195879042D01*
X193458027Y-195879042D02*
X193529456Y-195950471D01*
X193529456Y-195950471D02*
X193672313Y-196021900D01*
X193672313Y-196021900D02*
X193958027Y-196021900D01*
X193958027Y-196021900D02*
X194100885Y-195950471D01*
X194100885Y-195950471D02*
X194172313Y-195879042D01*
X194172313Y-195879042D02*
X194243742Y-195736185D01*
X194886598Y-196450471D02*
X194958027Y-196521900D01*
X194958027Y-196521900D02*
X194886598Y-196593328D01*
X194886598Y-196593328D02*
X194815170Y-196521900D01*
X194815170Y-196521900D02*
X194886598Y-196450471D01*
X194886598Y-196450471D02*
X194886598Y-196593328D01*
X195886599Y-195093328D02*
X196029456Y-195093328D01*
X196029456Y-195093328D02*
X196172313Y-195164757D01*
X196172313Y-195164757D02*
X196243742Y-195236185D01*
X196243742Y-195236185D02*
X196315170Y-195379042D01*
X196315170Y-195379042D02*
X196386599Y-195664757D01*
X196386599Y-195664757D02*
X196386599Y-196021900D01*
X196386599Y-196021900D02*
X196315170Y-196307614D01*
X196315170Y-196307614D02*
X196243742Y-196450471D01*
X196243742Y-196450471D02*
X196172313Y-196521900D01*
X196172313Y-196521900D02*
X196029456Y-196593328D01*
X196029456Y-196593328D02*
X195886599Y-196593328D01*
X195886599Y-196593328D02*
X195743742Y-196521900D01*
X195743742Y-196521900D02*
X195672313Y-196450471D01*
X195672313Y-196450471D02*
X195600884Y-196307614D01*
X195600884Y-196307614D02*
X195529456Y-196021900D01*
X195529456Y-196021900D02*
X195529456Y-195664757D01*
X195529456Y-195664757D02*
X195600884Y-195379042D01*
X195600884Y-195379042D02*
X195672313Y-195236185D01*
X195672313Y-195236185D02*
X195743742Y-195164757D01*
X195743742Y-195164757D02*
X195886599Y-195093328D01*
X197029455Y-196450471D02*
X197100884Y-196521900D01*
X197100884Y-196521900D02*
X197029455Y-196593328D01*
X197029455Y-196593328D02*
X196958027Y-196521900D01*
X196958027Y-196521900D02*
X197029455Y-196450471D01*
X197029455Y-196450471D02*
X197029455Y-196593328D01*
X198386599Y-195593328D02*
X198386599Y-196593328D01*
X198029456Y-195021900D02*
X197672313Y-196093328D01*
X197672313Y-196093328D02*
X198600884Y-196093328D01*
D10*
D11*
X177002200Y-191507200D02*
X285002200Y-191507200D01*
D10*
D12*
X264413853Y-193785528D02*
X263913853Y-193071242D01*
X263556710Y-193785528D02*
X263556710Y-192285528D01*
X263556710Y-192285528D02*
X264128139Y-192285528D01*
X264128139Y-192285528D02*
X264270996Y-192356957D01*
X264270996Y-192356957D02*
X264342425Y-192428385D01*
X264342425Y-192428385D02*
X264413853Y-192571242D01*
X264413853Y-192571242D02*
X264413853Y-192785528D01*
X264413853Y-192785528D02*
X264342425Y-192928385D01*
X264342425Y-192928385D02*
X264270996Y-192999814D01*
X264270996Y-192999814D02*
X264128139Y-193071242D01*
X264128139Y-193071242D02*
X263556710Y-193071242D01*
X265628139Y-193714100D02*
X265485282Y-193785528D01*
X265485282Y-193785528D02*
X265199568Y-193785528D01*
X265199568Y-193785528D02*
X265056710Y-193714100D01*
X265056710Y-193714100D02*
X264985282Y-193571242D01*
X264985282Y-193571242D02*
X264985282Y-192999814D01*
X264985282Y-192999814D02*
X265056710Y-192856957D01*
X265056710Y-192856957D02*
X265199568Y-192785528D01*
X265199568Y-192785528D02*
X265485282Y-192785528D01*
X265485282Y-192785528D02*
X265628139Y-192856957D01*
X265628139Y-192856957D02*
X265699568Y-192999814D01*
X265699568Y-192999814D02*
X265699568Y-193142671D01*
X265699568Y-193142671D02*
X264985282Y-193285528D01*
X266199567Y-192785528D02*
X266556710Y-193785528D01*
X266556710Y-193785528D02*
X266913853Y-192785528D01*
X267485281Y-193642671D02*
X267556710Y-193714100D01*
X267556710Y-193714100D02*
X267485281Y-193785528D01*
X267485281Y-193785528D02*
X267413853Y-193714100D01*
X267413853Y-193714100D02*
X267485281Y-193642671D01*
X267485281Y-193642671D02*
X267485281Y-193785528D01*
X267485281Y-192856957D02*
X267556710Y-192928385D01*
X267556710Y-192928385D02*
X267485281Y-192999814D01*
X267485281Y-192999814D02*
X267413853Y-192928385D01*
X267413853Y-192928385D02*
X267485281Y-192856957D01*
X267485281Y-192856957D02*
X267485281Y-192999814D01*
D10*
D11*
X178386598Y-193721900D02*
X178600884Y-193793328D01*
X178600884Y-193793328D02*
X178958026Y-193793328D01*
X178958026Y-193793328D02*
X179100884Y-193721900D01*
X179100884Y-193721900D02*
X179172312Y-193650471D01*
X179172312Y-193650471D02*
X179243741Y-193507614D01*
X179243741Y-193507614D02*
X179243741Y-193364757D01*
X179243741Y-193364757D02*
X179172312Y-193221900D01*
X179172312Y-193221900D02*
X179100884Y-193150471D01*
X179100884Y-193150471D02*
X178958026Y-193079042D01*
X178958026Y-193079042D02*
X178672312Y-193007614D01*
X178672312Y-193007614D02*
X178529455Y-192936185D01*
X178529455Y-192936185D02*
X178458026Y-192864757D01*
X178458026Y-192864757D02*
X178386598Y-192721900D01*
X178386598Y-192721900D02*
X178386598Y-192579042D01*
X178386598Y-192579042D02*
X178458026Y-192436185D01*
X178458026Y-192436185D02*
X178529455Y-192364757D01*
X178529455Y-192364757D02*
X178672312Y-192293328D01*
X178672312Y-192293328D02*
X179029455Y-192293328D01*
X179029455Y-192293328D02*
X179243741Y-192364757D01*
X179886597Y-193793328D02*
X179886597Y-192793328D01*
X179886597Y-192293328D02*
X179815169Y-192364757D01*
X179815169Y-192364757D02*
X179886597Y-192436185D01*
X179886597Y-192436185D02*
X179958026Y-192364757D01*
X179958026Y-192364757D02*
X179886597Y-192293328D01*
X179886597Y-192293328D02*
X179886597Y-192436185D01*
X180458026Y-192793328D02*
X181243741Y-192793328D01*
X181243741Y-192793328D02*
X180458026Y-193793328D01*
X180458026Y-193793328D02*
X181243741Y-193793328D01*
X182386598Y-193721900D02*
X182243741Y-193793328D01*
X182243741Y-193793328D02*
X181958027Y-193793328D01*
X181958027Y-193793328D02*
X181815169Y-193721900D01*
X181815169Y-193721900D02*
X181743741Y-193579042D01*
X181743741Y-193579042D02*
X181743741Y-193007614D01*
X181743741Y-193007614D02*
X181815169Y-192864757D01*
X181815169Y-192864757D02*
X181958027Y-192793328D01*
X181958027Y-192793328D02*
X182243741Y-192793328D01*
X182243741Y-192793328D02*
X182386598Y-192864757D01*
X182386598Y-192864757D02*
X182458027Y-193007614D01*
X182458027Y-193007614D02*
X182458027Y-193150471D01*
X182458027Y-193150471D02*
X181743741Y-193293328D01*
X183100883Y-193650471D02*
X183172312Y-193721900D01*
X183172312Y-193721900D02*
X183100883Y-193793328D01*
X183100883Y-193793328D02*
X183029455Y-193721900D01*
X183029455Y-193721900D02*
X183100883Y-193650471D01*
X183100883Y-193650471D02*
X183100883Y-193793328D01*
X183100883Y-192864757D02*
X183172312Y-192936185D01*
X183172312Y-192936185D02*
X183100883Y-193007614D01*
X183100883Y-193007614D02*
X183029455Y-192936185D01*
X183029455Y-192936185D02*
X183100883Y-192864757D01*
X183100883Y-192864757D02*
X183100883Y-193007614D01*
X184886598Y-193364757D02*
X185600884Y-193364757D01*
X184743741Y-193793328D02*
X185243741Y-192293328D01*
X185243741Y-192293328D02*
X185743741Y-193793328D01*
X186886598Y-192793328D02*
X186886598Y-193793328D01*
X186529455Y-192221900D02*
X186172312Y-193293328D01*
X186172312Y-193293328D02*
X187100883Y-193293328D01*
D10*
D11*
X263458026Y-196593328D02*
X263458026Y-195093328D01*
X264815170Y-196593328D02*
X264815170Y-195093328D01*
X264815170Y-196521900D02*
X264672312Y-196593328D01*
X264672312Y-196593328D02*
X264386598Y-196593328D01*
X264386598Y-196593328D02*
X264243741Y-196521900D01*
X264243741Y-196521900D02*
X264172312Y-196450471D01*
X264172312Y-196450471D02*
X264100884Y-196307614D01*
X264100884Y-196307614D02*
X264100884Y-195879042D01*
X264100884Y-195879042D02*
X264172312Y-195736185D01*
X264172312Y-195736185D02*
X264243741Y-195664757D01*
X264243741Y-195664757D02*
X264386598Y-195593328D01*
X264386598Y-195593328D02*
X264672312Y-195593328D01*
X264672312Y-195593328D02*
X264815170Y-195664757D01*
X265529455Y-196450471D02*
X265600884Y-196521900D01*
X265600884Y-196521900D02*
X265529455Y-196593328D01*
X265529455Y-196593328D02*
X265458027Y-196521900D01*
X265458027Y-196521900D02*
X265529455Y-196450471D01*
X265529455Y-196450471D02*
X265529455Y-196593328D01*
X265529455Y-195664757D02*
X265600884Y-195736185D01*
X265600884Y-195736185D02*
X265529455Y-195807614D01*
X265529455Y-195807614D02*
X265458027Y-195736185D01*
X265458027Y-195736185D02*
X265529455Y-195664757D01*
X265529455Y-195664757D02*
X265529455Y-195807614D01*
X268100884Y-195093328D02*
X267386598Y-195093328D01*
X267386598Y-195093328D02*
X267315170Y-195807614D01*
X267315170Y-195807614D02*
X267386598Y-195736185D01*
X267386598Y-195736185D02*
X267529456Y-195664757D01*
X267529456Y-195664757D02*
X267886598Y-195664757D01*
X267886598Y-195664757D02*
X268029456Y-195736185D01*
X268029456Y-195736185D02*
X268100884Y-195807614D01*
X268100884Y-195807614D02*
X268172313Y-195950471D01*
X268172313Y-195950471D02*
X268172313Y-196307614D01*
X268172313Y-196307614D02*
X268100884Y-196450471D01*
X268100884Y-196450471D02*
X268029456Y-196521900D01*
X268029456Y-196521900D02*
X267886598Y-196593328D01*
X267886598Y-196593328D02*
X267529456Y-196593328D01*
X267529456Y-196593328D02*
X267386598Y-196521900D01*
X267386598Y-196521900D02*
X267315170Y-196450471D01*
X269886598Y-195021900D02*
X268600884Y-196950471D01*
X271172313Y-196593328D02*
X270315170Y-196593328D01*
X270743741Y-196593328D02*
X270743741Y-195093328D01*
X270743741Y-195093328D02*
X270600884Y-195307614D01*
X270600884Y-195307614D02*
X270458027Y-195450471D01*
X270458027Y-195450471D02*
X270315170Y-195521900D01*
X272600884Y-196593328D02*
X271743741Y-196593328D01*
X272172312Y-196593328D02*
X272172312Y-195093328D01*
X272172312Y-195093328D02*
X272029455Y-195307614D01*
X272029455Y-195307614D02*
X271886598Y-195450471D01*
X271886598Y-195450471D02*
X271743741Y-195521900D01*
D10*
D11*
X177002200Y-187507200D02*
X285002200Y-187507200D01*
D10*
D13*
X178693928Y-188211638D02*
X179836785Y-188211638D01*
X179015357Y-190211638D02*
X179265357Y-188211638D01*
X180253452Y-190211638D02*
X180420119Y-188878304D01*
X180503452Y-188211638D02*
X180396309Y-188306876D01*
X180396309Y-188306876D02*
X180479643Y-188402114D01*
X180479643Y-188402114D02*
X180586786Y-188306876D01*
X180586786Y-188306876D02*
X180503452Y-188211638D01*
X180503452Y-188211638D02*
X180479643Y-188402114D01*
X181086786Y-188878304D02*
X181848690Y-188878304D01*
X181455833Y-188211638D02*
X181241548Y-189925923D01*
X181241548Y-189925923D02*
X181312976Y-190116400D01*
X181312976Y-190116400D02*
X181491548Y-190211638D01*
X181491548Y-190211638D02*
X181682024Y-190211638D01*
X182634405Y-190211638D02*
X182455833Y-190116400D01*
X182455833Y-190116400D02*
X182384405Y-189925923D01*
X182384405Y-189925923D02*
X182598690Y-188211638D01*
X184170119Y-190116400D02*
X183967738Y-190211638D01*
X183967738Y-190211638D02*
X183586785Y-190211638D01*
X183586785Y-190211638D02*
X183408214Y-190116400D01*
X183408214Y-190116400D02*
X183336785Y-189925923D01*
X183336785Y-189925923D02*
X183432024Y-189164019D01*
X183432024Y-189164019D02*
X183551071Y-188973542D01*
X183551071Y-188973542D02*
X183753452Y-188878304D01*
X183753452Y-188878304D02*
X184134404Y-188878304D01*
X184134404Y-188878304D02*
X184312976Y-188973542D01*
X184312976Y-188973542D02*
X184384404Y-189164019D01*
X184384404Y-189164019D02*
X184360595Y-189354495D01*
X184360595Y-189354495D02*
X183384404Y-189544971D01*
X185134405Y-190021161D02*
X185217738Y-190116400D01*
X185217738Y-190116400D02*
X185110595Y-190211638D01*
X185110595Y-190211638D02*
X185027262Y-190116400D01*
X185027262Y-190116400D02*
X185134405Y-190021161D01*
X185134405Y-190021161D02*
X185110595Y-190211638D01*
X185265357Y-188973542D02*
X185348690Y-189068780D01*
X185348690Y-189068780D02*
X185241548Y-189164019D01*
X185241548Y-189164019D02*
X185158214Y-189068780D01*
X185158214Y-189068780D02*
X185265357Y-188973542D01*
X185265357Y-188973542D02*
X185241548Y-189164019D01*
D10*
D11*
X178958026Y-185607614D02*
X178458026Y-185607614D01*
X178458026Y-186393328D02*
X178458026Y-184893328D01*
X178458026Y-184893328D02*
X179172312Y-184893328D01*
X179743740Y-186393328D02*
X179743740Y-185393328D01*
X179743740Y-184893328D02*
X179672312Y-184964757D01*
X179672312Y-184964757D02*
X179743740Y-185036185D01*
X179743740Y-185036185D02*
X179815169Y-184964757D01*
X179815169Y-184964757D02*
X179743740Y-184893328D01*
X179743740Y-184893328D02*
X179743740Y-185036185D01*
X180672312Y-186393328D02*
X180529455Y-186321900D01*
X180529455Y-186321900D02*
X180458026Y-186179042D01*
X180458026Y-186179042D02*
X180458026Y-184893328D01*
X181815169Y-186321900D02*
X181672312Y-186393328D01*
X181672312Y-186393328D02*
X181386598Y-186393328D01*
X181386598Y-186393328D02*
X181243740Y-186321900D01*
X181243740Y-186321900D02*
X181172312Y-186179042D01*
X181172312Y-186179042D02*
X181172312Y-185607614D01*
X181172312Y-185607614D02*
X181243740Y-185464757D01*
X181243740Y-185464757D02*
X181386598Y-185393328D01*
X181386598Y-185393328D02*
X181672312Y-185393328D01*
X181672312Y-185393328D02*
X181815169Y-185464757D01*
X181815169Y-185464757D02*
X181886598Y-185607614D01*
X181886598Y-185607614D02*
X181886598Y-185750471D01*
X181886598Y-185750471D02*
X181172312Y-185893328D01*
X182529454Y-186250471D02*
X182600883Y-186321900D01*
X182600883Y-186321900D02*
X182529454Y-186393328D01*
X182529454Y-186393328D02*
X182458026Y-186321900D01*
X182458026Y-186321900D02*
X182529454Y-186250471D01*
X182529454Y-186250471D02*
X182529454Y-186393328D01*
X182529454Y-185464757D02*
X182600883Y-185536185D01*
X182600883Y-185536185D02*
X182529454Y-185607614D01*
X182529454Y-185607614D02*
X182458026Y-185536185D01*
X182458026Y-185536185D02*
X182529454Y-185464757D01*
X182529454Y-185464757D02*
X182529454Y-185607614D01*
X185172312Y-186393328D02*
X184315169Y-186393328D01*
X184743740Y-186393328D02*
X184743740Y-184893328D01*
X184743740Y-184893328D02*
X184600883Y-185107614D01*
X184600883Y-185107614D02*
X184458026Y-185250471D01*
X184458026Y-185250471D02*
X184315169Y-185321900D01*
X186100883Y-184893328D02*
X186243740Y-184893328D01*
X186243740Y-184893328D02*
X186386597Y-184964757D01*
X186386597Y-184964757D02*
X186458026Y-185036185D01*
X186458026Y-185036185D02*
X186529454Y-185179042D01*
X186529454Y-185179042D02*
X186600883Y-185464757D01*
X186600883Y-185464757D02*
X186600883Y-185821900D01*
X186600883Y-185821900D02*
X186529454Y-186107614D01*
X186529454Y-186107614D02*
X186458026Y-186250471D01*
X186458026Y-186250471D02*
X186386597Y-186321900D01*
X186386597Y-186321900D02*
X186243740Y-186393328D01*
X186243740Y-186393328D02*
X186100883Y-186393328D01*
X186100883Y-186393328D02*
X185958026Y-186321900D01*
X185958026Y-186321900D02*
X185886597Y-186250471D01*
X185886597Y-186250471D02*
X185815168Y-186107614D01*
X185815168Y-186107614D02*
X185743740Y-185821900D01*
X185743740Y-185821900D02*
X185743740Y-185464757D01*
X185743740Y-185464757D02*
X185815168Y-185179042D01*
X185815168Y-185179042D02*
X185886597Y-185036185D01*
X185886597Y-185036185D02*
X185958026Y-184964757D01*
X185958026Y-184964757D02*
X186100883Y-184893328D01*
X187243739Y-186393328D02*
X187243739Y-184893328D01*
X187386597Y-185821900D02*
X187815168Y-186393328D01*
X187815168Y-185393328D02*
X187243739Y-185964757D01*
X188458025Y-185821900D02*
X189600883Y-185821900D01*
X190315168Y-186393328D02*
X190315168Y-184893328D01*
X190315168Y-185607614D02*
X191172311Y-185607614D01*
X191172311Y-186393328D02*
X191172311Y-184893328D01*
X192100883Y-186393328D02*
X191958026Y-186321900D01*
X191958026Y-186321900D02*
X191886597Y-186250471D01*
X191886597Y-186250471D02*
X191815169Y-186107614D01*
X191815169Y-186107614D02*
X191815169Y-185679042D01*
X191815169Y-185679042D02*
X191886597Y-185536185D01*
X191886597Y-185536185D02*
X191958026Y-185464757D01*
X191958026Y-185464757D02*
X192100883Y-185393328D01*
X192100883Y-185393328D02*
X192315169Y-185393328D01*
X192315169Y-185393328D02*
X192458026Y-185464757D01*
X192458026Y-185464757D02*
X192529455Y-185536185D01*
X192529455Y-185536185D02*
X192600883Y-185679042D01*
X192600883Y-185679042D02*
X192600883Y-186107614D01*
X192600883Y-186107614D02*
X192529455Y-186250471D01*
X192529455Y-186250471D02*
X192458026Y-186321900D01*
X192458026Y-186321900D02*
X192315169Y-186393328D01*
X192315169Y-186393328D02*
X192100883Y-186393328D01*
X193886598Y-185393328D02*
X193886598Y-186393328D01*
X193243740Y-185393328D02*
X193243740Y-186179042D01*
X193243740Y-186179042D02*
X193315169Y-186321900D01*
X193315169Y-186321900D02*
X193458026Y-186393328D01*
X193458026Y-186393328D02*
X193672312Y-186393328D01*
X193672312Y-186393328D02*
X193815169Y-186321900D01*
X193815169Y-186321900D02*
X193886598Y-186250471D01*
X194600883Y-186393328D02*
X194600883Y-185393328D01*
X194600883Y-185679042D02*
X194672312Y-185536185D01*
X194672312Y-185536185D02*
X194743741Y-185464757D01*
X194743741Y-185464757D02*
X194886598Y-185393328D01*
X194886598Y-185393328D02*
X195029455Y-185393328D01*
X195529454Y-185821900D02*
X196672312Y-185821900D01*
X197172312Y-184893328D02*
X198029455Y-184893328D01*
X197600883Y-186393328D02*
X197600883Y-184893328D01*
X198529454Y-186393328D02*
X198529454Y-185393328D01*
X198529454Y-184893328D02*
X198458026Y-184964757D01*
X198458026Y-184964757D02*
X198529454Y-185036185D01*
X198529454Y-185036185D02*
X198600883Y-184964757D01*
X198600883Y-184964757D02*
X198529454Y-184893328D01*
X198529454Y-184893328D02*
X198529454Y-185036185D01*
X199243740Y-186393328D02*
X199243740Y-185393328D01*
X199243740Y-185536185D02*
X199315169Y-185464757D01*
X199315169Y-185464757D02*
X199458026Y-185393328D01*
X199458026Y-185393328D02*
X199672312Y-185393328D01*
X199672312Y-185393328D02*
X199815169Y-185464757D01*
X199815169Y-185464757D02*
X199886598Y-185607614D01*
X199886598Y-185607614D02*
X199886598Y-186393328D01*
X199886598Y-185607614D02*
X199958026Y-185464757D01*
X199958026Y-185464757D02*
X200100883Y-185393328D01*
X200100883Y-185393328D02*
X200315169Y-185393328D01*
X200315169Y-185393328D02*
X200458026Y-185464757D01*
X200458026Y-185464757D02*
X200529455Y-185607614D01*
X200529455Y-185607614D02*
X200529455Y-186393328D01*
X201815169Y-186321900D02*
X201672312Y-186393328D01*
X201672312Y-186393328D02*
X201386598Y-186393328D01*
X201386598Y-186393328D02*
X201243740Y-186321900D01*
X201243740Y-186321900D02*
X201172312Y-186179042D01*
X201172312Y-186179042D02*
X201172312Y-185607614D01*
X201172312Y-185607614D02*
X201243740Y-185464757D01*
X201243740Y-185464757D02*
X201386598Y-185393328D01*
X201386598Y-185393328D02*
X201672312Y-185393328D01*
X201672312Y-185393328D02*
X201815169Y-185464757D01*
X201815169Y-185464757D02*
X201886598Y-185607614D01*
X201886598Y-185607614D02*
X201886598Y-185750471D01*
X201886598Y-185750471D02*
X201172312Y-185893328D01*
X202529454Y-186393328D02*
X202529454Y-185393328D01*
X202529454Y-185679042D02*
X202600883Y-185536185D01*
X202600883Y-185536185D02*
X202672312Y-185464757D01*
X202672312Y-185464757D02*
X202815169Y-185393328D01*
X202815169Y-185393328D02*
X202958026Y-185393328D01*
X203458025Y-185821900D02*
X204600883Y-185821900D01*
X206172311Y-186393328D02*
X205672311Y-185679042D01*
X205315168Y-186393328D02*
X205315168Y-184893328D01*
X205315168Y-184893328D02*
X205886597Y-184893328D01*
X205886597Y-184893328D02*
X206029454Y-184964757D01*
X206029454Y-184964757D02*
X206100883Y-185036185D01*
X206100883Y-185036185D02*
X206172311Y-185179042D01*
X206172311Y-185179042D02*
X206172311Y-185393328D01*
X206172311Y-185393328D02*
X206100883Y-185536185D01*
X206100883Y-185536185D02*
X206029454Y-185607614D01*
X206029454Y-185607614D02*
X205886597Y-185679042D01*
X205886597Y-185679042D02*
X205315168Y-185679042D01*
X206815168Y-186393328D02*
X206815168Y-184893328D01*
X206815168Y-184893328D02*
X207386597Y-184893328D01*
X207386597Y-184893328D02*
X207529454Y-184964757D01*
X207529454Y-184964757D02*
X207600883Y-185036185D01*
X207600883Y-185036185D02*
X207672311Y-185179042D01*
X207672311Y-185179042D02*
X207672311Y-185393328D01*
X207672311Y-185393328D02*
X207600883Y-185536185D01*
X207600883Y-185536185D02*
X207529454Y-185607614D01*
X207529454Y-185607614D02*
X207386597Y-185679042D01*
X207386597Y-185679042D02*
X206815168Y-185679042D01*
X208243740Y-185036185D02*
X208315168Y-184964757D01*
X208315168Y-184964757D02*
X208458026Y-184893328D01*
X208458026Y-184893328D02*
X208815168Y-184893328D01*
X208815168Y-184893328D02*
X208958026Y-184964757D01*
X208958026Y-184964757D02*
X209029454Y-185036185D01*
X209029454Y-185036185D02*
X209100883Y-185179042D01*
X209100883Y-185179042D02*
X209100883Y-185321900D01*
X209100883Y-185321900D02*
X209029454Y-185536185D01*
X209029454Y-185536185D02*
X208172311Y-186393328D01*
X208172311Y-186393328D02*
X209100883Y-186393328D01*
X210029454Y-184893328D02*
X210172311Y-184893328D01*
X210172311Y-184893328D02*
X210315168Y-184964757D01*
X210315168Y-184964757D02*
X210386597Y-185036185D01*
X210386597Y-185036185D02*
X210458025Y-185179042D01*
X210458025Y-185179042D02*
X210529454Y-185464757D01*
X210529454Y-185464757D02*
X210529454Y-185821900D01*
X210529454Y-185821900D02*
X210458025Y-186107614D01*
X210458025Y-186107614D02*
X210386597Y-186250471D01*
X210386597Y-186250471D02*
X210315168Y-186321900D01*
X210315168Y-186321900D02*
X210172311Y-186393328D01*
X210172311Y-186393328D02*
X210029454Y-186393328D01*
X210029454Y-186393328D02*
X209886597Y-186321900D01*
X209886597Y-186321900D02*
X209815168Y-186250471D01*
X209815168Y-186250471D02*
X209743739Y-186107614D01*
X209743739Y-186107614D02*
X209672311Y-185821900D01*
X209672311Y-185821900D02*
X209672311Y-185464757D01*
X209672311Y-185464757D02*
X209743739Y-185179042D01*
X209743739Y-185179042D02*
X209815168Y-185036185D01*
X209815168Y-185036185D02*
X209886597Y-184964757D01*
X209886597Y-184964757D02*
X210029454Y-184893328D01*
X211815168Y-185393328D02*
X211815168Y-186393328D01*
X211458025Y-184821900D02*
X211100882Y-185893328D01*
X211100882Y-185893328D02*
X212029453Y-185893328D01*
X212886596Y-184893328D02*
X213029453Y-184893328D01*
X213029453Y-184893328D02*
X213172310Y-184964757D01*
X213172310Y-184964757D02*
X213243739Y-185036185D01*
X213243739Y-185036185D02*
X213315167Y-185179042D01*
X213315167Y-185179042D02*
X213386596Y-185464757D01*
X213386596Y-185464757D02*
X213386596Y-185821900D01*
X213386596Y-185821900D02*
X213315167Y-186107614D01*
X213315167Y-186107614D02*
X213243739Y-186250471D01*
X213243739Y-186250471D02*
X213172310Y-186321900D01*
X213172310Y-186321900D02*
X213029453Y-186393328D01*
X213029453Y-186393328D02*
X212886596Y-186393328D01*
X212886596Y-186393328D02*
X212743739Y-186321900D01*
X212743739Y-186321900D02*
X212672310Y-186250471D01*
X212672310Y-186250471D02*
X212600881Y-186107614D01*
X212600881Y-186107614D02*
X212529453Y-185821900D01*
X212529453Y-185821900D02*
X212529453Y-185464757D01*
X212529453Y-185464757D02*
X212600881Y-185179042D01*
X212600881Y-185179042D02*
X212672310Y-185036185D01*
X212672310Y-185036185D02*
X212743739Y-184964757D01*
X212743739Y-184964757D02*
X212886596Y-184893328D01*
X214029452Y-186250471D02*
X214100881Y-186321900D01*
X214100881Y-186321900D02*
X214029452Y-186393328D01*
X214029452Y-186393328D02*
X213958024Y-186321900D01*
X213958024Y-186321900D02*
X214029452Y-186250471D01*
X214029452Y-186250471D02*
X214029452Y-186393328D01*
X214743738Y-186393328D02*
X214743738Y-184893328D01*
X214886596Y-185821900D02*
X215315167Y-186393328D01*
X215315167Y-185393328D02*
X214743738Y-185964757D01*
X215958024Y-186393328D02*
X215958024Y-185393328D01*
X215958024Y-184893328D02*
X215886596Y-184964757D01*
X215886596Y-184964757D02*
X215958024Y-185036185D01*
X215958024Y-185036185D02*
X216029453Y-184964757D01*
X216029453Y-184964757D02*
X215958024Y-184893328D01*
X215958024Y-184893328D02*
X215958024Y-185036185D01*
X217315168Y-186321900D02*
X217172310Y-186393328D01*
X217172310Y-186393328D02*
X216886596Y-186393328D01*
X216886596Y-186393328D02*
X216743739Y-186321900D01*
X216743739Y-186321900D02*
X216672310Y-186250471D01*
X216672310Y-186250471D02*
X216600882Y-186107614D01*
X216600882Y-186107614D02*
X216600882Y-185679042D01*
X216600882Y-185679042D02*
X216672310Y-185536185D01*
X216672310Y-185536185D02*
X216743739Y-185464757D01*
X216743739Y-185464757D02*
X216886596Y-185393328D01*
X216886596Y-185393328D02*
X217172310Y-185393328D01*
X217172310Y-185393328D02*
X217315168Y-185464757D01*
X218600882Y-186393328D02*
X218600882Y-185607614D01*
X218600882Y-185607614D02*
X218529453Y-185464757D01*
X218529453Y-185464757D02*
X218386596Y-185393328D01*
X218386596Y-185393328D02*
X218100882Y-185393328D01*
X218100882Y-185393328D02*
X217958024Y-185464757D01*
X218600882Y-186321900D02*
X218458024Y-186393328D01*
X218458024Y-186393328D02*
X218100882Y-186393328D01*
X218100882Y-186393328D02*
X217958024Y-186321900D01*
X217958024Y-186321900D02*
X217886596Y-186179042D01*
X217886596Y-186179042D02*
X217886596Y-186036185D01*
X217886596Y-186036185D02*
X217958024Y-185893328D01*
X217958024Y-185893328D02*
X218100882Y-185821900D01*
X218100882Y-185821900D02*
X218458024Y-185821900D01*
X218458024Y-185821900D02*
X218600882Y-185750471D01*
X219958025Y-186393328D02*
X219958025Y-184893328D01*
X219958025Y-186321900D02*
X219815167Y-186393328D01*
X219815167Y-186393328D02*
X219529453Y-186393328D01*
X219529453Y-186393328D02*
X219386596Y-186321900D01*
X219386596Y-186321900D02*
X219315167Y-186250471D01*
X219315167Y-186250471D02*
X219243739Y-186107614D01*
X219243739Y-186107614D02*
X219243739Y-185679042D01*
X219243739Y-185679042D02*
X219315167Y-185536185D01*
X219315167Y-185536185D02*
X219386596Y-185464757D01*
X219386596Y-185464757D02*
X219529453Y-185393328D01*
X219529453Y-185393328D02*
X219815167Y-185393328D01*
X219815167Y-185393328D02*
X219958025Y-185464757D01*
X220315168Y-186536185D02*
X221458025Y-186536185D01*
X221815167Y-185393328D02*
X221815167Y-186893328D01*
X221815167Y-185464757D02*
X221958025Y-185393328D01*
X221958025Y-185393328D02*
X222243739Y-185393328D01*
X222243739Y-185393328D02*
X222386596Y-185464757D01*
X222386596Y-185464757D02*
X222458025Y-185536185D01*
X222458025Y-185536185D02*
X222529453Y-185679042D01*
X222529453Y-185679042D02*
X222529453Y-186107614D01*
X222529453Y-186107614D02*
X222458025Y-186250471D01*
X222458025Y-186250471D02*
X222386596Y-186321900D01*
X222386596Y-186321900D02*
X222243739Y-186393328D01*
X222243739Y-186393328D02*
X221958025Y-186393328D01*
X221958025Y-186393328D02*
X221815167Y-186321900D01*
X223815168Y-186321900D02*
X223672310Y-186393328D01*
X223672310Y-186393328D02*
X223386596Y-186393328D01*
X223386596Y-186393328D02*
X223243739Y-186321900D01*
X223243739Y-186321900D02*
X223172310Y-186250471D01*
X223172310Y-186250471D02*
X223100882Y-186107614D01*
X223100882Y-186107614D02*
X223100882Y-185679042D01*
X223100882Y-185679042D02*
X223172310Y-185536185D01*
X223172310Y-185536185D02*
X223243739Y-185464757D01*
X223243739Y-185464757D02*
X223386596Y-185393328D01*
X223386596Y-185393328D02*
X223672310Y-185393328D01*
X223672310Y-185393328D02*
X223815168Y-185464757D01*
X224458024Y-186393328D02*
X224458024Y-184893328D01*
X224458024Y-185464757D02*
X224600882Y-185393328D01*
X224600882Y-185393328D02*
X224886596Y-185393328D01*
X224886596Y-185393328D02*
X225029453Y-185464757D01*
X225029453Y-185464757D02*
X225100882Y-185536185D01*
X225100882Y-185536185D02*
X225172310Y-185679042D01*
X225172310Y-185679042D02*
X225172310Y-186107614D01*
X225172310Y-186107614D02*
X225100882Y-186250471D01*
X225100882Y-186250471D02*
X225029453Y-186321900D01*
X225029453Y-186321900D02*
X224886596Y-186393328D01*
X224886596Y-186393328D02*
X224600882Y-186393328D01*
X224600882Y-186393328D02*
X224458024Y-186321900D01*
D10*
D11*
X177002200Y-181507200D02*
X285002200Y-181507200D01*
D10*
D11*
X178386598Y-183621900D02*
X178600884Y-183693328D01*
X178600884Y-183693328D02*
X178958026Y-183693328D01*
X178958026Y-183693328D02*
X179100884Y-183621900D01*
X179100884Y-183621900D02*
X179172312Y-183550471D01*
X179172312Y-183550471D02*
X179243741Y-183407614D01*
X179243741Y-183407614D02*
X179243741Y-183264757D01*
X179243741Y-183264757D02*
X179172312Y-183121900D01*
X179172312Y-183121900D02*
X179100884Y-183050471D01*
X179100884Y-183050471D02*
X178958026Y-182979042D01*
X178958026Y-182979042D02*
X178672312Y-182907614D01*
X178672312Y-182907614D02*
X178529455Y-182836185D01*
X178529455Y-182836185D02*
X178458026Y-182764757D01*
X178458026Y-182764757D02*
X178386598Y-182621900D01*
X178386598Y-182621900D02*
X178386598Y-182479042D01*
X178386598Y-182479042D02*
X178458026Y-182336185D01*
X178458026Y-182336185D02*
X178529455Y-182264757D01*
X178529455Y-182264757D02*
X178672312Y-182193328D01*
X178672312Y-182193328D02*
X179029455Y-182193328D01*
X179029455Y-182193328D02*
X179243741Y-182264757D01*
X179886597Y-183693328D02*
X179886597Y-182193328D01*
X180529455Y-183693328D02*
X180529455Y-182907614D01*
X180529455Y-182907614D02*
X180458026Y-182764757D01*
X180458026Y-182764757D02*
X180315169Y-182693328D01*
X180315169Y-182693328D02*
X180100883Y-182693328D01*
X180100883Y-182693328D02*
X179958026Y-182764757D01*
X179958026Y-182764757D02*
X179886597Y-182836185D01*
X181815169Y-183621900D02*
X181672312Y-183693328D01*
X181672312Y-183693328D02*
X181386598Y-183693328D01*
X181386598Y-183693328D02*
X181243740Y-183621900D01*
X181243740Y-183621900D02*
X181172312Y-183479042D01*
X181172312Y-183479042D02*
X181172312Y-182907614D01*
X181172312Y-182907614D02*
X181243740Y-182764757D01*
X181243740Y-182764757D02*
X181386598Y-182693328D01*
X181386598Y-182693328D02*
X181672312Y-182693328D01*
X181672312Y-182693328D02*
X181815169Y-182764757D01*
X181815169Y-182764757D02*
X181886598Y-182907614D01*
X181886598Y-182907614D02*
X181886598Y-183050471D01*
X181886598Y-183050471D02*
X181172312Y-183193328D01*
X183100883Y-183621900D02*
X182958026Y-183693328D01*
X182958026Y-183693328D02*
X182672312Y-183693328D01*
X182672312Y-183693328D02*
X182529454Y-183621900D01*
X182529454Y-183621900D02*
X182458026Y-183479042D01*
X182458026Y-183479042D02*
X182458026Y-182907614D01*
X182458026Y-182907614D02*
X182529454Y-182764757D01*
X182529454Y-182764757D02*
X182672312Y-182693328D01*
X182672312Y-182693328D02*
X182958026Y-182693328D01*
X182958026Y-182693328D02*
X183100883Y-182764757D01*
X183100883Y-182764757D02*
X183172312Y-182907614D01*
X183172312Y-182907614D02*
X183172312Y-183050471D01*
X183172312Y-183050471D02*
X182458026Y-183193328D01*
X183600883Y-182693328D02*
X184172311Y-182693328D01*
X183815168Y-182193328D02*
X183815168Y-183479042D01*
X183815168Y-183479042D02*
X183886597Y-183621900D01*
X183886597Y-183621900D02*
X184029454Y-183693328D01*
X184029454Y-183693328D02*
X184172311Y-183693328D01*
X184672311Y-183550471D02*
X184743740Y-183621900D01*
X184743740Y-183621900D02*
X184672311Y-183693328D01*
X184672311Y-183693328D02*
X184600883Y-183621900D01*
X184600883Y-183621900D02*
X184672311Y-183550471D01*
X184672311Y-183550471D02*
X184672311Y-183693328D01*
X184672311Y-182764757D02*
X184743740Y-182836185D01*
X184743740Y-182836185D02*
X184672311Y-182907614D01*
X184672311Y-182907614D02*
X184600883Y-182836185D01*
X184600883Y-182836185D02*
X184672311Y-182764757D01*
X184672311Y-182764757D02*
X184672311Y-182907614D01*
D10*
D11*
X197002200Y-191507200D02*
X197002200Y-194507200D01*
D10*
D11*
X261002200Y-191507200D02*
X261002200Y-198007200D01*
D14*
G04 #@! TO.C,R1*
X114067000Y-115808000D03*
X116067000Y-115808000D03*
G04 #@! TD*
D15*
G04 #@! TO.C,R11*
X123956000Y-73912000D03*
X121956000Y-73912000D03*
G04 #@! TD*
D16*
G04 #@! TO.C,FB1*
X115800000Y-111870000D03*
X115800000Y-110400000D03*
G04 #@! TD*
D17*
G04 #@! TO.C,C4*
X142272000Y-95875000D03*
X142272000Y-97600000D03*
G04 #@! TD*
D14*
G04 #@! TO.C,R14*
X133768000Y-89036000D03*
X135768000Y-89036000D03*
G04 #@! TD*
D17*
G04 #@! TO.C,C14*
X127272081Y-123896826D03*
X127272081Y-125621826D03*
G04 #@! TD*
D18*
G04 #@! TO.C,C23*
X176435200Y-104022000D03*
X173485200Y-104022000D03*
G04 #@! TD*
D19*
G04 #@! TO.C,R17*
X122305000Y-94357000D03*
X122305000Y-96357000D03*
G04 #@! TD*
D15*
G04 #@! TO.C,R13*
X116556000Y-78112000D03*
X114556000Y-78112000D03*
G04 #@! TD*
D19*
G04 #@! TO.C,R46*
X165480000Y-81160000D03*
X165480000Y-83160000D03*
G04 #@! TD*
D20*
G04 #@! TO.C,U2*
X143272000Y-92450000D03*
X143272000Y-93400000D03*
X143272000Y-94350000D03*
X145547000Y-94350000D03*
X145547000Y-92450000D03*
G04 #@! TD*
D17*
G04 #@! TO.C,C18*
X129494200Y-125054300D03*
X129494200Y-126779300D03*
G04 #@! TD*
D21*
G04 #@! TO.C,D6*
X141662500Y-86940000D03*
X143537500Y-86940000D03*
G04 #@! TD*
D17*
G04 #@! TO.C,C16*
X125572081Y-123934326D03*
X125572081Y-125659326D03*
G04 #@! TD*
D14*
G04 #@! TO.C,R42*
X149900000Y-105200000D03*
X151900000Y-105200000D03*
G04 #@! TD*
D22*
G04 #@! TO.C,D2*
X115600000Y-123200000D03*
X113725000Y-123200000D03*
G04 #@! TD*
D21*
G04 #@! TO.C,D9*
X115962500Y-145100000D03*
X117837500Y-145100000D03*
G04 #@! TD*
D23*
G04 #@! TO.C,U5*
X126987500Y-132505000D03*
X126987500Y-131235000D03*
X126987500Y-129965000D03*
X126987500Y-128695000D03*
X119812500Y-128695000D03*
X119812500Y-129965000D03*
X119812500Y-131235000D03*
X119812500Y-132505000D03*
G04 #@! TD*
D24*
G04 #@! TO.C,C26*
X190242500Y-88780000D03*
X191967500Y-88780000D03*
G04 #@! TD*
D25*
G04 #@! TO.C,D7*
X135268000Y-93036000D03*
X135268000Y-91136000D03*
X133393000Y-92086000D03*
G04 #@! TD*
D14*
G04 #@! TO.C,R27*
X120620200Y-116671200D03*
X122620200Y-116671200D03*
G04 #@! TD*
D19*
G04 #@! TO.C,R30*
X140297000Y-113036000D03*
X140297000Y-115036000D03*
G04 #@! TD*
D14*
G04 #@! TO.C,R34*
X132990000Y-99450000D03*
X134990000Y-99450000D03*
G04 #@! TD*
D15*
G04 #@! TO.C,R37*
X121850000Y-145100000D03*
X119850000Y-145100000D03*
G04 #@! TD*
D14*
G04 #@! TO.C,R22*
X188697000Y-120286000D03*
X190697000Y-120286000D03*
G04 #@! TD*
D26*
G04 #@! TO.C,U4*
X120335000Y-90438500D03*
X119385000Y-90438500D03*
X118435000Y-90438500D03*
X118435000Y-92713500D03*
X120335000Y-92713500D03*
G04 #@! TD*
D19*
G04 #@! TO.C,R47*
X168430000Y-81160000D03*
X168430000Y-83160000D03*
G04 #@! TD*
D17*
G04 #@! TO.C,C19*
X124977342Y-119770053D03*
X124977342Y-121495053D03*
G04 #@! TD*
D27*
G04 #@! TO.C,C15*
X138097000Y-118981500D03*
X138097000Y-117256500D03*
G04 #@! TD*
D28*
G04 #@! TO.C,C5*
X117656700Y-75878800D03*
X115931700Y-75878800D03*
G04 #@! TD*
D21*
G04 #@! TO.C,D5*
X147306500Y-87040000D03*
X149181500Y-87040000D03*
G04 #@! TD*
D29*
G04 #@! TO.C,R9*
X109600000Y-69800000D03*
X109600000Y-67800000D03*
G04 #@! TD*
D15*
G04 #@! TO.C,R7*
X149322500Y-84500000D03*
X147322500Y-84500000D03*
G04 #@! TD*
D19*
G04 #@! TO.C,R5*
X118297000Y-124036000D03*
X118297000Y-126036000D03*
G04 #@! TD*
D30*
G04 #@! TO.C,Q6*
X151150000Y-99362500D03*
X149250000Y-99362500D03*
X150200000Y-101237500D03*
G04 #@! TD*
D24*
G04 #@! TO.C,C21*
X131600000Y-137700000D03*
X133325000Y-137700000D03*
G04 #@! TD*
D19*
G04 #@! TO.C,R3*
X105380000Y-59200000D03*
X105380000Y-61200000D03*
G04 #@! TD*
D17*
G04 #@! TO.C,C2*
X117700000Y-110200000D03*
X117700000Y-111925000D03*
G04 #@! TD*
D31*
G04 #@! TO.C,U3*
X118656000Y-73012000D03*
D32*
X118156000Y-72962000D03*
X117656000Y-72962000D03*
X117656000Y-74112000D03*
X118156000Y-74112000D03*
X118656000Y-74112000D03*
G04 #@! TD*
D29*
G04 #@! TO.C,R15*
X126243000Y-92068000D03*
X126243000Y-90068000D03*
G04 #@! TD*
D30*
G04 #@! TO.C,Q1*
X121450000Y-112662500D03*
X119550000Y-112662500D03*
X120500000Y-114537500D03*
G04 #@! TD*
D14*
G04 #@! TO.C,R29*
X120617200Y-118771200D03*
X122617200Y-118771200D03*
G04 #@! TD*
D24*
G04 #@! TO.C,C8*
X118394500Y-88372000D03*
X120119500Y-88372000D03*
G04 #@! TD*
D19*
G04 #@! TO.C,R16*
X122432000Y-90420000D03*
X122432000Y-92420000D03*
G04 #@! TD*
D33*
G04 #@! TO.C,U6*
X131600000Y-120800000D03*
X133200000Y-120800000D03*
X131600000Y-119200000D03*
X133200000Y-119200000D03*
D34*
X129800000Y-123437500D03*
X130200000Y-123437500D03*
X130600000Y-123437500D03*
X131000000Y-123437500D03*
X131400000Y-123437500D03*
X131800000Y-123437500D03*
X132200000Y-123437500D03*
X132600000Y-123437500D03*
X133000000Y-123437500D03*
X133400000Y-123437500D03*
X133800000Y-123437500D03*
X134200000Y-123437500D03*
X134600000Y-123437500D03*
X135000000Y-123437500D03*
D35*
X135837500Y-122600000D03*
X135837500Y-122200000D03*
X135837500Y-121800000D03*
X135837500Y-121400000D03*
X135837500Y-121000000D03*
X135837500Y-120600000D03*
X135837500Y-120200000D03*
X135837500Y-119800000D03*
X135837500Y-119400000D03*
X135837500Y-119000000D03*
X135837500Y-118600000D03*
X135837500Y-118200000D03*
X135837500Y-117800000D03*
X135837500Y-117400000D03*
D34*
X135000000Y-116562500D03*
X134600000Y-116562500D03*
X134200000Y-116562500D03*
X133800000Y-116562500D03*
X133400000Y-116562500D03*
X133000000Y-116562500D03*
X132600000Y-116562500D03*
X132200000Y-116562500D03*
X131800000Y-116562500D03*
X131400000Y-116562500D03*
X131000000Y-116562500D03*
X130600000Y-116562500D03*
X130200000Y-116562500D03*
X129800000Y-116562500D03*
D35*
X128962500Y-117400000D03*
X128962500Y-117800000D03*
X128962500Y-118200000D03*
X128962500Y-118600000D03*
X128962500Y-119000000D03*
X128962500Y-119400000D03*
X128962500Y-119800000D03*
X128962500Y-120200000D03*
X128962500Y-120600000D03*
X128962500Y-121000000D03*
X128962500Y-121400000D03*
X128962500Y-121800000D03*
X128962500Y-122200000D03*
X128962500Y-122600000D03*
G04 #@! TD*
D25*
G04 #@! TO.C,Q4*
X138054000Y-102100000D03*
X138054000Y-100200000D03*
X136179000Y-101150000D03*
G04 #@! TD*
D27*
G04 #@! TO.C,C1*
X113768000Y-111997500D03*
X113768000Y-110272500D03*
G04 #@! TD*
D19*
G04 #@! TO.C,R4*
X115800000Y-137972400D03*
X115800000Y-139972400D03*
G04 #@! TD*
G04 #@! TO.C,R25*
X150200000Y-107400000D03*
X150200000Y-109400000D03*
G04 #@! TD*
D36*
G04 #@! TO.C,J3*
X111302000Y-114366000D03*
X111302000Y-115166000D03*
D37*
X111302000Y-116316000D03*
X111302000Y-117316000D03*
X111302000Y-117816000D03*
X111302000Y-118816000D03*
D36*
X111302000Y-119966000D03*
X111302000Y-120766000D03*
D37*
X111302000Y-119316000D03*
X111302000Y-118316000D03*
X111302000Y-116816000D03*
X111302000Y-115816000D03*
G04 #@! TD*
D18*
G04 #@! TO.C,C27*
X188340000Y-88780000D03*
X185390000Y-88780000D03*
G04 #@! TD*
D29*
G04 #@! TO.C,R32*
X154575000Y-124610000D03*
X154575000Y-122610000D03*
G04 #@! TD*
D38*
G04 #@! TO.C,L1*
X114834000Y-93147000D03*
X114834000Y-90197000D03*
G04 #@! TD*
D39*
G04 #@! TO.C,Q7*
X193068500Y-119110000D03*
X193068500Y-121010000D03*
X194943500Y-120060000D03*
G04 #@! TD*
D40*
G04 #@! TO.C,U7*
X159810000Y-95900000D03*
X158540000Y-95900000D03*
X157270000Y-95900000D03*
X156000000Y-95900000D03*
X156000000Y-100850000D03*
X157270000Y-100850000D03*
X158540000Y-100850000D03*
X159810000Y-100850000D03*
G04 #@! TD*
D24*
G04 #@! TO.C,C6*
X118267500Y-94595000D03*
X119992500Y-94595000D03*
G04 #@! TD*
D27*
G04 #@! TO.C,C10*
X144300000Y-123062500D03*
X144300000Y-121337500D03*
G04 #@! TD*
D14*
G04 #@! TO.C,R20*
X188647000Y-123636000D03*
X190647000Y-123636000D03*
G04 #@! TD*
D29*
G04 #@! TO.C,R10*
X112400000Y-69800000D03*
X112400000Y-67800000D03*
G04 #@! TD*
D15*
G04 #@! TO.C,R8*
X143600000Y-84400000D03*
X141600000Y-84400000D03*
G04 #@! TD*
D41*
G04 #@! TO.C,J2*
X197995000Y-88510000D03*
X197995000Y-87510000D03*
X197995000Y-86510000D03*
D42*
X201870000Y-89810000D03*
X201870000Y-85210000D03*
G04 #@! TD*
D17*
G04 #@! TO.C,C20*
X126677342Y-119770053D03*
X126677342Y-121495053D03*
G04 #@! TD*
D24*
G04 #@! TO.C,C7*
X128809500Y-89071000D03*
X130534500Y-89071000D03*
G04 #@! TD*
D19*
G04 #@! TO.C,R49*
X170897000Y-101786000D03*
X170897000Y-103786000D03*
G04 #@! TD*
D14*
G04 #@! TO.C,R12*
X118756000Y-78112000D03*
X120756000Y-78112000D03*
G04 #@! TD*
D43*
G04 #@! TO.C,D1*
X105700000Y-65400000D03*
X105700000Y-67275000D03*
G04 #@! TD*
D19*
G04 #@! TO.C,R45*
X162530000Y-81160000D03*
X162530000Y-83160000D03*
G04 #@! TD*
D15*
G04 #@! TO.C,R43*
X156500000Y-105200000D03*
X154500000Y-105200000D03*
G04 #@! TD*
D22*
G04 #@! TO.C,D10*
X159800000Y-112300000D03*
X157925000Y-112300000D03*
G04 #@! TD*
D17*
G04 #@! TO.C,C9*
X124337000Y-90557500D03*
X124337000Y-92282500D03*
G04 #@! TD*
D21*
G04 #@! TO.C,D8*
X114027900Y-126831200D03*
X115902900Y-126831200D03*
G04 #@! TD*
D19*
G04 #@! TO.C,R36*
X137673000Y-90830000D03*
X137673000Y-92830000D03*
G04 #@! TD*
D15*
G04 #@! TO.C,R23*
X135847000Y-133036000D03*
X133847000Y-133036000D03*
G04 #@! TD*
D44*
G04 #@! TO.C,U10*
X172690000Y-101078400D03*
X173960000Y-101078400D03*
X175230000Y-101078400D03*
X176500000Y-101078400D03*
X177770000Y-101078400D03*
X179040000Y-101078400D03*
X180310000Y-101078400D03*
X181580000Y-101078400D03*
X182850000Y-101078400D03*
X184120000Y-101078400D03*
X185390000Y-101078400D03*
X186660000Y-101078400D03*
X187930000Y-101078400D03*
X189200000Y-101078400D03*
X189200000Y-91721600D03*
X187930000Y-91721600D03*
X186660000Y-91721600D03*
X185390000Y-91721600D03*
X184120000Y-91721600D03*
X182850000Y-91721600D03*
X181580000Y-91721600D03*
X180310000Y-91721600D03*
X179040000Y-91721600D03*
X177770000Y-91721600D03*
X176500000Y-91721600D03*
X175230000Y-91721600D03*
X173960000Y-91721600D03*
X172690000Y-91721600D03*
G04 #@! TD*
D15*
G04 #@! TO.C,R35*
X135066200Y-102853600D03*
X133066200Y-102853600D03*
G04 #@! TD*
D17*
G04 #@! TO.C,C3*
X147772000Y-95175000D03*
X147772000Y-96900000D03*
G04 #@! TD*
D29*
G04 #@! TO.C,R38*
X144700000Y-144600000D03*
X144700000Y-142600000D03*
G04 #@! TD*
D14*
G04 #@! TO.C,R48*
X188597000Y-118186000D03*
X190597000Y-118186000D03*
G04 #@! TD*
D29*
G04 #@! TO.C,R28*
X184755000Y-144390000D03*
X184755000Y-142390000D03*
G04 #@! TD*
D45*
G04 #@! TO.C,D4*
X132450000Y-109700000D03*
X128450000Y-109700000D03*
G04 #@! TD*
D24*
G04 #@! TO.C,C25*
X161697500Y-100950000D03*
X163422500Y-100950000D03*
G04 #@! TD*
D17*
G04 #@! TO.C,C11*
X144300000Y-117362500D03*
X144300000Y-119087500D03*
G04 #@! TD*
D46*
G04 #@! TO.C,Y1*
X146625000Y-119312500D03*
X146625000Y-121612500D03*
X148375000Y-121612500D03*
X148375000Y-119312500D03*
G04 #@! TD*
D24*
G04 #@! TO.C,C22*
X132384500Y-114536000D03*
X134109500Y-114536000D03*
G04 #@! TD*
D17*
G04 #@! TO.C,C13*
X119200000Y-134375000D03*
X119200000Y-136100000D03*
G04 #@! TD*
D14*
G04 #@! TO.C,R19*
X133797000Y-131036000D03*
X135797000Y-131036000D03*
G04 #@! TD*
D29*
G04 #@! TO.C,R33*
X135691800Y-112743600D03*
X135691800Y-110743600D03*
G04 #@! TD*
D28*
G04 #@! TO.C,C28*
X175569400Y-106612800D03*
X173844400Y-106612800D03*
G04 #@! TD*
D14*
G04 #@! TO.C,R21*
X188647000Y-125786000D03*
X190647000Y-125786000D03*
G04 #@! TD*
G04 #@! TO.C,R18*
X114625800Y-129218800D03*
X116625800Y-129218800D03*
G04 #@! TD*
D15*
G04 #@! TO.C,R40*
X142100000Y-106300000D03*
X140100000Y-106300000D03*
G04 #@! TD*
D14*
G04 #@! TO.C,R39*
X140100000Y-104100000D03*
X142100000Y-104100000D03*
G04 #@! TD*
D27*
G04 #@! TO.C,C24*
X155760000Y-93350000D03*
X155760000Y-91625000D03*
G04 #@! TD*
D47*
G04 #@! TO.C,BZ2*
X156637500Y-129210000D03*
X165337500Y-129210000D03*
G04 #@! TD*
D19*
G04 #@! TO.C,R31*
X142297000Y-113036000D03*
X142297000Y-115036000D03*
G04 #@! TD*
D14*
G04 #@! TO.C,R26*
X140300000Y-118962500D03*
X142300000Y-118962500D03*
G04 #@! TD*
D27*
G04 #@! TO.C,C17*
X127563800Y-116060500D03*
X127563800Y-114335500D03*
G04 #@! TD*
D19*
G04 #@! TO.C,R24*
X152550000Y-107360000D03*
X152550000Y-109360000D03*
G04 #@! TD*
D14*
G04 #@! TO.C,R6*
X147793500Y-92720000D03*
X149793500Y-92720000D03*
G04 #@! TD*
D39*
G04 #@! TO.C,Q3*
X118718500Y-81662000D03*
X118718500Y-83562000D03*
X120593500Y-82612000D03*
G04 #@! TD*
D30*
G04 #@! TO.C,Q5*
X139273000Y-95030000D03*
X137373000Y-95030000D03*
X138323000Y-96905000D03*
G04 #@! TD*
D25*
G04 #@! TO.C,Q2*
X124605500Y-82110000D03*
X124605500Y-80210000D03*
X122730500Y-81160000D03*
G04 #@! TD*
D19*
G04 #@! TO.C,R44*
X154575000Y-131410000D03*
X154575000Y-133410000D03*
G04 #@! TD*
D39*
G04 #@! TO.C,Q8*
X193009500Y-123136000D03*
X193009500Y-125036000D03*
X194884500Y-124086000D03*
G04 #@! TD*
D14*
G04 #@! TO.C,R41*
X161560000Y-103150000D03*
X163560000Y-103150000D03*
G04 #@! TD*
D17*
G04 #@! TO.C,C12*
X121147000Y-134423500D03*
X121147000Y-136148500D03*
G04 #@! TD*
D48*
G04 #@! TO.C,Y2*
X158160000Y-92850000D03*
X160660000Y-92850000D03*
G04 #@! TD*
D14*
G04 #@! TO.C,R2*
X114067000Y-119364000D03*
X116067000Y-119364000D03*
G04 #@! TD*
D49*
G04 #@! TO.C,D3*
X129950000Y-106200000D03*
X127450000Y-106200000D03*
G04 #@! TD*
M02*
