M48
; DRILL file {KiCad 9.0.4-9.0.4-0~ubuntu24.04.1} date 2026-02-11T09:10:42+0900
; FORMAT={-:-/ absolute / metric / decimal}
; #@! TF.CreationDate,2026-02-11T09:10:42+09:00
; #@! TF.GenerationSoftware,Kicad,Pcbnew,9.0.4-9.0.4-0~ubuntu24.04.1
; #@! TF.FileFunction,MixedPlating,1,4
FMAT,2
METRIC
; #@! TA.AperFunction,Plated,PTH,ViaDrill
T1C0.200
; #@! TA.AperFunction,Plated,PTH,ViaDrill
T2C0.300
; #@! TA.AperFunction,Plated,PTH,ViaDrill
T3C0.330
; #@! TA.AperFunction,Plated,PTH,ViaDrill
T4C0.381
; #@! TA.AperFunction,Plated,PTH,ComponentDrill
T5C0.600
; #@! TA.AperFunction,Plated,PTH,ComponentDrill
T6C0.750
; #@! TA.AperFunction,Plated,PTH,ComponentDrill
T7C0.800
; #@! TA.AperFunction,Plated,PTH,ComponentDrill
T8C1.000
; #@! TA.AperFunction,Plated,PTH,ComponentDrill
T9C1.100
; #@! TA.AperFunction,Plated,PTH,ComponentDrill
T10C1.800
; #@! TA.AperFunction,NonPlated,NPTH,ComponentDrill
T11C0.650
; #@! TA.AperFunction,NonPlated,NPTH,ComponentDrill
T12C2.000
; #@! TA.AperFunction,NonPlated,NPTH,ComponentDrill
T13C4.700
%
G90
G05
T1
X105.197Y-119.636
X105.297Y-114.786
X105.297Y-117.136
X105.797Y-108.586
X105.997Y-130.986
X106.047Y-127.536
X106.047Y-133.986
X106.047Y-137.236
X106.147Y-72.286
X106.197Y-140.086
X106.947Y-99.736
X107.097Y-96.636
X107.097Y-103.086
X107.197Y-105.736
X108.147Y-72.386
X109.097Y-140.736
X109.247Y-133.936
X109.397Y-130.986
X109.397Y-137.436
X110.197Y-126.986
X110.297Y-83.686
X111.147Y-71.236
X111.747Y-111.236
X111.997Y-109.636
X112.197Y-141.886
X112.547Y-81.886
X113.497Y-144.186
X113.847Y-72.286
X113.847Y-103.286
X113.897Y-75.236
X113.997Y-83.486
X114.097Y-145.836
X114.147Y-100.136
X115.197Y-131.736
X115.697Y-105.936
X116.297Y-81.936
X116.897Y-131.836
X117.047Y-85.036
X117.047Y-97.536
X117.247Y-141.736
X117.497Y-103.586
X117.647Y-121.936
X118.197Y-137.686
X118.647Y-100.036
X119.347Y-75.486
X119.497Y-95.836
X119.766Y-127.898
X119.797Y-120.286
X120.047Y-122.486
X120.197Y-126.036
X120.347Y-140.386
X120.547Y-105.436
X120.647Y-96.886
X121.036Y-131.2
X121.097Y-94.586
X121.097Y-146.636
X121.147Y-81.536
X121.544Y-127.009
X121.797Y-79.786
X121.947Y-128.586
X122.297Y-98.186
X122.297Y-121.836
X122.497Y-141.986
X122.747Y-111.786
X122.747Y-113.486
X122.947Y-123.836
X123.047Y-126.936
X123.347Y-76.436
X123.397Y-131.536
X123.397Y-137.486
X123.45Y-146.35
X123.497Y-100.436
X123.847Y-115.486
X124.347Y-112.636
X124.497Y-116.836
X125.197Y-132.636
X125.397Y-87.136
X125.608Y-131.2
X125.797Y-136.886
X126.047Y-114.486
X126.347Y-110.786
X126.397Y-146.736
X126.747Y-127.136
X126.947Y-134.186
X127.847Y-79.136
X128.148Y-121.04
X128.148Y-122.31
X128.2Y-142.6
X128.397Y-85.336
X128.402Y-130.057
X128.402Y-132.597
X129.267Y-128.546
X129.497Y-100.586
X129.497Y-146.686
X129.547Y-129.986
X129.597Y-136.186
X129.754Y-120.614
X129.799Y-121.929
X129.926Y-121.167
X130.312Y-122.569
X130.447Y-131.686
X130.45Y-108.586
X130.747Y-102.586
X130.803Y-124.541
X131.147Y-122.636
X131.247Y-118.936
X131.247Y-119.686
X131.247Y-120.486
X131.247Y-121.236
X131.347Y-71.686
X131.437Y-124.816
X131.847Y-98.336
X131.847Y-122.486
X132.097Y-134.086
X132.197Y-124.536
X132.277Y-118.986
X132.277Y-119.866
X132.287Y-121.096
X132.547Y-90.536
X132.997Y-79.986
X133.297Y-120.756
X133.327Y-118.936
X133.347Y-119.866
X133.447Y-146.786
X133.697Y-85.436
X133.947Y-101.136
X133.981Y-125.67
X134.022Y-124.926
X134.797Y-128.686
X134.856Y-118.616
X134.897Y-95.386
X135.147Y-114.366
X135.447Y-128.786
X136.147Y-136.886
X136.197Y-128.336
X136.197Y-128.936
X136.216Y-98.786
X136.452Y-121.002
X137.047Y-80.686
X137.097Y-130.186
X137.647Y-101.186
X137.747Y-88.586
X137.897Y-85.836
X138.397Y-116.501
X138.6Y-142.6
X138.747Y-105.186
X138.847Y-71.836
X139.047Y-146.786
X139.497Y-102.536
X139.547Y-107.786
X140.097Y-90.336
X140.147Y-135.486
X140.697Y-93.986
X141.497Y-138.236
X141.647Y-100.336
X141.797Y-91.836
X141.947Y-80.986
X142.797Y-134.936
X142.947Y-102.386
X143.297Y-147.486
X143.347Y-105.386
X144.347Y-96.486
X145.397Y-100.436
X145.597Y-128.686
X145.647Y-115.536
X145.697Y-87.536
X145.697Y-147.586
X145.997Y-116.836
X146.047Y-97.036
X146.147Y-139.386
X146.397Y-123.336
X146.447Y-117.936
X147.334Y-140.782
X147.397Y-138.086
X147.447Y-143.586
X147.647Y-72.036
X147.997Y-127.636
X148.497Y-137.186
X148.597Y-139.586
X148.947Y-123.136
X149.192Y-129.45
X149.247Y-128.486
X149.297Y-94.886
X149.409Y-129.9
X149.447Y-128.936
X149.447Y-143.036
X149.597Y-121.036
X149.627Y-126.706
X149.647Y-127.247
X149.672Y-124.261
X149.697Y-124.786
X149.727Y-130.286
X149.947Y-135.986
X150.247Y-138.836
X150.747Y-76.186
X151.097Y-140.686
X151.347Y-139.686
X151.447Y-89.686
X152.097Y-128.036
X152.397Y-136.036
X152.597Y-92.686
X152.647Y-126.257
X153.097Y-143.286
X153.597Y-100.186
X153.697Y-119.986
X153.897Y-142.286
X154.047Y-146.795
X154.097Y-72.486
X154.147Y-138.986
X154.647Y-78.736
X154.947Y-137.086
X156.037Y-141.64
X156.33Y-83.4
X156.547Y-119.086
X157.647Y-142.936
X158.397Y-72.636
X158.437Y-98.786
X158.897Y-80.936
X159.197Y-147.486
X159.347Y-135.136
X159.597Y-141.736
X160.797Y-109.786
X161.147Y-143.636
X161.247Y-147.036
X161.397Y-118.686
X161.397Y-145.386
X161.747Y-141.436
X161.847Y-99.236
X162.197Y-68.386
X162.198Y-71.859
X162.297Y-56.936
X162.668Y-61.266
X163.897Y-137.586
X164.097Y-97.186
X164.331Y-63.363
X164.347Y-75.786
X164.997Y-69.886
X165.097Y-122.036
X166.197Y-57.186
X166.197Y-112.286
X166.283Y-72.98
X166.347Y-115.386
X166.397Y-67.636
X166.997Y-106.036
X167.197Y-130.286
X167.597Y-108.986
X167.647Y-98.786
X167.685Y-142.755
X167.697Y-102.986
X167.897Y-125.386
X167.897Y-131.286
X167.947Y-61.136
X168.247Y-135.086
X168.547Y-73.286
X168.547Y-94.286
X168.997Y-70.436
X169.297Y-119.886
X170.147Y-117.386
X170.497Y-58.286
X170.497Y-96.186
X170.547Y-62.236
X170.547Y-107.786
X170.847Y-115.536
X171.347Y-73.236
X171.497Y-70.036
X171.697Y-109.286
X171.897Y-105.736
X172.597Y-122.086
X173.197Y-137.236
X173.215Y-94.147
X173.744Y-98.468
X173.747Y-62.186
X173.797Y-58.286
X174.047Y-70.136
X174.047Y-73.236
X174.197Y-119.236
X175.935Y-94.272
X176.5Y-58.286
X176.5Y-71.851
X176.647Y-62.436
X177.147Y-122.236
X177.947Y-134.586
X178.405Y-142.755
X178.697Y-137.386
X178.997Y-73.636
X179.047Y-69.736
X179.347Y-94.836
X179.697Y-131.336
X179.877Y-58.302
X179.947Y-61.136
X180.147Y-124.936
X180.297Y-106.036
X180.347Y-112.786
X180.547Y-119.036
X180.597Y-117.336
X180.947Y-126.886
X181.297Y-147.436
X181.747Y-73.136
X181.838Y-135.7
X181.997Y-66.286
X181.997Y-70.136
X182.13Y-108.781
X182.147Y-73.586
X182.597Y-94.386
X182.647Y-113.386
X183.697Y-62.636
X184.897Y-77.736
X185.197Y-114.936
X185.247Y-86.436
X185.297Y-83.886
X185.297Y-106.336
X185.547Y-67.486
X185.697Y-60.636
X185.947Y-56.986
X186.097Y-121.936
X186.147Y-119.236
X186.147Y-146.986
X186.347Y-64.586
X186.347Y-68.086
X186.947Y-142.736
X187.197Y-130.886
X187.247Y-73.836
X187.697Y-112.136
X187.897Y-70.736
X187.947Y-79.636
X188.047Y-108.186
X189.447Y-127.336
X190.597Y-83.586
X190.747Y-86.986
X190.947Y-122.036
X191.247Y-78.636
X191.447Y-75.886
X191.497Y-135.086
X191.997Y-104.486
X192.047Y-111.836
X192.097Y-116.386
X192.147Y-80.786
X193.147Y-131.036
X193.447Y-124.036
X193.747Y-126.936
X193.797Y-107.736
X194.297Y-114.036
X194.597Y-85.536
X195.026Y-78.551
X195.097Y-89.886
X195.247Y-123.036
X195.297Y-134.236
X195.747Y-118.086
X195.797Y-95.436
X196.052Y-125.032
X196.097Y-100.436
X196.697Y-125.936
X196.897Y-82.536
X197.197Y-92.786
X197.297Y-74.086
X197.697Y-141.686
X197.997Y-102.436
X200.447Y-137.936
X200.647Y-91.486
X200.947Y-87.51
T2
X118.817Y-80.516
X120.797Y-95.836
X121.163Y-90.052
X122.052Y-89.29
X123.297Y-97.936
X123.449Y-89.29
X124.338Y-89.544
X124.592Y-95.894
X125.347Y-83.576
X125.667Y-118.546
X125.857Y-120.606
X127.267Y-82.496
X127.887Y-118.186
X131.197Y-117.586
X131.707Y-96.786
X131.947Y-117.636
X132.377Y-115.686
X132.817Y-105.776
X132.977Y-96.556
X133.511Y-115.32
X134.001Y-115.726
X134.982Y-119.749
X136.247Y-124.536
X136.522Y-115.711
X136.654Y-117.589
X136.722Y-114.611
X136.747Y-119.4
X136.795Y-118.209
X136.797Y-123.04
X137.597Y-121.749
X137.997Y-126.776
X138.047Y-122.236
X138.06Y-134.486
X138.947Y-112.786
X139.597Y-117.236
X142.147Y-117.386
X142.597Y-126.936
X143.096Y-116.922
X144.107Y-83.136
X147.897Y-111.936
X148.497Y-98.186
X148.897Y-108.536
X149.247Y-117.386
X150.587Y-81.186
X152.447Y-132.636
X152.547Y-117.736
X154.297Y-108.436
X155.097Y-102.136
X155.497Y-109.636
X155.897Y-102.636
X156.783Y-112.3
X156.797Y-103.436
X157.497Y-107.236
X158.797Y-110.036
X159.397Y-116.701
X160.497Y-104.436
X160.497Y-116.636
X162.938Y-88.877
X163.397Y-94.636
X165.697Y-95.136
X165.797Y-88.636
X165.797Y-105.236
X168.497Y-88.436
X174.397Y-86.236
X175.097Y-86.036
X177.197Y-120.286
X177.247Y-88.436
X177.689Y-86.836
X178.147Y-78.186
X178.147Y-88.636
X179.643Y-86.986
X180.997Y-98.486
X182.297Y-98.486
X182.397Y-99.486
X183.047Y-103.186
X184.547Y-95.036
X184.747Y-129.936
X185.997Y-96.286
X186.097Y-76.386
X187.197Y-120.286
X187.347Y-99.286
X192.747Y-90.186
X195.547Y-87.986
T3
X108.26Y-67.04
X109.936Y-71.459
X115.997Y-120.886
X116.693Y-79.384
X116.743Y-72.069
X117.597Y-114.236
X117.607Y-118.195
X117.759Y-116.519
X118.42Y-71.916
X119.182Y-116.163
X119.347Y-91.736
X120.553Y-112.353
X121.823Y-110.931
X121.874Y-76.692
X122.23Y-105.698
X128.072Y-101.431
X128.732Y-124.037
X129.491Y-114.433
X129.59Y-115.356
X130.276Y-117.469
X130.434Y-114.69
X130.481Y-126.042
X131.425Y-104.009
X131.577Y-113.445
X131.729Y-111.896
X132.644Y-130.794
X133.137Y-117.463
X133.355Y-122.31
X133.533Y-113.222
X137.216Y-104.632
X138.943Y-104.124
X139.807Y-100.872
X140.897Y-108.786
X140.924Y-97.367
X142.26Y-114.999
X143.297Y-139.186
X144.934Y-114.769
X144.997Y-134.836
X145.897Y-141.486
X145.903Y-95.538
X147.397Y-110.036
X147.797Y-101.936
X154.853Y-106.721
X154.895Y-94.167
X163.947Y-84.188
X167.147Y-82.836
X168.763Y-114.08
X170.397Y-84.786
X176.23Y-109.051
X179.197Y-82.036
X180.142Y-109.305
X181.747Y-89.786
X183.547Y-93.386
X184.076Y-77.265
X185.397Y-81.986
X199.447Y-86.786
T4
X113.543Y-88.655
X114.813Y-87.512
X116.112Y-88.372
X169.762Y-81.136
X186.797Y-80.986
T6
X109.653Y-87.864
X109.653Y-89.864
X190.47Y-143.39
X192.47Y-143.39
T7
X109.1Y-58.207
X109.1Y-60.707
X109.1Y-63.207
X112.3Y-58.207
X112.3Y-60.707
X112.3Y-63.207
T8
X107.285Y-124.975
X111.197Y-94.836
X111.397Y-107.236
X111.447Y-104.136
X111.476Y-97.976
X111.476Y-101.076
X111.984Y-129.42
X111.984Y-132.595
X111.984Y-135.77
X111.984Y-138.945
X126.335Y-77.35
X129.51Y-77.35
X132.685Y-77.35
X135.86Y-77.35
X139.035Y-77.35
X142.21Y-77.35
X145.385Y-74.175
X145.385Y-77.35
X145.801Y-102.346
X145.953Y-107.121
X149.195Y-145.295
X152.37Y-145.295
X154.275Y-86.24
X155.545Y-145.295
X158.72Y-86.24
X158.72Y-145.295
X163.4Y-108.1
X163.4Y-110.64
X168.88Y-56.517
X168.88Y-64.137
X168.88Y-68.041
X168.88Y-75.661
X171.42Y-56.517
X171.42Y-64.137
X171.42Y-68.041
X171.42Y-75.661
X173.325Y-126.96
X173.325Y-131.96
X173.96Y-56.517
X173.96Y-64.137
X173.96Y-68.041
X173.96Y-75.661
X176.5Y-56.517
X176.5Y-64.137
X176.5Y-68.041
X176.5Y-75.661
X179.04Y-56.517
X179.04Y-64.137
X179.04Y-68.041
X179.04Y-75.661
X181.58Y-56.517
X181.58Y-64.137
X181.58Y-68.041
X181.58Y-75.661
X184.12Y-56.517
X184.12Y-64.137
X184.12Y-68.041
X184.12Y-75.661
X185.831Y-135.874
X189.835Y-138.31
X192.375Y-138.31
X195.55Y-60.84
X195.55Y-63.38
X195.55Y-65.92
X195.55Y-68.46
X195.55Y-71.0
X198.09Y-60.84
X198.09Y-63.38
X198.09Y-65.92
X198.09Y-68.46
X198.09Y-71.0
X198.125Y-115.96
X198.125Y-118.5
X198.125Y-121.04
X198.125Y-123.58
X198.125Y-126.12
X198.125Y-128.66
X198.125Y-131.2
X198.125Y-133.74
X200.63Y-76.08
X200.63Y-78.62
X200.63Y-81.16
X200.63Y-94.196
X200.63Y-96.736
X200.63Y-99.276
X200.665Y-115.96
X200.665Y-118.5
X200.665Y-121.04
X200.665Y-123.58
X200.665Y-126.12
X200.665Y-128.66
X200.665Y-131.2
X200.665Y-133.74
X200.817Y-104.53
X200.817Y-107.07
X200.817Y-109.61
T9
X124.95Y-140.35
X124.95Y-144.85
X131.45Y-140.35
X131.45Y-144.85
X135.35Y-140.35
X135.35Y-144.85
X141.85Y-140.35
X141.85Y-144.85
X164.435Y-140.505
X164.435Y-145.005
X170.935Y-140.505
X170.935Y-145.005
X175.155Y-140.505
X175.155Y-145.005
X181.655Y-140.505
X181.655Y-145.005
T10
X116.85Y-61.2
X154.35Y-61.2
T11
X110.227Y-114.676
X110.227Y-120.456
T12
X116.65Y-52.8
T13
X107.4Y-52.4
X107.4Y-145.6
X200.6Y-52.4
X200.6Y-145.6
T5
G00X106.947Y-113.246
M15
G01X106.147Y-113.246
M16
G05
G00X106.947Y-121.886
M15
G01X106.147Y-121.886
M16
G05
G00X111.277Y-113.246
M15
G01X110.177Y-113.246
M16
G05
G00X111.277Y-121.886
M15
G01X110.177Y-121.886
M16
G05
M30
