M48
; DRILL file {KiCad 9.0.4-9.0.4-0~ubuntu24.04.1} date 2026-02-08T13:12:18+0900
; FORMAT={-:-/ absolute / metric / decimal}
; #@! TF.CreationDate,2026-02-08T13:12:18+09:00
; #@! TF.GenerationSoftware,Kicad,Pcbnew,9.0.4-9.0.4-0~ubuntu24.04.1
; #@! TF.FileFunction,MixedPlating,1,4
FMAT,2
METRIC
; #@! TA.AperFunction,Plated,PTH,ViaDrill
T1C0.200
; #@! TA.AperFunction,Plated,PTH,ViaDrill
T2C0.300
; #@! TA.AperFunction,Plated,PTH,ViaDrill
T3C0.330
; #@! TA.AperFunction,Plated,PTH,ViaDrill
T4C0.381
; #@! TA.AperFunction,Plated,PTH,ComponentDrill
T5C0.600
; #@! TA.AperFunction,Plated,PTH,ComponentDrill
T6C0.750
; #@! TA.AperFunction,Plated,PTH,ComponentDrill
T7C0.800
; #@! TA.AperFunction,Plated,PTH,ComponentDrill
T8C1.000
; #@! TA.AperFunction,Plated,PTH,ComponentDrill
T9C1.100
; #@! TA.AperFunction,Plated,PTH,ComponentDrill
T10C1.800
; #@! TA.AperFunction,NonPlated,NPTH,ComponentDrill
T11C0.650
; #@! TA.AperFunction,NonPlated,NPTH,ComponentDrill
T12C2.000
; #@! TA.AperFunction,NonPlated,NPTH,ComponentDrill
T13C4.700
%
G90
G05
T1
X105.7Y-119.5
X105.8Y-114.65
X105.8Y-117.0
X106.3Y-108.45
X106.5Y-130.85
X106.55Y-127.4
X106.55Y-133.85
X106.55Y-137.1
X106.65Y-72.15
X106.7Y-139.95
X107.45Y-99.6
X107.6Y-96.5
X107.6Y-102.95
X107.7Y-105.6
X108.65Y-72.25
X109.6Y-140.6
X109.75Y-133.8
X109.9Y-130.85
X109.9Y-137.3
X110.7Y-126.85
X110.8Y-83.55
X111.65Y-71.1
X112.25Y-111.1
X112.5Y-109.5
X112.7Y-141.75
X113.05Y-81.75
X114.0Y-144.05
X114.35Y-72.15
X114.35Y-103.15
X114.4Y-75.1
X114.5Y-83.35
X114.6Y-145.7
X114.65Y-100.0
X115.7Y-131.6
X116.2Y-105.8
X116.8Y-81.8
X117.4Y-131.7
X117.55Y-84.9
X117.55Y-97.4
X117.75Y-141.6
X118.0Y-103.45
X118.15Y-121.8
X118.7Y-137.55
X119.15Y-99.9
X119.85Y-75.35
X120.0Y-95.7
X120.269Y-127.762
X120.3Y-120.15
X120.55Y-122.35
X120.7Y-125.9
X120.85Y-140.25
X121.05Y-105.3
X121.15Y-96.75
X121.539Y-131.064
X121.6Y-94.45
X121.6Y-146.5
X121.65Y-81.4
X122.047Y-126.873
X122.3Y-79.65
X122.45Y-128.45
X122.8Y-98.05
X122.8Y-121.7
X123.0Y-141.85
X123.25Y-111.65
X123.25Y-113.35
X123.45Y-123.7
X123.55Y-126.8
X123.85Y-76.3
X123.9Y-131.4
X123.9Y-137.35
X123.953Y-146.214
X124.0Y-100.3
X124.35Y-115.35
X124.85Y-112.5
X125.0Y-116.7
X125.7Y-132.5
X125.9Y-87.0
X126.111Y-131.064
X126.3Y-136.75
X126.55Y-114.35
X126.85Y-110.65
X126.9Y-146.6
X127.25Y-127.0
X127.45Y-134.05
X128.35Y-79.0
X128.651Y-120.904
X128.651Y-122.174
X128.703Y-142.464
X128.9Y-85.2
X128.905Y-129.921
X128.905Y-132.461
X129.77Y-128.41
X130.0Y-100.45
X130.0Y-146.55
X130.05Y-129.85
X130.1Y-136.05
X130.257Y-120.478
X130.302Y-121.793
X130.429Y-121.031
X130.815Y-122.433
X130.95Y-131.55
X130.953Y-108.45
X131.25Y-102.45
X131.306Y-124.405
X131.65Y-122.5
X131.75Y-118.8
X131.75Y-119.55
X131.75Y-120.35
X131.75Y-121.1
X131.85Y-71.55
X131.94Y-124.68
X132.35Y-98.2
X132.35Y-122.35
X132.6Y-133.95
X132.7Y-124.4
X132.78Y-118.85
X132.78Y-119.73
X132.79Y-120.96
X133.05Y-90.4
X133.5Y-79.85
X133.8Y-120.62
X133.83Y-118.8
X133.85Y-119.73
X133.95Y-146.65
X134.2Y-85.3
X134.45Y-101.0
X134.484Y-125.534
X134.525Y-124.79
X135.3Y-128.55
X135.359Y-118.48
X135.4Y-95.25
X135.65Y-114.23
X135.95Y-128.65
X136.65Y-136.75
X136.7Y-128.2
X136.7Y-128.8
X136.719Y-98.65
X136.955Y-120.866
X137.55Y-80.55
X137.6Y-130.05
X138.15Y-101.05
X138.25Y-88.45
X138.4Y-85.7
X138.9Y-116.365
X139.103Y-142.464
X139.25Y-105.05
X139.35Y-71.7
X139.55Y-146.65
X140.0Y-102.4
X140.05Y-107.65
X140.6Y-90.2
X140.65Y-135.35
X141.2Y-93.85
X142.0Y-138.1
X142.15Y-100.2
X142.3Y-91.7
X142.45Y-80.85
X143.3Y-134.8
X143.45Y-102.25
X143.8Y-147.35
X143.85Y-105.25
X144.85Y-96.35
X145.9Y-100.3
X146.1Y-128.55
X146.15Y-115.4
X146.2Y-87.4
X146.2Y-147.45
X146.5Y-116.7
X146.55Y-96.9
X146.65Y-139.25
X146.9Y-123.2
X146.95Y-117.8
X147.837Y-140.646
X147.9Y-137.95
X147.95Y-143.45
X148.15Y-71.9
X148.5Y-127.5
X149.0Y-137.05
X149.1Y-139.45
X149.45Y-123.0
X149.695Y-129.314
X149.75Y-128.35
X149.8Y-94.75
X149.912Y-129.764
X149.95Y-128.8
X149.95Y-142.9
X150.1Y-120.9
X150.13Y-126.57
X150.15Y-127.111
X150.175Y-124.125
X150.2Y-124.65
X150.23Y-130.15
X150.45Y-135.85
X150.75Y-138.7
X151.25Y-76.05
X151.6Y-140.55
X151.85Y-139.55
X151.95Y-89.55
X152.6Y-127.9
X152.9Y-135.9
X153.1Y-92.55
X153.15Y-126.121
X153.6Y-143.15
X154.1Y-100.05
X154.2Y-119.85
X154.4Y-142.15
X154.55Y-146.659
X154.6Y-72.35
X154.65Y-138.85
X155.15Y-78.6
X155.45Y-136.95
X156.54Y-141.504
X156.833Y-83.264
X157.05Y-118.95
X158.15Y-142.8
X158.9Y-72.5
X158.94Y-98.65
X159.4Y-80.8
X159.7Y-147.35
X159.85Y-135.0
X160.1Y-141.6
X161.3Y-109.65
X161.65Y-143.5
X161.75Y-146.9
X161.9Y-118.55
X161.9Y-145.25
X162.25Y-141.3
X162.35Y-99.1
X162.7Y-68.25
X162.701Y-71.723
X162.8Y-56.8
X163.171Y-61.13
X164.4Y-137.45
X164.6Y-97.05
X164.834Y-63.227
X164.85Y-75.65
X165.5Y-69.75
X165.6Y-121.9
X166.7Y-57.05
X166.7Y-112.15
X166.786Y-72.844
X166.85Y-115.25
X166.9Y-67.5
X167.5Y-105.9
X167.7Y-130.15
X168.1Y-108.85
X168.15Y-98.65
X168.188Y-142.619
X168.2Y-102.85
X168.4Y-125.25
X168.4Y-131.15
X168.45Y-61.0
X168.75Y-134.95
X169.05Y-73.15
X169.05Y-94.15
X169.5Y-70.3
X169.8Y-119.75
X170.65Y-117.25
X171.0Y-58.15
X171.0Y-96.05
X171.05Y-62.1
X171.05Y-107.65
X171.35Y-115.4
X171.85Y-73.1
X172.0Y-69.9
X172.2Y-109.15
X172.4Y-105.6
X173.1Y-121.95
X173.7Y-137.1
X173.718Y-94.011
X174.247Y-98.332
X174.25Y-62.05
X174.3Y-58.15
X174.55Y-70.0
X174.55Y-73.1
X174.7Y-119.1
X176.438Y-94.136
X177.003Y-58.15
X177.003Y-71.715
X177.15Y-62.3
X177.65Y-122.1
X178.45Y-134.45
X178.908Y-142.619
X179.2Y-137.25
X179.5Y-73.5
X179.55Y-69.6
X179.85Y-94.7
X180.2Y-131.2
X180.38Y-58.166
X180.45Y-61.0
X180.65Y-124.8
X180.8Y-105.9
X180.85Y-112.65
X181.05Y-118.9
X181.1Y-117.2
X181.45Y-126.75
X181.8Y-147.3
X182.25Y-73.0
X182.341Y-135.564
X182.5Y-66.15
X182.5Y-70.0
X182.633Y-108.645
X182.65Y-73.45
X183.1Y-94.25
X183.15Y-113.25
X184.2Y-62.5
X185.4Y-77.6
X185.7Y-114.8
X185.75Y-86.3
X185.8Y-83.75
X185.8Y-106.2
X186.05Y-67.35
X186.2Y-60.5
X186.45Y-56.85
X186.6Y-121.8
X186.65Y-119.1
X186.65Y-146.85
X186.85Y-64.45
X186.85Y-67.95
X187.45Y-142.6
X187.7Y-130.75
X187.75Y-73.7
X188.2Y-112.0
X188.4Y-70.6
X188.45Y-79.5
X188.55Y-108.05
X189.95Y-127.2
X191.1Y-83.45
X191.25Y-86.85
X191.45Y-121.9
X191.75Y-78.5
X191.95Y-75.75
X192.0Y-134.95
X192.5Y-104.35
X192.55Y-111.7
X192.6Y-116.25
X192.65Y-80.65
X193.65Y-130.9
X193.95Y-123.9
X194.25Y-126.8
X194.3Y-107.6
X194.8Y-113.9
X195.1Y-85.4
X195.529Y-78.415
X195.6Y-89.75
X195.75Y-122.9
X195.8Y-134.1
X196.25Y-117.95
X196.3Y-95.3
X196.555Y-124.896
X196.6Y-100.3
X197.2Y-125.8
X197.4Y-82.4
X197.7Y-92.65
X197.8Y-73.95
X198.2Y-141.55
X198.5Y-102.3
X200.95Y-137.8
X201.15Y-91.35
X201.45Y-87.374
T2
X119.32Y-80.38
X121.3Y-95.7
X121.666Y-89.916
X122.555Y-89.154
X123.8Y-97.8
X123.952Y-89.154
X124.841Y-89.408
X125.095Y-95.758
X125.85Y-83.44
X126.17Y-118.41
X126.36Y-120.47
X127.77Y-82.36
X128.39Y-118.05
X131.7Y-117.45
X132.21Y-96.65
X132.45Y-117.5
X132.88Y-115.55
X133.32Y-105.64
X133.48Y-96.42
X134.014Y-115.184
X134.504Y-115.59
X135.485Y-119.613
X136.75Y-124.4
X137.025Y-115.575
X137.157Y-117.453
X137.225Y-114.475
X137.25Y-119.264
X137.298Y-118.073
X137.3Y-122.904
X138.1Y-121.613
X138.5Y-126.64
X138.55Y-122.1
X138.564Y-134.35
X139.45Y-112.65
X140.1Y-117.1
X142.65Y-117.25
X143.1Y-126.8
X143.599Y-116.786
X144.61Y-83.0
X148.4Y-111.8
X149.0Y-98.05
X149.4Y-108.4
X149.75Y-117.25
X151.09Y-81.05
X152.95Y-132.5
X153.05Y-117.6
X154.8Y-108.3
X155.6Y-102.0
X156.0Y-109.5
X156.4Y-102.5
X157.286Y-112.164
X157.3Y-103.3
X158.0Y-107.1
X159.3Y-109.9
X159.9Y-116.565
X161.0Y-104.3
X161.0Y-116.5
X163.441Y-88.741
X163.9Y-94.5
X166.2Y-95.0
X166.3Y-88.5
X166.3Y-105.1
X169.0Y-88.3
X174.9Y-86.1
X175.6Y-85.9
X177.7Y-120.15
X177.75Y-88.3
X178.191Y-86.7
X178.65Y-78.05
X178.65Y-88.5
X180.146Y-86.85
X181.5Y-98.35
X182.8Y-98.35
X182.9Y-99.35
X183.55Y-103.05
X185.05Y-94.9
X185.25Y-129.8
X186.5Y-96.15
X186.6Y-76.25
X187.7Y-120.15
X187.85Y-99.15
X193.25Y-90.05
X196.05Y-87.85
T3
X108.763Y-66.904
X110.439Y-71.323
X116.5Y-120.75
X117.196Y-79.248
X117.246Y-71.933
X118.1Y-114.1
X118.11Y-118.059
X118.262Y-116.383
X118.923Y-71.78
X119.685Y-116.027
X119.85Y-91.6
X121.056Y-112.217
X122.326Y-110.795
X122.377Y-76.556
X122.733Y-105.562
X128.575Y-101.295
X129.235Y-123.901
X129.994Y-114.297
X130.093Y-115.22
X130.779Y-117.333
X130.937Y-114.554
X130.984Y-125.906
X131.928Y-103.873
X132.08Y-113.309
X132.232Y-111.76
X133.147Y-130.658
X133.64Y-117.327
X133.858Y-122.174
X134.036Y-113.086
X137.719Y-104.496
X139.446Y-103.988
X140.31Y-100.736
X141.4Y-108.65
X141.427Y-97.231
X142.763Y-114.863
X143.8Y-139.05
X145.437Y-114.633
X145.5Y-134.7
X146.4Y-141.35
X146.406Y-95.402
X147.9Y-109.9
X148.3Y-101.8
X155.356Y-106.585
X155.398Y-94.031
X164.45Y-84.052
X167.65Y-82.7
X169.266Y-113.944
X170.9Y-84.65
X176.733Y-108.915
X179.7Y-81.9
X180.645Y-109.169
X182.25Y-89.65
X184.05Y-93.25
X184.579Y-77.129
X185.9Y-81.85
X199.95Y-86.65
T4
X114.046Y-88.519
X115.316Y-87.376
X116.615Y-88.236
X170.265Y-81.0
X187.3Y-80.85
T6
X109.653Y-87.864
X109.653Y-89.864
X190.973Y-143.254
X192.973Y-143.254
T7
X109.603Y-58.072
X109.603Y-60.572
X109.603Y-63.072
X112.803Y-58.072
X112.803Y-60.572
X112.803Y-63.072
T8
X107.788Y-124.839
X111.7Y-94.7
X111.9Y-107.1
X111.95Y-104.0
X111.979Y-97.84
X111.979Y-100.94
X112.487Y-129.284
X112.487Y-132.459
X112.487Y-135.634
X112.487Y-138.809
X126.838Y-77.214
X130.013Y-77.214
X133.188Y-77.214
X136.363Y-77.214
X139.538Y-77.214
X142.713Y-77.214
X145.888Y-74.039
X145.888Y-77.214
X146.304Y-102.21
X146.456Y-106.985
X149.698Y-145.159
X152.873Y-145.159
X154.778Y-86.104
X156.048Y-145.159
X159.223Y-86.104
X159.223Y-145.159
X163.903Y-107.964
X163.903Y-110.504
X169.383Y-56.381
X169.383Y-64.001
X169.383Y-67.905
X169.383Y-75.525
X171.923Y-56.381
X171.923Y-64.001
X171.923Y-67.905
X171.923Y-75.525
X173.828Y-126.824
X173.828Y-131.824
X174.463Y-56.381
X174.463Y-64.001
X174.463Y-67.905
X174.463Y-75.525
X177.003Y-56.381
X177.003Y-64.001
X177.003Y-67.905
X177.003Y-75.525
X179.543Y-56.381
X179.543Y-64.001
X179.543Y-67.905
X179.543Y-75.525
X182.083Y-56.381
X182.083Y-64.001
X182.083Y-67.905
X182.083Y-75.525
X184.623Y-56.381
X184.623Y-64.001
X184.623Y-67.905
X184.623Y-75.525
X186.334Y-135.738
X190.338Y-138.174
X192.878Y-138.174
X196.053Y-60.704
X196.053Y-63.244
X196.053Y-65.784
X196.053Y-68.324
X196.053Y-70.864
X198.593Y-60.704
X198.593Y-63.244
X198.593Y-65.784
X198.593Y-68.324
X198.593Y-70.864
X198.628Y-115.824
X198.628Y-118.364
X198.628Y-120.904
X198.628Y-123.444
X198.628Y-125.984
X198.628Y-128.524
X198.628Y-131.064
X198.628Y-133.604
X201.133Y-75.944
X201.133Y-78.484
X201.133Y-81.024
X201.133Y-94.06
X201.133Y-96.6
X201.133Y-99.14
X201.168Y-115.824
X201.168Y-118.364
X201.168Y-120.904
X201.168Y-123.444
X201.168Y-125.984
X201.168Y-128.524
X201.168Y-131.064
X201.168Y-133.604
X201.32Y-104.394
X201.32Y-106.934
X201.32Y-109.474
T9
X125.453Y-140.214
X125.453Y-144.714
X131.953Y-140.214
X131.953Y-144.714
X135.853Y-140.214
X135.853Y-144.714
X142.353Y-140.214
X142.353Y-144.714
X164.938Y-140.369
X164.938Y-144.869
X171.438Y-140.369
X171.438Y-144.869
X175.658Y-140.369
X175.658Y-144.869
X182.158Y-140.369
X182.158Y-144.869
T10
X117.353Y-61.064
X154.853Y-61.064
T11
X110.73Y-114.54
X110.73Y-120.32
T12
X117.153Y-52.664
T13
X107.903Y-52.264
X107.903Y-145.464
X201.103Y-52.264
X201.103Y-145.464
T5
G00X107.45Y-113.11
M15
G01X106.65Y-113.11
M16
G05
G00X107.45Y-121.75
M15
G01X106.65Y-121.75
M16
G05
G00X111.78Y-113.11
M15
G01X110.68Y-113.11
M16
G05
G00X111.78Y-121.75
M15
G01X110.68Y-121.75
M16
G05
M30
