G04 #@! TF.GenerationSoftware,KiCad,Pcbnew,9.0.4-9.0.4-0~ubuntu24.04.1*
G04 #@! TF.CreationDate,2026-02-08T13:12:22+09:00*
G04 #@! TF.ProjectId,10k-Hour-Timer-RP2040,31306b2d-486f-4757-922d-54696d65722d,rev?*
G04 #@! TF.SameCoordinates,Original*
G04 #@! TF.FileFunction,Copper,L4,Bot*
G04 #@! TF.FilePolarity,Positive*
%FSLAX46Y46*%
G04 Gerber Fmt 4.6, Leading zero omitted, Abs format (unit mm)*
G04 Created by KiCad (PCBNEW 9.0.4-9.0.4-0~ubuntu24.04.1) date 2026-02-08 13:12:22*
%MOMM*%
%LPD*%
G01*
G04 APERTURE LIST*
G04 Aperture macros list*
%AMRoundRect*
0 Rectangle with rounded corners*
0 $1 Rounding radius*
0 $2 $3 $4 $5 $6 $7 $8 $9 X,Y pos of 4 corners*
0 Add a 4 corners polygon primitive as box body*
4,1,4,$2,$3,$4,$5,$6,$7,$8,$9,$2,$3,0*
0 Add four circle primitives for the rounded corners*
1,1,$1+$1,$2,$3*
1,1,$1+$1,$4,$5*
1,1,$1+$1,$6,$7*
1,1,$1+$1,$8,$9*
0 Add four rect primitives between the rounded corners*
20,1,$1+$1,$2,$3,$4,$5,0*
20,1,$1+$1,$4,$5,$6,$7,0*
20,1,$1+$1,$6,$7,$8,$9,0*
20,1,$1+$1,$8,$9,$2,$3,0*%
G04 Aperture macros list end*
G04 #@! TA.AperFunction,ComponentPad*
%ADD10R,1.500000X1.500000*%
G04 #@! TD*
G04 #@! TA.AperFunction,ComponentPad*
%ADD11C,1.500000*%
G04 #@! TD*
G04 #@! TA.AperFunction,ComponentPad*
%ADD12C,2.000000*%
G04 #@! TD*
G04 #@! TA.AperFunction,ComponentPad*
%ADD13C,2.300000*%
G04 #@! TD*
G04 #@! TA.AperFunction,ComponentPad*
%ADD14R,1.700000X1.700000*%
G04 #@! TD*
G04 #@! TA.AperFunction,ComponentPad*
%ADD15C,1.700000*%
G04 #@! TD*
G04 #@! TA.AperFunction,ComponentPad*
%ADD16C,1.800000*%
G04 #@! TD*
G04 #@! TA.AperFunction,ComponentPad*
%ADD17O,2.100000X1.000000*%
G04 #@! TD*
G04 #@! TA.AperFunction,ComponentPad*
%ADD18O,1.800000X1.000000*%
G04 #@! TD*
G04 #@! TA.AperFunction,ComponentPad*
%ADD19RoundRect,0.250000X-0.625000X0.350000X-0.625000X-0.350000X0.625000X-0.350000X0.625000X0.350000X0*%
G04 #@! TD*
G04 #@! TA.AperFunction,ComponentPad*
%ADD20O,1.750000X1.200000*%
G04 #@! TD*
G04 #@! TA.AperFunction,ComponentPad*
%ADD21RoundRect,0.250000X-0.350000X-0.625000X0.350000X-0.625000X0.350000X0.625000X-0.350000X0.625000X0*%
G04 #@! TD*
G04 #@! TA.AperFunction,ComponentPad*
%ADD22O,1.200000X1.750000*%
G04 #@! TD*
G04 #@! TA.AperFunction,ComponentPad*
%ADD23R,1.600000X1.600000*%
G04 #@! TD*
G04 #@! TA.AperFunction,ComponentPad*
%ADD24C,1.600000*%
G04 #@! TD*
G04 #@! TA.AperFunction,ViaPad*
%ADD25C,0.500000*%
G04 #@! TD*
G04 #@! TA.AperFunction,ViaPad*
%ADD26C,0.350000*%
G04 #@! TD*
G04 #@! TA.AperFunction,ViaPad*
%ADD27C,0.685800*%
G04 #@! TD*
G04 #@! TA.AperFunction,ViaPad*
%ADD28C,0.889000*%
G04 #@! TD*
G04 #@! TA.AperFunction,Conductor*
%ADD29C,0.200000*%
G04 #@! TD*
G04 #@! TA.AperFunction,Conductor*
%ADD30C,0.127000*%
G04 #@! TD*
G04 #@! TA.AperFunction,Conductor*
%ADD31C,0.508000*%
G04 #@! TD*
G04 #@! TA.AperFunction,Conductor*
%ADD32C,0.254000*%
G04 #@! TD*
G04 #@! TA.AperFunction,Conductor*
%ADD33C,0.762000*%
G04 #@! TD*
G04 APERTURE END LIST*
D10*
G04 #@! TO.P,U8,1,DIG1*
G04 #@! TO.N,/TM1638_Display/Dig_1*
X169383000Y-64001000D03*
D11*
G04 #@! TO.P,U8,2,d*
G04 #@! TO.N,/TM1638_Display/SEG_D*
X171923000Y-64001000D03*
G04 #@! TO.P,U8,3,DPX*
G04 #@! TO.N,/TM1638_Display/SEG_DPX*
X174463000Y-64001000D03*
G04 #@! TO.P,U8,4,e*
G04 #@! TO.N,/TM1638_Display/SEG_E*
X177003000Y-64001000D03*
G04 #@! TO.P,U8,5,DIG3*
G04 #@! TO.N,/TM1638_Display/Dig_3*
X179543000Y-64001000D03*
G04 #@! TO.P,U8,6,c*
G04 #@! TO.N,/TM1638_Display/SEG_C*
X182083000Y-64001000D03*
G04 #@! TO.P,U8,7,NA*
G04 #@! TO.N,/TM1638_Display/SEG_D*
X184623000Y-64001000D03*
G04 #@! TO.P,U8,8,b*
G04 #@! TO.N,/TM1638_Display/SEG_B*
X184623000Y-56381000D03*
G04 #@! TO.P,U8,9,DIG4*
G04 #@! TO.N,/TM1638_Display/Dig_4*
X182083000Y-56381000D03*
G04 #@! TO.P,U8,10,g*
G04 #@! TO.N,/TM1638_Display/SEG_G*
X179543000Y-56381000D03*
G04 #@! TO.P,U8,11,DX*
G04 #@! TO.N,/TM1638_Display/SEG_DX*
X177003000Y-56381000D03*
G04 #@! TO.P,U8,12,DIG2*
G04 #@! TO.N,/TM1638_Display/Dig_2*
X174463000Y-56381000D03*
G04 #@! TO.P,U8,13,f*
G04 #@! TO.N,/TM1638_Display/SEG_F*
X171923000Y-56381000D03*
G04 #@! TO.P,U8,14,a*
G04 #@! TO.N,/TM1638_Display/SEG_A*
X169383000Y-56381000D03*
G04 #@! TD*
D12*
G04 #@! TO.P,TP16,1,1*
G04 #@! TO.N,/Power-DCDC-Charger-Battery/DC_EN_CTL*
X111900000Y-107100000D03*
G04 #@! TD*
D13*
G04 #@! TO.P,BT1,1,+*
G04 #@! TO.N,Net-(BT1-+)*
X117353000Y-61064000D03*
G04 #@! TO.P,BT1,2,-*
G04 #@! TO.N,/Power-DCDC-Charger-Battery/Batt-*
X154853000Y-61064000D03*
G04 #@! TD*
D12*
G04 #@! TO.P,TP14,1,1*
G04 #@! TO.N,Net-(Q2-D)*
X142713000Y-77214000D03*
G04 #@! TD*
G04 #@! TO.P,TP8,1,1*
G04 #@! TO.N,/Power-DCDC-Charger-Battery/Batt+*
X111700000Y-94700000D03*
G04 #@! TD*
G04 #@! TO.P,TP12,1,1*
G04 #@! TO.N,/Power-DCDC-Charger-Battery/COUT*
X139538000Y-77214000D03*
G04 #@! TD*
G04 #@! TO.P,SW3,1,1*
G04 #@! TO.N,GND*
X175658000Y-140369000D03*
X182158000Y-140369000D03*
G04 #@! TO.P,SW3,2,2*
G04 #@! TO.N,/MCU-IO/~{Reset}*
X175658000Y-144869000D03*
X182158000Y-144869000D03*
G04 #@! TD*
G04 #@! TO.P,TP6,1,1*
G04 #@! TO.N,/MCU-IO/ADC1_VSW_In*
X112487000Y-138809000D03*
G04 #@! TD*
G04 #@! TO.P,TP21,1,1*
G04 #@! TO.N,/MCU-IO/BTN_B_Sense*
X156048000Y-145159000D03*
G04 #@! TD*
G04 #@! TO.P,TP4,1,1*
G04 #@! TO.N,/Power-DCDC-Charger-Battery/VBAT*
X112487000Y-135634000D03*
G04 #@! TD*
D14*
G04 #@! TO.P,J9,1,Pin_1*
G04 #@! TO.N,/RTC/INT_CLKOUT*
X163903000Y-110504000D03*
D15*
G04 #@! TO.P,J9,2,Pin_2*
G04 #@! TO.N,GND*
X163903000Y-107964000D03*
G04 #@! TD*
D12*
G04 #@! TO.P,TP15,1,1*
G04 #@! TO.N,/Power-DCDC-Charger-Battery/Batt-*
X130013000Y-77214000D03*
G04 #@! TD*
D10*
G04 #@! TO.P,U9,1,DIG1*
G04 #@! TO.N,/TM1638_Display/Dig_5*
X169383000Y-75525000D03*
D11*
G04 #@! TO.P,U9,2,d*
G04 #@! TO.N,/TM1638_Display/SEG_D*
X171923000Y-75525000D03*
G04 #@! TO.P,U9,3,DPX*
G04 #@! TO.N,/TM1638_Display/SEG_DPX*
X174463000Y-75525000D03*
G04 #@! TO.P,U9,4,e*
G04 #@! TO.N,/TM1638_Display/SEG_E*
X177003000Y-75525000D03*
G04 #@! TO.P,U9,5,DIG3*
G04 #@! TO.N,/TM1638_Display/Dig_7*
X179543000Y-75525000D03*
G04 #@! TO.P,U9,6,c*
G04 #@! TO.N,/TM1638_Display/SEG_C*
X182083000Y-75525000D03*
G04 #@! TO.P,U9,7,NA*
G04 #@! TO.N,/TM1638_Display/SEG_D*
X184623000Y-75525000D03*
G04 #@! TO.P,U9,8,b*
G04 #@! TO.N,/TM1638_Display/SEG_B*
X184623000Y-67905000D03*
G04 #@! TO.P,U9,9,DIG4*
G04 #@! TO.N,/TM1638_Display/Dig_8*
X182083000Y-67905000D03*
G04 #@! TO.P,U9,10,g*
G04 #@! TO.N,/TM1638_Display/SEG_G*
X179543000Y-67905000D03*
G04 #@! TO.P,U9,11,DX*
G04 #@! TO.N,/TM1638_Display/SEG_DX*
X177003000Y-67905000D03*
G04 #@! TO.P,U9,12,DIG2*
G04 #@! TO.N,/TM1638_Display/Dig_6*
X174463000Y-67905000D03*
G04 #@! TO.P,U9,13,f*
G04 #@! TO.N,/TM1638_Display/SEG_F*
X171923000Y-67905000D03*
G04 #@! TO.P,U9,14,a*
G04 #@! TO.N,/TM1638_Display/SEG_A*
X169383000Y-67905000D03*
G04 #@! TD*
D12*
G04 #@! TO.P,TP5,1,1*
G04 #@! TO.N,/MCU-IO/ADC0_VUSB_In*
X145888000Y-77214000D03*
G04 #@! TD*
G04 #@! TO.P,TP20,1,1*
G04 #@! TO.N,/MCU-IO/ADC1*
X146304000Y-102209600D03*
G04 #@! TD*
G04 #@! TO.P,TP13,1,1*
G04 #@! TO.N,GND*
X136363000Y-77214000D03*
G04 #@! TD*
D14*
G04 #@! TO.P,J1,1,Pin_1*
G04 #@! TO.N,/SWCLK*
X201133000Y-75944000D03*
D15*
G04 #@! TO.P,J1,2,Pin_2*
G04 #@! TO.N,GND*
X201133000Y-78484000D03*
G04 #@! TO.P,J1,3,Pin_3*
G04 #@! TO.N,/SWDIO*
X201133000Y-81024000D03*
G04 #@! TD*
D14*
G04 #@! TO.P,J11,1,Pin_1*
G04 #@! TO.N,/Power-DCDC-Charger-Battery/V_OUT*
X190338000Y-138174000D03*
D15*
G04 #@! TO.P,J11,2,Pin_2*
G04 #@! TO.N,GND*
X192878000Y-138174000D03*
G04 #@! TD*
D12*
G04 #@! TO.P,SW2,1,1*
G04 #@! TO.N,Net-(R23-Pad1)*
X164938000Y-140369000D03*
X171438000Y-140369000D03*
G04 #@! TO.P,SW2,2,2*
G04 #@! TO.N,GND*
X164938000Y-144869000D03*
X171438000Y-144869000D03*
G04 #@! TD*
D14*
G04 #@! TO.P,J6,1,Pin_1*
G04 #@! TO.N,3V3*
X198628000Y-115824000D03*
D15*
G04 #@! TO.P,J6,2,Pin_2*
X201168000Y-115824000D03*
G04 #@! TO.P,J6,3,Pin_3*
X198628000Y-118364000D03*
G04 #@! TO.P,J6,4,Pin_4*
G04 #@! TO.N,/MCU-IO/IO14*
X201168000Y-118364000D03*
G04 #@! TO.P,J6,5,Pin_5*
G04 #@! TO.N,/MCU-IO/IO2_LD-*
X198628000Y-120904000D03*
G04 #@! TO.P,J6,6,Pin_6*
G04 #@! TO.N,/MCU-IO/IO9*
X201168000Y-120904000D03*
G04 #@! TO.P,J6,7,Pin_7*
G04 #@! TO.N,/MCU-IO/IO3_LD-*
X198628000Y-123444000D03*
G04 #@! TO.P,J6,8,Pin_8*
G04 #@! TO.N,/MCU-IO/IO15*
X201168000Y-123444000D03*
G04 #@! TO.P,J6,9,Pin_9*
G04 #@! TO.N,/MCU-IO/IO5*
X198628000Y-125984000D03*
G04 #@! TO.P,J6,10,Pin_10*
G04 #@! TO.N,/MCU-IO/IO16*
X201168000Y-125984000D03*
G04 #@! TO.P,J6,11,Pin_11*
G04 #@! TO.N,/MCU-IO/IO6*
X198628000Y-128524000D03*
G04 #@! TO.P,J6,12,Pin_12*
G04 #@! TO.N,/MCU-IO/IO21*
X201168000Y-128524000D03*
G04 #@! TO.P,J6,13,Pin_13*
G04 #@! TO.N,/MCU-IO/IO4*
X198628000Y-131064000D03*
G04 #@! TO.P,J6,14,Pin_14*
G04 #@! TO.N,/MCU-IO/IO22*
X201168000Y-131064000D03*
G04 #@! TO.P,J6,15,Pin_15*
G04 #@! TO.N,GND*
X198628000Y-133604000D03*
G04 #@! TO.P,J6,16,Pin_16*
X201168000Y-133604000D03*
G04 #@! TD*
D12*
G04 #@! TO.P,SW4,1,1*
G04 #@! TO.N,/MCU-IO/BTN_A_Sense*
X125453000Y-140214000D03*
X131953000Y-140214000D03*
G04 #@! TO.P,SW4,2,2*
G04 #@! TO.N,GND*
X125453000Y-144714000D03*
X131953000Y-144714000D03*
G04 #@! TD*
D16*
G04 #@! TO.P,BZ1,1,+*
G04 #@! TO.N,/MCU-IO/BZ1*
X173828000Y-126824000D03*
G04 #@! TO.P,BZ1,2,-*
G04 #@! TO.N,GND*
X173828000Y-131824000D03*
G04 #@! TD*
D17*
G04 #@! TO.P,J3,S1,SHIELD*
G04 #@! TO.N,/SHIELD*
X111230000Y-113110000D03*
D18*
X107050000Y-113110000D03*
D17*
X111230000Y-121750000D03*
D18*
X107050000Y-121750000D03*
G04 #@! TD*
D19*
G04 #@! TO.P,J4,1,1*
G04 #@! TO.N,Net-(BT1-+)*
X109653000Y-87864000D03*
D20*
G04 #@! TO.P,J4,2,2*
G04 #@! TO.N,/Power-DCDC-Charger-Battery/Batt-*
X109653000Y-89864000D03*
G04 #@! TD*
D12*
G04 #@! TO.P,TP2,1,1*
G04 #@! TO.N,/VBUS_IN*
X112487000Y-129284000D03*
G04 #@! TD*
G04 #@! TO.P,TP24,1,1*
G04 #@! TO.N,/RTC/INT_G*
X159223000Y-86104000D03*
G04 #@! TD*
G04 #@! TO.P,TP10,1,1*
G04 #@! TO.N,Net-(U3-V-)*
X126838000Y-77214000D03*
G04 #@! TD*
D14*
G04 #@! TO.P,J5,1,Pin_1*
G04 #@! TO.N,/TM1638_Display/VDD_SEL*
X196053000Y-60704000D03*
D15*
G04 #@! TO.P,J5,2,Pin_2*
X198593000Y-60704000D03*
G04 #@! TO.P,J5,3,Pin_3*
G04 #@! TO.N,GND*
X196053000Y-63244000D03*
G04 #@! TO.P,J5,4,Pin_4*
X198593000Y-63244000D03*
G04 #@! TO.P,J5,5,Pin_5*
G04 #@! TO.N,/TM1638_Display/STB_Out*
X196053000Y-65784000D03*
G04 #@! TO.P,J5,6,Pin_6*
X198593000Y-65784000D03*
G04 #@! TO.P,J5,7,Pin_7*
G04 #@! TO.N,/TM1638_Display/CLK_Out*
X196053000Y-68324000D03*
G04 #@! TO.P,J5,8,Pin_8*
X198593000Y-68324000D03*
G04 #@! TO.P,J5,9,Pin_9*
G04 #@! TO.N,/TM1638_Display/DIO_Out*
X196053000Y-70864000D03*
G04 #@! TO.P,J5,10,Pin_10*
X198593000Y-70864000D03*
G04 #@! TD*
D12*
G04 #@! TO.P,TP9,1,1*
G04 #@! TO.N,/Power-DCDC-Charger-Battery/Batt-*
X111979000Y-97840000D03*
G04 #@! TD*
G04 #@! TO.P,TP26,1,1*
G04 #@! TO.N,/Power-DCDC-Charger-Battery/V_OUT*
X186334400Y-135737600D03*
G04 #@! TD*
G04 #@! TO.P,TP1,1,1*
G04 #@! TO.N,GND*
X107788000Y-124839000D03*
G04 #@! TD*
D21*
G04 #@! TO.P,J10,1,1*
G04 #@! TO.N,/Power-DCDC-Charger-Battery/V_OUT*
X190973000Y-143254000D03*
D22*
G04 #@! TO.P,J10,2,2*
G04 #@! TO.N,GND*
X192973000Y-143254000D03*
G04 #@! TD*
D12*
G04 #@! TO.P,TP7,1,1*
G04 #@! TO.N,/Power-DCDC-Charger-Battery/STAT*
X145888000Y-74039000D03*
G04 #@! TD*
G04 #@! TO.P,TP18,1,1*
G04 #@! TO.N,/MCU-IO/IO_Gate*
X152873000Y-145159000D03*
G04 #@! TD*
G04 #@! TO.P,TP22,1,1*
G04 #@! TO.N,Net-(R38-Pad1)*
X159223000Y-145159000D03*
G04 #@! TD*
G04 #@! TO.P,TP25,1,1*
G04 #@! TO.N,Net-(JP23-A)*
X154778000Y-86104000D03*
G04 #@! TD*
G04 #@! TO.P,TP11,1,1*
G04 #@! TO.N,/Power-DCDC-Charger-Battery/DOUT*
X133188000Y-77214000D03*
G04 #@! TD*
G04 #@! TO.P,TP3,1,1*
G04 #@! TO.N,/MCU-IO/ADC0_VUSB_In*
X112487000Y-132459000D03*
G04 #@! TD*
G04 #@! TO.P,TP23,1,1*
G04 #@! TO.N,/MCU-IO/ADC0*
X146456400Y-106984800D03*
G04 #@! TD*
G04 #@! TO.P,TP17,1,1*
G04 #@! TO.N,Net-(U4-SW)*
X111979000Y-100940000D03*
G04 #@! TD*
G04 #@! TO.P,TP27,1,1*
G04 #@! TO.N,/Power-DCDC-Charger-Battery/DC_FB*
X111950000Y-104000000D03*
G04 #@! TD*
D14*
G04 #@! TO.P,J7,1,Pin_1*
G04 #@! TO.N,/MCU-IO/UART0_Tx*
X201133000Y-99140000D03*
D15*
G04 #@! TO.P,J7,2,Pin_2*
G04 #@! TO.N,GND*
X201133000Y-96600000D03*
G04 #@! TO.P,J7,3,Pin_3*
G04 #@! TO.N,/MCU-IO/UART0_Rx*
X201133000Y-94060000D03*
G04 #@! TD*
D14*
G04 #@! TO.P,J8,1,Pin_1*
G04 #@! TO.N,/MCU-IO/ADC2*
X201320400Y-109474000D03*
D15*
G04 #@! TO.P,J8,2,Pin_2*
G04 #@! TO.N,GND*
X201320400Y-106934000D03*
G04 #@! TO.P,J8,3,Pin_3*
G04 #@! TO.N,/MCU-IO/ADC3*
X201320400Y-104394000D03*
G04 #@! TD*
D12*
G04 #@! TO.P,TP19,1,1*
G04 #@! TO.N,/MCU-IO/DCDC_EN*
X149698000Y-145159000D03*
G04 #@! TD*
D23*
G04 #@! TO.P,SW6,1,A*
G04 #@! TO.N,/Power-DCDC-Charger-Battery/Batt+*
X109603000Y-63071500D03*
D24*
G04 #@! TO.P,SW6,2,B*
G04 #@! TO.N,Net-(BT1-+)*
X109603000Y-60571500D03*
G04 #@! TO.P,SW6,3,C*
G04 #@! TO.N,unconnected-(SW6-C-Pad3)*
X109603000Y-58071500D03*
G04 #@! TO.P,SW6,4*
G04 #@! TO.N,N/C*
X112803000Y-63071500D03*
G04 #@! TO.P,SW6,5*
X112803000Y-60571500D03*
G04 #@! TO.P,SW6,6*
X112803000Y-58071500D03*
G04 #@! TD*
D12*
G04 #@! TO.P,SW5,1,1*
G04 #@! TO.N,/MCU-IO/VBAT_VBUS*
X135853000Y-140214000D03*
X142353000Y-140214000D03*
G04 #@! TO.P,SW5,2,2*
G04 #@! TO.N,Net-(R38-Pad1)*
X135853000Y-144714000D03*
X142353000Y-144714000D03*
G04 #@! TD*
D25*
G04 #@! TO.N,3V3*
X135485371Y-119612971D03*
D26*
G04 #@! TO.N,/MCU-IO/SWDA_IN*
X135359000Y-118480000D03*
D27*
X142762829Y-114862829D03*
D26*
G04 #@! TO.N,/MCU-IO/BZ1*
X148500000Y-127500000D03*
G04 #@! TO.N,GND*
X164850000Y-75650000D03*
X129770000Y-128410000D03*
X162350000Y-99100000D03*
X119850000Y-75350000D03*
X121050000Y-105300000D03*
X166850000Y-115250000D03*
X163171164Y-61130212D03*
X126900000Y-146600000D03*
X105800000Y-117000000D03*
X142150000Y-100200000D03*
X120300000Y-120150000D03*
X164400000Y-137450000D03*
X154600000Y-72350000D03*
X154400000Y-142150000D03*
X128350000Y-79000000D03*
X149950000Y-142900000D03*
X153600000Y-143150000D03*
X191100000Y-83450000D03*
X126850000Y-110650000D03*
X179850000Y-94700000D03*
X189950000Y-127200000D03*
X131850000Y-71550000D03*
X195800000Y-134100000D03*
X196300000Y-95300000D03*
X192500000Y-104350000D03*
X168750000Y-134950000D03*
X193650000Y-130900000D03*
X133800000Y-120620000D03*
X121600000Y-146500000D03*
X130950000Y-131550000D03*
X165500000Y-69750000D03*
X201150000Y-91350000D03*
X116800000Y-81800000D03*
X120550000Y-122350000D03*
X192550000Y-111700000D03*
X161900000Y-145250000D03*
X178908000Y-142619000D03*
X160100000Y-141600000D03*
X146200000Y-87400000D03*
X185700000Y-114800000D03*
X168400000Y-131150000D03*
X166700000Y-112150000D03*
X194300000Y-107600000D03*
X154650000Y-138850000D03*
D27*
X116500000Y-120750000D03*
D26*
X200950000Y-137800000D03*
X173100000Y-121950000D03*
X192600000Y-116250000D03*
X171850000Y-73100000D03*
X168150000Y-98650000D03*
X127450000Y-134050000D03*
X178450000Y-134450000D03*
X166900000Y-67500000D03*
X122450000Y-128450000D03*
X125000000Y-116700000D03*
X150750000Y-138700000D03*
X141200000Y-93850000D03*
X107450000Y-99600000D03*
X120850000Y-140250000D03*
X114000000Y-144050000D03*
X136719500Y-98650000D03*
X161300000Y-109650000D03*
X109900000Y-137300000D03*
X111650000Y-71100000D03*
X130100000Y-136050000D03*
X154200000Y-119850000D03*
X180850000Y-112650000D03*
X108650000Y-72250000D03*
X176438298Y-94136179D03*
X140650000Y-135350000D03*
X180800000Y-105900000D03*
X158150000Y-142800000D03*
X146550000Y-96900000D03*
X188550000Y-108050000D03*
X154550000Y-146659000D03*
X146900000Y-123200000D03*
X120000000Y-95700000D03*
X162250000Y-141300000D03*
X131250000Y-102450000D03*
X169050000Y-94150000D03*
X128703000Y-142464000D03*
X158940000Y-98650000D03*
X194800000Y-113900000D03*
X106700000Y-139950000D03*
X188200000Y-112000000D03*
X134450000Y-101000000D03*
X133830000Y-118800000D03*
X120700000Y-125900000D03*
X164834217Y-63227105D03*
D27*
X118100000Y-114100000D03*
D26*
X155450000Y-136950000D03*
X149450000Y-123000000D03*
X151600000Y-140550000D03*
X186450000Y-56850000D03*
X123000000Y-141850000D03*
X125700000Y-132500000D03*
X117550000Y-97400000D03*
X110800000Y-83550000D03*
X168200000Y-102850000D03*
X168400000Y-125250000D03*
X149800000Y-94750000D03*
X114350000Y-72150000D03*
X169050000Y-73150000D03*
X156832874Y-83264324D03*
X106550000Y-127400000D03*
X168188000Y-142619000D03*
X115700000Y-131600000D03*
X198200000Y-141550000D03*
X133850000Y-119730000D03*
X140000000Y-102400000D03*
X179550000Y-69600000D03*
X180200000Y-131200000D03*
X198500000Y-102300000D03*
X123250000Y-111650000D03*
X197400000Y-82400000D03*
X185800000Y-83750000D03*
X123250000Y-113350000D03*
X138400000Y-85700000D03*
X180650000Y-124800000D03*
X124350000Y-115350000D03*
X130000000Y-146550000D03*
X159850000Y-135000000D03*
X139350000Y-71700000D03*
X131750000Y-119550000D03*
X132600000Y-133950000D03*
X169800000Y-119750000D03*
X131750000Y-121100000D03*
X170650000Y-117250000D03*
X151250000Y-76050000D03*
X192650000Y-80650000D03*
X144850000Y-96350000D03*
X110700000Y-126850000D03*
X167500000Y-105900000D03*
X147836861Y-140646113D03*
X150450000Y-135850000D03*
X174700000Y-119100000D03*
X177150000Y-62300000D03*
X173700000Y-137100000D03*
X186650000Y-146850000D03*
X162800000Y-56800000D03*
X123450000Y-123700000D03*
X112700000Y-141750000D03*
X138150000Y-101050000D03*
X134200000Y-85300000D03*
X162701171Y-71723134D03*
X174247410Y-98332112D03*
X106300000Y-108450000D03*
X140050000Y-107650000D03*
X126300000Y-136750000D03*
X121600000Y-94450000D03*
X146200000Y-147450000D03*
X165600000Y-121900000D03*
X139250000Y-105050000D03*
X142300000Y-91700000D03*
X174250000Y-62050000D03*
X186600000Y-121800000D03*
X166700000Y-57050000D03*
X191750000Y-78500000D03*
X159400000Y-80800000D03*
X133050000Y-90400000D03*
X179200000Y-137250000D03*
X118000000Y-103450000D03*
X191950000Y-75750000D03*
X195529392Y-78415400D03*
X112500000Y-109500000D03*
X191250000Y-86850000D03*
X109900000Y-130850000D03*
X188400000Y-70600000D03*
X131750000Y-118800000D03*
X116200000Y-105800000D03*
X171000000Y-58150000D03*
X149100000Y-139450000D03*
X128900000Y-85200000D03*
X181100000Y-117200000D03*
X122800000Y-121700000D03*
X194250000Y-126800000D03*
X177003000Y-58150000D03*
X151950000Y-89550000D03*
X107600000Y-102950000D03*
X131750000Y-120350000D03*
X130953000Y-108450000D03*
X143800000Y-147350000D03*
X132780000Y-119730000D03*
X117550000Y-84900000D03*
X181050000Y-118900000D03*
D27*
X119850000Y-91600000D03*
D26*
X181450000Y-126750000D03*
X168450000Y-61000000D03*
X127250000Y-127000000D03*
X171000000Y-96050000D03*
X195100000Y-85400000D03*
X149000000Y-137050000D03*
X146150000Y-115400000D03*
X123850000Y-76300000D03*
X154100000Y-100050000D03*
X142000000Y-138100000D03*
X109600000Y-140600000D03*
X150100000Y-120900000D03*
X191450000Y-121900000D03*
X105800000Y-114650000D03*
X183100000Y-94250000D03*
X114500000Y-83350000D03*
X106500000Y-130850000D03*
X133500000Y-79850000D03*
X152900000Y-135900000D03*
X172400000Y-105600000D03*
X185750000Y-86300000D03*
X112250000Y-111100000D03*
X143300000Y-134800000D03*
X132350000Y-98200000D03*
X121650000Y-81400000D03*
X161750000Y-146900000D03*
X186850000Y-64450000D03*
X142450000Y-80850000D03*
X114350000Y-103150000D03*
X186650000Y-119100000D03*
X139103000Y-142464000D03*
X180450000Y-61000000D03*
X137550000Y-80550000D03*
X188450000Y-79500000D03*
X156540438Y-141503917D03*
X153100000Y-92550000D03*
X185800000Y-106200000D03*
X166786496Y-72843887D03*
X174550000Y-73100000D03*
X187700000Y-130750000D03*
X196600000Y-100300000D03*
X197700000Y-92650000D03*
X132790000Y-120960000D03*
X114650000Y-100000000D03*
X139550000Y-146650000D03*
X158900000Y-72500000D03*
X180380144Y-58165640D03*
X125900000Y-87000000D03*
X177650000Y-122100000D03*
X157050000Y-118950000D03*
X171350000Y-115400000D03*
X174300000Y-58150000D03*
X171050000Y-107650000D03*
X124850000Y-112500000D03*
X105700000Y-119500000D03*
X122300000Y-79650000D03*
X155150000Y-78600000D03*
X122800000Y-98050000D03*
X187750000Y-73700000D03*
X124000000Y-100300000D03*
X133950000Y-146650000D03*
X136955066Y-120866000D03*
X201450000Y-87374000D03*
X140600000Y-90200000D03*
X106550000Y-133850000D03*
X146500000Y-116700000D03*
X172000000Y-69900000D03*
X173718430Y-94010647D03*
X161650000Y-143500000D03*
X182340574Y-135563606D03*
X147900000Y-137950000D03*
X146650000Y-139250000D03*
X135650000Y-114230000D03*
X181800000Y-147300000D03*
X164600000Y-97050000D03*
X182500000Y-70000000D03*
X132780000Y-118850000D03*
X143850000Y-105250000D03*
X159700000Y-147350000D03*
X143450000Y-102250000D03*
X136650000Y-136750000D03*
X169500000Y-70300000D03*
X171050000Y-62100000D03*
X107700000Y-105600000D03*
X177003000Y-71715000D03*
X121150000Y-96750000D03*
X168100000Y-108850000D03*
X106550000Y-137100000D03*
X107600000Y-96500000D03*
X114400000Y-75100000D03*
X161900000Y-118550000D03*
X179500000Y-73500000D03*
X106650000Y-72150000D03*
X148150000Y-71900000D03*
X192000000Y-134950000D03*
X118150000Y-121800000D03*
X146950000Y-117800000D03*
X117400000Y-131700000D03*
X114600000Y-145700000D03*
X123900000Y-137350000D03*
X119150000Y-99900000D03*
X182650000Y-73450000D03*
X113050000Y-81750000D03*
X197800000Y-73950000D03*
X123953000Y-146214000D03*
X117750000Y-141600000D03*
X174550000Y-70000000D03*
X135400000Y-95250000D03*
X123900000Y-131400000D03*
X145900000Y-100300000D03*
X187450000Y-142600000D03*
X138900000Y-116365500D03*
X138250000Y-88450000D03*
X185400000Y-77600000D03*
X186200000Y-60500000D03*
X118700000Y-137550000D03*
X183150000Y-113250000D03*
X162700000Y-68250000D03*
X147950000Y-143450000D03*
X186850000Y-67950000D03*
X182633080Y-108645373D03*
X123550000Y-126800000D03*
X109750000Y-133800000D03*
X195600000Y-89750000D03*
X130050000Y-129850000D03*
X130000000Y-100450000D03*
X126550000Y-114350000D03*
X196250000Y-117950000D03*
D27*
G04 #@! TO.N,3V3*
X130779377Y-117333411D03*
X133858000Y-122174000D03*
D25*
X122555000Y-89154000D03*
D27*
X180644800Y-109169200D03*
D25*
X123952000Y-89154000D03*
D27*
X128574800Y-101295200D03*
X130984450Y-125905550D03*
D25*
X124841000Y-89408000D03*
D27*
X176733200Y-108915200D03*
D28*
X116615000Y-88236000D03*
D27*
X133639723Y-117326726D03*
D28*
X114046000Y-88519000D03*
D27*
X132232400Y-111760000D03*
D28*
X115316000Y-87376000D03*
D27*
X129235200Y-123901200D03*
X130093051Y-115220149D03*
G04 #@! TO.N,/MCU-IO/VBAT_VBUS*
X155356400Y-106584842D03*
X169265600Y-113944400D03*
D25*
G04 #@! TO.N,/SWCLK*
X196050000Y-87850000D03*
X139450000Y-112650000D03*
D26*
G04 #@! TO.N,/SWDIO*
X172200000Y-109150000D03*
D27*
X199950000Y-86650000D03*
D25*
G04 #@! TO.N,/Power-DCDC-Charger-Battery/DC_EN_CTL*
X123800000Y-97800000D03*
G04 #@! TO.N,/Power-DCDC-Charger-Battery/DC_FB*
X121300000Y-95700000D03*
G04 #@! TO.N,Net-(Q2-D)*
X125850000Y-83440000D03*
D27*
G04 #@! TO.N,/Power-DCDC-Charger-Battery/COUT*
X118922800Y-71780400D03*
X122377200Y-76555600D03*
D25*
X127770000Y-82360000D03*
G04 #@! TO.N,/MCU-IO/BTN_A_Sense*
X138500000Y-126640500D03*
X138563500Y-134350000D03*
D27*
G04 #@! TO.N,/MCU-IO/ADC0*
X141400000Y-108650000D03*
X134036273Y-113086273D03*
D25*
G04 #@! TO.N,/RTC/INT_G*
X159300000Y-109900000D03*
X156400000Y-102500000D03*
X158000000Y-107100000D03*
X163900000Y-94500000D03*
G04 #@! TO.N,Net-(D10-A)*
X157286001Y-112163999D03*
X156000000Y-109500000D03*
D27*
G04 #@! TO.N,/Power-DCDC-Charger-Battery/Batt+*
X108762800Y-66903600D03*
D26*
G04 #@! TO.N,/MCU-IO/UART0_Rx*
X134525083Y-124789549D03*
G04 #@! TO.N,/MCU-IO/UART0_Tx*
X134484223Y-125534500D03*
D25*
G04 #@! TO.N,1V1*
X126360000Y-120470000D03*
X137250000Y-119264000D03*
X128390000Y-118050000D03*
D27*
G04 #@! TO.N,/MCU-IO/ADC2*
X130937000Y-114554000D03*
D25*
X159900000Y-116564600D03*
X137025000Y-115575000D03*
D27*
G04 #@! TO.N,/MCU-IO/ADC3*
X129993781Y-114296581D03*
D25*
X137225000Y-114475000D03*
X161000000Y-116500000D03*
G04 #@! TO.N,/MCU-IO/IO21*
X134503574Y-115590019D03*
D26*
G04 #@! TO.N,/MCU-IO/IO4*
X135950000Y-128650000D03*
X131650000Y-122500000D03*
X149694763Y-129313870D03*
D25*
G04 #@! TO.N,/MCU-IO/IO22*
X134014201Y-115184129D03*
D26*
G04 #@! TO.N,/MCU-IO/IO2*
X150229540Y-130150374D03*
X131306200Y-124405454D03*
D25*
X187700000Y-120150000D03*
D26*
X167700000Y-130150374D03*
D25*
X177700374Y-120150000D03*
D26*
X137600000Y-130050000D03*
G04 #@! TO.N,/MCU-IO/IO14*
X150200000Y-124650000D03*
X195750000Y-122900000D03*
X193950000Y-123900000D03*
G04 #@! TO.N,/MCU-IO/IO9*
X150130387Y-126569613D03*
X197200000Y-125800000D03*
G04 #@! TO.N,/MCU-IO/IO3*
X131940457Y-124679937D03*
X135300000Y-128550000D03*
D25*
X185250000Y-129800000D03*
D26*
X149911802Y-129764310D03*
G04 #@! TO.N,/MCU-IO/IO5*
X132350000Y-122350000D03*
X149750000Y-128350000D03*
X136700000Y-128200000D03*
D25*
G04 #@! TO.N,/Power-DCDC-Charger-Battery/STAT*
X144610000Y-83000000D03*
X151090000Y-81050000D03*
D28*
G04 #@! TO.N,/TM1638_Display/VDD_SEL*
X170265000Y-81000000D03*
X187300000Y-80850000D03*
D25*
G04 #@! TO.N,/MCU-IO/DISP_STB*
X163441163Y-88741163D03*
X138100000Y-121613500D03*
D27*
G04 #@! TO.N,/TM1638_Display/CLK_Out*
X167650000Y-82700000D03*
D25*
G04 #@! TO.N,/MCU-IO/DISP_CLK*
X166300000Y-88500000D03*
X138550000Y-122100000D03*
D27*
G04 #@! TO.N,/TM1638_Display/DIO_Out*
X170900000Y-84650000D03*
D25*
G04 #@! TO.N,/MCU-IO/DISP_DIO*
X136750000Y-124400000D03*
X169000000Y-88300000D03*
D27*
G04 #@! TO.N,/TM1638_Display/STB_Out*
X164450000Y-84052000D03*
D25*
G04 #@! TO.N,/RTC/INT_CLKOUT*
X161000000Y-104300000D03*
D26*
G04 #@! TO.N,/MCU-IO/BZ2_P*
X152600000Y-127900000D03*
X146100000Y-128550000D03*
G04 #@! TO.N,/MCU-IO/BZ2_N*
X153149711Y-126121000D03*
X150150000Y-127111500D03*
D27*
G04 #@! TO.N,/MCU-IO/ADC1*
X132080000Y-113309400D03*
X140309600Y-100736400D03*
G04 #@! TO.N,/MCU-IO/IO_Gate*
X145436635Y-114633400D03*
D25*
X149000000Y-98050000D03*
D27*
X147900000Y-109900000D03*
X143800000Y-139050000D03*
X148300000Y-101800000D03*
X146400000Y-141350000D03*
D25*
G04 #@! TO.N,/MCU-IO/BTN_B_Sense*
X132880000Y-115550000D03*
X133480000Y-96420000D03*
D26*
G04 #@! TO.N,Net-(R23-Pad1)*
X151850000Y-139550000D03*
D27*
X145500000Y-134700000D03*
D26*
G04 #@! TO.N,/MCU-IO/QSPI_SS*
X130814857Y-122432857D03*
D27*
X133146800Y-130657600D03*
D26*
X128905000Y-132461000D03*
D25*
G04 #@! TO.N,/MCU-IO/~{Reset}*
X137300000Y-122904500D03*
X137297609Y-118073000D03*
X143100000Y-126800000D03*
X152950000Y-132500000D03*
D27*
G04 #@! TO.N,/MCU-IO/ADC1_VSW_In*
X119684800Y-116027200D03*
D25*
G04 #@! TO.N,/MCU-IO/IO25_LED*
X126170000Y-118410000D03*
X131700000Y-117450000D03*
D27*
G04 #@! TO.N,/MCU-IO/ADC0_VUSB_In*
X137718800Y-104495600D03*
X146405600Y-95402400D03*
X122732800Y-105562400D03*
X139446000Y-103987600D03*
X118110000Y-118059200D03*
X131927600Y-103873300D03*
X118262400Y-116382800D03*
D25*
G04 #@! TO.N,/MCU-IO/DCDC_EN*
X133320000Y-105640000D03*
X132450000Y-117500000D03*
X132210000Y-96650000D03*
D26*
G04 #@! TO.N,/MCU-IO/QSPI_SD1*
X128651000Y-122174000D03*
X126111000Y-131064000D03*
G04 #@! TO.N,/MCU-IO/QSPI_CLK*
X130257000Y-120478000D03*
X122047000Y-126873000D03*
G04 #@! TO.N,/MCU-IO/QSPI_SD0*
X120269000Y-127762000D03*
X130429000Y-121031000D03*
G04 #@! TO.N,/MCU-IO/QSPI_SD3*
X128651000Y-120904000D03*
X121539000Y-131064000D03*
D27*
G04 #@! TO.N,/Power-DCDC-Charger-Battery/DOUT*
X117246400Y-71932800D03*
D25*
X119320000Y-80380000D03*
D27*
X117195600Y-79248000D03*
D25*
G04 #@! TO.N,Net-(JP11-A)*
X121666000Y-89916000D03*
X125095000Y-95758000D03*
D26*
G04 #@! TO.N,/MCU-IO/QSPI_SD2*
X128905000Y-129921000D03*
X130302000Y-121793000D03*
D25*
G04 #@! TO.N,/MCU-IO/RTC_INT_GPIN0*
X166200000Y-95000000D03*
X166300000Y-105100000D03*
D27*
G04 #@! TO.N,/Power-DCDC-Charger-Battery/VBAT*
X110439200Y-71323200D03*
X121056400Y-112217200D03*
X155397900Y-94030800D03*
X122326400Y-110794800D03*
X141427200Y-97231200D03*
D25*
G04 #@! TO.N,/MCU-IO/IO16*
X137156719Y-117453371D03*
X142650000Y-117250000D03*
X153050000Y-117600000D03*
X149750000Y-117250000D03*
X140100000Y-117100000D03*
D26*
G04 #@! TO.N,/MCU-IO/IO15*
X196555029Y-124895548D03*
X150175289Y-124125289D03*
D25*
G04 #@! TO.N,/MCU-IO/I2C_SCL*
X154800000Y-108300000D03*
X157300000Y-103300000D03*
X143598795Y-116786500D03*
G04 #@! TO.N,/MCU-IO/I2C_SDA*
X155600000Y-102000000D03*
X149400000Y-108400000D03*
X148400000Y-111800000D03*
G04 #@! TO.N,/TM1638_Display/SEG_C*
X178650000Y-88500000D03*
D26*
X182250000Y-73000000D03*
D25*
X181500000Y-98350000D03*
X178650000Y-78050000D03*
D26*
X182500000Y-66150000D03*
D25*
G04 #@! TO.N,/TM1638_Display/SEG_G*
X180146000Y-86850000D03*
X185050000Y-94900000D03*
G04 #@! TO.N,/TM1638_Display/SEG_F*
X174900000Y-86100000D03*
X183550000Y-103050000D03*
G04 #@! TO.N,/TM1638_Display/SEG_D*
X193250000Y-90050000D03*
D26*
X184200000Y-62500000D03*
D25*
X182800000Y-98350000D03*
D26*
X186050000Y-67350000D03*
D25*
X186600000Y-76250000D03*
G04 #@! TO.N,/TM1638_Display/SEG_DX*
X187850000Y-99150000D03*
X178191500Y-86700000D03*
G04 #@! TO.N,/TM1638_Display/SEG_DPX*
X175600000Y-85900000D03*
X186500000Y-96150000D03*
G04 #@! TO.N,/TM1638_Display/SEG_E*
X177750000Y-88300000D03*
X182900000Y-99350000D03*
D27*
G04 #@! TO.N,/TM1638_Display/Dig_6*
X184579448Y-77129448D03*
G04 #@! TO.N,/TM1638_Display/Dig_8*
X182250000Y-89650000D03*
X184050000Y-93250000D03*
G04 #@! TO.N,/TM1638_Display/Dig_7*
X185900000Y-81850000D03*
X179700000Y-81900000D03*
D26*
G04 #@! TO.N,/MCU-IO/IO6*
X149950000Y-128800000D03*
X136700000Y-128800000D03*
X132700000Y-124400000D03*
G04 #@! TD*
D29*
G04 #@! TO.N,/MCU-IO/QSPI_SD2*
X130302000Y-121793000D02*
X128480000Y-123615000D01*
X128480000Y-123615000D02*
X128480000Y-126440000D01*
X128480000Y-126440000D02*
X128910000Y-126870000D01*
X128910000Y-126870000D02*
X128910000Y-129916000D01*
X128910000Y-129916000D02*
X128905000Y-129921000D01*
D30*
G04 #@! TO.N,/MCU-IO/UART0_Tx*
X134618723Y-125400000D02*
X134484223Y-125534500D01*
G04 #@! TO.N,/MCU-IO/SWDA_IN*
X135359000Y-118480000D02*
X135434291Y-118404709D01*
X135434291Y-118404709D02*
X135434291Y-118135709D01*
X135434291Y-118135709D02*
X138707171Y-114862829D01*
X138707171Y-114862829D02*
X142762829Y-114862829D01*
G04 #@! TO.N,/MCU-IO/DISP_STB*
X163441163Y-88741163D02*
X163377744Y-88804582D01*
X138100000Y-120280000D02*
X138100000Y-121613500D01*
X163377744Y-88804582D02*
X163377744Y-89422256D01*
X163377744Y-89422256D02*
X147647900Y-105152100D01*
X147647900Y-105152100D02*
X147647900Y-108291476D01*
X147647900Y-108291476D02*
X146845000Y-109094376D01*
X146845000Y-109094376D02*
X146845000Y-111535000D01*
X146845000Y-111535000D02*
X138100000Y-120280000D01*
G04 #@! TO.N,/MCU-IO/DISP_CLK*
X166300000Y-88500000D02*
X166300000Y-90000000D01*
X147100000Y-109200000D02*
X147100000Y-112000000D01*
X166300000Y-90000000D02*
X147100000Y-109200000D01*
X147100000Y-112000000D02*
X143755000Y-115345000D01*
X143755000Y-115345000D02*
X143494375Y-115345001D01*
X143494375Y-115345001D02*
X138795000Y-120044376D01*
X138550000Y-120550000D02*
X138550000Y-122100000D01*
X138795000Y-120044376D02*
X138795000Y-120305000D01*
X138795000Y-120305000D02*
X138550000Y-120550000D01*
G04 #@! TO.N,/MCU-IO/IO_Gate*
X145436635Y-114633400D02*
X145436635Y-114263365D01*
X145436635Y-114263365D02*
X147900000Y-111800000D01*
X147900000Y-111800000D02*
X147900000Y-109900000D01*
G04 #@! TO.N,/MCU-IO/BZ1*
X153050000Y-127500000D02*
X153726000Y-126824000D01*
X148500000Y-127500000D02*
X153050000Y-127500000D01*
X153726000Y-126824000D02*
X173828000Y-126824000D01*
D31*
G04 #@! TO.N,3V3*
X180644800Y-109169200D02*
X176987200Y-109169200D01*
X176987200Y-109169200D02*
X176733200Y-108915200D01*
G04 #@! TO.N,/MCU-IO/VBAT_VBUS*
X162153600Y-113944400D02*
X155356400Y-107147200D01*
X155356400Y-107147200D02*
X155356400Y-106584842D01*
X169265600Y-113944400D02*
X162153600Y-113944400D01*
D30*
G04 #@! TO.N,/SWCLK*
X139450000Y-112650000D02*
X139450000Y-111750000D01*
X139450000Y-111750000D02*
X165750000Y-85450000D01*
X165750000Y-85450000D02*
X193650000Y-85450000D01*
X193650000Y-85450000D02*
X196050000Y-87850000D01*
G04 #@! TO.N,/SWDIO*
X172200000Y-109150000D02*
X173650000Y-107700000D01*
X186900000Y-107700000D02*
X194500000Y-100100000D01*
X194500000Y-100100000D02*
X194500000Y-94250000D01*
X199950000Y-88800000D02*
X199950000Y-86650000D01*
X173650000Y-107700000D02*
X186900000Y-107700000D01*
X194500000Y-94250000D02*
X199950000Y-88800000D01*
G04 #@! TO.N,/Power-DCDC-Charger-Battery/DC_EN_CTL*
X117550000Y-101950000D02*
X112400000Y-107100000D01*
X112400000Y-107100000D02*
X111900000Y-107100000D01*
X119650000Y-101950000D02*
X117550000Y-101950000D01*
X123800000Y-97800000D02*
X119650000Y-101950000D01*
G04 #@! TO.N,/Power-DCDC-Charger-Battery/DC_FB*
X121300000Y-95700000D02*
X121300000Y-96050000D01*
X121300000Y-96050000D02*
X116600000Y-100750000D01*
X116600000Y-100750000D02*
X115200000Y-100750000D01*
X115200000Y-100750000D02*
X111950000Y-104000000D01*
D32*
G04 #@! TO.N,Net-(Q2-D)*
X142713000Y-77214000D02*
X136487000Y-83440000D01*
X136487000Y-83440000D02*
X125850000Y-83440000D01*
G04 #@! TO.N,/Power-DCDC-Charger-Battery/COUT*
X118922800Y-71780400D02*
X118922800Y-73101200D01*
X118922800Y-73101200D02*
X122377200Y-76555600D01*
X134392000Y-82360000D02*
X139538000Y-77214000D01*
X127770000Y-82360000D02*
X134392000Y-82360000D01*
D33*
G04 #@! TO.N,Net-(BT1-+)*
X107848400Y-62326100D02*
X109603000Y-60571500D01*
X107848400Y-86059400D02*
X107848400Y-62326100D01*
X109653000Y-87864000D02*
X107848400Y-86059400D01*
D30*
G04 #@! TO.N,/MCU-IO/BTN_A_Sense*
X138500000Y-134286500D02*
X138563500Y-134350000D01*
X138500000Y-126640500D02*
X138500000Y-134286500D01*
D32*
G04 #@! TO.N,/MCU-IO/ADC0*
X134036273Y-113086273D02*
X138472546Y-108650000D01*
X138472546Y-108650000D02*
X141400000Y-108650000D01*
G04 #@! TO.N,/RTC/INT_G*
X156400000Y-102500000D02*
X163900000Y-95000000D01*
X158000000Y-107100000D02*
X158650000Y-107100000D01*
X158650000Y-107100000D02*
X159300000Y-107750000D01*
X159300000Y-107750000D02*
X159300000Y-109900000D01*
X163900000Y-95000000D02*
X163900000Y-94500000D01*
G04 #@! TO.N,Net-(D10-A)*
X156000000Y-111150000D02*
X157013999Y-112163999D01*
X156000000Y-109500000D02*
X156000000Y-111150000D01*
X157013999Y-112163999D02*
X157286001Y-112163999D01*
D29*
G04 #@! TO.N,/Power-DCDC-Charger-Battery/Batt+*
X111700000Y-94700000D02*
X111979000Y-94421000D01*
X109169200Y-73863200D02*
X109169200Y-67310000D01*
X111979000Y-94421000D02*
X111979000Y-76673000D01*
X109169200Y-67310000D02*
X108762800Y-66903600D01*
X111979000Y-76673000D02*
X109169200Y-73863200D01*
D30*
G04 #@! TO.N,/MCU-IO/UART0_Rx*
X134735534Y-125000000D02*
X134525083Y-124789549D01*
X143120402Y-125000000D02*
X134735534Y-125000000D01*
X153416000Y-114704402D02*
X143120402Y-125000000D01*
X201133000Y-94060000D02*
X180488598Y-114704402D01*
X180488598Y-114704402D02*
X153416000Y-114704402D01*
G04 #@! TO.N,/MCU-IO/UART0_Tx*
X201133000Y-99140000D02*
X199360000Y-99140000D01*
X182600000Y-115900000D02*
X153450000Y-115900000D01*
X153450000Y-115900000D02*
X143950000Y-125400000D01*
X143950000Y-125400000D02*
X134618723Y-125400000D01*
X199360000Y-99140000D02*
X182600000Y-115900000D01*
D32*
G04 #@! TO.N,1V1*
X126360000Y-120080000D02*
X126360000Y-120470000D01*
X128390000Y-118050000D02*
X126360000Y-120080000D01*
D30*
G04 #@! TO.N,/MCU-IO/ADC2*
X194569000Y-117800000D02*
X201320400Y-111048600D01*
X137025000Y-115575000D02*
X136110000Y-114660000D01*
X159900000Y-116564600D02*
X160681400Y-117346000D01*
X131043000Y-114660000D02*
X130937000Y-114554000D01*
X201320400Y-111048600D02*
X201320400Y-109474000D01*
X137025000Y-115575000D02*
X136925000Y-115575000D01*
X136110000Y-114660000D02*
X131043000Y-114660000D01*
X163155210Y-117346000D02*
X163609210Y-117800000D01*
X163609210Y-117800000D02*
X194569000Y-117800000D01*
X160681400Y-117346000D02*
X163155210Y-117346000D01*
G04 #@! TO.N,/MCU-IO/ADC3*
X135975000Y-113750000D02*
X136700000Y-114475000D01*
X189214400Y-116500000D02*
X201320400Y-104394000D01*
X130454400Y-113842800D02*
X133203844Y-113842800D01*
X137225000Y-114497962D02*
X137225000Y-114475000D01*
X133296644Y-113750000D02*
X135975000Y-113750000D01*
X161000000Y-116500000D02*
X189214400Y-116500000D01*
X129993781Y-114296581D02*
X130000619Y-114296581D01*
X130000619Y-114296581D02*
X130454400Y-113842800D01*
X136700000Y-114475000D02*
X137225000Y-114475000D01*
X133203844Y-113842800D02*
X133296644Y-113750000D01*
G04 #@! TO.N,/MCU-IO/IO21*
X134503574Y-123246426D02*
X133900500Y-123849500D01*
X134987736Y-125939619D02*
X139739619Y-125939619D01*
X133900500Y-124976552D02*
X133770416Y-125106636D01*
X202822000Y-130882904D02*
X202822000Y-130178000D01*
X202822000Y-130178000D02*
X201168000Y-128524000D01*
X201142404Y-132562500D02*
X202822000Y-130882904D01*
X133770416Y-125106636D02*
X133770416Y-125842786D01*
X147200000Y-133400000D02*
X195100000Y-133400000D01*
X195937500Y-132562500D02*
X201142404Y-132562500D01*
X139739619Y-125939619D02*
X147200000Y-133400000D01*
X133900500Y-123849500D02*
X133900500Y-124976552D01*
X134503574Y-115590019D02*
X134503574Y-123246426D01*
X195100000Y-133400000D02*
X195937500Y-132562500D01*
X133770416Y-125842786D02*
X134104630Y-126177000D01*
X134104630Y-126177000D02*
X134750355Y-126177000D01*
X134750355Y-126177000D02*
X134987736Y-125939619D01*
G04 #@! TO.N,/MCU-IO/IO4*
X131650000Y-122500000D02*
X132325666Y-123175666D01*
X133433962Y-127696000D02*
X134996000Y-127696000D01*
X132325666Y-123175666D02*
X132325666Y-126316456D01*
X195613870Y-129313870D02*
X195750000Y-129450000D01*
X132404000Y-126666038D02*
X133433962Y-127696000D01*
X132404000Y-126394790D02*
X132404000Y-126666038D01*
X134996000Y-127696000D02*
X135950000Y-128650000D01*
X195750000Y-129450000D02*
X197014000Y-129450000D01*
X132325666Y-126316456D02*
X132404000Y-126394790D01*
X149694763Y-129313870D02*
X195613870Y-129313870D01*
X197014000Y-129450000D02*
X198628000Y-131064000D01*
G04 #@! TO.N,/MCU-IO/IO22*
X134071811Y-115126519D02*
X134695562Y-115126519D01*
X134323301Y-125923000D02*
X134645145Y-125923000D01*
X134118666Y-125718365D02*
X134323301Y-125923000D01*
X148501876Y-132562500D02*
X148694376Y-132755000D01*
X134118666Y-125117596D02*
X134118666Y-125718365D01*
X153132876Y-132941500D02*
X153391500Y-132682876D01*
X140285619Y-125685619D02*
X147162500Y-132562500D01*
X134645145Y-125923000D02*
X134883526Y-125684619D01*
X139846243Y-125685619D02*
X140285619Y-125685619D01*
X152767124Y-132941500D02*
X153132876Y-132941500D01*
X148694376Y-132755000D02*
X152580624Y-132755000D01*
X153391500Y-132682876D02*
X153391500Y-132562500D01*
X153391500Y-132562500D02*
X173022885Y-132562500D01*
X134154500Y-123954710D02*
X134154500Y-125081762D01*
X134883526Y-125684619D02*
X139845243Y-125684619D01*
X147162500Y-132562500D02*
X148501876Y-132562500D01*
X134014201Y-115184129D02*
X134071811Y-115126519D01*
X173375885Y-132915500D02*
X174280115Y-132915500D01*
X152580624Y-132755000D02*
X152767124Y-132941500D01*
X134154500Y-125081762D02*
X134118666Y-125117596D01*
X173022885Y-132562500D02*
X173375885Y-132915500D01*
X134950000Y-115380957D02*
X134950000Y-123159210D01*
X134695562Y-115126519D02*
X134950000Y-115380957D01*
X174280115Y-132915500D02*
X174945615Y-132250000D01*
X134950000Y-123159210D02*
X134154500Y-123954710D01*
X139845243Y-125684619D02*
X139846243Y-125685619D01*
X174945615Y-132250000D02*
X199982000Y-132250000D01*
X199982000Y-132250000D02*
X201168000Y-131064000D01*
G04 #@! TO.N,/MCU-IO/IO2*
X132693981Y-128506019D02*
X134256019Y-128506019D01*
X131684457Y-127442000D02*
X131684457Y-127496495D01*
X131684457Y-127496495D02*
X132693981Y-128506019D01*
X131550000Y-124649254D02*
X131550000Y-127303543D01*
X131306200Y-124405454D02*
X131550000Y-124649254D01*
X131550000Y-127303543D02*
X131686457Y-127440000D01*
D29*
X187700000Y-120150000D02*
X177700374Y-120150000D01*
D30*
X131686457Y-127440000D02*
X131684457Y-127442000D01*
X150229540Y-130150374D02*
X167700000Y-130150374D01*
X134256019Y-128506019D02*
X135800000Y-130050000D01*
X135800000Y-130050000D02*
X137600000Y-130050000D01*
G04 #@! TO.N,/MCU-IO/IO14*
X150200000Y-124650000D02*
X150950000Y-123900000D01*
X195750000Y-121750000D02*
X195750000Y-122900000D01*
X201168000Y-118364000D02*
X199669500Y-119862500D01*
X193850000Y-123900000D02*
X193950000Y-123900000D01*
X197637500Y-119862500D02*
X195750000Y-121750000D01*
X150950000Y-123900000D02*
X193850000Y-123900000D01*
X199669500Y-119862500D02*
X197637500Y-119862500D01*
G04 #@! TO.N,/MCU-IO/IO9*
X197200000Y-125800000D02*
X197000000Y-126000000D01*
X184782500Y-125732500D02*
X150967500Y-125732500D01*
X195743961Y-128094000D02*
X187144000Y-128094000D01*
X197000000Y-126837961D02*
X195743961Y-128094000D01*
X150967500Y-125732500D02*
X150130387Y-126569613D01*
X197000000Y-126000000D02*
X197000000Y-126837961D01*
X187144000Y-128094000D02*
X184782500Y-125732500D01*
G04 #@! TO.N,/MCU-IO/IO3*
X180864310Y-129764310D02*
X181000000Y-129900000D01*
X131940457Y-127390457D02*
X132500000Y-127950000D01*
X149911802Y-129764310D02*
X180864310Y-129764310D01*
X132500000Y-127950000D02*
X134450000Y-127950000D01*
X135300000Y-128400000D02*
X135300000Y-128550000D01*
X131940457Y-124679937D02*
X131940457Y-127390457D01*
X134850000Y-127950000D02*
X135300000Y-128400000D01*
X134450000Y-127950000D02*
X134850000Y-127950000D01*
X185150000Y-129900000D02*
X185250000Y-129800000D01*
X181000000Y-129900000D02*
X185150000Y-129900000D01*
X135300000Y-128550000D02*
X135250000Y-128550000D01*
G04 #@! TO.N,/MCU-IO/IO5*
X133896000Y-127046000D02*
X135255210Y-127046000D01*
X198216000Y-125984000D02*
X198628000Y-125984000D01*
X135255210Y-127046000D02*
X135259210Y-127050000D01*
X195850000Y-128350000D02*
X198216000Y-125984000D01*
X132350000Y-122350000D02*
X133008416Y-123008416D01*
X133008416Y-124791006D02*
X133008416Y-126158416D01*
X133008416Y-123008416D02*
X133008416Y-124158994D01*
X133138500Y-124289078D02*
X133138500Y-124660922D01*
X133008416Y-124158994D02*
X133138500Y-124289078D01*
X135550000Y-127050000D02*
X136700000Y-128200000D01*
X133138500Y-124660922D02*
X133008416Y-124791006D01*
X135259210Y-127050000D02*
X135550000Y-127050000D01*
X149750000Y-128350000D02*
X195850000Y-128350000D01*
X133008416Y-126158416D02*
X133896000Y-127046000D01*
D32*
G04 #@! TO.N,/Power-DCDC-Charger-Battery/STAT*
X151090000Y-79241000D02*
X151090000Y-81050000D01*
X144610000Y-83000000D02*
X146560000Y-81050000D01*
X145888000Y-74039000D02*
X151090000Y-79241000D01*
X146560000Y-81050000D02*
X151090000Y-81050000D01*
D31*
G04 #@! TO.N,/TM1638_Display/VDD_SEL*
X187150000Y-81000000D02*
X171700000Y-81000000D01*
X171700000Y-81000000D02*
X170265000Y-81000000D01*
X187300000Y-80850000D02*
X187150000Y-81000000D01*
D32*
G04 #@! TO.N,/TM1638_Display/CLK_Out*
X185350000Y-79850000D02*
X196053000Y-69147000D01*
X196053000Y-69147000D02*
X196053000Y-68324000D01*
D29*
X198593000Y-68324000D02*
X196053000Y-68324000D01*
D32*
X167650000Y-82700000D02*
X167650000Y-79850000D01*
X167650000Y-79850000D02*
X185350000Y-79850000D01*
G04 #@! TO.N,/TM1638_Display/DIO_Out*
X196053000Y-75747000D02*
X196053000Y-70864000D01*
D29*
X198593000Y-70864000D02*
X196053000Y-70864000D01*
D32*
X170900000Y-84650000D02*
X170950000Y-84700000D01*
X187100000Y-84700000D02*
X196053000Y-75747000D01*
X170950000Y-84700000D02*
X187100000Y-84700000D01*
D30*
G04 #@! TO.N,/MCU-IO/DISP_DIO*
X145224376Y-115600000D02*
X143600000Y-115600000D01*
X169000000Y-90700000D02*
X149655000Y-110045000D01*
X139050000Y-120150000D02*
X139050000Y-122650000D01*
X143600000Y-115600000D02*
X139050000Y-120150000D01*
X149655000Y-110045000D02*
X149655000Y-111169376D01*
X149655000Y-111169376D02*
X145224376Y-115600000D01*
X139050000Y-122650000D02*
X137300000Y-124400000D01*
X169000000Y-88300000D02*
X169000000Y-90700000D01*
X137300000Y-124400000D02*
X136750000Y-124400000D01*
D32*
G04 #@! TO.N,/TM1638_Display/STB_Out*
X196053000Y-65787000D02*
X196053000Y-65784000D01*
D29*
X198593000Y-65784000D02*
X196053000Y-65784000D01*
D32*
X164450000Y-80600000D02*
X166100000Y-78950000D01*
X184760000Y-78950000D02*
X194620000Y-69090000D01*
X164450000Y-84052000D02*
X164450000Y-80600000D01*
X166100000Y-78950000D02*
X184760000Y-78950000D01*
X194620000Y-69090000D02*
X194620000Y-67220000D01*
X194620000Y-67220000D02*
X196053000Y-65787000D01*
D30*
G04 #@! TO.N,/RTC/INT_CLKOUT*
X161000000Y-107601000D02*
X161000000Y-104300000D01*
X163903000Y-110504000D02*
X161000000Y-107601000D01*
D29*
G04 #@! TO.N,/MCU-IO/BZ2_P*
X152600000Y-127900000D02*
X149600000Y-127900000D01*
X149100000Y-128400000D02*
X148950000Y-128550000D01*
X148950000Y-128550000D02*
X146100000Y-128550000D01*
X149600000Y-127900000D02*
X149100000Y-128400000D01*
D30*
G04 #@! TO.N,/MCU-IO/BZ2_N*
X150188500Y-127111500D02*
X150150000Y-127111500D01*
D32*
X153029000Y-126121000D02*
X153149711Y-126121000D01*
X150188500Y-127111500D02*
X152038500Y-127111500D01*
X152038500Y-127111500D02*
X153029000Y-126121000D01*
G04 #@! TO.N,/MCU-IO/ADC1*
X132211900Y-113177500D02*
X133100900Y-113177500D01*
X132080000Y-113309400D02*
X132211900Y-113177500D01*
X140309600Y-101904800D02*
X140309600Y-100736400D01*
X140512800Y-105765600D02*
X140512800Y-102108000D01*
X144830800Y-100736400D02*
X146304000Y-102209600D01*
X140309600Y-100736400D02*
X144830800Y-100736400D01*
X133100900Y-113177500D02*
X140512800Y-105765600D01*
X140512800Y-102108000D02*
X140309600Y-101904800D01*
D30*
G04 #@! TO.N,/MCU-IO/IO_Gate*
X149000000Y-98050000D02*
X148500000Y-98550000D01*
X145100000Y-140350000D02*
X145400000Y-140350000D01*
X148500000Y-101900000D02*
X148400000Y-101900000D01*
X143800000Y-139050000D02*
X145100000Y-140350000D01*
X148400000Y-101900000D02*
X148300000Y-101800000D01*
X145400000Y-140350000D02*
X146400000Y-141350000D01*
X148500000Y-98550000D02*
X148500000Y-101900000D01*
G04 #@! TO.N,/MCU-IO/BTN_B_Sense*
X133516416Y-122797996D02*
X133516416Y-123848574D01*
X134838808Y-126447757D02*
X135086565Y-126200000D01*
X132880000Y-115550000D02*
X132675451Y-115754549D01*
X126530393Y-115754549D02*
X121792000Y-111016156D01*
X133260000Y-117702759D02*
X133260000Y-122541580D01*
X133200000Y-115870000D02*
X133200000Y-117010693D01*
X133646500Y-123978658D02*
X133646500Y-124871342D01*
X133250000Y-96430000D02*
X133470000Y-96430000D01*
X133470000Y-96430000D02*
X133480000Y-96420000D01*
X133516416Y-125001426D02*
X133516416Y-125947996D01*
X133516416Y-123848574D02*
X133646500Y-123978658D01*
X121792000Y-111016156D02*
X121792000Y-105747444D01*
X133000000Y-96180000D02*
X133250000Y-96430000D01*
X156048000Y-142848000D02*
X156048000Y-145159000D01*
X133200000Y-117010693D02*
X133105323Y-117105370D01*
X133105323Y-117548082D02*
X133260000Y-117702759D01*
X135086565Y-126200000D02*
X139400000Y-126200000D01*
X131359444Y-96180000D02*
X133000000Y-96180000D01*
X133260000Y-122541580D02*
X133516416Y-122797996D01*
X133516416Y-125947996D02*
X134016177Y-126447757D01*
X134016177Y-126447757D02*
X134838808Y-126447757D01*
X133105323Y-117105370D02*
X133105323Y-117548082D01*
X132675451Y-115754549D02*
X126530393Y-115754549D01*
X121792000Y-105747444D02*
X131359444Y-96180000D01*
X139400000Y-126200000D02*
X156048000Y-142848000D01*
X132880000Y-115550000D02*
X133200000Y-115870000D01*
X133646500Y-124871342D02*
X133516416Y-125001426D01*
G04 #@! TO.N,Net-(R23-Pad1)*
X145500000Y-134700000D02*
X150350000Y-139550000D01*
X164938000Y-140369000D02*
X171438000Y-140369000D01*
X150350000Y-139550000D02*
X151850000Y-139550000D01*
D29*
G04 #@! TO.N,/MCU-IO/QSPI_SS*
X130741039Y-125289271D02*
X130271689Y-125758621D01*
X130741039Y-122506675D02*
X130741039Y-125289271D01*
X130271689Y-125758621D02*
X130271689Y-126249797D01*
X130814857Y-122432857D02*
X130741039Y-122506675D01*
X130810000Y-130683000D02*
X133121400Y-130683000D01*
X130271689Y-126249797D02*
X130810000Y-126788108D01*
X130810000Y-130683000D02*
X129286000Y-132207000D01*
X129032000Y-132461000D02*
X128905000Y-132461000D01*
X130810000Y-126788108D02*
X130810000Y-130683000D01*
X129286000Y-132207000D02*
X129032000Y-132461000D01*
X133121400Y-130683000D02*
X133146800Y-130657600D01*
D30*
G04 #@! TO.N,/MCU-IO/~{Reset}*
X137600000Y-118958512D02*
X137600000Y-118375391D01*
X137600000Y-118375391D02*
X137297609Y-118073000D01*
X148800000Y-132500000D02*
X152950000Y-132500000D01*
X137713500Y-119072012D02*
X137600000Y-118958512D01*
X137600000Y-119569488D02*
X137713500Y-119455988D01*
X137600000Y-122604500D02*
X137600000Y-119569488D01*
X143100000Y-126800000D02*
X148800000Y-132500000D01*
X175658000Y-144869000D02*
X182158000Y-144869000D01*
X137713500Y-119455988D02*
X137713500Y-119072012D01*
X137300000Y-122904500D02*
X137600000Y-122604500D01*
D32*
G04 #@! TO.N,/MCU-IO/ADC1_VSW_In*
X119684800Y-131611200D02*
X112487000Y-138809000D01*
X119684800Y-116027200D02*
X119684800Y-131611200D01*
D30*
G04 #@! TO.N,/MCU-IO/IO25_LED*
X131049011Y-116799011D02*
X131700000Y-117450000D01*
X127780989Y-116799011D02*
X131049011Y-116799011D01*
X126170000Y-118410000D02*
X127780989Y-116799011D01*
D32*
G04 #@! TO.N,/MCU-IO/ADC0_VUSB_In*
X141020800Y-98755200D02*
X145592800Y-98755200D01*
X139446000Y-100330000D02*
X139801600Y-99974400D01*
X139446000Y-103987600D02*
X139446000Y-100330000D01*
X138938000Y-104495600D02*
X139446000Y-103987600D01*
X137718800Y-104495600D02*
X138938000Y-104495600D01*
X131927600Y-103873300D02*
X131914900Y-103886000D01*
X131914900Y-103886000D02*
X124409200Y-103886000D01*
X118262400Y-117906800D02*
X118110000Y-118059200D01*
X118262400Y-116382800D02*
X118262400Y-117906800D01*
X139801600Y-99974400D02*
X141020800Y-98755200D01*
X124409200Y-103886000D02*
X122732800Y-105562400D01*
X145592800Y-98755200D02*
X145592800Y-96215200D01*
X145592800Y-96215200D02*
X146405600Y-95402400D01*
D30*
G04 #@! TO.N,/MCU-IO/DCDC_EN*
X133262416Y-124896216D02*
X133262416Y-126053206D01*
X133392500Y-124083868D02*
X133392500Y-124766132D01*
X132350000Y-117600000D02*
X132350000Y-121700000D01*
X132350000Y-121700000D02*
X132738500Y-122088500D01*
X133392500Y-124766132D02*
X133262416Y-124896216D01*
X132738500Y-122379290D02*
X133262416Y-122903206D01*
X142503213Y-136550000D02*
X149698000Y-143744787D01*
X131770000Y-97090000D02*
X132210000Y-96650000D01*
X133910967Y-126701757D02*
X135951757Y-126701757D01*
X133262416Y-122903206D02*
X133262416Y-123953784D01*
X132738500Y-122088500D02*
X132738500Y-122379290D01*
X138525624Y-136550000D02*
X142503213Y-136550000D01*
X138100000Y-136124376D02*
X138525624Y-136550000D01*
X138100000Y-128850000D02*
X138100000Y-136124376D01*
X135951757Y-126701757D02*
X138100000Y-128850000D01*
X133262416Y-126053206D02*
X133910967Y-126701757D01*
X133320000Y-103770000D02*
X131770000Y-102220000D01*
X133262416Y-123953784D02*
X133392500Y-124083868D01*
X133320000Y-105640000D02*
X133320000Y-103770000D01*
X131770000Y-102220000D02*
X131770000Y-97090000D01*
X132450000Y-117500000D02*
X132350000Y-117600000D01*
X149698000Y-143744787D02*
X149698000Y-145159000D01*
D29*
G04 #@! TO.N,/MCU-IO/QSPI_SD1*
X128651000Y-122174000D02*
X125984000Y-124841000D01*
X126111000Y-130810000D02*
X125984000Y-130683000D01*
X126111000Y-131064000D02*
X126111000Y-130810000D01*
X125984000Y-124841000D02*
X125984000Y-130683000D01*
G04 #@! TO.N,/MCU-IO/QSPI_CLK*
X128442000Y-120478000D02*
X122047000Y-126873000D01*
X130257000Y-120478000D02*
X128442000Y-120478000D01*
G04 #@! TO.N,/MCU-IO/QSPI_SD0*
X120269000Y-127508000D02*
X120269000Y-127762000D01*
X130683000Y-120777000D02*
X130683000Y-120301545D01*
X127889000Y-119888000D02*
X120269000Y-127508000D01*
X130429000Y-121031000D02*
X130683000Y-120777000D01*
X130269455Y-119888000D02*
X127889000Y-119888000D01*
X130683000Y-120301545D02*
X130269455Y-119888000D01*
G04 #@! TO.N,/MCU-IO/QSPI_SD3*
X124587000Y-129159000D02*
X122682000Y-131064000D01*
X128651000Y-121412000D02*
X124587000Y-125476000D01*
X124587000Y-125476000D02*
X124587000Y-129159000D01*
X122682000Y-131064000D02*
X121539000Y-131064000D01*
X128651000Y-120904000D02*
X128651000Y-121412000D01*
D32*
G04 #@! TO.N,/Power-DCDC-Charger-Battery/DOUT*
X117246400Y-79197200D02*
X117195600Y-79248000D01*
X117246400Y-71932800D02*
X117246400Y-79197200D01*
X119430000Y-80270000D02*
X119320000Y-80380000D01*
X119580000Y-80270000D02*
X119430000Y-80270000D01*
X133188000Y-77214000D02*
X130132000Y-80270000D01*
X130132000Y-80270000D02*
X119580000Y-80270000D01*
G04 #@! TO.N,Net-(JP11-A)*
X125095000Y-93345000D02*
X125095000Y-95758000D01*
X121666000Y-89916000D02*
X125095000Y-93345000D01*
D30*
G04 #@! TO.N,/MCU-IO/RTC_INT_GPIN0*
X166300000Y-95100000D02*
X166200000Y-95000000D01*
X166300000Y-105100000D02*
X166300000Y-95100000D01*
D31*
G04 #@! TO.N,/Power-DCDC-Charger-Battery/VBAT*
X129810800Y-106460000D02*
X134690000Y-106460000D01*
X125476000Y-110794800D02*
X129810800Y-106460000D01*
X141122400Y-97536000D02*
X141427200Y-97231200D01*
D32*
X118860300Y-129260700D02*
X112487000Y-135634000D01*
D31*
X138937000Y-100119165D02*
X140809966Y-98246200D01*
X146050000Y-94030800D02*
X155397900Y-94030800D01*
X122326400Y-110794800D02*
X125476000Y-110794800D01*
X142849600Y-97231200D02*
X146050000Y-94030800D01*
D33*
X110439200Y-74079200D02*
X110439200Y-71323200D01*
X135788400Y-97231200D02*
X126339600Y-87782400D01*
D31*
X140809966Y-98240034D02*
X141122400Y-97927600D01*
D32*
X118860300Y-114413300D02*
X118860300Y-129260700D01*
X121056400Y-112217200D02*
X118860300Y-114413300D01*
D31*
X138937000Y-102213000D02*
X138937000Y-100119165D01*
D33*
X126339600Y-87782400D02*
X124142400Y-87782400D01*
D31*
X140809966Y-98246200D02*
X140809966Y-98240034D01*
D33*
X124142400Y-87782400D02*
X110439200Y-74079200D01*
X141427200Y-97231200D02*
X135788400Y-97231200D01*
D31*
X134690000Y-106460000D02*
X138937000Y-102213000D01*
X141427200Y-97231200D02*
X142849600Y-97231200D01*
X141122400Y-97927600D02*
X141122400Y-97536000D01*
D30*
G04 #@! TO.N,/MCU-IO/IO16*
X168696000Y-123246000D02*
X195305210Y-123246000D01*
X153050000Y-117600000D02*
X163050000Y-117600000D01*
X196566258Y-124507048D02*
X199691048Y-124507048D01*
X199691048Y-124507048D02*
X201168000Y-125984000D01*
X137510090Y-117100000D02*
X137156719Y-117453371D01*
X140100000Y-117100000D02*
X137510090Y-117100000D01*
X163050000Y-117600000D02*
X168696000Y-123246000D01*
X149750000Y-117250000D02*
X142650000Y-117250000D01*
X195305210Y-123246000D02*
X196566258Y-124507048D01*
G04 #@! TO.N,/MCU-IO/IO15*
X196395548Y-124895548D02*
X196555029Y-124895548D01*
X150850000Y-123500000D02*
X195000000Y-123500000D01*
X150175289Y-124125289D02*
X150224711Y-124125289D01*
X150224711Y-124125289D02*
X150850000Y-123500000D01*
X195000000Y-123500000D02*
X196395548Y-124895548D01*
G04 #@! TO.N,/MCU-IO/I2C_SCL*
X154800000Y-105700000D02*
X157200000Y-103300000D01*
X144600000Y-116000000D02*
X143813500Y-116786500D01*
X148900000Y-116000000D02*
X144600000Y-116000000D01*
X154800000Y-108300000D02*
X154800000Y-105700000D01*
X152400000Y-112500000D02*
X148900000Y-116000000D01*
X143813500Y-116786500D02*
X143598795Y-116786500D01*
X153200000Y-112500000D02*
X152400000Y-112500000D01*
X154800000Y-108300000D02*
X155100000Y-108600000D01*
X155100000Y-108600000D02*
X155100000Y-110600000D01*
X155100000Y-110600000D02*
X153200000Y-112500000D01*
X157200000Y-103300000D02*
X157300000Y-103300000D01*
G04 #@! TO.N,/MCU-IO/I2C_SDA*
X155600000Y-102200000D02*
X155600000Y-102000000D01*
X149400000Y-108400000D02*
X155600000Y-102200000D01*
X148400000Y-111800000D02*
X149400000Y-110800000D01*
X149400000Y-110800000D02*
X149400000Y-108400000D01*
D29*
G04 #@! TO.N,/TM1638_Display/SEG_C*
X182500000Y-66150000D02*
X183061000Y-66711000D01*
D30*
X179000000Y-77700000D02*
X179908000Y-77700000D01*
X181500000Y-98350000D02*
X181500000Y-91350000D01*
X178650000Y-78050000D02*
X179000000Y-77700000D01*
D29*
X183061000Y-72189000D02*
X182250000Y-73000000D01*
D30*
X179908000Y-77700000D02*
X182083000Y-75525000D01*
D29*
X183061000Y-66711000D02*
X183061000Y-72189000D01*
D30*
X181500000Y-91350000D02*
X178650000Y-88500000D01*
G04 #@! TO.N,/TM1638_Display/SEG_G*
X180750000Y-86850000D02*
X185050000Y-91150000D01*
X185050000Y-91150000D02*
X185050000Y-94900000D01*
X180146000Y-86850000D02*
X180750000Y-86850000D01*
G04 #@! TO.N,/TM1638_Display/SEG_F*
X174900000Y-94400000D02*
X183550000Y-103050000D01*
X174900000Y-86100000D02*
X174900000Y-94400000D01*
D29*
G04 #@! TO.N,/TM1638_Display/SEG_D*
X183950000Y-62750000D02*
X173174000Y-62750000D01*
D30*
X184950000Y-98350000D02*
X193250000Y-90050000D01*
X186600000Y-76250000D02*
X185348000Y-76250000D01*
D29*
X186050000Y-67350000D02*
X186050000Y-74098000D01*
X186050000Y-74098000D02*
X184623000Y-75525000D01*
X184200000Y-62500000D02*
X183950000Y-62750000D01*
X173174000Y-62750000D02*
X171923000Y-64001000D01*
D30*
X185348000Y-76250000D02*
X184623000Y-75525000D01*
X182800000Y-98350000D02*
X184950000Y-98350000D01*
G04 #@! TO.N,/TM1638_Display/SEG_DX*
X178191500Y-86700000D02*
X178200000Y-86700000D01*
X187491500Y-98791500D02*
X187850000Y-99150000D01*
X182617124Y-98791500D02*
X187491500Y-98791500D01*
X178200000Y-86700000D02*
X182358500Y-90858500D01*
X182358500Y-90858500D02*
X182358500Y-98532876D01*
X182358500Y-98532876D02*
X182617124Y-98791500D01*
D29*
G04 #@! TO.N,/TM1638_Display/SEG_DPX*
X186500000Y-91750000D02*
X180800000Y-86050000D01*
X175750000Y-86050000D02*
X175600000Y-85900000D01*
X180800000Y-86050000D02*
X175750000Y-86050000D01*
X186500000Y-96150000D02*
X186500000Y-91750000D01*
D30*
G04 #@! TO.N,/TM1638_Display/SEG_E*
X177750000Y-95300000D02*
X181800000Y-99350000D01*
X177750000Y-88300000D02*
X177750000Y-95300000D01*
X181800000Y-99350000D02*
X182900000Y-99350000D01*
D32*
G04 #@! TO.N,/TM1638_Display/Dig_6*
X175404500Y-68854500D02*
X175404500Y-68846500D01*
X178200000Y-70050000D02*
X176600000Y-70050000D01*
X183450000Y-76000000D02*
X183450000Y-75300000D01*
X184579448Y-77129448D02*
X183450000Y-76000000D01*
X176600000Y-70050000D02*
X175404500Y-68854500D01*
X183450000Y-75300000D02*
X178200000Y-70050000D01*
X175404500Y-68846500D02*
X174463000Y-67905000D01*
G04 #@! TO.N,/TM1638_Display/Dig_8*
X182900000Y-90300000D02*
X182250000Y-89650000D01*
X182900000Y-92100000D02*
X182900000Y-90300000D01*
X184050000Y-93250000D02*
X182900000Y-92100000D01*
G04 #@! TO.N,/TM1638_Display/Dig_7*
X179750000Y-81850000D02*
X179700000Y-81900000D01*
X185900000Y-81850000D02*
X179750000Y-81850000D01*
D30*
G04 #@! TO.N,/MCU-IO/IO6*
X149950000Y-128800000D02*
X195750000Y-128800000D01*
X133750000Y-127300000D02*
X135150000Y-127300000D01*
X135150000Y-127300000D02*
X136650000Y-128800000D01*
X132700000Y-124400000D02*
X132700000Y-126250000D01*
X195900000Y-128950000D02*
X198202000Y-128950000D01*
X132700000Y-126250000D02*
X133750000Y-127300000D01*
X198202000Y-128950000D02*
X198628000Y-128524000D01*
X195750000Y-128800000D02*
X195900000Y-128950000D01*
X136650000Y-128800000D02*
X136700000Y-128800000D01*
G04 #@! TD*
M02*
