G04 #@! TF.GenerationSoftware,KiCad,Pcbnew,9.0.4-9.0.4-0~ubuntu24.04.1*
G04 #@! TF.CreationDate,2026-02-08T13:12:23+09:00*
G04 #@! TF.ProjectId,10k-Hour-Timer-RP2040,31306b2d-486f-4757-922d-54696d65722d,rev?*
G04 #@! TF.SameCoordinates,Original*
G04 #@! TF.FileFunction,Soldermask,Bot*
G04 #@! TF.FilePolarity,Negative*
%FSLAX46Y46*%
G04 Gerber Fmt 4.6, Leading zero omitted, Abs format (unit mm)*
G04 Created by KiCad (PCBNEW 9.0.4-9.0.4-0~ubuntu24.04.1) date 2026-02-08 13:12:23*
%MOMM*%
%LPD*%
G01*
G04 APERTURE LIST*
G04 APERTURE END LIST*
G36*
X108045896Y-143119032D02*
G01*
X108056697Y-143119032D01*
X108120815Y-143127473D01*
X108296633Y-143147283D01*
X108331180Y-143155168D01*
X108361462Y-143159155D01*
X108435137Y-143178896D01*
X108553540Y-143205921D01*
X108610890Y-143225988D01*
X108658383Y-143238714D01*
X108718917Y-143263788D01*
X108802275Y-143292956D01*
X108881855Y-143331279D01*
X108942378Y-143356349D01*
X108984940Y-143380922D01*
X109039696Y-143407291D01*
X109142533Y-143471908D01*
X109208590Y-143510046D01*
X109232828Y-143528644D01*
X109262833Y-143547498D01*
X109401136Y-143657791D01*
X109452463Y-143697176D01*
X109460104Y-143704817D01*
X109468864Y-143711803D01*
X109655196Y-143898135D01*
X109662181Y-143906894D01*
X109669824Y-143914537D01*
X109709213Y-143965870D01*
X109819501Y-144104166D01*
X109838353Y-144134168D01*
X109856954Y-144158410D01*
X109895095Y-144224474D01*
X109959708Y-144327303D01*
X109986074Y-144382054D01*
X110010651Y-144424622D01*
X110035723Y-144485151D01*
X110074043Y-144564724D01*
X110103207Y-144648071D01*
X110128286Y-144708617D01*
X110141013Y-144756117D01*
X110161078Y-144813459D01*
X110188098Y-144931843D01*
X110207845Y-145005538D01*
X110211832Y-145035827D01*
X110219716Y-145070366D01*
X110239525Y-145246172D01*
X110247968Y-145310303D01*
X110247968Y-145321103D01*
X110249223Y-145332242D01*
X110249223Y-145595757D01*
X110247968Y-145606895D01*
X110247968Y-145617697D01*
X110239524Y-145681833D01*
X110219716Y-145857633D01*
X110211832Y-145892170D01*
X110207845Y-145922462D01*
X110188097Y-145996162D01*
X110161078Y-146114540D01*
X110141014Y-146171878D01*
X110128286Y-146219383D01*
X110103205Y-146279933D01*
X110074043Y-146363275D01*
X110035726Y-146442841D01*
X110010651Y-146503378D01*
X109986071Y-146545950D01*
X109959708Y-146600696D01*
X109895103Y-146703513D01*
X109856954Y-146769590D01*
X109838349Y-146793835D01*
X109819501Y-146823833D01*
X109709233Y-146962103D01*
X109669824Y-147013463D01*
X109662177Y-147021109D01*
X109655196Y-147029864D01*
X109468864Y-147216196D01*
X109460109Y-147223177D01*
X109452463Y-147230824D01*
X109401103Y-147270233D01*
X109262833Y-147380501D01*
X109232835Y-147399349D01*
X109208590Y-147417954D01*
X109142513Y-147456103D01*
X109039696Y-147520708D01*
X108984950Y-147547071D01*
X108942378Y-147571651D01*
X108881841Y-147596726D01*
X108802275Y-147635043D01*
X108718933Y-147664205D01*
X108658383Y-147689286D01*
X108610878Y-147702014D01*
X108553540Y-147722078D01*
X108435162Y-147749097D01*
X108361462Y-147768845D01*
X108331170Y-147772832D01*
X108296633Y-147780716D01*
X108120833Y-147800524D01*
X108056697Y-147808968D01*
X108045895Y-147808968D01*
X108034757Y-147810223D01*
X107771243Y-147810223D01*
X107760105Y-147808968D01*
X107749303Y-147808968D01*
X107685168Y-147800524D01*
X107509366Y-147780716D01*
X107474827Y-147772832D01*
X107444538Y-147768845D01*
X107370843Y-147749098D01*
X107252459Y-147722078D01*
X107195117Y-147702013D01*
X107147617Y-147689286D01*
X107087071Y-147664207D01*
X107003724Y-147635043D01*
X106924151Y-147596723D01*
X106863622Y-147571651D01*
X106821054Y-147547074D01*
X106766303Y-147520708D01*
X106663474Y-147456095D01*
X106597410Y-147417954D01*
X106573168Y-147399353D01*
X106543166Y-147380501D01*
X106404870Y-147270213D01*
X106353537Y-147230824D01*
X106345894Y-147223181D01*
X106337135Y-147216196D01*
X106150803Y-147029864D01*
X106143817Y-147021104D01*
X106136176Y-147013463D01*
X106096791Y-146962136D01*
X105986498Y-146823833D01*
X105967644Y-146793828D01*
X105949046Y-146769590D01*
X105910908Y-146703533D01*
X105846291Y-146600696D01*
X105819922Y-146545940D01*
X105795349Y-146503378D01*
X105770279Y-146442855D01*
X105731956Y-146363275D01*
X105702788Y-146279917D01*
X105677714Y-146219383D01*
X105664988Y-146171890D01*
X105644921Y-146114540D01*
X105617896Y-145996137D01*
X105598155Y-145922462D01*
X105594168Y-145892180D01*
X105586283Y-145857633D01*
X105566473Y-145681815D01*
X105558032Y-145617697D01*
X105558032Y-145606895D01*
X105556777Y-145595757D01*
X105556777Y-145332242D01*
X105558032Y-145321103D01*
X105558032Y-145310303D01*
X105566472Y-145246190D01*
X105586283Y-145070366D01*
X105594168Y-145035816D01*
X105598155Y-145005538D01*
X105617894Y-144931868D01*
X105644921Y-144813459D01*
X105664989Y-144756105D01*
X105677714Y-144708617D01*
X105702786Y-144648087D01*
X105731956Y-144564724D01*
X105770282Y-144485136D01*
X105795349Y-144424622D01*
X105819919Y-144382064D01*
X105846291Y-144327303D01*
X105910915Y-144224454D01*
X105949046Y-144158410D01*
X105967641Y-144134175D01*
X105986498Y-144104166D01*
X106096811Y-143965837D01*
X106136176Y-143914537D01*
X106143813Y-143906899D01*
X106150803Y-143898135D01*
X106337135Y-143711803D01*
X106345899Y-143704813D01*
X106353537Y-143697176D01*
X106404837Y-143657811D01*
X106543166Y-143547498D01*
X106573175Y-143528641D01*
X106597410Y-143510046D01*
X106663454Y-143471915D01*
X106766303Y-143407291D01*
X106821064Y-143380919D01*
X106863622Y-143356349D01*
X106924136Y-143331282D01*
X107003724Y-143292956D01*
X107087087Y-143263786D01*
X107147617Y-143238714D01*
X107195105Y-143225989D01*
X107252459Y-143205921D01*
X107370868Y-143178894D01*
X107444538Y-143159155D01*
X107474816Y-143155168D01*
X107509366Y-143147283D01*
X107685186Y-143127473D01*
X107749303Y-143119032D01*
X107760104Y-143119032D01*
X107771243Y-143117777D01*
X108034757Y-143117777D01*
X108045896Y-143119032D01*
G37*
G36*
X201245896Y-143119032D02*
G01*
X201256697Y-143119032D01*
X201320815Y-143127473D01*
X201496633Y-143147283D01*
X201531180Y-143155168D01*
X201561462Y-143159155D01*
X201635137Y-143178896D01*
X201753540Y-143205921D01*
X201810890Y-143225988D01*
X201858383Y-143238714D01*
X201918917Y-143263788D01*
X202002275Y-143292956D01*
X202081855Y-143331279D01*
X202142378Y-143356349D01*
X202184940Y-143380922D01*
X202239696Y-143407291D01*
X202342533Y-143471908D01*
X202408590Y-143510046D01*
X202432828Y-143528644D01*
X202462833Y-143547498D01*
X202601136Y-143657791D01*
X202652463Y-143697176D01*
X202660104Y-143704817D01*
X202668864Y-143711803D01*
X202855196Y-143898135D01*
X202862181Y-143906894D01*
X202869824Y-143914537D01*
X202909213Y-143965870D01*
X203019501Y-144104166D01*
X203038353Y-144134168D01*
X203056954Y-144158410D01*
X203095095Y-144224474D01*
X203159708Y-144327303D01*
X203186074Y-144382054D01*
X203210651Y-144424622D01*
X203235723Y-144485151D01*
X203274043Y-144564724D01*
X203303207Y-144648071D01*
X203328286Y-144708617D01*
X203341013Y-144756117D01*
X203361078Y-144813459D01*
X203388098Y-144931843D01*
X203407845Y-145005538D01*
X203411832Y-145035827D01*
X203419716Y-145070366D01*
X203439525Y-145246172D01*
X203447968Y-145310303D01*
X203447968Y-145321103D01*
X203449223Y-145332242D01*
X203449223Y-145595757D01*
X203447968Y-145606895D01*
X203447968Y-145617697D01*
X203439524Y-145681833D01*
X203419716Y-145857633D01*
X203411832Y-145892170D01*
X203407845Y-145922462D01*
X203388097Y-145996162D01*
X203361078Y-146114540D01*
X203341014Y-146171878D01*
X203328286Y-146219383D01*
X203303205Y-146279933D01*
X203274043Y-146363275D01*
X203235726Y-146442841D01*
X203210651Y-146503378D01*
X203186071Y-146545950D01*
X203159708Y-146600696D01*
X203095103Y-146703513D01*
X203056954Y-146769590D01*
X203038349Y-146793835D01*
X203019501Y-146823833D01*
X202909233Y-146962103D01*
X202869824Y-147013463D01*
X202862177Y-147021109D01*
X202855196Y-147029864D01*
X202668864Y-147216196D01*
X202660109Y-147223177D01*
X202652463Y-147230824D01*
X202601103Y-147270233D01*
X202462833Y-147380501D01*
X202432835Y-147399349D01*
X202408590Y-147417954D01*
X202342513Y-147456103D01*
X202239696Y-147520708D01*
X202184950Y-147547071D01*
X202142378Y-147571651D01*
X202081841Y-147596726D01*
X202002275Y-147635043D01*
X201918933Y-147664205D01*
X201858383Y-147689286D01*
X201810878Y-147702014D01*
X201753540Y-147722078D01*
X201635162Y-147749097D01*
X201561462Y-147768845D01*
X201531170Y-147772832D01*
X201496633Y-147780716D01*
X201320833Y-147800524D01*
X201256697Y-147808968D01*
X201245895Y-147808968D01*
X201234757Y-147810223D01*
X200971243Y-147810223D01*
X200960105Y-147808968D01*
X200949303Y-147808968D01*
X200885168Y-147800524D01*
X200709366Y-147780716D01*
X200674827Y-147772832D01*
X200644538Y-147768845D01*
X200570843Y-147749098D01*
X200452459Y-147722078D01*
X200395117Y-147702013D01*
X200347617Y-147689286D01*
X200287071Y-147664207D01*
X200203724Y-147635043D01*
X200124151Y-147596723D01*
X200063622Y-147571651D01*
X200021054Y-147547074D01*
X199966303Y-147520708D01*
X199863474Y-147456095D01*
X199797410Y-147417954D01*
X199773168Y-147399353D01*
X199743166Y-147380501D01*
X199604870Y-147270213D01*
X199553537Y-147230824D01*
X199545894Y-147223181D01*
X199537135Y-147216196D01*
X199350803Y-147029864D01*
X199343817Y-147021104D01*
X199336176Y-147013463D01*
X199296791Y-146962136D01*
X199186498Y-146823833D01*
X199167644Y-146793828D01*
X199149046Y-146769590D01*
X199110908Y-146703533D01*
X199046291Y-146600696D01*
X199019922Y-146545940D01*
X198995349Y-146503378D01*
X198970279Y-146442855D01*
X198931956Y-146363275D01*
X198902788Y-146279917D01*
X198877714Y-146219383D01*
X198864988Y-146171890D01*
X198844921Y-146114540D01*
X198817896Y-145996137D01*
X198798155Y-145922462D01*
X198794168Y-145892180D01*
X198786283Y-145857633D01*
X198766473Y-145681815D01*
X198758032Y-145617697D01*
X198758032Y-145606895D01*
X198756777Y-145595757D01*
X198756777Y-145332242D01*
X198758032Y-145321103D01*
X198758032Y-145310303D01*
X198766472Y-145246190D01*
X198786283Y-145070366D01*
X198794168Y-145035816D01*
X198798155Y-145005538D01*
X198817894Y-144931868D01*
X198844921Y-144813459D01*
X198864989Y-144756105D01*
X198877714Y-144708617D01*
X198902786Y-144648087D01*
X198931956Y-144564724D01*
X198970282Y-144485136D01*
X198995349Y-144424622D01*
X199019919Y-144382064D01*
X199046291Y-144327303D01*
X199110915Y-144224454D01*
X199149046Y-144158410D01*
X199167641Y-144134175D01*
X199186498Y-144104166D01*
X199296811Y-143965837D01*
X199336176Y-143914537D01*
X199343813Y-143906899D01*
X199350803Y-143898135D01*
X199537135Y-143711803D01*
X199545899Y-143704813D01*
X199553537Y-143697176D01*
X199604837Y-143657811D01*
X199743166Y-143547498D01*
X199773175Y-143528641D01*
X199797410Y-143510046D01*
X199863454Y-143471915D01*
X199966303Y-143407291D01*
X200021064Y-143380919D01*
X200063622Y-143356349D01*
X200124136Y-143331282D01*
X200203724Y-143292956D01*
X200287087Y-143263786D01*
X200347617Y-143238714D01*
X200395105Y-143225989D01*
X200452459Y-143205921D01*
X200570868Y-143178894D01*
X200644538Y-143159155D01*
X200674816Y-143155168D01*
X200709366Y-143147283D01*
X200885186Y-143127473D01*
X200949303Y-143119032D01*
X200960104Y-143119032D01*
X200971243Y-143117777D01*
X201234757Y-143117777D01*
X201245896Y-143119032D01*
G37*
G36*
X149988285Y-144202060D02*
G01*
X150169397Y-144277079D01*
X150332393Y-144385990D01*
X150471010Y-144524607D01*
X150579921Y-144687603D01*
X150654940Y-144868715D01*
X150693185Y-145060983D01*
X150693185Y-145257017D01*
X150654940Y-145449285D01*
X150579921Y-145630397D01*
X150471010Y-145793393D01*
X150332393Y-145932010D01*
X150169397Y-146040921D01*
X149988285Y-146115940D01*
X149796017Y-146154185D01*
X149599983Y-146154185D01*
X149407715Y-146115940D01*
X149226603Y-146040921D01*
X149063607Y-145932010D01*
X148924990Y-145793393D01*
X148816079Y-145630397D01*
X148741060Y-145449285D01*
X148702815Y-145257017D01*
X148702815Y-145060983D01*
X148741060Y-144868715D01*
X148816079Y-144687603D01*
X148924990Y-144524607D01*
X149063607Y-144385990D01*
X149226603Y-144277079D01*
X149407715Y-144202060D01*
X149599983Y-144163815D01*
X149796017Y-144163815D01*
X149988285Y-144202060D01*
G37*
G36*
X153163285Y-144202060D02*
G01*
X153344397Y-144277079D01*
X153507393Y-144385990D01*
X153646010Y-144524607D01*
X153754921Y-144687603D01*
X153829940Y-144868715D01*
X153868185Y-145060983D01*
X153868185Y-145257017D01*
X153829940Y-145449285D01*
X153754921Y-145630397D01*
X153646010Y-145793393D01*
X153507393Y-145932010D01*
X153344397Y-146040921D01*
X153163285Y-146115940D01*
X152971017Y-146154185D01*
X152774983Y-146154185D01*
X152582715Y-146115940D01*
X152401603Y-146040921D01*
X152238607Y-145932010D01*
X152099990Y-145793393D01*
X151991079Y-145630397D01*
X151916060Y-145449285D01*
X151877815Y-145257017D01*
X151877815Y-145060983D01*
X151916060Y-144868715D01*
X151991079Y-144687603D01*
X152099990Y-144524607D01*
X152238607Y-144385990D01*
X152401603Y-144277079D01*
X152582715Y-144202060D01*
X152774983Y-144163815D01*
X152971017Y-144163815D01*
X153163285Y-144202060D01*
G37*
G36*
X156338285Y-144202060D02*
G01*
X156519397Y-144277079D01*
X156682393Y-144385990D01*
X156821010Y-144524607D01*
X156929921Y-144687603D01*
X157004940Y-144868715D01*
X157043185Y-145060983D01*
X157043185Y-145257017D01*
X157004940Y-145449285D01*
X156929921Y-145630397D01*
X156821010Y-145793393D01*
X156682393Y-145932010D01*
X156519397Y-146040921D01*
X156338285Y-146115940D01*
X156146017Y-146154185D01*
X155949983Y-146154185D01*
X155757715Y-146115940D01*
X155576603Y-146040921D01*
X155413607Y-145932010D01*
X155274990Y-145793393D01*
X155166079Y-145630397D01*
X155091060Y-145449285D01*
X155052815Y-145257017D01*
X155052815Y-145060983D01*
X155091060Y-144868715D01*
X155166079Y-144687603D01*
X155274990Y-144524607D01*
X155413607Y-144385990D01*
X155576603Y-144277079D01*
X155757715Y-144202060D01*
X155949983Y-144163815D01*
X156146017Y-144163815D01*
X156338285Y-144202060D01*
G37*
G36*
X159513285Y-144202060D02*
G01*
X159694397Y-144277079D01*
X159857393Y-144385990D01*
X159996010Y-144524607D01*
X160104921Y-144687603D01*
X160179940Y-144868715D01*
X160218185Y-145060983D01*
X160218185Y-145257017D01*
X160179940Y-145449285D01*
X160104921Y-145630397D01*
X159996010Y-145793393D01*
X159857393Y-145932010D01*
X159694397Y-146040921D01*
X159513285Y-146115940D01*
X159321017Y-146154185D01*
X159124983Y-146154185D01*
X158932715Y-146115940D01*
X158751603Y-146040921D01*
X158588607Y-145932010D01*
X158449990Y-145793393D01*
X158341079Y-145630397D01*
X158266060Y-145449285D01*
X158227815Y-145257017D01*
X158227815Y-145060983D01*
X158266060Y-144868715D01*
X158341079Y-144687603D01*
X158449990Y-144524607D01*
X158588607Y-144385990D01*
X158751603Y-144277079D01*
X158932715Y-144202060D01*
X159124983Y-144163815D01*
X159321017Y-144163815D01*
X159513285Y-144202060D01*
G37*
G36*
X165228285Y-143912060D02*
G01*
X165409397Y-143987079D01*
X165572393Y-144095990D01*
X165711010Y-144234607D01*
X165819921Y-144397603D01*
X165894940Y-144578715D01*
X165933185Y-144770983D01*
X165933185Y-144967017D01*
X165894940Y-145159285D01*
X165819921Y-145340397D01*
X165711010Y-145503393D01*
X165572393Y-145642010D01*
X165409397Y-145750921D01*
X165228285Y-145825940D01*
X165036017Y-145864185D01*
X164839983Y-145864185D01*
X164647715Y-145825940D01*
X164466603Y-145750921D01*
X164303607Y-145642010D01*
X164164990Y-145503393D01*
X164056079Y-145340397D01*
X163981060Y-145159285D01*
X163942815Y-144967017D01*
X163942815Y-144770983D01*
X163981060Y-144578715D01*
X164056079Y-144397603D01*
X164164990Y-144234607D01*
X164303607Y-144095990D01*
X164466603Y-143987079D01*
X164647715Y-143912060D01*
X164839983Y-143873815D01*
X165036017Y-143873815D01*
X165228285Y-143912060D01*
G37*
G36*
X171728285Y-143912060D02*
G01*
X171909397Y-143987079D01*
X172072393Y-144095990D01*
X172211010Y-144234607D01*
X172319921Y-144397603D01*
X172394940Y-144578715D01*
X172433185Y-144770983D01*
X172433185Y-144967017D01*
X172394940Y-145159285D01*
X172319921Y-145340397D01*
X172211010Y-145503393D01*
X172072393Y-145642010D01*
X171909397Y-145750921D01*
X171728285Y-145825940D01*
X171536017Y-145864185D01*
X171339983Y-145864185D01*
X171147715Y-145825940D01*
X170966603Y-145750921D01*
X170803607Y-145642010D01*
X170664990Y-145503393D01*
X170556079Y-145340397D01*
X170481060Y-145159285D01*
X170442815Y-144967017D01*
X170442815Y-144770983D01*
X170481060Y-144578715D01*
X170556079Y-144397603D01*
X170664990Y-144234607D01*
X170803607Y-144095990D01*
X170966603Y-143987079D01*
X171147715Y-143912060D01*
X171339983Y-143873815D01*
X171536017Y-143873815D01*
X171728285Y-143912060D01*
G37*
G36*
X175948285Y-143912060D02*
G01*
X176129397Y-143987079D01*
X176292393Y-144095990D01*
X176431010Y-144234607D01*
X176539921Y-144397603D01*
X176614940Y-144578715D01*
X176653185Y-144770983D01*
X176653185Y-144967017D01*
X176614940Y-145159285D01*
X176539921Y-145340397D01*
X176431010Y-145503393D01*
X176292393Y-145642010D01*
X176129397Y-145750921D01*
X175948285Y-145825940D01*
X175756017Y-145864185D01*
X175559983Y-145864185D01*
X175367715Y-145825940D01*
X175186603Y-145750921D01*
X175023607Y-145642010D01*
X174884990Y-145503393D01*
X174776079Y-145340397D01*
X174701060Y-145159285D01*
X174662815Y-144967017D01*
X174662815Y-144770983D01*
X174701060Y-144578715D01*
X174776079Y-144397603D01*
X174884990Y-144234607D01*
X175023607Y-144095990D01*
X175186603Y-143987079D01*
X175367715Y-143912060D01*
X175559983Y-143873815D01*
X175756017Y-143873815D01*
X175948285Y-143912060D01*
G37*
G36*
X182448285Y-143912060D02*
G01*
X182629397Y-143987079D01*
X182792393Y-144095990D01*
X182931010Y-144234607D01*
X183039921Y-144397603D01*
X183114940Y-144578715D01*
X183153185Y-144770983D01*
X183153185Y-144967017D01*
X183114940Y-145159285D01*
X183039921Y-145340397D01*
X182931010Y-145503393D01*
X182792393Y-145642010D01*
X182629397Y-145750921D01*
X182448285Y-145825940D01*
X182256017Y-145864185D01*
X182059983Y-145864185D01*
X181867715Y-145825940D01*
X181686603Y-145750921D01*
X181523607Y-145642010D01*
X181384990Y-145503393D01*
X181276079Y-145340397D01*
X181201060Y-145159285D01*
X181162815Y-144967017D01*
X181162815Y-144770983D01*
X181201060Y-144578715D01*
X181276079Y-144397603D01*
X181384990Y-144234607D01*
X181523607Y-144095990D01*
X181686603Y-143987079D01*
X181867715Y-143912060D01*
X182059983Y-143873815D01*
X182256017Y-143873815D01*
X182448285Y-143912060D01*
G37*
G36*
X125743285Y-143757060D02*
G01*
X125924397Y-143832079D01*
X126087393Y-143940990D01*
X126226010Y-144079607D01*
X126334921Y-144242603D01*
X126409940Y-144423715D01*
X126448185Y-144615983D01*
X126448185Y-144812017D01*
X126409940Y-145004285D01*
X126334921Y-145185397D01*
X126226010Y-145348393D01*
X126087393Y-145487010D01*
X125924397Y-145595921D01*
X125743285Y-145670940D01*
X125551017Y-145709185D01*
X125354983Y-145709185D01*
X125162715Y-145670940D01*
X124981603Y-145595921D01*
X124818607Y-145487010D01*
X124679990Y-145348393D01*
X124571079Y-145185397D01*
X124496060Y-145004285D01*
X124457815Y-144812017D01*
X124457815Y-144615983D01*
X124496060Y-144423715D01*
X124571079Y-144242603D01*
X124679990Y-144079607D01*
X124818607Y-143940990D01*
X124981603Y-143832079D01*
X125162715Y-143757060D01*
X125354983Y-143718815D01*
X125551017Y-143718815D01*
X125743285Y-143757060D01*
G37*
G36*
X132243285Y-143757060D02*
G01*
X132424397Y-143832079D01*
X132587393Y-143940990D01*
X132726010Y-144079607D01*
X132834921Y-144242603D01*
X132909940Y-144423715D01*
X132948185Y-144615983D01*
X132948185Y-144812017D01*
X132909940Y-145004285D01*
X132834921Y-145185397D01*
X132726010Y-145348393D01*
X132587393Y-145487010D01*
X132424397Y-145595921D01*
X132243285Y-145670940D01*
X132051017Y-145709185D01*
X131854983Y-145709185D01*
X131662715Y-145670940D01*
X131481603Y-145595921D01*
X131318607Y-145487010D01*
X131179990Y-145348393D01*
X131071079Y-145185397D01*
X130996060Y-145004285D01*
X130957815Y-144812017D01*
X130957815Y-144615983D01*
X130996060Y-144423715D01*
X131071079Y-144242603D01*
X131179990Y-144079607D01*
X131318607Y-143940990D01*
X131481603Y-143832079D01*
X131662715Y-143757060D01*
X131854983Y-143718815D01*
X132051017Y-143718815D01*
X132243285Y-143757060D01*
G37*
G36*
X136143285Y-143757060D02*
G01*
X136324397Y-143832079D01*
X136487393Y-143940990D01*
X136626010Y-144079607D01*
X136734921Y-144242603D01*
X136809940Y-144423715D01*
X136848185Y-144615983D01*
X136848185Y-144812017D01*
X136809940Y-145004285D01*
X136734921Y-145185397D01*
X136626010Y-145348393D01*
X136487393Y-145487010D01*
X136324397Y-145595921D01*
X136143285Y-145670940D01*
X135951017Y-145709185D01*
X135754983Y-145709185D01*
X135562715Y-145670940D01*
X135381603Y-145595921D01*
X135218607Y-145487010D01*
X135079990Y-145348393D01*
X134971079Y-145185397D01*
X134896060Y-145004285D01*
X134857815Y-144812017D01*
X134857815Y-144615983D01*
X134896060Y-144423715D01*
X134971079Y-144242603D01*
X135079990Y-144079607D01*
X135218607Y-143940990D01*
X135381603Y-143832079D01*
X135562715Y-143757060D01*
X135754983Y-143718815D01*
X135951017Y-143718815D01*
X136143285Y-143757060D01*
G37*
G36*
X142643285Y-143757060D02*
G01*
X142824397Y-143832079D01*
X142987393Y-143940990D01*
X143126010Y-144079607D01*
X143234921Y-144242603D01*
X143309940Y-144423715D01*
X143348185Y-144615983D01*
X143348185Y-144812017D01*
X143309940Y-145004285D01*
X143234921Y-145185397D01*
X143126010Y-145348393D01*
X142987393Y-145487010D01*
X142824397Y-145595921D01*
X142643285Y-145670940D01*
X142451017Y-145709185D01*
X142254983Y-145709185D01*
X142062715Y-145670940D01*
X141881603Y-145595921D01*
X141718607Y-145487010D01*
X141579990Y-145348393D01*
X141471079Y-145185397D01*
X141396060Y-145004285D01*
X141357815Y-144812017D01*
X141357815Y-144615983D01*
X141396060Y-144423715D01*
X141471079Y-144242603D01*
X141579990Y-144079607D01*
X141718607Y-143940990D01*
X141881603Y-143832079D01*
X142062715Y-143757060D01*
X142254983Y-143718815D01*
X142451017Y-143718815D01*
X142643285Y-143757060D01*
G37*
G36*
X191327116Y-142379818D02*
G01*
X191378379Y-142385766D01*
X191395892Y-142393499D01*
X191418671Y-142398030D01*
X191443057Y-142414324D01*
X191463788Y-142423478D01*
X191477946Y-142437636D01*
X191499777Y-142452223D01*
X191514363Y-142474053D01*
X191528521Y-142488211D01*
X191537673Y-142508939D01*
X191553970Y-142533329D01*
X191558501Y-142556109D01*
X191566233Y-142573620D01*
X191572178Y-142624872D01*
X191573000Y-142629000D01*
X191573000Y-143879000D01*
X191572178Y-143883128D01*
X191566233Y-143934379D01*
X191558501Y-143951888D01*
X191553970Y-143974671D01*
X191537672Y-143999062D01*
X191528521Y-144019788D01*
X191514365Y-144033943D01*
X191499777Y-144055777D01*
X191477943Y-144070365D01*
X191463788Y-144084521D01*
X191443062Y-144093672D01*
X191418671Y-144109970D01*
X191395888Y-144114501D01*
X191378379Y-144122233D01*
X191327129Y-144128178D01*
X191323000Y-144129000D01*
X190623000Y-144129000D01*
X190618873Y-144128179D01*
X190567620Y-144122233D01*
X190550109Y-144114501D01*
X190527329Y-144109970D01*
X190502939Y-144093673D01*
X190482211Y-144084521D01*
X190468053Y-144070363D01*
X190446223Y-144055777D01*
X190431636Y-144033946D01*
X190417478Y-144019788D01*
X190408324Y-143999057D01*
X190392030Y-143974671D01*
X190387499Y-143951892D01*
X190379766Y-143934379D01*
X190373818Y-143883117D01*
X190373000Y-143879000D01*
X190373000Y-142629000D01*
X190373818Y-142624885D01*
X190379766Y-142573620D01*
X190387499Y-142556105D01*
X190392030Y-142533329D01*
X190408323Y-142508944D01*
X190417478Y-142488211D01*
X190431638Y-142474050D01*
X190446223Y-142452223D01*
X190468050Y-142437638D01*
X190482211Y-142423478D01*
X190502944Y-142414323D01*
X190527329Y-142398030D01*
X190550105Y-142393499D01*
X190567620Y-142385766D01*
X190618884Y-142379818D01*
X190623000Y-142379000D01*
X191323000Y-142379000D01*
X191327116Y-142379818D01*
G37*
G36*
X193041836Y-142384133D02*
G01*
X193051316Y-142384133D01*
X193078623Y-142391449D01*
X193147100Y-142405070D01*
X193179423Y-142418459D01*
X193202610Y-142424672D01*
X193223401Y-142436676D01*
X193255722Y-142450064D01*
X193313770Y-142488850D01*
X193338257Y-142502988D01*
X193344959Y-142509690D01*
X193353482Y-142515385D01*
X193436614Y-142598517D01*
X193442308Y-142607039D01*
X193449012Y-142613743D01*
X193463151Y-142638233D01*
X193501935Y-142696277D01*
X193515321Y-142728594D01*
X193527328Y-142749390D01*
X193533541Y-142772580D01*
X193546929Y-142804899D01*
X193560547Y-142873366D01*
X193567867Y-142900684D01*
X193568794Y-142914827D01*
X193570110Y-142921444D01*
X193572754Y-142975250D01*
X193573000Y-142979000D01*
X193573000Y-143529000D01*
X193572754Y-143532752D01*
X193570110Y-143586555D01*
X193568794Y-143593170D01*
X193567867Y-143607316D01*
X193560546Y-143634636D01*
X193546929Y-143703100D01*
X193533542Y-143735416D01*
X193527328Y-143758610D01*
X193515320Y-143779407D01*
X193501935Y-143811722D01*
X193463155Y-143869759D01*
X193449012Y-143894257D01*
X193442306Y-143900962D01*
X193436614Y-143909482D01*
X193353482Y-143992614D01*
X193344962Y-143998306D01*
X193338257Y-144005012D01*
X193313759Y-144019155D01*
X193255722Y-144057935D01*
X193223407Y-144071320D01*
X193202610Y-144083328D01*
X193179416Y-144089542D01*
X193147100Y-144102929D01*
X193078629Y-144116548D01*
X193051316Y-144123867D01*
X193041836Y-144123867D01*
X193031786Y-144125866D01*
X192914214Y-144125866D01*
X192904164Y-144123867D01*
X192894684Y-144123867D01*
X192867371Y-144116548D01*
X192798899Y-144102929D01*
X192766580Y-144089541D01*
X192743390Y-144083328D01*
X192722594Y-144071321D01*
X192690277Y-144057935D01*
X192632233Y-144019151D01*
X192607743Y-144005012D01*
X192601039Y-143998308D01*
X192592517Y-143992614D01*
X192509385Y-143909482D01*
X192503690Y-143900959D01*
X192496988Y-143894257D01*
X192482850Y-143869770D01*
X192444064Y-143811722D01*
X192430676Y-143779401D01*
X192418672Y-143758610D01*
X192412459Y-143735423D01*
X192399070Y-143703100D01*
X192385449Y-143634622D01*
X192378133Y-143607316D01*
X192377206Y-143593178D01*
X192375889Y-143586555D01*
X192373245Y-143532746D01*
X192373000Y-143529000D01*
X192373000Y-142979000D01*
X192373245Y-142975256D01*
X192375889Y-142921444D01*
X192377206Y-142914820D01*
X192378133Y-142900684D01*
X192385448Y-142873380D01*
X192399070Y-142804899D01*
X192412459Y-142772573D01*
X192418672Y-142749390D01*
X192430674Y-142728600D01*
X192444064Y-142696277D01*
X192482854Y-142638222D01*
X192496988Y-142613743D01*
X192503688Y-142607042D01*
X192509385Y-142598517D01*
X192592517Y-142515385D01*
X192601042Y-142509688D01*
X192607743Y-142502988D01*
X192632222Y-142488854D01*
X192690277Y-142450064D01*
X192722600Y-142436674D01*
X192743390Y-142424672D01*
X192766573Y-142418459D01*
X192798899Y-142405070D01*
X192867377Y-142391449D01*
X192894684Y-142384133D01*
X192904164Y-142384133D01*
X192914214Y-142382134D01*
X193031786Y-142382134D01*
X193041836Y-142384133D01*
G37*
G36*
X165228285Y-139412060D02*
G01*
X165409397Y-139487079D01*
X165572393Y-139595990D01*
X165711010Y-139734607D01*
X165819921Y-139897603D01*
X165894940Y-140078715D01*
X165933185Y-140270983D01*
X165933185Y-140467017D01*
X165894940Y-140659285D01*
X165819921Y-140840397D01*
X165711010Y-141003393D01*
X165572393Y-141142010D01*
X165409397Y-141250921D01*
X165228285Y-141325940D01*
X165036017Y-141364185D01*
X164839983Y-141364185D01*
X164647715Y-141325940D01*
X164466603Y-141250921D01*
X164303607Y-141142010D01*
X164164990Y-141003393D01*
X164056079Y-140840397D01*
X163981060Y-140659285D01*
X163942815Y-140467017D01*
X163942815Y-140270983D01*
X163981060Y-140078715D01*
X164056079Y-139897603D01*
X164164990Y-139734607D01*
X164303607Y-139595990D01*
X164466603Y-139487079D01*
X164647715Y-139412060D01*
X164839983Y-139373815D01*
X165036017Y-139373815D01*
X165228285Y-139412060D01*
G37*
G36*
X171728285Y-139412060D02*
G01*
X171909397Y-139487079D01*
X172072393Y-139595990D01*
X172211010Y-139734607D01*
X172319921Y-139897603D01*
X172394940Y-140078715D01*
X172433185Y-140270983D01*
X172433185Y-140467017D01*
X172394940Y-140659285D01*
X172319921Y-140840397D01*
X172211010Y-141003393D01*
X172072393Y-141142010D01*
X171909397Y-141250921D01*
X171728285Y-141325940D01*
X171536017Y-141364185D01*
X171339983Y-141364185D01*
X171147715Y-141325940D01*
X170966603Y-141250921D01*
X170803607Y-141142010D01*
X170664990Y-141003393D01*
X170556079Y-140840397D01*
X170481060Y-140659285D01*
X170442815Y-140467017D01*
X170442815Y-140270983D01*
X170481060Y-140078715D01*
X170556079Y-139897603D01*
X170664990Y-139734607D01*
X170803607Y-139595990D01*
X170966603Y-139487079D01*
X171147715Y-139412060D01*
X171339983Y-139373815D01*
X171536017Y-139373815D01*
X171728285Y-139412060D01*
G37*
G36*
X175948285Y-139412060D02*
G01*
X176129397Y-139487079D01*
X176292393Y-139595990D01*
X176431010Y-139734607D01*
X176539921Y-139897603D01*
X176614940Y-140078715D01*
X176653185Y-140270983D01*
X176653185Y-140467017D01*
X176614940Y-140659285D01*
X176539921Y-140840397D01*
X176431010Y-141003393D01*
X176292393Y-141142010D01*
X176129397Y-141250921D01*
X175948285Y-141325940D01*
X175756017Y-141364185D01*
X175559983Y-141364185D01*
X175367715Y-141325940D01*
X175186603Y-141250921D01*
X175023607Y-141142010D01*
X174884990Y-141003393D01*
X174776079Y-140840397D01*
X174701060Y-140659285D01*
X174662815Y-140467017D01*
X174662815Y-140270983D01*
X174701060Y-140078715D01*
X174776079Y-139897603D01*
X174884990Y-139734607D01*
X175023607Y-139595990D01*
X175186603Y-139487079D01*
X175367715Y-139412060D01*
X175559983Y-139373815D01*
X175756017Y-139373815D01*
X175948285Y-139412060D01*
G37*
G36*
X182448285Y-139412060D02*
G01*
X182629397Y-139487079D01*
X182792393Y-139595990D01*
X182931010Y-139734607D01*
X183039921Y-139897603D01*
X183114940Y-140078715D01*
X183153185Y-140270983D01*
X183153185Y-140467017D01*
X183114940Y-140659285D01*
X183039921Y-140840397D01*
X182931010Y-141003393D01*
X182792393Y-141142010D01*
X182629397Y-141250921D01*
X182448285Y-141325940D01*
X182256017Y-141364185D01*
X182059983Y-141364185D01*
X181867715Y-141325940D01*
X181686603Y-141250921D01*
X181523607Y-141142010D01*
X181384990Y-141003393D01*
X181276079Y-140840397D01*
X181201060Y-140659285D01*
X181162815Y-140467017D01*
X181162815Y-140270983D01*
X181201060Y-140078715D01*
X181276079Y-139897603D01*
X181384990Y-139734607D01*
X181523607Y-139595990D01*
X181686603Y-139487079D01*
X181867715Y-139412060D01*
X182059983Y-139373815D01*
X182256017Y-139373815D01*
X182448285Y-139412060D01*
G37*
G36*
X125743285Y-139257060D02*
G01*
X125924397Y-139332079D01*
X126087393Y-139440990D01*
X126226010Y-139579607D01*
X126334921Y-139742603D01*
X126409940Y-139923715D01*
X126448185Y-140115983D01*
X126448185Y-140312017D01*
X126409940Y-140504285D01*
X126334921Y-140685397D01*
X126226010Y-140848393D01*
X126087393Y-140987010D01*
X125924397Y-141095921D01*
X125743285Y-141170940D01*
X125551017Y-141209185D01*
X125354983Y-141209185D01*
X125162715Y-141170940D01*
X124981603Y-141095921D01*
X124818607Y-140987010D01*
X124679990Y-140848393D01*
X124571079Y-140685397D01*
X124496060Y-140504285D01*
X124457815Y-140312017D01*
X124457815Y-140115983D01*
X124496060Y-139923715D01*
X124571079Y-139742603D01*
X124679990Y-139579607D01*
X124818607Y-139440990D01*
X124981603Y-139332079D01*
X125162715Y-139257060D01*
X125354983Y-139218815D01*
X125551017Y-139218815D01*
X125743285Y-139257060D01*
G37*
G36*
X132243285Y-139257060D02*
G01*
X132424397Y-139332079D01*
X132587393Y-139440990D01*
X132726010Y-139579607D01*
X132834921Y-139742603D01*
X132909940Y-139923715D01*
X132948185Y-140115983D01*
X132948185Y-140312017D01*
X132909940Y-140504285D01*
X132834921Y-140685397D01*
X132726010Y-140848393D01*
X132587393Y-140987010D01*
X132424397Y-141095921D01*
X132243285Y-141170940D01*
X132051017Y-141209185D01*
X131854983Y-141209185D01*
X131662715Y-141170940D01*
X131481603Y-141095921D01*
X131318607Y-140987010D01*
X131179990Y-140848393D01*
X131071079Y-140685397D01*
X130996060Y-140504285D01*
X130957815Y-140312017D01*
X130957815Y-140115983D01*
X130996060Y-139923715D01*
X131071079Y-139742603D01*
X131179990Y-139579607D01*
X131318607Y-139440990D01*
X131481603Y-139332079D01*
X131662715Y-139257060D01*
X131854983Y-139218815D01*
X132051017Y-139218815D01*
X132243285Y-139257060D01*
G37*
G36*
X136143285Y-139257060D02*
G01*
X136324397Y-139332079D01*
X136487393Y-139440990D01*
X136626010Y-139579607D01*
X136734921Y-139742603D01*
X136809940Y-139923715D01*
X136848185Y-140115983D01*
X136848185Y-140312017D01*
X136809940Y-140504285D01*
X136734921Y-140685397D01*
X136626010Y-140848393D01*
X136487393Y-140987010D01*
X136324397Y-141095921D01*
X136143285Y-141170940D01*
X135951017Y-141209185D01*
X135754983Y-141209185D01*
X135562715Y-141170940D01*
X135381603Y-141095921D01*
X135218607Y-140987010D01*
X135079990Y-140848393D01*
X134971079Y-140685397D01*
X134896060Y-140504285D01*
X134857815Y-140312017D01*
X134857815Y-140115983D01*
X134896060Y-139923715D01*
X134971079Y-139742603D01*
X135079990Y-139579607D01*
X135218607Y-139440990D01*
X135381603Y-139332079D01*
X135562715Y-139257060D01*
X135754983Y-139218815D01*
X135951017Y-139218815D01*
X136143285Y-139257060D01*
G37*
G36*
X142643285Y-139257060D02*
G01*
X142824397Y-139332079D01*
X142987393Y-139440990D01*
X143126010Y-139579607D01*
X143234921Y-139742603D01*
X143309940Y-139923715D01*
X143348185Y-140115983D01*
X143348185Y-140312017D01*
X143309940Y-140504285D01*
X143234921Y-140685397D01*
X143126010Y-140848393D01*
X142987393Y-140987010D01*
X142824397Y-141095921D01*
X142643285Y-141170940D01*
X142451017Y-141209185D01*
X142254983Y-141209185D01*
X142062715Y-141170940D01*
X141881603Y-141095921D01*
X141718607Y-140987010D01*
X141579990Y-140848393D01*
X141471079Y-140685397D01*
X141396060Y-140504285D01*
X141357815Y-140312017D01*
X141357815Y-140115983D01*
X141396060Y-139923715D01*
X141471079Y-139742603D01*
X141579990Y-139579607D01*
X141718607Y-139440990D01*
X141881603Y-139332079D01*
X142062715Y-139257060D01*
X142254983Y-139218815D01*
X142451017Y-139218815D01*
X142643285Y-139257060D01*
G37*
G36*
X112777285Y-137852060D02*
G01*
X112958397Y-137927079D01*
X113121393Y-138035990D01*
X113260010Y-138174607D01*
X113368921Y-138337603D01*
X113443940Y-138518715D01*
X113482185Y-138710983D01*
X113482185Y-138907017D01*
X113443940Y-139099285D01*
X113368921Y-139280397D01*
X113260010Y-139443393D01*
X113121393Y-139582010D01*
X112958397Y-139690921D01*
X112777285Y-139765940D01*
X112585017Y-139804185D01*
X112388983Y-139804185D01*
X112196715Y-139765940D01*
X112015603Y-139690921D01*
X111852607Y-139582010D01*
X111713990Y-139443393D01*
X111605079Y-139280397D01*
X111530060Y-139099285D01*
X111491815Y-138907017D01*
X111491815Y-138710983D01*
X111530060Y-138518715D01*
X111605079Y-138337603D01*
X111713990Y-138174607D01*
X111852607Y-138035990D01*
X112015603Y-137927079D01*
X112196715Y-137852060D01*
X112388983Y-137813815D01*
X112585017Y-137813815D01*
X112777285Y-137852060D01*
G37*
G36*
X191188000Y-139024000D02*
G01*
X189488000Y-139024000D01*
X189488000Y-137324000D01*
X191188000Y-137324000D01*
X191188000Y-139024000D01*
G37*
G36*
X193124742Y-137360601D02*
G01*
X193278687Y-137424367D01*
X193417234Y-137516941D01*
X193535059Y-137634766D01*
X193627633Y-137773313D01*
X193691399Y-137927258D01*
X193723907Y-138090685D01*
X193723907Y-138257315D01*
X193691399Y-138420742D01*
X193627633Y-138574687D01*
X193535059Y-138713234D01*
X193417234Y-138831059D01*
X193278687Y-138923633D01*
X193124742Y-138987399D01*
X192961315Y-139019907D01*
X192794685Y-139019907D01*
X192631258Y-138987399D01*
X192477313Y-138923633D01*
X192338766Y-138831059D01*
X192220941Y-138713234D01*
X192128367Y-138574687D01*
X192064601Y-138420742D01*
X192032093Y-138257315D01*
X192032093Y-138090685D01*
X192064601Y-137927258D01*
X192128367Y-137773313D01*
X192220941Y-137634766D01*
X192338766Y-137516941D01*
X192477313Y-137424367D01*
X192631258Y-137360601D01*
X192794685Y-137328093D01*
X192961315Y-137328093D01*
X193124742Y-137360601D01*
G37*
G36*
X186624685Y-134780660D02*
G01*
X186805797Y-134855679D01*
X186968793Y-134964590D01*
X187107410Y-135103207D01*
X187216321Y-135266203D01*
X187291340Y-135447315D01*
X187329585Y-135639583D01*
X187329585Y-135835617D01*
X187291340Y-136027885D01*
X187216321Y-136208997D01*
X187107410Y-136371993D01*
X186968793Y-136510610D01*
X186805797Y-136619521D01*
X186624685Y-136694540D01*
X186432417Y-136732785D01*
X186236383Y-136732785D01*
X186044115Y-136694540D01*
X185863003Y-136619521D01*
X185700007Y-136510610D01*
X185561390Y-136371993D01*
X185452479Y-136208997D01*
X185377460Y-136027885D01*
X185339215Y-135835617D01*
X185339215Y-135639583D01*
X185377460Y-135447315D01*
X185452479Y-135266203D01*
X185561390Y-135103207D01*
X185700007Y-134964590D01*
X185863003Y-134855679D01*
X186044115Y-134780660D01*
X186236383Y-134742415D01*
X186432417Y-134742415D01*
X186624685Y-134780660D01*
G37*
G36*
X112777285Y-134677060D02*
G01*
X112958397Y-134752079D01*
X113121393Y-134860990D01*
X113260010Y-134999607D01*
X113368921Y-135162603D01*
X113443940Y-135343715D01*
X113482185Y-135535983D01*
X113482185Y-135732017D01*
X113443940Y-135924285D01*
X113368921Y-136105397D01*
X113260010Y-136268393D01*
X113121393Y-136407010D01*
X112958397Y-136515921D01*
X112777285Y-136590940D01*
X112585017Y-136629185D01*
X112388983Y-136629185D01*
X112196715Y-136590940D01*
X112015603Y-136515921D01*
X111852607Y-136407010D01*
X111713990Y-136268393D01*
X111605079Y-136105397D01*
X111530060Y-135924285D01*
X111491815Y-135732017D01*
X111491815Y-135535983D01*
X111530060Y-135343715D01*
X111605079Y-135162603D01*
X111713990Y-134999607D01*
X111852607Y-134860990D01*
X112015603Y-134752079D01*
X112196715Y-134677060D01*
X112388983Y-134638815D01*
X112585017Y-134638815D01*
X112777285Y-134677060D01*
G37*
G36*
X198874742Y-132790601D02*
G01*
X199028687Y-132854367D01*
X199167234Y-132946941D01*
X199285059Y-133064766D01*
X199377633Y-133203313D01*
X199441399Y-133357258D01*
X199473907Y-133520685D01*
X199473907Y-133687315D01*
X199441399Y-133850742D01*
X199377633Y-134004687D01*
X199285059Y-134143234D01*
X199167234Y-134261059D01*
X199028687Y-134353633D01*
X198874742Y-134417399D01*
X198711315Y-134449907D01*
X198544685Y-134449907D01*
X198381258Y-134417399D01*
X198227313Y-134353633D01*
X198088766Y-134261059D01*
X197970941Y-134143234D01*
X197878367Y-134004687D01*
X197814601Y-133850742D01*
X197782093Y-133687315D01*
X197782093Y-133520685D01*
X197814601Y-133357258D01*
X197878367Y-133203313D01*
X197970941Y-133064766D01*
X198088766Y-132946941D01*
X198227313Y-132854367D01*
X198381258Y-132790601D01*
X198544685Y-132758093D01*
X198711315Y-132758093D01*
X198874742Y-132790601D01*
G37*
G36*
X201414742Y-132790601D02*
G01*
X201568687Y-132854367D01*
X201707234Y-132946941D01*
X201825059Y-133064766D01*
X201917633Y-133203313D01*
X201981399Y-133357258D01*
X202013907Y-133520685D01*
X202013907Y-133687315D01*
X201981399Y-133850742D01*
X201917633Y-134004687D01*
X201825059Y-134143234D01*
X201707234Y-134261059D01*
X201568687Y-134353633D01*
X201414742Y-134417399D01*
X201251315Y-134449907D01*
X201084685Y-134449907D01*
X200921258Y-134417399D01*
X200767313Y-134353633D01*
X200628766Y-134261059D01*
X200510941Y-134143234D01*
X200418367Y-134004687D01*
X200354601Y-133850742D01*
X200322093Y-133687315D01*
X200322093Y-133520685D01*
X200354601Y-133357258D01*
X200418367Y-133203313D01*
X200510941Y-133064766D01*
X200628766Y-132946941D01*
X200767313Y-132854367D01*
X200921258Y-132790601D01*
X201084685Y-132758093D01*
X201251315Y-132758093D01*
X201414742Y-132790601D01*
G37*
G36*
X112777285Y-131502060D02*
G01*
X112958397Y-131577079D01*
X113121393Y-131685990D01*
X113260010Y-131824607D01*
X113368921Y-131987603D01*
X113443940Y-132168715D01*
X113482185Y-132360983D01*
X113482185Y-132557017D01*
X113443940Y-132749285D01*
X113368921Y-132930397D01*
X113260010Y-133093393D01*
X113121393Y-133232010D01*
X112958397Y-133340921D01*
X112777285Y-133415940D01*
X112585017Y-133454185D01*
X112388983Y-133454185D01*
X112196715Y-133415940D01*
X112015603Y-133340921D01*
X111852607Y-133232010D01*
X111713990Y-133093393D01*
X111605079Y-132930397D01*
X111530060Y-132749285D01*
X111491815Y-132557017D01*
X111491815Y-132360983D01*
X111530060Y-132168715D01*
X111605079Y-131987603D01*
X111713990Y-131824607D01*
X111852607Y-131685990D01*
X112015603Y-131577079D01*
X112196715Y-131502060D01*
X112388983Y-131463815D01*
X112585017Y-131463815D01*
X112777285Y-131502060D01*
G37*
G36*
X174089256Y-130962754D02*
G01*
X174252257Y-131030271D01*
X174398954Y-131128291D01*
X174523709Y-131253046D01*
X174621729Y-131399743D01*
X174689246Y-131562744D01*
X174723666Y-131735785D01*
X174723666Y-131912215D01*
X174689246Y-132085256D01*
X174621729Y-132248257D01*
X174523709Y-132394954D01*
X174398954Y-132519709D01*
X174252257Y-132617729D01*
X174089256Y-132685246D01*
X173916215Y-132719666D01*
X173739785Y-132719666D01*
X173566744Y-132685246D01*
X173403743Y-132617729D01*
X173257046Y-132519709D01*
X173132291Y-132394954D01*
X173034271Y-132248257D01*
X172966754Y-132085256D01*
X172932334Y-131912215D01*
X172932334Y-131735785D01*
X172966754Y-131562744D01*
X173034271Y-131399743D01*
X173132291Y-131253046D01*
X173257046Y-131128291D01*
X173403743Y-131030271D01*
X173566744Y-130962754D01*
X173739785Y-130928334D01*
X173916215Y-130928334D01*
X174089256Y-130962754D01*
G37*
G36*
X198874742Y-130250601D02*
G01*
X199028687Y-130314367D01*
X199167234Y-130406941D01*
X199285059Y-130524766D01*
X199377633Y-130663313D01*
X199441399Y-130817258D01*
X199473907Y-130980685D01*
X199473907Y-131147315D01*
X199441399Y-131310742D01*
X199377633Y-131464687D01*
X199285059Y-131603234D01*
X199167234Y-131721059D01*
X199028687Y-131813633D01*
X198874742Y-131877399D01*
X198711315Y-131909907D01*
X198544685Y-131909907D01*
X198381258Y-131877399D01*
X198227313Y-131813633D01*
X198088766Y-131721059D01*
X197970941Y-131603234D01*
X197878367Y-131464687D01*
X197814601Y-131310742D01*
X197782093Y-131147315D01*
X197782093Y-130980685D01*
X197814601Y-130817258D01*
X197878367Y-130663313D01*
X197970941Y-130524766D01*
X198088766Y-130406941D01*
X198227313Y-130314367D01*
X198381258Y-130250601D01*
X198544685Y-130218093D01*
X198711315Y-130218093D01*
X198874742Y-130250601D01*
G37*
G36*
X201414742Y-130250601D02*
G01*
X201568687Y-130314367D01*
X201707234Y-130406941D01*
X201825059Y-130524766D01*
X201917633Y-130663313D01*
X201981399Y-130817258D01*
X202013907Y-130980685D01*
X202013907Y-131147315D01*
X201981399Y-131310742D01*
X201917633Y-131464687D01*
X201825059Y-131603234D01*
X201707234Y-131721059D01*
X201568687Y-131813633D01*
X201414742Y-131877399D01*
X201251315Y-131909907D01*
X201084685Y-131909907D01*
X200921258Y-131877399D01*
X200767313Y-131813633D01*
X200628766Y-131721059D01*
X200510941Y-131603234D01*
X200418367Y-131464687D01*
X200354601Y-131310742D01*
X200322093Y-131147315D01*
X200322093Y-130980685D01*
X200354601Y-130817258D01*
X200418367Y-130663313D01*
X200510941Y-130524766D01*
X200628766Y-130406941D01*
X200767313Y-130314367D01*
X200921258Y-130250601D01*
X201084685Y-130218093D01*
X201251315Y-130218093D01*
X201414742Y-130250601D01*
G37*
G36*
X112777285Y-128327060D02*
G01*
X112958397Y-128402079D01*
X113121393Y-128510990D01*
X113260010Y-128649607D01*
X113368921Y-128812603D01*
X113443940Y-128993715D01*
X113482185Y-129185983D01*
X113482185Y-129382017D01*
X113443940Y-129574285D01*
X113368921Y-129755397D01*
X113260010Y-129918393D01*
X113121393Y-130057010D01*
X112958397Y-130165921D01*
X112777285Y-130240940D01*
X112585017Y-130279185D01*
X112388983Y-130279185D01*
X112196715Y-130240940D01*
X112015603Y-130165921D01*
X111852607Y-130057010D01*
X111713990Y-129918393D01*
X111605079Y-129755397D01*
X111530060Y-129574285D01*
X111491815Y-129382017D01*
X111491815Y-129185983D01*
X111530060Y-128993715D01*
X111605079Y-128812603D01*
X111713990Y-128649607D01*
X111852607Y-128510990D01*
X112015603Y-128402079D01*
X112196715Y-128327060D01*
X112388983Y-128288815D01*
X112585017Y-128288815D01*
X112777285Y-128327060D01*
G37*
G36*
X198874742Y-127710601D02*
G01*
X199028687Y-127774367D01*
X199167234Y-127866941D01*
X199285059Y-127984766D01*
X199377633Y-128123313D01*
X199441399Y-128277258D01*
X199473907Y-128440685D01*
X199473907Y-128607315D01*
X199441399Y-128770742D01*
X199377633Y-128924687D01*
X199285059Y-129063234D01*
X199167234Y-129181059D01*
X199028687Y-129273633D01*
X198874742Y-129337399D01*
X198711315Y-129369907D01*
X198544685Y-129369907D01*
X198381258Y-129337399D01*
X198227313Y-129273633D01*
X198088766Y-129181059D01*
X197970941Y-129063234D01*
X197878367Y-128924687D01*
X197814601Y-128770742D01*
X197782093Y-128607315D01*
X197782093Y-128440685D01*
X197814601Y-128277258D01*
X197878367Y-128123313D01*
X197970941Y-127984766D01*
X198088766Y-127866941D01*
X198227313Y-127774367D01*
X198381258Y-127710601D01*
X198544685Y-127678093D01*
X198711315Y-127678093D01*
X198874742Y-127710601D01*
G37*
G36*
X201414742Y-127710601D02*
G01*
X201568687Y-127774367D01*
X201707234Y-127866941D01*
X201825059Y-127984766D01*
X201917633Y-128123313D01*
X201981399Y-128277258D01*
X202013907Y-128440685D01*
X202013907Y-128607315D01*
X201981399Y-128770742D01*
X201917633Y-128924687D01*
X201825059Y-129063234D01*
X201707234Y-129181059D01*
X201568687Y-129273633D01*
X201414742Y-129337399D01*
X201251315Y-129369907D01*
X201084685Y-129369907D01*
X200921258Y-129337399D01*
X200767313Y-129273633D01*
X200628766Y-129181059D01*
X200510941Y-129063234D01*
X200418367Y-128924687D01*
X200354601Y-128770742D01*
X200322093Y-128607315D01*
X200322093Y-128440685D01*
X200354601Y-128277258D01*
X200418367Y-128123313D01*
X200510941Y-127984766D01*
X200628766Y-127866941D01*
X200767313Y-127774367D01*
X200921258Y-127710601D01*
X201084685Y-127678093D01*
X201251315Y-127678093D01*
X201414742Y-127710601D01*
G37*
G36*
X174089256Y-125962754D02*
G01*
X174252257Y-126030271D01*
X174398954Y-126128291D01*
X174523709Y-126253046D01*
X174621729Y-126399743D01*
X174689246Y-126562744D01*
X174723666Y-126735785D01*
X174723666Y-126912215D01*
X174689246Y-127085256D01*
X174621729Y-127248257D01*
X174523709Y-127394954D01*
X174398954Y-127519709D01*
X174252257Y-127617729D01*
X174089256Y-127685246D01*
X173916215Y-127719666D01*
X173739785Y-127719666D01*
X173566744Y-127685246D01*
X173403743Y-127617729D01*
X173257046Y-127519709D01*
X173132291Y-127394954D01*
X173034271Y-127248257D01*
X172966754Y-127085256D01*
X172932334Y-126912215D01*
X172932334Y-126735785D01*
X172966754Y-126562744D01*
X173034271Y-126399743D01*
X173132291Y-126253046D01*
X173257046Y-126128291D01*
X173403743Y-126030271D01*
X173566744Y-125962754D01*
X173739785Y-125928334D01*
X173916215Y-125928334D01*
X174089256Y-125962754D01*
G37*
G36*
X198874742Y-125170601D02*
G01*
X199028687Y-125234367D01*
X199167234Y-125326941D01*
X199285059Y-125444766D01*
X199377633Y-125583313D01*
X199441399Y-125737258D01*
X199473907Y-125900685D01*
X199473907Y-126067315D01*
X199441399Y-126230742D01*
X199377633Y-126384687D01*
X199285059Y-126523234D01*
X199167234Y-126641059D01*
X199028687Y-126733633D01*
X198874742Y-126797399D01*
X198711315Y-126829907D01*
X198544685Y-126829907D01*
X198381258Y-126797399D01*
X198227313Y-126733633D01*
X198088766Y-126641059D01*
X197970941Y-126523234D01*
X197878367Y-126384687D01*
X197814601Y-126230742D01*
X197782093Y-126067315D01*
X197782093Y-125900685D01*
X197814601Y-125737258D01*
X197878367Y-125583313D01*
X197970941Y-125444766D01*
X198088766Y-125326941D01*
X198227313Y-125234367D01*
X198381258Y-125170601D01*
X198544685Y-125138093D01*
X198711315Y-125138093D01*
X198874742Y-125170601D01*
G37*
G36*
X201414742Y-125170601D02*
G01*
X201568687Y-125234367D01*
X201707234Y-125326941D01*
X201825059Y-125444766D01*
X201917633Y-125583313D01*
X201981399Y-125737258D01*
X202013907Y-125900685D01*
X202013907Y-126067315D01*
X201981399Y-126230742D01*
X201917633Y-126384687D01*
X201825059Y-126523234D01*
X201707234Y-126641059D01*
X201568687Y-126733633D01*
X201414742Y-126797399D01*
X201251315Y-126829907D01*
X201084685Y-126829907D01*
X200921258Y-126797399D01*
X200767313Y-126733633D01*
X200628766Y-126641059D01*
X200510941Y-126523234D01*
X200418367Y-126384687D01*
X200354601Y-126230742D01*
X200322093Y-126067315D01*
X200322093Y-125900685D01*
X200354601Y-125737258D01*
X200418367Y-125583313D01*
X200510941Y-125444766D01*
X200628766Y-125326941D01*
X200767313Y-125234367D01*
X200921258Y-125170601D01*
X201084685Y-125138093D01*
X201251315Y-125138093D01*
X201414742Y-125170601D01*
G37*
G36*
X108078285Y-123882060D02*
G01*
X108259397Y-123957079D01*
X108422393Y-124065990D01*
X108561010Y-124204607D01*
X108669921Y-124367603D01*
X108744940Y-124548715D01*
X108783185Y-124740983D01*
X108783185Y-124937017D01*
X108744940Y-125129285D01*
X108669921Y-125310397D01*
X108561010Y-125473393D01*
X108422393Y-125612010D01*
X108259397Y-125720921D01*
X108078285Y-125795940D01*
X107886017Y-125834185D01*
X107689983Y-125834185D01*
X107497715Y-125795940D01*
X107316603Y-125720921D01*
X107153607Y-125612010D01*
X107014990Y-125473393D01*
X106906079Y-125310397D01*
X106831060Y-125129285D01*
X106792815Y-124937017D01*
X106792815Y-124740983D01*
X106831060Y-124548715D01*
X106906079Y-124367603D01*
X107014990Y-124204607D01*
X107153607Y-124065990D01*
X107316603Y-123957079D01*
X107497715Y-123882060D01*
X107689983Y-123843815D01*
X107886017Y-123843815D01*
X108078285Y-123882060D01*
G37*
G36*
X198874742Y-122630601D02*
G01*
X199028687Y-122694367D01*
X199167234Y-122786941D01*
X199285059Y-122904766D01*
X199377633Y-123043313D01*
X199441399Y-123197258D01*
X199473907Y-123360685D01*
X199473907Y-123527315D01*
X199441399Y-123690742D01*
X199377633Y-123844687D01*
X199285059Y-123983234D01*
X199167234Y-124101059D01*
X199028687Y-124193633D01*
X198874742Y-124257399D01*
X198711315Y-124289907D01*
X198544685Y-124289907D01*
X198381258Y-124257399D01*
X198227313Y-124193633D01*
X198088766Y-124101059D01*
X197970941Y-123983234D01*
X197878367Y-123844687D01*
X197814601Y-123690742D01*
X197782093Y-123527315D01*
X197782093Y-123360685D01*
X197814601Y-123197258D01*
X197878367Y-123043313D01*
X197970941Y-122904766D01*
X198088766Y-122786941D01*
X198227313Y-122694367D01*
X198381258Y-122630601D01*
X198544685Y-122598093D01*
X198711315Y-122598093D01*
X198874742Y-122630601D01*
G37*
G36*
X201414742Y-122630601D02*
G01*
X201568687Y-122694367D01*
X201707234Y-122786941D01*
X201825059Y-122904766D01*
X201917633Y-123043313D01*
X201981399Y-123197258D01*
X202013907Y-123360685D01*
X202013907Y-123527315D01*
X201981399Y-123690742D01*
X201917633Y-123844687D01*
X201825059Y-123983234D01*
X201707234Y-124101059D01*
X201568687Y-124193633D01*
X201414742Y-124257399D01*
X201251315Y-124289907D01*
X201084685Y-124289907D01*
X200921258Y-124257399D01*
X200767313Y-124193633D01*
X200628766Y-124101059D01*
X200510941Y-123983234D01*
X200418367Y-123844687D01*
X200354601Y-123690742D01*
X200322093Y-123527315D01*
X200322093Y-123360685D01*
X200354601Y-123197258D01*
X200418367Y-123043313D01*
X200510941Y-122904766D01*
X200628766Y-122786941D01*
X200767313Y-122694367D01*
X200921258Y-122630601D01*
X201084685Y-122598093D01*
X201251315Y-122598093D01*
X201414742Y-122630601D01*
G37*
G36*
X107453738Y-121148245D02*
G01*
X107507750Y-121150898D01*
X107514400Y-121152220D01*
X107528577Y-121153150D01*
X107555957Y-121160486D01*
X107624680Y-121174156D01*
X107657121Y-121187594D01*
X107680375Y-121193825D01*
X107701226Y-121205863D01*
X107733664Y-121219300D01*
X107791913Y-121258221D01*
X107816474Y-121272401D01*
X107823197Y-121279124D01*
X107831750Y-121284839D01*
X107915160Y-121368249D01*
X107920874Y-121376801D01*
X107927599Y-121383526D01*
X107941780Y-121408089D01*
X107980699Y-121466335D01*
X107994134Y-121498769D01*
X108006175Y-121519625D01*
X108012406Y-121542882D01*
X108025843Y-121575319D01*
X108039512Y-121644038D01*
X108046850Y-121671423D01*
X108046850Y-121680928D01*
X108048857Y-121691018D01*
X108048857Y-121808981D01*
X108046850Y-121819070D01*
X108046850Y-121828577D01*
X108039511Y-121855964D01*
X108025843Y-121924680D01*
X108012407Y-121957114D01*
X108006175Y-121980375D01*
X107994132Y-122001232D01*
X107980699Y-122033664D01*
X107941784Y-122091902D01*
X107927599Y-122116474D01*
X107920872Y-122123200D01*
X107915160Y-122131750D01*
X107831750Y-122215160D01*
X107823200Y-122220872D01*
X107816474Y-122227599D01*
X107791902Y-122241784D01*
X107733664Y-122280699D01*
X107701232Y-122294132D01*
X107680375Y-122306175D01*
X107657114Y-122312407D01*
X107624680Y-122325843D01*
X107555971Y-122339509D01*
X107528577Y-122346850D01*
X107514393Y-122347779D01*
X107507750Y-122349101D01*
X107453743Y-122351754D01*
X107450000Y-122352000D01*
X107448750Y-122352000D01*
X106651250Y-122352000D01*
X106650000Y-122352000D01*
X106646256Y-122351754D01*
X106592249Y-122349101D01*
X106585605Y-122347779D01*
X106571423Y-122346850D01*
X106544031Y-122339510D01*
X106475319Y-122325843D01*
X106442882Y-122312406D01*
X106419625Y-122306175D01*
X106398769Y-122294134D01*
X106366335Y-122280699D01*
X106308089Y-122241780D01*
X106283526Y-122227599D01*
X106276801Y-122220874D01*
X106268249Y-122215160D01*
X106184839Y-122131750D01*
X106179124Y-122123197D01*
X106172401Y-122116474D01*
X106158221Y-122091913D01*
X106119300Y-122033664D01*
X106105863Y-122001226D01*
X106093825Y-121980375D01*
X106087594Y-121957121D01*
X106074156Y-121924680D01*
X106060487Y-121855958D01*
X106053150Y-121828577D01*
X106053150Y-121819071D01*
X106051143Y-121808981D01*
X106051143Y-121691018D01*
X106053150Y-121680927D01*
X106053150Y-121671423D01*
X106060486Y-121644044D01*
X106074156Y-121575319D01*
X106087594Y-121542875D01*
X106093825Y-121519625D01*
X106105862Y-121498775D01*
X106119300Y-121466335D01*
X106158225Y-121408078D01*
X106172401Y-121383526D01*
X106179122Y-121376804D01*
X106184839Y-121368249D01*
X106268249Y-121284839D01*
X106276804Y-121279122D01*
X106283526Y-121272401D01*
X106308078Y-121258225D01*
X106366335Y-121219300D01*
X106398775Y-121205862D01*
X106419625Y-121193825D01*
X106442875Y-121187594D01*
X106475319Y-121174156D01*
X106544045Y-121160485D01*
X106571423Y-121153150D01*
X106585597Y-121152220D01*
X106592249Y-121150898D01*
X106646261Y-121148245D01*
X106650000Y-121148000D01*
X107450000Y-121148000D01*
X107453738Y-121148245D01*
G37*
G36*
X111783738Y-121148245D02*
G01*
X111837750Y-121150898D01*
X111844400Y-121152220D01*
X111858577Y-121153150D01*
X111885957Y-121160486D01*
X111954680Y-121174156D01*
X111987121Y-121187594D01*
X112010375Y-121193825D01*
X112031226Y-121205863D01*
X112063664Y-121219300D01*
X112121913Y-121258221D01*
X112146474Y-121272401D01*
X112153197Y-121279124D01*
X112161750Y-121284839D01*
X112245160Y-121368249D01*
X112250874Y-121376801D01*
X112257599Y-121383526D01*
X112271780Y-121408089D01*
X112310699Y-121466335D01*
X112324134Y-121498769D01*
X112336175Y-121519625D01*
X112342406Y-121542882D01*
X112355843Y-121575319D01*
X112369512Y-121644038D01*
X112376850Y-121671423D01*
X112376850Y-121680928D01*
X112378857Y-121691018D01*
X112378857Y-121808981D01*
X112376850Y-121819070D01*
X112376850Y-121828577D01*
X112369511Y-121855964D01*
X112355843Y-121924680D01*
X112342407Y-121957114D01*
X112336175Y-121980375D01*
X112324132Y-122001232D01*
X112310699Y-122033664D01*
X112271784Y-122091902D01*
X112257599Y-122116474D01*
X112250872Y-122123200D01*
X112245160Y-122131750D01*
X112161750Y-122215160D01*
X112153200Y-122220872D01*
X112146474Y-122227599D01*
X112121902Y-122241784D01*
X112063664Y-122280699D01*
X112031232Y-122294132D01*
X112010375Y-122306175D01*
X111987114Y-122312407D01*
X111954680Y-122325843D01*
X111885971Y-122339509D01*
X111858577Y-122346850D01*
X111844393Y-122347779D01*
X111837750Y-122349101D01*
X111783743Y-122351754D01*
X111780000Y-122352000D01*
X111778750Y-122352000D01*
X110681250Y-122352000D01*
X110680000Y-122352000D01*
X110676256Y-122351754D01*
X110622249Y-122349101D01*
X110615605Y-122347779D01*
X110601423Y-122346850D01*
X110574031Y-122339510D01*
X110505319Y-122325843D01*
X110472882Y-122312406D01*
X110449625Y-122306175D01*
X110428769Y-122294134D01*
X110396335Y-122280699D01*
X110338089Y-122241780D01*
X110313526Y-122227599D01*
X110306801Y-122220874D01*
X110298249Y-122215160D01*
X110214839Y-122131750D01*
X110209124Y-122123197D01*
X110202401Y-122116474D01*
X110188221Y-122091913D01*
X110149300Y-122033664D01*
X110135863Y-122001226D01*
X110123825Y-121980375D01*
X110117594Y-121957121D01*
X110104156Y-121924680D01*
X110090487Y-121855958D01*
X110083150Y-121828577D01*
X110083150Y-121819071D01*
X110081143Y-121808981D01*
X110081143Y-121691018D01*
X110083150Y-121680927D01*
X110083150Y-121671423D01*
X110090486Y-121644044D01*
X110104156Y-121575319D01*
X110117594Y-121542875D01*
X110123825Y-121519625D01*
X110135862Y-121498775D01*
X110149300Y-121466335D01*
X110188225Y-121408078D01*
X110202401Y-121383526D01*
X110209122Y-121376804D01*
X110214839Y-121368249D01*
X110298249Y-121284839D01*
X110306804Y-121279122D01*
X110313526Y-121272401D01*
X110338078Y-121258225D01*
X110396335Y-121219300D01*
X110428775Y-121205862D01*
X110449625Y-121193825D01*
X110472875Y-121187594D01*
X110505319Y-121174156D01*
X110574045Y-121160485D01*
X110601423Y-121153150D01*
X110615597Y-121152220D01*
X110622249Y-121150898D01*
X110676261Y-121148245D01*
X110680000Y-121148000D01*
X111780000Y-121148000D01*
X111783738Y-121148245D01*
G37*
G36*
X198874742Y-120090601D02*
G01*
X199028687Y-120154367D01*
X199167234Y-120246941D01*
X199285059Y-120364766D01*
X199377633Y-120503313D01*
X199441399Y-120657258D01*
X199473907Y-120820685D01*
X199473907Y-120987315D01*
X199441399Y-121150742D01*
X199377633Y-121304687D01*
X199285059Y-121443234D01*
X199167234Y-121561059D01*
X199028687Y-121653633D01*
X198874742Y-121717399D01*
X198711315Y-121749907D01*
X198544685Y-121749907D01*
X198381258Y-121717399D01*
X198227313Y-121653633D01*
X198088766Y-121561059D01*
X197970941Y-121443234D01*
X197878367Y-121304687D01*
X197814601Y-121150742D01*
X197782093Y-120987315D01*
X197782093Y-120820685D01*
X197814601Y-120657258D01*
X197878367Y-120503313D01*
X197970941Y-120364766D01*
X198088766Y-120246941D01*
X198227313Y-120154367D01*
X198381258Y-120090601D01*
X198544685Y-120058093D01*
X198711315Y-120058093D01*
X198874742Y-120090601D01*
G37*
G36*
X201414742Y-120090601D02*
G01*
X201568687Y-120154367D01*
X201707234Y-120246941D01*
X201825059Y-120364766D01*
X201917633Y-120503313D01*
X201981399Y-120657258D01*
X202013907Y-120820685D01*
X202013907Y-120987315D01*
X201981399Y-121150742D01*
X201917633Y-121304687D01*
X201825059Y-121443234D01*
X201707234Y-121561059D01*
X201568687Y-121653633D01*
X201414742Y-121717399D01*
X201251315Y-121749907D01*
X201084685Y-121749907D01*
X200921258Y-121717399D01*
X200767313Y-121653633D01*
X200628766Y-121561059D01*
X200510941Y-121443234D01*
X200418367Y-121304687D01*
X200354601Y-121150742D01*
X200322093Y-120987315D01*
X200322093Y-120820685D01*
X200354601Y-120657258D01*
X200418367Y-120503313D01*
X200510941Y-120364766D01*
X200628766Y-120246941D01*
X200767313Y-120154367D01*
X200921258Y-120090601D01*
X201084685Y-120058093D01*
X201251315Y-120058093D01*
X201414742Y-120090601D01*
G37*
G36*
X110854372Y-120019739D02*
G01*
X110927847Y-120062160D01*
X110987840Y-120122153D01*
X111030261Y-120195628D01*
X111052220Y-120277579D01*
X111052220Y-120362421D01*
X111030261Y-120444372D01*
X110987840Y-120517847D01*
X110927847Y-120577840D01*
X110854372Y-120620261D01*
X110772421Y-120642220D01*
X110687579Y-120642220D01*
X110605628Y-120620261D01*
X110532153Y-120577840D01*
X110472160Y-120517847D01*
X110429739Y-120444372D01*
X110407780Y-120362421D01*
X110407780Y-120277579D01*
X110429739Y-120195628D01*
X110472160Y-120122153D01*
X110532153Y-120062160D01*
X110605628Y-120019739D01*
X110687579Y-119997780D01*
X110772421Y-119997780D01*
X110854372Y-120019739D01*
G37*
G36*
X198874742Y-117550601D02*
G01*
X199028687Y-117614367D01*
X199167234Y-117706941D01*
X199285059Y-117824766D01*
X199377633Y-117963313D01*
X199441399Y-118117258D01*
X199473907Y-118280685D01*
X199473907Y-118447315D01*
X199441399Y-118610742D01*
X199377633Y-118764687D01*
X199285059Y-118903234D01*
X199167234Y-119021059D01*
X199028687Y-119113633D01*
X198874742Y-119177399D01*
X198711315Y-119209907D01*
X198544685Y-119209907D01*
X198381258Y-119177399D01*
X198227313Y-119113633D01*
X198088766Y-119021059D01*
X197970941Y-118903234D01*
X197878367Y-118764687D01*
X197814601Y-118610742D01*
X197782093Y-118447315D01*
X197782093Y-118280685D01*
X197814601Y-118117258D01*
X197878367Y-117963313D01*
X197970941Y-117824766D01*
X198088766Y-117706941D01*
X198227313Y-117614367D01*
X198381258Y-117550601D01*
X198544685Y-117518093D01*
X198711315Y-117518093D01*
X198874742Y-117550601D01*
G37*
G36*
X201414742Y-117550601D02*
G01*
X201568687Y-117614367D01*
X201707234Y-117706941D01*
X201825059Y-117824766D01*
X201917633Y-117963313D01*
X201981399Y-118117258D01*
X202013907Y-118280685D01*
X202013907Y-118447315D01*
X201981399Y-118610742D01*
X201917633Y-118764687D01*
X201825059Y-118903234D01*
X201707234Y-119021059D01*
X201568687Y-119113633D01*
X201414742Y-119177399D01*
X201251315Y-119209907D01*
X201084685Y-119209907D01*
X200921258Y-119177399D01*
X200767313Y-119113633D01*
X200628766Y-119021059D01*
X200510941Y-118903234D01*
X200418367Y-118764687D01*
X200354601Y-118610742D01*
X200322093Y-118447315D01*
X200322093Y-118280685D01*
X200354601Y-118117258D01*
X200418367Y-117963313D01*
X200510941Y-117824766D01*
X200628766Y-117706941D01*
X200767313Y-117614367D01*
X200921258Y-117550601D01*
X201084685Y-117518093D01*
X201251315Y-117518093D01*
X201414742Y-117550601D01*
G37*
G36*
X199478000Y-116674000D02*
G01*
X197778000Y-116674000D01*
X197778000Y-114974000D01*
X199478000Y-114974000D01*
X199478000Y-116674000D01*
G37*
G36*
X201414742Y-115010601D02*
G01*
X201568687Y-115074367D01*
X201707234Y-115166941D01*
X201825059Y-115284766D01*
X201917633Y-115423313D01*
X201981399Y-115577258D01*
X202013907Y-115740685D01*
X202013907Y-115907315D01*
X201981399Y-116070742D01*
X201917633Y-116224687D01*
X201825059Y-116363234D01*
X201707234Y-116481059D01*
X201568687Y-116573633D01*
X201414742Y-116637399D01*
X201251315Y-116669907D01*
X201084685Y-116669907D01*
X200921258Y-116637399D01*
X200767313Y-116573633D01*
X200628766Y-116481059D01*
X200510941Y-116363234D01*
X200418367Y-116224687D01*
X200354601Y-116070742D01*
X200322093Y-115907315D01*
X200322093Y-115740685D01*
X200354601Y-115577258D01*
X200418367Y-115423313D01*
X200510941Y-115284766D01*
X200628766Y-115166941D01*
X200767313Y-115074367D01*
X200921258Y-115010601D01*
X201084685Y-114978093D01*
X201251315Y-114978093D01*
X201414742Y-115010601D01*
G37*
G36*
X110854372Y-114239739D02*
G01*
X110927847Y-114282160D01*
X110987840Y-114342153D01*
X111030261Y-114415628D01*
X111052220Y-114497579D01*
X111052220Y-114582421D01*
X111030261Y-114664372D01*
X110987840Y-114737847D01*
X110927847Y-114797840D01*
X110854372Y-114840261D01*
X110772421Y-114862220D01*
X110687579Y-114862220D01*
X110605628Y-114840261D01*
X110532153Y-114797840D01*
X110472160Y-114737847D01*
X110429739Y-114664372D01*
X110407780Y-114582421D01*
X110407780Y-114497579D01*
X110429739Y-114415628D01*
X110472160Y-114342153D01*
X110532153Y-114282160D01*
X110605628Y-114239739D01*
X110687579Y-114217780D01*
X110772421Y-114217780D01*
X110854372Y-114239739D01*
G37*
G36*
X107453738Y-112508245D02*
G01*
X107507750Y-112510898D01*
X107514400Y-112512220D01*
X107528577Y-112513150D01*
X107555957Y-112520486D01*
X107624680Y-112534156D01*
X107657121Y-112547594D01*
X107680375Y-112553825D01*
X107701226Y-112565863D01*
X107733664Y-112579300D01*
X107791913Y-112618221D01*
X107816474Y-112632401D01*
X107823197Y-112639124D01*
X107831750Y-112644839D01*
X107915160Y-112728249D01*
X107920874Y-112736801D01*
X107927599Y-112743526D01*
X107941780Y-112768089D01*
X107980699Y-112826335D01*
X107994134Y-112858769D01*
X108006175Y-112879625D01*
X108012406Y-112902882D01*
X108025843Y-112935319D01*
X108039512Y-113004038D01*
X108046850Y-113031423D01*
X108046850Y-113040928D01*
X108048857Y-113051018D01*
X108048857Y-113168981D01*
X108046850Y-113179070D01*
X108046850Y-113188577D01*
X108039511Y-113215964D01*
X108025843Y-113284680D01*
X108012407Y-113317114D01*
X108006175Y-113340375D01*
X107994132Y-113361232D01*
X107980699Y-113393664D01*
X107941784Y-113451902D01*
X107927599Y-113476474D01*
X107920872Y-113483200D01*
X107915160Y-113491750D01*
X107831750Y-113575160D01*
X107823200Y-113580872D01*
X107816474Y-113587599D01*
X107791902Y-113601784D01*
X107733664Y-113640699D01*
X107701232Y-113654132D01*
X107680375Y-113666175D01*
X107657114Y-113672407D01*
X107624680Y-113685843D01*
X107555971Y-113699509D01*
X107528577Y-113706850D01*
X107514393Y-113707779D01*
X107507750Y-113709101D01*
X107453743Y-113711754D01*
X107450000Y-113712000D01*
X107448750Y-113712000D01*
X106651250Y-113712000D01*
X106650000Y-113712000D01*
X106646256Y-113711754D01*
X106592249Y-113709101D01*
X106585605Y-113707779D01*
X106571423Y-113706850D01*
X106544031Y-113699510D01*
X106475319Y-113685843D01*
X106442882Y-113672406D01*
X106419625Y-113666175D01*
X106398769Y-113654134D01*
X106366335Y-113640699D01*
X106308089Y-113601780D01*
X106283526Y-113587599D01*
X106276801Y-113580874D01*
X106268249Y-113575160D01*
X106184839Y-113491750D01*
X106179124Y-113483197D01*
X106172401Y-113476474D01*
X106158221Y-113451913D01*
X106119300Y-113393664D01*
X106105863Y-113361226D01*
X106093825Y-113340375D01*
X106087594Y-113317121D01*
X106074156Y-113284680D01*
X106060487Y-113215958D01*
X106053150Y-113188577D01*
X106053150Y-113179071D01*
X106051143Y-113168981D01*
X106051143Y-113051018D01*
X106053150Y-113040927D01*
X106053150Y-113031423D01*
X106060486Y-113004044D01*
X106074156Y-112935319D01*
X106087594Y-112902875D01*
X106093825Y-112879625D01*
X106105862Y-112858775D01*
X106119300Y-112826335D01*
X106158225Y-112768078D01*
X106172401Y-112743526D01*
X106179122Y-112736804D01*
X106184839Y-112728249D01*
X106268249Y-112644839D01*
X106276804Y-112639122D01*
X106283526Y-112632401D01*
X106308078Y-112618225D01*
X106366335Y-112579300D01*
X106398775Y-112565862D01*
X106419625Y-112553825D01*
X106442875Y-112547594D01*
X106475319Y-112534156D01*
X106544045Y-112520485D01*
X106571423Y-112513150D01*
X106585597Y-112512220D01*
X106592249Y-112510898D01*
X106646261Y-112508245D01*
X106650000Y-112508000D01*
X107450000Y-112508000D01*
X107453738Y-112508245D01*
G37*
G36*
X111783738Y-112508245D02*
G01*
X111837750Y-112510898D01*
X111844400Y-112512220D01*
X111858577Y-112513150D01*
X111885957Y-112520486D01*
X111954680Y-112534156D01*
X111987121Y-112547594D01*
X112010375Y-112553825D01*
X112031226Y-112565863D01*
X112063664Y-112579300D01*
X112121913Y-112618221D01*
X112146474Y-112632401D01*
X112153197Y-112639124D01*
X112161750Y-112644839D01*
X112245160Y-112728249D01*
X112250874Y-112736801D01*
X112257599Y-112743526D01*
X112271780Y-112768089D01*
X112310699Y-112826335D01*
X112324134Y-112858769D01*
X112336175Y-112879625D01*
X112342406Y-112902882D01*
X112355843Y-112935319D01*
X112369512Y-113004038D01*
X112376850Y-113031423D01*
X112376850Y-113040928D01*
X112378857Y-113051018D01*
X112378857Y-113168981D01*
X112376850Y-113179070D01*
X112376850Y-113188577D01*
X112369511Y-113215964D01*
X112355843Y-113284680D01*
X112342407Y-113317114D01*
X112336175Y-113340375D01*
X112324132Y-113361232D01*
X112310699Y-113393664D01*
X112271784Y-113451902D01*
X112257599Y-113476474D01*
X112250872Y-113483200D01*
X112245160Y-113491750D01*
X112161750Y-113575160D01*
X112153200Y-113580872D01*
X112146474Y-113587599D01*
X112121902Y-113601784D01*
X112063664Y-113640699D01*
X112031232Y-113654132D01*
X112010375Y-113666175D01*
X111987114Y-113672407D01*
X111954680Y-113685843D01*
X111885971Y-113699509D01*
X111858577Y-113706850D01*
X111844393Y-113707779D01*
X111837750Y-113709101D01*
X111783743Y-113711754D01*
X111780000Y-113712000D01*
X111778750Y-113712000D01*
X110681250Y-113712000D01*
X110680000Y-113712000D01*
X110676256Y-113711754D01*
X110622249Y-113709101D01*
X110615605Y-113707779D01*
X110601423Y-113706850D01*
X110574031Y-113699510D01*
X110505319Y-113685843D01*
X110472882Y-113672406D01*
X110449625Y-113666175D01*
X110428769Y-113654134D01*
X110396335Y-113640699D01*
X110338089Y-113601780D01*
X110313526Y-113587599D01*
X110306801Y-113580874D01*
X110298249Y-113575160D01*
X110214839Y-113491750D01*
X110209124Y-113483197D01*
X110202401Y-113476474D01*
X110188221Y-113451913D01*
X110149300Y-113393664D01*
X110135863Y-113361226D01*
X110123825Y-113340375D01*
X110117594Y-113317121D01*
X110104156Y-113284680D01*
X110090487Y-113215958D01*
X110083150Y-113188577D01*
X110083150Y-113179071D01*
X110081143Y-113168981D01*
X110081143Y-113051018D01*
X110083150Y-113040927D01*
X110083150Y-113031423D01*
X110090486Y-113004044D01*
X110104156Y-112935319D01*
X110117594Y-112902875D01*
X110123825Y-112879625D01*
X110135862Y-112858775D01*
X110149300Y-112826335D01*
X110188225Y-112768078D01*
X110202401Y-112743526D01*
X110209122Y-112736804D01*
X110214839Y-112728249D01*
X110298249Y-112644839D01*
X110306804Y-112639122D01*
X110313526Y-112632401D01*
X110338078Y-112618225D01*
X110396335Y-112579300D01*
X110428775Y-112565862D01*
X110449625Y-112553825D01*
X110472875Y-112547594D01*
X110505319Y-112534156D01*
X110574045Y-112520485D01*
X110601423Y-112513150D01*
X110615597Y-112512220D01*
X110622249Y-112510898D01*
X110676261Y-112508245D01*
X110680000Y-112508000D01*
X111780000Y-112508000D01*
X111783738Y-112508245D01*
G37*
G36*
X164753000Y-111354000D02*
G01*
X163053000Y-111354000D01*
X163053000Y-109654000D01*
X164753000Y-109654000D01*
X164753000Y-111354000D01*
G37*
G36*
X202170400Y-110324000D02*
G01*
X200470400Y-110324000D01*
X200470400Y-108624000D01*
X202170400Y-108624000D01*
X202170400Y-110324000D01*
G37*
G36*
X164149742Y-107150601D02*
G01*
X164303687Y-107214367D01*
X164442234Y-107306941D01*
X164560059Y-107424766D01*
X164652633Y-107563313D01*
X164716399Y-107717258D01*
X164748907Y-107880685D01*
X164748907Y-108047315D01*
X164716399Y-108210742D01*
X164652633Y-108364687D01*
X164560059Y-108503234D01*
X164442234Y-108621059D01*
X164303687Y-108713633D01*
X164149742Y-108777399D01*
X163986315Y-108809907D01*
X163819685Y-108809907D01*
X163656258Y-108777399D01*
X163502313Y-108713633D01*
X163363766Y-108621059D01*
X163245941Y-108503234D01*
X163153367Y-108364687D01*
X163089601Y-108210742D01*
X163057093Y-108047315D01*
X163057093Y-107880685D01*
X163089601Y-107717258D01*
X163153367Y-107563313D01*
X163245941Y-107424766D01*
X163363766Y-107306941D01*
X163502313Y-107214367D01*
X163656258Y-107150601D01*
X163819685Y-107118093D01*
X163986315Y-107118093D01*
X164149742Y-107150601D01*
G37*
G36*
X112190285Y-106143060D02*
G01*
X112371397Y-106218079D01*
X112534393Y-106326990D01*
X112673010Y-106465607D01*
X112781921Y-106628603D01*
X112856940Y-106809715D01*
X112895185Y-107001983D01*
X112895185Y-107198017D01*
X112856940Y-107390285D01*
X112781921Y-107571397D01*
X112673010Y-107734393D01*
X112534393Y-107873010D01*
X112371397Y-107981921D01*
X112190285Y-108056940D01*
X111998017Y-108095185D01*
X111801983Y-108095185D01*
X111609715Y-108056940D01*
X111428603Y-107981921D01*
X111265607Y-107873010D01*
X111126990Y-107734393D01*
X111018079Y-107571397D01*
X110943060Y-107390285D01*
X110904815Y-107198017D01*
X110904815Y-107001983D01*
X110943060Y-106809715D01*
X111018079Y-106628603D01*
X111126990Y-106465607D01*
X111265607Y-106326990D01*
X111428603Y-106218079D01*
X111609715Y-106143060D01*
X111801983Y-106104815D01*
X111998017Y-106104815D01*
X112190285Y-106143060D01*
G37*
G36*
X146746685Y-106027860D02*
G01*
X146927797Y-106102879D01*
X147090793Y-106211790D01*
X147229410Y-106350407D01*
X147338321Y-106513403D01*
X147413340Y-106694515D01*
X147451585Y-106886783D01*
X147451585Y-107082817D01*
X147413340Y-107275085D01*
X147338321Y-107456197D01*
X147229410Y-107619193D01*
X147090793Y-107757810D01*
X146927797Y-107866721D01*
X146746685Y-107941740D01*
X146554417Y-107979985D01*
X146358383Y-107979985D01*
X146166115Y-107941740D01*
X145985003Y-107866721D01*
X145822007Y-107757810D01*
X145683390Y-107619193D01*
X145574479Y-107456197D01*
X145499460Y-107275085D01*
X145461215Y-107082817D01*
X145461215Y-106886783D01*
X145499460Y-106694515D01*
X145574479Y-106513403D01*
X145683390Y-106350407D01*
X145822007Y-106211790D01*
X145985003Y-106102879D01*
X146166115Y-106027860D01*
X146358383Y-105989615D01*
X146554417Y-105989615D01*
X146746685Y-106027860D01*
G37*
G36*
X201567142Y-106120601D02*
G01*
X201721087Y-106184367D01*
X201859634Y-106276941D01*
X201977459Y-106394766D01*
X202070033Y-106533313D01*
X202133799Y-106687258D01*
X202166307Y-106850685D01*
X202166307Y-107017315D01*
X202133799Y-107180742D01*
X202070033Y-107334687D01*
X201977459Y-107473234D01*
X201859634Y-107591059D01*
X201721087Y-107683633D01*
X201567142Y-107747399D01*
X201403715Y-107779907D01*
X201237085Y-107779907D01*
X201073658Y-107747399D01*
X200919713Y-107683633D01*
X200781166Y-107591059D01*
X200663341Y-107473234D01*
X200570767Y-107334687D01*
X200507001Y-107180742D01*
X200474493Y-107017315D01*
X200474493Y-106850685D01*
X200507001Y-106687258D01*
X200570767Y-106533313D01*
X200663341Y-106394766D01*
X200781166Y-106276941D01*
X200919713Y-106184367D01*
X201073658Y-106120601D01*
X201237085Y-106088093D01*
X201403715Y-106088093D01*
X201567142Y-106120601D01*
G37*
G36*
X201567142Y-103580601D02*
G01*
X201721087Y-103644367D01*
X201859634Y-103736941D01*
X201977459Y-103854766D01*
X202070033Y-103993313D01*
X202133799Y-104147258D01*
X202166307Y-104310685D01*
X202166307Y-104477315D01*
X202133799Y-104640742D01*
X202070033Y-104794687D01*
X201977459Y-104933234D01*
X201859634Y-105051059D01*
X201721087Y-105143633D01*
X201567142Y-105207399D01*
X201403715Y-105239907D01*
X201237085Y-105239907D01*
X201073658Y-105207399D01*
X200919713Y-105143633D01*
X200781166Y-105051059D01*
X200663341Y-104933234D01*
X200570767Y-104794687D01*
X200507001Y-104640742D01*
X200474493Y-104477315D01*
X200474493Y-104310685D01*
X200507001Y-104147258D01*
X200570767Y-103993313D01*
X200663341Y-103854766D01*
X200781166Y-103736941D01*
X200919713Y-103644367D01*
X201073658Y-103580601D01*
X201237085Y-103548093D01*
X201403715Y-103548093D01*
X201567142Y-103580601D01*
G37*
G36*
X112240285Y-103043060D02*
G01*
X112421397Y-103118079D01*
X112584393Y-103226990D01*
X112723010Y-103365607D01*
X112831921Y-103528603D01*
X112906940Y-103709715D01*
X112945185Y-103901983D01*
X112945185Y-104098017D01*
X112906940Y-104290285D01*
X112831921Y-104471397D01*
X112723010Y-104634393D01*
X112584393Y-104773010D01*
X112421397Y-104881921D01*
X112240285Y-104956940D01*
X112048017Y-104995185D01*
X111851983Y-104995185D01*
X111659715Y-104956940D01*
X111478603Y-104881921D01*
X111315607Y-104773010D01*
X111176990Y-104634393D01*
X111068079Y-104471397D01*
X110993060Y-104290285D01*
X110954815Y-104098017D01*
X110954815Y-103901983D01*
X110993060Y-103709715D01*
X111068079Y-103528603D01*
X111176990Y-103365607D01*
X111315607Y-103226990D01*
X111478603Y-103118079D01*
X111659715Y-103043060D01*
X111851983Y-103004815D01*
X112048017Y-103004815D01*
X112240285Y-103043060D01*
G37*
G36*
X146594285Y-101252660D02*
G01*
X146775397Y-101327679D01*
X146938393Y-101436590D01*
X147077010Y-101575207D01*
X147185921Y-101738203D01*
X147260940Y-101919315D01*
X147299185Y-102111583D01*
X147299185Y-102307617D01*
X147260940Y-102499885D01*
X147185921Y-102680997D01*
X147077010Y-102843993D01*
X146938393Y-102982610D01*
X146775397Y-103091521D01*
X146594285Y-103166540D01*
X146402017Y-103204785D01*
X146205983Y-103204785D01*
X146013715Y-103166540D01*
X145832603Y-103091521D01*
X145669607Y-102982610D01*
X145530990Y-102843993D01*
X145422079Y-102680997D01*
X145347060Y-102499885D01*
X145308815Y-102307617D01*
X145308815Y-102111583D01*
X145347060Y-101919315D01*
X145422079Y-101738203D01*
X145530990Y-101575207D01*
X145669607Y-101436590D01*
X145832603Y-101327679D01*
X146013715Y-101252660D01*
X146205983Y-101214415D01*
X146402017Y-101214415D01*
X146594285Y-101252660D01*
G37*
G36*
X112269285Y-99983060D02*
G01*
X112450397Y-100058079D01*
X112613393Y-100166990D01*
X112752010Y-100305607D01*
X112860921Y-100468603D01*
X112935940Y-100649715D01*
X112974185Y-100841983D01*
X112974185Y-101038017D01*
X112935940Y-101230285D01*
X112860921Y-101411397D01*
X112752010Y-101574393D01*
X112613393Y-101713010D01*
X112450397Y-101821921D01*
X112269285Y-101896940D01*
X112077017Y-101935185D01*
X111880983Y-101935185D01*
X111688715Y-101896940D01*
X111507603Y-101821921D01*
X111344607Y-101713010D01*
X111205990Y-101574393D01*
X111097079Y-101411397D01*
X111022060Y-101230285D01*
X110983815Y-101038017D01*
X110983815Y-100841983D01*
X111022060Y-100649715D01*
X111097079Y-100468603D01*
X111205990Y-100305607D01*
X111344607Y-100166990D01*
X111507603Y-100058079D01*
X111688715Y-99983060D01*
X111880983Y-99944815D01*
X112077017Y-99944815D01*
X112269285Y-99983060D01*
G37*
G36*
X201983000Y-99990000D02*
G01*
X200283000Y-99990000D01*
X200283000Y-98290000D01*
X201983000Y-98290000D01*
X201983000Y-99990000D01*
G37*
G36*
X112269285Y-96883060D02*
G01*
X112450397Y-96958079D01*
X112613393Y-97066990D01*
X112752010Y-97205607D01*
X112860921Y-97368603D01*
X112935940Y-97549715D01*
X112974185Y-97741983D01*
X112974185Y-97938017D01*
X112935940Y-98130285D01*
X112860921Y-98311397D01*
X112752010Y-98474393D01*
X112613393Y-98613010D01*
X112450397Y-98721921D01*
X112269285Y-98796940D01*
X112077017Y-98835185D01*
X111880983Y-98835185D01*
X111688715Y-98796940D01*
X111507603Y-98721921D01*
X111344607Y-98613010D01*
X111205990Y-98474393D01*
X111097079Y-98311397D01*
X111022060Y-98130285D01*
X110983815Y-97938017D01*
X110983815Y-97741983D01*
X111022060Y-97549715D01*
X111097079Y-97368603D01*
X111205990Y-97205607D01*
X111344607Y-97066990D01*
X111507603Y-96958079D01*
X111688715Y-96883060D01*
X111880983Y-96844815D01*
X112077017Y-96844815D01*
X112269285Y-96883060D01*
G37*
G36*
X201379742Y-95786601D02*
G01*
X201533687Y-95850367D01*
X201672234Y-95942941D01*
X201790059Y-96060766D01*
X201882633Y-96199313D01*
X201946399Y-96353258D01*
X201978907Y-96516685D01*
X201978907Y-96683315D01*
X201946399Y-96846742D01*
X201882633Y-97000687D01*
X201790059Y-97139234D01*
X201672234Y-97257059D01*
X201533687Y-97349633D01*
X201379742Y-97413399D01*
X201216315Y-97445907D01*
X201049685Y-97445907D01*
X200886258Y-97413399D01*
X200732313Y-97349633D01*
X200593766Y-97257059D01*
X200475941Y-97139234D01*
X200383367Y-97000687D01*
X200319601Y-96846742D01*
X200287093Y-96683315D01*
X200287093Y-96516685D01*
X200319601Y-96353258D01*
X200383367Y-96199313D01*
X200475941Y-96060766D01*
X200593766Y-95942941D01*
X200732313Y-95850367D01*
X200886258Y-95786601D01*
X201049685Y-95754093D01*
X201216315Y-95754093D01*
X201379742Y-95786601D01*
G37*
G36*
X111990285Y-93743060D02*
G01*
X112171397Y-93818079D01*
X112334393Y-93926990D01*
X112473010Y-94065607D01*
X112581921Y-94228603D01*
X112656940Y-94409715D01*
X112695185Y-94601983D01*
X112695185Y-94798017D01*
X112656940Y-94990285D01*
X112581921Y-95171397D01*
X112473010Y-95334393D01*
X112334393Y-95473010D01*
X112171397Y-95581921D01*
X111990285Y-95656940D01*
X111798017Y-95695185D01*
X111601983Y-95695185D01*
X111409715Y-95656940D01*
X111228603Y-95581921D01*
X111065607Y-95473010D01*
X110926990Y-95334393D01*
X110818079Y-95171397D01*
X110743060Y-94990285D01*
X110704815Y-94798017D01*
X110704815Y-94601983D01*
X110743060Y-94409715D01*
X110818079Y-94228603D01*
X110926990Y-94065607D01*
X111065607Y-93926990D01*
X111228603Y-93818079D01*
X111409715Y-93743060D01*
X111601983Y-93704815D01*
X111798017Y-93704815D01*
X111990285Y-93743060D01*
G37*
G36*
X201379742Y-93246601D02*
G01*
X201533687Y-93310367D01*
X201672234Y-93402941D01*
X201790059Y-93520766D01*
X201882633Y-93659313D01*
X201946399Y-93813258D01*
X201978907Y-93976685D01*
X201978907Y-94143315D01*
X201946399Y-94306742D01*
X201882633Y-94460687D01*
X201790059Y-94599234D01*
X201672234Y-94717059D01*
X201533687Y-94809633D01*
X201379742Y-94873399D01*
X201216315Y-94905907D01*
X201049685Y-94905907D01*
X200886258Y-94873399D01*
X200732313Y-94809633D01*
X200593766Y-94717059D01*
X200475941Y-94599234D01*
X200383367Y-94460687D01*
X200319601Y-94306742D01*
X200287093Y-94143315D01*
X200287093Y-93976685D01*
X200319601Y-93813258D01*
X200383367Y-93659313D01*
X200475941Y-93520766D01*
X200593766Y-93402941D01*
X200732313Y-93310367D01*
X200886258Y-93246601D01*
X201049685Y-93214093D01*
X201216315Y-93214093D01*
X201379742Y-93246601D01*
G37*
G36*
X109931744Y-89264245D02*
G01*
X109985555Y-89266889D01*
X109992178Y-89268206D01*
X110006316Y-89269133D01*
X110033622Y-89276449D01*
X110102100Y-89290070D01*
X110134423Y-89303459D01*
X110157610Y-89309672D01*
X110178401Y-89321676D01*
X110210722Y-89335064D01*
X110268770Y-89373850D01*
X110293257Y-89387988D01*
X110299959Y-89394690D01*
X110308482Y-89400385D01*
X110391614Y-89483517D01*
X110397308Y-89492039D01*
X110404012Y-89498743D01*
X110418151Y-89523233D01*
X110456935Y-89581277D01*
X110470321Y-89613594D01*
X110482328Y-89634390D01*
X110488541Y-89657580D01*
X110501929Y-89689899D01*
X110515548Y-89758371D01*
X110522867Y-89785684D01*
X110522867Y-89795164D01*
X110524866Y-89805214D01*
X110524866Y-89922785D01*
X110522867Y-89932834D01*
X110522867Y-89942316D01*
X110515547Y-89969631D01*
X110501929Y-90038100D01*
X110488542Y-90070416D01*
X110482328Y-90093610D01*
X110470320Y-90114407D01*
X110456935Y-90146722D01*
X110418155Y-90204759D01*
X110404012Y-90229257D01*
X110397306Y-90235962D01*
X110391614Y-90244482D01*
X110308482Y-90327614D01*
X110299962Y-90333306D01*
X110293257Y-90340012D01*
X110268759Y-90354155D01*
X110210722Y-90392935D01*
X110178407Y-90406320D01*
X110157610Y-90418328D01*
X110134416Y-90424542D01*
X110102100Y-90437929D01*
X110033636Y-90451546D01*
X110006316Y-90458867D01*
X109992170Y-90459794D01*
X109985555Y-90461110D01*
X109931749Y-90463754D01*
X109928000Y-90464000D01*
X109926749Y-90464000D01*
X109379251Y-90464000D01*
X109378000Y-90464000D01*
X109374250Y-90463754D01*
X109320444Y-90461110D01*
X109313827Y-90459794D01*
X109299684Y-90458867D01*
X109272366Y-90451547D01*
X109203899Y-90437929D01*
X109171580Y-90424541D01*
X109148390Y-90418328D01*
X109127594Y-90406321D01*
X109095277Y-90392935D01*
X109037233Y-90354151D01*
X109012743Y-90340012D01*
X109006039Y-90333308D01*
X108997517Y-90327614D01*
X108914385Y-90244482D01*
X108908690Y-90235959D01*
X108901988Y-90229257D01*
X108887850Y-90204770D01*
X108849064Y-90146722D01*
X108835676Y-90114401D01*
X108823672Y-90093610D01*
X108817459Y-90070423D01*
X108804070Y-90038100D01*
X108790450Y-89969625D01*
X108783133Y-89942316D01*
X108783133Y-89932835D01*
X108781134Y-89922785D01*
X108781134Y-89805214D01*
X108783133Y-89795163D01*
X108783133Y-89785684D01*
X108790449Y-89758377D01*
X108804070Y-89689899D01*
X108817459Y-89657573D01*
X108823672Y-89634390D01*
X108835674Y-89613600D01*
X108849064Y-89581277D01*
X108887854Y-89523222D01*
X108901988Y-89498743D01*
X108908688Y-89492042D01*
X108914385Y-89483517D01*
X108997517Y-89400385D01*
X109006042Y-89394688D01*
X109012743Y-89387988D01*
X109037222Y-89373854D01*
X109095277Y-89335064D01*
X109127600Y-89321674D01*
X109148390Y-89309672D01*
X109171573Y-89303459D01*
X109203899Y-89290070D01*
X109272380Y-89276448D01*
X109299684Y-89269133D01*
X109313820Y-89268206D01*
X109320444Y-89266889D01*
X109374256Y-89264245D01*
X109378000Y-89264000D01*
X109928000Y-89264000D01*
X109931744Y-89264245D01*
G37*
G36*
X110282116Y-87264818D02*
G01*
X110333379Y-87270766D01*
X110350892Y-87278499D01*
X110373671Y-87283030D01*
X110398057Y-87299324D01*
X110418788Y-87308478D01*
X110432946Y-87322636D01*
X110454777Y-87337223D01*
X110469363Y-87359053D01*
X110483521Y-87373211D01*
X110492673Y-87393939D01*
X110508970Y-87418329D01*
X110513501Y-87441109D01*
X110521233Y-87458620D01*
X110527178Y-87509872D01*
X110528000Y-87514000D01*
X110528000Y-88214000D01*
X110527178Y-88218128D01*
X110521233Y-88269379D01*
X110513501Y-88286888D01*
X110508970Y-88309671D01*
X110492672Y-88334062D01*
X110483521Y-88354788D01*
X110469365Y-88368943D01*
X110454777Y-88390777D01*
X110432943Y-88405365D01*
X110418788Y-88419521D01*
X110398062Y-88428672D01*
X110373671Y-88444970D01*
X110350888Y-88449501D01*
X110333379Y-88457233D01*
X110282129Y-88463178D01*
X110278000Y-88464000D01*
X109028000Y-88464000D01*
X109023873Y-88463179D01*
X108972620Y-88457233D01*
X108955109Y-88449501D01*
X108932329Y-88444970D01*
X108907939Y-88428673D01*
X108887211Y-88419521D01*
X108873053Y-88405363D01*
X108851223Y-88390777D01*
X108836636Y-88368946D01*
X108822478Y-88354788D01*
X108813324Y-88334057D01*
X108797030Y-88309671D01*
X108792499Y-88286892D01*
X108784766Y-88269379D01*
X108778818Y-88218117D01*
X108778000Y-88214000D01*
X108778000Y-87514000D01*
X108778818Y-87509885D01*
X108784766Y-87458620D01*
X108792499Y-87441105D01*
X108797030Y-87418329D01*
X108813323Y-87393944D01*
X108822478Y-87373211D01*
X108836638Y-87359050D01*
X108851223Y-87337223D01*
X108873050Y-87322638D01*
X108887211Y-87308478D01*
X108907944Y-87299323D01*
X108932329Y-87283030D01*
X108955105Y-87278499D01*
X108972620Y-87270766D01*
X109023884Y-87264818D01*
X109028000Y-87264000D01*
X110278000Y-87264000D01*
X110282116Y-87264818D01*
G37*
G36*
X155068285Y-85147060D02*
G01*
X155249397Y-85222079D01*
X155412393Y-85330990D01*
X155551010Y-85469607D01*
X155659921Y-85632603D01*
X155734940Y-85813715D01*
X155773185Y-86005983D01*
X155773185Y-86202017D01*
X155734940Y-86394285D01*
X155659921Y-86575397D01*
X155551010Y-86738393D01*
X155412393Y-86877010D01*
X155249397Y-86985921D01*
X155068285Y-87060940D01*
X154876017Y-87099185D01*
X154679983Y-87099185D01*
X154487715Y-87060940D01*
X154306603Y-86985921D01*
X154143607Y-86877010D01*
X154004990Y-86738393D01*
X153896079Y-86575397D01*
X153821060Y-86394285D01*
X153782815Y-86202017D01*
X153782815Y-86005983D01*
X153821060Y-85813715D01*
X153896079Y-85632603D01*
X154004990Y-85469607D01*
X154143607Y-85330990D01*
X154306603Y-85222079D01*
X154487715Y-85147060D01*
X154679983Y-85108815D01*
X154876017Y-85108815D01*
X155068285Y-85147060D01*
G37*
G36*
X159513285Y-85147060D02*
G01*
X159694397Y-85222079D01*
X159857393Y-85330990D01*
X159996010Y-85469607D01*
X160104921Y-85632603D01*
X160179940Y-85813715D01*
X160218185Y-86005983D01*
X160218185Y-86202017D01*
X160179940Y-86394285D01*
X160104921Y-86575397D01*
X159996010Y-86738393D01*
X159857393Y-86877010D01*
X159694397Y-86985921D01*
X159513285Y-87060940D01*
X159321017Y-87099185D01*
X159124983Y-87099185D01*
X158932715Y-87060940D01*
X158751603Y-86985921D01*
X158588607Y-86877010D01*
X158449990Y-86738393D01*
X158341079Y-86575397D01*
X158266060Y-86394285D01*
X158227815Y-86202017D01*
X158227815Y-86005983D01*
X158266060Y-85813715D01*
X158341079Y-85632603D01*
X158449990Y-85469607D01*
X158588607Y-85330990D01*
X158751603Y-85222079D01*
X158932715Y-85147060D01*
X159124983Y-85108815D01*
X159321017Y-85108815D01*
X159513285Y-85147060D01*
G37*
G36*
X201379742Y-80210601D02*
G01*
X201533687Y-80274367D01*
X201672234Y-80366941D01*
X201790059Y-80484766D01*
X201882633Y-80623313D01*
X201946399Y-80777258D01*
X201978907Y-80940685D01*
X201978907Y-81107315D01*
X201946399Y-81270742D01*
X201882633Y-81424687D01*
X201790059Y-81563234D01*
X201672234Y-81681059D01*
X201533687Y-81773633D01*
X201379742Y-81837399D01*
X201216315Y-81869907D01*
X201049685Y-81869907D01*
X200886258Y-81837399D01*
X200732313Y-81773633D01*
X200593766Y-81681059D01*
X200475941Y-81563234D01*
X200383367Y-81424687D01*
X200319601Y-81270742D01*
X200287093Y-81107315D01*
X200287093Y-80940685D01*
X200319601Y-80777258D01*
X200383367Y-80623313D01*
X200475941Y-80484766D01*
X200593766Y-80366941D01*
X200732313Y-80274367D01*
X200886258Y-80210601D01*
X201049685Y-80178093D01*
X201216315Y-80178093D01*
X201379742Y-80210601D01*
G37*
G36*
X201379742Y-77670601D02*
G01*
X201533687Y-77734367D01*
X201672234Y-77826941D01*
X201790059Y-77944766D01*
X201882633Y-78083313D01*
X201946399Y-78237258D01*
X201978907Y-78400685D01*
X201978907Y-78567315D01*
X201946399Y-78730742D01*
X201882633Y-78884687D01*
X201790059Y-79023234D01*
X201672234Y-79141059D01*
X201533687Y-79233633D01*
X201379742Y-79297399D01*
X201216315Y-79329907D01*
X201049685Y-79329907D01*
X200886258Y-79297399D01*
X200732313Y-79233633D01*
X200593766Y-79141059D01*
X200475941Y-79023234D01*
X200383367Y-78884687D01*
X200319601Y-78730742D01*
X200287093Y-78567315D01*
X200287093Y-78400685D01*
X200319601Y-78237258D01*
X200383367Y-78083313D01*
X200475941Y-77944766D01*
X200593766Y-77826941D01*
X200732313Y-77734367D01*
X200886258Y-77670601D01*
X201049685Y-77638093D01*
X201216315Y-77638093D01*
X201379742Y-77670601D01*
G37*
G36*
X127128285Y-76257060D02*
G01*
X127309397Y-76332079D01*
X127472393Y-76440990D01*
X127611010Y-76579607D01*
X127719921Y-76742603D01*
X127794940Y-76923715D01*
X127833185Y-77115983D01*
X127833185Y-77312017D01*
X127794940Y-77504285D01*
X127719921Y-77685397D01*
X127611010Y-77848393D01*
X127472393Y-77987010D01*
X127309397Y-78095921D01*
X127128285Y-78170940D01*
X126936017Y-78209185D01*
X126739983Y-78209185D01*
X126547715Y-78170940D01*
X126366603Y-78095921D01*
X126203607Y-77987010D01*
X126064990Y-77848393D01*
X125956079Y-77685397D01*
X125881060Y-77504285D01*
X125842815Y-77312017D01*
X125842815Y-77115983D01*
X125881060Y-76923715D01*
X125956079Y-76742603D01*
X126064990Y-76579607D01*
X126203607Y-76440990D01*
X126366603Y-76332079D01*
X126547715Y-76257060D01*
X126739983Y-76218815D01*
X126936017Y-76218815D01*
X127128285Y-76257060D01*
G37*
G36*
X130303285Y-76257060D02*
G01*
X130484397Y-76332079D01*
X130647393Y-76440990D01*
X130786010Y-76579607D01*
X130894921Y-76742603D01*
X130969940Y-76923715D01*
X131008185Y-77115983D01*
X131008185Y-77312017D01*
X130969940Y-77504285D01*
X130894921Y-77685397D01*
X130786010Y-77848393D01*
X130647393Y-77987010D01*
X130484397Y-78095921D01*
X130303285Y-78170940D01*
X130111017Y-78209185D01*
X129914983Y-78209185D01*
X129722715Y-78170940D01*
X129541603Y-78095921D01*
X129378607Y-77987010D01*
X129239990Y-77848393D01*
X129131079Y-77685397D01*
X129056060Y-77504285D01*
X129017815Y-77312017D01*
X129017815Y-77115983D01*
X129056060Y-76923715D01*
X129131079Y-76742603D01*
X129239990Y-76579607D01*
X129378607Y-76440990D01*
X129541603Y-76332079D01*
X129722715Y-76257060D01*
X129914983Y-76218815D01*
X130111017Y-76218815D01*
X130303285Y-76257060D01*
G37*
G36*
X133478285Y-76257060D02*
G01*
X133659397Y-76332079D01*
X133822393Y-76440990D01*
X133961010Y-76579607D01*
X134069921Y-76742603D01*
X134144940Y-76923715D01*
X134183185Y-77115983D01*
X134183185Y-77312017D01*
X134144940Y-77504285D01*
X134069921Y-77685397D01*
X133961010Y-77848393D01*
X133822393Y-77987010D01*
X133659397Y-78095921D01*
X133478285Y-78170940D01*
X133286017Y-78209185D01*
X133089983Y-78209185D01*
X132897715Y-78170940D01*
X132716603Y-78095921D01*
X132553607Y-77987010D01*
X132414990Y-77848393D01*
X132306079Y-77685397D01*
X132231060Y-77504285D01*
X132192815Y-77312017D01*
X132192815Y-77115983D01*
X132231060Y-76923715D01*
X132306079Y-76742603D01*
X132414990Y-76579607D01*
X132553607Y-76440990D01*
X132716603Y-76332079D01*
X132897715Y-76257060D01*
X133089983Y-76218815D01*
X133286017Y-76218815D01*
X133478285Y-76257060D01*
G37*
G36*
X136653285Y-76257060D02*
G01*
X136834397Y-76332079D01*
X136997393Y-76440990D01*
X137136010Y-76579607D01*
X137244921Y-76742603D01*
X137319940Y-76923715D01*
X137358185Y-77115983D01*
X137358185Y-77312017D01*
X137319940Y-77504285D01*
X137244921Y-77685397D01*
X137136010Y-77848393D01*
X136997393Y-77987010D01*
X136834397Y-78095921D01*
X136653285Y-78170940D01*
X136461017Y-78209185D01*
X136264983Y-78209185D01*
X136072715Y-78170940D01*
X135891603Y-78095921D01*
X135728607Y-77987010D01*
X135589990Y-77848393D01*
X135481079Y-77685397D01*
X135406060Y-77504285D01*
X135367815Y-77312017D01*
X135367815Y-77115983D01*
X135406060Y-76923715D01*
X135481079Y-76742603D01*
X135589990Y-76579607D01*
X135728607Y-76440990D01*
X135891603Y-76332079D01*
X136072715Y-76257060D01*
X136264983Y-76218815D01*
X136461017Y-76218815D01*
X136653285Y-76257060D01*
G37*
G36*
X139828285Y-76257060D02*
G01*
X140009397Y-76332079D01*
X140172393Y-76440990D01*
X140311010Y-76579607D01*
X140419921Y-76742603D01*
X140494940Y-76923715D01*
X140533185Y-77115983D01*
X140533185Y-77312017D01*
X140494940Y-77504285D01*
X140419921Y-77685397D01*
X140311010Y-77848393D01*
X140172393Y-77987010D01*
X140009397Y-78095921D01*
X139828285Y-78170940D01*
X139636017Y-78209185D01*
X139439983Y-78209185D01*
X139247715Y-78170940D01*
X139066603Y-78095921D01*
X138903607Y-77987010D01*
X138764990Y-77848393D01*
X138656079Y-77685397D01*
X138581060Y-77504285D01*
X138542815Y-77312017D01*
X138542815Y-77115983D01*
X138581060Y-76923715D01*
X138656079Y-76742603D01*
X138764990Y-76579607D01*
X138903607Y-76440990D01*
X139066603Y-76332079D01*
X139247715Y-76257060D01*
X139439983Y-76218815D01*
X139636017Y-76218815D01*
X139828285Y-76257060D01*
G37*
G36*
X143003285Y-76257060D02*
G01*
X143184397Y-76332079D01*
X143347393Y-76440990D01*
X143486010Y-76579607D01*
X143594921Y-76742603D01*
X143669940Y-76923715D01*
X143708185Y-77115983D01*
X143708185Y-77312017D01*
X143669940Y-77504285D01*
X143594921Y-77685397D01*
X143486010Y-77848393D01*
X143347393Y-77987010D01*
X143184397Y-78095921D01*
X143003285Y-78170940D01*
X142811017Y-78209185D01*
X142614983Y-78209185D01*
X142422715Y-78170940D01*
X142241603Y-78095921D01*
X142078607Y-77987010D01*
X141939990Y-77848393D01*
X141831079Y-77685397D01*
X141756060Y-77504285D01*
X141717815Y-77312017D01*
X141717815Y-77115983D01*
X141756060Y-76923715D01*
X141831079Y-76742603D01*
X141939990Y-76579607D01*
X142078607Y-76440990D01*
X142241603Y-76332079D01*
X142422715Y-76257060D01*
X142614983Y-76218815D01*
X142811017Y-76218815D01*
X143003285Y-76257060D01*
G37*
G36*
X146178285Y-76257060D02*
G01*
X146359397Y-76332079D01*
X146522393Y-76440990D01*
X146661010Y-76579607D01*
X146769921Y-76742603D01*
X146844940Y-76923715D01*
X146883185Y-77115983D01*
X146883185Y-77312017D01*
X146844940Y-77504285D01*
X146769921Y-77685397D01*
X146661010Y-77848393D01*
X146522393Y-77987010D01*
X146359397Y-78095921D01*
X146178285Y-78170940D01*
X145986017Y-78209185D01*
X145789983Y-78209185D01*
X145597715Y-78170940D01*
X145416603Y-78095921D01*
X145253607Y-77987010D01*
X145114990Y-77848393D01*
X145006079Y-77685397D01*
X144931060Y-77504285D01*
X144892815Y-77312017D01*
X144892815Y-77115983D01*
X144931060Y-76923715D01*
X145006079Y-76742603D01*
X145114990Y-76579607D01*
X145253607Y-76440990D01*
X145416603Y-76332079D01*
X145597715Y-76257060D01*
X145789983Y-76218815D01*
X145986017Y-76218815D01*
X146178285Y-76257060D01*
G37*
G36*
X201983000Y-76794000D02*
G01*
X200283000Y-76794000D01*
X200283000Y-75094000D01*
X201983000Y-75094000D01*
X201983000Y-76794000D01*
G37*
G36*
X170133000Y-76275000D02*
G01*
X168633000Y-76275000D01*
X168633000Y-74775000D01*
X170133000Y-74775000D01*
X170133000Y-76275000D01*
G37*
G36*
X172140714Y-74807295D02*
G01*
X172276548Y-74863559D01*
X172398795Y-74945242D01*
X172502758Y-75049205D01*
X172584441Y-75171452D01*
X172640705Y-75307286D01*
X172669389Y-75451487D01*
X172669389Y-75598513D01*
X172640705Y-75742714D01*
X172584441Y-75878548D01*
X172502758Y-76000795D01*
X172398795Y-76104758D01*
X172276548Y-76186441D01*
X172140714Y-76242705D01*
X171996513Y-76271389D01*
X171849487Y-76271389D01*
X171705286Y-76242705D01*
X171569452Y-76186441D01*
X171447205Y-76104758D01*
X171343242Y-76000795D01*
X171261559Y-75878548D01*
X171205295Y-75742714D01*
X171176611Y-75598513D01*
X171176611Y-75451487D01*
X171205295Y-75307286D01*
X171261559Y-75171452D01*
X171343242Y-75049205D01*
X171447205Y-74945242D01*
X171569452Y-74863559D01*
X171705286Y-74807295D01*
X171849487Y-74778611D01*
X171996513Y-74778611D01*
X172140714Y-74807295D01*
G37*
G36*
X174680714Y-74807295D02*
G01*
X174816548Y-74863559D01*
X174938795Y-74945242D01*
X175042758Y-75049205D01*
X175124441Y-75171452D01*
X175180705Y-75307286D01*
X175209389Y-75451487D01*
X175209389Y-75598513D01*
X175180705Y-75742714D01*
X175124441Y-75878548D01*
X175042758Y-76000795D01*
X174938795Y-76104758D01*
X174816548Y-76186441D01*
X174680714Y-76242705D01*
X174536513Y-76271389D01*
X174389487Y-76271389D01*
X174245286Y-76242705D01*
X174109452Y-76186441D01*
X173987205Y-76104758D01*
X173883242Y-76000795D01*
X173801559Y-75878548D01*
X173745295Y-75742714D01*
X173716611Y-75598513D01*
X173716611Y-75451487D01*
X173745295Y-75307286D01*
X173801559Y-75171452D01*
X173883242Y-75049205D01*
X173987205Y-74945242D01*
X174109452Y-74863559D01*
X174245286Y-74807295D01*
X174389487Y-74778611D01*
X174536513Y-74778611D01*
X174680714Y-74807295D01*
G37*
G36*
X177220714Y-74807295D02*
G01*
X177356548Y-74863559D01*
X177478795Y-74945242D01*
X177582758Y-75049205D01*
X177664441Y-75171452D01*
X177720705Y-75307286D01*
X177749389Y-75451487D01*
X177749389Y-75598513D01*
X177720705Y-75742714D01*
X177664441Y-75878548D01*
X177582758Y-76000795D01*
X177478795Y-76104758D01*
X177356548Y-76186441D01*
X177220714Y-76242705D01*
X177076513Y-76271389D01*
X176929487Y-76271389D01*
X176785286Y-76242705D01*
X176649452Y-76186441D01*
X176527205Y-76104758D01*
X176423242Y-76000795D01*
X176341559Y-75878548D01*
X176285295Y-75742714D01*
X176256611Y-75598513D01*
X176256611Y-75451487D01*
X176285295Y-75307286D01*
X176341559Y-75171452D01*
X176423242Y-75049205D01*
X176527205Y-74945242D01*
X176649452Y-74863559D01*
X176785286Y-74807295D01*
X176929487Y-74778611D01*
X177076513Y-74778611D01*
X177220714Y-74807295D01*
G37*
G36*
X179760714Y-74807295D02*
G01*
X179896548Y-74863559D01*
X180018795Y-74945242D01*
X180122758Y-75049205D01*
X180204441Y-75171452D01*
X180260705Y-75307286D01*
X180289389Y-75451487D01*
X180289389Y-75598513D01*
X180260705Y-75742714D01*
X180204441Y-75878548D01*
X180122758Y-76000795D01*
X180018795Y-76104758D01*
X179896548Y-76186441D01*
X179760714Y-76242705D01*
X179616513Y-76271389D01*
X179469487Y-76271389D01*
X179325286Y-76242705D01*
X179189452Y-76186441D01*
X179067205Y-76104758D01*
X178963242Y-76000795D01*
X178881559Y-75878548D01*
X178825295Y-75742714D01*
X178796611Y-75598513D01*
X178796611Y-75451487D01*
X178825295Y-75307286D01*
X178881559Y-75171452D01*
X178963242Y-75049205D01*
X179067205Y-74945242D01*
X179189452Y-74863559D01*
X179325286Y-74807295D01*
X179469487Y-74778611D01*
X179616513Y-74778611D01*
X179760714Y-74807295D01*
G37*
G36*
X182300714Y-74807295D02*
G01*
X182436548Y-74863559D01*
X182558795Y-74945242D01*
X182662758Y-75049205D01*
X182744441Y-75171452D01*
X182800705Y-75307286D01*
X182829389Y-75451487D01*
X182829389Y-75598513D01*
X182800705Y-75742714D01*
X182744441Y-75878548D01*
X182662758Y-76000795D01*
X182558795Y-76104758D01*
X182436548Y-76186441D01*
X182300714Y-76242705D01*
X182156513Y-76271389D01*
X182009487Y-76271389D01*
X181865286Y-76242705D01*
X181729452Y-76186441D01*
X181607205Y-76104758D01*
X181503242Y-76000795D01*
X181421559Y-75878548D01*
X181365295Y-75742714D01*
X181336611Y-75598513D01*
X181336611Y-75451487D01*
X181365295Y-75307286D01*
X181421559Y-75171452D01*
X181503242Y-75049205D01*
X181607205Y-74945242D01*
X181729452Y-74863559D01*
X181865286Y-74807295D01*
X182009487Y-74778611D01*
X182156513Y-74778611D01*
X182300714Y-74807295D01*
G37*
G36*
X184840714Y-74807295D02*
G01*
X184976548Y-74863559D01*
X185098795Y-74945242D01*
X185202758Y-75049205D01*
X185284441Y-75171452D01*
X185340705Y-75307286D01*
X185369389Y-75451487D01*
X185369389Y-75598513D01*
X185340705Y-75742714D01*
X185284441Y-75878548D01*
X185202758Y-76000795D01*
X185098795Y-76104758D01*
X184976548Y-76186441D01*
X184840714Y-76242705D01*
X184696513Y-76271389D01*
X184549487Y-76271389D01*
X184405286Y-76242705D01*
X184269452Y-76186441D01*
X184147205Y-76104758D01*
X184043242Y-76000795D01*
X183961559Y-75878548D01*
X183905295Y-75742714D01*
X183876611Y-75598513D01*
X183876611Y-75451487D01*
X183905295Y-75307286D01*
X183961559Y-75171452D01*
X184043242Y-75049205D01*
X184147205Y-74945242D01*
X184269452Y-74863559D01*
X184405286Y-74807295D01*
X184549487Y-74778611D01*
X184696513Y-74778611D01*
X184840714Y-74807295D01*
G37*
G36*
X146178285Y-73082060D02*
G01*
X146359397Y-73157079D01*
X146522393Y-73265990D01*
X146661010Y-73404607D01*
X146769921Y-73567603D01*
X146844940Y-73748715D01*
X146883185Y-73940983D01*
X146883185Y-74137017D01*
X146844940Y-74329285D01*
X146769921Y-74510397D01*
X146661010Y-74673393D01*
X146522393Y-74812010D01*
X146359397Y-74920921D01*
X146178285Y-74995940D01*
X145986017Y-75034185D01*
X145789983Y-75034185D01*
X145597715Y-74995940D01*
X145416603Y-74920921D01*
X145253607Y-74812010D01*
X145114990Y-74673393D01*
X145006079Y-74510397D01*
X144931060Y-74329285D01*
X144892815Y-74137017D01*
X144892815Y-73940983D01*
X144931060Y-73748715D01*
X145006079Y-73567603D01*
X145114990Y-73404607D01*
X145253607Y-73265990D01*
X145416603Y-73157079D01*
X145597715Y-73082060D01*
X145789983Y-73043815D01*
X145986017Y-73043815D01*
X146178285Y-73082060D01*
G37*
G36*
X196299742Y-70050601D02*
G01*
X196453687Y-70114367D01*
X196592234Y-70206941D01*
X196710059Y-70324766D01*
X196802633Y-70463313D01*
X196866399Y-70617258D01*
X196898907Y-70780685D01*
X196898907Y-70947315D01*
X196866399Y-71110742D01*
X196802633Y-71264687D01*
X196710059Y-71403234D01*
X196592234Y-71521059D01*
X196453687Y-71613633D01*
X196299742Y-71677399D01*
X196136315Y-71709907D01*
X195969685Y-71709907D01*
X195806258Y-71677399D01*
X195652313Y-71613633D01*
X195513766Y-71521059D01*
X195395941Y-71403234D01*
X195303367Y-71264687D01*
X195239601Y-71110742D01*
X195207093Y-70947315D01*
X195207093Y-70780685D01*
X195239601Y-70617258D01*
X195303367Y-70463313D01*
X195395941Y-70324766D01*
X195513766Y-70206941D01*
X195652313Y-70114367D01*
X195806258Y-70050601D01*
X195969685Y-70018093D01*
X196136315Y-70018093D01*
X196299742Y-70050601D01*
G37*
G36*
X198839742Y-70050601D02*
G01*
X198993687Y-70114367D01*
X199132234Y-70206941D01*
X199250059Y-70324766D01*
X199342633Y-70463313D01*
X199406399Y-70617258D01*
X199438907Y-70780685D01*
X199438907Y-70947315D01*
X199406399Y-71110742D01*
X199342633Y-71264687D01*
X199250059Y-71403234D01*
X199132234Y-71521059D01*
X198993687Y-71613633D01*
X198839742Y-71677399D01*
X198676315Y-71709907D01*
X198509685Y-71709907D01*
X198346258Y-71677399D01*
X198192313Y-71613633D01*
X198053766Y-71521059D01*
X197935941Y-71403234D01*
X197843367Y-71264687D01*
X197779601Y-71110742D01*
X197747093Y-70947315D01*
X197747093Y-70780685D01*
X197779601Y-70617258D01*
X197843367Y-70463313D01*
X197935941Y-70324766D01*
X198053766Y-70206941D01*
X198192313Y-70114367D01*
X198346258Y-70050601D01*
X198509685Y-70018093D01*
X198676315Y-70018093D01*
X198839742Y-70050601D01*
G37*
G36*
X196299742Y-67510601D02*
G01*
X196453687Y-67574367D01*
X196592234Y-67666941D01*
X196710059Y-67784766D01*
X196802633Y-67923313D01*
X196866399Y-68077258D01*
X196898907Y-68240685D01*
X196898907Y-68407315D01*
X196866399Y-68570742D01*
X196802633Y-68724687D01*
X196710059Y-68863234D01*
X196592234Y-68981059D01*
X196453687Y-69073633D01*
X196299742Y-69137399D01*
X196136315Y-69169907D01*
X195969685Y-69169907D01*
X195806258Y-69137399D01*
X195652313Y-69073633D01*
X195513766Y-68981059D01*
X195395941Y-68863234D01*
X195303367Y-68724687D01*
X195239601Y-68570742D01*
X195207093Y-68407315D01*
X195207093Y-68240685D01*
X195239601Y-68077258D01*
X195303367Y-67923313D01*
X195395941Y-67784766D01*
X195513766Y-67666941D01*
X195652313Y-67574367D01*
X195806258Y-67510601D01*
X195969685Y-67478093D01*
X196136315Y-67478093D01*
X196299742Y-67510601D01*
G37*
G36*
X198839742Y-67510601D02*
G01*
X198993687Y-67574367D01*
X199132234Y-67666941D01*
X199250059Y-67784766D01*
X199342633Y-67923313D01*
X199406399Y-68077258D01*
X199438907Y-68240685D01*
X199438907Y-68407315D01*
X199406399Y-68570742D01*
X199342633Y-68724687D01*
X199250059Y-68863234D01*
X199132234Y-68981059D01*
X198993687Y-69073633D01*
X198839742Y-69137399D01*
X198676315Y-69169907D01*
X198509685Y-69169907D01*
X198346258Y-69137399D01*
X198192313Y-69073633D01*
X198053766Y-68981059D01*
X197935941Y-68863234D01*
X197843367Y-68724687D01*
X197779601Y-68570742D01*
X197747093Y-68407315D01*
X197747093Y-68240685D01*
X197779601Y-68077258D01*
X197843367Y-67923313D01*
X197935941Y-67784766D01*
X198053766Y-67666941D01*
X198192313Y-67574367D01*
X198346258Y-67510601D01*
X198509685Y-67478093D01*
X198676315Y-67478093D01*
X198839742Y-67510601D01*
G37*
G36*
X169600714Y-67187295D02*
G01*
X169736548Y-67243559D01*
X169858795Y-67325242D01*
X169962758Y-67429205D01*
X170044441Y-67551452D01*
X170100705Y-67687286D01*
X170129389Y-67831487D01*
X170129389Y-67978513D01*
X170100705Y-68122714D01*
X170044441Y-68258548D01*
X169962758Y-68380795D01*
X169858795Y-68484758D01*
X169736548Y-68566441D01*
X169600714Y-68622705D01*
X169456513Y-68651389D01*
X169309487Y-68651389D01*
X169165286Y-68622705D01*
X169029452Y-68566441D01*
X168907205Y-68484758D01*
X168803242Y-68380795D01*
X168721559Y-68258548D01*
X168665295Y-68122714D01*
X168636611Y-67978513D01*
X168636611Y-67831487D01*
X168665295Y-67687286D01*
X168721559Y-67551452D01*
X168803242Y-67429205D01*
X168907205Y-67325242D01*
X169029452Y-67243559D01*
X169165286Y-67187295D01*
X169309487Y-67158611D01*
X169456513Y-67158611D01*
X169600714Y-67187295D01*
G37*
G36*
X172140714Y-67187295D02*
G01*
X172276548Y-67243559D01*
X172398795Y-67325242D01*
X172502758Y-67429205D01*
X172584441Y-67551452D01*
X172640705Y-67687286D01*
X172669389Y-67831487D01*
X172669389Y-67978513D01*
X172640705Y-68122714D01*
X172584441Y-68258548D01*
X172502758Y-68380795D01*
X172398795Y-68484758D01*
X172276548Y-68566441D01*
X172140714Y-68622705D01*
X171996513Y-68651389D01*
X171849487Y-68651389D01*
X171705286Y-68622705D01*
X171569452Y-68566441D01*
X171447205Y-68484758D01*
X171343242Y-68380795D01*
X171261559Y-68258548D01*
X171205295Y-68122714D01*
X171176611Y-67978513D01*
X171176611Y-67831487D01*
X171205295Y-67687286D01*
X171261559Y-67551452D01*
X171343242Y-67429205D01*
X171447205Y-67325242D01*
X171569452Y-67243559D01*
X171705286Y-67187295D01*
X171849487Y-67158611D01*
X171996513Y-67158611D01*
X172140714Y-67187295D01*
G37*
G36*
X174680714Y-67187295D02*
G01*
X174816548Y-67243559D01*
X174938795Y-67325242D01*
X175042758Y-67429205D01*
X175124441Y-67551452D01*
X175180705Y-67687286D01*
X175209389Y-67831487D01*
X175209389Y-67978513D01*
X175180705Y-68122714D01*
X175124441Y-68258548D01*
X175042758Y-68380795D01*
X174938795Y-68484758D01*
X174816548Y-68566441D01*
X174680714Y-68622705D01*
X174536513Y-68651389D01*
X174389487Y-68651389D01*
X174245286Y-68622705D01*
X174109452Y-68566441D01*
X173987205Y-68484758D01*
X173883242Y-68380795D01*
X173801559Y-68258548D01*
X173745295Y-68122714D01*
X173716611Y-67978513D01*
X173716611Y-67831487D01*
X173745295Y-67687286D01*
X173801559Y-67551452D01*
X173883242Y-67429205D01*
X173987205Y-67325242D01*
X174109452Y-67243559D01*
X174245286Y-67187295D01*
X174389487Y-67158611D01*
X174536513Y-67158611D01*
X174680714Y-67187295D01*
G37*
G36*
X177220714Y-67187295D02*
G01*
X177356548Y-67243559D01*
X177478795Y-67325242D01*
X177582758Y-67429205D01*
X177664441Y-67551452D01*
X177720705Y-67687286D01*
X177749389Y-67831487D01*
X177749389Y-67978513D01*
X177720705Y-68122714D01*
X177664441Y-68258548D01*
X177582758Y-68380795D01*
X177478795Y-68484758D01*
X177356548Y-68566441D01*
X177220714Y-68622705D01*
X177076513Y-68651389D01*
X176929487Y-68651389D01*
X176785286Y-68622705D01*
X176649452Y-68566441D01*
X176527205Y-68484758D01*
X176423242Y-68380795D01*
X176341559Y-68258548D01*
X176285295Y-68122714D01*
X176256611Y-67978513D01*
X176256611Y-67831487D01*
X176285295Y-67687286D01*
X176341559Y-67551452D01*
X176423242Y-67429205D01*
X176527205Y-67325242D01*
X176649452Y-67243559D01*
X176785286Y-67187295D01*
X176929487Y-67158611D01*
X177076513Y-67158611D01*
X177220714Y-67187295D01*
G37*
G36*
X179760714Y-67187295D02*
G01*
X179896548Y-67243559D01*
X180018795Y-67325242D01*
X180122758Y-67429205D01*
X180204441Y-67551452D01*
X180260705Y-67687286D01*
X180289389Y-67831487D01*
X180289389Y-67978513D01*
X180260705Y-68122714D01*
X180204441Y-68258548D01*
X180122758Y-68380795D01*
X180018795Y-68484758D01*
X179896548Y-68566441D01*
X179760714Y-68622705D01*
X179616513Y-68651389D01*
X179469487Y-68651389D01*
X179325286Y-68622705D01*
X179189452Y-68566441D01*
X179067205Y-68484758D01*
X178963242Y-68380795D01*
X178881559Y-68258548D01*
X178825295Y-68122714D01*
X178796611Y-67978513D01*
X178796611Y-67831487D01*
X178825295Y-67687286D01*
X178881559Y-67551452D01*
X178963242Y-67429205D01*
X179067205Y-67325242D01*
X179189452Y-67243559D01*
X179325286Y-67187295D01*
X179469487Y-67158611D01*
X179616513Y-67158611D01*
X179760714Y-67187295D01*
G37*
G36*
X182300714Y-67187295D02*
G01*
X182436548Y-67243559D01*
X182558795Y-67325242D01*
X182662758Y-67429205D01*
X182744441Y-67551452D01*
X182800705Y-67687286D01*
X182829389Y-67831487D01*
X182829389Y-67978513D01*
X182800705Y-68122714D01*
X182744441Y-68258548D01*
X182662758Y-68380795D01*
X182558795Y-68484758D01*
X182436548Y-68566441D01*
X182300714Y-68622705D01*
X182156513Y-68651389D01*
X182009487Y-68651389D01*
X181865286Y-68622705D01*
X181729452Y-68566441D01*
X181607205Y-68484758D01*
X181503242Y-68380795D01*
X181421559Y-68258548D01*
X181365295Y-68122714D01*
X181336611Y-67978513D01*
X181336611Y-67831487D01*
X181365295Y-67687286D01*
X181421559Y-67551452D01*
X181503242Y-67429205D01*
X181607205Y-67325242D01*
X181729452Y-67243559D01*
X181865286Y-67187295D01*
X182009487Y-67158611D01*
X182156513Y-67158611D01*
X182300714Y-67187295D01*
G37*
G36*
X184840714Y-67187295D02*
G01*
X184976548Y-67243559D01*
X185098795Y-67325242D01*
X185202758Y-67429205D01*
X185284441Y-67551452D01*
X185340705Y-67687286D01*
X185369389Y-67831487D01*
X185369389Y-67978513D01*
X185340705Y-68122714D01*
X185284441Y-68258548D01*
X185202758Y-68380795D01*
X185098795Y-68484758D01*
X184976548Y-68566441D01*
X184840714Y-68622705D01*
X184696513Y-68651389D01*
X184549487Y-68651389D01*
X184405286Y-68622705D01*
X184269452Y-68566441D01*
X184147205Y-68484758D01*
X184043242Y-68380795D01*
X183961559Y-68258548D01*
X183905295Y-68122714D01*
X183876611Y-67978513D01*
X183876611Y-67831487D01*
X183905295Y-67687286D01*
X183961559Y-67551452D01*
X184043242Y-67429205D01*
X184147205Y-67325242D01*
X184269452Y-67243559D01*
X184405286Y-67187295D01*
X184549487Y-67158611D01*
X184696513Y-67158611D01*
X184840714Y-67187295D01*
G37*
G36*
X196299742Y-64970601D02*
G01*
X196453687Y-65034367D01*
X196592234Y-65126941D01*
X196710059Y-65244766D01*
X196802633Y-65383313D01*
X196866399Y-65537258D01*
X196898907Y-65700685D01*
X196898907Y-65867315D01*
X196866399Y-66030742D01*
X196802633Y-66184687D01*
X196710059Y-66323234D01*
X196592234Y-66441059D01*
X196453687Y-66533633D01*
X196299742Y-66597399D01*
X196136315Y-66629907D01*
X195969685Y-66629907D01*
X195806258Y-66597399D01*
X195652313Y-66533633D01*
X195513766Y-66441059D01*
X195395941Y-66323234D01*
X195303367Y-66184687D01*
X195239601Y-66030742D01*
X195207093Y-65867315D01*
X195207093Y-65700685D01*
X195239601Y-65537258D01*
X195303367Y-65383313D01*
X195395941Y-65244766D01*
X195513766Y-65126941D01*
X195652313Y-65034367D01*
X195806258Y-64970601D01*
X195969685Y-64938093D01*
X196136315Y-64938093D01*
X196299742Y-64970601D01*
G37*
G36*
X198839742Y-64970601D02*
G01*
X198993687Y-65034367D01*
X199132234Y-65126941D01*
X199250059Y-65244766D01*
X199342633Y-65383313D01*
X199406399Y-65537258D01*
X199438907Y-65700685D01*
X199438907Y-65867315D01*
X199406399Y-66030742D01*
X199342633Y-66184687D01*
X199250059Y-66323234D01*
X199132234Y-66441059D01*
X198993687Y-66533633D01*
X198839742Y-66597399D01*
X198676315Y-66629907D01*
X198509685Y-66629907D01*
X198346258Y-66597399D01*
X198192313Y-66533633D01*
X198053766Y-66441059D01*
X197935941Y-66323234D01*
X197843367Y-66184687D01*
X197779601Y-66030742D01*
X197747093Y-65867315D01*
X197747093Y-65700685D01*
X197779601Y-65537258D01*
X197843367Y-65383313D01*
X197935941Y-65244766D01*
X198053766Y-65126941D01*
X198192313Y-65034367D01*
X198346258Y-64970601D01*
X198509685Y-64938093D01*
X198676315Y-64938093D01*
X198839742Y-64970601D01*
G37*
G36*
X170133000Y-64751000D02*
G01*
X168633000Y-64751000D01*
X168633000Y-63251000D01*
X170133000Y-63251000D01*
X170133000Y-64751000D01*
G37*
G36*
X172140714Y-63283295D02*
G01*
X172276548Y-63339559D01*
X172398795Y-63421242D01*
X172502758Y-63525205D01*
X172584441Y-63647452D01*
X172640705Y-63783286D01*
X172669389Y-63927487D01*
X172669389Y-64074513D01*
X172640705Y-64218714D01*
X172584441Y-64354548D01*
X172502758Y-64476795D01*
X172398795Y-64580758D01*
X172276548Y-64662441D01*
X172140714Y-64718705D01*
X171996513Y-64747389D01*
X171849487Y-64747389D01*
X171705286Y-64718705D01*
X171569452Y-64662441D01*
X171447205Y-64580758D01*
X171343242Y-64476795D01*
X171261559Y-64354548D01*
X171205295Y-64218714D01*
X171176611Y-64074513D01*
X171176611Y-63927487D01*
X171205295Y-63783286D01*
X171261559Y-63647452D01*
X171343242Y-63525205D01*
X171447205Y-63421242D01*
X171569452Y-63339559D01*
X171705286Y-63283295D01*
X171849487Y-63254611D01*
X171996513Y-63254611D01*
X172140714Y-63283295D01*
G37*
G36*
X174680714Y-63283295D02*
G01*
X174816548Y-63339559D01*
X174938795Y-63421242D01*
X175042758Y-63525205D01*
X175124441Y-63647452D01*
X175180705Y-63783286D01*
X175209389Y-63927487D01*
X175209389Y-64074513D01*
X175180705Y-64218714D01*
X175124441Y-64354548D01*
X175042758Y-64476795D01*
X174938795Y-64580758D01*
X174816548Y-64662441D01*
X174680714Y-64718705D01*
X174536513Y-64747389D01*
X174389487Y-64747389D01*
X174245286Y-64718705D01*
X174109452Y-64662441D01*
X173987205Y-64580758D01*
X173883242Y-64476795D01*
X173801559Y-64354548D01*
X173745295Y-64218714D01*
X173716611Y-64074513D01*
X173716611Y-63927487D01*
X173745295Y-63783286D01*
X173801559Y-63647452D01*
X173883242Y-63525205D01*
X173987205Y-63421242D01*
X174109452Y-63339559D01*
X174245286Y-63283295D01*
X174389487Y-63254611D01*
X174536513Y-63254611D01*
X174680714Y-63283295D01*
G37*
G36*
X177220714Y-63283295D02*
G01*
X177356548Y-63339559D01*
X177478795Y-63421242D01*
X177582758Y-63525205D01*
X177664441Y-63647452D01*
X177720705Y-63783286D01*
X177749389Y-63927487D01*
X177749389Y-64074513D01*
X177720705Y-64218714D01*
X177664441Y-64354548D01*
X177582758Y-64476795D01*
X177478795Y-64580758D01*
X177356548Y-64662441D01*
X177220714Y-64718705D01*
X177076513Y-64747389D01*
X176929487Y-64747389D01*
X176785286Y-64718705D01*
X176649452Y-64662441D01*
X176527205Y-64580758D01*
X176423242Y-64476795D01*
X176341559Y-64354548D01*
X176285295Y-64218714D01*
X176256611Y-64074513D01*
X176256611Y-63927487D01*
X176285295Y-63783286D01*
X176341559Y-63647452D01*
X176423242Y-63525205D01*
X176527205Y-63421242D01*
X176649452Y-63339559D01*
X176785286Y-63283295D01*
X176929487Y-63254611D01*
X177076513Y-63254611D01*
X177220714Y-63283295D01*
G37*
G36*
X179760714Y-63283295D02*
G01*
X179896548Y-63339559D01*
X180018795Y-63421242D01*
X180122758Y-63525205D01*
X180204441Y-63647452D01*
X180260705Y-63783286D01*
X180289389Y-63927487D01*
X180289389Y-64074513D01*
X180260705Y-64218714D01*
X180204441Y-64354548D01*
X180122758Y-64476795D01*
X180018795Y-64580758D01*
X179896548Y-64662441D01*
X179760714Y-64718705D01*
X179616513Y-64747389D01*
X179469487Y-64747389D01*
X179325286Y-64718705D01*
X179189452Y-64662441D01*
X179067205Y-64580758D01*
X178963242Y-64476795D01*
X178881559Y-64354548D01*
X178825295Y-64218714D01*
X178796611Y-64074513D01*
X178796611Y-63927487D01*
X178825295Y-63783286D01*
X178881559Y-63647452D01*
X178963242Y-63525205D01*
X179067205Y-63421242D01*
X179189452Y-63339559D01*
X179325286Y-63283295D01*
X179469487Y-63254611D01*
X179616513Y-63254611D01*
X179760714Y-63283295D01*
G37*
G36*
X182300714Y-63283295D02*
G01*
X182436548Y-63339559D01*
X182558795Y-63421242D01*
X182662758Y-63525205D01*
X182744441Y-63647452D01*
X182800705Y-63783286D01*
X182829389Y-63927487D01*
X182829389Y-64074513D01*
X182800705Y-64218714D01*
X182744441Y-64354548D01*
X182662758Y-64476795D01*
X182558795Y-64580758D01*
X182436548Y-64662441D01*
X182300714Y-64718705D01*
X182156513Y-64747389D01*
X182009487Y-64747389D01*
X181865286Y-64718705D01*
X181729452Y-64662441D01*
X181607205Y-64580758D01*
X181503242Y-64476795D01*
X181421559Y-64354548D01*
X181365295Y-64218714D01*
X181336611Y-64074513D01*
X181336611Y-63927487D01*
X181365295Y-63783286D01*
X181421559Y-63647452D01*
X181503242Y-63525205D01*
X181607205Y-63421242D01*
X181729452Y-63339559D01*
X181865286Y-63283295D01*
X182009487Y-63254611D01*
X182156513Y-63254611D01*
X182300714Y-63283295D01*
G37*
G36*
X184840714Y-63283295D02*
G01*
X184976548Y-63339559D01*
X185098795Y-63421242D01*
X185202758Y-63525205D01*
X185284441Y-63647452D01*
X185340705Y-63783286D01*
X185369389Y-63927487D01*
X185369389Y-64074513D01*
X185340705Y-64218714D01*
X185284441Y-64354548D01*
X185202758Y-64476795D01*
X185098795Y-64580758D01*
X184976548Y-64662441D01*
X184840714Y-64718705D01*
X184696513Y-64747389D01*
X184549487Y-64747389D01*
X184405286Y-64718705D01*
X184269452Y-64662441D01*
X184147205Y-64580758D01*
X184043242Y-64476795D01*
X183961559Y-64354548D01*
X183905295Y-64218714D01*
X183876611Y-64074513D01*
X183876611Y-63927487D01*
X183905295Y-63783286D01*
X183961559Y-63647452D01*
X184043242Y-63525205D01*
X184147205Y-63421242D01*
X184269452Y-63339559D01*
X184405286Y-63283295D01*
X184549487Y-63254611D01*
X184696513Y-63254611D01*
X184840714Y-63283295D01*
G37*
G36*
X196299742Y-62430601D02*
G01*
X196453687Y-62494367D01*
X196592234Y-62586941D01*
X196710059Y-62704766D01*
X196802633Y-62843313D01*
X196866399Y-62997258D01*
X196898907Y-63160685D01*
X196898907Y-63327315D01*
X196866399Y-63490742D01*
X196802633Y-63644687D01*
X196710059Y-63783234D01*
X196592234Y-63901059D01*
X196453687Y-63993633D01*
X196299742Y-64057399D01*
X196136315Y-64089907D01*
X195969685Y-64089907D01*
X195806258Y-64057399D01*
X195652313Y-63993633D01*
X195513766Y-63901059D01*
X195395941Y-63783234D01*
X195303367Y-63644687D01*
X195239601Y-63490742D01*
X195207093Y-63327315D01*
X195207093Y-63160685D01*
X195239601Y-62997258D01*
X195303367Y-62843313D01*
X195395941Y-62704766D01*
X195513766Y-62586941D01*
X195652313Y-62494367D01*
X195806258Y-62430601D01*
X195969685Y-62398093D01*
X196136315Y-62398093D01*
X196299742Y-62430601D01*
G37*
G36*
X198839742Y-62430601D02*
G01*
X198993687Y-62494367D01*
X199132234Y-62586941D01*
X199250059Y-62704766D01*
X199342633Y-62843313D01*
X199406399Y-62997258D01*
X199438907Y-63160685D01*
X199438907Y-63327315D01*
X199406399Y-63490742D01*
X199342633Y-63644687D01*
X199250059Y-63783234D01*
X199132234Y-63901059D01*
X198993687Y-63993633D01*
X198839742Y-64057399D01*
X198676315Y-64089907D01*
X198509685Y-64089907D01*
X198346258Y-64057399D01*
X198192313Y-63993633D01*
X198053766Y-63901059D01*
X197935941Y-63783234D01*
X197843367Y-63644687D01*
X197779601Y-63490742D01*
X197747093Y-63327315D01*
X197747093Y-63160685D01*
X197779601Y-62997258D01*
X197843367Y-62843313D01*
X197935941Y-62704766D01*
X198053766Y-62586941D01*
X198192313Y-62494367D01*
X198346258Y-62430601D01*
X198509685Y-62398093D01*
X198676315Y-62398093D01*
X198839742Y-62430601D01*
G37*
G36*
X110403000Y-63871500D02*
G01*
X108803000Y-63871500D01*
X108803000Y-62271500D01*
X110403000Y-62271500D01*
X110403000Y-63871500D01*
G37*
G36*
X113035228Y-62305948D02*
G01*
X113180117Y-62365963D01*
X113310515Y-62453092D01*
X113421408Y-62563985D01*
X113508537Y-62694383D01*
X113568552Y-62839272D01*
X113599148Y-62993086D01*
X113599148Y-63149914D01*
X113568552Y-63303728D01*
X113508537Y-63448617D01*
X113421408Y-63579015D01*
X113310515Y-63689908D01*
X113180117Y-63777037D01*
X113035228Y-63837052D01*
X112881414Y-63867648D01*
X112724586Y-63867648D01*
X112570772Y-63837052D01*
X112425883Y-63777037D01*
X112295485Y-63689908D01*
X112184592Y-63579015D01*
X112097463Y-63448617D01*
X112037448Y-63303728D01*
X112006852Y-63149914D01*
X112006852Y-62993086D01*
X112037448Y-62839272D01*
X112097463Y-62694383D01*
X112184592Y-62563985D01*
X112295485Y-62453092D01*
X112425883Y-62365963D01*
X112570772Y-62305948D01*
X112724586Y-62275352D01*
X112881414Y-62275352D01*
X113035228Y-62305948D01*
G37*
G36*
X117621462Y-59945775D02*
G01*
X117793086Y-60001539D01*
X117953873Y-60083464D01*
X118099865Y-60189533D01*
X118227467Y-60317135D01*
X118333536Y-60463127D01*
X118415461Y-60623914D01*
X118471225Y-60795538D01*
X118499455Y-60973772D01*
X118499455Y-61154228D01*
X118471225Y-61332462D01*
X118415461Y-61504086D01*
X118333536Y-61664873D01*
X118227467Y-61810865D01*
X118099865Y-61938467D01*
X117953873Y-62044536D01*
X117793086Y-62126461D01*
X117621462Y-62182225D01*
X117443228Y-62210455D01*
X117262772Y-62210455D01*
X117084538Y-62182225D01*
X116912914Y-62126461D01*
X116752127Y-62044536D01*
X116606135Y-61938467D01*
X116478533Y-61810865D01*
X116372464Y-61664873D01*
X116290539Y-61504086D01*
X116234775Y-61332462D01*
X116206545Y-61154228D01*
X116206545Y-60973772D01*
X116234775Y-60795538D01*
X116290539Y-60623914D01*
X116372464Y-60463127D01*
X116478533Y-60317135D01*
X116606135Y-60189533D01*
X116752127Y-60083464D01*
X116912914Y-60001539D01*
X117084538Y-59945775D01*
X117262772Y-59917545D01*
X117443228Y-59917545D01*
X117621462Y-59945775D01*
G37*
G36*
X155121462Y-59945775D02*
G01*
X155293086Y-60001539D01*
X155453873Y-60083464D01*
X155599865Y-60189533D01*
X155727467Y-60317135D01*
X155833536Y-60463127D01*
X155915461Y-60623914D01*
X155971225Y-60795538D01*
X155999455Y-60973772D01*
X155999455Y-61154228D01*
X155971225Y-61332462D01*
X155915461Y-61504086D01*
X155833536Y-61664873D01*
X155727467Y-61810865D01*
X155599865Y-61938467D01*
X155453873Y-62044536D01*
X155293086Y-62126461D01*
X155121462Y-62182225D01*
X154943228Y-62210455D01*
X154762772Y-62210455D01*
X154584538Y-62182225D01*
X154412914Y-62126461D01*
X154252127Y-62044536D01*
X154106135Y-61938467D01*
X153978533Y-61810865D01*
X153872464Y-61664873D01*
X153790539Y-61504086D01*
X153734775Y-61332462D01*
X153706545Y-61154228D01*
X153706545Y-60973772D01*
X153734775Y-60795538D01*
X153790539Y-60623914D01*
X153872464Y-60463127D01*
X153978533Y-60317135D01*
X154106135Y-60189533D01*
X154252127Y-60083464D01*
X154412914Y-60001539D01*
X154584538Y-59945775D01*
X154762772Y-59917545D01*
X154943228Y-59917545D01*
X155121462Y-59945775D01*
G37*
G36*
X196903000Y-61554000D02*
G01*
X195203000Y-61554000D01*
X195203000Y-59854000D01*
X196903000Y-59854000D01*
X196903000Y-61554000D01*
G37*
G36*
X198839742Y-59890601D02*
G01*
X198993687Y-59954367D01*
X199132234Y-60046941D01*
X199250059Y-60164766D01*
X199342633Y-60303313D01*
X199406399Y-60457258D01*
X199438907Y-60620685D01*
X199438907Y-60787315D01*
X199406399Y-60950742D01*
X199342633Y-61104687D01*
X199250059Y-61243234D01*
X199132234Y-61361059D01*
X198993687Y-61453633D01*
X198839742Y-61517399D01*
X198676315Y-61549907D01*
X198509685Y-61549907D01*
X198346258Y-61517399D01*
X198192313Y-61453633D01*
X198053766Y-61361059D01*
X197935941Y-61243234D01*
X197843367Y-61104687D01*
X197779601Y-60950742D01*
X197747093Y-60787315D01*
X197747093Y-60620685D01*
X197779601Y-60457258D01*
X197843367Y-60303313D01*
X197935941Y-60164766D01*
X198053766Y-60046941D01*
X198192313Y-59954367D01*
X198346258Y-59890601D01*
X198509685Y-59858093D01*
X198676315Y-59858093D01*
X198839742Y-59890601D01*
G37*
G36*
X109835228Y-59805948D02*
G01*
X109980117Y-59865963D01*
X110110515Y-59953092D01*
X110221408Y-60063985D01*
X110308537Y-60194383D01*
X110368552Y-60339272D01*
X110399148Y-60493086D01*
X110399148Y-60649914D01*
X110368552Y-60803728D01*
X110308537Y-60948617D01*
X110221408Y-61079015D01*
X110110515Y-61189908D01*
X109980117Y-61277037D01*
X109835228Y-61337052D01*
X109681414Y-61367648D01*
X109524586Y-61367648D01*
X109370772Y-61337052D01*
X109225883Y-61277037D01*
X109095485Y-61189908D01*
X108984592Y-61079015D01*
X108897463Y-60948617D01*
X108837448Y-60803728D01*
X108806852Y-60649914D01*
X108806852Y-60493086D01*
X108837448Y-60339272D01*
X108897463Y-60194383D01*
X108984592Y-60063985D01*
X109095485Y-59953092D01*
X109225883Y-59865963D01*
X109370772Y-59805948D01*
X109524586Y-59775352D01*
X109681414Y-59775352D01*
X109835228Y-59805948D01*
G37*
G36*
X113035228Y-59805948D02*
G01*
X113180117Y-59865963D01*
X113310515Y-59953092D01*
X113421408Y-60063985D01*
X113508537Y-60194383D01*
X113568552Y-60339272D01*
X113599148Y-60493086D01*
X113599148Y-60649914D01*
X113568552Y-60803728D01*
X113508537Y-60948617D01*
X113421408Y-61079015D01*
X113310515Y-61189908D01*
X113180117Y-61277037D01*
X113035228Y-61337052D01*
X112881414Y-61367648D01*
X112724586Y-61367648D01*
X112570772Y-61337052D01*
X112425883Y-61277037D01*
X112295485Y-61189908D01*
X112184592Y-61079015D01*
X112097463Y-60948617D01*
X112037448Y-60803728D01*
X112006852Y-60649914D01*
X112006852Y-60493086D01*
X112037448Y-60339272D01*
X112097463Y-60194383D01*
X112184592Y-60063985D01*
X112295485Y-59953092D01*
X112425883Y-59865963D01*
X112570772Y-59805948D01*
X112724586Y-59775352D01*
X112881414Y-59775352D01*
X113035228Y-59805948D01*
G37*
G36*
X109835228Y-57305948D02*
G01*
X109980117Y-57365963D01*
X110110515Y-57453092D01*
X110221408Y-57563985D01*
X110308537Y-57694383D01*
X110368552Y-57839272D01*
X110399148Y-57993086D01*
X110399148Y-58149914D01*
X110368552Y-58303728D01*
X110308537Y-58448617D01*
X110221408Y-58579015D01*
X110110515Y-58689908D01*
X109980117Y-58777037D01*
X109835228Y-58837052D01*
X109681414Y-58867648D01*
X109524586Y-58867648D01*
X109370772Y-58837052D01*
X109225883Y-58777037D01*
X109095485Y-58689908D01*
X108984592Y-58579015D01*
X108897463Y-58448617D01*
X108837448Y-58303728D01*
X108806852Y-58149914D01*
X108806852Y-57993086D01*
X108837448Y-57839272D01*
X108897463Y-57694383D01*
X108984592Y-57563985D01*
X109095485Y-57453092D01*
X109225883Y-57365963D01*
X109370772Y-57305948D01*
X109524586Y-57275352D01*
X109681414Y-57275352D01*
X109835228Y-57305948D01*
G37*
G36*
X113035228Y-57305948D02*
G01*
X113180117Y-57365963D01*
X113310515Y-57453092D01*
X113421408Y-57563985D01*
X113508537Y-57694383D01*
X113568552Y-57839272D01*
X113599148Y-57993086D01*
X113599148Y-58149914D01*
X113568552Y-58303728D01*
X113508537Y-58448617D01*
X113421408Y-58579015D01*
X113310515Y-58689908D01*
X113180117Y-58777037D01*
X113035228Y-58837052D01*
X112881414Y-58867648D01*
X112724586Y-58867648D01*
X112570772Y-58837052D01*
X112425883Y-58777037D01*
X112295485Y-58689908D01*
X112184592Y-58579015D01*
X112097463Y-58448617D01*
X112037448Y-58303728D01*
X112006852Y-58149914D01*
X112006852Y-57993086D01*
X112037448Y-57839272D01*
X112097463Y-57694383D01*
X112184592Y-57563985D01*
X112295485Y-57453092D01*
X112425883Y-57365963D01*
X112570772Y-57305948D01*
X112724586Y-57275352D01*
X112881414Y-57275352D01*
X113035228Y-57305948D01*
G37*
G36*
X169600714Y-55663295D02*
G01*
X169736548Y-55719559D01*
X169858795Y-55801242D01*
X169962758Y-55905205D01*
X170044441Y-56027452D01*
X170100705Y-56163286D01*
X170129389Y-56307487D01*
X170129389Y-56454513D01*
X170100705Y-56598714D01*
X170044441Y-56734548D01*
X169962758Y-56856795D01*
X169858795Y-56960758D01*
X169736548Y-57042441D01*
X169600714Y-57098705D01*
X169456513Y-57127389D01*
X169309487Y-57127389D01*
X169165286Y-57098705D01*
X169029452Y-57042441D01*
X168907205Y-56960758D01*
X168803242Y-56856795D01*
X168721559Y-56734548D01*
X168665295Y-56598714D01*
X168636611Y-56454513D01*
X168636611Y-56307487D01*
X168665295Y-56163286D01*
X168721559Y-56027452D01*
X168803242Y-55905205D01*
X168907205Y-55801242D01*
X169029452Y-55719559D01*
X169165286Y-55663295D01*
X169309487Y-55634611D01*
X169456513Y-55634611D01*
X169600714Y-55663295D01*
G37*
G36*
X172140714Y-55663295D02*
G01*
X172276548Y-55719559D01*
X172398795Y-55801242D01*
X172502758Y-55905205D01*
X172584441Y-56027452D01*
X172640705Y-56163286D01*
X172669389Y-56307487D01*
X172669389Y-56454513D01*
X172640705Y-56598714D01*
X172584441Y-56734548D01*
X172502758Y-56856795D01*
X172398795Y-56960758D01*
X172276548Y-57042441D01*
X172140714Y-57098705D01*
X171996513Y-57127389D01*
X171849487Y-57127389D01*
X171705286Y-57098705D01*
X171569452Y-57042441D01*
X171447205Y-56960758D01*
X171343242Y-56856795D01*
X171261559Y-56734548D01*
X171205295Y-56598714D01*
X171176611Y-56454513D01*
X171176611Y-56307487D01*
X171205295Y-56163286D01*
X171261559Y-56027452D01*
X171343242Y-55905205D01*
X171447205Y-55801242D01*
X171569452Y-55719559D01*
X171705286Y-55663295D01*
X171849487Y-55634611D01*
X171996513Y-55634611D01*
X172140714Y-55663295D01*
G37*
G36*
X174680714Y-55663295D02*
G01*
X174816548Y-55719559D01*
X174938795Y-55801242D01*
X175042758Y-55905205D01*
X175124441Y-56027452D01*
X175180705Y-56163286D01*
X175209389Y-56307487D01*
X175209389Y-56454513D01*
X175180705Y-56598714D01*
X175124441Y-56734548D01*
X175042758Y-56856795D01*
X174938795Y-56960758D01*
X174816548Y-57042441D01*
X174680714Y-57098705D01*
X174536513Y-57127389D01*
X174389487Y-57127389D01*
X174245286Y-57098705D01*
X174109452Y-57042441D01*
X173987205Y-56960758D01*
X173883242Y-56856795D01*
X173801559Y-56734548D01*
X173745295Y-56598714D01*
X173716611Y-56454513D01*
X173716611Y-56307487D01*
X173745295Y-56163286D01*
X173801559Y-56027452D01*
X173883242Y-55905205D01*
X173987205Y-55801242D01*
X174109452Y-55719559D01*
X174245286Y-55663295D01*
X174389487Y-55634611D01*
X174536513Y-55634611D01*
X174680714Y-55663295D01*
G37*
G36*
X177220714Y-55663295D02*
G01*
X177356548Y-55719559D01*
X177478795Y-55801242D01*
X177582758Y-55905205D01*
X177664441Y-56027452D01*
X177720705Y-56163286D01*
X177749389Y-56307487D01*
X177749389Y-56454513D01*
X177720705Y-56598714D01*
X177664441Y-56734548D01*
X177582758Y-56856795D01*
X177478795Y-56960758D01*
X177356548Y-57042441D01*
X177220714Y-57098705D01*
X177076513Y-57127389D01*
X176929487Y-57127389D01*
X176785286Y-57098705D01*
X176649452Y-57042441D01*
X176527205Y-56960758D01*
X176423242Y-56856795D01*
X176341559Y-56734548D01*
X176285295Y-56598714D01*
X176256611Y-56454513D01*
X176256611Y-56307487D01*
X176285295Y-56163286D01*
X176341559Y-56027452D01*
X176423242Y-55905205D01*
X176527205Y-55801242D01*
X176649452Y-55719559D01*
X176785286Y-55663295D01*
X176929487Y-55634611D01*
X177076513Y-55634611D01*
X177220714Y-55663295D01*
G37*
G36*
X179760714Y-55663295D02*
G01*
X179896548Y-55719559D01*
X180018795Y-55801242D01*
X180122758Y-55905205D01*
X180204441Y-56027452D01*
X180260705Y-56163286D01*
X180289389Y-56307487D01*
X180289389Y-56454513D01*
X180260705Y-56598714D01*
X180204441Y-56734548D01*
X180122758Y-56856795D01*
X180018795Y-56960758D01*
X179896548Y-57042441D01*
X179760714Y-57098705D01*
X179616513Y-57127389D01*
X179469487Y-57127389D01*
X179325286Y-57098705D01*
X179189452Y-57042441D01*
X179067205Y-56960758D01*
X178963242Y-56856795D01*
X178881559Y-56734548D01*
X178825295Y-56598714D01*
X178796611Y-56454513D01*
X178796611Y-56307487D01*
X178825295Y-56163286D01*
X178881559Y-56027452D01*
X178963242Y-55905205D01*
X179067205Y-55801242D01*
X179189452Y-55719559D01*
X179325286Y-55663295D01*
X179469487Y-55634611D01*
X179616513Y-55634611D01*
X179760714Y-55663295D01*
G37*
G36*
X182300714Y-55663295D02*
G01*
X182436548Y-55719559D01*
X182558795Y-55801242D01*
X182662758Y-55905205D01*
X182744441Y-56027452D01*
X182800705Y-56163286D01*
X182829389Y-56307487D01*
X182829389Y-56454513D01*
X182800705Y-56598714D01*
X182744441Y-56734548D01*
X182662758Y-56856795D01*
X182558795Y-56960758D01*
X182436548Y-57042441D01*
X182300714Y-57098705D01*
X182156513Y-57127389D01*
X182009487Y-57127389D01*
X181865286Y-57098705D01*
X181729452Y-57042441D01*
X181607205Y-56960758D01*
X181503242Y-56856795D01*
X181421559Y-56734548D01*
X181365295Y-56598714D01*
X181336611Y-56454513D01*
X181336611Y-56307487D01*
X181365295Y-56163286D01*
X181421559Y-56027452D01*
X181503242Y-55905205D01*
X181607205Y-55801242D01*
X181729452Y-55719559D01*
X181865286Y-55663295D01*
X182009487Y-55634611D01*
X182156513Y-55634611D01*
X182300714Y-55663295D01*
G37*
G36*
X184840714Y-55663295D02*
G01*
X184976548Y-55719559D01*
X185098795Y-55801242D01*
X185202758Y-55905205D01*
X185284441Y-56027452D01*
X185340705Y-56163286D01*
X185369389Y-56307487D01*
X185369389Y-56454513D01*
X185340705Y-56598714D01*
X185284441Y-56734548D01*
X185202758Y-56856795D01*
X185098795Y-56960758D01*
X184976548Y-57042441D01*
X184840714Y-57098705D01*
X184696513Y-57127389D01*
X184549487Y-57127389D01*
X184405286Y-57098705D01*
X184269452Y-57042441D01*
X184147205Y-56960758D01*
X184043242Y-56856795D01*
X183961559Y-56734548D01*
X183905295Y-56598714D01*
X183876611Y-56454513D01*
X183876611Y-56307487D01*
X183905295Y-56163286D01*
X183961559Y-56027452D01*
X184043242Y-55905205D01*
X184147205Y-55801242D01*
X184269452Y-55719559D01*
X184405286Y-55663295D01*
X184549487Y-55634611D01*
X184696513Y-55634611D01*
X184840714Y-55663295D01*
G37*
G36*
X108045896Y-49919032D02*
G01*
X108056697Y-49919032D01*
X108120815Y-49927473D01*
X108296633Y-49947283D01*
X108331180Y-49955168D01*
X108361462Y-49959155D01*
X108435137Y-49978896D01*
X108553540Y-50005921D01*
X108610890Y-50025988D01*
X108658383Y-50038714D01*
X108718917Y-50063788D01*
X108802275Y-50092956D01*
X108881855Y-50131279D01*
X108942378Y-50156349D01*
X108984940Y-50180922D01*
X109039696Y-50207291D01*
X109142533Y-50271908D01*
X109208590Y-50310046D01*
X109232828Y-50328644D01*
X109262833Y-50347498D01*
X109401136Y-50457791D01*
X109452463Y-50497176D01*
X109460104Y-50504817D01*
X109468864Y-50511803D01*
X109655196Y-50698135D01*
X109662181Y-50706894D01*
X109669824Y-50714537D01*
X109709213Y-50765870D01*
X109819501Y-50904166D01*
X109838353Y-50934168D01*
X109856954Y-50958410D01*
X109895095Y-51024474D01*
X109959708Y-51127303D01*
X109986074Y-51182054D01*
X110010651Y-51224622D01*
X110035723Y-51285151D01*
X110074043Y-51364724D01*
X110103207Y-51448071D01*
X110128286Y-51508617D01*
X110141013Y-51556117D01*
X110161078Y-51613459D01*
X110188098Y-51731843D01*
X110207845Y-51805538D01*
X110211832Y-51835827D01*
X110219716Y-51870366D01*
X110239525Y-52046172D01*
X110247968Y-52110303D01*
X110247968Y-52121103D01*
X110249223Y-52132242D01*
X110249223Y-52395757D01*
X110247968Y-52406895D01*
X110247968Y-52417697D01*
X110239524Y-52481833D01*
X110219716Y-52657633D01*
X110211832Y-52692170D01*
X110207845Y-52722462D01*
X110188097Y-52796162D01*
X110161078Y-52914540D01*
X110141014Y-52971878D01*
X110128286Y-53019383D01*
X110103205Y-53079933D01*
X110074043Y-53163275D01*
X110035726Y-53242841D01*
X110010651Y-53303378D01*
X109986071Y-53345950D01*
X109959708Y-53400696D01*
X109895103Y-53503513D01*
X109856954Y-53569590D01*
X109838349Y-53593835D01*
X109819501Y-53623833D01*
X109709233Y-53762103D01*
X109669824Y-53813463D01*
X109662177Y-53821109D01*
X109655196Y-53829864D01*
X109468864Y-54016196D01*
X109460109Y-54023177D01*
X109452463Y-54030824D01*
X109401103Y-54070233D01*
X109262833Y-54180501D01*
X109232835Y-54199349D01*
X109208590Y-54217954D01*
X109142513Y-54256103D01*
X109039696Y-54320708D01*
X108984950Y-54347071D01*
X108942378Y-54371651D01*
X108881841Y-54396726D01*
X108802275Y-54435043D01*
X108718933Y-54464205D01*
X108658383Y-54489286D01*
X108610878Y-54502014D01*
X108553540Y-54522078D01*
X108435162Y-54549097D01*
X108361462Y-54568845D01*
X108331170Y-54572832D01*
X108296633Y-54580716D01*
X108120833Y-54600524D01*
X108056697Y-54608968D01*
X108045895Y-54608968D01*
X108034757Y-54610223D01*
X107771243Y-54610223D01*
X107760105Y-54608968D01*
X107749303Y-54608968D01*
X107685168Y-54600524D01*
X107509366Y-54580716D01*
X107474827Y-54572832D01*
X107444538Y-54568845D01*
X107370843Y-54549098D01*
X107252459Y-54522078D01*
X107195117Y-54502013D01*
X107147617Y-54489286D01*
X107087071Y-54464207D01*
X107003724Y-54435043D01*
X106924151Y-54396723D01*
X106863622Y-54371651D01*
X106821054Y-54347074D01*
X106766303Y-54320708D01*
X106663474Y-54256095D01*
X106597410Y-54217954D01*
X106573168Y-54199353D01*
X106543166Y-54180501D01*
X106404870Y-54070213D01*
X106353537Y-54030824D01*
X106345894Y-54023181D01*
X106337135Y-54016196D01*
X106150803Y-53829864D01*
X106143817Y-53821104D01*
X106136176Y-53813463D01*
X106096791Y-53762136D01*
X105986498Y-53623833D01*
X105967644Y-53593828D01*
X105949046Y-53569590D01*
X105910908Y-53503533D01*
X105846291Y-53400696D01*
X105819922Y-53345940D01*
X105795349Y-53303378D01*
X105770279Y-53242855D01*
X105731956Y-53163275D01*
X105702788Y-53079917D01*
X105677714Y-53019383D01*
X105664988Y-52971890D01*
X105644921Y-52914540D01*
X105617896Y-52796137D01*
X105598155Y-52722462D01*
X105594168Y-52692180D01*
X105586283Y-52657633D01*
X105566473Y-52481815D01*
X105558032Y-52417697D01*
X105558032Y-52406895D01*
X105556777Y-52395757D01*
X105556777Y-52132242D01*
X105558032Y-52121103D01*
X105558032Y-52110303D01*
X105566472Y-52046190D01*
X105586283Y-51870366D01*
X105594168Y-51835816D01*
X105598155Y-51805538D01*
X105617894Y-51731868D01*
X105644921Y-51613459D01*
X105664989Y-51556105D01*
X105677714Y-51508617D01*
X105702786Y-51448087D01*
X105731956Y-51364724D01*
X105770282Y-51285136D01*
X105795349Y-51224622D01*
X105819919Y-51182064D01*
X105846291Y-51127303D01*
X105910915Y-51024454D01*
X105949046Y-50958410D01*
X105967641Y-50934175D01*
X105986498Y-50904166D01*
X106096811Y-50765837D01*
X106136176Y-50714537D01*
X106143813Y-50706899D01*
X106150803Y-50698135D01*
X106337135Y-50511803D01*
X106345899Y-50504813D01*
X106353537Y-50497176D01*
X106404837Y-50457811D01*
X106543166Y-50347498D01*
X106573175Y-50328641D01*
X106597410Y-50310046D01*
X106663454Y-50271915D01*
X106766303Y-50207291D01*
X106821064Y-50180919D01*
X106863622Y-50156349D01*
X106924136Y-50131282D01*
X107003724Y-50092956D01*
X107087087Y-50063786D01*
X107147617Y-50038714D01*
X107195105Y-50025989D01*
X107252459Y-50005921D01*
X107370868Y-49978894D01*
X107444538Y-49959155D01*
X107474816Y-49955168D01*
X107509366Y-49947283D01*
X107685186Y-49927473D01*
X107749303Y-49919032D01*
X107760104Y-49919032D01*
X107771243Y-49917777D01*
X108034757Y-49917777D01*
X108045896Y-49919032D01*
G37*
G36*
X201245896Y-49919032D02*
G01*
X201256697Y-49919032D01*
X201320815Y-49927473D01*
X201496633Y-49947283D01*
X201531180Y-49955168D01*
X201561462Y-49959155D01*
X201635137Y-49978896D01*
X201753540Y-50005921D01*
X201810890Y-50025988D01*
X201858383Y-50038714D01*
X201918917Y-50063788D01*
X202002275Y-50092956D01*
X202081855Y-50131279D01*
X202142378Y-50156349D01*
X202184940Y-50180922D01*
X202239696Y-50207291D01*
X202342533Y-50271908D01*
X202408590Y-50310046D01*
X202432828Y-50328644D01*
X202462833Y-50347498D01*
X202601136Y-50457791D01*
X202652463Y-50497176D01*
X202660104Y-50504817D01*
X202668864Y-50511803D01*
X202855196Y-50698135D01*
X202862181Y-50706894D01*
X202869824Y-50714537D01*
X202909213Y-50765870D01*
X203019501Y-50904166D01*
X203038353Y-50934168D01*
X203056954Y-50958410D01*
X203095095Y-51024474D01*
X203159708Y-51127303D01*
X203186074Y-51182054D01*
X203210651Y-51224622D01*
X203235723Y-51285151D01*
X203274043Y-51364724D01*
X203303207Y-51448071D01*
X203328286Y-51508617D01*
X203341013Y-51556117D01*
X203361078Y-51613459D01*
X203388098Y-51731843D01*
X203407845Y-51805538D01*
X203411832Y-51835827D01*
X203419716Y-51870366D01*
X203439525Y-52046172D01*
X203447968Y-52110303D01*
X203447968Y-52121103D01*
X203449223Y-52132242D01*
X203449223Y-52395757D01*
X203447968Y-52406895D01*
X203447968Y-52417697D01*
X203439524Y-52481833D01*
X203419716Y-52657633D01*
X203411832Y-52692170D01*
X203407845Y-52722462D01*
X203388097Y-52796162D01*
X203361078Y-52914540D01*
X203341014Y-52971878D01*
X203328286Y-53019383D01*
X203303205Y-53079933D01*
X203274043Y-53163275D01*
X203235726Y-53242841D01*
X203210651Y-53303378D01*
X203186071Y-53345950D01*
X203159708Y-53400696D01*
X203095103Y-53503513D01*
X203056954Y-53569590D01*
X203038349Y-53593835D01*
X203019501Y-53623833D01*
X202909233Y-53762103D01*
X202869824Y-53813463D01*
X202862177Y-53821109D01*
X202855196Y-53829864D01*
X202668864Y-54016196D01*
X202660109Y-54023177D01*
X202652463Y-54030824D01*
X202601103Y-54070233D01*
X202462833Y-54180501D01*
X202432835Y-54199349D01*
X202408590Y-54217954D01*
X202342513Y-54256103D01*
X202239696Y-54320708D01*
X202184950Y-54347071D01*
X202142378Y-54371651D01*
X202081841Y-54396726D01*
X202002275Y-54435043D01*
X201918933Y-54464205D01*
X201858383Y-54489286D01*
X201810878Y-54502014D01*
X201753540Y-54522078D01*
X201635162Y-54549097D01*
X201561462Y-54568845D01*
X201531170Y-54572832D01*
X201496633Y-54580716D01*
X201320833Y-54600524D01*
X201256697Y-54608968D01*
X201245895Y-54608968D01*
X201234757Y-54610223D01*
X200971243Y-54610223D01*
X200960105Y-54608968D01*
X200949303Y-54608968D01*
X200885168Y-54600524D01*
X200709366Y-54580716D01*
X200674827Y-54572832D01*
X200644538Y-54568845D01*
X200570843Y-54549098D01*
X200452459Y-54522078D01*
X200395117Y-54502013D01*
X200347617Y-54489286D01*
X200287071Y-54464207D01*
X200203724Y-54435043D01*
X200124151Y-54396723D01*
X200063622Y-54371651D01*
X200021054Y-54347074D01*
X199966303Y-54320708D01*
X199863474Y-54256095D01*
X199797410Y-54217954D01*
X199773168Y-54199353D01*
X199743166Y-54180501D01*
X199604870Y-54070213D01*
X199553537Y-54030824D01*
X199545894Y-54023181D01*
X199537135Y-54016196D01*
X199350803Y-53829864D01*
X199343817Y-53821104D01*
X199336176Y-53813463D01*
X199296791Y-53762136D01*
X199186498Y-53623833D01*
X199167644Y-53593828D01*
X199149046Y-53569590D01*
X199110908Y-53503533D01*
X199046291Y-53400696D01*
X199019922Y-53345940D01*
X198995349Y-53303378D01*
X198970279Y-53242855D01*
X198931956Y-53163275D01*
X198902788Y-53079917D01*
X198877714Y-53019383D01*
X198864988Y-52971890D01*
X198844921Y-52914540D01*
X198817896Y-52796137D01*
X198798155Y-52722462D01*
X198794168Y-52692180D01*
X198786283Y-52657633D01*
X198766473Y-52481815D01*
X198758032Y-52417697D01*
X198758032Y-52406895D01*
X198756777Y-52395757D01*
X198756777Y-52132242D01*
X198758032Y-52121103D01*
X198758032Y-52110303D01*
X198766472Y-52046190D01*
X198786283Y-51870366D01*
X198794168Y-51835816D01*
X198798155Y-51805538D01*
X198817894Y-51731868D01*
X198844921Y-51613459D01*
X198864989Y-51556105D01*
X198877714Y-51508617D01*
X198902786Y-51448087D01*
X198931956Y-51364724D01*
X198970282Y-51285136D01*
X198995349Y-51224622D01*
X199019919Y-51182064D01*
X199046291Y-51127303D01*
X199110915Y-51024454D01*
X199149046Y-50958410D01*
X199167641Y-50934175D01*
X199186498Y-50904166D01*
X199296811Y-50765837D01*
X199336176Y-50714537D01*
X199343813Y-50706899D01*
X199350803Y-50698135D01*
X199537135Y-50511803D01*
X199545899Y-50504813D01*
X199553537Y-50497176D01*
X199604837Y-50457811D01*
X199743166Y-50347498D01*
X199773175Y-50328641D01*
X199797410Y-50310046D01*
X199863454Y-50271915D01*
X199966303Y-50207291D01*
X200021064Y-50180919D01*
X200063622Y-50156349D01*
X200124136Y-50131282D01*
X200203724Y-50092956D01*
X200287087Y-50063786D01*
X200347617Y-50038714D01*
X200395105Y-50025989D01*
X200452459Y-50005921D01*
X200570868Y-49978894D01*
X200644538Y-49959155D01*
X200674816Y-49955168D01*
X200709366Y-49947283D01*
X200885186Y-49927473D01*
X200949303Y-49919032D01*
X200960104Y-49919032D01*
X200971243Y-49917777D01*
X201234757Y-49917777D01*
X201245896Y-49919032D01*
G37*
G36*
X117443285Y-51707060D02*
G01*
X117624397Y-51782079D01*
X117787393Y-51890990D01*
X117926010Y-52029607D01*
X118034921Y-52192603D01*
X118109940Y-52373715D01*
X118148185Y-52565983D01*
X118148185Y-52762017D01*
X118109940Y-52954285D01*
X118034921Y-53135397D01*
X117926010Y-53298393D01*
X117787393Y-53437010D01*
X117624397Y-53545921D01*
X117443285Y-53620940D01*
X117251017Y-53659185D01*
X117054983Y-53659185D01*
X116862715Y-53620940D01*
X116681603Y-53545921D01*
X116518607Y-53437010D01*
X116379990Y-53298393D01*
X116271079Y-53135397D01*
X116196060Y-52954285D01*
X116157815Y-52762017D01*
X116157815Y-52565983D01*
X116196060Y-52373715D01*
X116271079Y-52192603D01*
X116379990Y-52029607D01*
X116518607Y-51890990D01*
X116681603Y-51782079D01*
X116862715Y-51707060D01*
X117054983Y-51668815D01*
X117251017Y-51668815D01*
X117443285Y-51707060D01*
G37*
M02*
