G04 #@! TF.GenerationSoftware,KiCad,Pcbnew,9.0.4-9.0.4-0~ubuntu24.04.1*
G04 #@! TF.CreationDate,2026-02-08T13:12:22+09:00*
G04 #@! TF.ProjectId,10k-Hour-Timer-RP2040,31306b2d-486f-4757-922d-54696d65722d,rev?*
G04 #@! TF.SameCoordinates,Original*
G04 #@! TF.FileFunction,Paste,Top*
G04 #@! TF.FilePolarity,Positive*
%FSLAX46Y46*%
G04 Gerber Fmt 4.6, Leading zero omitted, Abs format (unit mm)*
G04 Created by KiCad (PCBNEW 9.0.4-9.0.4-0~ubuntu24.04.1) date 2026-02-08 13:12:22*
%MOMM*%
%LPD*%
G01*
G04 APERTURE LIST*
G04 Aperture macros list*
%AMRoundRect*
0 Rectangle with rounded corners*
0 $1 Rounding radius*
0 $2 $3 $4 $5 $6 $7 $8 $9 X,Y pos of 4 corners*
0 Add a 4 corners polygon primitive as box body*
4,1,4,$2,$3,$4,$5,$6,$7,$8,$9,$2,$3,0*
0 Add four circle primitives for the rounded corners*
1,1,$1+$1,$2,$3*
1,1,$1+$1,$4,$5*
1,1,$1+$1,$6,$7*
1,1,$1+$1,$8,$9*
0 Add four rect primitives between the rounded corners*
20,1,$1+$1,$2,$3,$4,$5,0*
20,1,$1+$1,$4,$5,$6,$7,0*
20,1,$1+$1,$6,$7,$8,$9,0*
20,1,$1+$1,$8,$9,$2,$3,0*%
G04 Aperture macros list end*
%ADD10RoundRect,0.250000X-0.350000X-0.450000X0.350000X-0.450000X0.350000X0.450000X-0.350000X0.450000X0*%
%ADD11RoundRect,0.250000X0.350000X0.450000X-0.350000X0.450000X-0.350000X-0.450000X0.350000X-0.450000X0*%
%ADD12R,0.970000X1.000000*%
%ADD13RoundRect,0.237500X-0.237500X0.300000X-0.237500X-0.300000X0.237500X-0.300000X0.237500X0.300000X0*%
%ADD14RoundRect,0.250000X0.325000X0.650000X-0.325000X0.650000X-0.325000X-0.650000X0.325000X-0.650000X0*%
%ADD15RoundRect,0.250000X-0.450000X0.350000X-0.450000X-0.350000X0.450000X-0.350000X0.450000X0.350000X0*%
%ADD16RoundRect,0.150000X-0.512500X-0.150000X0.512500X-0.150000X0.512500X0.150000X-0.512500X0.150000X0*%
%ADD17RoundRect,0.243750X-0.243750X-0.456250X0.243750X-0.456250X0.243750X0.456250X-0.243750X0.456250X0*%
%ADD18RoundRect,0.243750X0.243750X0.456250X-0.243750X0.456250X-0.243750X-0.456250X0.243750X-0.456250X0*%
%ADD19RoundRect,0.162500X0.650000X0.162500X-0.650000X0.162500X-0.650000X-0.162500X0.650000X-0.162500X0*%
%ADD20RoundRect,0.237500X-0.300000X-0.237500X0.300000X-0.237500X0.300000X0.237500X-0.300000X0.237500X0*%
%ADD21RoundRect,0.150000X0.587500X0.150000X-0.587500X0.150000X-0.587500X-0.150000X0.587500X-0.150000X0*%
%ADD22RoundRect,0.150000X-0.150000X0.512500X-0.150000X-0.512500X0.150000X-0.512500X0.150000X0.512500X0*%
%ADD23RoundRect,0.237500X0.237500X-0.300000X0.237500X0.300000X-0.237500X0.300000X-0.237500X-0.300000X0*%
%ADD24RoundRect,0.237500X0.300000X0.237500X-0.300000X0.237500X-0.300000X-0.237500X0.300000X-0.237500X0*%
%ADD25RoundRect,0.250000X0.450000X-0.350000X0.450000X0.350000X-0.450000X0.350000X-0.450000X-0.350000X0*%
%ADD26RoundRect,0.150000X-0.150000X0.587500X-0.150000X-0.587500X0.150000X-0.587500X0.150000X0.587500X0*%
%ADD27RoundRect,0.070000X0.070000X0.355000X-0.070000X0.355000X-0.070000X-0.355000X0.070000X-0.355000X0*%
%ADD28RoundRect,0.070000X0.070000X0.305000X-0.070000X0.305000X-0.070000X-0.305000X0.070000X-0.305000X0*%
%ADD29RoundRect,0.249999X0.395001X-0.395001X0.395001X0.395001X-0.395001X0.395001X-0.395001X-0.395001X0*%
%ADD30RoundRect,0.050000X0.050000X-0.387500X0.050000X0.387500X-0.050000X0.387500X-0.050000X-0.387500X0*%
%ADD31RoundRect,0.050000X0.387500X-0.050000X0.387500X0.050000X-0.387500X0.050000X-0.387500X-0.050000X0*%
%ADD32R,1.150000X0.600000*%
%ADD33R,1.150000X0.300000*%
%ADD34R,3.600000X1.150000*%
%ADD35RoundRect,0.150000X-0.587500X-0.150000X0.587500X-0.150000X0.587500X0.150000X-0.587500X0.150000X0*%
%ADD36RoundRect,0.150000X-0.150000X0.825000X-0.150000X-0.825000X0.150000X-0.825000X0.150000X0.825000X0*%
%ADD37RoundRect,0.150000X0.625000X-0.150000X0.625000X0.150000X-0.625000X0.150000X-0.625000X-0.150000X0*%
%ADD38RoundRect,0.250000X0.650000X-0.350000X0.650000X0.350000X-0.650000X0.350000X-0.650000X-0.350000X0*%
%ADD39RoundRect,0.243750X-0.456250X0.243750X-0.456250X-0.243750X0.456250X-0.243750X0.456250X0.243750X0*%
%ADD40R,0.601900X1.968500*%
%ADD41RoundRect,0.250000X1.000000X0.650000X-1.000000X0.650000X-1.000000X-0.650000X1.000000X-0.650000X0*%
%ADD42R,1.050000X1.300000*%
%ADD43R,1.300000X3.400000*%
%ADD44R,1.000000X1.800000*%
%ADD45RoundRect,0.250000X0.250000X0.250000X-0.250000X0.250000X-0.250000X-0.250000X0.250000X-0.250000X0*%
G04 APERTURE END LIST*
D10*
G04 #@! TO.C,R1*
X114570000Y-115672000D03*
X116570000Y-115672000D03*
G04 #@! TD*
D11*
G04 #@! TO.C,R11*
X124459000Y-73776000D03*
X122459000Y-73776000D03*
G04 #@! TD*
D12*
G04 #@! TO.C,FB1*
X116303000Y-111734000D03*
X116303000Y-110264000D03*
G04 #@! TD*
D13*
G04 #@! TO.C,C4*
X142775000Y-95739000D03*
X142775000Y-97464000D03*
G04 #@! TD*
D10*
G04 #@! TO.C,R14*
X134271000Y-88900000D03*
X136271000Y-88900000D03*
G04 #@! TD*
D13*
G04 #@! TO.C,C14*
X127775081Y-123760826D03*
X127775081Y-125485826D03*
G04 #@! TD*
D14*
G04 #@! TO.C,C23*
X176938200Y-103886000D03*
X173988200Y-103886000D03*
G04 #@! TD*
D15*
G04 #@! TO.C,R17*
X122808000Y-94221000D03*
X122808000Y-96221000D03*
G04 #@! TD*
D11*
G04 #@! TO.C,R13*
X117059000Y-77976000D03*
X115059000Y-77976000D03*
G04 #@! TD*
D15*
G04 #@! TO.C,R46*
X165983000Y-81024000D03*
X165983000Y-83024000D03*
G04 #@! TD*
D16*
G04 #@! TO.C,U2*
X143775000Y-92314000D03*
X143775000Y-93264000D03*
X143775000Y-94214000D03*
X146050000Y-94214000D03*
X146050000Y-92314000D03*
G04 #@! TD*
D13*
G04 #@! TO.C,C18*
X129997200Y-124918300D03*
X129997200Y-126643300D03*
G04 #@! TD*
D17*
G04 #@! TO.C,D6*
X142165500Y-86804000D03*
X144040500Y-86804000D03*
G04 #@! TD*
D13*
G04 #@! TO.C,C16*
X126075081Y-123798326D03*
X126075081Y-125523326D03*
G04 #@! TD*
D10*
G04 #@! TO.C,R42*
X150403000Y-105064000D03*
X152403000Y-105064000D03*
G04 #@! TD*
D18*
G04 #@! TO.C,D2*
X116103000Y-123064000D03*
X114228000Y-123064000D03*
G04 #@! TD*
D17*
G04 #@! TO.C,D9*
X116465500Y-144964000D03*
X118340500Y-144964000D03*
G04 #@! TD*
D19*
G04 #@! TO.C,U5*
X127490500Y-132369000D03*
X127490500Y-131099000D03*
X127490500Y-129829000D03*
X127490500Y-128559000D03*
X120315500Y-128559000D03*
X120315500Y-129829000D03*
X120315500Y-131099000D03*
X120315500Y-132369000D03*
G04 #@! TD*
D20*
G04 #@! TO.C,C26*
X190745500Y-88644000D03*
X192470500Y-88644000D03*
G04 #@! TD*
D21*
G04 #@! TO.C,D7*
X135771000Y-92900000D03*
X135771000Y-91000000D03*
X133896000Y-91950000D03*
G04 #@! TD*
D10*
G04 #@! TO.C,R27*
X121123200Y-116535200D03*
X123123200Y-116535200D03*
G04 #@! TD*
D15*
G04 #@! TO.C,R30*
X140800000Y-112900000D03*
X140800000Y-114900000D03*
G04 #@! TD*
D10*
G04 #@! TO.C,R34*
X133493000Y-99314000D03*
X135493000Y-99314000D03*
G04 #@! TD*
D11*
G04 #@! TO.C,R37*
X122353000Y-144964000D03*
X120353000Y-144964000D03*
G04 #@! TD*
D10*
G04 #@! TO.C,R22*
X189200000Y-120150000D03*
X191200000Y-120150000D03*
G04 #@! TD*
D22*
G04 #@! TO.C,U4*
X120838000Y-90302500D03*
X119888000Y-90302500D03*
X118938000Y-90302500D03*
X118938000Y-92577500D03*
X120838000Y-92577500D03*
G04 #@! TD*
D15*
G04 #@! TO.C,R47*
X168933000Y-81024000D03*
X168933000Y-83024000D03*
G04 #@! TD*
D13*
G04 #@! TO.C,C19*
X125480342Y-119634053D03*
X125480342Y-121359053D03*
G04 #@! TD*
D23*
G04 #@! TO.C,C15*
X138600000Y-118845500D03*
X138600000Y-117120500D03*
G04 #@! TD*
D24*
G04 #@! TO.C,C5*
X118159700Y-75742800D03*
X116434700Y-75742800D03*
G04 #@! TD*
D17*
G04 #@! TO.C,D5*
X147809500Y-86904000D03*
X149684500Y-86904000D03*
G04 #@! TD*
D25*
G04 #@! TO.C,R9*
X110103000Y-69664000D03*
X110103000Y-67664000D03*
G04 #@! TD*
D11*
G04 #@! TO.C,R7*
X149825500Y-84364000D03*
X147825500Y-84364000D03*
G04 #@! TD*
D15*
G04 #@! TO.C,R5*
X118800000Y-123900000D03*
X118800000Y-125900000D03*
G04 #@! TD*
D26*
G04 #@! TO.C,Q6*
X151653000Y-99226500D03*
X149753000Y-99226500D03*
X150703000Y-101101500D03*
G04 #@! TD*
D20*
G04 #@! TO.C,C21*
X132103000Y-137564000D03*
X133828000Y-137564000D03*
G04 #@! TD*
D15*
G04 #@! TO.C,R3*
X105883000Y-59064000D03*
X105883000Y-61064000D03*
G04 #@! TD*
D13*
G04 #@! TO.C,C2*
X118203000Y-110064000D03*
X118203000Y-111789000D03*
G04 #@! TD*
D27*
G04 #@! TO.C,U3*
X119159000Y-72876000D03*
D28*
X118659000Y-72826000D03*
X118159000Y-72826000D03*
X118159000Y-73976000D03*
X118659000Y-73976000D03*
X119159000Y-73976000D03*
G04 #@! TD*
D25*
G04 #@! TO.C,R15*
X126746000Y-91932000D03*
X126746000Y-89932000D03*
G04 #@! TD*
D26*
G04 #@! TO.C,Q1*
X121953000Y-112526500D03*
X120053000Y-112526500D03*
X121003000Y-114401500D03*
G04 #@! TD*
D10*
G04 #@! TO.C,R29*
X121120200Y-118635200D03*
X123120200Y-118635200D03*
G04 #@! TD*
D20*
G04 #@! TO.C,C8*
X118897500Y-88236000D03*
X120622500Y-88236000D03*
G04 #@! TD*
D15*
G04 #@! TO.C,R16*
X122935000Y-90284000D03*
X122935000Y-92284000D03*
G04 #@! TD*
D29*
G04 #@! TO.C,U6*
X132103000Y-120664000D03*
X133703000Y-120664000D03*
X132103000Y-119064000D03*
X133703000Y-119064000D03*
D30*
X130303000Y-123301500D03*
X130703000Y-123301500D03*
X131103000Y-123301500D03*
X131503000Y-123301500D03*
X131903000Y-123301500D03*
X132303000Y-123301500D03*
X132703000Y-123301500D03*
X133103000Y-123301500D03*
X133503000Y-123301500D03*
X133903000Y-123301500D03*
X134303000Y-123301500D03*
X134703000Y-123301500D03*
X135103000Y-123301500D03*
X135503000Y-123301500D03*
D31*
X136340500Y-122464000D03*
X136340500Y-122064000D03*
X136340500Y-121664000D03*
X136340500Y-121264000D03*
X136340500Y-120864000D03*
X136340500Y-120464000D03*
X136340500Y-120064000D03*
X136340500Y-119664000D03*
X136340500Y-119264000D03*
X136340500Y-118864000D03*
X136340500Y-118464000D03*
X136340500Y-118064000D03*
X136340500Y-117664000D03*
X136340500Y-117264000D03*
D30*
X135503000Y-116426500D03*
X135103000Y-116426500D03*
X134703000Y-116426500D03*
X134303000Y-116426500D03*
X133903000Y-116426500D03*
X133503000Y-116426500D03*
X133103000Y-116426500D03*
X132703000Y-116426500D03*
X132303000Y-116426500D03*
X131903000Y-116426500D03*
X131503000Y-116426500D03*
X131103000Y-116426500D03*
X130703000Y-116426500D03*
X130303000Y-116426500D03*
D31*
X129465500Y-117264000D03*
X129465500Y-117664000D03*
X129465500Y-118064000D03*
X129465500Y-118464000D03*
X129465500Y-118864000D03*
X129465500Y-119264000D03*
X129465500Y-119664000D03*
X129465500Y-120064000D03*
X129465500Y-120464000D03*
X129465500Y-120864000D03*
X129465500Y-121264000D03*
X129465500Y-121664000D03*
X129465500Y-122064000D03*
X129465500Y-122464000D03*
G04 #@! TD*
D21*
G04 #@! TO.C,Q4*
X138557000Y-101964000D03*
X138557000Y-100064000D03*
X136682000Y-101014000D03*
G04 #@! TD*
D23*
G04 #@! TO.C,C1*
X114271000Y-111861500D03*
X114271000Y-110136500D03*
G04 #@! TD*
D15*
G04 #@! TO.C,R4*
X116303000Y-137836400D03*
X116303000Y-139836400D03*
G04 #@! TD*
G04 #@! TO.C,R25*
X150703000Y-107264000D03*
X150703000Y-109264000D03*
G04 #@! TD*
D32*
G04 #@! TO.C,J3*
X111805000Y-114230000D03*
X111805000Y-115030000D03*
D33*
X111805000Y-116180000D03*
X111805000Y-117180000D03*
X111805000Y-117680000D03*
X111805000Y-118680000D03*
D32*
X111805000Y-119830000D03*
X111805000Y-120630000D03*
D33*
X111805000Y-119180000D03*
X111805000Y-118180000D03*
X111805000Y-116680000D03*
X111805000Y-115680000D03*
G04 #@! TD*
D14*
G04 #@! TO.C,C27*
X188843000Y-88644000D03*
X185893000Y-88644000D03*
G04 #@! TD*
D25*
G04 #@! TO.C,R32*
X155078000Y-124474000D03*
X155078000Y-122474000D03*
G04 #@! TD*
D34*
G04 #@! TO.C,L1*
X115337000Y-93011000D03*
X115337000Y-90061000D03*
G04 #@! TD*
D35*
G04 #@! TO.C,Q7*
X193571500Y-118974000D03*
X193571500Y-120874000D03*
X195446500Y-119924000D03*
G04 #@! TD*
D36*
G04 #@! TO.C,U7*
X160313000Y-95764000D03*
X159043000Y-95764000D03*
X157773000Y-95764000D03*
X156503000Y-95764000D03*
X156503000Y-100714000D03*
X157773000Y-100714000D03*
X159043000Y-100714000D03*
X160313000Y-100714000D03*
G04 #@! TD*
D20*
G04 #@! TO.C,C6*
X118770500Y-94459000D03*
X120495500Y-94459000D03*
G04 #@! TD*
D23*
G04 #@! TO.C,C10*
X144803000Y-122926500D03*
X144803000Y-121201500D03*
G04 #@! TD*
D10*
G04 #@! TO.C,R20*
X189150000Y-123500000D03*
X191150000Y-123500000D03*
G04 #@! TD*
D25*
G04 #@! TO.C,R10*
X112903000Y-69664000D03*
X112903000Y-67664000D03*
G04 #@! TD*
D11*
G04 #@! TO.C,R8*
X144103000Y-84264000D03*
X142103000Y-84264000D03*
G04 #@! TD*
D37*
G04 #@! TO.C,J2*
X198498000Y-88374000D03*
X198498000Y-87374000D03*
X198498000Y-86374000D03*
D38*
X202373000Y-89674000D03*
X202373000Y-85074000D03*
G04 #@! TD*
D13*
G04 #@! TO.C,C20*
X127180342Y-119634053D03*
X127180342Y-121359053D03*
G04 #@! TD*
D20*
G04 #@! TO.C,C7*
X129312500Y-88935000D03*
X131037500Y-88935000D03*
G04 #@! TD*
D15*
G04 #@! TO.C,R49*
X171400000Y-101650000D03*
X171400000Y-103650000D03*
G04 #@! TD*
D10*
G04 #@! TO.C,R12*
X119259000Y-77976000D03*
X121259000Y-77976000D03*
G04 #@! TD*
D39*
G04 #@! TO.C,D1*
X106203000Y-65264000D03*
X106203000Y-67139000D03*
G04 #@! TD*
D15*
G04 #@! TO.C,R45*
X163033000Y-81024000D03*
X163033000Y-83024000D03*
G04 #@! TD*
D11*
G04 #@! TO.C,R43*
X157003000Y-105064000D03*
X155003000Y-105064000D03*
G04 #@! TD*
D18*
G04 #@! TO.C,D10*
X160303000Y-112164000D03*
X158428000Y-112164000D03*
G04 #@! TD*
D13*
G04 #@! TO.C,C9*
X124840000Y-90421500D03*
X124840000Y-92146500D03*
G04 #@! TD*
D17*
G04 #@! TO.C,D8*
X114530900Y-126695200D03*
X116405900Y-126695200D03*
G04 #@! TD*
D15*
G04 #@! TO.C,R36*
X138176000Y-90694000D03*
X138176000Y-92694000D03*
G04 #@! TD*
D11*
G04 #@! TO.C,R23*
X136350000Y-132900000D03*
X134350000Y-132900000D03*
G04 #@! TD*
D40*
G04 #@! TO.C,U10*
X173193000Y-100942400D03*
X174463000Y-100942400D03*
X175733000Y-100942400D03*
X177003000Y-100942400D03*
X178273000Y-100942400D03*
X179543000Y-100942400D03*
X180813000Y-100942400D03*
X182083000Y-100942400D03*
X183353000Y-100942400D03*
X184623000Y-100942400D03*
X185893000Y-100942400D03*
X187163000Y-100942400D03*
X188433000Y-100942400D03*
X189703000Y-100942400D03*
X189703000Y-91585600D03*
X188433000Y-91585600D03*
X187163000Y-91585600D03*
X185893000Y-91585600D03*
X184623000Y-91585600D03*
X183353000Y-91585600D03*
X182083000Y-91585600D03*
X180813000Y-91585600D03*
X179543000Y-91585600D03*
X178273000Y-91585600D03*
X177003000Y-91585600D03*
X175733000Y-91585600D03*
X174463000Y-91585600D03*
X173193000Y-91585600D03*
G04 #@! TD*
D11*
G04 #@! TO.C,R35*
X135569200Y-102717600D03*
X133569200Y-102717600D03*
G04 #@! TD*
D13*
G04 #@! TO.C,C3*
X148275000Y-95039000D03*
X148275000Y-96764000D03*
G04 #@! TD*
D25*
G04 #@! TO.C,R38*
X145203000Y-144464000D03*
X145203000Y-142464000D03*
G04 #@! TD*
D10*
G04 #@! TO.C,R48*
X189100000Y-118050000D03*
X191100000Y-118050000D03*
G04 #@! TD*
D25*
G04 #@! TO.C,R28*
X185258000Y-144254000D03*
X185258000Y-142254000D03*
G04 #@! TD*
D41*
G04 #@! TO.C,D4*
X132953000Y-109564000D03*
X128953000Y-109564000D03*
G04 #@! TD*
D20*
G04 #@! TO.C,C25*
X162200500Y-100814000D03*
X163925500Y-100814000D03*
G04 #@! TD*
D13*
G04 #@! TO.C,C11*
X144803000Y-117226500D03*
X144803000Y-118951500D03*
G04 #@! TD*
D42*
G04 #@! TO.C,Y1*
X147128000Y-119176500D03*
X147128000Y-121476500D03*
X148878000Y-121476500D03*
X148878000Y-119176500D03*
G04 #@! TD*
D20*
G04 #@! TO.C,C22*
X132887500Y-114400000D03*
X134612500Y-114400000D03*
G04 #@! TD*
D13*
G04 #@! TO.C,C13*
X119703000Y-134239000D03*
X119703000Y-135964000D03*
G04 #@! TD*
D10*
G04 #@! TO.C,R19*
X134300000Y-130900000D03*
X136300000Y-130900000D03*
G04 #@! TD*
D25*
G04 #@! TO.C,R33*
X136194800Y-112607600D03*
X136194800Y-110607600D03*
G04 #@! TD*
D24*
G04 #@! TO.C,C28*
X176072400Y-106476800D03*
X174347400Y-106476800D03*
G04 #@! TD*
D10*
G04 #@! TO.C,R21*
X189150000Y-125650000D03*
X191150000Y-125650000D03*
G04 #@! TD*
G04 #@! TO.C,R18*
X115128800Y-129082800D03*
X117128800Y-129082800D03*
G04 #@! TD*
D11*
G04 #@! TO.C,R40*
X142603000Y-106164000D03*
X140603000Y-106164000D03*
G04 #@! TD*
D10*
G04 #@! TO.C,R39*
X140603000Y-103964000D03*
X142603000Y-103964000D03*
G04 #@! TD*
D23*
G04 #@! TO.C,C24*
X156263000Y-93214000D03*
X156263000Y-91489000D03*
G04 #@! TD*
D43*
G04 #@! TO.C,BZ2*
X157140500Y-129074000D03*
X165840500Y-129074000D03*
G04 #@! TD*
D15*
G04 #@! TO.C,R31*
X142800000Y-112900000D03*
X142800000Y-114900000D03*
G04 #@! TD*
D10*
G04 #@! TO.C,R26*
X140803000Y-118826500D03*
X142803000Y-118826500D03*
G04 #@! TD*
D23*
G04 #@! TO.C,C17*
X128066800Y-115924500D03*
X128066800Y-114199500D03*
G04 #@! TD*
D15*
G04 #@! TO.C,R24*
X153053000Y-107224000D03*
X153053000Y-109224000D03*
G04 #@! TD*
D10*
G04 #@! TO.C,R6*
X148296500Y-92584000D03*
X150296500Y-92584000D03*
G04 #@! TD*
D35*
G04 #@! TO.C,Q3*
X119221500Y-81526000D03*
X119221500Y-83426000D03*
X121096500Y-82476000D03*
G04 #@! TD*
D26*
G04 #@! TO.C,Q5*
X139776000Y-94894000D03*
X137876000Y-94894000D03*
X138826000Y-96769000D03*
G04 #@! TD*
D21*
G04 #@! TO.C,Q2*
X125108500Y-81974000D03*
X125108500Y-80074000D03*
X123233500Y-81024000D03*
G04 #@! TD*
D15*
G04 #@! TO.C,R44*
X155078000Y-131274000D03*
X155078000Y-133274000D03*
G04 #@! TD*
D35*
G04 #@! TO.C,Q8*
X193512500Y-123000000D03*
X193512500Y-124900000D03*
X195387500Y-123950000D03*
G04 #@! TD*
D10*
G04 #@! TO.C,R41*
X162063000Y-103014000D03*
X164063000Y-103014000D03*
G04 #@! TD*
D13*
G04 #@! TO.C,C12*
X121650000Y-134287500D03*
X121650000Y-136012500D03*
G04 #@! TD*
D44*
G04 #@! TO.C,Y2*
X158663000Y-92714000D03*
X161163000Y-92714000D03*
G04 #@! TD*
D10*
G04 #@! TO.C,R2*
X114570000Y-119228000D03*
X116570000Y-119228000D03*
G04 #@! TD*
D45*
G04 #@! TO.C,D3*
X130453000Y-106064000D03*
X127953000Y-106064000D03*
G04 #@! TD*
M02*
